<?xml version="1.0" encoding="utf-8"?>
<!-- Generator: Adobe Illustrator 17.1.0, SVG Export Plug-In . SVG Version: 6.00 Build 0)  -->
<!DOCTYPE svg PUBLIC "-//W3C//DTD SVG 1.1//EN" "http://www.w3.org/Graphics/SVG/1.1/DTD/svg11.dtd">
<svg version="1.1" id="Layer_1" xmlns="http://www.w3.org/2000/svg" xmlns:xlink="http://www.w3.org/1999/xlink" x="0px" y="0px"
	 viewBox="0 0 577 37.2" enable-background="new 0 0 577 37.2" xml:space="preserve">
<path fill="#0056AD" d="M221.8,8.6c6.2,3.2,11.1,5.8,16.2,8.2c2.3,1.1,4.3,0.7,5.9-2.1c2.4-4.1,9.8-4,12,0.2
	c1.5,2.9,3.5,2.8,5.6,2.1c5.8-2.1,11.5-4.2,17.1-6.8c6.6-3.2,12.7-3.2,19.3-0.1c5.5,2.6,11.3,4.8,17,6.9c2.3,0.8,4.3,0.7,5.9-2.2
	c2.2-4.1,9.5-3.9,12,0.3c1.6,2.7,3.4,2.5,5.7,2c5.7-1.3,10.6-4.1,14.3-8.9c14.5,5.5,29.6,5.6,44.7,5.8c29.4,0.5,58.9,1.1,88.3,1.7
	c25.1,0.5,50.3,1.1,75.4,1.7c1.7,0,3.4,0.4,5.1,0.6c0,0.5,0.1,0.9,0.1,1.4c-1.3,0.3-2.6,0.8-4,0.9c-18.9,0.4-37.7,0.7-56.6,1
	c-33.2,0.6-66.3,1.1-99.5,2c-14.2,0.4-28.5,1.8-42.7,3.1c-3.6,0.3-7.1,1.9-9.2,2.5c-5.9-3-11-5.8-16.2-8.1c-2.1-0.9-4-0.8-5.7,1.9
	c-2.7,4.4-9.9,4.3-12.3-0.1c-1.5-2.7-3.3-2.6-5.3-2c-4.6,1.5-9.4,2.8-13.5,5.2c-9.2,5.3-18,5.2-27.1-0.1c-4-2.3-8.7-3.6-13.1-5.1
	c-2.1-0.7-4.1-0.8-5.6,2.1c-2.2,4.1-9.5,4.2-12,0.1c-1.7-2.8-3.7-3.1-6-2.1c-5.1,2.3-10,5-16.1,8.1c-10.2-4.3-22.8-4.8-35.3-5.1
	c-31.9-0.8-63.7-1.2-95.6-1.9c-25.4-0.5-50.9-1.1-76.3-1.7c-1.5,0-3-0.5-4.5-0.7c0-0.5,0-0.9,0-1.4c1.2-0.2,2.5-0.7,3.7-0.7
	c23-0.5,46-0.8,69-1.3c36.2-0.7,72.3-1.4,108.5-2.5C202.2,13.2,213.1,12.7,221.8,8.6z"/>
</svg>
