<?xml version="1.0" encoding="utf-8"?>
<!-- Generator: Adobe Illustrator 17.1.0, SVG Export Plug-In . SVG Version: 6.00 Build 0)  -->
<!DOCTYPE svg PUBLIC "-//W3C//DTD SVG 1.1//EN" "http://www.w3.org/Graphics/SVG/1.1/DTD/svg11.dtd">
<svg version="1.1" id="Layer_1" xmlns="http://www.w3.org/2000/svg" xmlns:xlink="http://www.w3.org/1999/xlink" x="0px" y="0px"
	 viewBox="0 0 436.5 416.1" enable-background="new 0 0 436.5 416.1" xml:space="preserve">
<path fill="#FFFFFF" stroke="#FFFFFF" stroke-miterlimit="10" d="M218.5,332.1c-0.4,1.2-1.6,1.6-2.4,2.2
	c-18.4,13.6-36.9,27.3-55.3,40.9c-14.1,10.4-28.1,20.8-42.2,31.2c-4.1,3-8.2,6.1-12.4,9.1c-0.4,0.3-0.8,1.1-1.5,0.5
	c6.5-21.3,13.1-42.5,19.5-63.8c0.8-2.6,1.9-5.1,2.1-7.8l0,0c0.4,0,0.3-0.2,0.2-0.5c0.1,0,0.3-0.1,0.4-0.1c1.1,0.3,1.8-0.4,2.6-1
	c3.5-2.5,6.9-5.1,10.4-7.6c4.8-3.5,9.5-7,14.3-10.4c4.1-3,8.2-6.1,12.3-9.1c4.7-3.5,9.5-7,14.2-10.5c0.8-0.6,1.5-1.4,2.6-1.6
	c0.5,0.4,1.1,0.7,1.6,1.1c7.6,6.1,15.1,12.3,22.7,18.4C211.1,325.9,214.8,329,218.5,332.1z"/>
<path fill="#FFFFFF" stroke="#FFFFFF" stroke-miterlimit="10" d="M112.3,255c-5.1-3.6-10.1-7.4-15.3-10.9
	c-6.5-4.6-12.8-9.5-19.2-14.1c-12.9-9.4-25.9-18.7-38.8-28.1c-11.8-8.6-23.5-17.1-35.2-25.8c-1.1-0.8-2.5-1.5-3.4-2.6
	c3.3-0.3,6.7-0.5,10-0.6c6.1-0.3,12.2-0.8,18.3-1.2c6.3-0.4,12.6-0.7,18.8-1.1c6.1-0.3,12.2-0.6,18.4-1c1.1-0.1,2.2,0,3.1-0.8
	c0.4,0,0.8-0.1,1.1,0.2c-0.7,0.7-0.3,1,0.3,1.4c4.1,2.9,8.1,5.8,12.2,8.8c4.8,3.4,9.6,6.8,14.4,10.2c4.7,3.4,9.4,6.8,14.2,10.2
	c4.7,3.3,9.3,6.6,14,10c-2.9,10.2-5.8,20.5-8.7,30.7C115.2,245.1,113.8,250.1,112.3,255z"/>
<path fill="#FFFFFF" stroke="#FFFFFF" stroke-miterlimit="10" d="M333.6,414c-0.7,0.2-1.1-0.4-1.6-0.7c-25.6-18.5-51.1-37-76.7-55.5
	c-9.7-7-19.4-14-29.1-21.1c-2.2-1.6-4.4-3.1-6.5-4.9c0.1-0.2,0.2-0.4,0.4-0.6c11.8-8.9,23.5-17.7,35.3-26.6c0.2-0.2,0.6-0.2,0.9-0.3
	c0.9,0.1,1.6,0.8,2.3,1.3c5.5,4,11,8,16.5,12c8.6,6.3,17.2,12.5,25.7,18.8c3.1,2.3,6.4,4.4,9.2,7c0.7,0.6,0.3-0.6,0.8-0.6
	c0.2,0.1,0.4,0.3,0.6,0.4c-0.7,0.8-0.3,1.6,0,2.5c2.8,8.6,5.5,17.3,8.3,25.9c1.7,5.1,3.4,10.3,5.1,15.4
	C327.8,396,330.7,405,333.6,414z"/>
<path fill="#FFFFFF" stroke="#FFFFFF" stroke-miterlimit="10" d="M436.2,173.4c-0.5,0.8-1.4,1.3-2.2,1.8
	c-35.2,25.6-70.5,51.1-105.7,76.7c-0.7,0.5-1.4,1.1-2.1,1.6c-0.1,0-0.3,0-0.4,0c-4.3-12.9-8.6-25.7-12.9-38.6
	c-0.6-1.7-0.9-3.6-1.9-5.1c0.3-0.3,0.5-0.6,0.9-0.8c7.2-5.3,14.5-10.6,21.7-15.8c11.2-8.1,22.4-16.1,33.5-24.2
	c0.3,0,0.5-0.2,0.7-0.4c2.8,0.3,5.6,0.3,8.3,0.6c2.4,0.2,4.8,0.2,7.1,0.4c5.8,0.6,11.7,0.9,17.6,1.3c3.3,0.2,6.7,0.5,10,0.7
	c2.5,0.2,4.9,0.2,7.4,0.4C424.2,172.7,430.2,172.9,436.2,173.4z"/>
<path fill="#FFFFFF" stroke="#FFFFFF" stroke-miterlimit="10" d="M325.9,253.5c0.1,0,0.3,0,0.4,0c0.1,1.6,0.8,3.1,1.3,4.6
	c7.7,23.5,15.5,47,23.3,70.5c4.1,12.4,8.1,24.7,12.2,37.1c2.3,7,4.6,14,6.9,20.9c0.1,0.4,0.2,0.8,0.2,1.2c-3.8-2.8-7.5-5.7-11.3-8.5
	c-12.2-9.4-24.5-18.7-36.7-28.1c-3.6-2.7-7-5.6-10.7-8c-0.2-0.1-0.4-0.3-0.6-0.4c0.2-0.7-0.2-1.3-0.4-1.9c-1.4-4.6-3.1-9-4.4-13.6
	c-1.2-4-2.6-8-4-12c-2.3-6.4-4.3-12.8-6.4-19.3c-2-6.3-4.1-12.5-6.2-18.8c2.5-1.6,5-3.1,7.5-4.7c8.6-5.6,17.1-11.2,25.7-16.7
	C323.7,255.1,325,254.5,325.9,253.5z"/>
<path fill="#FFFFFF" stroke="#FFFFFF" stroke-miterlimit="10" d="M243,0.2c1.2-0.1,1.1,0.9,1.3,1.6c1.7,5.2,3.4,10.3,5,15.5
	c5.1,15.7,10.2,31.4,15.2,47.2c5.6,17.5,11.2,35,16.9,52.4c1.2,3.8,2.7,7.5,3.6,11.4c-14.8,0-29.7,0-44.5,0c-1.5-2.7-2-5.7-2.9-8.5
	c-3.3-10.1-6.4-20.3-9.8-30.4c-2.7-8.2-5.4-16.5-8-24.7c-0.3-1.1-0.7-2.1-1.3-3c0-0.2-0.1-0.3-0.1-0.5c2.5-6,5-12,7.5-18.1
	c4.9-11.9,9.7-23.7,14.5-35.6C241.4,5,242.7,2.8,243,0.2z"/>
<path fill="#FFFFFF" stroke="#FFFFFF" stroke-miterlimit="10" d="M126.9,343.7c-0.1,0-0.3,0.1-0.4,0.1c-0.1,0.2-0.1,0.3-0.2,0.5l0,0
	c-0.5-0.1-0.9,0.2-1.3,0.5c-1.7,1.3-3.4,2.7-5.1,4c-7.4,5.8-14.8,11.6-22.2,17.4c-6.8,5.3-13.5,10.7-20.3,15.9
	c-2.8,2.1-5.3,4.6-8.4,6.3c1-4.3,2.6-8.4,4-12.5c13-39.3,26-78.7,39-118c0.2-0.7,0.3-1.4,0.8-2c0.8,0.1,1.5,0.5,2.2,0.9
	c5.8,3.4,11.5,6.8,17.3,10.2c5.5,3.2,11,6.4,16.5,9.6c0.1,0.8-0.3,1.5-0.6,2.3c-2.7,8.2-5.3,16.3-8,24.5c-1.4,4.4-3,8.7-4.4,13.1
	C132.8,325.5,129.9,334.6,126.9,343.7z"/>
<path fill="#FFFFFF" stroke="#FFFFFF" stroke-miterlimit="10" d="M218.4,61.1c0,0.2,0.1,0.3,0.1,0.5c-1.2,0.1-1.2,1.2-1.4,1.9
	c-2,6.5-3.9,13-6.1,19.4c-2.1,6.4-4.1,12.9-6.3,19.3c-3,9-5.7,18.1-8.5,27.1c-3.9-0.1-7.8-0.4-11.7-0.4c-10.4-0.1-20.7-0.1-31.1-0.2
	c0.6-2.1,1.2-4.3,1.9-6.4c4.3-13.7,8.7-27.4,13-41.1c5.5-17.5,11-35,16.5-52.5c2.7-8.4,5.3-16.9,8-25.3c0.3-0.8,0.2-1.8,1.1-2.3
	c0.5,0.3,0.6,0.9,0.8,1.4c4.7,12,9.4,24,14,36.1c2.7,7,5.4,14,8.2,20.9C217.3,60.1,217.3,61.1,218.4,61.1z"/>
<path fill="#FFFFFF" stroke="#FFFFFF" stroke-miterlimit="10" d="M70.2,168.9c-0.3-0.4-0.7-0.2-1.1-0.2c-0.6,0-1-0.4-1.4-0.8
	c-7.3-5.5-14.6-11-22-16.5c-9.8-7.3-19.6-14.5-29.3-21.8c3.2-0.4,6.4-0.2,9.6-0.2c41.1-0.1,82.1-0.2,123.2-0.3c1,0,2.1,0.1,3.1,0.1
	c0,0.3,0,0.6-0.1,1c-2.7,9.8-5.5,19.6-8.2,29.5c-0.9,3.2-2.1,6.4-2.4,9.7c-0.9,0-1.7,0.1-2.6,0.1c-11.7-0.2-23.4-0.4-35.2-0.5
	c-10.3-0.1-20.6,0-30.9,0C72,169,71.1,169.1,70.2,168.9z"/>
<path fill="#FFFFFF" stroke="#FFFFFF" stroke-miterlimit="10" d="M367.8,168.6c-0.2,0.2-0.4,0.5-0.7,0.4c-0.4-0.5-1-0.5-1.5-0.5
	c-6.9-0.1-13.7,0.1-20.6-0.3c-4.1-0.2-8.3,0.1-12.4,0.2c-10.4,0.4-20.8,0.3-31.2,0.1c0-0.2-0.1-0.5-0.1-0.7c-5.2-13-10.5-26-15.7-39
	c2.1-0.1,4.3-0.4,6.4-0.4c42.6-0.1,85.3-0.1,127.9-0.1c0.7,0,1.4,0.1,2.2,0.1c-4.6,3.7-9.4,7-14.2,10.5
	c-11.2,8.2-22.4,16.3-33.5,24.6C372,165.1,369.6,166.4,367.8,168.6z"/>
<path fill="#FFFFFF" stroke="#FFFFFF" stroke-miterlimit="10" d="M126.2,344.3c0.1-0.2,0.1-0.3,0.2-0.5
	C126.6,344,126.7,344.3,126.2,344.3z"/>
<g>
	<path fill="#FFFFFF" stroke="#FFFFFF" stroke-miterlimit="10" d="M256.3,304.3c-0.3,0.1-0.6,0.2-0.9,0.3
		c-11.8,8.9-23.5,17.7-35.3,26.6c-0.2,0.1-0.3,0.4-0.4,0.6c-0.4,0.1-0.9,0.2-1.3,0.2c-3.7-3.1-7.3-6.1-11-9.2
		c-7.5-6.2-15.1-12.3-22.7-18.4c-0.5-0.4-1-0.7-1.6-1.1c0.1-0.5,0.4-0.7,0.8-1c5-3.7,9.9-7.4,14.9-11c6.2-4.6,12.4-9.1,18.5-13.7
		c1-0.8,1.7-0.8,2.7,0c3,2.2,6,4.4,9,6.6c7.3,5.3,14.6,10.6,21.8,15.9C252.8,301.5,254.9,302.5,256.3,304.3z"/>
	<path fill="#FFFFFF" stroke="#FFFFFF" stroke-miterlimit="10" d="M148.8,276.6c-5.5-3.2-11-6.4-16.5-9.6
		c-5.8-3.4-11.5-6.8-17.3-10.2c-0.7-0.4-1.3-0.9-2.2-0.9c-0.2-0.3-0.3-0.6-0.5-0.9c1.4-4.9,2.9-9.9,4.3-14.8
		c2.9-10.2,5.8-20.5,8.7-30.7c4.3,2.7,8.3,5.9,12.4,8.8c7.2,5.2,14.5,10.4,21.8,15.6c2.6,1.9,2.6,1.9,1.6,5
		c-0.3,0.8-0.4,1.7-0.7,2.5c-2.1,6.3-4.2,12.7-6.3,19C152.4,265.8,150.6,271.2,148.8,276.6z"/>
	<path fill="#FFFFFF" stroke="#FFFFFF" stroke-miterlimit="10" d="M285.5,128.8c5.2,13,10.5,26,15.7,39c0.1,0.2,0.1,0.5,0.1,0.7
		c-2.7,0.3-5.4,0.2-8.1,0.3c-6.9,0.3-13.9,0.2-20.9,0.2c-5.8,0-11.7-0.3-17.5,0c-1.3,0.1-1.7-0.5-2-1.6c-1.1-3.8-2.3-7.6-3.5-11.4
		c-2.1-6.5-4.3-13-6.4-19.5c-0.9-2.8-1.7-5.6-2.5-8.5c14.8,0,29.7,0,44.5,0C285.1,128.5,285.2,128.7,285.5,128.8z"/>
	<path fill="#FFFFFF" stroke="#FFFFFF" stroke-miterlimit="10" d="M141.5,169.4c0.2-3.4,1.5-6.5,2.4-9.7c2.7-9.8,5.4-19.7,8.2-29.5
		c0.1-0.3,0.1-0.6,0.1-1c0.5-0.2,1-0.2,1.4-0.6c10.4,0.1,20.7,0.1,31.1,0.2c3.9,0,7.8,0.3,11.7,0.4c-0.9,2.9-1.7,5.7-2.6,8.6
		c-1.6,5.1-3.3,10.1-4.9,15.2c-1.6,4.9-3,9.9-4.5,14.8c-0.3,1.2-1,1.6-2.2,1.6c-4.6-0.1-9.1,0-13.7,0
		C159.4,169.4,150.5,169.4,141.5,169.4z"/>
	<path fill="#FFFFFF" stroke="#FFFFFF" stroke-miterlimit="10" d="M311.4,343.2c3.8,2.4,7.2,5.3,10.7,8
		c12.3,9.3,24.5,18.7,36.7,28.1c3.7,2.9,7.5,5.7,11.3,8.5c0.4,1.2-0.7,1.2-1.3,1.6c-4.9,3.5-9.9,7-14.8,10.5
		c-6.1,4.3-12.2,8.6-18.4,12.9c-0.6,0.4-1.2,1.1-2,1.2c-2.9-9-5.8-18-8.8-27c-1.7-5.1-3.4-10.3-5.1-15.4c-2.8-8.6-5.5-17.3-8.3-25.9
		C311.2,344.9,310.7,344.1,311.4,343.2z"/>
	<path fill="#FFFFFF" stroke="#FFFFFF" stroke-miterlimit="10" d="M69,388.4c3.1-1.7,5.6-4.1,8.4-6.3c6.8-5.2,13.6-10.6,20.3-15.9
		c7.4-5.8,14.8-11.6,22.2-17.4c1.7-1.3,3.4-2.7,5.1-4c0.4-0.3,0.7-0.6,1.3-0.5c-0.2,2.7-1.3,5.2-2.1,7.8
		c-6.5,21.3-13,42.5-19.5,63.8c-0.6-0.1-1-0.5-1.4-0.9c-11-8.2-22-16.5-32.9-24.8C69.8,389.8,68.5,389.7,69,388.4z"/>
	<path fill="#FFFFFF" stroke="#FFFFFF" stroke-miterlimit="10" d="M367.8,168.6c1.8-2.2,4.3-3.5,6.5-5.1
		c11.1-8.2,22.4-16.4,33.5-24.6c4.7-3.5,9.6-6.8,14.2-10.5c1.8-0.6,1.9,0.8,2.2,1.9c2.9,10,5.8,20,8.7,30c1,3.6,2.1,7.2,3.1,10.8
		c0.2,0.7,0.7,1.5,0.2,2.3c-6-0.5-12-0.7-18-1.3c-2.4-0.3-4.9-0.3-7.4-0.4c-3.3-0.2-6.7-0.5-10-0.7c-5.9-0.4-11.7-0.6-17.6-1.3
		c-2.4-0.3-4.8-0.2-7.1-0.4C373.3,168.9,370.6,168.9,367.8,168.6z"/>
	<path fill="#FFFFFF" stroke="#FFFFFF" stroke-miterlimit="10" d="M218.4,61.1c-1.2,0-1.1-1-1.4-1.7c-2.8-7-5.5-13.9-8.2-20.9
		c-4.7-12-9.3-24-14-36.1c-0.2-0.5-0.3-1.1-0.8-1.4c0-0.4-0.2-0.8,0.4-0.9c0.5-0.1,1-0.1,1.4-0.1c15.4,0,30.9,0.1,46.3,0.1
		c0.2,0,0.5,0,0.7,0.1c-0.2,2.6-1.6,4.8-2.5,7.2c-4.8,11.9-9.6,23.8-14.5,35.6C223.5,49,220.9,55,218.4,61.1z"/>
	<path fill="#FFFFFF" stroke="#FFFFFF" stroke-miterlimit="10" d="M16.4,129.6c9.8,7.3,19.6,14.5,29.3,21.8c7.3,5.5,14.7,11,22,16.5
		c0.4,0.3,0.8,0.8,1.4,0.8c-0.9,0.8-2,0.7-3.1,0.8c-6.1,0.4-12.2,0.7-18.4,1c-6.3,0.4-12.6,0.7-18.8,1.1c-6.1,0.4-12.2,0.9-18.3,1.2
		c-3.3,0.2-6.7,0.3-10,0.6c-1-0.8-0.1-1.6,0.1-2.3c2.4-7,4.9-14,7.4-20.9c2.3-6.4,4.5-12.8,6.8-19.1C15,130.3,14.9,129.1,16.4,129.6
		z"/>
	<path fill="#FFFFFF" stroke="#FFFFFF" stroke-miterlimit="10" d="M289.4,277.2c-1.8-4-2.9-8.3-4.3-12.4c-2.1-6.1-4.1-12.2-6.1-18.3
		c-1.1-3.3-2.1-6.7-3.3-10c-0.4-1.1,0.1-1.5,0.8-2c4.2-3,8.4-6,12.6-9c7.1-5.1,14.1-10.3,21.2-15.4c0.2-0.2,0.6-0.3,0.8-0.4
		c1,1.6,1.3,3.4,1.9,5.1c4.3,12.8,8.6,25.7,12.9,38.6c-0.9,1.1-2.2,1.6-3.3,2.3c-8.6,5.6-17.1,11.2-25.7,16.7
		C294.4,274.1,291.9,275.7,289.4,277.2z"/>
</g>
</svg>
