<?xml version="1.0" encoding="utf-8"?>
<!-- Generator: Adobe Illustrator 17.1.0, SVG Export Plug-In . SVG Version: 6.00 Build 0)  -->
<!DOCTYPE svg PUBLIC "-//W3C//DTD SVG 1.1//EN" "http://www.w3.org/Graphics/SVG/1.1/DTD/svg11.dtd">
<svg version="1.1" id="Layer_1" xmlns="http://www.w3.org/2000/svg" xmlns:xlink="http://www.w3.org/1999/xlink" x="0px" y="0px"
	 viewBox="0 0 429.4 153.7" enable-background="new 0 0 429.4 153.7" xml:space="preserve">
<g>
	<path fill="#FFFFFF" d="M257.7,104c-0.9,0.2-1.5-0.2-2.1-0.5c-9.2-3.6-18.7-6.1-28.6-7.3c-5-0.6-10-0.6-15.1-0.5
		c-2.3,0-2.4,0.2-1.7,2.4c4.4,13.4,8.9,26.9,13.3,40.3c1.2,3.5,2.3,7.1,3.5,10.6c0.1,0.4,0.3,0.8,0.3,1.2c0.2,0.8-0.2,1.2-0.9,1.3
		c-0.5,0.1-1.1,0.1-1.7,0.1c-12.9,0-25.8,0-38.7,0c-2.6,0-2.7-0.1-3.4-2.6c-3.9-14.3-7.7-28.6-11.6-43c-0.1-0.3-0.2-0.7-0.3-1
		c-0.3-0.8-0.8-1.1-1.6-0.7c-1.1,0.5-2.3,0.9-3.4,1.4c-11.3,5.2-21.6,11.8-30.3,20.6c-5.9,5.9-10.7,12.7-13.5,20.6
		c-0.3,0.8-0.6,1.7-0.9,2.5c-0.6,2-0.7,2.1-2.9,2.1c-0.1,0-0.3,0-0.4,0c-13,0-26.1,0-39.1,0c-2.8,0-2.8-0.1-2-2.6
		c5.6-17.3,11.2-34.5,16.8-51.8c7.1-21.8,14.2-43.6,21.2-65.4c3-9.3,6-18.5,9-27.8c0.8-2.4,0.8-2.4,3.3-2.4c16.3,0,32.6,0,48.9,0
		c2.6,0,2.6,0,3.5,2.5c7.4,22.4,14.8,44.8,22.1,67.2c0.2,0.5,0.4,1,0.5,1.6c0.3,1.2,1,1.8,2.3,2c17.1,2.7,32.2,10,45.4,21.1
		c2.3,2,4.4,4.2,6.7,6.1C256.9,102.6,257.4,103.1,257.7,104z M151.7,35.5c-1.1,2.3-13.2,48.3-13.2,49.9c0.6,0.1,1-0.2,1.5-0.5
		c6.3-2.9,12.8-5.3,19.4-7.1c0.8-0.2,1.6-0.5,2.4-0.6c1-0.2,1.2-0.8,0.9-1.7c-0.1-0.3-0.1-0.5-0.2-0.8c-3.4-12.6-6.8-25.2-10.2-37.7
		C152.2,36.4,152.2,35.9,151.7,35.5z"/>
	<path fill="#FFFFFF" d="M284.3,0c4.1,0.1,10.9,0.6,17.5,2c2,0.4,3,1.4,3.5,3.4c2.7,10.2,5.5,20.4,8.2,30.6c0.2,0.6,0.8,1.4,0.1,1.9
		c-0.6,0.5-1.3-0.2-1.9-0.4c-6.1-2.7-12.3-5-18.7-6.6c-3.4-0.9-6.9-1.5-10.4-1.8c-3.2-0.3-6.4,0.1-9.4,1.1c-5.7,2-8.9,8.1-7.2,13.6
		c0.8,2.4,2.3,4.2,4.1,5.9c3.5,3.2,7.7,5.4,11.9,7.3c5.6,2.6,11.5,4.6,17.1,7.4c5.7,2.9,11.2,6.1,16.2,10.3c7.6,6.3,11.7,14.4,13,24
		c0.9,6.1,0.7,12.1-0.7,18.1c-2.2,9.8-7.3,17.8-15.1,24.1c-8,6.4-17.3,9.9-27.3,11.6c-6.1,1-12.2,1.5-18.3,1.2
		c-5.2-0.3-10.5-0.5-15.7-1c-3.3-0.4-6.6-0.6-9.9-0.8c-1.5-0.1-2.3-0.8-2.8-2.2c-3-8.9-6.2-17.7-9.2-26.6c-1.4-4-2.8-8.1-4.3-12.1
		c-0.1-0.3-0.2-0.5-0.3-0.8c-0.1-0.5-0.6-1.1,0-1.5c0.4-0.3,0.9,0.1,1.3,0.3c5.1,2.4,10.3,4.6,15.7,6.4c8.2,2.7,16.6,4.5,25.3,5.2
		c4.1,0.3,8.1,0.2,12.1-0.8c2.8-0.7,5.3-2,7.1-4.4c2.8-3.8,2.5-8.7-0.8-12.1c-1.7-1.8-3.8-3.2-6-4.4c-6.4-3.4-13.1-6.3-19.6-9.3
		c-6.9-3.2-13.6-6.7-19.6-11.5c-8.5-6.9-13.5-15.7-14.7-26.7c-0.6-5.5-0.7-11,0.4-16.5c1.9-10.3,7.3-18.3,15.8-24.3
		c7.2-5.1,15.3-7.8,23.9-9.2C271,0.4,276.3,0,284.3,0z"/>
	<path fill="#FFFFFF" d="M0,76.6C0,52.9,0,29.2,0,5.4c0-3.3,0-3.3,3.3-3.3c35.1,0,70.1,0,105.2,0c3.5,0,3.5,0,2.5,3.4
		c-2.7,8.9-5.5,17.8-8.3,26.7c-0.8,2.6-0.9,2.6-3.6,2.6c-18.6,0-37.1,0-55.7,0c-3.4,0-3.4,0-3.4,3.4c0,7.2,0,14.4,0,21.5
		c0,0.6,0,1.2,0,1.9c0,0.7,0.4,1.2,1.2,1.2c0.7,0,1.4,0,2.1,0c15.1,0,30.2,0,45.3,0c3.4,0,3.4,0,2.4,3.2c-2.8,9.1-5.7,18.2-8.5,27.3
		c-0.7,2.3-0.7,2.3-3.2,2.3c-12.1,0-24.3,0-36.4,0c-2.8,0-2.8,0-2.8,2.9c0,16.6,0,33.1,0,49.7c0,3.3,0,3.3-3.3,3.3
		c-11.2,0-22.4,0-33.5,0c-3.1,0-3.1,0-3.1-3.1C0,124.5,0,100.6,0,76.6z"/>
	<path fill="#FFFFFF" d="M372,2.1c18,0,36,0,54,0c3.4,0,3.4,0,3.4,3.3c0,9.8,0,19.6,0,29.4c0,0.5,0,1,0,1.4
		c-0.1,1.5-0.4,1.8-1.9,1.9c-0.6,0-1.2,0-1.9,0c-11.2,0-22.4,0-33.5,0c-0.2,0-0.4,0-0.6,0c-3,0-3,0-3,3c0,35.5,0,71.1,0,106.6
		c0,4.2,0.2,3.9-4,3.9c-11,0-21.9,0-32.9,0c-0.3,0-0.7,0-1,0c-2.7,0-2.8-0.1-2.8-2.8c0-35.5,0-71.1,0-106.6c0-0.7,0-1.4,0-2.1
		c-0.1-1.8-0.2-1.9-2.1-2c-0.6,0-1.1,0-1.7,0c-5.8,0-11.6,0-17.4,0c-2.6,0-2.7-0.1-3.4-2.6c-2.6-10.1-5.3-20.2-7.9-30.2
		c-0.8-3.1-0.8-3.1,2.4-3.1C335.9,2.1,353.9,2.1,372,2.1z"/>
</g>
</svg>
