<?xml version="1.0" encoding="utf-8"?>
<!-- Generator: Adobe Illustrator 17.1.0, SVG Export Plug-In . SVG Version: 6.00 Build 0)  -->
<!DOCTYPE svg PUBLIC "-//W3C//DTD SVG 1.1//EN" "http://www.w3.org/Graphics/SVG/1.1/DTD/svg11.dtd">
<svg version="1.1" id="Capa_1" xmlns="http://www.w3.org/2000/svg" xmlns:xlink="http://www.w3.org/1999/xlink" x="0px" y="0px"
	 viewBox="0 0 792 792" enable-background="new 0 0 792 792" xml:space="preserve">
<g>
	<g>
		<path fill="#FFFFFF" d="M537.9,134.1h-47.3c-15,0-27,12.1-27,27v156.1H327.9V161.1c0-14.9-12.1-27-27-27H254
			c-15,0-27.1,12.1-27.1,27c0,15,12.1,27.1,27.1,27.1h19.8v156V670c0,67.3,54.7,122,122,122c67.2,0,121.9-54.7,121.9-122V344.2v-156
			H538c15,0,27-12.1,27-27.1C565,146.2,552.9,134.1,537.9,134.1z M463.6,670c0,37.4-30.5,67.9-67.8,67.9
			c-37.4,0-67.9-30.5-67.9-67.9V371.2h135.7L463.6,670L463.6,670z"/>
		<path fill="#FFFFFF" d="M328,98.4c27.1,0,49.1-22,49.1-49.2c0-27-22-49.1-49.1-49.1c-27.2,0-49.2,22.1-49.2,49.1
			C278.8,76.4,300.9,98.4,328,98.4z"/>
		<path fill="#FFFFFF" d="M435,142.4c16.9,0,30.5-13.7,30.5-30.5c0-16.8-13.7-30.5-30.5-30.5c-16.8,0-30.5,13.7-30.5,30.5
			C404.6,128.7,418.2,142.4,435,142.4z"/>
		<path fill="#FFFFFF" d="M353.6,210.3c0,14.1,11.5,25.5,25.4,25.5c14.1,0,25.5-11.4,25.5-25.5s-11.4-25.5-25.5-25.5
			C365,184.9,353.6,196.3,353.6,210.3z"/>
	</g>
</g>
</svg>
