<?xml version="1.0" encoding="utf-8"?>
<!-- Generator: Adobe Illustrator 17.1.0, SVG Export Plug-In . SVG Version: 6.00 Build 0)  -->
<!DOCTYPE svg PUBLIC "-//W3C//DTD SVG 1.1//EN" "http://www.w3.org/Graphics/SVG/1.1/DTD/svg11.dtd">
<svg version="1.1" id="Layer_1" xmlns="http://www.w3.org/2000/svg" xmlns:xlink="http://www.w3.org/1999/xlink" x="0px" y="0px"
	 viewBox="0 0 403 255.6" enable-background="new 0 0 403 255.6" xml:space="preserve">
<g>
	<path fill="#FFFFFF" d="M272.1,45.3c-1.4,3.9-2.8,7.7-4.1,11.6c-8.7,26.2-19.3,51.7-30.8,76.8c-6.7,14.5-13.1,29.1-19.5,43.6
		c-0.9,2-2.1,3.4-4.1,4.5c-13.9,7.5-28,14.6-42.6,20.8c-0.8,0.3-1.6,0.5-2.3,0.9c-1.3,0.7-1.8,0.5-1.8-1.1
		c-0.3-7.3-0.6-14.6-0.9-21.9c-0.8-18.3-1.6-36.5-2.4-54.8c-0.5-11.4-0.9-22.8-1.4-34.3c-0.8-19.4-1.7-38.7-2.6-58.1
		c-0.4-9.5-0.8-19.1-1.2-28.6C158.3,3.3,158.7,3,160,3c10.6,0,21.2,0.1,31.8,0c1.5,0,1.9,0.4,1.9,1.9c0.1,10,0.4,20,0.5,30
		c0.4,22.9,0.7,45.7,1.2,68.6c0.3,13.2,0.1,26.3,0.1,39.5c0,6.7-0.3,13.4-0.5,20.1c0,0.7-0.3,1.5,0.5,2.4c1.4-4,2.8-7.7,4.2-11.5
		c11.3-31.8,25-62.5,38.2-93.5c7.9-18.5,15.9-37,23.7-55.6c0.6-1.3,1.2-1.9,2.8-1.9c11.4,0.1,22.9,0.1,34.3,0c1.6,0,2,0.4,2,2
		c0.2,18,0.4,36,0.6,53.9c0.2,16.5,0.4,33.1,0.8,49.6c0.4,15.7-0.1,31.4-0.4,47.2c-0.1,2.9-0.5,5.9,0.1,8.9c0.9-2.5,1.8-5,2.6-7.5
		c13-39.6,29.9-77.7,46-116.1c5-12,10.1-24,15.1-36c0.7-1.6,1.5-2.1,3.2-2.1c10.6,0.1,21.2,0,31.8,0c0.7,0,1.3,0,2.1,0
		c0.2,1-0.3,1.6-0.6,2.2c-19.2,41.9-38.5,83.7-57.7,125.6c-11,24-22.1,47.9-33.1,71.9c-0.6,1.4-1.3,1.9-2.8,1.9
		c-7.9-0.1-15.8-0.2-23.7-0.1c-1.5,0-2.1-0.5-2.5-1.9c-2.1-6.5-1.1-12.8,0.8-19.1c1.5-4.8,3.8-9.3,4.9-14.3
		c1.5-6.5-1.7-10.7-8.4-10.8c-1.6,0-3.2,0-4.7,0.2c-1.4,0.2-1.7-0.2-1.7-1.5c-0.2-7.4-0.5-14.7-0.8-22.1
		c-0.5-15.6-1.3-31.1-1.2-46.7c0-14,0.7-28,1.3-41.9c0-0.4,0-0.7,0-1.1C272.4,45.4,272.3,45.4,272.1,45.3z"/>
	<path fill="#FFFFFF" d="M50.6,207.4c-13.3-0.3-29.4-2.7-44.5-10.2c-6.5-3.2-6.5-3.3-3.7-9.8c3-7.1,5.9-14.1,8.8-21.2
		c0.5-1.3,1-1.5,2.2-0.7c13,7.7,27,11.6,42,11.9c8.4,0.2,16.4-1.3,23.9-5.3c16.6-8.8,20.8-31.3,4.8-45c-5.7-4.9-12.1-8.7-18.6-12.3
		c-8.3-4.6-16.3-9.7-23.3-16.1C26.7,84.4,22,66.9,27.4,46.8c5-19,17.8-31.5,35.3-39.4c14.6-6.6,30.1-8.2,45.9-7.1
		c10.5,0.7,20.7,2.8,30.4,7.1c5.5,2.4,5.5,2.4,3.3,7.9c-2.9,7.3-5.8,14.5-8.6,21.8c-0.6,1.5-1.1,1.8-2.6,1
		c-12.4-6.3-25.5-9-39.3-7.9c-6.7,0.5-13,2.4-18.6,6.2c-13.9,9.5-15.1,26.7-2.6,37.9c7,6.3,15.1,10.9,23.3,15.3
		c9,4.9,17.3,10.6,24.2,18.2c10.4,11.6,14.2,25.3,12.7,40.5c-2.8,27.5-18.6,44.4-43.8,53.7C77.2,205.7,65.8,207.4,50.6,207.4z"/>
	<path fill="#FFFFFF" d="M0,253.7c2.5-0.3,4.9-0.7,7.4-0.9c13.5-1.3,26.8-3.6,40.1-6.2c16.3-3.2,32.5-6.7,48.6-10.8
		c30.1-7.7,59.5-17.1,87.8-30c15.7-7.1,30.8-15.5,46-23.5c12-6.4,24.3-12,37.8-14.3c3.3-0.6,6.7-1,10.1-1.4c2.6-0.3,2.9,0.1,2.1,2.5
		c-1.4,4.1-3.1,8.2-4.4,12.3c-5.8,18.8-0.5,33.1,16.1,44c10.1,6.7,21.3,10.7,32.9,13.7c15.1,4,30.2,7.7,45.5,10.5
		c10.5,2,21,3.6,31.7,4.2c0.6,0,1.4-0.2,1.4,0.7c0,0.8-0.8,0.7-1.4,0.8c-6.8,0.5-13.7,0.3-20.5,0c-12.9-0.5-25.8-1.6-38.7-3.1
		c-15.3-1.8-30.1-5.8-44.5-11.1c-6.9-2.5-13.9-5.1-19.9-9.4c-5.6-4-10.9-8.3-14.2-14.6c-1.8-3.5-2.7-7.3-3.7-11.1
		c-1.9-7.3-6.1-9.8-13.5-8.1c-11.3,2.7-21.9,7.1-32.2,12.3c-16.7,8.3-34.2,14.4-52,19.7c-22.2,6.6-44.9,11.4-67.7,15.2
		c-14.9,2.5-29.9,4.4-44.9,6c-15.7,1.6-31.5,2.8-47.3,3.2c-0.8,0-1.7,0-2.5,0C0,254.1,0,253.9,0,253.7z"/>
</g>
</svg>
