<?xml version="1.0" encoding="utf-8"?>
<!-- Generator: Adobe Illustrator 17.1.0, SVG Export Plug-In . SVG Version: 6.00 Build 0)  -->
<!DOCTYPE svg PUBLIC "-//W3C//DTD SVG 1.1//EN" "http://www.w3.org/Graphics/SVG/1.1/DTD/svg11.dtd">
<svg version="1.1" id="Layer_1" xmlns="http://www.w3.org/2000/svg" xmlns:xlink="http://www.w3.org/1999/xlink" x="0px" y="0px"
	 viewBox="0 0 960 560" enable-background="new 0 0 960 560" xml:space="preserve">
<rect x="0.1" fill="#9E1F00" width="960" height="560"/>
<g>
	<path fill="#313131" d="M601.1,372.4c-12-0.1-24,1.4-35.9-1.4c-2.8-0.7-5.7-1.5-8.3-2.6c-7.6-3.3-12-8-11.7-18
		c0.6-15.9-1-31.9,0.7-47.9c0.5-5,2.2-9.5,3.5-14.2c-2.1-1.5-4.5,2.3-6.2-0.7c-0.3-0.3-0.4-0.7-0.4-1c0-0.4,0.1-0.6,0.2-0.6
		c1.4-1.6,3.6-1.7,5.1-3c1.8-2.4,1.9-5.2,1.9-8c0-2.4-0.1-4.8-3.8-4.4c-3.5,0.5-3.7-1.8-2.8-4.5c1.9-5.5,7.7-5.9,11.3-9.2
		c3-2.7,6.1-5,7-9.3c4.5-10.3,2.1-19-5.4-26.7c-1.5-1.5-1.3-1.6-0.5-4c8.9,1,17.8-0.7,26.7,0.9c7.4,1.4,11.3,5.1,12.6,12.9
		c1.8,10.6,2.2,21.4,3.4,32c1.5,1.5,1.7,3.4,1.7,5.4c0.2,18.6,1.5,37.3-7.1,54.7c-0.9,1.9-1.2,4.1-1.7,6.2c-0.8,3.2-3.2,3.6-5.9,3.6
		c-3.6-0.1-7.1-0.2-10.7,0c-4.5,0.3-6.9,2.7-7.1,7.4c-0.2,6.1-0.3,12.2,0.1,18.2c0.5,7.3,3.8,10.5,10.8,10.7
		c6.1,0.2,12.1,0.2,18.2-0.5c2.8-0.3,5.9-1.3,8.1,1.7C604.8,372.9,601.8,370.7,601.1,372.4z"/>
	<path fill="#313131" d="M784.9,286.3c-0.6,5-4.2,1.3-6.3,2.8c6.4,21.7,2.7,44.5,3.7,67.1c0.1,2.7-1,4.3-2.8,6.1
		c-6.7,6.8-15.2,8.6-23.9,9.9c-0.8-0.5-1.7-0.9-1.6-2.2c8.1-9.8,5.3-21.5,4.8-32.6c-0.2-4-3.7-4.6-6.9-5c-3.8-0.4-7.9,1-11.5-1.6
		c-0.2-5.8,4.2-7,8.2-7.9c4.3-1,5.1-3,3.1-6.8c-1.5-2.9-2.7-6-5.4-7.9c-11.9-8.4-14.3-21.6-16.2-35c-0.5-3.7-0.9-7.2-2.5-10.6
		c0.1-5.7-2-11.7,1.6-17.1c2.8-4.8,2-10.3,3.1-15.5c1.3-6.7,4.6-10.6,11.4-11.8c7.3-1.3,14.5-1.2,21.8-0.9c2.5,0.1,5-0.4,7.5-0.7
		c0.7,4.6-3.7,5.2-5.6,7.8c-7.8,6.5-8.3,16-1.4,25.6c3.2,4.4,7.3,7.6,11.7,10.4c2.4,1.5,5,2.1,7.7,0.6c2.5,1.1,2.6,3.3,1.8,5.4
		c-1.3,3.2-3.8,4.3-7.7,2.8c2,4.4,4.3,8.2-1.8,9.5c0.2,0.6,0.4,1.2,0.5,1.9c0.1,3.7,3.2,3.5,5.4,4.5
		C784.1,285.4,784.5,285.8,784.9,286.3z"/>
	<path fill="#474747" d="M627.3,609.5c-0.4,0.1-0.8,0.1-1.2,0.1c0.1-40.7,0.2-81.5,0.3-122.2c0-10.4-0.2-20.8,0.1-31.2
		c0.1-4.4-0.6-7.1-5.6-7c-2.3,0-4.5-0.9-6.8-1c-8.4-0.5-8.4-0.4-8.4-9.4c0-4.8,0.2-9.5,0.3-14.3c6.8-0.1,6.8-0.1,6.9-7.2
		c0.1-9,0.1-9-2-13.4c-3,3.2-1.4,7.1-2,10.4c-0.5,2.8,1.2,6.7-3.3,7.7c-3.7,0.4-5.3-0.9-4.8-5c0.3-3-0.1-6.1-0.2-9.1
		c-0.5-0.7-0.4-1.1,0.3-1.5c3.5,3.1,0.8,7.1,1.6,10.7c0.3,1.3-0.4,3.5,1.8,3.3c1.6-0.1,1.3-1.9,1.3-3.1c0.1-4.1,0-8.2,0-12.2
		c0-9.4,0.7-10,10.2-9.5c12,1.2,23.9,3.1,36,1.3c3.5-0.5,7,0.3,10.2,2.1c0.7,0.7,0.8,1.7,0.1,2.2c-6.2,4.4-6.2,11.3-6.5,17.9
		c-0.4,8,1.4,15.8,1.8,23.7c0.2,3.7,3.7,5.6,3.8,9.2c-1.6,1.3-3.4,1.4-5.3,1.3c-5.6-1.6-11.2-1.1-16.9-0.7
		c-9.6,0.4-9.6,0.4-9.6,10.5c0,45.1,0,90.2-0.1,135.2C629.5,602.2,630.4,606.3,627.3,609.5z"/>
	<path fill="#2B2B2B" d="M662.6,399.7c-14.1-1.3-28.4,1.3-42.5-1.2c-2-0.3-3.7-0.4-4.1-2.9c-0.1-6.3-0.1-12.5-0.3-18.8
		c0-1.6,1.2-4.3-2.1-4.1c-2.6,0.2-6.3-1.5-6.4,3.5c-1.4,0.8-1.7-0.4-2.2-1.3c-0.7-1.9-2.3-2.2-4-2.4c0.8-1.7,2.4-1.4,3.8-1.5
		c2.9-2.8,6.8-2.7,10-2c12.5,2.7,25.2,0.7,37.7,1.4c6.5-0.4,13-0.2,19.5-0.2c15.9,0.6,31.7-0.2,47.5-1.5c10-0.9,20,0.7,30.1,0.5
		c1.7,0,3.3,0.3,4.5,1.8c0.4,0.4,0.9,0.9,1.3,1.3c-8.8,1.4-17.7-0.9-26.4,1.3c-0.7,1.3-2,1.8-3.2,2.4c-1,0.4-2,1.1-3,0.3
		c-0.7-6.2-5.3-3.1-8.2-3.4c-3.6-0.4-2.4,2.9-2.2,4.6c0.5,6.2-2.3,12.7,1.5,18.6c0.1,3.3-2.3,3.9-4.6,4.2
		c-13.1,1.7-26.2,1.8-39.4,1.1c-1.1-0.1-2-0.6-2.7-1.4c-0.4-0.6-0.7-1.2-0.8-1.9c0.2-4.9,0.6-9.9,0.3-14.9c-0.1-1.9-0.2-4.1-2.8-4.3
		c-2.9-0.2-3.3,2.1-3.4,4.4c-0.2,4.1,1.1,8.1,1.3,12.2C662,396.7,663.3,398.1,662.6,399.7z"/>
	<path fill="#474747" d="M667.6,398.3c9.8,1.5,19.6,1.9,29.4,0.8c3.7-0.4,7.4-0.6,11.2-0.7c2.3-0.1,4.7,0.1,6-2.5
		c5.6-0.6,8.1,1.3,7.9,7.8c-0.4,12.7-0.2,25.5-0.1,38.3c0.1,4.3-1.1,6.2-5.6,6.3c-17.5,0.4-17.6,0.6-17.5,18.3
		c0.1,47.7,0.2,95.4,0.3,143.1c-0.4,0-0.8,0-1.3,0c-3-3.3-2.1-7.4-2.1-11.2c-0.1-44.5,0-89,0-133.6c0-12.2,0-12.2-11.8-12.1
		c-3.4,0-6.7,0.4-10,0.8c-1.6,0-3.1,0.1-4.7-0.1c-1.1-0.2-2.1-0.6-2.9-1.5c10-9.5,8-22,7.9-34c0-3-0.9-6-0.9-9
		c0-3.1-1.2-5.1-4.2-6.4C666,401.4,666.2,401,667.6,398.3z"/>
	<path fill="#941503" d="M969.1,234.1c2,2.1,2.8,4.8,0.7,6.8c-3.5,3.2-2.1,5.8,0,8.7c0.5,4.6-2.5,4.1-5.3,4c-3.9-3.9-7.8-0.8-11.8,0
		c-2.7-0.4-4.7-1.6-5-4.8c2.6-2.9,1-5.6-0.4-8.3c-7.1-13.7-17.1-25.2-27.3-36.3c-4.7-5.1-8.2-11.4-15-15.9c2.1,8.2,7,13.2,11.8,18.2
		c0.4,0.5,0.8,0.9,1.1,1.5c10.2,10.8,18.9,22.8,27.7,34.8c1.3,1.7,3.8,3.1,2.3,6c-2.4,1.1-4-0.6-5.6-1.9c-5.7-4.2-10.6-9.2-14-15.5
		c-2.5-4.6-6-8.3-9.7-11.8c-1.9-1.9-4.1-3.1-6.8-2.6c-7.4,1.2-12.4-2.8-16.6-8.2c-4.4-5.7-8.2-12-13.3-17.2c-3.8-3.9-2.7-9.2-2.8-14
		c4.6-2.2,9.7-2,14.4-3.9c3.1-1.3,6.1-2.6,8.3-5.4c1.9-1.5,3.4-4.1,6.4-3.5c0.6,0.8,0.8,1.7,0.7,2.7c-1.2,2.8,0.5,4.3,2.2,6.1
		c9.5,10,19.2,19.9,27.7,30.9c6.6,8.6,14.7,16,20.2,25.5C960.9,233.9,964.3,236.2,969.1,234.1z"/>
	<path fill="#8F1504" d="M442.4,122.5c3-4.4,7-7.7,11.3-10.6c3.1,1.5,6.6,1.9,9.6,3.4c3.9,5.6,8.6,10.5,12.7,15.9
		c5.9,7.7,11.5,15.7,17,23.8c4.7,6.9,10.3,13.1,13.3,21.1c0.9,2.5,2.9,5.1-0.2,7.5c-2.6,0.7-5.1-4.2-7-1.1c-1.8,3,2,5,3.6,7.4
		c2.6,4.2,6.5,6.4,10.9,8c2.4,1.8,5.3,2.7,7.4,5c-0.9,5.6-4.2,9.1-9.1,11.1c-2.1-0.1-3.6-1.2-4.8-2.7c-6.6-8.1-14.7-14.8-20.4-23.8
		c-4.1-6.5-10.6-11.1-14.1-18.2c-0.9-1.9-3.4-1.4-5.1-2c-5.9-1.8-7.9-5-6.4-11.2c1.1-4.4,1-8.5-0.9-12.6c-2.7-7.9-7.6-13.5-14.9-17
		C443.7,125.8,441.5,125.2,442.4,122.5z"/>
	<path fill="#951504" d="M416,163.3c0-0.4,0.1-0.8,0.4-1.2c4.9-1.2,6.4,3.3,9,5.8c4.5,4.9,10.4,5.8,16.4,6.8c2,0.3,4.2,0.2,6,1.4
		c3.4,3.9,1.3,7.6-0.5,11.2c-5.9,8.3-12.4,16-19.7,23.1c-1.1,1.1-2.5,1.4-3.9,1.9c-6.5,1.9-12.9,4.2-19.2,6.8c-3-4.3,2.4-5.4,3-8.4
		c0.3-0.5,0.7-1,1-1.5c5.3-6.1,10.5-12.2,14.9-19.1c1-1.5,2.5-3.7,0.7-5.2c-1.9-1.6-3.3,0.7-4.7,1.9c-1.9,1.7-3.6,3.6-4.9,5.9
		c-6.5,7.9-14.8,14.3-19.7,23.7c-5.7,8.1-12.2,15.6-16.2,25c-2,4.7,1.5,2.1,2.7,2.5c0.6,0.2,1.1,0.6,1.3,1.3
		c-3.9,8.4-8.8,9.2-13.7,2.1c-1.4-2.1-3.1-3.3-5.6-3.5c-2.3-0.3-4.5-0.8-5.5-3.4c-0.5-2.2,0.6-3.7,2-5.2
		c19.2-21.1,37-43.4,56.7-63.9c2-2.1,2-3.5,0-5.3C415.9,165.1,415.6,164.3,416,163.3z"/>
	<path fill="#B31401" d="M788.1,203.7c7.6-28.7,29.2-47.4,46.4-69.2c5.9-7.4,12.6-13.9,20.4-19c1.4-0.3,2.7-1.1,4.2-1.3
		c2.3-0.3,4.1,0.5,5.5,2.4c1.6,2.3,0.3,4.1-1,5.8c-6.6,8.7-14,16.6-19.8,25.9c-7,11.1-16,20.9-20,33.8c-2.3,4-4.3,8.2-7.3,11.7
		c-2.1,2.5-2.5,5.6-3.2,8.7c-2.5,2.4-5.5,2.1-8.4,1.6c-4-1.7-7.5,0.6-11.2,1.3C791.6,205.8,788.8,208,788.1,203.7z"/>
	<path fill="#B41501" d="M505.5,183.2c2.5-2.4,0.3-4.4-0.6-6.4c-6-13-15.8-23.3-23.5-35.1c-5.2-8-11.5-14.9-17.6-22.1
		c-1.1-1.3-1.1-2.8-1.1-4.3c0.6-3,2.8-3.5,5.3-3.5c11.5,6.7,20,16.8,28.7,26.8c12.8,14.6,24.6,30.1,35.7,46.2
		c4.2,6.1,3.7,13,6.3,19.2c-2.1,2.3-4.7,1.7-6.8,0.5c-3.6-2.1-7.4-2.4-11.3-1.8c-3.3,0.5-5.2-2-7.5-3.7
		C510.4,193.8,505.7,189.7,505.5,183.2z"/>
	<path fill="#8C1403" d="M822.2,181.9c2.3-7.6,6.7-13.9,10.8-20.5c4.7-7.7,10.7-14.4,15-22.3c3.4-6.3,9.7-10,13-16.3
		c0.9-1.7,4.1-2.5,2.8-5.1c-1.3-2.7-4-2.6-6.6-2.2c-0.7,0.1-1.5-0.1-2.3-0.2c0.7-1.9,2.4-2,3.9-2.4c5,0.1,10,1.3,15.1,0.8
		c4.4,2.1,7.4,5.7,10.3,9.5c0.1,2-1.1,3.3-2.7,3.9c-7.6,3.2-11.7,9.8-15.2,16.9c-1.7,4.6-1,9.2-0.1,13.8c0.4,4.2-1.6,6.7-5.5,7.2
		c-4,0.5-6.7,2.9-9.3,6c-6.8,8.2-13.5,16.6-19.6,25.4c-1.7,2.5-3.4,5.2-5.7,6.9c-6.2,4.8-9.1,11.1-9.3,18.9
		c-0.5,0.9-1.1,1.6-2.2,1.4c-0.9-0.7-1.5-1.7-1.4-2.8c0.6-6.9-3.3-11.2-7.8-15.3c-0.5-0.4-0.8-0.9-1.1-1.5c0-0.3-0.1-0.6-0.1-0.9
		c0.2-0.3,0.4-0.5,0.5-0.8c2.9,0.1,5.9,0.6,8.6-1.2c5.6-5,12.4-8.6,15.4-16.2c0.7-1.7,3.1-3,1.6-5c-1.7-2.2-3.3-0.1-4.8,0.8
		C824.6,181.8,823.6,182.6,822.2,181.9z"/>
	<path fill="#474747" d="M423.9,168.7c-2.3-2.5-4-5.6-7.5-6.6c-0.4-5.1-3.1-9.8-2.3-15.1c1.8-12.7,10.9-21.7,23.4-22.6
		c2-0.1,3.6-0.5,5-2c1,2.7,3.7,2.5,5.7,3.5c6.9,3.7,11.3,9.4,13.5,17c1.8,6.2,1,12.2-1.6,18C449.6,175.5,437.9,178,423.9,168.7z"/>
	<path fill="#484848" d="M865.1,143c3.7-9.4,10.7-15.3,19.2-19.6c1.3,1.8,3.3,1.5,5.1,1.7c17.2,1.9,28.4,20.4,20.1,36.7
		c0.1,1.5-0.1,2.7-1.7,3.2c-1.7,1.3-3.3,2.6-5,4c-9.9,8.8-22.4,7.2-32.5-2.5c-2.4-1.9-3.7-4.6-4.4-7.6c-0.2-0.6-0.4-1.3-0.6-1.9
		C864.1,152.3,863.8,147.7,865.1,143z"/>
	<path fill="#383838" d="M921.5,316.2c2.4-11.4,5.9-22.4,13.6-31.3c1.2-1.4,0.6-2.8,0.5-4.2c-0.5-5.5,0.4-10.7,3.5-15.3
		c4.3-0.1,3.6,3.1,3.4,5.8c-0.2,3-0.9,6.1,2.6,7.7c2.9,1.4,5,3.9,7.1,6.2c4.3,4.6,9.3,7.9,15.5,9c1.7,0.3,3.4,0.7,3.7,2.8
		c0.4,2.2-0.8,4.1-2.6,4.6c-6,1.5-7.9,6.4-9.6,11.6c-3,9-8.1,15.9-17.6,18.2c-1.4,0.2-2.6-0.2-4-0.5c-3-0.9-5.9-1.9-9-2.7
		C920.1,326,920.1,325.9,921.5,316.2z"/>
	<path fill="#393939" d="M387.2,264.2c2.1,5.6,4.9,11.1,3,17.5c-0.6,2,1.2,3,2.2,4.4c7.7,11.4,13.1,23.6,12.4,38
		c-0.5,1.2-1.2,2.4-2.5,2.6c-6,0.5-11.2,4-17.2,4.6c-8.9-6.3-12.8-16.1-16.4-26.1c-1-3-1.6-5.4-5.1-6.4c-3-0.8-3.2-3.9-0.8-5.4
		c6.6-4.2,11.9-10,18-14.8c4-0.9,3.3-4.2,3.7-7.1C384.8,268.9,383,265.2,387.2,264.2z"/>
	<path fill="#AF3A2D" d="M788.1,203.7c3.7,2.9,6.3-1.5,9.7-1.5c2.4,0,4.8-1.5,7.1,0.5c0,0-0.3,0.2-0.3,0.2
		c-5.7,2.7-6.9,8.4-8.6,13.8c-1.2,4.9-3.4,9.5-3.5,14.7c-0.8,5.5-2.9,10.7-3.9,16.2c-0.1,0.7-0.3,1.3-0.5,2
		c-4.1,14.5-7.2,15.2-18.5,5.3c-11.2-9.8-10.6-24.6-2.8-31.1c2.1-2.3,4.3-4.7,6.4-7C778.4,212.7,783.8,208.9,788.1,203.7z"/>
	<path fill="#7A1C13" d="M617.3,128.6c-1.9-2.2-1.4-4.9-1.4-7.4c0-17.1,0-34.3,0-51.4c0-9.7,1.7-11.4,10.9-11.4
		c3.1,0,6.3-0.2,9.4-0.3c1.2-1.2,2.7-1.7,4.4-1.8c14.5-0.3,29.1-0.4,43.6,0c1.9,0.1,3.8-0.3,5.7,0.1c1.6,0.1,2.9,0.7,4.1,1.8
		c4,0.1,7.9,0.1,11.9,0.3c5.2,0.3,8,3,8,8.7c0,19.1,0,38.1,0,57.2c0,2.3-0.4,4.3-2.1,5.8c-27.7,0.7-55.4,0.2-83.1,0.3
		c-2.5,0-5.7,0.7-6.4-3.3c2.4-2.4,5.5-1.8,8.3-1.8c23.2,0,46.4,0,69.6,0c6.8,0,7-0.2,7-7.4c0.1-14.7,0.1-29.5,0.1-44.2
		c0-2.4,0.2-4.8-1.1-6.9c-1.3-2.1-3.4-2.4-5.5-2.4c-24.1-0.2-48.1-0.1-72.2-0.1c-4.5,0-6.7,2.2-6.7,6.6c0,17.1-0.8,34.3,0.4,51.4
		c0.3,1.5,0.3,3-0.5,4.5C620.9,128.6,619.2,128.8,617.3,128.6z"/>
	<path fill="#454444" d="M976,253.4c8.5,2.5,14.1,9.5,14.9,18.4c0.8,8.9-3.5,16.5-11.6,20.7c-11.4,5.3-20.2,0.5-27.8-8.1
		c-3-3.4-5.1-7.5-2.8-12.3c4.7-1.4,4.3,4.4,7.9,5.8c-0.8-8.3,0.5-16.3,5.8-22.3C965.7,251.8,971.1,252,976,253.4z"/>
	<path fill="#454545" d="M350.8,307.2c0.1-9.1-4.3-14.8-11.2-20.4c-6.2-4.9-6.5-13.5-3.6-21c2.8-7.4,7.7-12.9,16-13.5
		c12.6-2.2,14,5,16.7,17.8c0.5,2.3-0.2,4.7,0.4,7.2c6-1.3,4.1-7.5,6.7-10.7c0.6-0.3,1.2-0.2,1.8,0.2c3,9.2-1.8,20.9-12.5,24.6
		C356.7,294.2,351.5,297.9,350.8,307.2z"/>
	<path fill="#B0392D" d="M555.8,216.9c0,2.7,2.6,3.3,3.9,5c6.4,8,8,16.6,3.6,26.1c-4.4,6.7-9.7,11.9-17.9,13.1
		c-3.1-1.4-3.9-4.5-5.1-7.3c-2.1-6.7-3-13.8-5.1-20.5c-0.3-3-1.2-5.8-2.1-8.6c-0.4-1.9-0.6-3.9,0-5.9c4.8-3.2,9.9-5.7,15.7-5.8
		C551.2,214.4,553.5,215.6,555.8,216.9z"/>
	<path fill="#2B2A2A" d="M350.8,307.2c0-1.7,0.1-3.5,0.1-5.2c-0.1-5.5-1.4-10.5,7.8-9.8c8.2,0.7,20.6-10.9,18.5-25.5
		c3.1-1.9,4.7-0.2,5.3,2.7c0.8,3.6,1,7.2-1.5,10.3c-4.9,5.6-10.3,10.5-16.7,14.3c-1.2,0.7-2.4,1.2-1.7,2.8c0.5,1.2,1.6,1.2,2.7,0.8
		c1.8-0.7,3.8-0.6,4,1.5c1.3,12.5,8.3,21.8,15.4,31c-5.8,4-11,9.4-18.9,8.4C359.1,328.9,353.8,318.6,350.8,307.2z"/>
	<path fill="#871203" d="M403.7,218.4c6.4-4.4,14-5.5,21-8.3c3.9-1.5,7.7-5.4,9.9-9.2c3.2-5.5,8.2-9,11.8-13.8
		c0.7,0.1,1.2,0.5,1.4,1.3c-0.1,0.5-0.1,0.9-0.2,1.4c-3.5,10.5-10.4,18.8-18.2,25.9c-6.6,6-12.6,12.6-18,19.6
		c-8.5,10.9-20.6,15-32.7,19.1c-2.9,1-5.8-0.1-8.4-1.6c-2.2-1.3-4.4-2.4-6.9-3.1c-2.9-1.1-4.2-3.6-5-6.4c-1.8-0.7-2.9-1.8-2.8-3.9
		c0.4-0.5,0.8-0.7,1.4-0.8c0.6,0,1,0.3,1.4,0.7c0.6,1.2,1.5,2.5,2.7,2.4c5.5-0.5,9.1,1.4,10.5,7.5c0.5,2.3,2.9,2,4.8,1
		c2.5-1.3,4.5-3.1,5.9-5.6c-0.7-1.4,0-2.5,0.8-3.5c5.1-6.7,10.2-13.4,15.5-20C399.7,219.4,401.1,217.5,403.7,218.4z"/>
	<path fill="#303130" d="M685.2,57.9c-15.2,0-30.4,0-45.6,0c-2.5-3,0.3-7.8-3.3-10.4c-0.4-1.8-0.8-3.7,0.9-5.1
		c3.1-4.2,7.3-5.8,11.8-5.8c-2-0.8-5.7,0.9-6.6-3.3c12.1-8,24.7-9.6,37.8-2.9c0.7,0.4,1.6,0.4,2.4,0.5c3.2,3.5,0.1,4.4-2,5.9
		c4.6,0.1,9.1,0.9,11.8,5.6c0.5,1.3,2.3,2.1,1.3,3.9c-2.4,2.1-3.6,0-5.1-1.5c-2.3-2.1-4.8-3.4-7.8-1.1c-3.8,5.8-3.4,7.5,3.2,11.9
		C684.9,56.2,685.5,56.8,685.2,57.9z"/>
	<path fill="#811103" d="M878.9,178.2c0.5,0.7,1.5,1.5,1.4,2.1c-1.3,11.2,8.9,15.5,13.2,23.3c4.1,7.4,9.5,12.9,20.2,11.7
		c6.4-0.8,11.2,7.5,14.8,13.6c4.9,8.3,10.9,15.2,19.5,19.5l0,0c1.2,2,2.6,3.7,5.1,3.9c-0.8,4.1-3.8,3.4-6.3,3
		c-14.6-2.5-26.5-10.3-36.1-21.7c-4.1-4.9-7.8-10.4-12.7-14.3c-7.3-5.9-10.9-14.6-16.8-21.5c-2-2.1-2.2-4.8-2.6-7.6
		c-0.3-2.8-1.5-5.3-4.4-6.2C872.8,178.5,873.4,177.8,878.9,178.2z"/>
	<path fill="#262626" d="M949.3,271.9c0.1,14.6,14.1,24.8,27.3,19.9c1.1-0.4,2-0.1,2.8,0.7c-1.7,1-3.6,1.6-3.6,4.5
		c0.4,16.6-7.8,29.7-16.6,42.5c-6.7-1.4-12.6-4.3-17.4-9.4c10.2-4.3,15-12.9,17.8-23.3c1.1-4,3.8-6,7.7-6.4c1.8-0.2,3.3-1.2,3-3.3
		c-0.3-2.3-2.1-1.1-3.4-1.4c-5.1-1.1-9.7-3.5-13.6-7.3c-3-3-6-5.9-9.1-8.9c-3.5-8.2-0.6-15.5,7.4-18.4
		C953.7,265.4,951.3,268.6,949.3,271.9z"/>
	<path fill="#AD1904" d="M969.1,234.1c-2.6,4.3-6.5,4.6-9.8-0.5c-7.2-11.4-16.4-20.9-24.8-31.2c-8.1-10-16.8-19.6-26-28.5
		c-2-1.9-5-3.5-0.8-6.3c4-0.7,5.6,3,8.2,4.8c3,2.1,5.4,5.4,9.7,4.1C943.1,193.3,956.4,213.4,969.1,234.1z"/>
	<path fill="#AD1905" d="M358.4,239.3c-0.4,0-0.8,0-1.2-0.1c-3.3-3.7,1.6-5.9,1.5-9c12.2-19.8,25.3-38.9,42.1-55
		c7.4-0.2,11.6-6.1,16.8-10.3c3.9,2.5,3.4,3.9,0.1,7.5c-8.2,9-16.7,17.5-24.8,26.6c-5.6,6.4-10.9,13.1-16.5,19.4
		c-3.1,3.5-6.3,6.8-8.2,11.3C366.4,234.4,360.2,234.4,358.4,239.3z"/>
	<path fill="#731004" d="M458.8,160.9c2.9-5.6,2.9-11.8,2.8-17.9c2.7,4.3,2.3,8.8,1.1,13.6c-1.5,5.8,1.3,9.7,7,9.1
		c2.8-0.3,3.5,0.9,4.8,2.8c7.8,11.4,15.9,22.5,25.6,32.2c4,4,6.8,9.4,11.6,12.5c2.1,2.4,1.8,5.1,1.1,7.9c-1.7,3.1-3.7,1.1-5.2,0
		c-8.5-6.2-17.4-11.8-23.6-20.8c-3.2-4.6-7.5-7.9-11.3-11.8c-2.8-3.7-3-8.8-6.2-12.3c-0.4-0.5-0.9-0.9-1.5-1.1
		C455.6,171.8,455.1,170.8,458.8,160.9z"/>
	<path fill="#7C1203" d="M816,222.3c-2.7-11.6,6.7-16.5,12.1-23.7c7.6-10,14.9-20.1,22.9-29.7c2.7-3.2,5.2-5.4,9.3-5.3
		c3.5,0.1,4.9-1.8,4.7-5.2c0.4-0.6,0.9-0.7,1.3-0.1l0,0c2.3,4.7-0.2,8.3-2.7,11.8c-1.6,2.3-3.2,4.5-5,6.7c-0.1,3.5-1.5,6.5-3.5,9.3
		c-8.5,10.2-18.3,19-27.3,28.7C824.7,218.4,821,221.6,816,222.3z"/>
	<path fill="#5A0F09" d="M951.8,261.6c-6.8,4.1-8.4,10.5-7.6,18c-4.9-0.8-3.9-4.8-3.4-7.8c0.5-2.7,1.3-4.9-1.7-6.4
		c-0.8-1.3-1.6-2.6-2.5-3.9c-0.6-7.5,6.1-3.9,8.7-6c-10.8,3.2-19.9-1.4-28.8-7.2c-13.9-15.2-26.8-31.2-35.4-50.4
		c3-1.5,3.3,1.3,4.2,2.9c9.7,15.2,22.4,27.6,34.9,40c7.2,7.1,16.5,12.1,27,13.3c2.2,0.2,4.1,0.1,5.7-1.6c1.5-0.1,2.7-0.9,3.8-2
		c3.2-3.4,4.9-1.4,6.2,1.9C960,256.3,956.6,259.8,951.8,261.6z"/>
	<path fill="#A73225" d="M511.7,222.3c0.1-3,0.1-6.1,0.2-9.1c3.9-2.7,6.2-6.6,8.7-10.5c2.9-3.1,6.1-3,9.4-0.9
		c2.7,1.7,5.5,2.7,8.7,2.2c2.9,3.7,6.7,6.1,10.2,9.1c-2.2,0.4-5.2-0.6-4.9,3.8c0.2,2.6-1.8,2.3-3.5,1.5c-2.1-1-4.2-2.3-6.1,0.1
		c-3.3,0.1-3.3-2.8-4-4.9c-0.8-2.2-1.3-4.6-2.7-6.6c-1.5-2.2-3-2.3-4,0.5c-0.1,9.8,1.7,19.1,5.9,27.9c2.3,4.8,3.3,10.1,4.7,15.3
		c0.6,2.3,1,5.3-2.8,5.7c-4.3-2.5-8-6-9.5-10.7c-2.3-7.6-6.5-13.9-10.4-20.5C511.1,224.3,511,223.3,511.7,222.3z"/>
	<path fill="#660F07" d="M363.5,248.4c1.4,0.1,3.4-0.3,4.2,0.5c5.7,5.6,11.4,3.3,17.9,1.3c13.6-4.3,23.3-13.1,31.4-24.9
		c3.4-5,8.9-8.3,13.2-12.7c6.7-6.8,12-14.9,17.3-22.9c0.9,6.2-3.5,10.4-5.8,15.2c-2.1,4.4-4.4,8.8-7.8,12.3
		c-6.4,5.6-10.8,13-16.2,19.5c-7.4,8.9-15.7,16-27.5,17.5c-4,0.5-8.3,0.3-10.4,5.6c-1,2.5-4,1.8-6.1,0.5c-2-1.2-3.4-3.2-5.7-3.9
		c-2.2-1.2-4.7-1.9-6.3-4C361.1,250.5,361.7,249.2,363.5,248.4z"/>
	<path fill="#483935" d="M531.5,256.6c2.8-2.4,1.3-5,0.6-7.7c-2.9-10.5-8.1-20.2-9.6-31.2c-0.5-4.1-0.6-8.2-0.5-12.3
		c3,0.2,2.6,3,3,4.8c1,3.7,1.5,7.6,2.3,11.4c1.4,7,1.5,7,7.1,3.2c1.6,2.4,2.7,4.9,2.3,7.9c0.6,7.3,1.5,14.5,5.3,20.9
		c1.3,2.2,1.6,4.9,3.7,6.6c-0.2,2.2-0.8,4.3-1.3,6.4c-0.1,1.1-1.5,3.9,0.9,2.8c6.7-2.9,6.2,2.7,6.3,5.9c0.1,3.1,0.1,6.8-2.5,9.4
		c-3.7-4.7-4.4,0.1-6.1,2c0.1,0.3,0.1,0.6,0,0.9c-2.1-7.2-4.4-14.4-6.1-21.6C536.1,262.1,534.7,258.9,531.5,256.6z"/>
	<path fill="#453B38" d="M791,231.4c-0.7-5.6,2.2-10.3,3.7-15.4c2.7,3.2,2,7.3,2.9,12.2c2.5-5,2.3-9.4,3-13.6c0.6-3.7,0-8,4.1-10.2
		c0.3-0.1,0.7-0.1,1-0.2c2.3,2.5,1.6,5.5,1.4,8.6c-0.6,12.6-6,23.7-9.7,35.4c-1,3.1-1.8,6.2-2.7,9.3c-5.3,6.7-6.3,15-8.2,23
		c-0.5,2-0.1,4.2-1.7,5.9c-0.5,0-1,0-1.5-0.1c-0.5-3.8-3.4-4.3-6.2-5c-0.4-1.5-0.9-2.9-1.2-4.4c-0.2-1.2,0.6-1.6,1.6-2.3
		c2.4-1.8-0.1,6.2,2.8,1.5c1.4-2.2-1.1-3.8-2.7-5.2c-0.5-0.4-1-0.8-1.6-1.3c2.1-4.6,13.4,2.8,9.7-8.3c-2.8-4.7,2.1-8.5,1.3-13
		l-0.1,0C789.1,242.9,791.6,237.5,791,231.4z"/>
	<path fill="#47130F" d="M368.4,255c2.9-0.1,4,2.8,6.1,4c2.2,1.3,5.2,2.8,4.9-2.1c-0.2-3,1.5-3.3,3.4-3.3
		c18.9-0.3,30.7-12.3,41.2-26.5c3.4-4.5,7.9-9.2,10-9.8c-9.2,12.3-17.7,25.3-28.9,36c-2.6,2.4-5.2,4.5-8.6,4.9c-4.1,0.5-7,2.6-9.2,6
		c-2.4,3.7-0.9,7.9-1.1,11.8c-0.1,4-1.8,4.8-5.1,3.6c0-2.9-0.1-5.9,0-8.8c0.1-2.9-0.9-4.4-3.8-4.1c-0.4,0-0.8-0.1-1.1-0.2
		C373.2,262.9,369,260.2,368.4,255z"/>
	<path fill="#A73225" d="M794.7,257.4c-2.5-3.5-0.1-6.6,0.9-9.7c3.9-12.2,9.1-24,10-37.1c0.1-2.1,0-4.3,0-6.5
		c7.2,4.4,10.6,10.7,9.1,19.5c0.7,1.8-1,2.9-1.2,4.5c-3.1,5.8-6.2,11.6-8.5,17.9C803.1,251,799.9,255.3,794.7,257.4z"/>
	<path fill="#636363" d="M405,326.6c0.9,6.1,3,11.9,6.1,17.1c2,3.3,3.9,6.5,3.8,10.5c-3.4,1.7-6.8,3.7-10.8,3.2
		c-2.3-0.9-2.9-3.1-3.9-5c-0.6-1.5-1.9-2.3-3.2-3c-6.2-3.4-7.3-9.9-8.9-16c-0.5-1.8,0.2-3.5,2.1-4.1
		C395,327.7,399.6,324.9,405,326.6z"/>
	<path fill="#5C5C5C" d="M911.1,353.7c2.2-8.6,8-15.6,10.1-24.3c-1-4.2,2.1-3.8,4.1-3.3c4,1.1,8.2,1.7,11.9,3.7
		c1.7,6.5-2.9,17.5-8.4,20c-2.1,0.5-3.2,2-3.8,4c-0.8,1.8-1.8,3.4-4,3.6C917.4,357.2,914.1,356,911.1,353.7z"/>
	<path fill="#8E1A0C" d="M921.3,356.5c1.6-0.7,2.1-2.4,2.8-3.9c5-4.9,10.4-3.2,15.5-0.6c3.4,1.7,7.6,3.5,6,9
		c-3.5,3.7-4.2,10.1-10.3,11.2c-4.8,0.3-9-0.9-12.2-4.8c-1.7-2-3.7-3.4-6.2-3.9c-2.3-0.4-3.6-1.9-3.9-4.2c0.2-0.8,0.3-1.6,0.5-2.4
		C916.1,355.5,918.8,357.6,921.3,356.5z"/>
	<path fill="#6A1A12" d="M622.4,127.5c1.6,1.4,3.6,1,5.4,1c26.9-0.1,53.8-0.2,80.7-0.4c1.8,0,2.7,0.5,3.4,2
		c-1.7,3.1-4.6,2.5-7.2,2.6c-7.3,0.4-14.6-0.8-21.9,0.7c-11.7,1.7-23.5,1.6-35.2,0.1c-7.3-1.7-14.7-0.4-22.1-0.8
		c-3.3-0.2-6.8,0.2-8.1-4.1c1-1.6,2.6-1.4,4.1-1.6C621.9,126.8,622.2,126.9,622.4,127.5z"/>
	<path fill="#8E1B0C" d="M401.5,351.3c0.8,1.6,1.6,3.3,2.4,4.9c0.3,0.9,1.1,1.2,2,1.3c2.2,0.1,5.1-0.3,5.7,2.6
		c0.6,3.1-3.2,2.1-4.2,3.5c-3.4,4.5-8.5,6.2-12.7,9.4c-6.7,0.1-9.8-4.6-12.4-10c-3.3-4.3-2.1-7.3,2.3-9.7c2.4-1.3,4.5-3,7.3-3.4
		c0.9-0.1,1.9-0.1,2.8,0C396.8,350.5,399.1,351.1,401.5,351.3z"/>
	<path fill="#C31304" d="M678.7,145.3c3,2.3,7.9,1,9.6,5.6c-0.5,2.4,1.5,5.8-0.8,7.2c-2.8,1.7-4.5-2.1-6.8-3.2c-1.7-0.8-3-2.3-5-2.4
		c-9.7-2-19.1-3.2-26.9,5.3c-1,1.5-2.1,2.6-3.8,3c-1.1,0.1-2-0.1-2.9-0.7c-0.4-0.6-0.7-1.2-0.8-1.9c-0.1-1.1,0.5-2,0.9-3
		c0.6-5,2.8-8.2,8-8.7c1.3-0.1,2.2-1.1,2.8-2.3c1.1-3.4,3.6-4.4,6.8-4.4c3.9,0,7.9,0,11.8,0C675.6,139.6,678,141.3,678.7,145.3z"/>
	<path fill="#525252" d="M405.9,393.1c-3.2-1.9-6-0.3-9,0.5c-5.8,1.6-5.6-4-7.3-7.3c-1.8-3.4,0.3-4.1,2.6-5.6c6-3.9,12.6-2.2,18.9-3
		c4.9-0.6,5.1,5,6.2,8.4c1,3.4-2.7,3-4.5,4C410.7,391.3,408.3,392.1,405.9,393.1z"/>
	<path fill="#4F4F4F" d="M934,380.4c1.4,1.4,4.7,1.5,2.8,5.1c-1.6,3-1.6,8.8-5.7,7.8c-5.5-1.3-11.5,0.4-16.6-2.9
		c-1.8-1.2-5.4-1-5.3-3.6c0.2-3.2,1.2-6.8,4.2-8.9c0.9-0.6,1.8-1,2.7-1.5C922.2,377.2,929,374.1,934,380.4z"/>
	<path fill="#413B3A" d="M945.6,361c-3-8-12-11.5-21.5-8.4c0.1-2.6,1.4-3.8,3.9-4c3.5,0.8,5.4,0.1,6.7-4.2c4.9-16.4,2-15.7,17.6-7.7
		c1.8,0.9,4.1,1.3,4.7,3.8c-0.9,1.7-2.8,0.5-4,1.6c-1.9,4.2-4.1,8.2-4.1,13C948.8,357.5,947.6,359.6,945.6,361z"/>
	<path fill="#A09F9D" d="M642.4,158.5c0.1,0.4,0.1,0.7,0,1.1c-1.5,2.1-3.8,2.2-5.9,3c-11.2,1.2-21.3,4.3-26.9,16
		c-2.2,4.6-3.2,9.3-3.2,14.4c0.1,37.1,0.1,74.2,0,111.2c0,3.2,0.7,6.6-1.5,9.4c-0.8,0.4-1.5,0.3-2.1-0.5c-1.1-2.3-0.7-4.7-0.7-7
		c0-8.7-0.1-17.3,0-26c0.4-27.9-0.9-55.8-0.6-83.7c0.8-6.1,0.3-12.3,2-18.3c1.2-4.8,3.4-8.8,7.6-11.6c7.4-4.2,14.8-8.3,23.5-8.9
		C637.4,157.4,640.1,156.3,642.4,158.5z"/>
	<path fill="#1B1A18" d="M729.3,245.6c0,6.1,0,12.3,0,18.4c2.2,10.2,1.2,20.6,1.7,30.9c-1.1,5.5-2.1,11-0.5,16.6c0.8,1,1.6,2,2.4,3
		c2.7,3.9,0.2,6.6-2.1,9.4c-1.1,1.4-1,3.1-1.6,4.7c-0.3,0.8-1.4,1.8-1.4,1.8c-1.6-4.9-3.8,2-5.5-0.3c-1.4-2.5-1.1-5.1-0.8-7.8
		c0.5-3.2,5.8-4.2,3.7-8.7c-0.1-0.7-0.2-1.5-0.2-2.2c-0.1-25.6-0.5-51.1,0.2-76.6c0.3-11.2,1-22.4,1-33.6c0-4.1,0.1-8.2-0.7-12.3
		c-0.5-2.5-1.4-5.8,2.5-6.8C731.1,203.2,728.7,224.4,729.3,245.6z"/>
	<path fill="#510F09" d="M813.5,228.1c0.4-1.5,0.8-3,1.2-4.5c0.4-0.4,0.8-0.9,1.2-1.3c8.2-5.1,14.8-12.2,21.2-19.3
		c5.1-5.6,10.9-10.4,15.9-16.2c0.6-0.7,0.8-2.3,2.1-0.7c-4.6,17.1-17.3,27.1-30.4,36.4C821.5,225,816.1,223.5,813.5,228.1z"/>
	<path fill="#3D3C3B" d="M392.2,351.3c-3.6,0.7-6.1,3.5-9.2,5.1c-3.6,1.8-0.7,4.4-0.8,6.7c-3.4-2.6-4.8-5.9-5.1-10.4
		c-0.2-3.5-2.4-6.8-3.7-10.3c-2.5-1.8-2.5-3.7-0.1-5.7c0.8-0.7,1.8-1.1,2.7-1.6c10.3-5.6,14.2-3.5,15.7,8.5c0.3,2.5-0.8,4.1-3,4.8
		C390.3,348.7,393.6,346.9,392.2,351.3z"/>
	<path fill="#27120F" d="M878.9,178.2c-3.8,0-3.8,3.3-4.7,5.8c-5.9,0.3-9.8-3.9-14.4-6.8c-0.6-2.7,0.6-5,2.9-5.5
		c4-0.9,5.4-4.2,7.4-7c6.4,3.9,12,9,20.4,8.4c4.7-0.3,8.1-3.1,12.3-4.2C896.6,176.9,887.7,177.4,878.9,178.2z"/>
	<path fill="#291310" d="M458.8,160.9c0,1.7,0.5,3.6,0,5.1c-1.7,5.1,0.6,6.6,5,6.7c2,0.1,4,0.5,2.7,3.5c-4.1,4.4-8.8,7.5-15,7
		c0-3.8,0-3.8,4.8-5.2c-3.3-0.5-6.6,2.9-8.7-1.3c-8.6-0.4-17.3-0.6-23.7-8C437.6,176,449.1,172.5,458.8,160.9z"/>
	<path fill="#50100B" d="M511.7,222.3c0,1,0,2,0,3c-11.4-2.3-19.1-10.4-27.3-18c-5.6-5.2-9-11.6-11.6-18.8c0.2-1,0.2-2.6,1.7-0.9
		c2.5,2.8,6.1,5,8,8C490,207.3,501.4,214.1,511.7,222.3z"/>
	<path fill="#575554" d="M368.4,255c2.6,3.8,7,6.4,7.7,11.6c0.3,5.1,0.2,9.8-4.9,12.9c-1.3,0.8-2.3,1.9-3.8,1.2
		c-1.6-0.8-0.7-2.2-0.4-3.4c1.7-6.7-1.6-12.6-2.9-18.8c-0.5-2.6-3-4.7-6.1-4.7c-2.1,0-4.1-0.2-6-1.4c1.6-0.9,2.8-2.5,4.8-2.6
		c2.7-1.5,4,0.7,5.4,2.4C364.3,253.1,366.3,254,368.4,255z"/>
	<path fill="#908F8D" d="M727.9,182c-2.2,5.3,0,10.6-0.1,15.9c-0.6,38.5-0.8,77.1-1.1,115.6c-3.4-0.4-2.7-3.3-2.9-5.5
		c-0.3-2.6-0.1-5.2-0.1-7.8c0-33.7-0.1-67.3,0.1-101c0-6.6-0.2-13-2.4-19.2c-0.2-1.6-0.5-3.3-0.4-4.9c0.3-2.6,1.3-3.4,3.2-1
		C724.3,177.3,728.5,178.4,727.9,182z"/>
	<path fill="#575453" d="M951.8,261.6c3.1-3.9,6.7-7.2,11.1-9.3c2.5-0.3,5.6,1.1,6.8-2.7c1.4,2.5,4.2,2.5,6.3,3.8
		c-3,0.7-6.2-0.5-9.2,1c-5.4,2.7-9.9,13.5-8.5,21.2c0.3,2,2.3,4.7-0.1,5.7c-2.4,1-3.6-2.3-5.2-3.8c-1.7-1.6-1.1-4.8-3.7-5.7
		C948.5,268,951.1,265,951.8,261.6z"/>
	<path fill="#767676" d="M605.8,422c3.1-4.7,1-10,1.5-15c0.3-2.8-0.1-6,3.9-5.9c3.9,0.1,3.7,3.3,3.7,6.2c0,4.5,0.1,9-0.1,13.6
		c-0.1,2,0.9,4.6-1.6,5.8c-2.8,1.3-5.2,0.2-7.1-2.1C606,423.7,605.9,422.9,605.8,422z"/>
	<path fill="#797777" d="M392.2,351.3c-1-4.1-3.2-1.2-4.7-0.6c-1.5,0.5-2.9,1.4-3.6-0.6c-0.7-2.1,0.9-2.4,2.5-2.5
		c4.3-0.2,4.8-2.4,3-6c-1.4-3-2.9-8.8-3.8-8.7c-3.8,0.5-7.3,2.8-11,4.3c-2.7,1.2-2.5,3-1.3,5.2c-3.1,0-6.1-0.5-7.6-3.9
		c4.6,0,7.6-3.8,11.6-5.4c2.4-1,4.6-2.8,7.3-3c6.4-3,13.2-4.6,20-6.1c0.1,0.9,0.2,1.7,0.2,2.6c-1.5,0.2-3.1-0.1-4.3,0.5
		c-3.7,1.8-10.7,0.1-10.8,5.2c-0.1,6.2,2.2,13.1,8.7,16.5c0.2,3.2-2.5,1.7-3.7,2.5C394,351.3,393.1,351.3,392.2,351.3z"/>
	<path fill="#675653" d="M676.2,150.8c4.5,0.5,7.1,4.5,10.7,6.7c1.9-2,0.3-4.6,1.4-6.6c0.5,3,1,4.9,5.1,5.5
		c10,1.5,20.5,2.7,27.2,12.4c-1,3.4-1.6,3.8-4.3,1.2c-3.4-3.3-7.1-5.8-11.6-7.2c-3.4-1.1-6.8-1.7-10.4-0.8c-1.2-0.1-2.5,0-3.6-0.6
		c0.7,0.8,2.6,0.3,2.3,2.2c-2.3,1.9-0.7,4.8-1.8,7.1c-2.4,0.9-4,0.5-4.3-2.5c-0.1-0.8,0.6-1.6-0.3-2.3c0.8,0.8,0.1,1.4-0.3,2
		c-2-0.2-2.2-1.8-2.7-3.3c0-3.9-2.3-6.3-5.2-8.2c-1.7-1.2-4-1.4-4.9-3.7C673.7,150.9,675.5,151.6,676.2,150.8z"/>
	<path fill="#260302" d="M647.5,133.5c5.6-2.5,11.5-1,17.3-1.1c6-0.1,12.1-1.2,17.9,1c-1.3,1-2.7,2.1-4,3.1
		c-8.2,5.8-16.7,4.5-25.3,1.2C651.4,136.3,649.5,134.9,647.5,133.5z"/>
	<path fill="#641A14" d="M394.5,373.1c-2.1-1.6-1.6-2.8,0.7-3.3c3.9-0.9,7.3-2.2,9.1-6.5c1.1-2.6,3.8-2.6,7.3-1.4
		c-2.6-3.8-7.2-1.3-7.8-5.6c3.8-0.1,7.1-2.8,11.1-2c-0.5,1.2-1.4,2.3-1.4,3.5c0.1,4.9,2.1,10.2-5,12.4
		C403.9,371.6,399.7,374.8,394.5,373.1z"/>
	<path fill="#36140F" d="M916.5,248.2c1.1-1.3,2.1-0.6,3.2,0.2c7.9,4.9,16.5,7.4,27.2,6.4c-3.7,3.8-9.2,1.6-10.3,6.7
		C929.4,258,921,256.4,916.5,248.2z"/>
	<path fill="#561915" d="M913,359.3c1.9,3.7,6.9,1.3,8.6,4.1c3.3,5.4,9,6.2,13.7,8.8c-0.1,0.3-0.1,0.7-0.1,1
		c-5.6,1-11.3,2.9-16.1-2.4C913.8,368.9,911.4,365.2,913,359.3z"/>
	<path fill="#7C797A" d="M953,342.2c0.8-0.6,1.6-1.2,2.9-2.1c-2.5-1.4-4.8-3.1-7.3-4c-2.9-1.1-7-5.2-8.5-2.6
		c-2.4,4.2-6,9.4-2.5,15.2c-3.3,0.6-6.4,3.1-9.5,0.1c5.7-1,5.5-6.5,7-10.4c1-2.5,1.7-5.2,2.8-7.7c0.2-0.6,0.6-0.9,1.2-1.1
		c0.9,0.2,1.8,0.4,2.8,0.7c6.1,2.6,12,5.5,17.4,9.4C957.9,342.5,955.4,342.3,953,342.2z"/>
	<path fill="#C53D30" d="M925.6,176.5c-1,2.1-1.4,4.9-4.8,1.7c-4.1-3.9-8.8-7.1-13.2-10.6c0-0.9,0-1.8,0.1-2.6
		c0.6-1.1,1.2-2.1,1.7-3.2c3,4.3,8.3,5.6,11.6,9.5C922.6,173,924.1,174.7,925.6,176.5z"/>
	<path fill="#E0DAD9" d="M919.1,370.9c5.1,2.8,10.8,1.3,16.1,2.4c0.7,2.6-1,4.7-1.2,7.2c-5.3-4.4-12.5,0.3-17.9-3.9
		C918.1,375.2,918.8,373.1,919.1,370.9z"/>
	<path fill="#951D0F" d="M653.4,137.8c8.5,1.1,17,1.8,25.3-1.2c0,2.9,0,5.9,0,8.8c-1.8-3.1-4.3-4.3-7.8-3.9c-6,0.8-12.4-2-17.8,2.6
		C652.5,142,652.7,139.9,653.4,137.8z"/>
	<path fill="#424441" d="M680.2,42.3c4.3-3.8,7.9-1.2,10.4,2.1c1.1,1.4,1.9,1.8,3.2,1.9c0.2,0.4,0.3,0.8,0.1,1.3
		c-3.3,2.6-0.8,7.4-3.4,10.2c-1.8,0-3.6,0.1-5.4,0.1c-0.4-0.4-0.9-0.8-1.3-1.2C685.5,51.1,684.4,46.3,680.2,42.3z"/>
	<path fill="#BF3828" d="M417.7,165c-3.5,7.6-10.1,11.6-16.8,10.3c4.2-5.1,8.9-9.6,15.1-11.9C416.6,163.9,417.1,164.4,417.7,165z"/>
	<path fill="#5B120C" d="M870.1,164.7c0.2,4.6,0,8.8-6.3,8.2c-2.6-0.2-3.1,2.4-4,4.3c-0.4,0-0.8-0.1-1.1-0.4
		c-0.6-4.1,2.8-6.1,4.5-8.9c1.8-3,3.4-5.9,3.2-9.6C867.6,160.5,868.8,162.6,870.1,164.7z"/>
	<path fill="#4E4D4C" d="M642.4,158.5c-10.7,0.3-21.1,1.4-29.7,9.2c-1.5,1.4-1.4-0.3-1.5-1.2c6.8-8,16.4-8.7,25.6-10.4
		c1.8-0.3,3.7-0.6,5.5-1C642.4,156.2,642.4,157.4,642.4,158.5z"/>
	<path fill="#A6A4A3" d="M694.2,160.8c9-2.7,15.9,1.5,22.6,7c0.6,0.5,1.4,6,3.8,1c1.8,1.4,3.6,2.7,3.6,5.3c-5.4-0.1,0.7,3.7-1.5,4.6
		c-2.4-0.2-3.4-2.3-4.7-3.9c-4.6-5.9-10.1-10.2-17.7-11.4C698.2,163.1,695.6,163.2,694.2,160.8z"/>
	<path fill="#35211F" d="M468,111.9c-1.8,1.2-3.5,2.4-5.3,3.5c-3.6,0.4-7.3,1-9.1-3.5C458.5,106.6,463.2,108.6,468,111.9z"/>
	<path fill="#424441" d="M692.5,42.4c-4.1-3.1-9.2-3.7-14.1-5.3c1.7-2.2,6.1-1.9,4.2-6.2C688.6,32.3,691.7,36.3,692.5,42.4z"/>
	<path fill="#342322" d="M873.9,113.9c-5.3,4.4-10.2,1.5-15.1-0.8C866.6,108,868,108.1,873.9,113.9z"/>
	<path fill="#464A47" d="M642.5,33.2c1.2,2,3.5,0.1,5.1,1.6c1,1,3.1,1,5.7,1.7c-6.3,0.8-11.1,3.3-15.9,5.7
		C637.8,38.6,639.3,35.4,642.5,33.2z"/>
	<path fill="#660F07" d="M447.6,176.7c2.8,2.3,5.8-0.3,9.2,0.2c-1.7,2.6-5.8,2.6-5.3,6.3c-1.3,1.7-2.5,3.5-3.8,5.2
		c-0.5-0.4-0.9-0.9-1.4-1.3C447.9,183.8,448.6,180.4,447.6,176.7z"/>
	<path fill="#9D9D9D" d="M939,329.5c-0.4,0.4-0.8,0.8-1.2,1.1c-4-1.2-8-2.4-11.9-3.6c-2.2-0.7-4.2-0.7-4.6,2.4
		c-1.9-4.5-1.6-8.9,0.3-13.3c-1.6,6.6,1.1,9.5,7.4,10.1C932.4,326.6,935.7,328.4,939,329.5z"/>
	<path fill="#727272" d="M601.1,406.4c-0.1,0.5-0.2,1-0.3,1.5c-2.3,6.7-0.5,13.6-1,20.3c-0.2,3.2,0,6.3-1.5,9.5c0-9.9,0-19.8,0-29.6
		C598.3,406.5,599.7,406.2,601.1,406.4z"/>
	<path fill="#BAB3B3" d="M636.4,47.4c2.9-0.8,3.9,1,3.9,3.4c0,2.3-0.4,4.7-0.6,7c-1.1,0.1-2.3,0.1-3.4,0.2
		C636.3,54.5,636.3,50.9,636.4,47.4z"/>
	<path fill="#C0BAB9" d="M690.6,57.8c0.8-3.6-4-9.1,3.4-10.2c0,3.5,0,7,0,10.5C692.9,57.9,691.7,57.9,690.6,57.8z"/>
	<path fill="#951504" d="M362.2,252.1c-1.8-0.8-3.6-1.6-5.4-2.4c0.5-2.2,1-4.3,1.6-6.5c1.7,1.7,3.4,3.5,5,5.2
		C363.1,249.7,362.6,250.9,362.2,252.1z"/>
	<path fill="#585856" d="M603.7,178.1c0.6,0.2,2.3-0.7,1.8,0.1c-2.7,4.9-1.2,10.6-3,15.6c-1.9-2.4,0.1-5.5-1.3-7.9
		c-0.1-0.5-0.3-0.9-0.4-1.4C601.7,182.4,602.7,180.2,603.7,178.1z"/>
	<path fill="#331311" d="M921.3,356.5c-2.5,2.6-5.2,1.5-7.8,0.4c-0.6-1.2-3.5-0.5-2.4-3.2C914.7,354,918.1,355,921.3,356.5z"/>
	<path fill="#951504" d="M358.7,230.2c1.4,3.4-3.1,5.6-1.5,9c-0.5,0-1.1,0.1-1.6,0.1C353.4,235.1,356.6,232.9,358.7,230.2z"/>
	<path fill="#4B4B4B" d="M601.6,423.2c1.9,5.4,0.9,9.3,0,13.2C601.6,432.5,601.6,428.7,601.6,423.2z"/>
	<path fill="#737373" d="M723,376.1c0.7-0.5,1.4-0.9,2.1-1.4c1.3,0.4,1.6,1.5,1.6,2.7c0.2,0.9,3.3,2,0,2.5
		C724.6,380.3,723.1,378.7,723,376.1z"/>
	<path fill="#6F6F6F" d="M605,374.8c0.7,0.4,1.5,0.9,2.2,1.3c-0.3,3.2-2,4.3-5.1,3.6C602.6,377.7,605.4,377.2,605,374.8z"/>
	<path fill="#464646" d="M589.8,329.1c3.4,2.6,7.3,0.5,10.8,1.4c2-1.7,4.3-2.3,6.8-1.8c1.4,0,2.9,0.3,4-1.2c1-5.7,4.6-7.9,9.8-7.9
		c2.3,0,4.6-0.1,6.9,0c4.8,0.5,9.7-1,14.4,1.2c2.1,2.1,2.6,5,2.4,7.8c-0.7,9.3-0.1,18.6-0.4,27.8c-0.2,7.2-1.7,8.6-8.6,8.8
		c-2.9,0.1-5.8-0.1-8.7,0.4c-0.7,0.1-1.6,0-2.4,0.9c7.9-1.2,15.5-0.1,23.1,0.1c3,0.1,6.9,0.4,4.9,5.6c-16,1-31.8-0.9-47.8-1.3
		c-3.1-2.4-6.4-0.4-9.5-0.3c-6.9,0-13.8,0.7-20.7,0.2c-5.9-0.5-8.3-5.6-8.7-11c-0.5-7.1-0.2-14.3-0.1-21.5c0.1-4.9,2.8-7.6,7.5-7.7
		c4.6-0.1,9.2-0.1,13.8,0.3C588.8,331,589.5,330.6,589.8,329.1z"/>
	<path fill="#414141" d="M575.8,274.5c-0.1,8.2,1,16.4-1.1,24.5c-0.2,0.8-0.3,1.7-0.6,2.5c-1.1,2.9-1.5,7.5-5.6,6.3
		c-3.5-1.1-3-5.4-2.4-8.5c2-9.7,1.5-19.6,0.6-29.2c-0.7-7.7,4.4-12.9,5.2-19.6c0.1-0.8,1-1.7,1.9-1.2c1.4,0.8,2,2.3,2,3.8
		C575.8,260.2,575.8,267.4,575.8,274.5z"/>
	<path fill="#2D0C0B" d="M544.4,266.6c-0.3-2.3-2.5-5,1.3-6.4c7.4-1.7,12.2-7.4,17.6-12.2c-1.4,8.2-8.5,10.7-14.1,14.3
		C547.2,263.5,545.9,265,544.4,266.6z"/>
	<path fill="#746C6B" d="M543.2,286.7c0.6-2.4-1.6-6.1,2.3-6.8c3.2-0.6,4.3,1.7,3.7,4.8C547.2,285.4,545.2,286.1,543.2,286.7z"/>
	<path fill="#464646" d="M722.6,330.5c3.1-1.3,0.6-4.7,2.3-6.6c2.8,0.9,0.9,3.9,2.3,5.5c1.7-2-0.4-5,1.8-6.7
		c0.4,0.2,0.7,0.4,0.9,0.8c3,5.9,3,5.9,6.7,0.4c4.2,0.4,2.4,4.5,3.9,6.6c4.2,0,8.4-0.1,12.5,0.1c6.2,0.3,8.3,2.6,7.8,8.9
		c-0.4,5.5,0.4,11.1,0.4,16.6c0,6.8-2.6,10.9-6.9,14.8c-15.8,0.3-31.6-1.5-47.3,0.5c-11.5,1.4-22.9,0.6-34.4,0.8
		c-0.5-5.2,3.1-5.4,6.4-5.6c7.8-0.6,15.6-1.2,23.6-0.7c-2.2-2.6-5-2-7.7-1.9c-11.3,0.7-14.2-2.1-14-13.9c0.1-5.8,0.4-11.6,0.8-17.5
		c1.3-3.6,4.2-6.2,5-10.1c0.5-2.3,2.9-2.7,5-2.9c3.1-0.2,6.2-0.1,9.2-0.1c1,0,2.1-0.1,3.1,0c11.9,1.6,9.3-1.3,12.8,9.3
		C718.9,329.1,721.1,328.7,722.6,330.5z"/>
	<path fill="#262626" d="M740.5,330.5c-4.2-0.5-1-5.1-3.4-6.6c-4.1-1.6-2.4-6.5-4.6-9.1c-1.9-3.3-3.2-6.9-3.3-10.8
		c-0.9-2.9,1-5.8,0-8.7c0-10.4,0-20.9,0.1-31.3c4.7,4.6,1.7,11.1,3.6,16.5c3.3,9.6,4.6,20.3,14.4,26.1c5,3,5.9,8.7,8.1,13.5
		c1.1,2.5-0.5,3.9-3.2,4C747.2,324.2,743.1,325.9,740.5,330.5z"/>
	<path fill="#424142" d="M754.6,250.4c2.6,5.9,6.4,11.5,5.9,18c-0.8,11.4,0.2,22.7,0.2,34c0,2.1,0.5,4.9-2.3,5.3
		c-2.4,0.4-3.5-2.1-4.3-4c-0.6-1.6-1.1-3.3-1.3-5c-1.9-14.7-0.8-29.4-0.5-44.1C752.3,253.4,752.5,251.6,754.6,250.4z"/>
	<path fill="#431510" d="M787,248.3c1.7,4.6-1.8,8.6-1.3,13c-1.3,2.5-2.2,3.8-5.8,2c-7.2-3.5-12.8-8.6-17.3-15.1
		c-5.5-8-3.3-20.6,4-24.6c-8.2,14.6-5.2,26.1,8.9,34.3c5.9,3.4,6.8,2.9,9.4-3.6C785.7,252.3,785.1,249.9,787,248.3z"/>
	<path fill="#776B6C" d="M777.1,281.2c2-0.4,3.9-2.7,6.2-0.7c2.1,1.8,0.8,3.8,0,5.7C781.1,284.8,775.5,287.8,777.1,281.2z"/>
	<path fill="#1E1E1E" d="M672.7,452c7.1-2.6,14.5-1,21.7-1.4c2.5-0.1,3.2,1.4,3.2,3.7c0,1.7,0,3.5,0,5.2c0.1,50,0.2,100.1,0.2,150.1
		c1.9,8.3,2.1,16.6,0,24.8c-1.3-1.4-2.7-1.2-4.5-0.7c-8.2,2-13.6-2-14.9-10.7c-0.3-1.8-0.1-3.9-1.9-5.2c-2.1,0.4-1.9,6.5-5.8,2.4
		c-2.9-6.9-1.7-14.1-1.4-21.2c0.8-16.9,1.2-33.8,1.3-50.6c0.2-29,0-58.1,0.1-87.1C670.9,458.1,670.2,454.7,672.7,452z"/>
	<path fill="#1F1F1F" d="M672.7,622.6c-0.2,4.8-0.4,9.5-6.1,11.3c-2.7,0.8-2.1,4.4-3.7,6.3c-6.3-7.9-14.7-14.6-11-27.3
		c-5.2,1.9-7.1,4.6-7,9.5c0.2,8.4-6.7,12.7-13.8,8.8c-4.7-2.6-3.5,0.9-3.7,3.3c-2.1-8.3-1.8-16.6,0-24.9
		c0.1-41.2,0.2-82.5,0.3-123.7c0-9.3,0.3-18.7-0.1-28c-0.3-5.6,1.1-8.3,6.8-7.3c1.8,0.3,3.8,0.1,5.6,0.1c2,1.1,4.1,0.5,6.2,0.6
		c7.1,0.1,8.2,1.2,8.3,8.8c0.1,16.3,0,32.5,0.2,48.8c0.2,13.4,0.3,26.9,0,40.3c-0.5,21.9,1.9,43.8,1.5,65.7c-0.1,5,0.4,10,4,14
		c1.3,0.8,1.9,3.1,4,1.8C667.8,629,668.5,623.8,672.7,622.6z"/>
	<path fill="#707070" d="M667.6,398.3c-0.2,0.3-0.7,0.7-0.7,1c0.2,2.5,2.1,1.5,3.3,1.6c3,0.1,4.5,1.2,4.9,4.5
		c1.7,14,1.3,27.9-1.1,41.8c-1,5.6-5.9,1.8-7.7,4.5c-0.6,13.4-0.2,26.8-0.4,40.2c0,3.2,0.3,6.5-1.7,9.4c-1.2,0.8-2.3,0.8-3.4-0.2
		c-0.8-1.1-1.3-2.3-1.3-3.6c-0.5-13.8-0.5-27.7,0-41.5c0-1.5,0.6-2.9,1.7-4.1c-4-1.4-5-4.6-5.3-8.6c-0.8-11.1-3.2-21.9-1-33.2
		c1-5.3,2.5-9.1,7.8-10.5c-0.8-0.9-1.6-1.8-2.5-2.7c2.6-2,5.1-2.3,7.6,0.2C667.8,397.6,667.7,397.9,667.6,398.3z"/>
	<path fill="#282828" d="M661.3,631.8c-7.8-2.7-7.2-9.9-7.4-16.1c-1.8-50.9-1.3-101.8-1.3-152.7c0-10.2,0-10.2-9.8-11.2
		c-1-0.1-1.9-0.8-2.8-1.2c5.4,0.4,11-1.3,16.3,1.3c2.2,2.4,2.2,5.6,2.1,8.6c-0.6,26.8,1.2,53.6,1.3,80.4c0,10.5,0.8,21.1,1,31.7
		c0,2.2,0.8,4.2,1.7,6.2c0.6,2,0.6,4,0.1,6.1c-1.5,2.5,0,4.9,0.1,7.4c0.8,12.2,0.8,24.5,0.2,36.8
		C662.8,630.1,662.2,631.1,661.3,631.8z"/>
	<path fill="#2F2F2F" d="M661.4,579.6c-1.9-1.7-2.7-3.9-2.5-6.4c0.9-14.1-1.5-28.1-1.3-42.1c0.3-26.4-2.1-52.8-1.2-79.2
		c1.6,0,3.2,0,4.8,0.1c0.1,16.4,0.2,32.9,0.3,49.3c1.9,2.4,1.7,5.3,1.7,8.1c0,20.8,0,41.6,0,62.3
		C663.1,574.4,663.6,577.4,661.4,579.6z"/>
	<path fill="#5D5D5D" d="M682.7,333c2,5.7-0.1,11.4-0.1,17.1c0.2,11.8,1.3,13,12.6,11.9c7.3-0.8,8.2-0.3,12,5.7
		c-2.6,1.5-5.4,1.2-7.8,0.7c-6.9-1.5-13.6,0.5-20.4,0.1c-3.1-0.2-5.3,0.8-6.4,3.9c-6.7,0-13.3,0-20,0c0.1-3.9-2.4-3.8-5.1-3.8
		c-7.9,0-15.8,0.1-23.7,0c-1.9,0-4.1,0.5-5.9-1c6.1-5.4,13-4.3,19.8-4.2c3.4,0.1,4.9-1.1,4.9-4.8c-0.1-12.3,0-24.6,0-36.9
		c4.8,1.9,5.9,6.3,7.1,10.8c-2.4,8-0.5,16.1-0.2,24.1c0.2,4.1,3.4,3.4,6,3.6c3.9-0.2,7.8,0.1,11.7-0.2c1.9-0.1,4-0.2,4.4-2.6
		c1-6.7,3.4-13.4-0.5-20C673.9,332.5,678.2,332.4,682.7,333z"/>
	<path fill="#282828" d="M672.7,622.6c-2.4,3.6-3.8,8.2-8.8,9.1c-3-5-0.2-10.4-0.8-15.7c-1.2-10.3-1.7-20.8-1.2-31.3
		c0.5-4.3-0.4-8.7,0.5-13.1c3.4-0.2,2.9,2.8,3.8,5.3c-1.8-11.1,0.7-21.7,0.7-32.2c0-21.1-0.2-42.1,0.1-63.2c0.2-9.9,0.7-19.9,2-29.7
		c1.2,0,2.5,0,3.7,0c0,39.8,0.1,79.5-0.1,119.3c-0.1,14.2-0.8,28.4-1.2,42.5c-0.1,2.6-0.1,5.2,1.3,7.6
		C672.7,621.8,672.7,622.2,672.7,622.6z"/>
	<path fill="#2B2B2B" d="M669,452c2.3,5,1.6,10.4,1,15.4c-2.2,18.6-1,37.2-0.9,55.8c0.1,17.1-1.3,34.1-1.5,51.2c0,2.5-0.9,5-1.5,8.4
		c-1.8-4-1.2-8-3.5-11c-1.3-11.4-0.8-22.9-0.4-34.4c0.3-9.7,0.3-19.5,0.5-29.2c0-2.4-0.3-4.8,1.1-6.9c0.1-14.6,0.1-29.2,0.2-43.9
		c0-2.1-1.2-5,2.3-5.7C667.2,451.8,668.1,451.9,669,452z"/>
	<path fill="#757575" d="M713,413.1c0-2.8,0-5.6,0-8.4c0-1.9,0.3-3.5,2.7-3.5c1.9,0,3.3,1.1,3.4,3.1c0.1,6.7,0.1,13.4,0,20.1
		c0,1.9-1.1,2.7-2.9,2.5c-1.9-0.2-3-1.4-3.1-3.4C713,420,713,416.5,713,413.1C713,413.1,713,413.1,713,413.1z"/>
	<path fill="#AF3B2E" d="M916.5,208c-6-4.1-9.5-10.2-12.9-16.4c-0.9-1.7-1.9-3.8,0.2-5.2c1.8-1.2,3.2,0.5,4.2,1.8
		c14.4,17.2,31.1,32.5,41.3,53.1c1.1,2.2,5.7,6.3-1.5,7.2c0,0,0,0,0,0c-10.1-11.6-17.3-25.8-29-36.1
		C917.6,211.2,916.5,209.9,916.5,208c5.3-0.2,6.7,5.2,10.1,7.3c-3.7-5.1-7.7-10.2-12.3-14.4C915.2,203.1,918.5,204.6,916.5,208z"/>
	<path fill="#B2362A" d="M505.5,183.2c2.5,5.3,7.1,9.5,7.5,15.8c-7.8-0.8-10.9-7.7-15.3-12.7c-1.9-2.1-1.2-6.3,0.3-6.9
		C501,178.1,503.6,180.5,505.5,183.2z"/>
	<path fill="#B03C30" d="M381,244.5c-1.6,1.2-3.2,2.5-6.3,4.8c3.4-14.4,11.3-23.9,18.9-33.5c1.5-1.7,2.2-4.4,5.2-4.1
		c1-0.1-0.5,4,2.3,1.3c2.3-2.2,3.8-6,8-5c0.4,0.9,0.3,1.7-0.4,2.5l0,0C398.3,220.8,389.9,232.9,381,244.5z"/>
	<path fill="#A2291A" d="M408.7,210.6c0-0.9,0-1.7,0-2.6c0-5.1,4.4-7.5,6.4-11.4c0.8-0.9,2.2-1.6,1.9-3c-0.3-1.1-1.8-0.3-2.7-0.8
		c-0.2-0.2-0.4-0.4-0.6-0.6c1-4.6,4.9-6.8,7.9-9.7c1.3-1.2,3.1-1,4.6,0.2c1.5,1.3,0.8,2.7,0.3,4.1
		C422.9,196.7,415.4,203.4,408.7,210.6z"/>
	<path fill="#A2291A" d="M381,244.5c7.7-12.6,15.8-24.9,27.7-33.9c-0.1,3.7-3.9,4.8-5,7.8c-8.6,7.4-14.1,17.6-21.4,26.1
		C381.8,244.5,381.4,244.5,381,244.5z"/>
	<path fill="#A2291A" d="M398.6,211.9c-1.7,1.3-3.4,2.6-5,3.9c4.8-9.6,12.5-16.5,20.1-23.5c0,0,0.1,0.1,0.1,0.1
		c0.7,0.8,0.8,1.6,0.6,2.6C409.2,200.8,405.3,207.7,398.6,211.9z"/>
	<path fill="#A92C1E" d="M822.2,181.9c1.6-1.4,3.2-2.8,4.8-4.1c1.5-1.3,3.1-1.2,4.5,0.2c1.3,1.2,2.8,2.8,1.6,4.4
		c-5.6,7.4-9.4,16.8-19.7,19.1c-3.6-2.9-0.3-6,0.9-7.5C817.4,190.2,819.1,185.5,822.2,181.9z"/>
	<path fill="#575351" d="M804.6,204.3c-3,6.8-2.2,14.3-3.8,21.3c-0.5,2.1,0,5.3-3.3,5.1c-3.1-0.3-2.7-2.5-2.3-5.3
		c0.5-3-0.3-6.3-0.6-9.5c1.7-2.8,0.9-6.3,2.7-9.2c1.8-2.9,3.7-4.5,7.1-3.9C804.5,203.4,804.6,203.8,804.6,204.3z"/>
	<path fill="#5B120C" d="M866.3,158.4c-0.4,0-0.9,0-1.3,0.1c-1.6-5.2-2.3-10.3,0.1-15.4C864.8,148.2,865.1,153.3,866.3,158.4z"/>
	<path fill="#636364" d="M422.7,148c-0.9-7.5,3.9-10.3,7.7-13.5c2.2-1.9,6.2,3.3,5.9,7.5c-0.3,4.2-6.7,10.8-10.7,10.7
		C421.5,152.6,423.1,149,422.7,148z"/>
	<path fill="#636263" d="M904,148.2c-0.2,2,0.6,4.9-3.1,4.9c-4.4-0.1-9.6-6.4-9.4-11.8c0.1-2.4-1.6-6.2,3.1-6.2
		C899,135.2,903.9,142,904,148.2z"/>
	<path fill="#431510" d="M791,231.4c2.1,4,0,13-4,17C787.3,242.5,789.8,237.1,791,231.4z"/>
	<path fill="#CAC4C7" d="M620.9,123.6c-1.6-2.6-0.8-5.5-0.8-8.2c-0.1-15.4,0.1-30.8-0.1-46.2c-0.1-5.1,1.3-7.6,6.7-7.5
		c25.9,0.3,51.8,0.4,77.7,0.6c1.9,0,3.9-0.4,4.4,2.4c-0.8,10.8-0.1,21.5-0.4,32.3c-0.1,2.1,0.9,5.3-3.2,4.4
		c-3.4-4.9-1.8-10.5-1.9-15.8c-0.3-9.2-0.5-9.6-9.1-9.7c-20.9-0.3-41.8,0-62.6,1.3c-1.5,0.1-2.9,0.2-4.2,1c-2.8,2.3-1.7,5.5-2,8.4
		c-0.2,2.8,0.4,5.9-3,8.7c-1.2-6.3-0.3-11.8-0.6-16.4c-0.8,11.8,2.2,24.3,1.3,36.9C622.8,118.6,623.4,121.6,620.9,123.6z"/>
	<path fill="#D7CBCD" d="M705.4,101.1c3.4-0.7,2.4-3.5,2.5-5.7c0.1-8.2,0-16.4,0.1-24.5c0-2.1-0.6-4.3,1-6.2
		c0.2,19.3,0.3,38.5,0.5,57.8c0,4-2.1,5.1-5.6,5.1c-27.1,0-54.3,0-81.4,0c-0.2-0.4-0.5-0.5-1-0.5c-0.2-1.1-0.3-2.3-0.5-3.4
		c0-17,0-34.1,0-51.1c0.5,0,1,0,1.5,0c0,6.8,0,13.7,0,20.5c2.6-5.9-0.5-12.3,2.6-18c2.2,2.5,2,5.6,2,8.6c0.1,10-0.1,20,0.1,29.9
		c0.1,6.8,0.7,7.4,7.3,7.4c20.5,0.1,41,0,61.5,0.1c5.2,0,7.6-1.7,7.6-7.5C703.4,109.4,702.8,104.9,705.4,101.1z"/>
	<path fill="#5A5A5A" d="M352.2,272.8c-0.8,3.6-1.6,7.8-5.9,7.9c-5.1,0.1-4.7-4.9-4.6-8.2c0.1-3.4,0-8.9,4.1-8.9
		C349.9,263.6,351.6,268.4,352.2,272.8z"/>
	<path fill="#5D504E" d="M534.4,224.8c-0.5,1.2-1,2.4-1.4,3.6c-0.7,2.1-2.6,2.2-4.1,2.2c-1.9,0-1.8-1.9-2.1-3.4
		c-1.6-7.3-3.2-14.5-4.8-21.8c3-4.3,5.2-3.6,7.6,0.8c2,3.9,1.6,8.9,4.8,12.2C534.4,220.6,534.4,222.7,534.4,224.8z"/>
	<path fill="#44110A" d="M542,253.6c-4.4-4.6-7.4-16.3-5.3-20.9C538.5,239.7,540.2,246.6,542,253.6z"/>
	<path fill="#393939" d="M373.2,318.6c-4.1-3.4-5.2-8.3-6.9-13c0.5-0.2,1-0.5,1.5-0.7C369.6,309.5,371.4,314.1,373.2,318.6z"/>
	<path fill="#C5BEC2" d="M671.4,47.9c-0.4,4.1-2.4,6.5-6.4,6.5c-4.4,0-6.5-2.9-6.4-7.1c0.1-3.9,2.1-6.4,6.3-6.4
		C669.6,40.9,671,43.9,671.4,47.9z"/>
	<path fill="#D0C9CB" d="M643.4,51.1c0-4.3,0.7-8,5.2-8.6c4-0.5,4.9,3.2,4.8,6c-0.1,3.8-2.2,7.3-6.3,7.6
		C643.9,56.4,643.2,53.6,643.4,51.1z"/>
	<path fill="#D0C9CA" d="M680.2,42.3c7.4,2.7,8.9,8.3,3.7,14.3C675.9,53.9,674.5,48.3,680.2,42.3z"/>
	<path fill="#440F0D" d="M394.9,351.3c1.2-0.8,2.5-1.7,3.7-2.5c1.6,0.1,2.6,0.8,2.8,2.5C399.3,353.6,397.1,352.6,394.9,351.3z"/>
	<path fill="#1D1C1B" d="M607.6,330.5c-2.3,0-4.7,0-7,0c0.1-3.7,1.7-7.7-2.7-10.3c-1.5-0.9-1.6-3.7-0.2-4.5
		c4.4-2.5,3.1-6.6,3.1-10.3c0-37.2,0-74.4,0-111.7c0-2.6,0.2-5.2,0.3-7.8c2,2.4,0.3,5.4,1.3,7.9c0.4,39.9,0.8,79.8,1.1,119.7
		c-0.6,4.4,4.2,5.6,5.1,9.1C609.1,325.3,609.4,328.1,607.6,330.5z"/>
	<path fill="#3B3D46" d="M637.2,160.8c1.6-1.2,3.5-1,5.3-1.2c1,0.2,1.9,0.3,2.9,0.5c2.1,0.5,3.4,1.7,3.1,4.1
		c-0.1,0.7-0.2,1.4-0.3,2.1c-0.4,13,0.4,25.9-0.4,38.9c-1,7-2.1,14.1-2.1,21.2c-0.1,23.4-0.1,46.7,0,70.1c0,2.6,0,5.2,0.6,7.7
		c0.7,3,1.2,6.3-1.5,8.4c-2.9,2.3-6.6,2.1-9.5,0.2c-2.8-1.9-5-2.7-7.7-0.2c-0.8,0.7-1.9,0.8-3,0.8c-2.9-0.2-13.1-9.9-14-13.2
		c0.9-2.4,3.1-2.6,5.2-2.9c2.9-0.4,5.8-0.9,8.7-1.5c11.1-2.2,11.6-2.3,10.9-14.3c-1.7-32-1.2-64.1-3.8-96c-0.3-3.7-1.3-7.2-2.1-10.8
		c0.3-6.4,6.6-4.6,9.6-7.5c0.4-2.5-2.9-1.9-3.2-3.9c0.8-2.7,3.3-0.8,4.7-1.8c0.8-0.1,0-1.4,0.1-0.5c0.1,0.4,0,0.6-0.3,0.6
		C639.3,161.7,638.1,162,637.2,160.8z"/>
	<path fill="#949096" d="M647.5,163.6c0.4-1.9-2.6-1.5-2.1-3.5c0.7-1,1.4-2.1,2.2-3.1c8-6.1,16.6-8.7,26.2-4.8
		c5,2.6,11.2,3.9,11.4,11.6c-1.1,0.4-2.1,0.1-2.9-0.6c-10.8-8.1-21.6-7.6-32.4,0.1C649.1,163.8,648.3,164,647.5,163.6z"/>
	<path fill="#5F1F1C" d="M673.7,152.2c-9.2-1.2-18.1-0.1-26.2,4.8c6.4-8.8,15.5-8,24.5-7.2c1.4,0.1,2.8,0.7,4.2,1
		C675.4,151.2,674.5,151.7,673.7,152.2z"/>
	<path fill="#3C3C3B" d="M607.4,321.6c-2.8-1.9-8.5-2.4-3.8-8.1c0.4,0.1,0.8,0.1,1.2,0.1c1-0.8,2.1-1.1,3.4-1
		c34,0.7,67.9,1.4,101.9-1c2.7-0.2,5.4-0.2,8.1,0.2c3,0.5,5.7,2,8.7,2.8c3.9,5.6-2.5,4.8-4,7c-0.4,0.3-0.9,0.7-1.3,0.9
		c-1.2,0.5-2.5,0.6-3.6,1.4c-1.6,1.8-0.5,4.7-2.4,6.4c-0.2,0.1-0.3,0.2-0.5,0.4c0.7-11.3-7.4-8.8-13.6-9.3
		c-7.7-2.1-15.8-0.4-23.5-2.2c2,0.6,4.2,0,6.2,0.6c1.7,0.5,1.7,1.5,0.4,2.7c-5,2.1-10.3,0.9-15.5,1.2c-6.9,0.3-13.8-0.6-20.6,0.9
		c-6.4-5.3-13.4-5.6-20.9-3.1c-0.2,0-0.4,0-0.6,0c-7-0.5-13.8-0.7-14.9,9.1c-1.6-1.9-1-4.4-1.8-6.5c-0.5-0.6-1.1-1-1.7-1.4
		C608.2,322.3,607.8,322,607.4,321.6z"/>
	<path fill="#20201F" d="M607.2,313.3c-0.8,0.1-1.6,0.2-2.3,0.3c-0.1-39,0.4-78.1-0.4-117.1c-0.4-20.3,11.6-35.4,32.7-35.8
		c1.4,0.2,2.8,0.3,4.4,0.5c-1.4,2-4.1,0.2-5.3,2.2c-1.5,2.5-4.1,2.8-6.5,3.4c-13,3.5-20.6,13.5-20.6,27.3c0,12.8-0.1,25.6,0.1,38.4
		c-0.1,4.9,0.6,9.8,0,14.7c-0.2,18.8,0,37.5-0.1,56.2c0,2.6,0.2,5.2-0.5,7.7C608.3,312.1,607.8,312.8,607.2,313.3z"/>
	<path fill="#2D2E32" d="M726.9,314.6c-2.4,1.2-4.5,0.7-6.4-1c0.1-0.2,0.2-0.4,0.4-0.6c0.3-0.4,0.6-0.7,1-1.1
		c0.3-0.4,0.5-0.9,0.6-1.4c1.1-3.3-1.9-7.8,2.8-9.9c1.1,4.2-1.3,8.9,1.5,13C726.8,313.9,726.8,314.2,726.9,314.6z"/>
	<path fill="#1A1A1B" d="M725.2,300.6c-2.9,3.9,1.3,9.3-2.6,12.9c-2.5-4.2-1-8.9-1.4-13.4c0-36.3,0-72.6,0-109
		c-2.1-14.1-8.7-21.5-22.2-24.8c-2.2-0.5-4.6-0.7-6.1-2.8c-0.9-0.6-1.9-1.2-3.3-2.1c1.8-0.3,3.2-0.5,4.7-0.7
		c12.5,0.9,22.4,6.1,28.5,17.9c2.1,5.5,2.8,11.2,2.7,17.2C725.3,230.8,725.3,265.7,725.2,300.6z"/>
	<path fill="#D2CED2" d="M647.5,163.6c9.6-10.8,25.8-10.8,37.7,0.1c0.4,1.4,0.8,2.7,1.2,4.1c1.4,2.1,1.3,4.5,1.2,6.9
		c-0.7,43.1-0.5,86.2-0.5,129.3c0,3.2,0.7,6.5-1.3,9.5c-9.9,1.8-19.9,0.4-29.9,0.7c-1.9-2.8,0.8-2.7,2.1-3.5
		c1.8-0.3,3.7-0.3,5.5-0.3c9.1-0.1,9.1-0.1,8.6-9.7c-0.2-4.5-2.6-9.4,2.1-13.1c5.3-0.6,7.6-3.3,6-8.9c-0.4-0.3-0.3-0.1-0.4,0.5
		c-0.7,2.6,1.4,7.1-2.6,7.3c-4.6,0.3-1.6-4.7-2.8-7c-0.4-0.7-0.4-1.6-0.6-2.5c-0.8-13.4,0.1-26.8-1.7-40.1c-0.5-3.9-1.6-6.3-6.1-6.3
		c-4.6,0-5.7,2.4-5.9,6.3c-1,15.1-2.5,30.1-1.7,45.3c-0.1,3.2-1.9,4.6-4.9,4.5c1.1,0.1,2,0.4,2.8,1.1c0.4,0.8,0.1-0.3,0.5,0.4
		c1.7,3.7-1.5,22.9-4.4,25.8c-2.3-0.3-5.4,1-6-3c-1.2-33.6-1.3-67.3,0.1-100.9C647.1,194.8,645.9,179.2,647.5,163.6L647.5,163.6z"/>
	<path fill="#3A3D46" d="M684.8,313.4c1.4-2.6,0.9-5.5,0.9-8.3c0-40.4-0.1-80.7-0.1-121.1c0-5.4,0.5-10.8,0.7-16.2
		c0.1-0.6,0.1-1.3,0.3-1.9c0.7-1.8,1-0.6,1,0.3c-0.1,3,1,4.5,4.1,3.8c4.5-2.2,7.8-0.5,10.2,3.7c-3,7.4-2.5,15.3-3,23
		c-1.8,30-1.8,60.1-1.6,90.2c0,5,2,7.5,6.7,8.3c4.1,0.7,8.2,1.5,12.3,2.2c3.1,0.5,5.8,1.6,4.7,5.9c-7.9,9-18.3,10.5-29.2,10.4
		c-4.1-0.1-5-2.1-4.7-5.8c1.4-19.1,0.4-38.2,0.6-57.3c0.1-12.3,0.3-24.5-0.7-36.8c1.2,15.1,0.7,30.2,0.7,45.3
		c-0.1,16.7,0.7,33.4-0.7,50.1C686.9,310.7,688.7,313.9,684.8,313.4z"/>
	<path fill="#121517" d="M627.6,321.3c5.9-4.6,17-3,19.8,2.8c3.5,1.8,5.9,5.3,9.8,6.7c11.6,4.3,21.1,1.3,28.1-9.3
		c-2.3-3.1-6-0.3-9.7-2.7c9.3,1.4,17.9-1.7,25.9,2.6c-2.3,0-4.5,0-6.8,0c-3.6-0.1-6.8-0.4-7.3,5.1c-0.2,2.3-3,4.4-4.6,6.5
		c-3.8,1.3-7.6,2.7-11.4,4c-5.1,4-10.2,1-15.4,0.3c-2.9-1.2-6-2.1-7-5.7c-2.1-3.4-4.3-6.7-6.4-10.1
		C637.5,321.4,632.5,321.4,627.6,321.3z"/>
	<path fill="#4D4D4D" d="M662.6,584.8c-0.4,0-0.8,0.1-1.2,0c0-1.7,0-3.5,0-5.2c0-26.1,0.1-52.2,0.1-78.3c0.8,0,1.5,0,2.3,0
		c1,23.5-2.2,47-1.2,70.5C662.6,576.1,662.6,580.4,662.6,584.8z"/>
	<path fill="#8B8B8B" d="M655.3,335.6c5.3,0.5,10.7,0.9,16,1.4c1.1,0.4,3-0.1,3.3,1.3c1.8,7.5-0.5,14.9-1.3,22.3
		c-0.2,1.5-2.4,1.2-3.9,1.2c-4.8,0-9.6,0-14.3,0c-4.4-7.4-3.7-15.5-2.7-23.6C652.6,336.7,653.4,335.3,655.3,335.6z"/>
	<path fill="#747474" d="M655.3,335.6c-3,5.6-1.5,11.6-1,17.4c0.2,2.9,0.7,5.9,0.8,8.8c-5.9,1.2-8.4-1.1-7.7-7.5
		c0.6-4.8-0.8-9.6-0.9-14.5c-0.1-3.4,1-5.7,2.3-8.2C651,332.9,653.2,334.2,655.3,335.6z"/>
	<path fill="#CE594D" d="M916.5,208c-0.2-4.1-5.7-5.9-4.4-11.3c7.3,6.4,13.3,13.4,18.9,22.5C923.8,217.3,921.5,210.8,916.5,208
		C916.5,208,916.5,208,916.5,208z"/>
	<path fill="#CC594C" d="M398.6,211.9c4.7-6,9-12.4,15-17c2.5-0.8,3.6-0.2,2.5,2.6c-2.5,3.5-5,7-7.5,10.5
		c-3.7,3.4-7.5,6.9-11.5,10.6C396,215.3,399.1,214.2,398.6,211.9z"/>
	<path fill="#B03C30" d="M416.2,197.5c0-1.7-0.9-2.5-2.5-2.6c0-0.8,0.1-1.7,0.1-2.5c2.2,0.6,4.1-3.9,5.6-1.4
		C420.8,193.4,418.7,196.1,416.2,197.5z"/>
	<path fill="#FEFEFE" d="M705.4,101.1c0,6-0.2,12-0.1,18c0.1,3.6-1.7,4.3-4.7,4.3c-23.6-0.1-47.3-0.1-70.9,0c-3.9,0-5-1.6-5-5.4
		c0.2-14.3,0.1-28.6,0.2-42.9c23.5-0.6,47.1-1.8,70.6-1.3c9.8,0.2,9.7,0,9.7,10.5C705.3,89.8,705.4,95.4,705.4,101.1z"/>
	<path fill="#5A393A" d="M665.7,72.5c-2.1-0.4-5.6,1.1-5.6-3.5c0-4.1,3.2-3.4,5.5-3.4c2.2,0.1,5.3-1.2,5.5,3.2
		C671.3,73,668.5,72.5,665.7,72.5z"/>
	<path fill="#494C55" d="M607.5,246.1c0-4.6,0-9.2,0.1-13.8c0.9-13.3,1-26.6,1-40c0.1-9.9,12.6-21.2,21.3-19.5
		c3.4,2.7,3.2,7,3.6,10.6c0.6,6,0.9,12.1,1.3,18.1c0.9,15.5,1.5,31.2,1.3,46.7c-0.2,13.5,1.6,26.8,1.5,40.2c-0.1,5.2-1.6,7.6-7,8.5
		c-6.4,1-13.1,1.2-19.2,3.9c0.4,2.5,1.5,4.8,1.5,7.3c0,2.2,0.6,5.4-3.2,5.4c-1.7-2.6-1-5.5-1-8.2
		C608.3,285.6,609.2,265.8,607.5,246.1z"/>
	<path fill="#2D2E32" d="M609.4,313.3c3.5-3.7,0.8-8.4,1.8-12.5c1.5,1.7,1.8,4.9,5.4,4.2c2.7-0.5,4.2,2,5.1,4
		c1.8,3.9,3.3,4.8,5.8,0.6c2.3-3.8,5.1-3.6,7.1,0.3c2.1,4.1,5.6,2.5,8.3,2c3.1-0.6,2.1-4,1.5-6.1c-1.1-3.7-0.9-7.3-0.9-11
		c0-23-0.1-46.1,0.1-69.1c0.1-6.8,0.6-13.7,2.4-20.3c1.3,2.2,0.7,4.7,0.7,7c0.1,31,0,62,0.1,93c0,2.3-0.5,4.8,0.5,7
		c2,1.7,4.2,1,6.3,0.7c0.5-0.3,0.9-0.2,1.4,0c9.9,1.1,19.8,0,29.6,0.3c3-1.7,1.7-4.6,1.7-7c0.1-30.2,0.1-60.4,0.1-90.6
		c0-2.1,0-4.3,0.2-6.4c2.7,13,2.2,26.2,2.2,39.4c0,16.1,0,32.2,0,48.2c0,2.6,0.1,5.2-0.6,7.7c-0.7,2.4-1.8,5.7,0.9,7
		c2.5,1.2,5.9,1.7,8.2-0.8c2.1-2.2,3.4-2.8,5.4-0.1c1.7,2.2,4.9,2.4,5.8,0c2.2-5.7,6.9-6.3,11.4-7.6c2.4,3.4,1.9,6.8,0.2,10.3
		c0,0,0,0,0,0c-35.4,2-70.8,1.2-106.3,1.2c-2.4,0-5.1,1-7-1.5c0-0.4,0.1-0.8,0.3-1.2C608.5,311.8,609,312.4,609.4,313.3z"/>
	<path fill="#949096" d="M647.4,312.4c-1.9-2.9-1.1-6.3-1.1-9.4c-0.1-32.5-0.1-65-0.2-97.5c0-10.8-0.1-21.6,0.1-32.4
		c0-3.1-1-6.5,1.2-9.4C647.4,213.2,647.4,262.8,647.4,312.4z"/>
	<path fill="#979FA5" d="M685.2,321.5c0.4,2.8-0.8,4.8-2.6,6.9c-7.2,8.5-30.9,8.2-35.3-4.3c0.4-3.8,3.3-2.6,5.3-2.6
		C663.5,321.4,674.3,321.5,685.2,321.5z"/>
	<path fill="#C7C6C3" d="M711.9,317.4c-31.2,0-62.5,0-93.7,0c0-0.3,0-0.6,0-0.8c31.2,0,62.5,0,93.7,0
		C711.9,316.9,711.9,317.1,711.9,317.4z"/>
	<path fill="#494C54" d="M720.4,313.6c-0.1-3.4-0.2-6.9-0.2-10.3c0.5-2.7-0.5-4.2-3.3-4c-5.7,0.3-11-2.1-16.6-2.7
		c-3.5-0.4-5-2.2-5-6c0.1-22.3-0.6-44.7,0.3-67c0.6-14.6,1.2-29.3,2.1-44c0.2-3.4,1.9-5,3.9-6.9c9.4,1.6,14.2,9.3,20.1,15.7
		c1.2,2.2,0.6,4.7,0.6,7c0,34.8,0,69.5,0,104.3c-0.2,4.5,0.3,9-0.3,13.6C721.5,313.4,721,313.5,720.4,313.6z"/>
	<path fill="#BEC0C1" d="M722,313.3c-1-4.2-0.8-8.4-0.1-12.6c0.3,0,0.5,0,0.8,0c0,4.3-0.1,8.5-0.1,12.8L722,313.3z"/>
	<path fill="#8C8D90" d="M722.7,300.7c0,0-0.4,0-0.4,0s-0.4,0-0.4,0c-0.1-37.4-0.1-74.8-0.2-112.3c0.3-0.2,0.7-0.3,1-0.2
		c0.1,25.3,0.2,50.7,0.2,76C722.9,276.4,722.8,288.5,722.7,300.7z"/>
	<path fill="#FBFAFB" d="M675,287.8c-4.3,6.2-0.5,12.9-0.8,19.4c-0.2,4.7-1.4,5.4-5.1,5.1c-3.3-0.2-6.7-0.1-10-0.2
		c-1.4-6.4-1.7-12.7,0.5-19c1.4-1.7,3.4-0.5,5.2-1.3c-1.4,0-2.6-0.3-3.8-0.6c-1.3-0.5-2.3-1.3-2.8-2.7c-0.6-1.9,0.6-3.5,0.8-5.3
		c1.1-12.7-0.8-25.6,1.7-38.2c0.8-4.1,0.5-10.1,5.8-9.9c5.6,0.2,5.6,6.2,5.6,10.7c0,11.5,0.3,22.9,1.2,34.4
		C673,282.9,674.4,285.2,675,287.8z"/>
	<path fill="#EBE7EB" d="M671.6,282.6c-1-9.2-1.7-18.3-1.5-27.6c0.1-3.7,0-7.3,0-11c0-3.3-0.1-7.8-3.6-7.8c-3.7-0.1-3.3,4.7-3.8,7.7
		c-1.9,10.9-1.2,21.9-1.3,32.9c0,2.8,0.2,5.6-1.3,8.2c-1.3,0.5-1.9-0.3-2.4-1.3c-2.9-8.6-1.8-17.6-0.9-26.2
		c0.9-8.1,0.3-16.3,1.7-24.5c0.7-4.2,1.9-4.1,4.8-4.2c9.6-0.2,9.4-0.2,10.8,9.9c1.8,13.2,1.1,26.5,1.2,39.8
		C676.1,281.8,674.9,283.2,671.6,282.6z"/>
	<path fill="#626261" d="M660.1,194.9c-0.6-0.1-1.2-0.2-1.9-0.2c-7.6,0-10.4-4.4-8-12.2c0.7-2.3,2.2-2.2,3.9-2.2
		c7.9,0,15.9,0.1,23.8,0c7.1-0.1,4.2,5.3,4.7,8.8c0.6,3.8-0.4,6.4-4.9,5.7c-1.6-0.2-3.3,0.1-5,0.1
		C668.5,197.8,664.3,197.9,660.1,194.9z"/>
	<path fill="#777677" d="M672.6,208.1c0.1,0.3,0.2,0.7,0.3,1c0.8,3.8,2.7,7.2,3.4,11c0.5,2.5,0.9,5.1-1.1,7.3c-5.9,0-11.8,0-17.7,0
		c-3.1-5.4-0.6-14.2,5.3-17.6c-3,0.7-5.7,2.1-7.9-0.7c1.3-0.4,2.6-0.8,4-1.2C663.4,205.1,668,204.8,672.6,208.1z"/>
	<path fill="#E4E1E5" d="M672.6,208.1c-4.6,0-9.1-0.1-13.7-0.1c-0.5-4.4,0.6-8.7,1.3-13c4.2-0.5,8.4-0.6,12.6,0
		C672,199.3,673.7,203.7,672.6,208.1z"/>
	<path fill="#5D5C5D" d="M654.9,209.2c2.9,0,5.8,0,9,0c-5,5.4-6.8,11.4-6.3,18.3c-5.8,1.5-8.7-0.4-7.8-7c0.3-2.1,0.2-4.4,0-6.5
		C649.3,209.7,651.2,208.5,654.9,209.2z"/>
	<path fill="#5C5B5B" d="M675.2,227.4c0.5-5.5-1.3-10.5-3.3-15.3c-0.8-1.8-1.1-2.6,1-3c10.1,0,10.1,0,10.1,10.7
		C683,228,683,228,675.2,227.4z"/>
	<path fill="#E5E1E5" d="M661.2,292.8c-2.2,3.7-0.7,7.9-1.1,11.8c-0.2,2.5,0.1,5.1-1.1,7.5c-1.3,0.3-2.6,0.6-3.9,1
		c-0.5,0-0.9,0-1.4,0c0.3-5.7,1.1-11.5,0.7-17.1c-0.2-2.7,5.3-4.7,0.6-7.4c1.3-0.9,2.4-0.7,3.6,0.3c1,0.5,1.9,1,2.9,1.5
		C662.1,291.2,662,292.1,661.2,292.8z"/>
	<path fill="#B3A19A" d="M671.6,282.6c2.3-0.3,3.2-2,3.6-4.1c2.4,2,0.6,5.1,1.7,7.5c0.1-3.4,2.6-6.5,0.2-10.3c4.5,0.9,6,3.4,5.5,7.1
		c-0.6,4.6-4.2,4.7-7.6,4.9C673.3,286.5,671.7,285.1,671.6,282.6z"/>
	<path fill="#B59396" d="M674.2,166.7c1.3,1.6,4.5-1.3,4.7,2.3c0.2,2.8-2.4,2.9-4,2.9c-1.9,0.1-4.4-0.1-4.7-3
		C669.8,165,673.2,168.3,674.2,166.7z"/>
	<path fill="#B79397" d="M661.9,166.7c2-0.6,3.3,0.1,3.1,2.4c-0.2,2.9-2.5,2-4.2,2.4c-2.5,0.5-2.6-1.1-2.7-2.8
		C657.8,164.7,661,168.1,661.9,166.7z"/>
	<path fill="#A6A2A5" d="M658.6,288.8c-1.2-0.1-2.4-0.2-3.6-0.3c-1.6-2.2-3.9,0.7-6-1c2.5-2.5,6.7-0.7,8.6-3.9
		c0.8,0.4,1.6,0.9,2.4,1.3C659.6,286.3,659.1,287.5,658.6,288.8z"/>
	<path fill="#A4A0A3" d="M653.8,96c3.9,4.6,3.4,7.3-1.5,9.7c-3.6,1.7-7.4,1.5-10.9,0.5c-5.1-1.4-5.9-5.4-2.5-10.1
		c1.9,0.3,4.1-0.8,5.5,1.6c0.5,0.9,0.5,2.4,1.6,2.5c1.5,0.2,1.5-1.7,2.2-2.6C649.5,95.3,651.9,96.4,653.8,96z"/>
	<path fill="#A8A2A7" d="M694.1,98.4c2.1,2.6,0.3,4.4-1.3,6c-3.2,3.1-11.8,3.4-15.1,0.4c-3-2.8-4-6-0.1-9.1c1.8,0.1,3.6,0.1,4.7,2
		c0.9,0.9,0.5,3.1,2.4,2.8c1-0.2,0.7-1.7,1.1-2.6C688.8,93.7,691.4,97.1,694.1,98.4z"/>
	<path fill="#515151" d="M695.9,91.6c-6.9-2.9-13.8-5-21.1-0.5C676.6,83.8,689.3,84.3,695.9,91.6z"/>
	<path fill="#4D4D4D" d="M656.4,91.1c-7.1-3.1-14.2-4.1-21.4-0.1C640.2,83.9,650.7,84.1,656.4,91.1z"/>
	<path fill="#797679" d="M681.7,98.6c-1.4-1-2.7-1.9-4.1-2.9c7.5-3.5,11.8-2.8,16.5,2.7c-2.5,0.7-5.1-3.5-7.6,0
		C684.9,99.9,683.3,100,681.7,98.6z"/>
	<path fill="#827F82" d="M653.8,96c-1.2,1.9-4.1,0.3-5.1,2.6c-1.7,0.7-3.3,1-5-0.2c-1.1-2-3.6-0.6-4.8-2.3
		C643.8,92.3,648.8,92.5,653.8,96z"/>
	<path fill="#BDBEBD" d="M661.2,292.8c0.1-0.8,0.2-1.7,0.3-2.5c0.2,0,0.4-0.1,0.6-0.1c1.9,0.3,4.2-1.1,5.8,0.9
		c0.5,0.7,0.5,1.9-0.4,2.2C665.4,294.1,663.2,294.7,661.2,292.8z"/>
	<path fill="#BBBBBD" d="M667.6,286.1c0,1.5-0.3,2.5-1.6,2.3c-1.1-0.1-1.7-1-1.7-2.2c0.1-1.2,0.8-2,1.9-2.1
		C667.6,284.1,667.4,285.4,667.6,286.1z"/>
	<path fill="#524A4E" d="M643.7,98.4c1.7-1,3.3-1,5,0.2c0.4,2.4,0.1,4.8-2.7,4.6C643.5,103,642.4,101,643.7,98.4z"/>
	<path fill="#524B52" d="M681.7,98.6c1.6-0.1,3.2-0.1,4.8-0.2c1.5,2.6,1,4.8-2,5C681.5,103.6,681,101.3,681.7,98.6z"/>
</g>
</svg>
