<?xml version="1.0" encoding="utf-8"?>
<!-- Generator: Adobe Illustrator 17.1.0, SVG Export Plug-In . SVG Version: 6.00 Build 0)  -->
<!DOCTYPE svg PUBLIC "-//W3C//DTD SVG 1.1//EN" "http://www.w3.org/Graphics/SVG/1.1/DTD/svg11.dtd">
<svg version="1.1" id="Layer_1" xmlns="http://www.w3.org/2000/svg" xmlns:xlink="http://www.w3.org/1999/xlink" x="0px" y="0px"
	 viewBox="0 0 960 560" enable-background="new 0 0 960 560" xml:space="preserve">
<rect x="0.1" fill="#227DD1" width="960" height="560"/>
<path fill="#FEFEFE" d="M1020.4,275.9c-0.3-19.8-2.7-39.3-7.6-58.4c-12.5-49.4-37.3-91.6-74.8-126.2
	c-45.7-42.2-99.9-64.8-161.9-68.4c-0.8-0.3-1.5-0.1-2.3-0.1s-1.5,0-2.3,0c-1.4-0.1-2.8,0.2-4.2-0.2c-2.8,0-5.6,0-8.4,0
	c-1.4,0.4-2.8,0.1-4.2,0.2c-0.8,0-1.5,0-2.3,0c-0.8,0.1-1.5-0.1-2.3,0.1c-9.6,0.5-19.2,1.5-28.7,3.1c-24.7,4-48.2,11.4-70.7,22.4
	c-35.6,17.4-65.8,41.6-90.2,72.9c-37.2,47.9-55.4,102.2-54.8,162.9c0.2,20.6,2.9,40.9,8.2,60.8c11.4,43.6,32.9,81.6,64.1,114
	c21,21.8,45.1,39.2,72.3,52.5c26.7,13,54.8,21.1,84.2,24.4c18.5,2.1,37,2.1,55.5,0.1c18.2-1.9,36-5.6,53.3-11.4
	c41.8-13.8,77.8-36.9,107.9-69c18.2-19.4,33-41.2,44.4-65.3C1012.8,354.1,1021,316,1020.4,275.9z M544.3,225.1
	c9.6-37.9,27.7-71.1,54.5-99.5c31.9-33.8,70.6-55.8,116.1-65.9c14.3-3.2,28.8-4.8,43.4-5.1c19.8-0.4,39.3,1.8,58.5,6.3
	c1.8,0.4,2.2,1.1,2.2,2.9c-0.1,28.2-0.1,56.4,0,84.6c0,1.6-0.3,2.2-2.1,2.1c-2.3-0.2-4.7-0.1-7.1,0c-1.4,0.1-1.7-0.4-1.7-1.7
	c0-15.9,0-31.9,0-47.8c0-7.1-0.1-14.2,0-21.2c0-1.5-0.4-1.8-1.8-1.7c-11.9,0.1-23.9,0.1-35.8,0c-1.6,0-2,0.4-2,2
	c0.1,22.8,0.1,45.5,0.1,68.3c0,1.9-0.5,2.4-2.3,2.2c-2.3-0.2-4.6-0.1-6.9,0c-1.4,0.1-1.7-0.4-1.7-1.7c0.1-11.4,0-22.7,0-34.1
	c0-11.7,0-23.3,0.1-35c0-1.5-0.4-1.8-1.8-1.8c-11.9,0.1-23.9,0.1-35.8,0c-1.6,0-2,0.4-2,2c0.1,22.8,0,45.5,0.1,68.3
	c0,1.9-0.5,2.4-2.3,2.2c-2.3-0.2-4.7-0.1-7.1,0c-1.1,0-1.4-0.3-1.4-1.4c0.1-2.7,0-5.5,0-8.2c0-20.3,0-40.6,0-60.9
	c0-1.8-0.5-2.1-2.1-2.1c-11.8,0.1-23.6,0.1-35.4,0c-1.6,0-2.1,0.3-2.1,2.1c0.1,20.5,0.1,41.1,0.2,61.6c0,1.9-0.3,2.5-2.4,2.5
	c-22.8-0.1-45.7,0-68.5-0.1c-1.6,0-2,0.4-2,2c0.1,25.3,0.1,50.6,0,76c0,1.5,0.4,1.9,1.9,1.9c17.5-0.1,35.1-0.1,52.6-0.2
	c0.3,0,0.6,0,1.1,0c-6,22.5-1.1,43.2,9.4,63.4c-0.7,0-1.2,0-1.6,0c-24.8,0-49.5,0-74.3,0c-1.6,0-2-0.3-2-2
	c0.1-6.8,0.1-13.5,0.1-20.3c0-3.8-0.2-7.6-0.1-11.5c0-1.5-0.3-1.9-1.9-1.9c-13.1,0.1-26.2,0-39.2,0c-0.7,0-1.4,0-2.2,0
	C540.4,242.5,542.1,233.7,544.3,225.1z M633.5,463.6c0,0.2,0,0.4-0.1,0.9c-23.9-16.9-43.6-37.4-59.4-61.6c0.5-0.6,1-0.4,1.5-0.4
	c18.8,0,37.5,0,56.3,0c1.1,0,1.8,0,1.8,1.6C633.5,423.9,633.5,443.7,633.5,463.6z M986.4,311.8c-6,41.2-22.1,77.9-48.2,110.2
	c-9.6,11.9-20.3,22.7-32.2,32.3c-0.6-0.3-0.4-0.8-0.4-1.2c0-41.1,0-82.3,0-123.4c0-1.1,0.3-1.7,1.2-2.4c4.8-3.7,6.7-9.7,4.9-15.4
	c-1.7-5.7-6.7-9.5-12.7-9.9c-5.7-0.3-11.3,3.4-13.4,8.9c-2.2,5.8-0.5,12.3,4.4,16.2c1,0.8,1.4,1.5,1.4,2.8c0,44.6,0,89.2,0,133.8
	c0,1.3-0.4,2-1.5,2.8c-27.3,18.5-57.3,30.5-89.8,36c-20.5,3.4-41.1,3.9-61.7,1.7c-1.7-0.2-1.4-1.1-1.4-2c0-17.5,0-35.1,0-52.6
	c0-5.8,0-11.6,0-17.4c0-1.1,0.2-1.5,1.4-1.5c18.9,0,37.8,0,56.7,0c1.2,0,1.4,0.4,1.4,1.5c0,9.3,0,18.5,0,27.8c0,1.2-0.3,1.5-1.5,1.5
	c-5.1-0.1-10.2-0.1-15.3,0c-1.1,0-1.7-0.4-2.3-1.2c-3.8-5.1-10.1-7-15.8-4.9c-5.8,2.1-9.5,7.8-9.2,14c0.3,6.1,4.6,11.3,10.5,12.8
	c5.3,1.4,11.1-0.6,14.4-5.2c0.7-0.9,1.4-1.2,2.5-1.2c9.8,0,19.5,0,29.3,0.1c1.5,0,1.9-0.4,1.9-1.9c-0.1-18.6-0.1-37.3-0.1-55.9
	c0-1.5-0.5-1.8-1.8-1.8c-28.3,0-56.5,0-84.8,0c-1.6,0-1.8,0.5-1.8,1.9c0.1,27.1,0.1,54.2,0.1,81.3c0,2.4,0,2.4-2.2,2
	c-25.4-4.9-49.1-13.9-71.4-26.9c-0.8-0.5-1.1-1-1.1-2c0-22.9,0-45.8,0-68.7c0-1,0.2-1.4,1.3-1.4c4.4,0.1,8.8,0.1,13.2,0
	c1,0,1.5,0.4,2.1,1.2c3.6,4.9,9.9,6.8,15.5,4.9c5.7-1.9,9.6-7.4,9.5-13.4c-0.1-6.1-4-11.4-9.7-13.3c-5.7-1.8-11.8,0.2-15.4,5.1
	c-0.6,0.8-1.2,1.1-2.2,1.1c-31.9,0-63.8,0-95.7,0c-1,0-1.6-0.3-2.1-1.2c-3.1-6-6.1-12.1-8.9-18.4c-0.6-1.3-0.4-1.7,1.1-1.7
	c25.5,0,50.9,0,76.4,0c1,0,1.6,0.2,2.3,1c3.8,4.8,10,6.5,15.6,4.4s9.4-7.9,9.1-13.7c-0.3-6.1-4.4-11.4-10.1-13
	c-5.9-1.6-11.9,0.6-15.3,5.8c-0.6,0.9-1.1,1.1-2.1,1.1c-27.2,0-54.4,0-81.5,0c-1.2,0-1.6-0.4-2-1.5c-1.7-5.4-3.3-10.8-4.7-16.3
	c-0.3-1.2-0.3-1.8,1.3-1.8c14.6,0.1,29.2,0,43.8,0c1.1,0,1.7,0.4,2.3,1.2c4.7,6.4,13.5,7.5,19.6,2.7c6.2-4.9,7.1-14.1,2-20.3
	c-4.9-5.9-13.8-6.5-19.7-1.4c-0.2,0.2-0.5,0.3-0.6,0.5c-1.5,3.1-4.2,3-7.1,3c-14.4-0.1-28.8-0.1-43.3,0c-1.4,0-1.9-0.3-2.2-1.8
	c-2.7-16.5-3.6-33-2.6-49.7c0.1-1.1,0.3-1.5,1.5-1.5c9.1,0.1,18.2,0.1,27.4,0c1.3,0,1.5,0.4,1.5,1.6c0,10.6,0,21.2,0,31.8
	c0,1-0.1,1.6,1.4,1.8c1.8,0.3,3.7,0.3,5.5,0.3c30.8,0,61.6,0,92.4,0c1,0,1.8,0,2.5,1c12.5,18,28.1,32.9,45,46.7
	c14.5,11.8,29.9,22.1,45.7,31.9c1.6,1,3,1,4.6,0c9.7-6.1,19.4-12.2,28.7-18.9c0.7-0.5,1.3-0.6,2.1-0.6c14.4,0,28.8,0,43.3,0
	c1.2,0,1.6,0.3,1.6,1.6c0,29.1,0,58.2,0,87.3c0,1.1-0.4,1.8-1.3,2.5c-5,3.9-6.8,10.5-4.5,16.3s7.7,9.2,14.2,8.8
	c5.7-0.3,10.8-4.7,12.2-10.7c1.2-5.6-0.3-10.4-4.7-14.1c-1.2-1-1.6-2-1.6-3.5c0-33.4,0-66.9,0.1-100.3c0-1.7-0.4-2-2.1-2.1
	c-12.6-0.2-25.3-0.1-37.9-0.1c-0.4,0-0.9-0.1-1.7-0.1c11.4-9.5,21.8-19.3,31.2-30.2c12.2-14.1,22.1-29.5,28.1-47.3
	c3.3-9.8,4.8-19.8,4.3-30.1c-0.1-1.3,0.2-1.8,1.7-1.8c19.2,0.1,38.4,0.1,57.6,0c1.5,0,1.7,0.5,1.7,1.8c0,22.8,0,45.7-0.1,68.5
	c0,1.6,0.3,2.1,2,2.1c14.8-0.1,29.6,0,44.4-0.1C986.3,310,986.6,310.3,986.4,311.8z M988.2,294.2c-0.1,1.2-0.5,1.4-1.6,1.4
	c-10.8,0-21.6,0-32.3,0c-1.3,0-1.5-0.5-1.5-1.6c0-29,0-58.1,0-87.1c0-1.2,0.5-1.8,1.4-2.5c6.1-4.8,7.2-13.4,2.5-19.6
	c-4.4-5.9-12.9-7.2-18.9-2.9c-7.7,5.4-8,16.8-0.4,22.7c0.9,0.7,1.3,1.4,1.2,2.5c-0.1,4.9-0.1,9.8,0,14.7c0,1.1-0.2,1.5-1.4,1.5
	c-20.3,0-40.6,0-60.9,0c-1.2,0-1.6-0.5-1.9-1.5c-7.9-22.6-23.7-36.8-46.8-41.9c-19.4-4.2-37.5-0.4-52.8,13
	c-4.4,3.8-7.6,8.6-10.3,13.7c-0.3,0.5-0.4,1.2-1,1.6c-0.7-0.3-0.9-0.9-1.2-1.4c-7.1-14.4-19.1-22.5-34.3-26.4
	c-26.6-6.9-54.5,4.2-69.2,27.5c-0.7,1.1-1.4,1.5-2.7,1.5c-14.7-0.1-29.3-0.1-44,0c-1.5,0-1.9-0.4-1.9-1.9c0.1-15.8,0.1-31.5,0-47.3
	c0-1.5,0.4-1.8,1.9-1.8c23,0,45.9,0,68.9,0.1c1.7,0,2.1-0.4,2.1-2.1c-0.1-20.7,0-41.5-0.1-62.2c0-1.6,0.4-2.1,2-2
	c2.4,0.1,4.9,0.1,7.3,0c1.3-0.1,1.5,0.4,1.5,1.6c0,11.4,0,22.8,0,34.3c0,11.6,0,23.2,0,34.8c0,1.4,0.3,1.8,1.8,1.8
	c12-0.1,24-0.1,36,0c1.6,0,1.9-0.5,1.9-1.9c-0.1-22.8-0.1-45.7-0.2-68.5c0-1.7,0.3-2.2,2.1-2.1c2.3,0.2,4.6,0.1,6.9,0
	c1.5-0.1,1.9,0.4,1.8,1.9c-0.1,20.3-0.1,40.6-0.1,60.9c0,2.8,0.1,5.6,0.1,8.4c0,1,0.2,1.3,1.3,1.3c12.3,0,24.6,0,36.9,0
	c1.5,0,1.2-0.8,1.2-1.7c0-13.5,0-26.9,0-40.4c0-9.6,0-19.1,0-28.7c0-1.3,0.3-1.7,1.7-1.7c2.6,0.1,5.2,0.1,7.8,0c1,0,1.3,0.3,1.3,1.3
	c-0.1,19.2-0.1,38.4-0.1,57.6c0,4.1,0.1,8.2,0.1,12.2c0,1,0.2,1.3,1.3,1.3c12.3,0,24.6,0,36.9,0c1.3,0,1.2-0.6,1.3-1.5
	c0.1-4.9,0-9.8,0-14.7c-0.1-26.9,0-53.7,0-80.6c0-2.3,0-2.3,2.1-1.6c31.4,10.8,59.2,27.6,83.2,50.5c2.5,2.4,4.8,4.9,7.3,7.5
	c-0.9,0-1.6,0-2.2,0c-13,0-25.9,0-38.9,0c-4.6,0-9.3,0.2-13.9,0.2c-1.2,0-1.5,0.4-1.5,1.6c0.1,5.9,0,11.7,0,17.6
	c0,1.2-0.3,1.9-1.3,2.7c-6.5,5.1-7.3,14.5-1.8,20.7c5.2,5.8,14.5,6,20,0.5c5.7-5.7,5.5-15.2-0.8-20.6c-1.5-1.3-1.8-2.4-1.8-4.2
	c0.1-4.2,0-4.2,4.2-4.2c16.3,0,32.7,0,49,0c1.2,0,2,0.3,2.7,1.3c22,27.9,36.7,59.1,44,93.8C988,253.7,989.4,273.8,988.2,294.2z"/>
</svg>
