<?xml version="1.0" encoding="utf-8"?>
<!-- Generator: Adobe Illustrator 17.1.0, SVG Export Plug-In . SVG Version: 6.00 Build 0)  -->
<!DOCTYPE svg PUBLIC "-//W3C//DTD SVG 1.1//EN" "http://www.w3.org/Graphics/SVG/1.1/DTD/svg11.dtd">
<svg version="1.1" id="Layer_1" xmlns="http://www.w3.org/2000/svg" xmlns:xlink="http://www.w3.org/1999/xlink" x="0px" y="0px"
	 viewBox="0 0 512 512" enable-background="new 0 0 512 512" xml:space="preserve">
<g>
	<path fill="#1867B3" d="M249.6,278.2c7.3,22.2,14.4,43.9,21.6,65.6c-0.8,0.7-1.5,0.4-2.2,0.4c-15.9,0-31.7,0-47.6,0
		c-2.2,0-2.2,0-2.8-2.1c-4.7-17.3-9.4-34.7-14.1-52c-0.2-0.8-0.5-1.6-0.7-2.4c-0.3,0-0.6,0-0.8,0.1c-15.2,6.3-29,14.6-40.7,26.3
		c-8.1,8.2-14.5,17.5-17.7,28.7c-0.4,1.3-1.1,1.4-2.2,1.4c-4.7,0-9.5,0-14.2,0c-11.1,0-22.2,0-33.4,0c-0.9,0-1.8,0.2-2.7-0.2
		c-0.4-1,0.2-1.8,0.5-2.6c9-27.8,18.1-55.6,27.1-83.4c9.6-29.5,19.2-59,28.8-88.5c0.2-0.5,0.3-0.9,0.5-1.4c0.2-0.9,0.7-1.2,1.6-1.2
		c0.5,0,1,0,1.5,0c19.5,0,38.9,0,58.4,0c0.2,0,0.5,0,0.7,0c1.9,0,1.9,0,2.5,1.9c5.8,17.6,11.6,35.2,17.3,52.8c3.3,10,6.6,20,9.9,30
		c0.4,1.1,0.8,1.9,2.2,2.1c21,3.2,39.3,12.2,55.4,26c2.9,2.5,5.7,5.1,8.3,8.1c-9.1-3.3-18.2-6.3-27.7-8
		C269.5,278.4,259.8,277.7,249.6,278.2z M164.9,267c0.8-0.3,1.1-0.4,1.4-0.5c8.7-4.2,17.7-7.5,27.1-9.8c1.8-0.5,1.9-0.5,1.3-2.5
		c-2.4-8.9-4.8-17.8-7.2-26.7c-1.9-7.2-3.9-14.3-5.8-21.5c-0.1,0-0.3,0-0.4-0.1C175.9,226.2,170.5,246.4,164.9,267z"/>
	<path fill="#1867B3" d="M267.8,293.5c1,0,1.6,0.5,2.3,0.8c13.2,6.4,27,10.9,41.5,12.9c6.3,0.9,12.7,1.2,19.1,0.2
		c3.3-0.5,6.3-1.6,8.9-3.8c5.1-4.2,5.4-12.3,0.6-16.7c-2.4-2.2-5-4-7.8-5.4c-6.9-3.6-14-6.7-21-9.9c-6.3-2.9-12.5-6-18.4-9.8
		c-5.7-3.7-10.8-8-14.8-13.4c-4.5-6-7.2-12.8-8.4-20.2c-1.3-8.2-1.3-16.3,0.6-24.3c2.7-11.4,9.2-20.2,18.9-26.8
		c7.6-5.2,16.1-8.3,25.1-9.9c13.9-2.5,27.8-2.5,41.7-0.1c1.4,0.2,2.7,0.7,4.1,0.9c1.7,0.2,2.4,1.1,2.9,2.8
		c2.6,9.7,5.2,19.4,7.8,29.1c0.9,3.4,1.8,6.7,2.8,10.2c-0.9,0.2-1.5-0.3-2.2-0.6c-8.3-3.6-16.8-6.8-25.7-8.7
		c-5.9-1.3-11.8-2-17.7-0.7c-5.2,1.1-9.1,3.9-11,9.1c-1.4,3.9-1,7.7,1.3,11.2c1.8,2.8,4.3,4.9,7,6.8c4.3,3,9,5.2,13.9,7.3
		c7.1,3,14.2,5.7,21,9.4c4.8,2.6,9.5,5.5,13.8,8.9c8.6,6.7,14,15.4,16.1,26.1c1.9,9.7,1.7,19.4-1.3,28.8
		c-3.9,12.3-11.6,21.6-22.5,28.3c-8.6,5.3-18.1,8.3-28,9.8c-9.5,1.4-19.1,1.2-28.6,0.6c-7.3-0.4-14.7-1.1-22-1.7
		c-1.5-0.1-2.3-0.6-2.8-2.1c-5.5-15.9-11-31.8-16.6-47.7C268.1,294.5,267.9,294.1,267.8,293.5z"/>
	<path fill="#1867B3" d="M133.8,167.9c-0.3,2.1-1,3.8-1.5,5.5c-3.1,10.2-6.3,20.4-9.5,30.6c-0.7,2.2-0.7,2.2-3,2.2
		c-22.6,0-45.3,0-67.9,0c-3.4,0-3-0.3-3,3c0,9.2,0,18.5,0,27.7c0,0.6,0,1.1,0,1.7c0,0.7,0.3,1,1,1c0.7,0,1.3,0,2,0
		c18.5,0,37,0,55.4,0c0.9,0,1.8,0,2.7,0c0.1,1.3-0.4,2.3-0.7,3.2c-3.4,11-6.8,22-10.2,33c-0.7,2.1-0.7,2.1-2.8,2.1
		c-14.5,0-28.9,0-43.4,0c-0.5,0-1,0-1.5,0c-2.4,0-2.4,0-2.4,2.4c0,20.2,0,40.4,0,60.6c0,0.7,0,1.3,0,2c0.1,0.9-0.4,1.4-1.3,1.3
		c-0.5,0-1,0-1.5,0c-13.8,0-27.6,0-41.4,0c-0.3,0-0.7,0-1,0c-1.8-0.1-1.8-0.1-1.9-1.9c0-0.4,0-0.8,0-1.2c0-56.7,0-113.5,0-170.2
		c0-3.3-0.5-3,3-3c42.1,0,84.2,0,126.3,0C131.9,167.9,132.7,167.9,133.8,167.9z"/>
	<path fill="#1867B3" d="M375.1,168.1c0.8-0.4,1.6-0.2,2.4-0.2c43.3,0,86.5,0,129.8,0c0.2,0,0.5,0,0.7,0c2.1,0,2.1,0,2.1,2.2
		c0,12.5,0,25,0,37.5c0,0.4,0,0.8,0,1.2c0,0.7-0.4,1-1.1,1c-0.7,0-1.3,0-2,0c-14.1,0-28.1,0-42.2,0c-3.3,0-3.2-0.6-3.2,3.1
		c0,42.7,0,85.4,0,128c0,3.9,0.5,3.3-3.4,3.3c-13.7,0-27.3,0-41,0c-0.2,0-0.5,0-0.7,0c-3,0-2.6,0.1-2.6-2.6c0-42.8,0-85.7,0-128.5
		c0-3.9,0.5-3.3-3.4-3.3c-7.5,0-15,0-22.6,0c-2.2,0-2.2,0-2.8-2.1c-3.3-12.6-6.6-25.3-9.9-37.9C375.2,169.3,374.9,168.7,375.1,168.1
		z"/>
</g>
</svg>
