<?xml version="1.0" encoding="utf-8"?>
<!-- Generator: Adobe Illustrator 17.1.0, SVG Export Plug-In . SVG Version: 6.00 Build 0)  -->
<!DOCTYPE svg PUBLIC "-//W3C//DTD SVG 1.1//EN" "http://www.w3.org/Graphics/SVG/1.1/DTD/svg11.dtd">
<svg version="1.1" id="Layer_1" xmlns="http://www.w3.org/2000/svg" xmlns:xlink="http://www.w3.org/1999/xlink" x="0px" y="0px"
	 viewBox="0 0 512 512" enable-background="new 0 0 512 512" xml:space="preserve">
<g>
	<path fill="#E55C2C" d="M108.7,507.8c-6.6,0-10,0-13.4,0c-36.2,0.4-42.1-4.1-49.9-40.2c-12.7-59,11.1-103.9,55.6-140.2
		c44.5-36.3,96.8-58.9,148-83.5c41.1-19.8,82.7-38.9,119.1-67c37.1-28.7,61.4-64.1,57.4-113.8c-1.7-20.9-10.8-39-22.3-58.9
		c14.4,0,26.4,0.3,38.5-0.1c8.4-0.3,10.6,5.9,13.6,11.5c25.2,47,17.6,102.7-19.6,145.2c-29.6,33.8-67.9,55.2-106.9,75.5
		c-50.3,26.2-103.2,47.4-152,76.6c-21.7,13-42,27.7-59.1,46.5c-36,39.4-41.9,89.9-15.9,136.3C103.4,498.7,105.1,501.6,108.7,507.8z"
		/>
	<path fill="#E55C2C" d="M227,226.9c-18.7,17.6-35.9,15.9-56,3.7c-33.6-20.4-68.2-39-94.4-69.1c-34.9-40-43.7-85-25.2-135.5
		C57.5,9.4,66.3,0.7,84.9,4c6.7,1.2,13.8,0.2,21.7,0.2c-1.1,10.4-8.1,16.5-11.5,24.3c-19,43.7-9.1,92.2,26.9,129.1
		c25.3,25.9,56.4,43.4,87.9,60.3C215.5,220.9,221.2,223.9,227,226.9z"/>
	<path fill="#E55C2C" d="M403.6,507.9c46.5-77.8,12.4-136.3-36.1-173.1c-25.7-19.5-54-34.7-83.3-49.7c17.8-14.3,33.7-17.1,54-4.9
		C378,304,419,325.7,446.3,364.9c26.3,37.8,30.5,78.6,14.1,121.8c-5.8,15.3-14.2,24.5-32.1,21.4
		C420.9,506.8,413.2,507.9,403.6,507.9z"/>
	<path fill="#E55C2C" d="M337.9,116.5c-40.5-0.2-80.2,8.2-120.3,12.7c-25.1,2.8-50.2,2.1-75.4,1.7c-20.2-0.3-27-12.8-31.8-28.7
		c-1.5-5.1-2.3-9.9,5.6-8c61.7,14.7,122.1-1.1,183-7.2c29.2-2.9,58.4-4.3,87.3,1.9c5.7,1.2,17.3-1.3,14.3,9.8
		c-2.6,9.6-4.9,23.4-20.9,20.6C365.9,116.8,351.9,116.6,337.9,116.5z"/>
	<path fill="#E55C2C" d="M124.1,392c63.8,9.8,119.5-3.7,175.7-9.5c26.2-2.7,52.4-3.8,78.6,0.5c9.9,1.6,24.2,21.2,23.1,30.8
		c-0.6,5.1-3.5,4.8-7.4,3.9c-58.6-14.1-116.1,0.5-173.9,6.7c-32,3.4-64.1,5.3-95.9-1.4c-5.4-1.1-16.3,0.9-13.4-8.6
		C113.6,405.3,115,391.4,124.1,392z"/>
	<path fill="#E55C2C" d="M173,64.7c-17.7,0.4-35-2.2-52.3-5.6c-6-1.2-12.1-2.4-8.7-11c2.6-6.5,2.1-16.7,13.5-14.5
		c60.1,11.2,118.7-3.9,177.8-9.7c25.7-2.5,51.2-1.9,76.9,0.7c16.7,1.7,17.1,13.4,20,24c1.9,6.8-3.8,5.8-7.7,4.9
		C330.3,40,269.4,56.5,207.9,62C196.3,63.1,184.7,63.8,173,64.7z"/>
	<path fill="#E55C2C" d="M112.3,457.3c68.1,17.1,134.5-3,201.7-8.1c25.8-2,51.4-1.4,76.7,4.1c5.5,1.2,13.1,1.4,9.2,10.3
		c-2.7,6.1-1.3,17.3-13,15.1c-60.7-11.4-119.8,4.1-179.5,9.9c-22.8,2.2-45.5,1.5-68.3,0.3C119.6,487.8,111,478.2,112.3,457.3z"/>
	<path fill="#E55C2C" d="M165.7,168.7c64-0.5,123.2-18.1,189.2-17.3c-15.4,14.7-29,25.4-45.9,28.4c-28.8,5.1-58.3,6.2-86.9,11.9
		C198.8,196.3,182.8,187.7,165.7,168.7z"/>
	<path fill="#E55C2C" d="M160.6,359.7c18.3-18.5,35.1-28.7,58.1-29.6c23.2-0.9,46.5-4.6,69.4-9.4c24.1-5,41.8,3.5,58.8,23.2
		C284.4,343.2,225.3,360.5,160.6,359.7z"/>
</g>
</svg>
