<svg id="Layer_1" data-name="Layer 1" xmlns="http://www.w3.org/2000/svg" viewBox="0 0 528.48 591.84"><title>Artboard 1</title><path d="M271.65,390.66c-.48,1.33-1.8,1.77-2.79,2.5q-31.55,23.4-63.15,46.7L157.5,475.45q-7,5.21-14.12,10.36c-.48.34-.91,1.22-1.76.57q11.16-36.44,22.31-72.89c.89-2.94,2.17-5.78,2.42-8.9l0,0c.51,0,.37-.28.23-.56l.51-.15c1.23.29,2.09-.45,3-1.1,3.95-2.9,7.89-5.83,11.85-8.73,5.44-4,10.89-7.94,16.31-11.93,4.69-3.45,9.34-6.94,14-10.41q8.09-6,16.2-12c.93-.69,1.74-1.58,3-1.77.6.41,1.22.79,1.78,1.24q13,10.5,25.9,21C263.27,383.65,267.45,387.17,271.65,390.66Z"/><path d="M150.41,302.62c-5.84-4.12-11.56-8.4-17.42-12.5-7.46-5.2-14.64-10.79-22-16.15-14.74-10.73-29.52-21.4-44.27-32.14Q46.58,227.18,26.5,212.41c-1.31-1-2.84-1.67-3.87-3,3.81-.32,7.62-.52,11.44-.71,7-.34,14-1,21-1.41,7.17-.45,14.35-.84,21.52-1.24,7-.39,14-.74,21-1.17,1.2-.07,2.53,0,3.53-.92.44,0,.92-.17,1.27.26-.85.78-.28,1.17.39,1.65,4.66,3.32,9.29,6.68,14,10,5.48,3.91,11,7.79,16.46,11.71s10.77,7.74,16.16,11.6,10.64,7.59,16,11.39q-5,17.55-10,35.1C153.68,291.32,152,297,150.41,302.62Z"/><path d="M403.22,484.29c-.86.27-1.29-.47-1.81-.84Q357.58,451.76,313.78,420L280.52,396c-2.51-1.81-5.08-3.54-7.41-5.57a2.89,2.89,0,0,1,.48-.64q20.16-15.21,40.33-30.39a3.86,3.86,0,0,1,1-.39,5.86,5.86,0,0,1,2.58,1.45q9.45,6.87,18.87,13.76c9.79,7.15,19.62,14.26,29.38,21.47,3.54,2.62,7.27,5,10.55,8,.79.71.4-.68.86-.73l.66.51c-.78.94-.29,1.87,0,2.82,3.18,9.86,6.32,19.74,9.52,29.6,1.9,5.88,3.91,11.73,5.83,17.61Q398.23,468.85,403.22,484.29Z"/><path d="M520.4,209.37a8,8,0,0,1-2.49,2.06q-60.37,43.81-120.76,87.62c-.81.59-1.58,1.22-2.37,1.83a1.41,1.41,0,0,0-.46,0q-7.38-22-14.77-44.06c-.66-2-1-4.06-2.2-5.84a10.36,10.36,0,0,1,1-.91q12.39-9,24.8-18,19.14-13.85,38.31-27.64c.38.05.59-.19.79-.47,3.16.36,6.35.38,9.5.68,2.72.25,5.45.21,8.15.51,6.68.73,13.38,1,20.08,1.47,3.8.25,7.61.54,11.41.78,2.81.17,5.64.18,8.43.49C506.64,208.61,513.54,208.79,520.4,209.37Z"/><path d="M394.32,300.87a1.41,1.41,0,0,1,.46,0,22.22,22.22,0,0,0,1.47,5.26q13.28,40.29,26.59,80.57,7,21.18,13.94,42.38,3.93,12,7.85,23.92a10.08,10.08,0,0,1,.26,1.33c-4.28-3.24-8.58-6.46-12.85-9.72-14-10.68-27.94-21.42-42-32.06-4.06-3.08-8-6.38-12.26-9.16-.22-.17-.44-.34-.65-.52a3.75,3.75,0,0,0-.42-2.11c-1.56-5.23-3.52-10.32-5.07-15.56-1.36-4.62-3-9.16-4.61-13.7-2.58-7.29-4.91-14.66-7.3-22-2.34-7.17-4.73-14.32-7.09-21.48,2.85-1.78,5.73-3.53,8.56-5.37q14.68-9.52,29.33-19.12C391.86,302.69,393.32,302.1,394.32,300.87Z"/><path d="M299.62,11.57c1.39-.15,1.27,1,1.53,1.8q2.89,8.84,5.75,17.69Q315.6,58,324.3,84.93c6.43,20,12.8,39.93,19.26,59.87,1.4,4.33,3.06,8.57,4.08,13h-50.8c-1.7-3.05-2.27-6.49-3.35-9.75-3.83-11.55-7.33-23.21-11.15-34.77-3.1-9.4-6.18-18.81-9.09-28.27a13.12,13.12,0,0,0-1.53-3.42c0-.17-.06-.35-.1-.52,2.86-6.89,5.75-13.76,8.57-20.66,5.54-13.55,11.09-27.11,16.55-40.69C297.81,17.07,299.38,14.55,299.62,11.57Z"/><path d="M167.05,403.91l-.51.15-.23.56,0,0a2,2,0,0,0-1.45.63q-2.88,2.31-5.78,4.59-12.69,9.93-25.38,19.87c-7.74,6.07-15.42,12.22-23.23,18.19-3.16,2.43-6.08,5.22-9.62,7.14,1.2-4.87,3-9.56,4.56-14.31Q127.7,373.28,150,305.89a5.17,5.17,0,0,1,.92-2.25,5.77,5.77,0,0,1,2.49,1.06c6.59,3.87,13.15,7.77,19.74,11.63,6.28,3.68,12.58,7.31,18.87,11a5.53,5.53,0,0,1-.66,2.61q-4.55,14-9.13,28c-1.65,5-3.38,10-5,15Q172.11,388.37,167.05,403.91Z"/><path d="M271.62,81.1c0,.17.07.35.1.52-1.4.1-1.36,1.33-1.64,2.21-2.33,7.38-4.5,14.8-6.95,22.13s-4.69,14.69-7.14,22c-3.45,10.26-6.47,20.66-9.68,31-4.44-.16-8.88-.42-13.33-.46-11.82-.13-23.65-.17-35.48-.24.71-2.44,1.38-4.9,2.14-7.33Q207,127.46,214.47,104q9.45-30,18.89-60,4.56-14.47,9.15-28.94c.29-.91.25-2,1.27-2.59.59.39.68,1.06.9,1.63q8,20.6,16,41.2c3.1,8,6.19,15.94,9.33,23.89C270.34,79.94,270.29,81.14,271.62,81.1Z"/><path d="M102.33,204.22c-.35-.43-.83-.25-1.26-.26a3,3,0,0,1-1.65-.89q-12.56-9.44-25.11-18.83Q57.57,171.76,40.8,159.35a97,97,0,0,1,10.92-.23q70.34-.19,140.69-.32c1.18,0,2.36.09,3.54.14a7.92,7.92,0,0,1-.14,1.09c-3.11,11.22-6.26,22.44-9.32,33.68-1,3.68-2.44,7.26-2.72,11.11-1,0-2,.11-3,.1-13.39-.18-26.78-.43-40.17-.53-11.76-.08-23.52,0-35.28,0A10,10,0,0,1,102.33,204.22Z"/><path d="M442.22,203.91c-.2.28-.41.52-.79.47-.46-.6-1.12-.51-1.75-.52-7.84-.09-15.68.11-23.52-.35-4.71-.27-9.46.07-14.19.26-11.86.46-23.73.31-35.59.08a5.29,5.29,0,0,0-.17-.81q-9-22.29-18-44.58c2.46-.17,4.91-.48,7.36-.48q73-.1,146.08-.13c.82,0,1.64.06,2.46.09-5.26,4.21-10.79,8-16.22,12-12.77,9.36-25.59,18.66-38.32,28.08C447.09,199.9,444.26,201.43,442.22,203.91Z"/><path d="M314.92,359a3.86,3.86,0,0,0-1,.39q-20.18,15.18-40.33,30.39a2.89,2.89,0,0,0-.48.64l-1.47.27c-4.19-3.49-8.37-7-12.6-10.46q-12.93-10.54-25.9-21c-.56-.45-1.18-.83-1.78-1.24.07-.6.48-.86.95-1.2,5.69-4.17,11.35-8.39,17-12.59,7.06-5.23,14.14-10.41,21.16-15.68a2.17,2.17,0,0,1,3.09,0c3.39,2.56,6.85,5,10.28,7.54,8.33,6.06,16.69,12.09,25,18.22C310.9,355.7,313.29,356.86,314.92,359Z"/><path d="M192,327.29c-6.29-3.65-12.59-7.28-18.87-11-6.59-3.86-13.15-7.76-19.74-11.63a5.77,5.77,0,0,0-2.49-1.06c-.17-.34-.35-.68-.53-1,1.63-5.65,3.27-11.3,4.88-16.95q5-17.55,10-35.1c4.88,3.13,9.46,6.68,14.16,10.07q12.42,8.92,24.89,17.79c3,2.12,3,2.12,1.88,5.75-.29.95-.47,1.93-.78,2.88q-3.56,10.83-7.15,21.67Q195.16,318,192,327.29Z"/><path d="M348.25,158.46q9,22.29,18,44.58a5.29,5.29,0,0,1,.17.81c-3.08.31-6.19.27-9.27.39-7.94.31-15.89.24-23.83.25-6.67,0-13.33-.39-20,0-1.45.1-1.89-.59-2.24-1.77-1.3-4.35-2.62-8.69-4-13-2.41-7.44-4.91-14.85-7.31-22.29-1-3.19-1.93-6.43-2.89-9.65h50.8C347.77,158.1,347.91,158.38,348.25,158.46Z"/><path d="M183.77,204.82c.28-3.85,1.71-7.43,2.72-11.11,3.06-11.24,6.21-22.46,9.32-33.68a7.92,7.92,0,0,0,.14-1.09c.54-.18,1.15-.19,1.55-.68,11.83.07,23.66.11,35.48.24,4.45,0,8.89.3,13.33.46-1,3.28-2,6.56-3,9.83-1.84,5.78-3.76,11.54-5.58,17.32s-3.48,11.29-5.17,16.95a2.23,2.23,0,0,1-2.54,1.81c-5.19-.07-10.39,0-15.59,0Z"/><path d="M377.82,403.4c4.29,2.78,8.2,6.08,12.26,9.16,14,10.64,28,21.38,42,32.06,4.27,3.26,8.57,6.48,12.85,9.72.48,1.34-.83,1.41-1.43,1.84-5.62,4-11.29,8-16.94,12q-10.49,7.38-21,14.77a5.72,5.72,0,0,1-2.33,1.36q-5-15.44-10-30.86c-1.92-5.88-3.93-11.73-5.83-17.61-3.2-9.86-6.34-19.74-9.52-29.6C377.53,405.27,377,404.34,377.82,403.4Z"/><path d="M100.89,455c3.54-1.92,6.46-4.71,9.62-7.14,7.81-6,15.49-12.12,23.23-18.19q12.67-9.94,25.38-19.87,2.9-2.28,5.78-4.59a2,2,0,0,1,1.45-.63c-.25,3.12-1.53,6-2.42,8.9q-11.1,36.47-22.31,72.89a3.87,3.87,0,0,1-1.62-1q-18.8-14.13-37.57-28.3C101.78,456.61,100.34,456.47,100.89,455Z"/><path d="M442.22,203.91c2-2.48,4.87-4,7.39-5.87,12.73-9.42,25.55-18.72,38.32-28.08,5.43-4,11-7.81,16.22-12,2.05-.64,2.18.94,2.55,2.23q5,17.15,9.95,34.31c1.19,4.1,2.39,8.2,3.56,12.31.24.83.83,1.67.19,2.58-6.86-.58-13.76-.76-20.61-1.53-2.79-.31-5.62-.32-8.43-.49-3.8-.24-7.61-.53-11.41-.78-6.7-.45-13.4-.74-20.08-1.47-2.7-.3-5.43-.26-8.15-.51C448.57,204.29,445.38,204.27,442.22,203.91Z"/><path d="M271.62,81.1c-1.33,0-1.28-1.16-1.58-1.91-3.14-8-6.23-15.92-9.33-23.89q-8-20.61-16-41.2c-.22-.57-.31-1.24-.9-1.63,0-.43-.18-1,.45-1.06a9.88,9.88,0,0,1,1.63-.07l52.94.15a7.34,7.34,0,0,1,.82.08c-.24,3-1.81,5.5-2.88,8.18-5.46,13.58-11,27.14-16.55,40.69C277.37,67.34,274.48,74.21,271.62,81.1Z"/><path d="M40.8,159.35q16.76,12.43,33.51,24.89,12.59,9.38,25.11,18.83a3,3,0,0,0,1.65.89c-1,.95-2.34.85-3.54.92-7,.43-14,.78-21,1.17-7.17.4-14.35.79-21.52,1.24-7,.44-14,1.07-21,1.41-3.82.19-7.63.39-11.44.71-1.14-.94-.12-1.86.16-2.65,2.77-8,5.62-15.94,8.45-23.91Q35.11,171.93,39,161C39.29,160.19,39.18,158.78,40.8,159.35Z"/><path d="M106.82,565a6.39,6.39,0,0,0,1.25-3.06c2.63-9.59,5.18-19.19,7.85-28.77.8-2.89,0-2.55,3.44-2.55a30.55,30.55,0,0,1,5.92.19c-1.2,4.2-2.37,8.31-3.56,12.41-3.24,11.12-6.46,22.25-9.74,33.35-.8,2.73-.1,2.49-3.27,2.46-1.89,0-4.23.79-5.55-.44-1.15-1.08-1.26-3.32-1.79-5.05q-4.28-14-8.54-28c-.26-.84-.56-1.67-1-2.83a6.79,6.79,0,0,0-1.25,2.89Q85.92,561,81.24,576.47c-.77,2.54-.78,2.6-3.26,2.54-1.8,0-3.93.73-5.32-.35s-1.22-3.15-1.71-4.81q-6-20.05-11.86-40.14a8.66,8.66,0,0,1-.66-3c2.57-.32,5.13,0,7.66-.17,1.35-.09,1.72.62,2,1.69Q70,539.81,72,547.35q2.15,8.21,4.31,16.41c.08.31.19.62.32,1,1-.79,1-1.88,1.32-2.79q4.56-14.47,9-29c.76-2.43.77-2.43,3.37-2.44h3c2.93,0,2.94,0,3.74,2.66L105,559.15C105.55,561,106.14,562.8,106.82,565Z"/><path d="M52.43,535.47c-1.8,1.84-3.57,3.55-5.22,5.36-.84.91-1.41.66-2.26,0a18.37,18.37,0,0,0-15-3.36c-7.63,1.38-12.81,8-13.09,16.39a19,19,0,0,0,2.48,10.51,15.34,15.34,0,0,0,13.45,8,25.09,25.09,0,0,0,10.46-1.64,2.3,2.3,0,0,0,1.7-2.44c-.08-2.73-.06-5.48,0-8.21,0-1.18-.39-1.61-1.58-1.58-2.28.06-4.56,0-6.84,0-1.19,0-1.64-.42-1.6-1.59.06-1.73,0-3.47,0-5.2,0-.93.41-1.3,1.32-1.29,5.3,0,10.59,0,15.89,0,1.15,0,1.35.57,1.35,1.52,0,7.4,0,14.79,0,22.19a2,2,0,0,1-1.33,2.09c-8.56,3.93-17.43,5.46-26.65,3.09A23.7,23.7,0,0,1,7.88,557.7,29.83,29.83,0,0,1,9.46,545c3.25-8.59,9.51-13.63,18.43-15.37a34.41,34.41,0,0,1,16.25,1A18.24,18.24,0,0,1,52.43,535.47Z"/><path d="M170.17,536.75a4.32,4.32,0,0,1-.59.7c-1.32,1-2.66,1.93-4,2.93a5.23,5.23,0,0,1-.87-.67c-4.59-5.55-14.29-7.21-21.88-1.61-10,7.38-10.88,23.74-1.75,32.15a17.93,17.93,0,0,0,24.77-.46c.45-.45.81-1,1.22-1.48,1.49.66,2.35,1.79,3.46,2.55s.8,1.4.08,2.22a20.6,20.6,0,0,1-11.07,6.65c-13.77,3.34-26.94-4.57-30.21-18.32a27.14,27.14,0,0,1,2.47-19.66C138,530,152.54,526,164.17,531.69A16.11,16.11,0,0,1,170.17,536.75Z"/><path d="M326.2,568.42c.39.31.83.62,1.25,1,3.2,2.64,3.22,2.67,0,5.54-5,4.52-11,6-17.53,5.4-13.27-1.27-22.22-11.11-22.63-24.47a27.29,27.29,0,0,1,3-13.75c6.27-12,20.82-16.09,32.5-10.47a15.59,15.59,0,0,1,6.13,5.19,32.7,32.7,0,0,1-4.07,3.16c-.88.7-1.29-.11-1.76-.62a14.15,14.15,0,0,0-7.76-4.32c-6.46-1.29-11.93.68-16.37,5.39-6.94,7.33-7.37,19.83-1.1,27.74a17.94,17.94,0,0,0,26.63,1.68C325,569.36,325.36,568.67,326.2,568.42Z"/><path d="M215.47,574.82c-2.4,2.82-5.07,4.57-8.51,5a14.94,14.94,0,0,1-8.52-1.36,9.26,9.26,0,0,1-1.51-15.84c3.2-2.42,7-3,10.83-3.33,2.09-.16,4.2-.18,6.3-.15,1.25,0,1.56-.51,1.47-1.65a6.14,6.14,0,0,0-4.81-5.93,14.06,14.06,0,0,0-11,1.79c-1.81,1.07-1.8,1.11-3.28-.41-.51-.53-1-1.07-1.57-1.69a10.72,10.72,0,0,1,5-3.57,20.52,20.52,0,0,1,12.62-.95c4.59,1.06,7.39,4.26,8.06,9.24a39.86,39.86,0,0,1,.29,4.64c.13,5.65-.25,11.32.31,17,.13,1.29-.39,1.54-1.51,1.52-4.13-.09-3.49.43-3.82-3.39A5.66,5.66,0,0,0,215.47,574.82Zm-4.26-11.14v0c-.82,0-1.64-.05-2.46,0a18.22,18.22,0,0,0-6.63,1.4,4.81,4.81,0,0,0-3.06,5.24,4.44,4.44,0,0,0,3.51,4.32c5.4,1.59,11.76-.13,12.88-7.84.43-2.94.27-3.13-2.6-3.15Z"/><path d="M369.75,562.9c0,9.93-7.08,17-17.1,17s-17-7-17.08-16.78c-.05-9.92,7.11-17.06,17.09-17S369.71,553.16,369.75,562.9Zm-28.49.18c0,6.87,4.77,11.87,11.31,11.9s11.52-5,11.5-12-4.78-11.85-11.33-11.9S341.24,556.1,341.26,563.08Z"/><path d="M400.77,574.61a12.32,12.32,0,0,1-8.61,5.16c-5.79.74-13.05-1.51-13.72-10.55-.52-6.92-.1-13.86-.2-20.8,0-1.07.43-1.49,1.46-1.39H380c4.35.06,3.5-.43,3.54,3.36.05,4.93,0,9.85,0,14.78,0,.73,0,1.46,0,2.19.36,4.33,2.17,6.72,5.59,7.44a9.1,9.1,0,0,0,9.89-4.2,16,16,0,0,0,1.81-7.91c0-4.47,0-8.94,0-13.41,0-2.22,0-2.22,2.2-2.25a10.29,10.29,0,0,0,1.36,0c1.29-.14,1.79.34,1.76,1.69-.08,3-.05,6,0,9,0,6.47-.2,13,.26,19.42.1,1.4-.32,2.08-1.79,1.88a5,5,0,0,0-.55,0c-2.58,0-2.56,0-2.75-2.57C401.3,575.88,401.53,575.18,400.77,574.61Z"/><path d="M421.61,551.59a12.72,12.72,0,0,1,8-5.18c7.92-1.5,14.07,2.83,14.52,10.81.39,6.83.11,13.7.16,20.56,0,1-.41,1.32-1.31,1.26h-.55c-4.33,0-3.51.33-3.55-3.4,0-4.76,0-9.51,0-14.26,0-.73,0-1.46,0-2.19-.12-4.39-1.81-7-5.09-7.8a9.06,9.06,0,0,0-10.37,4.19,14.24,14.24,0,0,0-1.67,7.12c0,4.75,0,9.5,0,14.25,0,2,0,2.09-2.13,2.09-3.88,0-3.22.29-3.27-3.13-.1-9,.24-18.1-.23-27.14-.07-1.29.25-1.93,1.63-1.75a7.93,7.93,0,0,0,1.09,0c2.7,0,2.34,0,2.4,2.39A3.63,3.63,0,0,0,421.61,551.59Z"/><path d="M276.36,554.87c-2.51-3.35-5.62-4.49-9.5-3.34a5.43,5.43,0,0,0-2.75,1.7,3.06,3.06,0,0,0,.59,4.75,12.38,12.38,0,0,0,4.55,1.79,49.76,49.76,0,0,1,6.36,1.61c4.07,1.53,6,4.12,6.19,8.12a8.86,8.86,0,0,1-5.58,8.92,18.36,18.36,0,0,1-14.38.16,9.47,9.47,0,0,1-2.76-1.74c-2.9-2.49-2.85-2.76.19-5.11,1.05-.81,1.68-.91,2.67.16,2.72,3,6.17,3.66,10,2.65a6.42,6.42,0,0,0,2.42-1.21,4,4,0,0,0-.32-6.71,11.19,11.19,0,0,0-3.55-1.37c-2.2-.56-4.45-1-6.6-1.74-3.33-1.13-5.73-3.2-6-7a8.4,8.4,0,0,1,5-8.66,14.82,14.82,0,0,1,12.71-.55,10.46,10.46,0,0,1,2.57,1.53c2.92,2.33,2.88,3-.18,5Z"/><path d="M231.31,570.74c.84.79,1.47,1.45,2.17,2,3.05,2.53,6.46,2.77,10,1.45a4.35,4.35,0,0,0,3.16-4.07c.07-2.12-1.24-3.4-3.06-4.09a38.05,38.05,0,0,0-4.73-1.32,27.06,27.06,0,0,1-5.73-1.8A8.18,8.18,0,0,1,230.65,550c4.29-4.78,14.14-5.15,18.75-.7a20.28,20.28,0,0,1,1.4,1.67c.5.6.51,1.11-.21,1.57-1.14.73-2.27,1.49-3.34,2.19-.85-.33-1.15-1.06-1.69-1.55a8.11,8.11,0,0,0-9.17-1.21,4,4,0,0,0-2.48,3.64c0,1.57,1.23,2.36,2.5,3a22,22,0,0,0,5.5,1.62,24.69,24.69,0,0,1,5,1.41c3.17,1.35,5.23,3.58,5.5,7.18.29,3.89-1,7-4.41,9.06a15.73,15.73,0,0,1-8.41,2c-4.32,0-8.35-1-11.3-4.53-1.12-1.36-1.14-1.37.29-2.53C229.42,572.16,230.3,571.51,231.31,570.74Z"/><path d="M477.4,571.11c.8.74,1.48,1.34,2.14,2,1.94,1.86,2,1.95-.29,3.58-5.46,3.89-11.4,4.3-17.42,1.71s-8.78-7.77-9.23-14.13C452,556,456.44,549.31,463.71,547a17.86,17.86,0,0,1,13.09.8,10.11,10.11,0,0,1,4.56,3.54l-3.86,3.44c-1.05-.32-1.53-1.16-2.26-1.7-4.94-3.71-12.61-2.13-15.35,3.34a13.61,13.61,0,0,0,0,12.91,10.35,10.35,0,0,0,16.49,2.72Z"/><path d="M509.47,578.83c-5.24.66-5.24.66-5.24-4.29v-44.1c0-.64,0-1.28,0-1.92-.07-1,.43-1.29,1.32-1.24a18.85,18.85,0,0,1,3.93.19Z"/><path d="M184.32,578.83c-5.23.65-5.23.65-5.23-4.3q0-22.32,0-44.65c0-2.69-.49-2.6,2.67-2.6h2.55Z"/><path d="M492.9,547.19c.33,2.31.33,29.33,0,31.65-5.12.64-5.12.64-5.12-4.31V549.35c0-2.27-.35-2.37,2.41-2.33A8.49,8.49,0,0,1,492.9,547.19Z"/><path d="M494.33,534.57a3.68,3.68,0,0,1-3.95,3.88,3.79,3.79,0,0,1-3.82-3.79,4,4,0,0,1,3.87-4.07A3.8,3.8,0,0,1,494.33,534.57Z"/><path d="M166.31,404.62l.23-.56C166.68,404.34,166.82,404.61,166.31,404.62Z"/><path d="M352.68,328c-2-4.58-3.28-9.43-4.95-14.14-2.45-6.92-4.7-13.92-7-20.89-1.26-3.79-2.39-7.63-3.75-11.38-.45-1.24.08-1.74.87-2.3,4.78-3.44,9.57-6.86,14.34-10.31q12.12-8.78,24.22-17.58a6,6,0,0,1,1-.45c1.17,1.78,1.54,3.87,2.2,5.84q7.43,22,14.77,44.06c-1,1.23-2.46,1.82-3.75,2.66q-14.65,9.57-29.33,19.12C358.41,324.49,355.53,326.24,352.68,328Z"/></svg>