<?xml version="1.0" encoding="utf-8"?>
<!-- Generator: Adobe Illustrator 22.0.0, SVG Export Plug-In . SVG Version: 6.00 Build 0)  -->
<svg version="1.1" id="Layer_1" xmlns="http://www.w3.org/2000/svg" xmlns:xlink="http://www.w3.org/1999/xlink" x="0px" y="0px"
	 viewBox="0 0 300 300" style="enable-background:new 0 0 300 300;" xml:space="preserve">
<style type="text/css">
	.st0{fill:url(#SVGID_1_);}
	.st1{fill:#BDDDEB;}
	.st2{fill:#8EC1D9;}
	.st3{fill:#5EA1C1;}
	.st4{fill:#0A43AD;}
	.st5{fill:#E0EEF6;}
	.st6{fill:#FEFEFE;}
</style>
<linearGradient id="SVGID_1_" gradientUnits="userSpaceOnUse" x1="0" y1="150" x2="300" y2="150" gradientTransform="matrix(1 0 0 -1 0 300)">
	<stop  offset="0" style="stop-color:#00E9B2"/>
	<stop  offset="1" style="stop-color:#55FF8A"/>
</linearGradient>
<rect class="st0" width="300" height="300"/>
<g>
	<path class="st1" d="M12.7,146.9c-0.9-1.9-1.6-3.8-0.9-6c4-12.5,8-25,12.1-37.4c0.2-0.6,1-0.9,1.5-1.4c0.5,2.7,0.5,6,4.1,1.9
		c2.6-2.9,5.3-5.9,8.3-8.4C53,82.7,70.4,74.1,89.7,69.5c-0.2,3.9-3.8,4.1-6.1,4.7c-10,2.5-19.3,6.6-28,12.1
		c-16,10.1-27.8,22.5-27.3,43.1c0.1,3.9,1.2,6.5,4,9.1c5.6,4.8,10.4,10.5,16.4,14.8c8.7,6.3,14.7,18.7,28.9,13.1
		c1-0.4,2.4-0.1,3.4,0.4c3.6,1.8,6.7,0.5,10-1c11.4-5.2,22.7-11.5,34.5-14.8c12.2-3.4,15.3-14.8,24.3-20.3c0.5-0.3,0.6-1.8,0.6-2.6
		c-0.3-3.3,1.6-5.3,4-6.9c3.1-2.1,4.5-5,3.1-8.4c-3.8-9.6,0.2-21.9-10.1-29.3c-1-0.7-1.1-2.5-1.6-3.8c0.2,0,0.5-0.2,0.7-0.1
		c14.7,7.4,30.7,39.5,17.4,56c-3.2,3.9-5.6,8.8-9.7,12.2c-0.2,0.2,0.1,0.9,0.1,1.3c-3.9,1.7-7.6,3.7-11.6,4.9
		c-20.9,6.4-40.9,14.8-59.5,26.3c-4.2,2.6-8.7,4.5-13.1,6.6c-2.9,1.4-3.2,4.1-3.1,6.5c0.1,2.8,2.4,1,3.8,1.1
		c2.4,0.2,4.2,1.4,4.2,3.8c0.1,4.2,2.8,3.6,5.3,3.3c13.8-1.3,26.5-7.5,39-12.3c14.8-5.7,29.5-12.7,44.2-19.3
		c5.2-2.3,5.7-9.3,11.8-10.3c0.2,0,0.5-2,0-2.4c-4.2-4.3-2.2-10.3-4.5-15.1c0.4-0.2,0.9-0.4,1.3-0.6c3,1.7,5.9,0.8,8.8-0.5
		c2.4,6,6.2,11.6,6.3,18.4c-4.5,1.2-1.7,5.1-2.7,7.6c-2.5,1-5,2-7.5,3.2c-3.1,1.4-3.9,3.6-1.9,6.5c-11.6,5-23.1,10-34.7,15.1
		c-5.2,2.3-10.5,3.8-16.1,1.6c-4.1-1.6-6.3,0.1-7,4.1c-0.4,2.4-0.8,4.5-3.4,5.6c-14,6-28,12.1-42,18.2c-1.4-4.6-2.7-9.2,3.4-12.3
		c-6,0.4-10.7,3.2-15.7,5.3c-0.8,0.3-1.7,0.6-2.5,0.9c-4.1-3.9-4.2-10.7-10.1-13.4c-0.8-0.4-1-2-1.5-3l0,0c3.3-1.4,1.5-5.9,4.4-7.4
		c2.6-1.4,9.6,2.6,6.4-5.6c-0.3-0.8,1.8-1.3,2.9-0.7c2.5,1.3,3.9-0.4,5.4-1.8c1.1-1,3.5-1.3,2.8-3.4c-0.9-2.8-3.1-1.1-4.7-0.8
		c-4.6,0.7-10.1,0.7-12.3-2.9c-3.2-5.2-8.3-8-12-12.3c-3-3.4-7.5-5.8-7-11.5c0.1-1.5-1.9-3.8-3.2-2.1c-4.4,5.7-6.5,1-8.7-1.7
		c-1.7-2-3.1-1.5-4.9-0.7C14.2,147.6,13.4,147.2,12.7,146.9z M128.4,188.5c9.2-2.6,17.6-7.2,26.9-9.4c-0.2-0.6-0.5-1.2-0.7-1.8
		C145.8,181.1,137.1,184.8,128.4,188.5z M113,195.8c-0.2-0.1-0.3-0.3-0.5-0.4c-5.8,2.5-11.5,4.9-17.3,7.4c0.1,0.2,0.2,0.4,0.3,0.6
		C101.3,200.8,107.1,198.3,113,195.8z"/>
	<path class="st3" d="M75.6,310.6c0-0.3-0.2-0.6-0.5-0.7c-4.2-9.1-8.3-18.2-8.3-28.4c3.2-1.5,6.4-3.1,9.6-4.6
		c1.2-0.4,2.5-0.8,3.7-1.3c-0.5,3.8-0.7,7.3,4.3,8.4c0.8,0.2,1.2,1.8,1.8,2.8c-2.8,1.4-5.7,2.7-8.5,4.1c-5.4,1.3-2.8,4.4-1.9,7.4
		c1.6,5.3,5,3.3,8.2,2.2c0.2,0.3,0.5,0.7,0.7,1c0.4,7.8,5.2,4.7,9.2,3.8c1.1,0,2.1,0.1,3.2,0.1c0.2,2.5-4.1,5.2,0.4,7.4
		c-1.2,0.6-2.5,1.2-3.7,1.9c-10.4,1.3-11,2.5-6,11.7c0.6,1,0.9,2.1,1.4,3.2c4.2,8.8,10.9,15.9,19.2,20.4c4.4,2.4,5.8,3.8,3.8,8.1
		c-6.6-1.4-6.6,5.4-10.1,8c-0.5-0.9-1-1.8-1.6-2.7c0.2-1.5,0.4-3,0.6-4.4c2.2-3,0-3.6-2.3-4.2c-0.9-0.6-1.7-1.3-2.6-1.9
		c-9.1-9.5-14.4-21-17.4-33.6c0.1-0.3,0.1-0.6-0.1-0.8C83.4,313.2,79.5,311.9,75.6,310.6z"/>
	<path class="st3" d="M24.2,52.4c-0.2-0.5-0.4-1-0.6-1.4c3.4-3.6-2.2-5.3-1.8-8.3c2.7-0.5,3.2,2.4,5,3.2c1.7,0.8,3.2,1.4,5-0.4
		c10.8-10.7,24.1-16.2,38.8-19.1C75,25.5,81,25.9,81,18.6c2.1,1.5,1.2,5.5,4.7,6c0.3,0.5,0.6,1,1,1.6c-1.7,0.6-3.4,1.3-5.1,1.9
		c-3.9-3-6.7,2.7-10.3,1.3c0.5-0.5,1-1.1,1.5-1.6c-0.2-0.1-0.4-0.3-0.5-0.3c-1,0.1-1.3,0.8-1.3,1.8c-12.2,5-24.5,9.7-36.8,18.3
		c17.5-4.8,31-15.8,47.9-17.1c0.7,1.9,1.3,3.9,2,5.8c-1.5,1.3-0.9,3.2-1.5,4.9c-5.1-3.5-6.1,3-9.4,4.1c-9.3,3.1-17.7,8.8-27.9,9
		c-0.9,0.4-1.8,0.8-2.7,1.2c-0.4,0.1-0.8,0.2-1.2,0.3c-0.5-3.4-1.1-6.3-5.7-3.6c-1.6,0.9-3.9,0.6-5.9,0.9c-0.3-0.3-0.6-0.6-0.7-1
		c-0.5-0.7-1.1-0.8-1.9-0.5C25.9,51.9,25.1,52.1,24.2,52.4z"/>
	<path class="st2" d="M154.4,149c-0.1-0.5-0.3-1.2-0.1-1.3c4.2-3.4,6.6-8.3,9.7-12.2c13.3-16.5-2.6-48.6-17.4-56
		c-0.2-0.1-0.5,0.1-0.7,0.1c-0.2-0.4-0.4-0.7-0.6-1.1c-0.6-1.7-1.9-2.2-3.5-1.8c-9.1-7.3-19.1-11.3-31-8c-0.9-1.6-2.1-2.1-3.8-1.2
		c-0.8-0.4-1.7-0.8-2.5-1.2c4.3-2.7,9.1-1.2,13.7-1.7c3.5-0.4,4.1-1.5,2.5-4.3c12.5,5.4,25.5,9.7,36.7,17.7c2,1.5,4.3,2.8,5.3,5.3
		c-1.5,3.1,1,4.5,2.6,6.5c6,7.7,9.7,16.1,11.1,26.1c0.8,5.6-1.9,13.3,6,16.7c-3.1,3.2-10.2,2.1-9.9,9c-0.4,0.2-0.9,0.4-1.3,0.6
		C164.7,142.2,160.4,147.7,154.4,149z"/>
	<path class="st1" d="M45,54.2c10.2-0.2,18.7-5.9,27.9-9c3.3-1.1,4.3-7.6,9.4-4.1c2.1,2.9,0.1,5-2.2,6.8c4.6,1.7,8.6,2.2,12.6,0.9
		c4.6-0.8,8.3,1.1,11.4,4.4c0.2,0.5,0.3,1,0.5,1.5c-24.3,9.8-48.4,20-71.7,32.1c-0.4-0.9-0.8-1.7-1.2-2.6c-0.1-0.4-0.3-0.8-0.4-1.2
		c2.1-1,4.3-2,6.4-2.9c1.3-0.5,2.5-1,3.8-1.5l0.7-0.2l0.6-0.3C54.1,70.3,66.4,64.5,79,59.5c1-0.4,1.9-1.3,2.5-2.2
		c0.8-1.1,1.6-2.6,0.6-3.8c-1.1-1.3-2.5-0.1-3.8,0.2c-4-4.9-7.1-2-10.2,1.2C64,57,58.9,56.5,55,59.4c-4.8,0.5-7.4,5.3-11.9,6.3
		c-3.7-0.4-5.3-3.2-6.9-6c1.4-1.7,2.9-3.3,5-4c0.4-0.1,0.8-0.2,1.2-0.3c0.6,0.9,1.3,2.1,2.5,1.2C45.2,56.3,44.9,55.1,45,54.2z"/>
	<path class="st3" d="M12.7,146.9c0.7,0.3,1.5,0.7,2.2,1c1.5,9.1,5.2,17.7,11.7,23.7c8.6,7.9,13.6,17.6,19.2,27.3c0,0,0,0,0,0
		c-1.3,0.6-2.6,1.1-3.7,1.9c-6.4,4.6-6.4,4.7,0.3,8.9c1.8,1.1,3,2,2.3,4.3c-0.9,2.8,0.9,4.9,1.8,7.3c-1.3,0.6-2.5,1.3-3.8,1.9
		c-3.4-0.6-2-3.5-2.7-5.5c-1-3-1.6-6.7-6.3-4.4c-0.7-1.2-1.4-2.4-2.1-3.6c-0.1-1-0.2-2-0.3-3c1-3.6,4.3-8.2-3.4-8.1c0,0,0,0,0,0
		c-4.2-3.4-4.2-9.6-8.5-12.9c-0.5-1.2-1.1-2.5-1.6-3.7c-3.1-10.1-4.1-20.7-6.1-31.1C11.8,149.6,12.3,148.3,12.7,146.9z"/>
	<path class="st3" d="M33,86.8c23.3-12.1,47.4-22.4,71.7-32.1c1.1,0.5,2.1,0.6,3.1,0c0,0,0.1,0,0.1,0c3.5,3.8,8.5,3.6,12.8,5.1
		c0,0,0,0.3,0,0.3c1.6,2.8,1,3.9-2.5,4.3c-4.6,0.5-9.4-1-13.7,1.7c-4.9,1.1-9.8,2.2-14.7,3.3C70.4,74.1,53,82.7,37.8,95.5
		c-3,2.5-5.7,5.5-8.3,8.4c-3.7,4.1-3.7,0.8-4.1-1.9c1.8-4.6,3.7-9.2,5.5-13.8C31.6,87.8,32.3,87.3,33,86.8z"/>
	<path class="st2" d="M250.8,280.3c2.8,4.8-0.6,10.1,1.2,15c-3.7-0.2-2.2-5.4-5.9-6.1c-1.9,3.4,0.2,8.7-4.7,10.6
		c-1.3-10.6,0.4-21.7-5.4-31.6c-2.1-3.7-4.2-8.9-8.8-7.6c-6.2,1.8-8-0.9-9.5-5.6c7-3.3,8.2-9.2,6.7-15.9c-0.7-3.3-2.6-6.4-4-9.6
		c2.1-1.8,6.8-1,5.8-5.9c5.7,2.3,5.2,8.2,7.2,12.6c-6.4,1.1-2.2,6.8-4.1,9.4c-3.4,4.5-0.6,6.9,2.2,9.3c1.9,1.6,3.2,3,4.4,5.4
		c3,6.1,6.1,12.2,8.7,18.5C246.3,282.3,248.3,281.9,250.8,280.3z"/>
	<path class="st2" d="M203.1,166.6c3.8,6.7,11.5,12,7.7,21.4c-1-2.2-1.7-4.1-4.9-1.8c-4.1,3-7.1,10.5-5.7,16.8
		c-2,0.4-4.2-0.9-6.1,0.5c-6.6,4.7-14.4,6.4-21.5,9.9c2-3.6,5.7-6,8.5-8.6c4-3.7,6.2-8.8,11.6-11.6c7.5-4,8-8.7,4-16.4
		c-1.1-2-2.6-3.8-3.9-5.7C196.2,169.6,200.9,171.1,203.1,166.6z"/>
	<path class="st3" d="M172.5,141.4c-0.3-6.9,6.8-5.8,9.9-9c-7.9-3.3-5.2-11.1-6-16.7c-1.4-10-5.1-18.4-11.1-26.1
		c-1.6-2-4-3.4-2.6-6.5c9.5,6.8,15.7,16.1,20.1,26.6c3,7.1,4.6,14.6,4.1,22.4c-0.1,2.1-0.5,4.3,2.5,4.7c-1.1,4.6-6,1.6-8.2,4.1
		C178.4,142.3,175.5,143.1,172.5,141.4z"/>
	<path class="st3" d="M53.2,255.1c-1.4-1.4-2.7-2.9-4.1-4.3c-0.9-2.1-1.8-4.2-2.7-6.4c-0.4-1.4-0.9-2.7-1.3-4.1
		c7-3.9,10.5,0.8,14,5.6c0.5,0.6,1.7,1,2.5,1c6.4,0.3,9.6,3.4,8.9,10c-1.9,1.4-3.8,2.8-5.7,4.2c-4.9,1.1-7.3,3.3-4.2,8.4
		c0.9,1.5,0.9,3-1,3.9c-2.4-4.4-4.5-8.8-2.9-14.2C57.6,256.9,56.5,254.7,53.2,255.1z"/>
	<path class="st3" d="M250.8,280.3c-2.5,1.6-4.5,2-6-1.5c-2.7-6.3-5.8-12.4-8.7-18.5c-1.2-2.5-2.5-3.8-4.4-5.4
		c-2.8-2.4-5.6-4.8-2.2-9.3c2-2.6-2.2-8.3,4.1-9.4c2.9,3-0.1,6.6,0.9,9.8c-1.2,1.3-1.8,2.5,0.7,3.1
		C243.6,257.9,251.5,267,250.8,280.3z"/>
	<path class="st2" d="M181.2,141c2.2-2.5,7.1,0.5,8.2-4.1c9.2,5.5,10,14.5,10.2,23.9c-3.5-4.7-8-1.6-12.1-1.4
		C187.4,152.6,183.6,147,181.2,141z"/>
	<path class="st2" d="M70.7,256.9c0.7-6.6-2.6-9.7-8.9-10c-0.9,0-2.1-0.4-2.5-1c-3.6-4.8-7.1-9.5-14-5.6c-0.8-1.7-1.6-3.4-2.4-5.1
		c0,0,0.6-0.3,0.6-0.3s0.6-0.2,0.6-0.2c2.1,0.5,4.2,2.3,5.7-1.1c1.2-2.5,4-2.9,6.3-3.8c5.5,7.3,9.7,16.3,22.8,15.8
		c-4,1.9-4.9,3.8-4.3,6.4C75.1,254.9,72.9,256,70.7,256.9z"/>
	<path class="st2" d="M216,196.2c7.5,5.4,7.1,13.5,7.3,21.4c-2.3-3.4-4.7-3.7-7.4-0.4c-0.7,0.8-1.9,1.1-2.9,1.6
		c1.9-7.1-0.6-13.3-3.8-19.4C211.5,198.4,213.7,197.3,216,196.2z"/>
	<path class="st3" d="M187.5,159.4c4.1-0.2,8.5-3.3,12.1,1.4c1.2,2,2.4,3.9,3.5,5.9c-2.2,4.5-6.9,2.9-10.4,4.4
		c-1.5,0.2-3,0.4-4.5,0.6c-1.6-1.2-2.9-2.7-3.4-4.7C185.8,164.4,182.9,160.6,187.5,159.4z"/>
	<path class="st4" d="M256,298.6c0.8,0.9,1.7,1.8,2.5,2.7c1.7,4.5,2.3,8.8-1.8,12.4c-2.2,0.9-4.4,1.7-6.6,2.6
		c-0.7-0.3-1.4-0.6-2.2-0.9c-0.4-1.5,0.7-2.2,1.6-3c2.6-0.7,4.6-2,5.4-5c-3.1-0.3-5,0.7-6.5,2.5c-3.2,1.6-6.4,3.3-9.6,4.9
		c-0.5-1.3-1.1-2.7-1.6-4c1.9-1.4,3.7-2.8,5.6-4.3c4.1-1.8,7.7-4.3,10.8-7.5C254.4,298.9,255.2,298.8,256,298.6z"/>
	<path class="st3" d="M27.8,3.5C35.5,0.3,43.3-2.9,51-6.1c3.1,0.6,5.7-1.1,8.4-2.2c4.1,0,8.4-0.9,11.9,2.4c0.6,1.9,1.2,3.7,1.8,5.6
		c-9.9-7-19.8-4.5-29.9-0.3C37.5,1.8,32.3,5.5,25.9,6C26.5,5.1,27.2,4.3,27.8,3.5z"/>
	<path class="st5" d="M53.2,255.1c3.2-0.4,4.4,1.9,3.7,4.2c-1.6,5.4,0.5,9.8,2.9,14.2c1.5,3.4,1,8.6,7.1,8c0,10.3,4.1,19.4,8.3,28.4
		c-2.9-0.6-3.1-3.2-4-5.2c-5.3-12.3-10.6-24.7-15.8-37C53.6,263.7,52.2,259.6,53.2,255.1z"/>
	<path class="st3" d="M19.4,40.7c-2.8-6.8-5.6-13.6-8.4-20.4c0.1-0.7,0.1-1.4,0.2-2.1c0.5-1.2,1-2.5,1.5-3.7
		c0.4-0.5,0.8-1.1,1.2-1.6c1.4-1.2,2.8-2.4,4.3-3.6C19.6,8.9,21,8.4,22.4,8c-0.5,1-0.7,2.4-1.5,3c-7.4,5.5-6.4,12.2-3.5,19.7
		c1.2,3.1,4.1,5.8,3.1,9.6C20.2,40.4,19.8,40.6,19.4,40.7z"/>
	<path class="st5" d="M37.8,80c-2.1,1-4.3,2-6.4,2.9c0.4-3.5,0.7-7.2,4.7-8.7c2.1-3,6.5-4.1,6.9-8.5c4.6-1,7.1-5.8,11.9-6.3
		c1.6,3.9-1.2,4.8-3.8,5.9c-5.7,2.3-9.1,6.1-8.3,12.7l-0.6,0.3c0,0-0.7,0.2-0.7,0.2c-0.7-1.2-0.9-3.5-3-2.6
		C36.9,76.7,37.2,78.5,37.8,80z"/>
	<path class="st3" d="M253.6,299.1c-3.1,3.2-6.7,5.7-10.8,7.5c-0.3-2.7-2.6-3-4.5-3.9c1.1-1,2.1-2,3.2-3c4.9-1.9,2.7-7.2,4.7-10.6
		c3.6,0.7,2.2,5.9,5.9,6.1c0.3,0.2,0.5,0.5,0.6,0.8C253,297.1,253.3,298.1,253.6,299.1z"/>
	<path class="st3" d="M200.2,202.9c-1.4-6.2,1.6-13.8,5.7-16.8c3.2-2.3,3.9-0.3,4.9,1.8c0,0,0,0,0,0c-1.7,1-3.2,1.9,0,2.9
		c0.3,0.8,0.6,1.6,0.9,2.5c-2.1,2.3-8.6,0.7-6.2,6.9c-0.9,0.6-1.7,1.3-2.6,1.9C201.9,202.5,201.1,202.7,200.2,202.9z"/>
	<path class="st5" d="M11.4,151c2,10.4,3.1,20.9,6.1,31.1c-4.2-4.4-8.6-8.2-6.8-15.8C11.8,161.5,7.2,156,11.4,151z"/>
	<path class="st4" d="M92.8,48.9c-4.1,1.3-8.1,0.8-12.6-0.9c2.3-1.9,4.3-3.9,2.2-6.8c0.5-1.6,0-3.5,1.5-4.9
		c3.1,3.7,3.4,9.5,8.6,11.7C92.4,48.3,92.5,48.6,92.8,48.9z"/>
	<path class="st3" d="M213,218.8c1-0.5,2.2-0.8,2.9-1.6c2.7-3.3,5.1-3,7.4,0.4c1.2,1.5,2.4,3.1,2.2,5.2c-2.7,1.8-5.3,0.7-8-0.1
		c-2.2-3.9-5.4,1.3-7.8-0.9C210.8,220.8,211.9,219.8,213,218.8z"/>
	<path class="st4" d="M43,65.7c-0.4,4.4-4.8,5.5-6.9,8.5c-0.2-1.2-0.3-2.5-0.5-3.7c1.2-2.7,0.1-4.9-1.6-6.9c-0.1-1-0.1-2-0.2-3.1
		c0.8-0.3,1.5-0.5,2.3-0.8C37.8,62.5,39.3,65.4,43,65.7z"/>
	<path class="st4" d="M217.5,222.7c2.6,0.8,5.3,1.9,8,0.1c0.3,0.3,0.6,0.6,1,0.8c1,4.9-3.7,4.1-5.8,5.9c-2.4,0.6-4.7,1.1-7.1,1.7
		c0.1-2.2,1.9-4.2,0.8-6.6C215.3,224,216.4,223.4,217.5,222.7z"/>
	<path class="st2" d="M36.1,59.8c-0.8,0.3-1.5,0.5-2.3,0.8c-2.8-0.9-2.5-4.1-4.2-5.8c0-0.6-0.1-1.1-0.2-1.7c2-0.3,4.3,0,5.9-0.9
		c4.6-2.7,5.2,0.1,5.7,3.6C39,56.5,37.5,58,36.1,59.8z"/>
	<path class="st1" d="M92.4,48c-5.2-2.2-5.5-8-8.6-11.7c-0.7-1.9-1.3-3.9-2-5.8c-0.1-0.8-0.3-1.6-0.4-2.4c1.7-0.6,3.4-1.3,5.1-1.9
		C85.2,34.3,90,40.9,92.4,48z"/>
	<path class="st5" d="M43.9,234.7l-0.6,0.2c0,0-0.6,0.3-0.6,0.3c-5.7-7.6-8.9-16.4-11.4-25.4c0.7,1.2,1.4,2.4,2.1,3.6
		c1.9,5.9,5,11,9.4,15.4C43.3,230.7,43.6,232.7,43.9,234.7z"/>
	<path class="st5" d="M19.1,185.8c4.3,3.3,4.3,9.5,8.5,12.9C21,197.7,16.9,191.5,19.1,185.8z"/>
	<path class="st4" d="M205.4,200.3c-2.4-6.3,4.1-4.6,6.2-6.9c0.3,0,0.6,0.1,0.8,0.2c0.6,0.3,1.2,0.5,1.9,0.8
		c0.6,0.6,1.1,1.2,1.7,1.8c-2.3,1.1-4.5,2.2-6.8,3.3C207.9,199.7,206.7,200,205.4,200.3z"/>
	<path class="st5" d="M120.7,59.8c-4.3-1.6-9.4-1.4-12.8-5.1C113.9,51.9,117.5,55.3,120.7,59.8z"/>
	<path class="st5" d="M27.7,198.6c7.7-0.1,4.4,4.5,3.4,8.1C26.5,205.5,28.6,201.4,27.7,198.6z"/>
	<path class="st1" d="M85.6,24.6c-3.4-0.6-2.5-4.5-4.7-6c-0.5-1.7-1.1-3.4-1.6-5c0.3-0.6,0.5-1.3,0.8-1.9
		C84.8,14.8,82.5,20.9,85.6,24.6z"/>
	<path class="st1" d="M19.4,40.7c0.4-0.1,0.8-0.3,1.2-0.5c0.4,0.8,0.9,1.6,1.3,2.5c-0.4,3,5.2,4.7,1.8,8.3c-1.5-2.4-3-4.8-4.4-7.2
		C18.8,42.7,18.6,41.7,19.4,40.7z"/>
	<path class="st5" d="M34,63.6c1.7,2,2.8,4.2,1.6,6.9c-1.7,0.7-3.3,0.6-3.8-1.3C31.3,67,31.2,64.7,34,63.6z"/>
	<path class="st1" d="M73.1-0.3c-0.6-1.9-1.2-3.7-1.8-5.6c4.2,3.6,5.2,8.9,7.2,13.7c-0.6-0.2-1.1-0.5-1.7-0.7
		C75.6,4.7,74.3,2.2,73.1-0.3z"/>
	<path class="st1" d="M22.4,8c-1.4,0.4-2.9,0.9-4.3,1.3c2.9-2.5,4.8-6.6,9.7-5.8c-0.6,0.8-1.3,1.7-1.9,2.5C24.7,6.6,23.6,7.3,22.4,8
		z"/>
	<path class="st3" d="M76.8,7.1c0.6,0.2,1.1,0.5,1.7,0.7c0.5,1.3,1.1,2.6,1.6,3.9c-0.3,0.6-0.5,1.3-0.8,1.9
		C77.1,12,76.3,9.8,76.8,7.1z"/>
	<path class="st5" d="M29.4,53.1c0.1,0.6,0.1,1.1,0.2,1.7c-1.6,0.5-3.3,1.5-4.5-0.7c-0.3-0.6-0.5-1.2-0.8-1.8c0,0,0,0,0,0
		c0.9-0.2,1.7-0.5,2.6-0.7c0.6,0.2,1.3,0.3,1.9,0.5C28.9,52.5,29.1,52.8,29.4,53.1z"/>
	<path class="st5" d="M46.5,244.4c0.9,2.1,1.8,4.2,2.7,6.4C46.8,249.2,46,247.1,46.5,244.4z"/>
	<path class="st5" d="M33,86.8c-0.7,0.5-1.4,1-2.1,1.5c-1.2-1.7-1-3.1,0.9-4.1C32.2,85.1,32.6,86,33,86.8z"/>
	<path class="st5" d="M107.8,54.7c-1,0.6-2.1,0.6-3.1,0c-0.2-0.5-0.3-1-0.5-1.5C105.8,52.7,107,53.1,107.8,54.7z"/>
	<path class="st2" d="M210.7,190.9c-3.2-1-1.7-1.9,0-2.9C210.7,189,210.7,190,210.7,190.9z"/>
	<path class="st2" d="M235.2,249.1c-2.5-0.5-1.9-1.7-0.7-3.1C235.6,246.9,235.8,247.9,235.2,249.1z"/>
	<path class="st2" d="M253.6,299.1c-0.3-1-0.6-2-0.9-3.1c1.7,0,3.1,0.6,3.3,2.5C255.2,298.8,254.4,298.9,253.6,299.1z"/>
	<path class="st2" d="M24.3,52.4c0.3,0.6,0.5,1.2,0.8,1.8C24.2,53.8,22.9,53.7,24.3,52.4z"/>
	<path class="st2" d="M214.3,194.4c-0.6-0.3-1.2-0.5-1.9-0.8C213.3,193.2,214,193.4,214.3,194.4z"/>
	<path class="st1" d="M11.1,18.2c-0.1,0.7-0.1,1.4-0.2,2.1c-0.3-0.5-0.7-1-1-1.5C10.3,18.6,10.7,18.4,11.1,18.2z"/>
	<path class="st1" d="M13.9,12.9c-0.4,0.5-0.8,1.1-1.2,1.6C13.1,14,13.5,13.4,13.9,12.9z"/>
	<path class="st5" d="M89.7,69.5c4.9-1.1,9.8-2.2,14.7-3.3c0.8,0.4,1.7,0.8,2.5,1.2c0.9,1.6,2.1,2.1,3.8,1.2c11.9-3.3,21.9,0.7,31,8
		c0.5,1.9,1.7,2.4,3.5,1.8c0.2,0.4,0.4,0.7,0.6,1.1c0.5,1.3,0.7,3.1,1.6,3.8c10.3,7.4,6.3,19.7,10.1,29.3c1.3,3.3,0,6.3-3.1,8.4
		c-2.4,1.6-4.3,3.6-4,6.9c0.1,0.9,0,2.3-0.6,2.6c-9,5.5-12.2,16.9-24.3,20.3c-11.8,3.3-23.1,9.6-34.5,14.8c-3.3,1.5-6.4,2.7-10,1
		c-1-0.5-2.5-0.8-3.4-0.4c-14.2,5.6-20.1-6.9-28.9-13.1c-6-4.3-10.9-10-16.4-14.8c-2.9-2.5-3.9-5.2-4-9.1
		c-0.6-20.6,11.3-33,27.3-43.1c8.7-5.5,18-9.6,28-12.1C86,73.5,89.6,73.4,89.7,69.5z M77.9,82.8c-9.4,2.8-15.4,11.4-23.6,16.9
		c-2.6,1.7-6.6,2.9-6.4,7.5c0.6,12.2,1,12.8,13.7,15.9c1.1,0.3,2.7,0.6,3,1.4c3.4,8.3,9.7,11.6,18.3,11.3c0.2,0,0.4,0.2,0.6,0.4
		c2.5,2.7,5.8,2.4,8.5,1.3c7-2.8,14.7-3.7,21.2-8.4c3.6-2.6,3-6.7,6-8.9c8.2-6.1,15.1-13.4,20.9-21.9c2.4-3.5,2.4-5.4-0.9-8
		c-2.7-2.1-6.3-3.7-7-7.5c-1.8-10.4-5.9-12.8-15.9-8.8c-3,1.2-5.7,1.6-8.8,0.9c-2.2-0.5-4.6-1.6-6.8-0.3
		C93.7,78.6,85.6,79.2,77.9,82.8z"/>
	<path class="st5" d="M72.1,221.3c14-6.1,28-12.2,42-18.2c2.6-1.1,3-3.2,3.4-5.6c0.7-4,2.9-5.7,7-4.1c5.7,2.2,10.9,0.7,16.1-1.6
		c11.5-5.1,23.1-10.1,34.7-15.1c1.7-0.6,3.4-1.2,5.1-1.8c4,4.1,2.3,10.5,6,14.7c0.9,1-0.1,2-0.9,3c-3.7,4.5-7.7,8.3-13.4,10.5
		c-11.1,4.3-21.9,9.3-32.8,13.9c-16,6.8-31.9,13.9-48.6,19.3c-3.6,1.1-6.1,0.8-8.7-2c-4.2-4.5-8-9.7-14.8-10.6
		C68.9,222.8,70.5,222.1,72.1,221.3z"/>
	<path class="st5" d="M154.4,149c6-1.3,10.2-6.8,16.7-7c2.2,4.8,0.2,10.8,4.5,15.1c0.4,0.4,0.1,2.4,0,2.4c-6.1,1-6.6,8-11.8,10.3
		c-14.7,6.6-29.3,13.6-44.2,19.3c-12.5,4.8-25.2,11-39,12.3c-2.6,0.2-5.3,0.9-5.3-3.3c0-2.4-1.9-3.6-4.2-3.8
		c-1.4-0.1-3.7,1.7-3.8-1.1c-0.1-2.4,0.2-5.1,3.1-6.5c4.4-2.1,8.8-4,13.1-6.6c18.6-11.5,38.6-19.9,59.5-26.3
		C146.8,152.8,150.6,150.7,154.4,149z"/>
	<path class="st2" d="M45.7,198.9c-5.5-9.7-10.6-19.4-19.2-27.3c-6.5-6-10.2-14.6-11.7-23.7c1.8-0.8,3.2-1.3,4.9,0.7
		c2.2,2.7,4.3,7.3,8.7,1.7c1.3-1.7,3.3,0.6,3.2,2.1c-0.5,5.7,4,8.1,7,11.5c3.8,4.3,8.8,7.1,12,12.3c2.2,3.6,7.7,3.7,12.3,2.9
		c1.6-0.3,3.8-2,4.7,0.8c0.7,2.1-1.7,2.4-2.8,3.4c-1.5,1.4-2.9,3.1-5.4,1.8c-1.1-0.6-3.2-0.1-2.9,0.7c3.2,8.2-3.9,4.3-6.4,5.6
		C47.2,193,49.1,197.5,45.7,198.9z"/>
	<path class="st2" d="M46.3,221.3c-0.9-2.4-2.7-4.5-1.8-7.3c0.8-2.3-0.5-3.2-2.3-4.3c-6.7-4.3-6.6-4.4-0.3-8.9
		c1.1-0.8,2.5-1.3,3.7-1.9c0.5,1,0.7,2.7,1.5,3c5.8,2.7,5.9,9.5,10.1,13.4c-2.4,1.6-5.9,1.3-7.4,4.3
		C48.8,220.2,47.5,220.7,46.3,221.3z"/>
	<path class="st3" d="M50,219.6c1.5-3.1,5-2.7,7.4-4.3c0.8-0.3,1.7-0.6,2.5-0.9c4.2,4-1.3,8.8,0.9,12.9c-1.6,0.8-3.2,1.6-4.8,2.5
		c-2.3,0.9-5.2,1.3-6.3,3.8c-1.5,3.3-3.7,1.6-5.7,1.1c-0.3-2-0.7-4-1-6c1.4-0.5,2.8-1,4.2-1.5c2.3-1.3,5.5-1.3,6.3-4.4
		C54.1,220.1,50.6,221.3,50,219.6z"/>
	<path class="st2" d="M60.8,227.3c-2.2-4.2,3.3-8.9-0.9-12.9c5-2.1,9.7-5,15.7-5.3c-6.1,3-4.8,7.6-3.4,12.3
		c-1.6,0.8-3.3,1.5-4.9,2.3C64.7,224.2,63.6,227.2,60.8,227.3z"/>
	<path class="st2" d="M180.5,174.8c-1.7,0.6-3.4,1.2-5.1,1.8c-2-2.9-1.2-5.1,1.9-6.5c2.5-1.1,5-2.1,7.5-3.2c0.5,2,1.8,3.5,3.4,4.7
		C186.4,174.5,182.7,172.8,180.5,174.8z"/>
	<path class="st5" d="M128.4,188.5c8.7-3.7,17.5-7.5,26.2-11.2c0.2,0.6,0.5,1.2,0.7,1.8C145.9,181.3,137.5,185.9,128.4,188.5z"/>
	<path class="st5" d="M113,195.8c-5.8,2.5-11.7,5-17.5,7.5c-0.1-0.2-0.2-0.4-0.3-0.6c5.8-2.5,11.5-4.9,17.3-7.4
		C112.6,195.5,112.8,195.6,113,195.8z"/>
	<path class="st1" d="M180.5,174.8c2.2-2,5.9-0.3,7.7-3.2c1.5-0.2,3-0.4,4.5-0.6c1.3,1.9,2.9,3.7,3.9,5.7c4,7.7,3.5,12.4-4,16.4
		c-5.4,2.8-7.6,8-11.6,11.6c-2.8,2.6-6.4,5-8.5,8.6c-8,7.3-18.8,7-28.1,10.9c7.1-6.4,16.8-8.2,24.2-14.3c-7.4,2.9-15.2,4.1-22.5,7
		c-13.1,5.2-25.4,12.5-38.9,16.6c-1.3,0.4-2.6,1.1-3.9,1.7c-1.3,0.6-2.7,1.4-2,3.1c0.7,1.7,2.3,1.2,3.6,0.7c5-2.1,9.8-4.3,14.9-6.2
		c1.8-0.7,4.7-3.4,5.6,0.4c0.6,2.7-2.7,2.2-4.6,2.9c-11.8,3.8-23.1,8.7-33.2,16c2.1,3,5.4-2.5,7.1,2.4c3,8.7,10.9,11.8,19.2,8.3
		c5.8-2.4,11.6-4.9,17.4-7.4c3.4-1.5,6.8-2.3,10.4-1.2c-0.1,2.2-3.3,1.7-2.5,4c1.6,2.3,7.2-4.3,6.5,3c-0.8,0.4-1.7,0.8-2.5,1.2
		c-13.4,5.7-26.8,11.3-40.2,17c2.3-4.3-1-3-3-3c-2.1,0-4.9,3.5-6,0.5c-1.1-3,3-3.4,5-4.7c0.7-0.4,1.4-0.9,3.5-2.2
		c-8.8,0.5-15.2,4.3-22.2,5.5c-1.2,0.4-2.5,0.8-3.7,1.3c-0.3-1.1-0.3-2.9-0.9-3.1c-6.3-1.9-7.6-7.9-10.6-12.6
		c1.9-1.4,3.8-2.8,5.7-4.2c2.3-0.9,4.4-2,3.8-4.9c-0.5-2.6,0.3-4.5,4.3-6.4c-13.1,0.4-17.3-8.5-22.8-15.8c1.6-0.8,3.2-1.6,4.8-2.5
		c2.8-0.1,3.9-3.1,6.4-3.7c6.8,0.9,10.7,6,14.8,10.6c2.6,2.8,5.1,3.1,8.7,2c16.6-5.3,32.5-12.4,48.6-19.3
		c10.9-4.6,21.7-9.7,32.8-13.9c5.7-2.2,9.7-6,13.4-10.5c0.8-1,1.8-2,0.9-3C182.7,185.3,184.5,178.9,180.5,174.8z"/>
	<path class="st1" d="M97.2,305.2c-1.1,0-2.1-0.1-3.2-0.1c-1.7-2.4,2.4-3.6,1.4-6.1c-3.8,0.1-6.8,2.9-10.6,2.3
		c-0.3-0.3-0.5-0.6-0.7-1c-1.2-3.8-2.9-7.2-6.3-9.5c2.8-1.4,5.7-2.7,8.5-4.1c1.8-0.7,3.6-1.3,5.4-2c3.3,5.6,5.6,12.7,14.8,9
		c3.1-1.2,3.3,2.2,4.2,4.2C107.2,302.1,101.6,302.5,97.2,305.2z"/>
	<path class="st2" d="M97.2,305.2c4.4-2.6,10-3.1,13.6-7.3c4.3-0.4,8.7-0.8,12.8-2.5c-3.1,3.8-7.8,5.5-12.2,9
		c7.8-1.6,14.6-3.5,20.9-6.9c8.1-3.4,16.3-6.8,24.4-10.1c0.3,0.8,0.6,1.5,0.9,2.3c-13.7,6.9-29,10.1-42.6,17.3
		c-3-0.4-6.7,5.7-9.4-1.3c-0.6-1.6-4.2,0.3-5.6,2.2c-1.1,1.4-0.4,3.8-2.5,4.7C93.1,310.4,97.4,307.6,97.2,305.2z"/>
	<path class="st2" d="M91.8,284.7c-1.8,0.7-3.6,1.3-5.4,2c-0.6-1-1-2.6-1.8-2.8c-5-1.1-4.8-4.6-4.3-8.4c7-1.2,13.4-5,22.2-5.5
		c-2,1.3-2.7,1.8-3.5,2.2c-2,1.3-6.2,1.6-5,4.7c1.1,3,3.9-0.4,6-0.5c2,0,5.4-1.3,3,3C99.3,281.3,95.5,283,91.8,284.7z"/>
	<path class="st2" d="M65,261.2c3,4.6,4.3,10.6,10.6,12.6c0.6,0.2,0.6,2,0.9,3.1c-3.2,1.5-6.4,3.1-9.6,4.6c-6.1,0.7-5.5-4.6-7.1-8
		c1.9-0.9,1.9-2.5,1-3.9C57.7,264.4,60.1,262.2,65,261.2z"/>
	<path class="st2" d="M77.8,290.8c3.4,2.3,5.1,5.7,6.3,9.5c-3.2,1.1-6.6,3.1-8.2-2.2C75.1,295.2,72.5,292.1,77.8,290.8z"/>
	<path class="st2" d="M84.8,301.3c3.7,0.5,6.8-2.2,10.6-2.3c1,2.5-3,3.7-1.4,6.1C90.1,306,85.2,309.1,84.8,301.3z"/>
	<path class="st4" d="M76.8,7.1c-0.5,2.7,0.3,4.8,2.5,6.4c0.5,1.7,1.1,3.4,1.6,5c0.1,7.3-6,6.9-10.4,7.8c-14.7,2.9-28,8.4-38.8,19.1
		c-1.8,1.8-3.2,1.1-5,0.4c-1.9-0.8-2.4-3.7-5-3.2c-0.4-0.8-0.9-1.6-1.3-2.5c0.9-3.8-1.9-6.5-3.1-9.6c-2.9-7.4-3.9-14.2,3.5-19.7
		c0.8-0.6,1-2,1.5-3c1.1-0.7,2.3-1.3,3.4-2c6.4-0.4,11.6-4.2,17.3-6.6c10.1-4.2,20-6.7,29.9,0.3C74.3,2.2,75.6,4.7,76.8,7.1z"/>
	<path class="st4" d="M81.4,28.1c0.1,0.8,0.3,1.6,0.4,2.4c-16.9,1.3-30.4,12.3-47.9,17.1C46.3,39,58.6,34.2,70.8,29.3l0.3,0.2
		C74.8,30.9,77.6,25.1,81.4,28.1z"/>
	<path class="st2" d="M45,54.2c0,0.8,0.2,2-0.2,2.4c-1.2,0.9-1.9-0.3-2.5-1.2C43.2,55,44.1,54.6,45,54.2z"/>
	<path class="st4" d="M70.8,29.3c0-0.9,0.3-1.6,1.3-1.8c0.2,0,0.4,0.2,0.5,0.3c-0.5,0.5-1,1.1-1.5,1.6
		C71.1,29.4,70.8,29.3,70.8,29.3z"/>
	<path class="st2" d="M28.7,52.1c-0.6-0.2-1.3-0.3-1.9-0.5C27.5,51.3,28.2,51.4,28.7,52.1z"/>
	<path class="st1" d="M110.8,68.7c-1.7,0.9-2.9,0.4-3.8-1.2C108.7,66.6,109.9,67.1,110.8,68.7z"/>
	<path class="st1" d="M145.3,78.5c-1.8,0.7-3,0.1-3.5-1.8C143.5,76.3,144.7,76.8,145.3,78.5z"/>
	<path class="st6" d="M42.9,78c-0.8-6.6,2.6-10.4,8.3-12.7c2.7-1.1,5.5-2,3.8-5.9c3.9-2.9,9-2.4,13.1-4.6c3.9,4.2,6.8-0.7,10.2-1.2
		c1.3-0.3,2.7-1.5,3.8-0.2c1,1.2,0.2,2.7-0.6,3.8c-0.6,0.9-1.5,1.8-2.5,2.2C66.4,64.5,54.1,70.3,42.9,78z"/>
	<path class="st5" d="M78.3,53.6c-3.4,0.5-6.3,5.3-10.2,1.2C71.2,51.7,74.3,48.7,78.3,53.6z"/>
	<path class="st6" d="M37.8,80c-0.6-1.6-0.8-3.4,0.8-4.1c2.1-0.9,2.3,1.4,3,2.6C40.3,79,39,79.5,37.8,80z"/>
	<path class="st2" d="M47.1,227.2c-1.4,0.5-2.8,1-4.2,1.5c-4.3-4.4-7.5-9.5-9.4-15.4c4.7-2.3,5.3,1.4,6.3,4.4c0.7,2-0.7,4.8,2.7,5.5
		C43.1,225.6,46.1,225.4,47.1,227.2z"/>
	<path class="st4" d="M47.1,227.2c-1.1-1.9-4-1.6-4.6-4c1.3-0.6,2.5-1.3,3.8-1.9c1.2-0.6,2.4-1.1,3.7-1.7c0.6,1.6,4.1,0.4,3.4,3.2
		C52.7,226,49.4,226,47.1,227.2z"/>
	<path class="st1" d="M241.5,299.7c-1.1,1-2.1,2-3.2,3c-1.4,0.5-2.7,1-4.1,1.5c-0.4-1.7-1.6-3.3-0.8-5.3c3.8-8.7,3.1-17.1,0-26.2
		c-2.3-6.9-5.1-7.2-10.5-4.7c-1.2,0.5-2.5,0.7-3.8,1c-1.2-7.1-3.7-1.3-5.7-0.5c-1.5,0.6-2.1-0.3-2.8-1.3c0.3-0.5,0.6-1,0.9-1.5
		c-0.2-0.1-0.4-0.2-0.5-0.2c-2.9,1.5-6.1,2-9.4,2.2c-2.1-3.7-1-5.9,3-7.3c4.4-1.6,8.5-3.7,12.8-5.6l0.3,0.1c1.5,4.7,3.3,7.3,9.5,5.6
		c4.6-1.3,6.6,3.9,8.8,7.6C241.9,278,240.2,289.1,241.5,299.7z"/>
	<path class="st1" d="M213.5,231.2c2.4-0.6,4.7-1.1,7.1-1.7c1.4,3.2,3.3,6.3,4,9.6c1.4,6.7,0.3,12.6-6.7,15.9c0,0-0.3-0.1-0.2-0.1
		c1.6-4-1.7-3.8-4.5-4.1c7-7,7-8.8,0.3-14.6c-0.8-0.7-1.2-1.9-1.9-2.9C212.2,232.6,212.8,231.9,213.5,231.2z"/>
	<path class="st5" d="M145.7,261.3c0.7-7.2-4.9-0.6-6.5-3c-0.9-2.4,2.4-1.9,2.5-4c-3.6-1.1-7-0.3-10.4,1.2c-5.8,2.5-11.6,5-17.4,7.4
		c-8.3,3.5-16.2,0.3-19.2-8.3c-1.7-4.9-5,0.7-7.1-2.4c10.1-7.3,21.4-12.2,33.2-16c1.9-0.6,5.2-0.2,4.6-2.9c-0.9-3.8-3.8-1.1-5.6-0.4
		c-5,1.9-9.9,4.1-14.9,6.2c-1.3,0.6-2.9,1-3.6-0.7c-0.7-1.7,0.7-2.5,2-3.1c1.3-0.6,2.5-1.3,3.9-1.7c13.6-4.1,25.8-11.4,38.9-16.6
		c7.3-2.9,15.1-4.1,22.5-7c-7.3,6.1-17,7.8-24.2,14.3c9.3-3.9,20.1-3.6,28.1-10.9c7.1-3.5,15-5.3,21.5-9.9c1.9-1.4,4.1-0.1,6.1-0.5
		c0.9-0.2,1.8-0.5,2.7-0.7c0.4,0.5,0.7,1.1,1.1,1.6c-4.3,1.5-7.2,2.7,0.1,4.2c2.6,0.5,3.2,3.3,2.8,5.6c-0.6,3,0,5.9,0,8.9
		c-4,2.4-8,4.8-12,7.1c-1.4-0.8-2.8-0.4-4,0.3c-11.1,6.7-23.2,11.3-35,16.5c-1,0.4-2.9,1.3-2.3,2.1c3.4,4-2.2,5.8-2,8.9
		C149.8,259.1,149.9,263.4,145.7,261.3z"/>
	<path class="st1" d="M206.8,222.6c0-3-0.6-5.9,0-8.9c0.4-2.3-0.2-5.1-2.8-5.6c-7.3-1.5-4.4-2.8-0.1-4.2c-0.4-0.5-0.7-1.1-1.1-1.6
		c0.9-0.6,1.7-1.3,2.6-1.9c1.3-0.3,2.5-0.6,3.8-0.9c3.2,6.1,5.7,12.3,3.8,19.4c-1.1,1-2.2,2-3.3,3
		C208.7,222.1,207.8,222.3,206.8,222.6z"/>
	<path class="st2" d="M206.8,222.6c1-0.2,1.9-0.5,2.9-0.7c2.4,2.2,5.6-3,7.8,0.9c-1.1,0.6-2.2,1.3-3.2,1.9
		c-5.9,2.6-10.9,6-13.1,12.5c-3.4,1.7-6.8,3.4-10.3,5.1c-3.4,1.4-6.9,2.8-10.3,4.2c1.1-6.7,8-7.1,11.9-10.9c2-1.9,4-2.9,2.3-5.9
		C198.8,227.3,202.8,224.9,206.8,222.6z"/>
	<path class="st3" d="M201.2,237.1c2.2-6.5,7.2-9.9,13.1-12.5c1.1,2.4-0.7,4.4-0.8,6.6c-0.6,0.7-1.3,1.4-1.9,2.1
		C208.1,234.6,204.6,235.9,201.2,237.1z"/>
	<path class="st6" d="M77.9,82.8c7.7-3.6,15.8-4.2,22.8-8.2c2.3-1.3,4.6-0.1,6.8,0.3c3.1,0.7,5.8,0.3,8.8-0.9
		c10.1-4,14.1-1.6,15.9,8.8c0.7,3.8,4.3,5.4,7,7.5c3.3,2.6,3.3,4.4,0.9,8c-5.8,8.5-12.7,15.8-20.9,21.9c-3,2.2-2.4,6.3-6,8.9
		c-6.6,4.7-14.2,5.6-21.2,8.4c-2.7,1.1-6,1.3-8.5-1.3c-0.2-0.2-0.4-0.4-0.6-0.4c-8.6,0.3-14.9-3-18.3-11.3c-0.3-0.8-2-1.1-3-1.4
		c-12.7-3.1-13.1-3.7-13.7-15.9c-0.2-4.6,3.8-5.8,6.4-7.5C62.5,94.2,68.5,85.7,77.9,82.8z"/>
	<path class="st5" d="M214.5,318.9c-0.4,0.2-0.8,0.4-1.2,0.6c-6.9,3-13.7,5.9-20.6,8.9c-1.5-1.1-2.4-0.7-2.6,1.2
		c-5.6,4.4-12.4,6.4-18.9,9.1c-1.9-2.3-3.4-2.2-4.4,0.7c-0.9,0.4-1.8,0.7-2.6,1.1c-0.7-0.6-1.7-1.7-2-1.6c-6.6,3.4-14.1,2-20.7,4.1
		c-5.1,1.6-8.4,0.9-11.7-2.2C124,335,118.3,329,112.6,323c-3.7-3.9-4-7.7,0.7-11.1c1.7-1.3,2.2-2.9,1.8-4.9
		c13.6-7.2,28.9-10.4,42.6-17.3c3.7-1.5,7.7-2.5,10.5-5.8c-4.3-0.3-7.8,1.9-11.4,3.5c-8.1,3.4-16.3,6.8-24.4,10.1
		c-1.6-5.9-5.2-4-8.8-2.2c-4.1,1.7-8.4,2.2-12.8,2.5c-0.9-2-1.1-5.5-4.2-4.2c-9.2,3.7-11.5-3.4-14.8-9c3.7-1.7,7.5-3.5,11.2-5.2
		c13.4-5.7,26.8-11.3,40.2-17c-2.9,6.5,2.8,8.6,6.2,11.8c0.5,0.5,0.8,1.1,1.2,1.7c-5.9,3.2-12.8,4.6-19.1,9.4c1.8,0.3,2.5,0.6,3,0.4
		c14.2-6,28.3-12,42.5-18c1.7-0.7,2.6-1.9,2-3.8c7.8-4.1,16.5-6.2,23.9-11.3c4.4-3,2.4-5.7,1.1-8.8c-1.6-4-4.2-2.5-6.8-1.5
		c-2,0.8-4.2,2.6-6.1-0.2c3.4-1.7,6.8-3.4,10.3-5.1c3.5-1.3,6.9-2.5,10.4-3.8c0.6,1,1,2.1,1.9,2.9c6.7,5.8,6.7,7.6-0.3,14.6
		c2.8,0.2,6,0.1,4.5,4.1c-4.3,1.9-8.4,4-12.8,5.6c-4,1.4-5.1,3.6-3,7.3c-3.4,1.1-6.8,2.2-8.7,7c6.6-2.8,12.1-5.2,17.7-7.6
		c0.7,0.9,1.3,1.8,2.8,1.3c1.9-0.7,4.5-6.6,5.7,0.5c1.3-0.3,2.6-0.5,3.8-1c5.4-2.5,8.1-2.2,10.5,4.7c3.1,9.1,3.7,17.5,0,26.2
		c-0.9,2,0.3,3.6,0.8,5.3c-2.4,1.2-4.8,2.4-7.2,3.6c-4.3,1.3-8.3,3-9,8.2C216.6,316.7,215,317.1,214.5,318.9z M193.4,323.4
		c4.8-2.7,12.2-3.1,16.3-8.5c3.8-5,7.5-10.4,10.4-16c2.2-4.2,4.5-9.8,0.8-14.6c-3.7-4.9-12.8-6.8-18.2-4.6
		c-6.7,2.8-13.1,6.5-20.1,8.3c-12,3.3-20,10.8-26.7,20.8c-3.3,4.9-1.9,7.7,2.1,10.1c2.4,1.4,5.1,2.3,7.8,3.1
		c1.6,0.5,2.8,0.7,3.3,2.8c1.5,5.8,5.8,6,10.4,4.3C183.9,327.7,188.2,325.7,193.4,323.4z M197.5,266.1c-2.4-0.2-3.8,0.4-4.8,1.8
		C194.4,268.6,195.5,267.6,197.5,266.1z"/>
	<path class="st6" d="M150.6,276c-0.4-0.6-0.7-1.2-1.2-1.7c-3.4-3.3-9.1-5.3-6.2-11.8c0.8-0.4,1.7-0.8,2.5-1.2
		c4.2,2.1,4.1-2.2,5.8-3.8c10.4-1.9,19.6-6.8,29.1-11c3.4-1.4,6.9-2.8,10.3-4.2c1.9,2.9,4.1,1,6.1,0.2c2.6-1,5.2-2.6,6.8,1.5
		c1.2,3.2,3.3,5.8-1.1,8.8c-7.4,5.1-16.1,7.2-23.9,11.3C169.5,268,160,272,150.6,276z"/>
	<path class="st1" d="M123.6,295.4c3.5-1.8,7.1-3.7,8.8,2.2c-6.3,3.4-13.1,5.2-20.9,6.9C115.7,300.8,120.5,299.2,123.6,295.4z"/>
	<path class="st1" d="M156.7,287.4c3.7-1.6,7.1-3.8,11.4-3.5c-2.8,3.3-6.8,4.3-10.5,5.8C157.4,288.9,157,288.1,156.7,287.4z"/>
	<path class="st2" d="M210.8,267.2c-5.5,2.4-11.1,4.7-17.7,7.6c1.9-4.8,5.3-5.9,8.7-7c3.2-0.3,6.4-0.7,9.4-2.2
		c0.1-0.1,0.3,0.1,0.5,0.2C211.4,266.2,211.1,266.7,210.8,267.2z"/>
	<path class="st1" d="M180.6,246.5c-9.5,4.2-18.7,9.1-29.1,11c-0.3-3.1,5.3-4.9,2-8.9c-0.6-0.7,1.3-1.6,2.3-2.1
		c11.8-5.2,23.9-9.8,35-16.5c1.2-0.7,2.6-1,4-0.3c1.7,3-0.3,4-2.3,5.9C188.6,239.3,181.7,239.7,180.6,246.5z"/>
	<path class="st6" d="M193.4,323.4c-5.2,2.2-9.5,4.3-13.9,5.9c-4.6,1.7-9,1.5-10.4-4.3c-0.5-2.1-1.7-2.3-3.3-2.8
		c-2.7-0.9-5.4-1.7-7.8-3.1c-4-2.5-5.4-5.2-2.1-10.1c6.7-10,14.7-17.5,26.7-20.8c6.9-1.9,13.4-5.5,20.1-8.3
		c5.4-2.3,14.5-0.3,18.2,4.6c3.7,4.8,1.4,10.4-0.8,14.6c-2.9,5.6-6.6,10.9-10.4,16C205.6,320.3,198.1,320.7,193.4,323.4z"/>
	<path class="st1" d="M150.6,276c9.4-4,18.9-8,28.3-12c0.6,1.9-0.3,3.1-2,3.8c-14.2,6-28.3,12-42.5,18c-0.5,0.2-1.2-0.2-3-0.4
		C137.8,280.6,144.7,279.3,150.6,276z"/>
	<path class="st1" d="M197.5,266.1c-2,1.5-3.1,2.5-4.8,1.8C193.7,266.5,195,266,197.5,266.1z"/>
</g>
</svg>
