<?xml version="1.0" encoding="utf-8"?>
<!-- Generator: Adobe Illustrator 22.0.0, SVG Export Plug-In . SVG Version: 6.00 Build 0)  -->
<svg version="1.1" id="Layer_1" xmlns="http://www.w3.org/2000/svg" xmlns:xlink="http://www.w3.org/1999/xlink" x="0px" y="0px"
	 viewBox="0 0 300 300" style="enable-background:new 0 0 300 300;" xml:space="preserve">
<style type="text/css">
	.st0{fill:url(#SVGID_1_);}
	.st1{fill:#D6D3CE;}
	.st2{fill:#333230;}
	.st3{fill:#2C2B29;}
	.st4{fill:#1E1D1B;}
	.st5{fill:#CAC5C1;}
	.st6{fill:#333331;}
	.st7{fill:#23201D;}
	.st8{fill:#1D1714;}
	.st9{fill:#D75E02;}
	.st10{fill:#2D2C2A;}
	.st11{fill:#BF591C;}
	.st12{fill:#41403E;}
	.st13{fill:#EA8B55;}
	.st14{fill:#110F0E;}
	.st15{fill:#ECA380;}
	.st16{fill:#272624;}
	.st17{fill:#39302E;}
	.st18{fill:#706B67;}
	.st19{fill:#4E4C4B;}
	.st20{fill:#847E79;}
	.st21{fill:#9E9995;}
	.st22{fill:#5E5B59;}
	.st23{fill:#9A9591;}
	.st24{fill:#2B2623;}
	.st25{fill:#E88F49;}
	.st26{fill:#BCBBB7;}
	.st27{fill:#5A5A59;}
	.st28{fill:#4D4B49;}
	.st29{fill:#5A5755;}
	.st30{fill:#444340;}
	.st31{fill:#F5AB68;}
	.st32{fill:#B9B6B4;}
	.st33{fill:#7D7875;}
	.st34{fill:#9D4E17;}
	.st35{fill:#F4DDD3;}
	.st36{fill:#C05C25;}
	.st37{fill:#F4A053;}
	.st38{fill:#787576;}
	.st39{fill:#45413F;}
	.st40{fill:#DB7C26;}
	.st41{fill:#AEACAA;}
	.st42{fill:#54504E;}
	.st43{fill:#E3A286;}
	.st44{fill:#6D3014;}
	.st45{fill:#DD7739;}
	.st46{fill:#EF9646;}
	.st47{fill:#3F3B39;}
	.st48{fill:#EDC1AC;}
	.st49{fill:#F6C4AA;}
	.st50{fill:#B2A39C;}
	.st51{fill:#E2BCAC;}
	.st52{fill:#191613;}
	.st53{fill:#CC5D0F;}
	.st54{fill:#1B1A18;}
	.st55{fill:#D0C6C0;}
	.st56{fill:#C9C3BE;}
	.st57{fill:#2A2422;}
	.st58{fill:#3A3633;}
	.st59{fill:#F0AC74;}
	.st60{fill:#DB733A;}
	.st61{fill:#C0C0C0;}
	.st62{fill:#2C2A29;}
	.st63{fill:#625E5C;}
	.st64{fill:#CC5C1A;}
	.st65{fill:#73370D;}
	.st66{fill:#D38342;}
	.st67{fill:#55524D;}
	.st68{fill:#91918F;}
	.st69{fill:#E1956A;}
	.st70{fill:#DD8651;}
	.st71{fill:#959291;}
	.st72{fill:#DCAD99;}
	.st73{fill:#F3DFD7;}
	.st74{fill:#955D3A;}
	.st75{fill:#3C3B38;}
	.st76{fill:#E7C9BF;}
	.st77{fill:#343130;}
	.st78{fill:#3C3633;}
	.st79{fill:#685446;}
	.st80{fill:#777676;}
	.st81{fill:#E2AE97;}
	.st82{fill:#F0AC8A;}
	.st83{fill:#876856;}
	.st84{fill:#4C4543;}
	.st85{fill:#74716E;}
	.st86{fill:#5D5450;}
	.st87{fill:#434242;}
	.st88{fill:#F0C6B4;}
	.st89{fill:#0E0C0A;}
	.st90{fill:#39322E;}
	.st91{fill:#777169;}
	.st92{fill:#5A544E;}
	.st93{fill:#49433D;}
	.st94{fill:#A19C96;}
	.st95{fill:#272420;}
	.st96{fill:#2B2925;}
	.st97{fill:#817C76;}
	.st98{fill:#93918D;}
	.st99{fill:#797976;}
	.st100{fill:#76726A;}
	.st101{fill:#514E49;}
	.st102{fill:#51514F;}
	.st103{fill:#757471;}
	.st104{fill:#DC7D2B;}
	.st105{fill:#DD7F2F;}
	.st106{fill:#DD802E;}
	.st107{fill:#4E2F17;}
	.st108{fill:#9C9C98;}
	.st109{fill:#DC7923;}
	.st110{fill:#2C2C28;}
	.st111{fill:#1A120F;}
	.st112{fill:#35332F;}
	.st113{fill:#322F2C;}
	.st114{fill:#3B3936;}
	.st115{fill:#151310;}
	.st116{fill:#0D0A07;}
	.st117{fill:#868582;}
	.st118{fill:#696866;}
	.st119{fill:#4B4B48;}
	.st120{fill:#72726D;}
	.st121{fill:#545550;}
	.st122{fill:#9C9D98;}
	.st123{fill:#8C8C8A;}
	.st124{fill:#676765;}
	.st125{fill:#747370;}
	.st126{fill:#33302E;}
	.st127{fill:#F4A254;}
	.st128{fill:#413E3B;}
	.st129{fill:#35312D;}
	.st130{fill:#44413F;}
	.st131{fill:#EB8D31;}
	.st132{fill:#EA8E32;}
	.st133{fill:#BB5D12;}
	.st134{fill:#C8CECE;}
	.st135{fill:#AE5E1A;}
	.st136{fill:#78726F;}
	.st137{fill:#A79991;}
	.st138{fill:#98918C;}
	.st139{fill:#140D0A;}
	.st140{fill:#251E1A;}
	.st141{fill:#090402;}
	.st142{fill:#353432;}
	.st143{fill:#C54F01;}
	.st144{fill:#E5782F;}
	.st145{fill:#873202;}
	.st146{fill:#A03C01;}
	.st147{fill:#E87207;}
	.st148{fill:#B96022;}
	.st149{fill:#EEA77F;}
	.st150{fill:#F5C4AC;}
	.st151{fill:#E7843E;}
	.st152{fill:#9A4809;}
	.st153{fill:#45200A;}
	.st154{fill:#73350A;}
	.st155{fill:#170D09;}
	.st156{fill:#D2641E;}
	.st157{fill:#F6C1A5;}
	.st158{fill:#D26009;}
	.st159{fill:#C15007;}
	.st160{fill:#E37B37;}
	.st161{fill:#8C411F;}
	.st162{fill:#EE8E50;}
	.st163{fill:#A23F01;}
	.st164{fill:#E1854E;}
	.st165{fill:#E86D02;}
	.st166{fill:#B34000;}
	.st167{fill:#AC4607;}
	.st168{fill:#DC6A22;}
	.st169{fill:#332F2C;}
	.st170{fill:#CD5D0E;}
	.st171{fill:#C0C7C9;}
	.st172{fill:#2E2B29;}
	.st173{fill:#E67C3B;}
	.st174{fill:#464442;}
	.st175{fill:#928C8C;}
	.st176{fill:#403C39;}
	.st177{fill:#93908D;}
	.st178{fill:#575552;}
	.st179{fill:#1A1512;}
	.st180{fill:#180E09;}
	.st181{fill:#3C3733;}
	.st182{fill:#393532;}
	.st183{fill:#312C29;}
	.st184{fill:#373332;}
	.st185{fill:#322D29;}
	.st186{fill:#43403B;}
	.st187{fill:#D66C26;}
	.st188{fill:#E99E79;}
	.st189{fill:#190E0B;}
	.st190{fill:#773E1C;}
	.st191{fill:#F7AB66;}
	.st192{fill:#C26224;}
	.st193{fill:#C29984;}
	.st194{fill:#EDECE9;}
	.st195{fill:#72716F;}
	.st196{fill:#DAD8D5;}
	.st197{fill:#291911;}
	.st198{fill:#B24702;}
	.st199{fill:#737270;}
	.st200{fill:#6F6F70;}
	.st201{fill:#4C240E;}
	.st202{fill:#ACA7A6;}
	.st203{fill:#6F6D6B;}
	.st204{fill:#0D0605;}
	.st205{fill:#AD4604;}
	.st206{fill:#B14301;}
	.st207{fill:#E78A35;}
	.st208{fill:#BF651B;}
	.st209{fill:#FDFDFD;}
	.st210{fill:#F9A953;}
	.st211{fill:#F5B87B;}
	.st212{fill:#CF6719;}
	.st213{fill:#140D08;}
	.st214{fill:#9A3F08;}
	.st215{fill:#ED935E;}
	.st216{fill:#B97F62;}
	.st217{fill:#938B86;}
	.st218{fill:#D8D7D6;}
	.st219{fill:#58514B;}
	.st220{fill:#DCD8D5;}
	.st221{fill:#E6E3E4;}
	.st222{fill:#732902;}
	.st223{fill:#774326;}
	.st224{fill:#1C120C;}
	.st225{fill:#292724;}
	.st226{fill:#A09B94;}
	.st227{fill:#5D5A57;}
	.st228{fill:#575450;}
	.st229{fill:#251F1A;}
	.st230{fill:#686461;}
	.st231{fill:#CBCAC3;}
	.st232{fill:#908A83;}
	.st233{fill:#9E9E9B;}
	.st234{fill:#91918D;}
	.st235{fill:#4A250E;}
	.st236{fill:#4C4946;}
	.st237{fill:#8F5442;}
	.st238{fill:#AC4C18;}
	.st239{fill:#D76B25;}
	.st240{fill:#D15301;}
	.st241{fill:#913809;}
	.st242{fill:#D96203;}
	.st243{fill:#F5A579;}
	.st244{fill:#813407;}
	.st245{fill:#9B9794;}
	.st246{fill:#C7BAB3;}
	.st247{fill:#C36C39;}
	.st248{fill:#D26310;}
	.st249{fill:#4B4540;}
	.st250{fill:#93553E;}
	.st251{fill:#AE624A;}
</style>
<linearGradient id="SVGID_1_" gradientUnits="userSpaceOnUse" x1="-27.4519" y1="252.4519" x2="327.4519" y2="47.5481">
	<stop  offset="0" style="stop-color:#5F00E9"/>
	<stop  offset="1" style="stop-color:#8D00E9"/>
</linearGradient>
<rect class="st0" width="300" height="300"/>
<g>
	<path class="st1" d="M27.6,183.4c11-5.2,22.2-4.2,33.7-1.3c11,2.8,22.1,5.6,33.1,7.9c4.4,0.9,9.6,1,12.9,5.2
		c1.5,0.3,2.5,1.5,3.9,1.9c4.1,1.8,7.7,4.3,12.3,4.7c1,0.3,1.8,0.8,2,1.9c-1,4.7-1.4,4.8-6,3.8c-4.2-2.5-8.6-4.4-13.7-3.4
		c-0.4-0.3-0.6-0.6-0.8-1c-0.1-0.4,0-0.9,0-1.5c-0.9,1.5,0.1,2.4,0.9,3.2c0.9,1,1.8,2.2,2.4,3.3c0.3,0.4,0.4,0.6,0.5,1
		c0.4,0.8,0.8,1.4,1.3,2c2.9,4.6,6.5,8.9,4.3,15c-2.5,0.9-3.5-0.5-4.1-2.7c-0.4-1.4-0.4-2.9-1.1-4.3c-1.8-2.5-3.5-4.9-5.1-7.6
		c-0.5-1-1.1-2-2-2.8c-0.9-0.6-1.5-0.6-2,0.4c-0.6,1.4-1.5,2.5-3.3,2.4c-0.4-0.1-0.8-0.3-1.1-0.5c-3-1.4-4.7,1.4-7,2.3
		c-1.6,0.6-3.2,1.6-4.7,2.8c-7.5,3.9-15.8,3.8-23.7,5.3c-2.8,0.5-5.6,1.3-8.5,1c-10.4,0.5-20.7-0.4-31.1-1.1c-3.2-1-6.3-0.6-9.5-0.6
		c-2.5,0-5.1,0.3-7.6-0.5c-2.8-2.3-2-4.2,0.8-5.5c4.8-2.2,8.1-5.6,10-10.6c1.3-3.5,4.4-5.3,7.6-7c2.7-1.4,4.6-2.7,3.9-6.2
		C25.5,188.2,28.5,186.2,27.6,183.4z"/>
	<path class="st2" d="M69.8,289c-10.5-0.5-20.8-3.3-31.1-5.1c-9.1-1.5-18.3-3.5-27.6-3.3c3.3-3.2,3.2-6.8,2.7-11
		c-0.6-6.3-1.6-12.7-1.3-19c0.1-1.9-0.1-3.9,1.1-5.7c2-1.4,4.4-1.1,6.7-1.1c3.3,2.3,7.4,2.2,11,2.5c13.2,1.1,26.2,3.5,39.4,5.2
		c18.6,2.3,37.1,5.2,55.6,7.7c2.7,0.4,5.6,0.4,7.6,2.7c0.5,0.8,0.1,1.4-0.5,1.9c-3,0.6-6.1,0-9-0.5c-15.1-2.8-30.3-4.4-46-6.5
		c0.3,3,1,5.8-0.4,8.5c-0.8,0.6-1.6,0.9-2.7,0.9c-1.1,0-2.2-0.4-3.3-0.5c-1.9,0.1-2,1.5-2.2,2.9c-0.3,2.9-1.4,5.1-4.8,4.8
		c-3-0.3-4.4-2.2-4.8-5.1c-0.1-0.9,0.3-1.8-0.5-2.5c-1.1,5.8,0.4,9.1,10.9,8.5c2-0.8,3.5,0.1,4.9,1.5c1.4,0.8,2.8,0.1,4.1,0.3
		c3.9,0.6,5.7,3.9,7.7,6.6c1.3,1.6,0.8,3.8-0.6,5.6c-1.1,1.6-2.8,2.4-4.8,2c-1.6-0.4-3.3-0.6-4.8-1.5C75,287.3,72.4,287.2,69.8,289z
		"/>
	<path class="st3" d="M78.1,265c-0.3-0.8-2-1-0.9-2c1.8-1.5,1.3-2.7-0.1-4.1c-0.9-0.8-1-1.9-0.4-2.9c0.8-1.3,2.2-0.9,3.3-0.8
		c10.4,1.5,20.7,2.9,31.1,4.4c7.5,1.1,14.8,2.4,22.3,3.7c2,1.6,2.2,3.9,2.2,6.2c0.1,8.1,0,16.1,0,24.2c0,2.4-0.1,4.7-3,5.3
		c-20.8-3.3-41.7-6.7-62.5-10c2.3-3.9,5.1-3.3,8.4-1.3c2.3,1.4,4.6,3.5,7.2,0.9c2.3-2.3,3-4.7,0-6.8c-2.2-1.6-2.9-5.3-6.7-4.7
		c-1-1.6-1.1-3.4,0.5-4.4c1.3-0.8,2.4,0.6,3.5,1.5c2.3,1.6,3.9,4.3,7.1,4.4c4.8-0.8,9.8-3,14.7,2c-0.1-3.2-1-4.8-1.6-6.6
		c-0.9-2.4-2.3-4.3-5.2-4.6c-3.3-0.3-3.3,2.5-4.3,4.4c-0.8,1.6-1.4,3.4-3,4.4c-3.8,0.6-4.8-2.7-6.3-4.9c-1.8-2.4,1.4-3.4,2.2-5.3
		c-2.8-1-4.3,3.5-7.1,1.6C77.6,268.7,77.8,266.7,78.1,265z"/>
	<path class="st4" d="M14.8,244.9c-2.2,4.3-0.9,9-0.8,13.4c0.1,5.2,1,10.3,1.6,15.3c0.5,3.7-0.3,6.5-4.6,6.8c-2.4,0-4.9,0-7.4,0.1
		c-0.3-9.4-1.5-18.9-1.9-28.3c-0.1-3.8,0.6-7.6,0.8-11.4c0.1-2.3,1.6-3.5,3.7-4.2c3.4-1,6.7-1.9,10.3-2c2.4,0,4.8-0.5,7.1-1.5
		c-3.8,1.6-8,1.6-12,1.6c-2.9,0-5.3-1.3-6.3-4.3c0.4-3.2,2.7-1.9,4.4-1.8c2,0.1,3.9,1.9,5.8,0c1.1-1.1,2.5-1.5,4.2-1.5
		c0.8,0,1.6,0.3,2.2-0.4c4.8-5.8,11-1.5,16.5-2c0.8,0,1.8,0.8,0.9,1.9c-1.1,0.5-2.3,0.1-3.5,0.1c8.7,0.4,17.4,2.2,26.1,3.3
		c8.7,1.1,17.5,2.4,26.2,3.7c6.1,1.3,12.3,1.5,18.3,2.8c5.5,1.4,11.2,1.6,16.7,2.3c6.2,0.8,12.4,1.9,18.5,2.9
		c-2.2-0.6-4.4-0.5-6.7-1.5c1.1-2.2,2.9-1.6,4.7-1.8c1,0-0.3-0.9-0.1-1.5c-0.9-3.7,2.2-4.8,4.1-6.6c2-1.3,0.9-3.3,1.1-5.1
		c0.3-2,0.5-4.1,2.8-4.8c1.3-0.4,2.4-0.3,3.4,0.8c1.4,1.5,1.6,3.3,0.6,5.1c-1.1,1.9-0.4,3.2,1.1,4.3c1.5,1.1,2.7,2.5,3.7,4.1
		c1,1.4,1.5,2.8-1.1,4.2c14.2,2.4,27.5,5.3,41.3,3.9c0.5,0.1,0.9,0.5,1,1c-0.3,3.2-2.8,2.5-4.8,2.7c-2.9,0.3-6-0.4-8.9,0.6
		c-0.9,0.4-1.6,0.5-2.2,0.3c2.7,0.1,5.8,0.3,8.9,0.4c1.5,0.1,3.4-0.3,3.9,2c-3.7,4.9-3.7,4.9-9.6,3.2c-2.8-0.8-5.5-1.9-8.4-1.6
		c-3.2-1-6.2,0.5-9.4,0.3c-3.3-1.4-6.7-1.4-10.1-2c-1.3,0.1-2.9-1.1-3.4,1.3c-0.4,4.3-3,6.2-5.7,3.7c-4.4-4.2-9.6-6.2-15.2-8
		c-0.4-0.1-0.6-0.6-0.9-1c0-2.9,2-0.9,2.8-1.5c-2.3-1.1-3.7,1.3-5.6,2c-0.5,0.1-0.9,0.3-1.4,0.4c-9.9-0.5-19.6-2.3-29.4-3.5
		c-15.5-1.9-30.8-4.3-46.1-6.8c-3.8-0.6-7.6-2.4-11.5-0.8c-1.9,2.2-4.6,2-7.1,2.2c-3.2,0.1-6.3-0.5-9.4,1c-1.1,0.5-2.3,1.1-3.3,1.9
		C18.5,241.2,16.9,243.3,14.8,244.9z"/>
	<path class="st5" d="M27.6,183.4c2.9,0.8,2,2.5,0.9,4.2c-0.9,1.3-2.4,2.5-1.5,3.9c2.4,3.9-0.8,4.4-3,5.7c-4.2,2.4-8,4.7-9.6,10.1
		c-1,3.5-4.7,6.8-8.7,8c-2.4,0.6-2.8,1.8-2.7,3.8c-2.2,2.2-4.8,1.6-7.2,1.1c-4.3-0.8-8.7-0.5-13.1-0.6c-5.8-0.5-11.8-0.1-17.5-2.2
		c-1.8-2.2,0.1-3.3,1.3-4.6c5.3-5.5,11.8-9.3,18.5-12.5C-1.4,193.6,12.6,187.1,27.6,183.4z"/>
	<path class="st6" d="M132.5,244.9c1.4,0.5,2.8,1.1,4.3,1.3c4.6,0.8,8.2,2.8,11,6.3c1.1,1.4,2.8,2.2,4.4,1c1.8-1,1.1-2.5,0.3-3.9
		c1.1-1.6,3.4-0.4,4.6-2c3.7,1.3,7.9,0.4,11.3,2.7c1.1,2.9-1,4.6-2.8,5.5c-7.4,3.9-9.1,9.9-9.1,18c0,9,0,18.3-1.4,27.3
		c-0.4,2.5-1.3,4.3-4.2,4.3c-1.6,0.1-3.2,0-4.6-1c-0.5-6.2,0.6-12.4,1-18.5c0.4-6.8,0.8-13.6-0.3-21c-3.2,2.9-4.7,5.6-4.9,9.1
		c-0.5,7.2-1.3,14.3-2,21.4c-0.3,2.2-0.1,5.3-4.1,4.6c-0.4-0.3-0.6-0.6-1-0.9c0.5-8.5,0-17,0.3-25.5c0-2.5-0.8-5.1,1.1-7.5
		c1.1-1.4-1-1.9-1.1-3c-0.8-2.3,0.9-2.5,2.4-2.8c1.1-0.3,1.6-1.1,1.3-1.9c-0.5-1.3-0.9,0.5-1.5,0.4c-1.5-0.3-2.5-0.9-2.7-2.5
		c1-1.6,0.8-2.9-0.6-4.3c-1.3-1.4-3.2-2.3-3.7-4.3C130.4,246.4,130.9,245.2,132.5,244.9z"/>
	<path class="st7" d="M180.9,320.5c-4.4-1.8-9-3.5-13.3-5.6c-2.5-1.1-4.2-3.7-3-6.3c1-2.7,2.4-5.7,6.3-5.1c0.3,0.1,0.4,0.1,0.6,0.3
		c4.1,4.7,5.6,4.7,10.5,0.6c1.3-1,2.5-3.5,4.8-1.1c-0.8,5.1-0.5,5.3,4.3,5.3c2.5,0.5,2.4-0.8,1.6-2.5c-1-2.7-3.9-3.5-5.2-6
		c0.1-4.2,1.9-8.6-1.5-12.4c-0.1-0.9,0.1-1.6,0.6-2.4c0.6-0.9,1.4-1.5,2.2-2.3c1.5-1.6,3.3-3,5.6-3.4c0.9,0,1.8,0.4,2.8,0.1
		c1,0.5,1.8,1,1.3,2.3c-1.1,0.8-2.2,1.5-3.7,0.9c1.3,1.1,3-0.5,4.3,0.5c3.3,2.9,5.6,6.5,5.5,11.2c1,2,2.4,3.7,5.1,3
		c1.9-0.1,3.4,0.1,4.6,1.9c0,0.5-0.1,0.9-0.4,1.1c-0.9,0.6-2,0.6-3,0.9c-3.2,2.5-6.2,1.5-9.3-0.4c-2.3-1.5-5.5-2.2-6.1-5.5
		c0.1-0.3,0.4-0.5,0.6-0.6c0.8-0.8,2.5-1.6,0.9-2.7c-1.3-0.9-2,0.6-2.5,1.8c-3,2.3-3,4.7-0.4,7.4c1.3,1.3,2.3,2.8,3.3,4.3
		c0.9,1.8,2.4,2.7,4.2,3c1.5,0.3,2.8,0.9,2.9,2.5c0.4-1.9-1.3-4.3,0.9-5.7c1.8-1,2.9,0.6,3.9,2.2c0.9,2.4-0.3,4.7-0.8,7.1
		c-0.4,2.2-1.1,4.4,0.6,6.3c0.4,0.4,0.6,0.8,0.8,1.1c0.3,0.6,0.1,1.4-0.3,2c-4.7,2.7-7.5-0.8-10.6-3.2
		C194.6,313.9,184.8,313.8,180.9,320.5z"/>
	<path class="st8" d="M150.7,305.6c4.1-2,3.5-6.2,3.5-9.4c-0.1-10.8,1.8-21.5,1-32.3c-0.1-1.4,0.3-1.8,1.5-2.5
		c3.4-2.3,6.6-5.1,9.8-7.7c1-0.8,1.6-1.8,1.8-3c2.7,0.5,5.5-3.2,8.1,0c3.4,0,6.6,0.4,9.4,2.5c0.6,1.4,0.1,3,0.4,4.6
		c1,5.5,3.2,7.1,8.6,6.6c1.4-0.1,2.8,0.1,4.1-0.3c6.3-1.6,11.4-0.6,14.2,6.1c1.5,3.5,4.6,0.6,6.8,1.6c0.5,0.6,0.8,1.3,0.9,2
		c0.1,1.5,0.1,2.9-0.6,4.3c-3.3,2-6.1-0.1-7.5-2.3c-4.3-6.1-10-6.5-16.4-5.3c-2.9,0.5-5.8-0.3-8.7,0c-2.4,0.3-3.5-1.4-4.4-3.3
		c-0.9-1.6-1.3-3.4-1.9-5.2c-1.1-2.8-2.3-5.5-6.2-4.6c-0.5,0.1,0.1,0.1-0.5,0c-6-0.9-6.1-0.9-8.6,4.4c-4.4,9.4-6.6,19.3-6.8,29.7
		c-0.1,5.1,3.5,3.3,6.2,3.4c0.8,0.1,1.3,0.5,1.5,1.3c0.1,0.5,0,0.9-0.3,1.4c-2.8,2.5-5.5,5.3-8.4,7.7
		C155.9,307,153.3,306.2,150.7,305.6z"/>
	<path class="st9" d="M153.6,186c-0.1-0.5-0.1-1-0.3-1.5c-0.3-0.9-0.9-1.6-1.1-2.5c-0.5-2.3,0.4-3.3,2.7-2.5
		c2.2,0.8,4.2,1.9,6.3,2.5c1.5,0.6,3,0.9,4.7,0.5c0.5-0.1,1.1-0.3,1.6-0.4c1-0.3,1.6-0.9,2.2-1.8c3.2-4.4,0.9-8.2-1.3-12
		c-0.6-2.2,0-4.2,1.1-6c2.2-1,2.8,0.9,3.8,2c1.3,2.9,3.4,5.2,5.1,7.9c1.3,2.7,2.9,5.1,4.7,7.4c4.8,6.5,5.1,14.5-4.1,19
		c-5.8,0.1-11.4-1.5-17-2.4c1.3,0.8,2.4,1.6,1.4,3.2c-1,1.6-2.5,1.4-3.9,0.3c-3.9-2.9-5.1-7.1-5.1-11.7
		C154.1,187.3,153.9,186.7,153.6,186z"/>
	<path class="st10" d="M5.6,230.2c3.9,5.7,9.8,3.4,15.1,3.3c1.4,0,2.8-1,4.7,0c-5.6,2.3-11.2,2.4-16.5,3.8c-4.1,1-5.1,2.7-5.2,6.7
		c-0.3,10.8-0.1,21.4,1.8,31.9c0.4,1.8-1,3-1.6,4.7c-1.4,0-2.8-0.1-4.1,0.3c-4.2,1-5.5-0.9-5.3-4.7c0-3.2-0.3-6.3-0.3-9.5
		c0-4.8-0.3-9.8,0-14.6c-0.1-1.3,0-2.7,0-3.9c0-0.5,0-1,0-1.5c-0.9-7.2,1.6-12.7,8.4-15.8C3.6,230.4,4.4,229.8,5.6,230.2z"/>
	<path class="st11" d="M232.5,151.2c-2.8,2-6.1,2.9-9.4,3.3c-6.5,0.8-12.3,3.3-18.1,6.1c-1.8,0.6-3,2.8-5.5,2
		c-0.9-1.4,0.1-2.4,1.1-3c3.2-1.9,4.2-5.1,5.1-8.4c1.4-1.1,3.7,0,4.6-2.2c2.5-0.9,4.8-2,3.8-5.3c3-0.9,4.3,1.4,5.8,3.2
		c0.3,0.4,0.5,0.8,0.9,1c1,0.6,2.7,0.8,2.5,2.3c-0.3,1.8-1.9,2.2-3.5,1.9c7.7-0.8,12.9-6.6,13.1-14.6c0-0.6-0.6,0.3-0.1,0
		c0,1.1,1.3,2.9-1.4,2.8c-1.1-6-3.2-11.3-9-14.3c-1.5-1.9-3.7-1.8-5.8-1.9c-2.9-0.1-6.1,0.8-8.9-1c-0.5-1.9,1-1.9,2-2.2
		c1.5-0.4,3-0.5,4.3-1.4c3-1.3,6-0.3,8.9,0.3c3.2,0.5,5.8,2.3,8.5,4.1c4.1,4.1,7.1,8.6,6.8,14.7c0,3.2,0,6.3-1.8,9.1
		C235.6,149.3,234,150.3,232.5,151.2z"/>
	<path class="st12" d="M135.9,300.1c2-0.3,2.7-1.9,2.8-3.7c0.6-7.7,1.6-15.5,1.8-23.2c0.1-4.6,3.9-6.6,5.2-10.3
		c0.3-0.9,1.6-0.6,2.2,0.4c0.5,1.1,1,2.3,1,3.5c0.3,12.7,0.3,25.2-2.7,37.6C142.4,303.9,139.3,301.4,135.9,300.1z"/>
	<path class="st13" d="M197.6,172.3c1.4,0,2.9,0.1,4.3,0.1c3.2,2.3,6.8,4.2,6.1,9.1c-0.3,1.4,1.4,1.9,2.4,2.5c3,2.2,6.1,4.1,9.1,6.1
		c3.5,2.5,3.3,4.2-0.9,6c4.4-0.3,6.2,2.5,7.4,6.3c-1.1,1.1-2.3,2.4-3.4,3.5c-0.3,0.3-0.5,0.6-0.9,0.8c-0.6,0.4-1.4,0.6-2.2,0.8
		c-0.6,0.1-1.1,0-1.8-0.3c-2.4-1.1-4.6,0.3-6.7,0.5c-1.4,0.3-2.7,0.4-3.9-0.5c-1-1.6,0.5-2.4,1.3-3.4c0.9-0.8,1.9-1.1,2.9-1.5
		c1.1-0.4,2.4-0.5,4.2-1.5c-3-0.1-5.1-1.1-7.1-2c-1.9-0.9-3.9-1.6-5.6-3.2c-0.8-3.9-2-7.7-4.2-11.2c-0.5-0.8-0.1-1.4,0.6-1.9
		c0.5-0.8,3.5,1.1,1.9-1.9c3.3-2.9,3.2-3.4-0.6-5.7C199.3,174.5,197.2,174.5,197.6,172.3z"/>
	<path class="st14" d="M-48.8,275c0.4-1.8,0.8-3.5,1.1-5.3c1.3-3.5,4.4-4.6,7.2-3.3c2,0.9,1.8-0.9,2.7-1c3.2-1.5,3.4-1.5,4.7,0.8
		c-0.3,0.4-0.6,0.6-0.9,1c-1,0.9-1.9,2-0.5,2.9c1.5,1.1,2-0.5,2.7-1.5c0.9-1,1-3.4,3.2-2.2s2.7,3.4,1.8,5.8c-2.3,1-3.7,2.7-3,5.3
		c0.5,2.4,1,4.7,4.6,4.3c3.2-0.3,1.1,3.2,2.5,4.4c0.3,3.3-1.1,5.1-4.6,4.6c-1.3-3.7-4.6-3.7-7.6-4.4c-3.2-0.1-2.9-4.8-6.2-4.7
		c-0.9,0.8-1.8,0.5-2.2-0.5c-0.5-1.1-0.9-2.2-2.5-2C-49.2,279.3-49.4,277.4-48.8,275z"/>
	<path class="st15" d="M200.3,102.4c-1.3,1-0.6,2.5-0.9,3.8c-0.4,1.8-1.4,2.8-3.7,2.3c1.9,2,3.4,3,5.6,2.2c0.9-0.4,1.8-0.4,2.7,0
		c8.1,3.5,16.6,3.7,25.2,2.7c5.5-0.4,10.9-2.8,16.4-0.3c1.4,0.6,1.6,1.6,1.3,3c-0.3,0.4-0.8,0.6-1.3,0.8c-1.4,0.1-2.8-0.1-4.1,0.3
		c-8,2.3-16.2,1.8-24.3,2c-6-0.3-11.8-1.8-17.6-2.9c-5.2-1-8.6-5.3-11.4-9.4c-2.3-3.3,0.9-5.8,3.2-8.2c3.5-2.9,6.2-6.3,4.7-11.4
		c-0.3-0.8,0.1-1.5,0.5-2.2c1.6-1.4,3.4-0.8,5.2-0.3c0.4,0.1,0.8,0.4,1.1,0.6c0.4,0.3,0.5,0.6,0.5,1.1c-1.5,2.5-1.6,5.5-3.3,7.9
		c-0.8,1.1-1.9,1.9-2.4,3c-0.8,1.9,0.5,1.4,1.5,1.1c0.4-0.1,0.9,0,1.3,0.1C201,100,201,101.2,200.3,102.4z"/>
	<path class="st16" d="M240.7,291.8c-1.4,1.1-3,1-4.6,1c-3.3-2.9-2-7.2-3-10.8c0-1.3-0.1-2.4,0-3.7c1.3-6.5-3.7-11.2-4.7-17
		c-0.4-1.6,1-2.5,1.6-3.8c0.1-0.4,0.1-0.8,0.1-1.1c0.3-2.3,0.1-4.7,1.8-6.6c0.4-0.3,0.9-0.4,1.4-0.5c1.5-0.3,3-0.3,4.6,0.3
		c1.6,0.6,2,2.2,2.3,3.7c0.3,1.9,0.9,3.9,0.9,5.8C240.8,270,242.1,280.9,240.7,291.8z"/>
	<path class="st17" d="M246.3,116.3c-0.1-0.9,0.1-2-0.8-2.8c-8.7-9.9-18.3-5.8-27.8-1.6c-2.4,0.6-4.7,0.3-7.1-0.1
		c-1.3-0.3-3.3-0.4-2-2.7c5.8-2.5,11.3-6,17.5-7.7c12.9-3.7,26.5,2.7,25.5,19.3c-0.9,0.6-1.5,0-2.2-0.5
		C248.6,118.7,247.2,117.7,246.3,116.3z"/>
	<path class="st18" d="M214.1,33.5c0.6,0.4,1.3,0.6,1.8,1c-0.5,2.7-2.7,1.9-4.3,2.3c-4.1,0-8.2,0.1-12.3-0.3c-0.1,0-0.3,0.1-0.4,0.1
		c0,0.1,0.1,0.3,0.1,0.5c0.8,2.4,0.6,4.9-0.5,7.1c-1.8,3.7-1.1,7.5-1.3,11.2c-0.1,2.5,1.3,4.6,3.5,6c1.6,1,3.5,1.9,3.7,4.3
		c0,0.5-0.3,0.9-0.5,1.3c-6.8,2.3-12.3-0.5-13.7-7.4c-0.9-4.4-1.9-8.9-2.8-13.3c-0.5-2.4,0.3-7.4,1.3-10.1c1-2.7,3.3-2.8,5.7-2.8
		c4.4,0,8.7,0,13.2,0C210,33,212.1,33.3,214.1,33.5z"/>
	<path class="st19" d="M-34,266c-1.3-2-2.4-0.3-3.5,0.1c-1.3,0.6-1.9,0.5-2-1.1c-0.3-4.9-2.2-6.5-6.7-5.7c-2.5,0.4-5.1,1.4-7.4-0.8
		c0.8-0.5,1.6-1.1,2.4-1.6c1.1-1,2.7-1.4,4.1-1.6c2.7-0.5,4.6-1.9,5.5-4.6c0.9-0.8,1.5-0.1,2.2,0.5c1.4,1.8,3.8,0.9,5.5,2.3
		c2.2,1.5,4.2,3,6,4.8c1.4,1.4,2.5,2.4,4.7,2.3c2.2,0,3,1,2.3,3.3c-0.1,4.7-1.5,9-2.3,13.6c-0.1,0.6,0,1.4-0.8,1.4
		c-2.4,0.1-3.9-1.5-5.2-3.2c-1.4-2,0.5-2.5,1.9-3.2c0.1-2.2-0.3-4.2-2-6c-0.6,1.1-1.1,2.3-1.8,3.3C-33.3,269.3-34.2,268.2-34,266z"
		/>
	<path class="st20" d="M204,65.7c-0.3-2-2-2.8-3.4-3.3c-4.2-1.8-3.9-5.1-4.4-8.9c-0.8-6.1,3.4-11.3,2.4-17.2
		c0.1-0.1,0.3-0.3,0.4-0.3c8-0.9,8.9,0,7.6,7.9c-0.5,3.2-1.1,6.3-1.6,9.4c-0.8,4.7,0.3,6.3,4.8,7.7c1.5,0.5,3.5,0.4,2.8,3
		c-0.4,1.1-0.3,2.7-2,2.4C208.1,66.5,205.9,67.6,204,65.7z"/>
	<path class="st21" d="M212.5,64.2c-0.3-1-0.5-1.6-2-1.6c-5.2,0.1-8-3.2-7.1-8.2c0.5-3.4,1.3-6.8,1.8-10.3c1.4-7.6,1.4-7.6-6.6-7.6
		c-0.1,0-0.3,0-0.4-0.1c-0.5-0.3-0.5-0.8,0-0.8c4.4,0,9,0,13.4,0c3.3,2.2,4.9,6.8,3.3,11.2c-2,5.2-3.5,10.1-1.1,15.5
		c0.1,0.3-0.1,0.5-0.4,0.8C213,63.5,212.7,63.8,212.5,64.2z"/>
	<path class="st22" d="M193.9,21.9c2.7,0.3,4.1-1.1,4.8-3.7c0.6-2.5,1.6-4.8,2.5-7.4c1.6-4.7,8.1-6,11.5-2.2c0.9,1,0.8,1.9,0.4,2.9
		c-0.5,1.3-0.8,2.7-1.4,3.9c-1.8,4.3-3.5,8.5,2.2,11.3c0.1,0.1,0,0.9,0,1.3c-3.3,0.8-6.5,0.8-8.5-2.4c-0.1-0.1,0-0.5-0.1-0.4
		c-1.9,4.6-5.1,2.3-7.9,1.4C196.6,24.9,193.9,24.4,193.9,21.9z"/>
	<path class="st23" d="M-18.5,218.4c7.1-1,14.2,1.3,21.4,0.6c2.8,0,5.5,0.1,8.2,0.1c3,1.1,6.2-0.1,9.3,0.8
		c10.8,0.4,21.4,1.4,32.2,1.1c0.3,0.5,0.1,1-0.1,1.5c-2.2,2.9-5.3,2.3-8.2,2.4c-2.3,0.1-4.4-0.4-6.7-0.4c-12.5-0.5-25.1-1-37.5-1.5
		c-0.5,0-1.1-0.1-1.6-0.3c-4.7-1.5-9.5,0.3-14.2-1c-0.5-0.3-0.9-0.5-1.4-0.9c-3.7-0.4-7.4-0.6-11-1c0.8-2.4,2.7-1,4.2-1.3
		C-22.4,218.5-20.4,219.1-18.5,218.4z"/>
	<path class="st24" d="M152.4,123.8c-4.6-1.5-8.9-3.4-11.7-7.6c-4.2-9.1,0.6-15.3,6.8-21.2c1.8-1,3.2-2.7,5.2-3.3
		c1.3-0.4,2.7-1.1,3,1.1c-0.5,2.5-4.2,3-3.7,6.2c-0.9,1.6-2.2,2.7-3.8,3.3c-3.3,2.2-4.6,5.5-3.3,8.9c1.4,4.1,4.1,5.8,7.7,5.7
		c2.9-0.1,5.7,0.5,7.7,3.2c0.3,0.6,0.3,1.3,0.3,2c-0.4,1.4-0.4,2.8-1.6,3.8C156.3,126.5,154.4,124.7,152.4,123.8z"/>
	<path class="st25" d="M274.7,251.1c-1.6,0.8-3.2,1.6-5.2,0.9c3.3,10.5,1,15.3-7.4,16c-0.4-0.1-0.8-0.5-0.8-0.9
		c1-3.8,4.7-6.7,3-11.2c0-1.5,0.5-3,1-4.4c1-1.9-0.4-3-1.5-4.3c-2.2-2.5-5.3-3.9-7.4-6.6c-0.6-1-1.1-1.9-0.5-3.2
		c0.4-0.4,0.8-0.5,1.1-0.8c1.8-0.4,3.4,0.1,4.7,1.1c4.3,3.5,9.1,6.6,12.3,11.3C274.6,249.8,274.8,250.4,274.7,251.1z"/>
	<path class="st26" d="M177.3,35.4c0.4-0.9,0.8-1.9,2-1.8c2,0.1,2.8,1.9,4.2,2.9c0.9,0.8,2.3,1,2.4,2.5c-0.4,5.8-2.7,11-5.1,16.2
		c-0.5,1.3-0.8,3-2.8,3.2c-1.9-1.9-4.2-3.4-5.3-6c-0.1-4.8,0.1-9.4,3-13.6C176.6,38.1,177.8,37.1,177.3,35.4z"/>
	<path class="st27" d="M177.3,35.4c1.9,0.8,0.4,1.8,0,2.4c-2.9,4.6-3,9.8-3.7,14.8c-1.1,1.1-3.2-0.6-3.9,1.3
		c-1.3,1.8-0.3,3.7-0.1,5.6c0.1,4.8,2.4,8.9,4.8,12.9c0.8,2.8-0.5,5.1-2,7.4c-3.7,1.1-6.3-1-7-5.6c-0.5-3.5,0-7.2-0.1-10.9
		c0-2-0.1-3.9-0.6-5.8c1.1-3.9,4.3-6.7,5.8-10.1C172.4,43.2,174.9,39.4,177.3,35.4z"/>
	<path class="st28" d="M164.7,57.5c1.5,1,2.4,2,2,4.4c-0.6,3.9-0.6,8.1-0.1,12c0.4,2.8,1,6.2,5.5,5.6c1,1.4,0.3,2.5-0.4,3.7
		c-1.1,0.4-1.3,1.5-1.8,2.4c-1.9,0.1-4.6,1.8-3.8-2.3c0.3-2-1.5-2.4-2.7-3.3c-1.3-1-2.9-1.8-2.8-3.8c-2-1.5-2.8-3.3-1.5-5.8
		C161,66.2,162.8,61.8,164.7,57.5z"/>
	<path class="st29" d="M240.7,291.8c-1.3-2.2-0.9-4.4-0.9-6.7c0.3-10.5,0.3-21.2-0.9-31.7c-0.1-1.4,0.1-2.8-1.9-3
		c-1.1-1.6,0.3-2,1.3-2.5c2.3-1.1,3.8-3.4,6.6-3.7c0.5,0,0.9,0.3,1.3,0.5c1.8,2.3-0.1,4.3-0.5,6.3c-0.8,4.4-0.8,9-1.8,13.3
		c-0.1,2-0.1,3.9-0.4,6c-1.1,6.5-0.9,12.8-0.3,19.3C242.5,290.4,242.4,292,240.7,291.8z"/>
	<path class="st30" d="M234.3,277.9c0,1.3,0,2.4,0,3.7c-5.1,4.7-8.6,10-7.4,17.4c-1,0.4-1.9,0.8-2.9,1.1c-2.5-0.9-1.8-2.9-1.5-4.6
		c0.4-2.2,0-4.2-0.1-6.3c-0.3-2-1.6-1.9-3-1.8c-1-0.3-1.4-1-1.4-1.9c0.1-1.1,0.9-1.9,1.5-2.8c0.9-1.3,0.5-2.8,0.9-4.3
		c0-0.3,0.1-0.6,0.1-0.9c0.3-1.6,1.9-2.9,2.8-2C226.6,278.7,232.1,271.2,234.3,277.9z"/>
	<path class="st31" d="M274.7,251.1c-0.3-0.3-0.6-0.5-0.9-0.8c-1.4-4.8-5.5-7.2-9-10c-2.2-1.6-4.1-4.3-7.5-2.8
		c-0.3,0-0.5,0.1-0.8,0.1c-0.4-0.3-0.6-0.5-0.9-0.9c0.3-3-1.4-4.9-3.9-6.5c-1.3-0.8-3.9-0.9-2.7-3.5c4.6-0.3,9.3-0.8,13.7,1
		c2.9,1.8,0.9,4.7,1.6,7c2.8,4.3,7.7,6.6,10.6,10.8C276.7,247.8,277,249.4,274.7,251.1z"/>
	<path class="st32" d="M227.8,221c3,0.1,5.7,1.3,8.4,2.7c4.9,1.9,9.9,3.8,14.3,6.7c1.5,1,3.7,1.9,3,4.4c-5.7-0.4-11.3,2.5-17,1.1
		c-0.9-0.3-1.9,0.1-2.5-0.8c-0.1-0.3-0.1-0.4-0.3-0.6c0-0.3,0-0.4,0-0.6c0.4-2,2.3-4.2-0.3-6.1C232.1,225.3,227.9,224.8,227.8,221z"
		/>
	<path class="st33" d="M243.4,289.7c-2.8-2.9-1.5-6.6-1.6-10c-0.1-3.2-0.3-6.3,1-9.3c0.5-1.5,0.4-3.4,2.9-3c1.9,0.3,2.5,1.5,2.7,3
		c0.4,4.2,2.3,8.1,2.7,12.3C248.6,285.3,246.8,288.3,243.4,289.7z"/>
	<path class="st34" d="M-6.7,274.4c-0.8,0-1.5,0-2.4,0c-0.4,0.3-0.8,0.3-1.3,0c-2.3-2.9-5.7-4.7-8.1-7.5c-3-5.5-2.5-7.4,2.7-11.4
		c0.5-0.1,1,0,1.4,0.3c2.8,3.3,5.2,7,8.1,10.3C-4.1,268.7-4.6,272.7-6.7,274.4z"/>
	<path class="st35" d="M225.9,202.6c-2.7-2-3.8-7-8.9-4.8c-0.6,0.3-1.5-0.5-1.5-1.3c0-1,1-0.9,1.8-1c1.4-0.3,3.4,0.3,3.8-1.6
		c0.4-2-1.8-2.2-2.9-3c-2.4-1.8-5.1-3.4-7.6-5.1c-2.3-1.4-4.3-2.2-3.3-6.1c0.8-2.8-3.4-4.7-5.2-7.1c4.7,1.6,8,5.7,7.2,9
		c1.3,0.9,2.8-2.5,4.1,0.1c-0.6,3.9,2.8,3.5,4.9,4.6c3.3,0.8,5.6,6,4.1,9.5c1.6,1.4,2.2-3.7,4.1-0.8
		C227.9,197.4,227.4,200.1,225.9,202.6z"/>
	<path class="st36" d="M166.3,136.6c1.5-2.7-1.3-2-1.9-2c-4.4-0.5-5.8-3.2-5.7-7.2c0.1-0.1,0.4-0.1,0.5-0.3c0.4,0,0.8,0.1,1.1,0.3
		c1.3,0.9,3.2,0.9,3.7,2.8c0.5,1.9,2.2,1.3,3.3,1.5c4.9,1.3,10.3,0.6,14.8,3.2c0.5,3.7-2.9,2.7-4.6,3.9c-1,0.6-1.9,1.6-3.2,1.8
		c-1.1-0.1-2.4-0.8-3.4,0.3c-3.5,3.4-8.7,4.1-12.3,7.4c-1.5,0.4-2.9,0.1-3.4-1.4c-0.6-1.9,0.9-3,2.3-4.1c1.3-0.8,2.9-0.6,4.3-1
		C164.4,140.9,166.3,139.5,166.3,136.6z"/>
	<path class="st37" d="M-40.6,245.6c1.9-2,4.3-3.7,6.8-4.3c5.1-1.4,8.2-3.9,7.7-9.6c1.4,3.9,5.1,5.8,7.5,9c0.9,1.1,2.7,1.4,3.2,2.9
		c-2.4,2.8-6,1.8-8.9,2.5c-3,0.8-6.3,0.9-9.1,2.8c-0.4,0.3-0.8,0.4-1.3,0.4c-2-0.3-2.7-3.2-5.2-2.7C-40.2,246.2-40.4,246-40.6,245.6
		z"/>
	<path class="st38" d="M209.4,67.6c4.2,0.4,4.7,2.4,3.4,6.1c-1.6,4.8-2.7,9.9-7.9,12.4c-0.6,0.5-1.3,0.6-2,0.3c0-0.1,0-0.3,0.1-0.5
		c-0.6-6,0.3-12-1.3-18c0.4-0.8,1.1-0.8,1.9-0.8c0.9-0.3,1.9-0.5,2.8-0.1c2.7,2.8,0.5,5.8,0.6,9.5c0,0,1-0.5,0.4-0.4
		c-0.1,0-0.3-0.1-0.3-0.4c0.3-2.7,0-5.5,1.5-7.7C209,67.9,209.3,67.8,209.4,67.6z"/>
	<path class="st39" d="M197.5,26.2c2.7-0.1,6,2.7,7.6-1.8c1,2.8,4.1,1.6,5.8,2.8c1,0.6,1.9,0.8,3,0.8c0.4,1.8-1.1,3.7,0.1,5.5
		c-1.5,1.9-3.7,0.9-5.6,1c-2.7-1.1-5.1-1.9-8.2-1.1c-5.3,1.4-6.6-0.4-5.2-6.1C195.7,26.4,196.4,25.9,197.5,26.2z"/>
	<path class="st40" d="M209.4,323.8c0-0.5,0-1.1-0.1-1.6c-0.8-2.7-0.1-5.2,1.1-7.4c1.9-3.3,2.7-6.7,2.4-10.4c0-1.5,0.6-3,1.1-4.4
		c-1.1-1.6-2.8-1.9-4.6-1.9c-0.3-1.3,0.6-1.5,1.5-1.8c1.3-0.4,2.5,0.5,3.8,0.4c0.1-1.9-0.1-3.7-0.6-5.3c-0.1-1,0-1.9,0.5-2.8
		c1.3-1.3,2.5-1.6,4.2-0.6c0.5,0.6,0.9,1.3,0.9,2c-0.9,11,0.5,22.7-7.4,32.2c-0.5,1.1-1,2.4-2.5,2.5c-0.4-0.1-0.5-0.3-0.5-0.5
		C209.3,324.1,209.3,323.8,209.4,323.8z"/>
	<path class="st41" d="M213.2,63.1c-3.3-5.6-2.2-10.8,0.5-16.5c1.5-3.4,1-7.7-2.2-10.9c1.5-0.4,3.3,0.5,4.6-1.1
		c3.4,4.3,2.4,9.6,1.4,13.9C216.1,53.3,216.6,58.8,213.2,63.1z"/>
	<path class="st42" d="M226.9,299c-2.7-2.5-1.5-6.1-0.8-8.4c1.3-3.4,4.2-6.2,6.5-9.3c0.1-0.3,1.1,0.1,1.6,0.3
		c0.6,3.7,1.3,7.4,1.9,11.2C233.1,294.8,229.9,297,226.9,299z"/>
	<path class="st43" d="M153.6,186c0.3,0.4,0.6,0.6,0.9,1c0.6,3.4,1,6.8,1.1,10.3c0.3,3.3,0.4,6.8-3.8,8.1c-4.8,0-8.7-2.4-12.7-4.8
		c-1-1-1.3-2-0.6-3.4c2.2-1.5,4.7-2,7.2-2c4.1,0,6.7-1.1,7-5.7c0-0.5,0.4-1.1,0.8-1.6C153.5,187.3,153.5,186.7,153.6,186z"/>
	<path class="st44" d="M144.1,166.9c-1.8-5.1-1.4-9.9,0.9-14.7c4.8-5.5,7.1-6.1,12.3-3.4c-0.1,1.5-1.4,1.8-2.4,2.4
		c-6.5,3.4-8.1,8.5-5.1,15.2c0.8,1.6,2.7,3,1.8,5.3c-1,0.8-2.2,0.9-3.4,0.6C145.4,171.5,145.5,168.7,144.1,166.9z"/>
	<path class="st45" d="M235.4,147.6c1.8-2.9,1.9-6.2,1.8-9.4c0.6-0.1,1.1,0.3,1.6,0.5c3.2,0,6.7,1.5,8.9-2.3
		c0.4-0.3,0.8-0.5,1.3-0.6c2.5-0.1,5.2-0.5,4.7,3.5c-0.4,1.9-1.5,3.2-2.9,4.6C245.8,146.1,241.2,149.3,235.4,147.6z"/>
	<path class="st46" d="M212.3,322.3c1.4-3.5,3-7.1,4.2-10.8c2.3-7.6,1-15.6,2.3-23.3c0.5-0.3,0.9-0.3,1.4,0c3.7,4.4,2,9.8,1.9,14.7
		c0,1.6-0.6,3.2-0.6,4.9c0.4,2.2-0.6,4.1-1.1,6C218.7,317.6,215.1,319.5,212.3,322.3z"/>
	<path class="st47" d="M-27.5,272.5c-4.2,4.6,2.8,3.4,2.5,5.5c0-4.8,2.7-9.5,2.9-14.6c1.4,1.4,1.1,3.2,1.3,4.8
		c0.1,1.8-0.5,3.7,1.3,5.1c2.9,2.2,1.4,3.4-1.1,4.4c0.1,1.8,3,2.2,2.3,4.3c-1.1,1-2.4,1.3-3.9,0.6c-0.3,1.3-0.5,2.4-0.6,3.7
		c-1.3-2.4-2.5-4.7-6.1-3c-0.8,0.4-3-7-2.2-8.4C-30.4,273.6-30.2,271.1-27.5,272.5z"/>
	<path class="st48" d="M208.6,109.1c2.5,3.2,6,1.6,9.1,1.9c2.7,0,5.2,0.3,7.7,1c1.3,0.4,3.3,0.3,3.2,2.4c-6.6,0.6-13.2,0.8-19.8-0.8
		c-1.6-0.4-3.3-0.5-4.4-1.9c-0.8-0.9-1.9-1.4-2.9-0.6c-3.5,3.2-5.1-0.5-7.2-2c-0.6-0.4-1.5-0.8-0.8-1.8c0.5-0.5,1.3-1.3,2-0.6
		c1.6,1.5,2.7,0.6,3.7-0.6c-0.5,3.8,1.9,3.7,4.6,3.8C205.6,110,207.1,109.5,208.6,109.1z"/>
	<path class="st49" d="M250.4,119.7c0.4,0.3,0.9,0.5,1.3,0.9c1.8,4.6,3.8,9,2.8,14.1c-2.3,0.4-4.4,1.3-6.6-0.4
		c-0.6-0.6-1-1.4-1.3-2.2c-0.3-2.5-1-4.9-1.9-7.4C245.4,121.9,246.6,119.4,250.4,119.7z"/>
	<path class="st50" d="M251,282.8c-2.9-3.2-2.8-7.5-3.8-11.3c-0.3-1,0.8-2.4-1.1-2.8c-1.9-0.5-2.4,0.9-3.3,1.9c0-2.2,0-4.2-0.1-6.3
		c1.9-0.6,1.5-2.7,2.5-3.8c1.3-2.3,0.9-5.1,1.9-7.5c0.8-1.8,1.4-3.8,4.1-3.3c0.6,3-1.4,5.7-1.1,8.6c-1,2.2,0,4.9-1.9,6.8
		c-0.1,0.1-1,0.4-0.1,0.5c4.1,0.3,2.5,3.4,2.9,5.6c0.6,3.3,2.4,6.2,2.7,9.5C252.6,281.4,251.9,282,251,282.8z"/>
	<path class="st51" d="M153.4,187.9c0.1,7.7,0.1,7.9-7.6,8.2c-2.4,0.1-4.6,2.2-7.1,1c-1.9,1.1-3.8,1.8-5.5-0.5c-0.4-0.5-0.3-1,0-0.5
		c0,0,0.5-0.1,0.8,0C140.6,193.5,147,190.7,153.4,187.9z"/>
	<path class="st52" d="M195.8,27c-0.5,7-0.4,6.8,7.1,4.4c1.1-0.4,4.4,0.8,5.6,3c-4.8,0-9.8,0.3-14.6-0.1c-2.5-0.1-3.9,0.8-4.6,3
		c-0.9-0.3-1.4-0.9-1.9-1.6c-1.9-4.6,1.5-7.4,3.8-10.4c0.3,0,0.5-0.1,0.6-0.3C193.9,24.2,195.3,24.5,195.8,27z"/>
	<path class="st53" d="M144.1,166.9c1.9,1,1.6,3.8,3.7,4.7c1.9,2.7,4.3,1.6,6.7,1c1.5,0.3,2.8,1,3.9,2.2c1.3,1.8,1.6,3.9,2.9,5.6
		c0.4,1,1,1.9,0.4,3c-3.2-0.3-5.7-2.3-8.5-3.4c-1.3,1.8,0.6,3,0.1,4.6C150,178.8,146,173.4,144.1,166.9z"/>
	<path class="st54" d="M135,262.2c0.9,0.6,1.5,1.4,2.5,1.8c1,0.4,2.8,0.3,2.5,1.9c-0.1,1.4-1.8,0.8-2.7,1.1c-2,0.8-1.4,2.5-1.4,3.9
		c-0.1,7.9,0,15.8-0.1,23.7c0,1.5,0.6,3.4-1.1,4.6c-0.9-0.1-1.6-0.1-2.5-0.3c1-0.9,1.9-1.8,1.9-3.4c-0.5-10.8,0.9-21.5-0.9-32.2
		c0.3-0.3,0.6-0.6,0.9-0.9C134.4,262.1,134.6,262.1,135,262.2z"/>
	<path class="st23" d="M134.2,196.3c0.8,0.8,0.8,0.8,4.6,1c0,1-0.1,1.9,0.8,2.7c0.6,0.6,0.8,1.4,0.5,2.3c-3.5,3.5-8.1,1.3-12.2,1.9
		c-1,0-2,0.3-3-0.4c-0.4-0.8-1.1-0.8-1.8-0.9c-1.4-0.9-1.4-1.8,0-2.8c2.2-1.5,4.9-1.8,6.8-3.5c0.4-0.5,0.8-1,1.3-1.4
		c0.6-0.3,1.3-0.1,1.8,0.4C133.6,195.7,133.9,195.9,134.2,196.3z"/>
	<path class="st55" d="M253.5,234.8c-4.3-5.3-10.9-6.8-16.4-10.3c-0.4-0.3-0.6-0.5-1-0.9c4.6-0.1,8.2,3.5,12.9,2.9
		c0.3,2.3,2.7,2.2,3.9,3c2.7,1.8,4.6,3.4,3.3,6.8c-0.9,0.8-0.3,1.9-0.6,2.8c-0.4,0.3-0.6,0.3-1,0.3c-1.3-1.6-1.8-0.1-2.5,0.5
		c-2.2,1.5-3.2,4.8-6.6,4.1c-0.6-3.3,2.5-4.1,3.8-6.1C250.5,236.7,251.9,235.7,253.5,234.8z"/>
	<path class="st56" d="M253.5,280.6c-2.9-2.7-3-6.5-3.8-9.9c-0.4-1.9,1-4.6-2.8-4.2c-0.1,0-0.4-1-0.6-1.5c3.3-1.1,0.5-4.7,2.7-6.3
		c0.1,0.1,0.4,0.3,0.5,0.4c0.9,2.2,2.2,4.3,2.2,6.5c0,4.6,1.8,6.3,6.2,5.7c1.1,0.9,1.1,1.9,0.4,3
		C256.9,276.7,255.8,279.1,253.5,280.6z"/>
	<path class="st57" d="M-19.3,241.3c-1.6-1.6-2.2-4.2-5.7-4.2c-1.9,0-0.3-3.7-1-5.5c0.1-0.4,0.3-0.9,0.5-1.3
		c2.2-1.4,4.4-2.5,7.1-1.5C-15.1,232.3-15.3,235.2-19.3,241.3z"/>
	<path class="st58" d="M155.3,93.4c-0.1-1.9-1.1-1.1-2.2-0.8c-1.9,0.6-3,2.4-5.1,2.7c-0.5-0.4-0.5-0.8-0.3-1.3c3-3.4,8.5-4.1,10.3-9
		c1.3-1.1,2.8-1.4,4.4-1.3c1.9,3.4-0.6,10.3-4.1,11c-1.1,0.3-2,0-2.8-0.9C155.4,93.8,155.4,93.5,155.3,93.4z"/>
	<path class="st59" d="M220.6,308.6c-0.5-4.6,1.3-9.1,0.5-13.8c-0.4-2.4-0.8-4.6-1.6-6.8c-0.3-0.1-0.4-0.4-0.3-0.5
		c0.1-0.3,0.1-0.3,0.3-0.3c2.2-1.4,3.5-3.3,4.1,1.8c0.3,3.8-1.5,7.7,0.5,11.3c-0.6,2.4-1.3,4.8-1.9,7.2
		C221.8,308.1,221.6,308.7,220.6,308.6z"/>
	<path class="st60" d="M197.6,172.3c0.9,1.4,2.5,1.4,3.9,2.2c1.9,1,3.8,2.7,3.8,4.8c0.1,2.5-3.4,0.4-4.1,2.4c-3,1.1-4.1-1.3-5.3-3.2
		c-0.4-2.7-2.3-5.5,0-8.1C196.5,171,197,171.6,197.6,172.3z"/>
	<path class="st61" d="M110.5,198c-1.5-0.4-2.4-1.4-3.2-2.8c2.7-3.2,5.5-6.2,9.4-7.6c2.5-0.9,4.8-1.1,5.6,2.4
		c-0.1,0.1-0.3,0.3-0.5,0.4c-3.4,1-6.6,2.4-8.9,5.2C112.2,196.3,111.3,197.1,110.5,198z"/>
	<path class="st62" d="M227.8,221c2.2,2.2,4.3,4.3,6.3,6.5c1.3,2.2,1,4.3,0.3,6.5l-0.1-0.1c-1.5,0.6-2.3-0.6-3.3-1.4
		c-2-2.3-4.8-4.1-6.1-7c0.5-1.5,0.1-3,0.3-4.6C226,221,226.9,221,227.8,221z"/>
	<path class="st63" d="M147.8,94c0.1,0.4,0.1,0.8,0.3,1.3c-2.5,4.6-7.5,7.5-8,13.4c-0.3,2.7,1.3,5.1,0.5,7.6
		c-3.9-5.6-3.5-11.3,1.4-17.2C143.7,97.1,145.4,95,147.8,94z"/>
	<path class="st64" d="M195.8,170.2c0.3,2.8,0.5,5.7,0.8,8.5c-5.5-1.3-8.4-7.1-6.3-12.7c0.4-0.6,0.9-1.1,1.5-1.5
		c0.9-0.4,1.8-0.4,2.7,0c1.3,1.1,1,2.7,1.1,4.2C195.7,169.2,195.7,169.7,195.8,170.2z"/>
	<path class="st65" d="M-6.7,274.4c2.4-3,1.5-5.7-1-8.4c-2.8-3-6-5.8-7-10.1c0.9-1.1,2.3-1.3,3.5-1.4c3.3,1.5,3.4,1.6,2.5,4.6
		c-0.3,0.9,0.1,1.1,0.5,1.4c2,1.6,2.5,4.1,3.3,6.3c-0.3,3.2,0.9,6.3-1,9.3C-6,275.7-6.3,275-6.7,274.4z"/>
	<path class="st66" d="M-10,274.3c0.4,0.1,0.6,0.1,1,0.3c0,2.7,3,5.1,0.9,8c-2.3,3-5.2,4.7-9,3.7c-2.2-0.6-4.3-1.9-1-4.2
		c0.3-0.4,0.6-0.6,0.9-0.9c2.3-0.9,5.7,0.1,5.7-4.1C-11.4,275.9-12.2,274.3-10,274.3z"/>
	<path class="st67" d="M-18.3,229.4c-2.4,0.3-4.8,0.6-7.2,0.9c0.6-2.3,2.9-2.5,4.4-3.8c1-1.1,3.7-0.1,3.7-2.7c0-0.9,0-1.9,0-2.8
		c0.3,0,0.6,0,0.9,0c1.8,1.8,3.9,2.5,6.5,2.5c1.3,0,2.7,0,3.7,1.1c0.1,0.4,0.1,0.9-0.3,1.3c-2.4,1.5-5.6,1.3-8,3
		C-15.7,229.6-17,230.3-18.3,229.4z"/>
	<path class="st68" d="M225.1,221c2.2,1.4,2.7,2.9,0.1,4.4c-1.1,1.8,0.3,5.8-4.2,4.4c-1.6-6.7-0.8-13.6-0.9-20.3
		c0-1.3,0.4-2.4,1.4-3.2c0.3-0.1,0.5-0.1,0.8-0.1c0,3.2,0.4,6.5,0.1,9.6C222.3,218.2,223.1,219.8,225.1,221z"/>
	<path class="st69" d="M157.2,149.3c-4.9-2.7-8.5,0.1-12.3,2.9c2.2-4.4,6.1-7,10.1-9.4c0.8-0.3,1.4-0.6,2.2-0.5
		c0.4,0.1,0.6,0.4,0.9,0.8c-0.8,1.6-5.5,3.9,0.6,4.6c0.6,0,1.1,0.4,1.4,1c0,0.9-0.4,1.5-1.1,1.9
		C158.1,150.7,157.4,150.3,157.2,149.3z"/>
	<path class="st70" d="M162.5,84.2c-1.5,0.3-2.9,0.5-4.4,0.8c0.3-3,1.4-6,2.3-8.7c1.6,3,6.3,2.9,7,7
		C165.7,83.5,164.2,84.1,162.5,84.2z"/>
	<path class="st71" d="M191.3,25.4c-0.1,0.6,2.5,0.8,0.4,1.9c-3.2,1.8-3.5,4.8-3.3,8.1c0.8,2.4,0.1,3.8-2.7,3.4
		c-0.9-0.5-1.8-1-2.7-1.5c0.3-3.2,0.6-6.2,3.5-8.1C188.7,28.9,188,24.5,191.3,25.4z"/>
	<path class="st72" d="M235.4,147.6c5.3-0.5,10.1-2.8,15.3-3.9c-0.8,2.4-3,2.9-4.9,3.5c-4.4,1.5-8.9,2.7-13.3,3.9
		C233.4,150,234.4,148.8,235.4,147.6z"/>
	<path class="st73" d="M202.8,86.4c0.6-0.1,1.4-0.3,2-0.3c0.1,0.4,0.5,1,0.4,1.3c-2.2,2.9-2.5,6.3-3,9.8c-1.3,0-1.5,1.6-2.8,1.8l0,0
		c-1.9-1.4-1.9-1.4,0-4.7C201.2,91.9,199.6,88.1,202.8,86.4z"/>
	<path class="st74" d="M-17.5,281.6c-1.8,1.8-2.4,3.3,0.9,3.7c2.7,0.3,5.5,0.3,7-2.7c0.4-0.8,0.8-2,1.4-0.1
		c-3.2,6.5-9.8,6.6-14.2,0.1c1.3-0.4,2.7-0.8,3.9-1.1C-18,281.2-17.7,281.4-17.5,281.6z"/>
	<path class="st75" d="M186.5,29.1c0.1,2.8-4.4,4.7-1.5,7.9c-0.8,0.1-1.4,0.1-2.2,0.3c-1.1-1.1-2.3-2.4-3.4-3.5
		C180.8,30.8,183.2,29.2,186.5,29.1z"/>
	<path class="st76" d="M195.6,168.7c-1.6-0.9-1.8-2.2-1-3.7c-0.1-0.4-0.1-0.8,0.1-1.1c1.4-0.9,2.9-1.6,4.7-1.5
		c2-0.1,3.4-2.2,5.6-1.8C201.8,163.2,198.6,166,195.6,168.7z"/>
	<path class="st67" d="M-18.5,218.4c-3,2-6.8-0.6-9.9,1.6c-2.5,0.1-5.2,0.3-6.5-2.7c0.3-0.6,0.4-1.5,1.5-1
		C-28.8,218.6-23.6,218.2-18.5,218.4z"/>
	<path class="st77" d="M-35.1,286.4c3.9-2.4,6,1.4,8.7,2.7c-0.4,0.6-0.8,1.1-1.3,1.8C-31.1,291-33,288.5-35.1,286.4z"/>
	<path class="st78" d="M258.2,274.3c-0.3-0.9-0.6-1.8-0.9-2.7c-1.4-2.2,0.3-3.5,1.1-5.3c0.3-0.4,0.6-0.6,1-0.8s0.9-0.1,1.3,0
		c0.6,0.3,0.9,0.9,1.1,1.5c0.1,0.4,0.3,0.6,0.4,1C262.4,271.1,261.1,273.2,258.2,274.3z"/>
	<path class="st79" d="M166.4,297.5c0-0.4-0.1-0.8-0.1-1.1c0.9-1.5-1-3.7,1.3-4.9c1,0,1.6,0.6,2.3,1.4c1,2.2,1.8,4.4,2.5,6.7
		c0.5,1.6,1.1,3.5-1.4,4.4c-0.1-0.1-0.1-0.3,0-0.4C170.5,300.8,168.8,298.9,166.4,297.5z"/>
	<path class="st80" d="M133.2,195.3c-0.6,0-1.3,0-1.9,0c-3.3-1.3-6.8-2.3-8.9-5.5l0,0C127,189.7,131.3,190.1,133.2,195.3z"/>
	<path class="st69" d="M166.3,136.6c1.6,2.9,0.1,5.3-4.2,6.2c-1.3,0.3-2.7,0.1-4.1,0.3l-0.3-0.3c0.5-2.3,2.7-1.9,4.2-2.7
		c1.1-0.6,2.9-0.8,2.3-2.8C164.9,136.7,165.6,136.3,166.3,136.6z"/>
	<path class="st81" d="M164.4,137.4c0.5,0.9,2,1.6,0,2.5c-2.2,0.9-4.3,1.9-6.5,2.9c-0.9,0-1.9,0-2.8,0
		C157.6,140,161.6,139.8,164.4,137.4z"/>
	<path class="st82" d="M248.1,133.8c1.9,1.5,4.4-1.1,6.3,0.9c0,1.5,0.6,3.3-0.9,4.6c-0.5-3.5-3.2-2.5-5.3-2.5
		C247.3,135.7,247.3,134.8,248.1,133.8z"/>
	<path class="st83" d="M264.4,234.7c-1.4-0.1-2-0.9-1.4-2.2c1-1.8-0.1-3.2-0.3-4.8C268,228.9,266.2,231.8,264.4,234.7z"/>
	<path class="st84" d="M218.2,186c-3.3,1.4-5.3-0.6-6.7-3c-0.8-1.1,0.5-1.6,1.8-1.5C214.7,183.1,216.4,184.5,218.2,186z"/>
	<path class="st85" d="M195.8,27c-1-1.3-2.4-1.8-3.9-1.8c0.1-1.4,0.5-2.8,2-3.3c0.6,1.9,4.3,1.3,3.5,4.3
		C197,26.4,196.5,26.7,195.8,27z"/>
	<path class="st86" d="M152.4,123.8c2.3,0.3,4.4,0.8,6.5,1.8c0.6,0.5,0.8,1.1,0.3,1.8h-0.3C155.9,127.3,153.9,126,152.4,123.8z"/>
	<path class="st87" d="M206.9,67.8c-1,0-1.9-0.1-2.9-0.1c-0.5-0.4-0.5-0.6,0-1c0-0.3,0-0.5,0-0.9c2.2,0.4,4.4-1,6.3,0.9
		c-0.3,0.4-0.6,0.6-0.9,1l0.1-0.1C208.6,68.4,207.8,68.3,206.9,67.8z"/>
	<path class="st5" d="M-17.5,223.8c1.3,1,2.8,2-0.1,2.5c-1.1,0.3-2.3,0.1-3.5,0.1C-20.4,224.8-18.8,224.4-17.5,223.8z"/>
	<path class="st88" d="M199.4,98.8c0.8-0.8,0.8-2.9,2.8-1.8c-0.3,1.9-0.4,3.9-2,5.3C200.2,101.2,200.8,99.8,199.4,98.8z"/>
	<path class="st89" d="M125,203.5c0.6-0.3,1.1-0.5,1.8-0.8c5.3,2.7,10.9,2.5,16.6,2c5.1,0.9,9.8,2.8,14.6,4.8
		c-0.8,5.8,0.5,11,4.1,15.7c1,1.4,2.3,3.3,4.3,2.8c2.4-0.6,3.7-2.9,3.8-5.2c0.1-3.2,0.1-6.5-1.5-9.3c-0.6-1.1-0.9-1.9,0.5-2.5
		c7-1,13.9-0.4,20.9-0.5c8.1-0.1,16-1,23.8-2.9c1.3-0.4,2.5-0.6,3.8-0.4c0.6,0,1.3,0,1.9,0.1c1.3,7.2,1.4,14.3-0.5,21.4
		c-0.4,1.3,0,2.4,0,3.7c-0.1,0.8-0.5,1.3-1,1.8c-0.8,0.6-1.5,1-2.4,1.5c-4.7,2-9.5,3-14.6,3.9c-2.5-0.3-3.2,1.9-4.4,3.4
		c-8.1,1.9-16.4,1.4-24.3-0.3c-5.2-1.1-10.5-1.5-15.7-2.4c-1.3-0.3-2.9,0.4-3.2-1.6c-0.3-2.7,2-1.4,3.4-2c-2.2-2.4-3.7-5.2-6.8-6.6
		c-2-0.9-1.5-2.4,0-3.5c1.6-1.3,1.8-2.7,0.6-4.3c-0.8-1-1.6-1.3-2.8-0.9c-1.9,0.6-1.8,2.2-1.8,3.8c0,1.6,0.1,3.4,0,5.1
		c-0.3,2.5-1.3,0-1.9,0.3c-0.5,1.1-1.4,1.6-2.7,1.8c-1.9,0.1-3.5,0.5-4.1,2.8c-0.4,1.5-1.8,1.9-3.2,2c-4.3-0.1-8.6-0.4-12.4-2.8
		c-1.1-1.6-0.9-3.5-1-5.3c0-1.9,0-3.9,0.3-5.8c1.4-3.4,0.3-7.1,0.6-10.6c0.3-2.2-1.6-0.9-2.7-1c-3.7-0.3-7.7,1.4-10.9-2l0,0
		c-0.3-1.3,0.6-1.9,1.5-1.8c3.4,0.4,6.5-1.1,9.8-1.3C123.2,208.9,123.8,205.7,125,203.5z"/>
	<path class="st90" d="M96.5,210c0.1,0.1,0.1,0.4,0.1,0.6c1.1,1.1,1.9,2.7,3.9,2.2c0.5-0.1,0.9-0.1,1.4-0.1c4.2,1.8,4.3,2.4,1.1,5.3
		c-0.9,0.9-1.8,1.6-2.4,2.8c-3.2,6-8.1,9.3-14.7,10.3c-2.2,0.3-4.3,0.8-6.1-0.9c2.4-4.1,6.7-6.1,10-9.3c2.7-2.5,3.5-4.7,0.9-7.5
		C91.9,210.9,93.2,208.9,96.5,210z"/>
	<path class="st91" d="M120.4,210c1-0.8,1.9-1.5,3.7-0.6c-2.8,3.8,0.1,8.5-1.8,12.5c-4.4,1.6-3.8,5.7-4.4,9.3
		c-0.5,0.5-1.1,0.5-1.8,0.4c-2-0.9-2.4-2.5-1.9-4.6c0-0.6,0.1-1.1,0.5-1.6c-0.3-5.5-2.5-10.1-5.3-14.6
		C112.9,209.7,116.7,211.3,120.4,210z"/>
	<path class="st92" d="M86.3,230.2c6.6-1.5,11.4-5.2,14.2-11.4c0.3-0.6,1-1.1,1.5-1.6c0.6-0.9,2.9-0.1,2.3-2.2
		c-0.5-1.4-2-1.1-3.2-1.3c0.3-2.3,1.6-3,3.8-2.8c1.8,2.5,3.5,4.9,5.3,7.5c1,1,0.5,2.3,0.4,3.4c-4.6,1.6-8.6,4.6-12.5,7.2
		c-1.5,1-3.3,1.4-5.2,1.5C90.5,230.9,88.4,232.2,86.3,230.2z"/>
	<path class="st93" d="M52.4,221.9c0-0.3,0.1-0.5,0.1-0.8c10.8-1.9,21.9-2,32.2-6.5c1.1-0.8,2.3-0.9,3.5-0.4
		c0.6,2.2-1.3,2.5-2.4,3.3c-4.4,2.9-9.4,4.1-14.6,4.6c-2.8,0.3-5.5,0.6-7.5,2.8c-1.9,2-3.8,1.1-5.6-0.3
		C56.2,223.9,52.9,225.7,52.4,221.9z"/>
	<path class="st94" d="M110.2,221.8c0-1.1,0-2.3,0-3.4c1.8,1.1,1.3,3.3,1.4,4.8c0.3,2.5,1.5,2.4,3.2,2.3c0.1,0.6,0.1,1.3,0.3,1.9
		c-1.8,0.6-3,1.8-2.4,3.7c0.8,2.3,2.2-0.1,3.3,0.1c0.6,0,1.3,0,1.8,0.1c0.3,0.5,0.3,0.9,0.1,1.4c-1.3,3-3.8,3.5-6.7,3.4
		c-2.4-0.3-4.7-0.9-7.1-1.3c-1.9-0.9-4.4,0-5.8-2.2c0.4-3.8,3.9-4.6,6.5-6C106.9,225.5,108.9,224.1,110.2,221.8z"/>
	<path class="st95" d="M110.5,198c-0.5-1.3,0.5-1.8,1.4-2.3c3.2-1.1,6.3-1,9.5-0.3c2.5,2.7,5.6-0.3,8.4,0.8c0.6,0.1,1.3,0.5,1.6,1.1
		c-2.4,1.1-4.8,2.7-7.5,3.5c-1.5,0.5-0.9,1.1-0.8,1.9C118.4,202.6,114.7,199.7,110.5,198z"/>
	<path class="st96" d="M119.7,206.2c-2.7,1.9-5.5,3.5-9,2c-0.8-0.4-1.8,0.1-2.3,0.9c-0.9-1.3-1.9-2.4-2.8-3.7
		c-0.3-0.6-0.4-1.3,0.1-1.8C111,200.9,115.2,203.9,119.7,206.2z"/>
	<path class="st97" d="M88.2,214.6c-1.1,0-2.4,0-3.5,0.1c2.7-1.6,5.2-3.4,8-4.8c1.1-0.6,2.7-1.8,3.8,0.3c-3-0.6-3.5,2.5-5.5,3.7
		C90.3,214.7,89.5,215.2,88.2,214.6z"/>
	<path class="st98" d="M104.8,210.9c-1.3,0.9-2.5,1.9-3.8,2.8c-0.3,0.1-0.6,0.1-0.9,0.3c-3-1.1-1-2.8-0.5-4.3c0.6-1.5,2.3-1,3.4-1.5
		C104.1,208.7,104.7,209.7,104.8,210.9z"/>
	<path class="st99" d="M105.7,203.7c0,0.6-0.1,1.3-0.1,1.8c-0.6-0.9-1.3-1.6-1.8-2.5c-0.8-1.5,0.1-2.5,1.1-3.5
		c0.4-0.3,1.3-0.4,1.5-0.1c1.4,1.4-0.8,1.9-0.8,2.9C105.6,202.8,105.7,203.3,105.7,203.7z"/>
	<path class="st100" d="M104.8,196.6c-1.9-1.3-4.7-0.8-6.2-3.2C101.9,192.8,101.9,192.8,104.8,196.6z"/>
	<path class="st96" d="M120.4,210c-3.5,2-7.4,0.4-11,0.9c-0.4-0.6-0.8-1.1-1-1.8C112.3,210.8,116.4,209.6,120.4,210z"/>
	<path class="st101" d="M100.1,209.1c0.4,1.6-2.3,3.2,0,4.8c-3.8,1.8-2.4-2-3.5-3.3c2.2,0.5,2.3-1.1,2.8-2.5
		C100.1,208.1,100.4,208.3,100.1,209.1z"/>
	<path class="st102" d="M100.1,209.1c-0.3-0.3-0.5-0.6-0.8-0.9c1-2.7,1.4-2.7,3.7-0.1C102.8,210.4,101.4,209.6,100.1,209.1z"/>
	<path class="st5" d="M20.3,220c-3-0.3-6.2,0.9-9.3-0.8C14.1,219.5,17.2,218.4,20.3,220z"/>
	<path class="st103" d="M135,262.2c-0.3,0-0.5,0-0.8,0.1c-8.6-2.9-17.6-3-26.5-4.6c-14.6-2.3-29.3-4.3-43.9-6.2
		c-12.8-1.8-25.7-3.3-38.5-4.8c-2.4-0.3-4.4-0.8-5.8-2.8c-0.8-1.8,1.6-3,0.6-4.9c0.8-1,1.6-1.6,2.9-1.6c9,0,17.9,1.8,26.7,3
		c10.5,1.5,21.2,2.9,31.7,4.3c4.9,1.3,10,1.8,15,2.8c11.8,2.2,23.5,4.9,35.5,6.2c1.4,0.3,2.5,0.8,3,2.3c1.4,3,2.5,2,3.4-0.5
		c1.1,1.8,2,3.7,2.2,6C138.7,262.3,136.5,260.6,135,262.2z"/>
	<path class="st104" d="M78.1,265c0.8,0.6,0.8,1.6,0.9,2.5c0.1,2.5,1.5,2.7,2.8,1c2-2.8,4.3-2.3,6.8-1.3c-0.5,2.7-5.2,2.7-4.3,4.8
		c1,2.3,2.4,5.5,5.8,5.8l0.3,0.4l-0.3,0.4c-5.1,1.3-7.2-3.2-10.4-5.7c-1.3,1.3-0.6,2.8-1,3.9c-1.1-0.4-2.3,1.8-3.4,0
		c-1.5-3.9-2.4-7.9,0-11.8C76.3,265.1,77.2,265,78.1,265z"/>
	<path class="st105" d="M71.5,275.2c-8.7,2.7-14.7-2.2-12.9-10.5c0.3-1,0.1-2.3,1.8-2.2c1.4,0.1,1.5,1.3,1.5,2.3c0,1.4,0,2.8,0,4.2
		c0.1,2.5,1.9,3.2,4.1,3.3c2.7,0.1,2.9-1.4,2.9-3.4c0-2.3-1-5.5,3.4-4.4C74.8,268.6,74.7,271.2,71.5,275.2z"/>
	<path class="st106" d="M56.3,273.1c-4.6,1.3-5.7-3.3-8.5-4.9c-1.8,0.4-0.3,4.3-3.2,3.3c-2.4-0.8-1.1-3-1.4-4.7
		c-0.1-0.6-0.1-1.3,0-1.8c0.4-1.6-1.1-4.2,1.3-4.7c2.4-0.5,2,1.9,2.4,3.4c0.3,1.4,1.1,1.1,2,0.5c0.9-0.6,1.8-1.3,2.5-1.9
		c1.4-1,3.3-1.4,4.2-0.3c1.1,1.5-1,2.3-2,2.9c-2.3,1.4-2,2.7-0.4,4.3C54.4,270.3,55.9,271.2,56.3,273.1z"/>
	<path class="st107" d="M71.5,275.2c1.6-3.5,1-7.1,0.9-10.8c1,0.3,2,0.5,3,0.8c0,3.9,0,7.9,0,11.8C74.2,276.2,73.6,273.9,71.5,275.2
		z"/>
	<path class="st108" d="M20,239.2c3.8,2.2-0.6,3.2-0.6,4.9c-1.1,2.2-2.9,0.9-4.6,0.9C15.8,242.3,17.6,240.4,20,239.2z"/>
	<path class="st109" d="M90.1,278.7c0-0.3,0-0.5,0-0.8c1-2,1.9-4.1,3-6.1c0.8-1.5,0.4-4.3,3.4-3.8c2.8,0.4,6,0,6.8,3.9
		c0.6,2.5,1.6,4.9,2.5,7.4c0.3,0.6,0.8,1.6-0.1,2c-0.6,0.3-1.8,0.1-2.2-0.3c-3.4-3.3-7-3.8-11-1.4C91.6,280.1,90.9,279.1,90.1,278.7
		z"/>
	<path class="st110" d="M96.5,248.7c-4.9-0.4-9.9-1.1-14.7-2.7c-8.2-1.8-16.6-2.2-24.8-3.8c-0.4-0.1-0.9,0.1-1.4-0.1
		c-1.3-0.5-3.5,0.3-3.4-2c0.1-1.8,2-1.8,3.4-2.3c3.3-1.1,6.6,0.6,9.9-0.1c8.7,1,17.5,2,26.2,3.7c1.5,0.3,3,0.4,4.6,0.5
		c9.3,1.5,18.5,2.2,27.8,3.5c1.4,0.3,3,0.4,4.4-0.4c0.4,0,0.6-0.1,1-0.1c1,0.8,1.4,1.6,1,2.8c1.9,1.6,3.9,3,5.5,5.2
		c1,1.5,0.8,2.5-0.9,3.2c-0.9-0.4-1.8-0.8-2.8-1.3C120.3,253,108.5,250.3,96.5,248.7z"/>
	<path class="st111" d="M-18.3,229.4c1.1-0.4,2.4-0.6,3.5-1c2.7-1.5,5.8-1,8.4-2.7l0,0c0.3-0.3,0.5-0.5,0.4-0.8
		c-0.8-1.4-4.2,0.3-3.3-2.4c0.6-1.9,2.9-0.8,4.6-0.9c1-0.1,2.2-0.3,3.2,0.3c0.3-0.1,0.5,0,0.8,0.1c6.1,2,12.5,3.2,17.4,8.1
		c-1.5,1.8-3.3,0.5-4.9,0.4c-2-0.1-3.8-2.3-6-0.4c-0.8,0.5-1.4,1.1-2.3,1.5c-6.7,2.9-8.9,8.1-8,15c-1,0.9-2,0.4-3,0.1
		c-1.5-0.8-3-1.5-4.7-1.8c-1.3-0.3-2.5-0.8-3.3-1.8c-1.3-0.6-3-0.3-3.7-1.9c0.1-1.5,0-2.9,1-4.3C-16.6,234.5-16.6,231.9-18.3,229.4z
		"/>
	<path class="st112" d="M65.3,238.4c-3.2,2.2-6.6-1-10,0.5c-0.9,0.4-1.9,0.4-2.9,1.9c7.2,1.1,13.9,2,20.8,3.2c2.9,0.5,6,0.1,8.6,2
		c-11.2-0.9-22.1-2.9-33.1-4.3c-8.1-1-16.1-2.9-24.3-2.7c-1.1,0-1.1-0.8-1.3-1.5c2.4-2.7,5.6-1.6,8.5-1.9c3-0.3,6.3,0.9,9-1.6
		c2.5-1.8,4.9,0.1,7.4,0.4c5.3,0.8,10.8,1.6,16.1,2.7C64.6,237.2,65.3,237.4,65.3,238.4z"/>
	<path class="st113" d="M185.6,253.2c-2.8-1.8-6.2-1.5-9.1-2.8c2.7-2.2,5.1,0.1,7.6,0.6c3.4,0.6,7,3.5,9.5-1.4
		c0.1-0.3,0.9-0.1,1.3-0.1c0.6-0.6,1.5-1.1,2.4-1c8.1,1.4,16.4,1.8,24,5.5c2.4,1.8,6.5,1,7.9,4.6c-1,1.8-2.5,2.9-4.7,2.7
		c-3.2-1.3-6.6-2.2-9.8-3.3c-2.8-1-5.3-0.6-7.4,1.8c-0.9,0.6-2,1-3,0.6C198,257.9,191.5,256.3,185.6,253.2z"/>
	<path class="st114" d="M103.9,233.8c2.4,0.4,4.8,0.8,7.2,1c3.4,1,7.1,0,10.6,0.8c4.4,0.4,8.9,2,13.3,0.1c0.8-0.1,1.8-0.3,1.6-1.1
		c-0.5-4.2,2.4-3.5,4.8-3.5c-0.5,1.8-3.4,3.3-0.9,5.6c1.5,5.6-3.7,1-4.4,3.3c2.5,0.5,5.2,1,7.9,1.5c-12.5-0.6-25.1-1.3-37.5-3.8
		c0.3-0.4,0.6-0.5,1.1-0.5c0-0.1-0.1,0-0.3,0c-5.7-0.8-11.4-1.5-17-2.3c-9.3-1.8-18.6-2.3-27.9-4.3c-0.4-0.5-0.3-1,0.1-1.5
		c5.2-2,10.1,0.1,15.2,0.8c1.8,0.3,3.5,1,5.3,1C90.3,231,97,232.7,103.9,233.8z"/>
	<path class="st115" d="M221.3,255c-8.6-3.2-17.5-4.6-26.6-5.5c-4.6-1.6-9.5-0.8-14.2-1.8c-1.1-0.3-2.4,0.3-3.8-0.8
		c2.4-2.4,4.7-0.4,7-0.3c6.3-2,12.8,0.1,19.1-0.1c8.1,0.8,16.4,1,24.5,2.5c1.5,0.3,3,0,4.2,1.5c1.5,2.2-1.4,4.2,0.1,6.3
		C227.8,258.2,224.9,255.4,221.3,255z"/>
	<path class="st116" d="M16.5,230.2c-2.4-0.6-5.2-0.5-6.1-3.7c-0.1-0.4-0.8-0.8-1.1-0.6c-4.3,1-6.7-2.7-10.1-3.8
		c12.9,0.1,25.7,0.8,38.5,1.9c1.3,0.6,2.5,0.3,3.9,0.4c1.6,0.1,2.4,0.8,1.6,2.5c-1.3,0.8-2.5,0.8-3.7-0.4c-4.8-2-10,0.1-14.8-1.4
		c-0.6-0.3-1.6,0.6-1.3,1.5c1.8,4.8-1.3,2.3-2.9,2C18.9,228.4,17.1,227.7,16.5,230.2z"/>
	<path class="st117" d="M39.6,226.5c1.3,0,2.4,0.1,3.7,0.1c3.5-1,6.7,0.9,10.1,0.9c3,0.9,6.5,0.1,9.1,2.4c9.4,1.4,18.9,2.8,28.3,4.1
		c-0.4,2.2-1.8,0.9-2.8,0.9c-18.4-2-36.6-4.7-54.8-8.5C35.4,226.5,37.4,226.5,39.6,226.5z"/>
	<path class="st118" d="M65.3,238.4c-8.2-1.4-16.6-2.9-24.8-4.3c-0.3-2.9,1.8-1.3,2.7-1.1c10.5,1.6,20.9,3.4,31.4,5.1
		c8,1.3,15.8,2.3,23.8,3.3c0.1,1.8-0.9,1.3-1.8,1C86.1,240.9,75.7,239.7,65.3,238.4z"/>
	<path class="st3" d="M203.1,247.8c-6.5,0.5-12.8-1.3-19.3-1c0.9-3.2,3.4-1.3,5.3-1.8c2.8-0.8,6.2,1.8,8.5-1.8
		c0.9-2.3,1.8-4.3,4.8-2.8c0.6,0.4,1,0.9,1.3,1.5c0.3,0.6,0.3,1.3,0.1,1.9C203.3,245,203.8,246.5,203.1,247.8z"/>
	<path class="st119" d="M96.5,242.3c0.6-0.4,1.3-0.6,1.8-1c10.1,1.3,20.2,2.4,30.3,3.7c-3.8,2.2-7.7,0.3-11.5-0.1
		C110.2,244,103.2,244.2,96.5,242.3z"/>
	<path class="st120" d="M88.1,235c0.9-0.3,2,0.1,2.8-0.9c6.5,0.9,12.9,1.9,19.5,2.9c-1.3,1.3-2.7,0.4-3.8,0.8
		C100.4,236.6,94.1,236.6,88.1,235z"/>
	<path class="st121" d="M152,237.2c-2.4,0.9-4.2-0.4-6.1-0.6c-1.5-0.3-1.5-1.1-0.9-2.3c0.5-1.1,1.4-1.6,2.5-0.9
		C149.1,234.5,150.5,235.9,152,237.2z"/>
	<path class="st122" d="M140.6,236.7c-3.3-2-3-3.4,0.9-5.6c0.9-0.3,1.8-0.6,2.5-0.9c-0.1,0.9,0.3,2.2-0.8,2.3
		C140.6,232.9,140.8,234.8,140.6,236.7z"/>
	<path class="st123" d="M202.1,241.2c-2.7-2-2.4,2.7-4.6,2c-0.3-0.1-0.5-0.1-0.8-0.1c-0.6-2.9,1-4.1,3.5-4.4
		C201,239.3,203.5,238.9,202.1,241.2z"/>
	<path class="st119" d="M130.4,247.6c-0.4-0.9-0.6-1.9-1-2.8c1.5-3,4.2-1.5,6.6-1.6c-1,1.3-2.9,0-3.7,1.5
		C131.8,245.7,131.2,246.8,130.4,247.6z"/>
	<path class="st124" d="M31.4,228.2c2.4,0.4,4.9,0.9,7.4,1.3C36.1,231.2,33.8,229.4,31.4,228.2z"/>
	<path class="st125" d="M156.9,247.8c-0.6,2.5-2.9,1.4-4.6,2c-0.4-0.6-1.5-1.6,0.1-1.9C154,247.5,155.5,247.8,156.9,247.8z"/>
	<path class="st126" d="M170.9,304.1c2-2.3,0.1-4.2-0.5-6.2c-0.5-1.6-1-3.4-1.4-5.1c4.8-0.9,7.1,3,9.9,5.2c-0.9-1.4-3.7-2.4-2.7-4.9
		c0.6-1.6,2.5-1.4,4.1-0.8c2.5,2.8,4.1,6.5,8,7.7c2.7,1.8,5.1,3.8,6.2,7c0.4,1.1,0.5,2.5-0.5,3.4c-1.5,1.3-1.9-0.9-2.9-1.1
		c-1.1-2.2-2.7-4.1-4.4-5.6c-2.9-1.3-3.4,2.2-5.2,3c-0.9,0.4-0.5,3.3-2.8,2.2c-2.2-1.1-6,1-6.7-3.2
		C171.6,305.1,171.3,304.6,170.9,304.1z"/>
	<path class="st127" d="M196.7,280c-0.8,1.4-1.3-0.3-1.9-0.1c-2.8-0.3-4.3,1.5-5.3,3.7c-0.6,0.6-1.3,1.3-2,1.9
		c-1.8-0.9-3.3-2.2-5.2-2.8c-2.7-0.9-4.3-2.8-3.8-6c4.9-5.3,11.7-4.9,18.1,1C197.2,278.6,197.2,279.3,196.7,280z"/>
	<path class="st128" d="M188.4,300c-5.7,0.8-6.3-3.9-8.2-7.4c-0.5-1.1,1.8-2.8-1.3-3.5c-1.9-0.5-1.9-2.7-0.1-4.2
		c2.8,0.3,5.5,0.5,7.9,2.3C191.4,290.9,189.3,295.6,188.4,300z"/>
	<path class="st129" d="M214,300c1.8,1.4-0.1,2.5-0.1,3.8c-0.5,1.6-0.9,3.4-2.8,4.1c-0.9,0.3-1.8,0.1-2.4-0.6c-0.9-0.5-1.8-1-3.3-2
		c0.5,3.3-0.1,5.8-1,8.6c0-2.9-0.9-4.6-4.2-4.6c-1.8,0-3.9-1.1-3.5-3.9c2.5-1.1,4.4-2.9,5.5-5.5c2.8,1.9,5.6,2.8,8.4,0.1
		C211.8,301.9,213,300.8,214,300L214,300z"/>
	<path class="st130" d="M202.2,300c0.6,4.3-1.1,6.1-5.5,5.5c-2.8-1.5-4.2-4.3-5.7-6.7c-1.8-2.7,0.6-4.4,3.2-5.3
		c1.1-0.1,1.6,0.5,1.8,1.5C196.9,297.8,199.8,298.6,202.2,300z"/>
	<path class="st131" d="M196.7,280c-0.1-0.8-0.1-1.4-0.3-2.2c0.3-0.1,0.4-0.3,0.6-0.4c2.9-0.1,4.8,1.9,6.7,3.5
		c3.9,3.4,5.7,8.2,7.9,12.7c0.5,1.1,0.6,2.4-0.3,3.4c-0.8,0.1-1.5,0.3-1.9,1c-3.2,1.9-4.1-1.1-5.7-2.7c0.6-5.2-0.3-9.9-4.8-13.1
		c-0.4-0.3-0.6-0.6-0.9-1C198,280.6,197.5,280.2,196.7,280z"/>
	<path class="st132" d="M186.5,287.2c-2.9,0.4-5.5-0.6-8-1.8c-1.9-1-2.2-2.8-2.2-4.6c0.5-1.5,0.3-3.8,2.9-3.4
		c0.5,2.7,1.8,4.3,4.7,4.6c1.8,0.3,3.4,1.3,3.5,3.5C187.1,286.1,186.8,286.7,186.5,287.2z"/>
	<path class="st133" d="M211.2,307.3c0.9-1.1,1.8-2.3,2.7-3.4c0.6,3.9,0.1,7.6-2.2,11.2c-1.3,2-1.6,4.8-2.4,7.2
		c-0.3,0-0.5-0.1-0.8-0.3C206.7,316.6,208.8,311.9,211.2,307.3z"/>
	<path class="st134" d="M186.5,303.5c3.7,0.1,5.1,2,4.4,5.6c-1.9,1.4-3.7,1.4-5.2-0.5C184.2,306.8,184.6,305.1,186.5,303.5z"/>
	<path class="st135" d="M199.1,281.9c5.8,3.5,6.8,6.5,4.8,13.7c-0.4-4.7-2.5-8.6-5.2-12.3C198.1,282.6,198.5,282.2,199.1,281.9z"/>
	<path class="st136" d="M195.7,295.1c-0.6-0.5-1.1-1-1.8-1.5c-0.8-2.8,1.8-3.2,3.3-3.3c1.3-0.1,2.2,1.6,2,3
		C199.1,295.3,197.6,295.8,195.7,295.1z"/>
	<path class="st135" d="M189.5,283.5c0.5-3,1.6-5.3,5.3-3.7C192.8,280.9,190.9,281.9,189.5,283.5z"/>
	<path class="st137" d="M199.1,281.9c-0.1,0.5-0.3,1-0.5,1.5c-1.6,1.4-3.2,1.8-4.6-0.4c1.1-1.1,2.5-1.5,4.1-1.5
		C198.5,281.6,198.8,281.7,199.1,281.9z"/>
	<path class="st138" d="M214.1,300c-0.9,1.3-1.4,3.2-3.5,2.2c-1.3-0.6-0.5-1.4,0-2C211.7,300.1,212.8,300,214.1,300z"/>
	<path class="st139" d="M179.2,277.3c-1.4,0.8-1.5,2.2-2,3.4c-1,1.1,0.8,3.4-1.6,4.1c-2.3-0.6-1.5-2.7-1.8-4.2
		c-0.6-3.5,0.1-7.4-0.8-10.9c-0.4-1.6-1.1-3.5-3-3.5c-1.6,0-1.6,1.9-2.2,3.2c-2.2,5.7-3.2,11.8-5.2,17.5c-0.6,1.9-0.3,3.5,1,5.1
		c0.9,1,2.3,1.8,1.8,3.4c-6.7,2.3-7.7,1.3-7.5-5.5c0.4-8.6,2.2-16.7,5.1-24.8c1.3-3.5,3.5-6.3,4.8-9.9c0.6-2,2.4-2.7,4.2-0.6
		c1.3,1.4,2.5,2.8,4.6,0.9c1.1-1,2.3-0.4,2.9,0.9c0.9,1.4,1.9,2.8,2.5,4.3c4.1,9.1,4.1,9.1,14.3,8.1c2.5-0.3,4.9,0.3,7.5-0.9
		c1.8-0.8,3.5,0,5.1,2c2.7,3.8,6,7,10.8,8c1.3,1.6,1.8,3.5,0.9,5.6c-0.6,0.6-1.3,1.3-1.9,1.9c-1.3,1.1-2.8,1.5-4.4,1.3
		c-3-2.7-3.5-7-6.5-9.8c-0.9-1.4-2-2.7-3.3-3.5c-3.2-2.2-6-1-6.8,2.8c-0.1,0.8-0.4,1.4-1,1.9l0,0c-2.2-0.1-3.2-2.2-5.1-2.8
		C187,273.8,182.7,273.2,179.2,277.3z"/>
	<path class="st140" d="M185.6,253.2c6.1,0.5,11.5,3.4,17.2,5.3c1.4,0.4,2.7,1.9,4.1,0c4.8-0.6,8,2.5,11.5,4.9c0.5,0.5,1,1,1.4,1.6
		c1,2.2,1.6,4.3-0.1,6.3c-4.4,2.9-6.1,2.7-8.5-2.7c-2-4.3-4.8-5.5-9.1-4.2c-3.5,1-7.2,0.4-10.9,1.1c-2.9,0.6-6.5-5.6-6.2-10
		C184.8,255,185.3,254.1,185.6,253.2z"/>
	<path class="st141" d="M165.4,295.4c-4.8-3.2-5.1-7.1-2.9-12.2c1.9-4.6,2.8-9.6,4.3-14.5c0.6-1.9,0.9-5.5,3-4.8
		c2.3,0.8,4.7,3.2,4.7,6.6c0,4.7-0.3,9.3,0.9,13.8c0.1,0.3,0.1,0.8,0,0.8c-4.3,0.1-6,3.7-8.2,6.5c-0.9,1.5,1.6,3.5-0.9,4.7
		C166.1,296.1,165.7,295.7,165.4,295.4z"/>
	<path class="st142" d="M219.6,271.6c0-2.2,0.4-4.4-0.9-6.5c2.4-3.7,6.2-4.2,10-4.7c1.9,5.8,6.3,10.9,5.6,17.6
		c-0.3-0.3-0.5-0.4-0.6-0.6c-0.6-0.9-1.8-2.4-2.3-1.4c-2.3,5.1-8.1-2.5-10,2.9c-2.8-1.1-0.4-3.9-1.8-5.6
		C219.6,272.7,219.6,272.1,219.6,271.6z"/>
	<path class="st140" d="M219.6,273.4c1.9,1.4-0.1,4.1,1.8,5.6c-0.3,1.5,0.6,3.3-0.9,4.6c-0.3-1.9-0.6-3.7-0.9-5.6
		C219.6,276.4,219.6,274.9,219.6,273.4z"/>
	<path class="st143" d="M191.2,166c-1.9,6,1.1,9.6,5.6,12.8c1.6,0.8,2.5,2.8,4.6,2.8c0.5,0.4,1.6,0.9,1,1.4s-1.8,0.1-2.8,0.3
		c-1.8-0.1-3.4-0.9-5.5-1.6c-0.1,3.7,1,6.2,3.5,8.2c1.4,1.1,3.3,2.3,2.9,4.7c-5.3,1-5.7,5.3-6.1,9.5c-7-0.9-14.1-0.6-21-2
		c-1.4-0.1-2.7-0.4-3.9-0.9c-0.9-0.4-2.4-0.6-2.2-1.9c0.3-1.1,1.6-1.3,2.7-1.4c3-0.3,6.1,1,9.3,0.1c0.1-2.4,2.7-2.2,3.8-3.4
		c2.5-2.7,2.8-8,0.6-11.8c-2-3.5-5.1-6.5-6.3-10.4c3.5-1,6.8-2.2,9.1-5.5C187.5,165.5,189.1,164.4,191.2,166z"/>
	<path class="st144" d="M179.2,198c1.4,2.3-0.4,1.9-1.4,1.5c-3.2-1.1-6.3-0.1-9.6,0c1.8,0.5,3.7,0.9,5.5,1.4
		c1.6,1.3,3.7,1.4,5.5,2.2c1.8,0.8,3.7,2.3,3.2,4.4c-0.4,2-2.5,1.8-4.2,1.8c-1.8,0.1-3.7,0-5.5,0.1c-5.6,0.1-11.3,0.4-16.7-1.3
		c-2-0.6-4.8-0.4-5.1-3.5c3.2,0,3.7-2.2,3.7-4.6c0.1-4.3,0.1-8.7,0.1-13.1c2.2,3.3,0.1,8.4,4.8,10.6c1.1,0.5,1.4,3.4,3.2,1.5
		c1.8-1.8-1.4-2-1.9-3.9C167.1,195.4,173,197.1,179.2,198z"/>
	<path class="st145" d="M174.6,140.2c1-0.4,1.3-2,2.8-1.8c5.1-0.4,2,3.7,3,5.6c-0.6,1.6-1.9,2.8-3.5,3.4c-3.3,1-5.2,3.5-7.6,6.5
		c2.3,0.1,3.3-3,5.5-1.3c1.5,1.3,2.7,2.9,3.2,4.9c1,6.5,0.3,7.6-5.2,7.6c-0.9-1-1.8-1.9-2.7-2.9c-3-3.2-5.5-6.8-7-10.9
		c1.3-3.4,3.4-6.2,6.7-7.6C171.6,142.7,172.9,141.2,174.6,140.2z"/>
	<path class="st146" d="M172.6,165c4.7-0.5,4.8-3.8,4.7-7.4c3.8,1.6,7.5,3.2,11.7,3.5c1.9,0.1,4.2,0.8,3,3.7c-0.3,0.4-0.6,0.6-0.9,1
		c-2.7-0.4-4.1,1.5-5.3,3.3c-2.2,2.9-4.8,4.2-8.5,3C175.6,170.1,173.4,167.9,172.6,165z"/>
	<path class="st147" d="M169.1,168.7c4.3,3.8,4.6,8.1,0.9,12.9c-3.4-2.5-5.2-5.7-3.9-10.1c0.3-1.1,0.8-2.2,1.8-2.9
		C168.2,168.3,168.7,168.3,169.1,168.7z"/>
	<path class="st148" d="M169.1,168.7c-0.3,0-0.6,0-0.9,0c-2-3.5-1.1-7.9-3.7-11.4c-1.8-2.4-4.2-4.3-5.5-7.1c0.3-0.5,0.6-1.1,0.9-1.6
		c2.3-0.5,2.9,1.3,3.7,2.7c2.3,3.5,5.1,6.8,6.5,10.9C169.7,164.4,169.4,166.5,169.1,168.7z"/>
	<path class="st149" d="M160.7,180.7c-2-1.3-1.9-3.7-2.7-5.6c1.8-1.8,3.9-1.9,6.2-1.4c1.4,3,5.1,5.3,3.8,9.5c-0.6,0-1.1,0.1-1.8,0.1
		c-1.9-1.3-3-3.4-5.1-5.5C161.2,179.2,161.6,180.2,160.7,180.7z"/>
	<path class="st150" d="M160.7,180.7c-0.3-1.3-0.4-2.5-0.8-4.3c3.9,1,5.1,4.1,6.3,6.8c-1.5,1.3-3,1.1-4.6,0
		C161.4,182.5,161,181.6,160.7,180.7z"/>
	<path class="st151" d="M168.1,183.2c-0.1-3.5-3.7-5.7-3.7-9.3c0-1.8,1-2.7,2.7-2.9c-1.6,4.2,1.5,7.1,2.9,10.4
		C169.6,182.4,169.1,183.1,168.1,183.2z"/>
	<path class="st152" d="M-7.4,246c0.9,0.3,1.8,0.5,2.7,0.8c0,0.4,0,0.6,0,1c-1,2-2.8,2.9-4.8,3.7c-1.1,0.5-2.9,0.5-2,2.5
		c0.3,0.4,0.4,0.6,0.4,1c-0.9,1.3-2.3,0.8-3.5,0.9c-0.4,0-0.8,0-1,0c-2.4-0.8-4.8-1.4-7.5-1c-2.5,0.5-5.1-0.8-7.4-2
		c-0.8-0.5-1.5-1.1-0.4-2.2C-22.9,249.4-15.2,247.1-7.4,246z"/>
	<path class="st153" d="M-11,255.1c-0.3,0-0.5-0.1-0.8-0.1c0.6-4.7,4.1-3.9,7.2-3.7c0,5.2,0,10.4,0,15.6c-1.6-2.2-3.3-4.3-4.9-6.5
		c-1.8-2.3-0.3-2.4,1.8-2.2C-8.6,256.8-9.6,255.8-11,255.1z"/>
	<path class="st154" d="M-4.6,251.3c-2.3,1.5-6,0.1-7.2,3.7c-3.4-2-1.1-3.8,0.8-4.2c2.4-0.6,4.2-2.2,6.5-3
		C-4.6,248.9-4.6,250.2-4.6,251.3z"/>
	<path class="st155" d="M223.2,125.4c6.3,2.9,8.7,8.1,8.5,14.8c-0.1,7-5.2,10-12,7.2c-2-0.9-3.2-3.3-5.6-3.5c-0.5-0.3-0.8-0.6-1-1.1
		c-2.5-4.6-2.8-9.1-0.1-13.8C215.4,124.8,218.5,123.8,223.2,125.4z"/>
	<path class="st156" d="M180,144c0-1.1-3.7-1.3-0.6-3.4c1.3-0.9-1.8-0.9-2.2-2c0.1-1.1,0.5-1.9,1.9-1.4c1.4,0.6,2.2-0.4,2.7-1.4
		c3-1.5,6.1-3.2,8.4-5.8c2.8-0.5,3.9,1.3,4.6,3.4c0.8,2.7,2.4,4.4,4.7,5.7c2.7,4.4,6.7,7.6,10.9,10.6c0,4.6-2.9,1.6-4.6,1.8
		c-3.9,0.8-7-1.5-10.3-2.9c-1.8-0.8-3.5-1.8-5.3-2.7c-1.4-0.8-3-1.4-4.3-2.7c-0.3,0.6,0.4,1,0.4,1.6c0,1.3,1.3,2.8,0.1,3.8
		c-1.5,1.3-2.8-0.1-4.1-0.8C181.1,146.6,180.1,145.6,180,144z"/>
	<path class="st157" d="M248.1,133.8c0,0.9,0,1.9,0.1,2.8c0,0.3,0,0.6-0.1,0.9c-3.4,0.3-6.7,1-10,1.5c-0.3-0.3-0.6-0.6-0.9-0.9
		c0.1-5.7-2.8-9.8-6.5-13.7c1-3.3,4.3-3.8,6.7-3.9c3.7-0.3,6.2-2.2,8.9-4.3l0,0c1.9,0.5,3,1.9,4.1,3.4c-2.7,1-4.4,2.9-4.9,5.7
		c1.5,1.9,1.1,4.3,1.8,6.5C247.4,132.5,247.8,133.2,248.1,133.8z"/>
	<path class="st158" d="M199.3,139.3c-3-0.5-4.9-2.3-5.3-5.3c-0.4-2.3-1.4-3.5-3.7-3.9c-1.5-1.5-2.3-3.4-2.2-5.6
		c1.6-2.7,3.5-4.7,7.1-4.7c2,0,3.2-2.2,5.1-2.7c4.8-0.3,9.6,0,13.9,2.8c-0.9,3.7-4.9,0.4-6.5,2.8c-2,2.9-5.8,3.9-7.6,7.1
		C197.2,132.8,200.2,136.2,199.3,139.3z"/>
	<path class="st159" d="M190.1,144.7c5.2,2.2,10.4,4.3,15.6,6.5c1.4,3.7-0.4,6.2-3.2,8.2c-1.3,0.9-2.7,1.5-3.2,3
		c-1.3,1.1-2.8,1.9-4.6,1.9c-2-0.6-3-2-3.7-3.9C191.7,155.1,189.8,150,190.1,144.7z"/>
	<path class="st160" d="M214.1,120c-4.8-0.6-9.6-2.2-14.7-1.8c-0.9,0.5-1.9,0.8-2.9,0.4c-2-1.4-4.3-1-6.6-1.1
		c-1.9-0.1-4.1,0.5-5.3-1.6c1.5-2.8,3.7-0.6,4.8-0.9c-2.8-0.9-2.9-4.1-3.7-6.7c0.3-1.3-0.4-2.4-0.6-3.7c0-0.8,0-1.6,0.5-2.2
		c3.7-3.9,5.2-8.9,6.5-13.9c3.9,0,4.9,1.4,4.1,4.8c-0.6,2.4-2.9,3.5-3.9,5.6c-0.9,1-1.8,2.2-2.7,3.2c-1.4,1.6-1.8,3.9-0.4,4.9
		c4.6,3.2,7.4,9,14.3,8.6c4.4-0.1,8.9,1.6,13.4,2.5c1.9,1.5,5.7-1.5,6.5,2.7C220.2,120.5,217.3,119.5,214.1,120z"/>
	<path class="st161" d="M199.4,129.1c1.9-3.3,4.9-4.9,8.2-6.5c3.4,0,6.8,0.1,10.4,0c2.3-0.1,4.1,0.6,5.2,2.7
		c-9.4,0.4-13.4,6.7-9.8,15.5c0.3,0.6,0.4,1.4,0.5,2.2c-0.4,0.3-0.9,0.3-1.3,0c-1.9-1.4-2.5-3.4-2.5-5.6c0.1-3.4-1.4-4.6-4.6-4.6
		c-1.8,0-3.7-0.3-5.3-0.6C199.1,131.4,198.5,130.5,199.4,129.1z"/>
	<path class="st162" d="M223.4,120.9c-1.5-2.3-4.6-1-6.5-2.7c8.4-1,16.9,0.3,25-2.7c1.5-0.5,3,0.1,4.4,0.9c-1.6,3.2-3.7,4.2-6.8,4.7
		c-3,0.5-6.1,1.6-8.7,3.4C228.3,123.2,226.1,121.4,223.4,120.9z"/>
	<path class="st163" d="M213.1,142.9c0.3,0,0.6,0,0.9,0c0,0.3,0,0.5,0,0.9c3.3,4.4,3.3,4.4-3.7,5.6c-5.5-1.4-9-4.9-11.2-10.1
		c-1.5-3.4-3-6.8,0.1-10.1c0.3,0.9,0.6,1.8,0.9,2.7C201.7,139,207.9,140.4,213.1,142.9z"/>
	<path class="st164" d="M219.7,147.4c7,1,9.5-0.4,12-7.2c1.3-0.9,0.1-2.7,1.4-3.7c0.9,11-7,18.9-15.5,15.3c1.5-1.3,3.7,0.1,4.8-1.5
		C222.5,148.5,219,149.9,219.7,147.4z"/>
	<path class="st165" d="M172.8,208.2c2.8,0,5.6,0,9,0c-1.4-2.7-2.3-4.4-4.9-4.7c-1.5-0.1-3-0.6-3.3-2.5c7,1.5,14.3,0.5,21.2,2.7
		c4.8-1.8,9.4-0.9,13.8,1c0.1,1.4-1.4,1.8-1.9,2.8c-0.1,1.6-1.5,1.9-2.7,2c-9.8,0.6-19.4,1.6-29.2,0.9c-0.6,0-1.1-0.4-1.8-0.6
		C172.6,209.2,172.5,208.7,172.8,208.2z"/>
	<path class="st166" d="M208.6,204.5c-4.7,0.4-9.3-0.6-13.8-1c-2.8-5.7-0.9-8.7,5.6-9.1c1.1-0.5,1.9,0.5,2.8,0.9
		c1.8,0.9,3.7,1.9,5.5,2.8c1.8,1.4,4.2,2.4,2.7,5.5C210.4,203.9,209.5,204.2,208.6,204.5z"/>
	<path class="st167" d="M172.8,209c10.6,0.6,21.3-0.8,31.9-0.9c0.6,0,1.4-0.5,2-0.8c1.5,0,3-0.1,4.6-0.1c1.4-0.3,2.7-0.3,3.7,0.9
		c-6.5,3-13.6,3.2-20.4,3.4c-8.7,0.5-17.6,0.1-26.5,0.1c-0.3-0.4-0.1-0.8,0.1-1.1C170.1,211.3,170.5,207.3,172.8,209z"/>
	<path class="st168" d="M203.1,195.3c-0.9-0.3-1.8-0.6-2.8-0.9c-2.4-3.9-8-5.6-7.6-11.3c0-1-1-2,0-2.9c1-0.9,1.9,0.1,2.8,0.8
		c1.3,0.9,2.5,1.6,3.8,2.4c-0.9,1,0.1,1.5,0.6,2.2C202.1,188.4,203.7,191.5,203.1,195.3z"/>
	<path class="st169" d="M218.7,232.9c-0.6-1.4-2.3-2.4-1-4.4c2.9-5.1,1.6-10.6,1.5-16c0-1.8,0-3.5,0.4-5.2c0.4-0.9,1.1-1,2-1
		c0.5,7.2-1.3,14.5,0.5,21.7c0.1,0.5-0.5,1.4-0.8,2c0.1,0.9,0,1.6-0.5,2.3C220.2,232.9,219.6,233.4,218.7,232.9z"/>
	<path class="st170" d="M211.3,203.5c0-2.3-1.6-3.7-2.7-5.5c2.3,0.5,4.3,2.3,6.8,1.8c0.6-0.1,1.6-0.1,1.9,0.9
		c0.3,1.1-0.8,1.5-1.6,1.8C214.2,203,213,203.8,211.3,203.5z"/>
	<path class="st165" d="M215,208.2c-1.3-0.3-2.4-0.6-3.7-0.9c1.8-1.5,4.1-1.1,6-1.6c1.1-0.3,0.4,1,0.4,1.6
		C217.1,208.5,215.9,207.8,215,208.2z"/>
	<path class="st171" d="M-34,266c0.9,1.3,1.8,2.5,2.5,3.8c-0.6,1.4-1.3,2.9-3.2,2.3c-1.4-0.5-2.3-1.6-2.3-3C-37,267.2-36,266-34,266
		z"/>
	<path class="st172" d="M202.1,85.9c-1.8,0-3.4-1.6-5.5-0.6c-0.4,0.1-0.8,0.1-1.1-0.3c4.1-4.6,4.1-4.7-1.1-9.1
		c-1.9-1.6-3.4-3.4-4.7-5.5c-0.6-0.9-1.1-1.9,0.4-2.5C203.2,66.6,205.7,77.2,202.1,85.9z"/>
	<path class="st173" d="M195.7,84.9c0.3,0.1,0.6,0.3,0.9,0.4c1.3,5.5,0.9,10.4-4.7,13.6c0-2,2-2.9,2.7-4.6c1.4-3,1.4-5.3-2.8-5.6
		c-4.3,2.2-8.6,1.8-12.7-0.8c-0.6-1.6,0.8-1.8,1.6-2.3c3.5-0.4,7.2-0.3,10.6-1.6C192.9,83.6,194.5,83.7,195.7,84.9z"/>
	<path class="st174" d="M202.1,85.9c3-11.3-1-16.7-12.8-17.4c-2-1.3,0-1.5,0.5-1.8c2.7-0.9,5.5-0.4,8,0.1c1.4,0.3,2.9,0.5,4.4,0.8
		c2.9,6,2.2,12,0.8,18.3l-0.4,0.1L202.1,85.9z"/>
	<path class="st88" d="M199.3,94.3c0.4,1.5-2,3.2,0,4.7c-0.8,0.9-1,2.9-2.8,1.6c-1-0.8-1.4-2.4-0.3-3.5
		C197.4,95.9,198.4,95.2,199.3,94.3z"/>
	<path class="st175" d="M244.1,244.6c-1.8,2.7-5.3,3-7,5.8c-1.5,0-3,0-4.6,0c-3.2-1.6-6.7-1-10-1.8c-4.2-0.9-4.9-1.5-4.1-5.8
		c-1.1-0.8-2.4-0.1-3.5-0.4c-2.4-0.5,0.1,1.4-0.9,1.6c-0.8,0.8-1.8,1-2.9,1c-1.3,0-2.5,0-3.3-1c-0.9-1.5,0.4-2.4,1.3-3.3
		c5.3-2.7,10.9-1.5,16.5-1.1c5.1-0.5,10.1,1,15.1-0.1c1.3-0.3,2.7-0.1,3.8,0.8C246.8,241.9,244.4,243.1,244.1,244.6z"/>
	<path class="st176" d="M209.7,241.3c-0.1,1-3.2,2.7,0.6,2.5c1.4,0,2.8,0.3,3.9-0.8c1.6-1.3,3.4-1.5,5.3-1c-1.6,4.4-1.3,5.1,3.8,5.6
		c2.5,0.3,5.1,0.6,7.6,0.8c1.4,0.1,1.9,0.5,1.5,1.9c-0.4,0-0.8,0.1-1,0.1c-9.5-1-19-1.9-28.4-2.9c-0.4-1.3-1.6-2.5,0-3.7
		C205.2,243.1,206.5,239.9,209.7,241.3z"/>
	<path class="st177" d="M228.8,260.4c-3.3,1.5-6.7,3.2-10,4.7c-0.3-0.3-0.6-0.6-0.9-0.9c1.1-3,3.8-3.2,6.5-3.5
		c1.5-0.8,2.9-1.4,4.4-2.2c0.9-0.6,1.5-1.8,2.8-0.6C231.2,259.4,229.4,259.3,228.8,260.4z"/>
	<path class="st178" d="M231.5,257.9c-0.9,0.3-1.9,0.4-2.8,0.6c-1.9-2.2-5.2-1.5-7.2-3.5c3.5-0.3,6.7,1.5,10.1,1.9
		C231.5,257.3,231.5,257.5,231.5,257.9z"/>
	<path class="st179" d="M202.2,67.6c-1,0-1.3,2.2-2.5,1.1c-3.3-2.4-6.8-0.8-10.4-1c0,0-0.1,0.3-0.1,0.4c0,0.1,0.1,0.3,0.1,0.4
		c2.5,2.8,4.6,6,7.7,8.1c2.3,1.5,3.3,3.3,2.9,6c-0.4,2.8-3.3,0.6-4.2,2.3c-4.9,0.1-9.5,3.4-14.6,1.9c-2.3-0.6-4.7,0.5-7-0.5
		c-1.5-0.6-3.3-0.8-3.3-2.9c0.4-1.3,0.8-2.5,1-3.8c0.4-2.5,2.3-4.7,1.8-7.4c-0.6-3.8,2.4-6.7,2.2-10.4c0.4-1.4,0.3-3.3,2.4-3.4
		c2.7-5.6,5.8-10.9,6.1-17.1c0-1,0.4-1.8,1.3-2.3c2-0.3,2.5-1.6,2.7-3.4c0.9,0.4,1,1.3,1.1,2c1,1.8-1.1,1.8-1.5,2.8
		c-0.4,1.1-0.5,2.2,1.1,2.3c0.9,0.1,2.3-2.4,2.5,0.1c0.3,2.7-2.5,0.4-3.2,1.3c0.9,4.1,1.9,7.7,2.5,11.5c1.6,10,2.8,10.9,12.9,11
		c0,0.4,0,0.6,0,1C203.3,67.6,202.8,67.6,202.2,67.6z"/>
	<path class="st180" d="M-31.3,251.4c3.5,1.8,7.1,3.7,11.4,1.6c2.7-1.3,2.7,2.2,4.3,2.9c-2.5,3.4-5.5,6.7-1.8,11
		c-1.1,1.5-2.4,3-4.6,1.9c0-1.8,0-3.7,0-5.5c0.1-0.5,0.4-1.6,0-1.5c-6.7,1.4-8.2-5.7-12.9-7.6c-1-2.7-3.4-1.6-5.3-1.9
		c-0.3-0.6-0.5-1.1-0.9-1.8c-0.3-1.6-0.4-3.3,0.9-4.6c3.3-2,4.6-0.1,5.2,2.8C-33.6,249.4-31.7,249.4-31.3,251.4z"/>
	<path class="st181" d="M-40.3,252.2c2.8-2.2,4.7-1.8,5.3,1.9C-36.1,252-39.3,255.1-40.3,252.2z"/>
	<path class="st182" d="M204,19c-0.3-3.5,1.8-6.3,3.3-9.3C206.6,12.9,206.4,16.3,204,19L204,19z"/>
	<path class="st183" d="M204,19c-0.5,2.5-0.3,5.6-4.7,6.7C201.2,22.8,202.6,20.9,204,19L204,19z"/>
	<path class="st184" d="M206.6,20.6c0.9-2.8,1.9-5.6,2.8-8.4c0.3,0.1,0.6,0.1,0.9,0.3c-0.9,2.9-1.8,5.7-2.7,8.6
		C207.4,21,207,20.7,206.6,20.6z"/>
	<path class="st4" d="M53.2,228.4c-3.5,0.1-6.7-0.9-10-1.8c-0.5-3.5-4.2-0.6-5.5-2.7c2.7,0,5.3-0.1,8,0c2.5,0.1,4.7-0.5,6.6-2.2
		c1.8,3,4.3,0.8,6.5,1c0.8,1,0.5,2.3,0.4,3.4C57.4,227.5,55.5,228.5,53.2,228.4z"/>
	<path class="st185" d="M-1.6,221.8c-2.3,0.1-4.6,0.3-7.9,0.5c2.7,2.3,5.5,0.6,7.5,2.3c-1.4,1.5-2.9,0.9-4.3,1
		c-1.5-1.8-3.5-0.9-5.5-1c-2.5-0.1-4.3-0.9-4.7-3.7C-11.5,221-6.6,220.6-1.6,221.8z"/>
	<path class="st186" d="M147.9,101.6c-0.9,1.4-1.9,2.8-2.4,4.3c-1.3,3.3-0.8,6.2,2.2,8.5c1.6,1.3,2.4,1.3,3.3-0.6
		c0.9-2,1.1-4.4,3.3-5.7c3.3-0.6,4.7,2.8,7.4,3.3c0.3,0.4,0.5,0.8,0.6,1.3c-0.1,2.3-0.3,4.6-1.5,6.6c-0.3,0.4-0.6,0.6-1.1,0.8
		c-2.8-1.1-4.8-2.5-8.6-1.1c-3.5,1.4-9.4-7.9-7.6-11.9C144.5,104.9,143.5,100.9,147.9,101.6z"/>
	<path class="st187" d="M159,127.2c-0.1-0.6-0.1-1.1-0.3-1.8c0.3-1.3,0.5-2.5,0.9-3.8c2.5-0.4,5.3,0.9,7.5-1.4
		c0.8-0.1,1.5,0,2.3,0.3c1.3,0.5,2.8,1,2.7,2.7c-0.1,1.9-1.9,2-3.4,2.4c-2.7,0.8-5.8-1.5-8.1,1.3c-0.1,0.1-0.4,0.3-0.5,0.4
		C159.6,127.3,159.3,127.3,159,127.2z"/>
	<path class="st188" d="M166.3,120.9c0.9,1.5,0.1,2.4-1.3,2.2c-1.8-0.3-3.9,0.3-5.3-1.4c0-0.6,0-1.1,0.1-1.8
		c0.1-0.4,0.4-0.8,0.5-1.1C162.9,117.7,164.7,119,166.3,120.9z"/>
	<path class="st58" d="M155.4,96.4c-1.3,0.8-2.5,1.5-3.8,2.3c-2.3-4.2,2-3.8,3.7-5.3l0,0C156,94.4,156,95.4,155.4,96.4z"/>
	<path class="st189" d="M266.6,251.2c-0.4,1.5-0.8,3.2-1.1,4.7c-0.3,0.6-0.5,1.1-1,1.6c-1.8,1.1-3.3,3-5.8,2
		c-2.2-2.3-1.8-5.1-1.1-7.6c0.5-1.8,0.4-3.5,0-5.3c0-0.8,0.3-1.6,1-1.8C260.5,244.6,265.9,248.9,266.6,251.2z"/>
	<path class="st190" d="M266.6,251.2c-2.5-1.9-5.1-3.8-7.6-5.8c-0.3,0.4-0.6,0.9-0.9,1.3c-2.3-0.8-1.8-2.7-1.8-4.4
		c0.1-0.8,0.4-1.5,1-2c3,2.2,6,4.4,8.6,7.1C267.1,248.8,268,249.7,266.6,251.2z"/>
	<path class="st191" d="M257.3,237.5c3-2.4,5.2,0,7.2,1.5c4.1,2.9,9,5.3,9.3,11.3C269,245.1,264.6,239.5,257.3,237.5z"/>
	<path class="st192" d="M264.4,256.6c0.3-0.3,0.6-0.5,0.9-0.8c1.6,4.6-0.9,7.9-3.5,11.2c-0.4-0.3-0.6-0.6-1-0.9
		C259.7,262.1,261.6,259.2,264.4,256.6z"/>
	<path class="st193" d="M257.2,240.4c0,0.6-0.1,1.3-0.1,1.9c-0.5,0.9-1.1,1.6-2.2,0.4c-0.6-1.3-0.4-2.3,0.5-3.3c0-1-0.1-2,1-2.7
		c0.1,0.4,0.1,0.6,0.3,1C256.8,238.5,257.1,239.5,257.2,240.4z"/>
	<path class="st194" d="M178.2,58.3c-1.4,0.9-0.4,2.8-1.6,3.8c-0.1,2.4-1.8,1.5-2.8,1.1c-1.6-0.6-3-1.8-3.9-3.4
		c-0.3-2.3,1.3-1.9,2.9-1.9c-0.9-1.8-3-2.4-3.8-4.1c0.3-6,3.2-0.4,4.7-1.1C174.9,54.8,178,55.3,178.2,58.3z"/>
	<path class="st195" d="M170.1,59.2c2.3,0.8,3,4.9,6.5,2.9c0.8,3.9-1.4,7-2.9,10.1c-3.5-3-5.8-9.9-4.3-12.9
		C169.5,58.9,169.7,58.9,170.1,59.2z"/>
	<path class="st196" d="M170.1,59.2c-0.3,0-0.5,0.1-0.8,0.1c-2-1.6-2.5-3.4-0.4-5.5c1.4,0,2.4,0.6,3,1.6c0.9,1.5,4.2,1.8,3,3.9
		c-1,1.8-2.3-1.4-3.8-0.9C170.7,58.6,170.5,58.9,170.1,59.2z"/>
	<path class="st197" d="M155.4,96.4c0-1,0-2-0.1-3c4.2,1.1,5.1,0.5,5.2-4.1c0.1-1.9,3.2-2.7,1.9-5.1c1.3-1.8,3-1.9,4.8-1
		c0,0.6-3,1.8,0.4,1.8c0.8,0,1.5,0.1,2.2,0.3c1.9,0.5,2.4,2.2,2.9,3.8c0.3,1,0.1,2,0.5,3c0.5,1.6,1.8,3.3,0,4.9
		c-1.8,1.5-3.4,0.4-5.1-0.3c-3.8,1.1-7.5,1.8-11.2-0.5C156.6,96.2,155.9,96.3,155.4,96.4z"/>
	<path class="st198" d="M171.9,88.8c-0.6-1.1-1.4-2.4-2-3.5c0-0.8-1-2,0.9-1.8c2.8,3,7.2,1.4,10.3,3.4c-0.6,0.4-1.3,0.6-1.9,1
		c2.2,3.7-0.8,6.7-1.3,10c-0.3,2.3-1.5,4.6-3,6.5c-2.2,0.3-2.4-1.5-1.9-2.5C175.2,97.2,173.8,93,171.9,88.8z"/>
	<path class="st199" d="M245.3,244.1c2.8-0.8,4.2-3.3,6.5-4.7c3.7,2.2,1.6,4.6,0.1,6.6c-2.4,3.3-5.5,6.2-5.2,10.8
		c0.1,1.8-0.4,3.3-1.3,4.7c-1.4,0.5,0.1,3.8-2.8,2.7c1.5-3.9,1.4-8.2,1.5-12.3c0-2.5,3.7-4.2,1.1-6.8c-0.3-0.1-0.4-0.4-0.3-0.6
		C245.2,244.2,245.2,244.1,245.3,244.1z"/>
	<path class="st200" d="M245.3,244.1c0,0.3,0,0.6,0,0.9c-0.4-0.1-0.8-0.3-1.3-0.3c-1-1.6,0.9-2.3,1.3-3.4c0.9-2.3,2.2-4.1,4.9-2.8
		C248.6,240.3,246.9,242.2,245.3,244.1z"/>
	<path class="st201" d="M214.2,286.3c1.4-0.9,2.9-1,4.4-0.9c0.3,0.6,0.6,1.1,0.9,1.8c0.1,0.3,0.1,0.5,0,0.9h-0.4l-0.4,0.1
		c-1.4-0.4-2.5,0.3-3.7,0.6C213.7,288.2,213.2,287.4,214.2,286.3z"/>
	<path class="st202" d="M250.2,238.4c-2.3-0.1-3.2,2.2-4.9,2.8c-1.6-0.9-3.4-1.1-5.2-0.5c-4.7,1.5-9.3-0.5-13.9-0.3
		c0.8-2.4,3.4-2.8,4.8-4.6c1-0.6,1.9-1.6,3.4-1.1c4.9,0,10,1.4,14.7-1.4c1.8-1,2.8,1.5,4.6,1.4C252.9,236.4,251.6,237.5,250.2,238.4
		z"/>
	<path class="st203" d="M234.3,234.8c-1,0.5-1.9,1.1-2.9,1.6c-4.3,2.2-8.2-0.4-12.4-0.8c-0.9-0.1-1.6-0.6-1.4-1.9
		c0.4-0.3,0.6-0.6,1-0.9c0.6-0.3,1.3-0.6,1.9-0.9c3.7-3.4,7.4-0.6,11,0c0.9,0.6,1.8,1.1,2.8,1.8
		C234.3,234.2,234.3,234.5,234.3,234.8z"/>
	<path class="st202" d="M234.4,234c-0.1-2.2-0.1-4.3-0.3-6.5C237.6,229.5,236,231.7,234.4,234z"/>
	<path class="st204" d="M-21.9,268.8c1.5-0.6,3-1.3,4.6-1.9c2.4,2.4,6.3,3.4,7.4,7.2c-1.6,0.9-0.4,1.8-0.1,2.8
		c-1.3,3.3-3.9,4.4-7.2,4.6l0,0c-0.3-0.1-0.6-0.1-0.9-0.1c-1.4-1.1-3-1.9-3.9-3.8c0.6-1.5,2.7-1.1,4.1-2.7
		C-22.8,274.6-22.1,271.6-21.9,268.8z"/>
	<path class="st205" d="M188.4,124.6c0.9,1.8,2,3.4,1.9,5.5c-1.1,4.2-4.3,5.5-8.2,5.5c-5.1-1.5-10.3-2-15.5-2.7
		c-1.4-0.1-2.9-0.1-3.8-1.1c-1.1-1.3,0.1-1.4,1-1.6c0.5-0.5,1.1-0.6,1.8-0.6c2.4,0.5,4.9,0.6,7.5,1c1.9,0.4-0.3-1,0.3-1.4
		c-0.1-2,1.4-3,3-3.4c2.9-0.8,5.5-2.3,8.2-3.4C186.1,122.2,187.6,122.7,188.4,124.6z"/>
	<path class="st206" d="M163.5,151.2c-1.3-0.9-2.4-1.8-3.7-2.7c-0.4-0.3-0.8-0.5-1-0.9c1.4-2.7,3.9-3.4,6.5-4.4
		c1.8-0.8,3.9-1.3,5.1-3.4c1-1.9,2.8-0.6,4.2,0.4c0,1.8-1,3-2.5,3.4C168,144.8,166.1,148.3,163.5,151.2z"/>
	<path class="st187" d="M165.4,130.1c-0.6,0-1.1,0-1.8,0c-0.8-1.5-3.7-0.1-3.7-2.8l0,0c3.4-2,6.2-1.3,8.5,1.8
		C168,131.2,166.7,130.5,165.4,130.1z"/>
	<path class="st207" d="M-15.6,243.2c1.3,0.3,2.4,0.6,3.7,0.9c-1,3.9-4.9,3.8-7.6,4.4c-4.6,1.3-9.6,3.9-14.3,0
		c1.4-4.3,5.5-2.5,8.2-3.5C-22.4,244-19,243.8-15.6,243.2z"/>
	<path class="st208" d="M-34,248.5c6.5,2.3,12.3-0.1,18.1-2.3c1.4-0.5,2.5-1.4,3.8-2.2c1.8,0,3.2,1.1,4.7,1.9
		c-0.3,0.5-0.6,1.4-0.9,1.4c-7.7,0.9-15.1,4.3-23.1,4.1c-1.4-0.6-2.9-1.1-3.7-2.7C-34.6,248.7-34.4,248.7-34,248.5z"/>
	<path class="st209" d="M206.9,67.8c0.9,0,1.8-0.1,2.7-0.1c-0.8,3.2-1.5,6.3-2.7,10.5C206.9,74,206.9,70.8,206.9,67.8z"/>
	<path class="st210" d="M196.5,277.9c0.1-2.7-1.1-5.8,3.3-6.7c4.6-0.9,6.5,2.2,8.6,4.9c3.5,5.8,6.2,11.9,6.2,19
		c0-1.3-0.6-2.4,0.5-3.4c1.6,2,0.4,4.4,1,6.7c-1.9-0.5-3.3-0.9-4.7-1.3C208.9,288.8,205.4,281.2,196.5,277.9z"/>
	<path class="st211" d="M215.1,291.6c-0.1,1.1-0.1,2.4-0.3,3.5c-2.3-4.3-2-9.4-4.2-13.8c-0.8-1.6-3.8-2.7-2.3-5.3
		c3,2.7,4.3,6.5,5.8,10c0.3,0.9,0.5,1.6,0.9,2.5C215.1,289.7,215.1,290.7,215.1,291.6z"/>
	<path class="st212" d="M172.8,209c-1.9-0.4-2.3,3-4.6,1.9c-3.5,2-6.8,1-10.1-0.8c-5.2-0.8-9.9-2.9-14.7-4.8c-2.4,0-3-1.8-3.7-3.5
		c0-0.6-0.1-1.3-0.1-1.9c3.5,1.9,7.2,3.7,11.2,4.8c3.7,3.2,8.2,2.9,12.7,3.4c3,0.4,6.3,0.1,9.5,0.1
		C172.8,208.5,172.8,208.7,172.8,209z"/>
	<path class="st213" d="M167.1,171.1c-0.9,1-1.8,1.9-2.7,2.9c-2,0.8-4.2,1.3-6.3,1.3c-1.3-0.8-2.5-1.4-3.7-2.2
		c-0.9-0.5-2.4-0.1-2.7-1.6c-2.9-4.2-5.6-8.4-4.1-13.8c1.3-5.1,4.8-7.5,9.8-8.2c0.6,0.3,1.1,0.6,1.8,0.9c6.6,4.4,10.1,10.3,9.3,18.5
		C167.8,169.4,167.5,170.3,167.1,171.1z"/>
	<path class="st214" d="M151.6,171.5c0.9,0.5,1.8,1.1,2.7,1.6c-2.8,1.8-5.3,3.3-6.5-1.6C149.1,171.5,150.3,171.5,151.6,171.5z"/>
	<path class="st215" d="M238.1,139.1c3-2.2,6.3-3.3,10-1.5c-1.4,0.8-2.3,3.8-3.2,3C242.7,138.5,239.7,141.9,238.1,139.1z"/>
	<path class="st216" d="M247.2,132c-1.3-2-1.9-4.2-1.8-6.5C247.9,127.1,247.4,129.6,247.2,132z"/>
	<path class="st217" d="M245.4,261.5c0.8-6.3,1.6-12.7,6.6-17.5c1.1-1.1,1.3-3-0.3-4.6c0.6-0.9,1.1-2,2.4-2c0.1,0,0.3,1.3,0.5,1.9
		c0.6,3.4,1.1,6.7-1.9,9.4c-0.5,0.5-1.1,0.9-1.9,0.9c-3.3,1.6-3,4.9-3.5,7.7C246.9,258.8,247.2,260.6,245.4,261.5z"/>
	<path class="st56" d="M250.7,249.5c0.3-0.3,0.6-0.6,0.9-0.9c4.3-0.1,4.9,0.8,4.6,6.2c0,0.1-0.1,0.4-0.1,0.4c-3.4-1-4.9,2-7.1,3.5
		l-0.1-0.1C248.5,255.4,249.5,252.5,250.7,249.5z"/>
	<path class="st218" d="M122.1,196.4c-3.4-0.3-6.8,1-10.1-0.6c2.3-4.1,5.8-6,10.5-5.8c3.3,1.4,6.5,2.8,9,5.5c0,0.6,0,1.3,0,1.9
		c-0.6,0-1.3-0.1-1.8-0.1C127.1,195.7,124.5,198,122.1,196.4z"/>
	<path class="st219" d="M139.7,201.8c1.3,1.1,2.4,2.4,3.7,3.5c-5.1,2.4-10.3-0.1-15.5,0c-0.4,0-0.8-1.6-1.1-2.5
		C130.9,201.6,135.5,204,139.7,201.8z"/>
	<path class="st50" d="M255.4,255.9c-0.4-2.9,1.3-6.8-3.8-7.4c2.4-2.7,3-5.8,2.9-9.3c0.3,0,0.5,0.1,0.8,0c0,1.3,0,2.5,0,3.8
		c1.6,4.1,2.7,8.1,1.4,12.4C256.4,256,256.1,256.1,255.4,255.9z"/>
	<path class="st220" d="M255.4,255.9c0.3,0,0.5,0.1,0.8,0.1c0.4,3.5,2.8,6.5,2.9,10c-0.6,1.8-1.3,3.7-1.8,5.5
		c-5.3,2-6.2,1.5-6.3-4.2c-0.1-3-2.9-5.5-1.9-8.6c0.6-0.4,1.4-0.9,1.3-1.6c-0.4-2,0.3-3.9,2-4.4C254.7,252.1,254,255.1,255.4,255.9z
		"/>
	<path class="st221" d="M231.5,232.1c-0.4,0.9-0.9,2.8-1.9,1.5c-2.8-3.4-6-1.8-9.1-1.5c0-0.8,0-1.5,0.8-1.9c1.3,0.1,1.9-0.5,1.9-1.8
		c0-1.5,0.4-2.7,2-2.9C227.8,227.2,229.9,229.3,231.5,232.1z"/>
	<path class="st222" d="M192,160.3c0.9,1.3,1.9,2.7,2.8,3.9c0,0.3-0.1,0.5-0.3,0.8c-0.9,0-1.6,0-2.5,0c-0.3-2.8-2.4-2.5-4.4-2.8
		c-3.8-0.5-8-0.5-10.3-4.6c-0.9-1.3-1.6-2.5-2.5-3.8c-1-1.4-2.2-1.9-2.9,0.3c-0.8,2.2-2.2,2.2-3.5,1.1c-2-1.5,0-2.4,0.8-3.5
		c2.7-3.9,7.4-4.9,10.8-7.7c0.9,0.9,1.9,1.8,2.8,2.8C186.6,150.7,189.8,155.2,192,160.3z"/>
	<path class="st34" d="M-17.5,281.6c2.9-0.8,5.2-2.5,7.2-4.6C-10.4,282-13.8,282-17.5,281.6z"/>
	<path class="st185" d="M-6.3,225.7c0.1,0.6,0.6,1.5-0.5,1.8c-2.7,0.4-5.2,0.6-7.9,0.9C-12.4,225.8-9.4,225.8-6.3,225.7z"/>
	<path class="st217" d="M259.1,266c-1.5-3.2-4.4-6-2.9-10c0.6-4.4-1.1-8.6-0.8-12.9c0.5-0.3,1.1-0.5,1.6-0.8
		c0.5,1.5-0.3,3.2,0.9,4.6c1,1.5,2.5,2.4,0.6,4.8c-1.8,2.2-0.8,5.5,0.4,8.1c1.5,1.9,2.3,3.9,0.8,6.2C259.6,266,259.4,266,259.1,266z
		"/>
	<path class="st223" d="M259.7,266c-0.3-2-0.5-4.2-0.8-6.2c1.8-1,3.5-2,5.5-3c-2.2,2.8-2.3,6.3-3.7,9.5
		C260.5,266,260.1,266,259.7,266z"/>
	<path class="st224" d="M167.2,291.6c0.4-1.1,0.8-2.3,1.3-3.4c1.1-2.3,1.8-5.5,5.5-3c0.3,0.1,1-0.5,1.5-0.8c1.5-0.8,0.4-2.8,1.8-3.7
		c0.4,1.5,0.9,3,1.3,4.7c0.4,1-1.9,4.6,2.2,2.4c0.3-0.1,1.5,0.9,1.8,1.6c0.6,2-1.8,1.9-2.4,3.2c-1.1,0.3-2.7-0.5-3.2,0.9
		c-0.4,1.1,1,1.8,1.5,2.5c1,1.4,2,2.8,2.7,4.6c-3.9-2.9-7.2-6.7-12.2-8C168.5,292.4,167.8,292,167.2,291.6z"/>
	<path class="st225" d="M158.1,210.1c3.4,0.3,6.7,0.5,10.1,0.8c0,0.3,0,0.5,0,0.8c4.7,2.7,4.6,15.2-0.6,17.6c-1,0.5-1.9,0.8-2.9,0.3
		c-3.8-1.9-9-12.8-8.4-17.1C156.4,211.4,157.4,211,158.1,210.1z"/>
	<path class="st169" d="M217.6,233.8c4.2,0.4,7.9,4.3,12.4,1.4c0.9-0.6,1.1,0.4,1.3,1.3c-1.1,2.2-3.4,2.8-5.3,3.9
		c-2.4,1.3-4.7-0.4-7-0.4c-3.2,0.1-6.3,0.4-9.4,1.1c-2.7-0.3-3.5,3.9-6.6,2.7c0-0.6,0-1.1,0-1.8c1-2.3,3.2-3.2,5.3-3.8
		c2.7-0.9,5.3-1.9,7.6-3.7C216.4,234,217,233.8,217.6,233.8z"/>
	<path class="st226" d="M117.6,231.9c0-0.3,0-0.5,0-0.6c0-0.5,0.1-0.9,0-1.4c-1.5-4.4-0.6-7.5,4.7-7.9c-0.1,2.2-0.1,4.3-0.3,6.5
		c-0.6,1-0.3,2-0.4,3.2c-0.1,1.4,0.3,3-1.5,3.3C118.3,235.1,117.8,233.6,117.6,231.9z"/>
	<path class="st227" d="M215.9,234.7c-1.3,2.4-3.8,3.5-6.1,4.4c-2.4,0.9-4.6,1.9-6.8,3.2c-0.4-0.4-0.6-0.8-1-1.1
		c0.1-1.4-1.4-1.6-1.8-2.5C205.7,238,210.8,236.2,215.9,234.7z"/>
	<path class="st228" d="M135,235.9c0.4,0.9,1.3,2.8-0.3,2.3c-4.2-1.1-8.5,0.5-12.5-1.5c-0.8-1-0.9-2,0.3-3
		C126.5,234.8,130.8,235.5,135,235.9z"/>
	<path class="st91" d="M122.5,233.7c-0.1,1-0.1,2-0.3,3c-3.8-0.1-7.6,0.1-11-1.8c2.9,0.6,4.7-1.1,6.5-3c1.1,0.5,1,2.7,2.4,2.3
		c1.8-0.4,1.1-2.2,1.3-3.4c0.1-0.9,0.1-1.8,0.9-2.4C122.2,230.2,122.3,231.9,122.5,233.7z"/>
	<path class="st4" d="M167.5,239.2c-2.8,0-5.3,0-8.4,0C162.4,237,163.8,237,167.5,239.2z"/>
	<path class="st229" d="M58.8,226.6c0-1.3,0-2.4,0-3.7c1.4,2,2.5,4.7,4.8,0.3c1.1-2.3,4.2-2,6.6-2.2c6.7-0.5,12.8-2.4,18.1-6.5
		c0.9-0.3,1.9-0.6,2.8-0.9c2.9,0.6,4.7,2.4,2.4,4.9c-3.4,3.8-7.4,7.1-11.3,10.5c-0.4,0.4-1.5,0.1-2.2,0.1c-3.3,1.6-6.5-0.1-9.6-0.3
		c-2.9-0.1-6-0.8-8.9-0.6C60.3,228.1,59.5,227.6,58.8,226.6z"/>
	<path class="st230" d="M60.7,227.4c6.5,0.6,12.8,1.3,19.3,1.9c1.9,1.5,4.3,0.5,6.3,0.9c2.3,0.5,4.4-0.4,6.6-0.8
		c0,1.5-0.6,2.2-1.4,2c1.8,0,4.6-1.6,6.8,0.6c1.5,1.6,4.1,0,5.6,1.8c-9,0.1-17.6-2.2-26.5-3c-4.9-0.5-9.9-1.8-14.8-1.5
		c-0.9,0-1.8,0-2.7-0.4c-0.6-0.3-1.3-0.6-1-1.3C59.2,226.9,60,226.9,60.7,227.4z"/>
	<path class="st231" d="M115.9,231.2c-0.9,1.3-1.3,3.4-3.4,2.7c-2.2-0.8-1.1-2.8-1.1-4.3c0-2.7,1.8-2.7,3.7-2.2
		C114,228.9,115.7,229.8,115.9,231.2z"/>
	<path class="st232" d="M98.2,232.1c-2.4,0-4.8,0-7.7,0c1-1.3,1.6-2,2.4-2.8c4.1,0.3,6.6-2.7,9.4-4.8c2.4-1.8,4.8-2.9,7.9-2.8
		c0.6,2.8-0.8,4.2-3.2,5.1C103.7,227.9,100.9,229.8,98.2,232.1z"/>
	<path class="st23" d="M122.1,196.4c2.5-0.1,5.2-0.6,7.6,0.8C127.1,196.7,124.2,199.5,122.1,196.4z"/>
	<path class="st233" d="M82.6,252.3c-10.3-1-20.4-2.3-30.7-4.2c-8.7-1.6-17.7-2.2-26.6-3.3c-1.4-0.1-3.7,0.6-3.4-1.6
		c0.3-1.8,2-3,4.2-2.9c4.8,0.4,9.8,0.8,14.5,1.4c16.2,2.5,32.3,5.2,48.4,7.7c1,2-0.3,2.8-1.9,3.2C85.7,253,84.2,253,82.6,252.3z"/>
	<path class="st234" d="M82.6,252.3c2.3-0.6,5.7,1.5,6.5-2.8c11,1.9,22.1,3.7,33.1,5.7c1.1,0.3,3.5,0.3,3.2,1.8
		c-0.6,2.5-2.3,0.3-3.5,0.3c-12.2,0.5-23.7-3.9-35.9-3.8C84.8,253.5,83.5,253.3,82.6,252.3z"/>
	<path class="st3" d="M96.5,248.7c12.2,0.8,24.1,3.3,35.9,6.3c-5.2,0.9-10.3-1-15.1-2.2C110.3,251.1,103.1,251.4,96.5,248.7z"/>
	<path class="st235" d="M98.6,271.7c1.1,0.5,1.5,1.4,1.6,2.5c0.1,1.4-0.8,1.4-1.8,1.1c-0.9-0.1-2-0.3-1.8-1.5
		C97,273,97.4,271.9,98.6,271.7z"/>
	<path class="st236" d="M224.2,260.6c-1.8,1.9-4.6,1.9-6.5,3.5c-3.5-2.2-7.1-4.3-11-5.6c0.8-1.4,1.8-2.7,3.4-2.5
		C215.2,256.5,220.1,257.4,224.2,260.6z"/>
	<path class="st93" d="M60.7,227.4c-0.3,0.1-0.6,0.1-0.8,0.3c-0.5,0.5,0,0.6,0.4,0.6c0.9,0.1,1.8,0.1,2.2,1c0,0.3,0,0.4,0,0.6
		c-3.2-0.4-6.3-0.4-9.3-1.5c1.4-1.9,3.4-1.9,5.6-1.8C59.6,226.6,60.2,226.7,60.7,227.4z"/>
	<path class="st237" d="M227.4,139.4c-3.7-0.8-7.4-1.4-11-2.2c-1.3-0.3-2.9-0.4-2.3-2.4c0.5-1.6,2.2-0.1,3-0.9
		c1.8,3.5,7-1.1,8.2,3.5c0.3,0.6,0.9-0.3,1.3-0.6c0.8-1.1,1.6-1.4,2.5-0.1c0.4,0.5,0.6,1.4,0.5,2
		C229.3,140.3,228.2,138.9,227.4,139.4z"/>
	<path class="st238" d="M192,160.3c-3.8-4.1-6.6-8.9-9.3-13.7c0.9,0.5,1.8,1,2.7,1.5c-1.1-1.5,1.1-4.6-2.3-4.9
		c-0.1,0-0.3-0.9-0.1-1.3c0.3-0.6,0.9-0.6,1.5-0.4c1.9,1,4.1,1.5,5.6,3.2C192.6,149.8,192,155.1,192,160.3z"/>
	<path class="st239" d="M188.4,124.6c-1.3-0.6-2.4-1.3-3.7-1.9c-2.5,0-4.9-0.9-7.2-2c-1.3-0.6-2.9-1.3-1.6-3.3
		c0.5-0.4,1-0.9,1.5-0.9c6.3,0.6,12.9,0.1,19.1,1.6c1,0,1.9,0.1,2.9,0.1c-1.5,1.8-2.5,3.9-5.8,2.9
		C191,120.4,190.8,124.4,188.4,124.6z"/>
	<path class="st240" d="M174.6,104.4c1.3-4.1,2.3-8.2,3.7-12.3c0.5-1.4,0.9-2.8,0.9-4.3c4.2,1,8.5,1,12.8,1c0.6,4.7-0.6,8.7-4.2,12
		c-1.3,1.1-2.2,2.7-2.2,4.4C181,107.4,177.1,107.2,174.6,104.4z"/>
	<path class="st241" d="M174.6,104.4c3.5,1.6,7.4,0.6,11,0.9c1.3,0.1,2.3,0.4,0.9,1.8c-5.7,2.9-12.2,2-18.4,2.9
		c-1.4-0.1-2.8-0.6-4.1-1.3c-1.8-2.2-0.8-3.7,1.1-5.1c0.3-0.3,0.3-0.3-0.8-1c0.8-2.7,1.6-5.3,3.9-7.2c1.6-0.5,2.5,2.7,4.4,1
		c1.8-1.5-0.5-2.7-0.6-4.1c-0.1-1.3-0.1-2.4-0.1-3.7c3.4,4.1,4.9,8.2,1.8,13.3C173.3,102.8,173.7,103.8,174.6,104.4z"/>
	<path class="st242" d="M167.2,109c6.5-0.6,12.9-1.3,19.4-1.9c0.8,3,0.9,6.3,5.6,8.4c-3.2,0-5.3,0-7.5,0c-2.9,2.4-6.1,0.5-9.1,0.1
		c-3.3-0.4-6.8-0.8-9.6-3.2C165.4,110.9,165.7,109.7,167.2,109z"/>
	<path class="st243" d="M166.2,112c6,2.3,12.2,3,18.5,3.4c2.7,1.6,5.6,0.5,8.4,1c1.4,0.3,3.2-0.6,3.5,1.6c-6-0.4-12,0.6-18-0.8
		c-0.9-0.3-2,0.5-2.9,0.8c-5.3,0.3-9.3-2.8-13.4-5.6c-0.1-0.3-0.3-0.5-0.4-0.8c0.1-0.8,0.6-1.1,1.3-1.4
		C164.4,110,165.6,110.6,166.2,112z"/>
	<path class="st244" d="M213.1,142.9c-6,1.3-14.2-5.8-12.8-11c3.3-1.6,6.5,0.5,9.8,0.3c1.5-0.1,1.4,1.8,1.3,2.9
		C211.1,138,211.7,140.5,213.1,142.9z"/>
	<path class="st245" d="M219.6,242.1c-1.8,0.5-3.4,1.3-5.3,1c-0.6,0-1.1-0.1-1.8-0.1C215.9,240.8,215.9,240.8,219.6,242.1z"/>
	<path class="st246" d="M162.8,110.7c-0.4,0.4-0.8,0.6-1.1,1c-3,0-5.2-1.9-7.4-3.7c1.3-1.3,2.4-2.5,3.7-3.7c2.3-0.3,3.9-2.5,6.5-1.8
		c1,0.3,3.7,0,1.4,2c-1.1,1.1-2,2-2.4,3.5C163.8,109,163.5,109.9,162.8,110.7z"/>
	<path class="st247" d="M164.5,102.5c-2.2,0.4-3.8,2.9-6.5,1.8c0.1-2.5,5.2-0.9,3.7-4.1c-0.8-1.6-3.4-2.3-4.6-4.2
		c0.3-0.3,0.6-0.6,0.6-0.6c3.5,2.4,7,0.6,10.5-0.1C167.3,97.9,167.3,101,164.5,102.5z"/>
	<path class="st248" d="M162.1,112.5c4.9,0.8,8.7,4.2,13.4,5.6c2.5,2.5,6.5,2.4,9.3,4.6c-2.3,2-4.8,3.4-7.9,3.8
		c-1.5,0.1-2.9,0.8-3.2,2.7c-1.9,1.4-3.7,1.1-5.5,0c-2.5-1.6-5.3-2.2-8.2-1.9c-0.3-2.7,0.3-4.3,3.5-2.9c0.6,0.3,1.5,0.3,2.3,0.3
		c1.9-0.3,4.9,1,5.3-1.1c0.4-2.2-2.9-1.8-4.7-2.5c-2-0.6-4.1-1.4-6.1-2C161,116.8,160.4,114.3,162.1,112.5z"/>
	<path class="st249" d="M163,88.9c2,0,4.1-1.3,4.9,1.3c0.5,1.3-0.1,2.7-1.5,2.9C163.4,93.5,163.8,91,163,88.9z"/>
	<path class="st36" d="M168.1,129.1c1.8,0,3.7,0,5.5,0c0.6,1.4,2.7,0.3,3.3,2.5c-4.2,0.3-7.9-0.4-11.7-1.5
		C166.3,130,167.5,130.3,168.1,129.1z"/>
	<path class="st250" d="M162.6,165c-3.5-0.6-7.1-1.3-10.6-2.2c-1-0.3-3.3-0.1-2.8-2.2c0.5-1.8,2.9-1.3,3.8-0.9
		c1.8,0.9,3,1.9,5.5,1.1c2.2-0.8,2.3,2.7,4.2,3.2c0.3,0.3,0.4,0.5,0.3,0.6S162.8,165,162.6,165z"/>
	<path class="st251" d="M162.6,165c0-0.4,0-0.8-0.1-1c0.4-1.3,1-2.3,2.5-1.5c1,0.5,1.6,1.8,1.1,2.7
		C165.2,166.4,163.9,164.6,162.6,165z"/>
	<path class="st248" d="M162.8,110.7c0-1-0.3-2,0.8-2.7c1.3,0,2.5,0.3,3.7,1c-0.4,1-0.6,2-1,2.9C165,111.5,163.9,111.1,162.8,110.7z
		"/>
</g>
</svg>
