<svg id="Layer_1" data-name="Layer 1" xmlns="http://www.w3.org/2000/svg" xmlns:xlink="http://www.w3.org/1999/xlink" viewBox="0 0 400 400"><defs><style>.cls-1{fill:url(#linear-gradient);}.cls-2{fill:#74697f;}.cls-3{fill:#fbfafc;}.cls-4{fill:#aa7e47;}.cls-5{fill:#70607f;}.cls-6{fill:#72647f;}.cls-7{fill:#fd0000;}.cls-8{fill:green;}.cls-9{fill:#74687f;}.cls-10{fill:#7b5168;}.cls-11{fill:#73677f;}.cls-12{fill:#796f82;}.cls-13{fill:#6c567d;}.cls-14{fill:#74677e;}.cls-15{fill:#705c7d;}.cls-16{fill:#73657f;}.cls-17{fill:#6e5b7f;}.cls-18{fill:#766c7f;}.cls-19{fill:#756a7f;}.cls-20{fill:#73637d;}.cls-21{fill:#6f5f7f;}.cls-22{fill:#766d7f;}</style><linearGradient id="linear-gradient" x1="40.44" y1="62.2" x2="368.61" y2="345.62" gradientUnits="userSpaceOnUse"><stop offset="0" stop-color="#7900aa"/><stop offset="1" stop-color="#4a00aa"/></linearGradient></defs><title>Artboard 1</title><rect class="cls-1" x="-7" y="-6" width="414" height="412"/><path class="cls-2" d="M219.47,366.37c-19.68,9.24-39.38,18.44-59,27.76-3.74,1.77-6.76-.31-9.8-1.47-3.6-1.37-5.61-1-6.25,3.07-.37,2.39-2,4.47-1.78,7a3,3,0,0,1,.06,4h-1.19c-1.11-1.3-1.07-2.93-1.24-4.49.16-2.47,1.21-4.69,1.93-7,.62-2,.32-3.38-2-3.83-4.78-.93-9.58-1.67-14.39-2.41-2.13-.33-2.84.75-2.86,2.66,0,2.14,0,4.29-.06,6.44-.08,1.7,0,3.48-1.7,4.63a1,1,0,0,1-1.21-.23c-.06-5.17,1.51-11.21-.65-15.28s-7.94-6.22-12.28-9Q58.67,347,10.18,315.89c-.79-.51-1.52-1.32-3.17-1,3.39,6.76,6.7,13.37,10,20,.93,1.84,2.95,2.19,4.57,3,3.91,2.06,7.86,4,11.79,6l-.54,1.15-15-7.33v10.76l-1.59.36c2.22-12.25-4.72-21.29-10.59-31C6.9,340.46,8.11,363.07,9.34,386c-1.87-.68-1.54-1.68-1.58-2.45Q6.37,356,5,328.43c-.21-4.16-.28-8.35-.89-12.46s1.46-5.84,4.86-7.32c11.33-4.93,22.57-10.08,33.82-15.2,1.24-.57,2.76-.84,3.67-2.49-3.93-2.08-8.48-2.06-12.37-4.11,3.9-.37,7.53,1.06,11.14,2.06,3.25.89,4.18.15,3.94-3.09-1.14-15.61-3-31.22-3-46.83,0-9.29-4.52-15.21-9.69-21.56S26.24,204.31,21.16,197.7C17,192.24,17,192.22,11,195c-.6.27-1.21.85-2.1.25.24-.32.4-.71.69-.89,6.21-3.82,6.22-3.82,2.22-9.82C8,178.76,4.14,173,.18,167.11c1.64-.42,2,.68,2.44,1.42C6.78,174.75,11,180.92,15,187.24c1.61,2.54,3.11,3,6,1.9q14.13-5.62,28.63-10.38c-3.37,2.92-7.72,3.69-11.67,5.3-5.45,2.21-11,4.17-16.56,6.15-2.67.95-2.88,2-1.08,4.28,8.57,10.81,16.91,21.81,25.48,32.61,2.62,3.31,5.72,6.22,8,10L47,230.79c.51,9.35.95,18.11,1.48,26.87.48,7.88,1.2,15.75,1.57,23.64.43,8.86.3,8.82,8.59,6.3,10.67-3.25,21.36-6.41,32-9.6l.38,1.18c-9.38,2.84-18.7,5.91-28.16,8.46-9.91,2.67-19.23,6.74-28.49,11s-18.28,8.38-28.31,13c6.14,4,11.6,7.56,17.08,11.1q24.83,16,49.71,31.95c1.6,1,3.37,3.3,5.1,2.35,1.42-.78.43-3.46.51-5.28a28.16,28.16,0,0,1,.66-6.56c1.41,2.81,1,5.76.95,8.63a5.28,5.28,0,0,0,2.56,5c11.59,8,23.27,15.88,34.59,24.24,4.9,3.61,10.51,3.59,15.89,4.57,7.21,1.31,14.45,2.29,21.31,5,2.31.92,3.27.36,3.8-2.18,2.05-9.81,4.34-19.57,6.64-29.82-2.83.92-3.74,4.07-7.44,4.92a38.35,38.35,0,0,1,9.7-9.37c-2.82,12.92-5.39,24.68-8.09,37.06,9.3-4.29,18-8.29,26.72-12.34q14.46-6.75,28.89-13.57c1.25-.59,2.85-.8,3.21-2.54C219.27,364.49,219.31,365.48,219.47,366.37Z"/><path class="cls-3" d="M157.93,203.76c0-1.95,1.19-4.09-2.52-4.53-1.68-.19-.68-3.25-.74-5-.07-2,.15-3.85-2.79-3.37-1,.17-1.72-.31-1.56-1.45.3-2.22-.54-2.93-2.83-2.93-2.73,0-1.23-2.34-1.47-3.63-.4-2.19,1.27-5.63-3.34-5-.39-3.72-7.4-3.14-5.44-8.56.55-1.53.72-3.87-2.46-3.61-1.15.09-.83-1.25-.9-2-.08-1,.22-2.35-1.32-2.11-3.7.58-2.86-1.95-3.05-4-.14-1.52,1.24-3.95-2.21-3.89-3.13.06-2,2.25-2,3.65-.06,26.78,0,53.56-.07,80.35,0,2-.18,3.67,2.77,3.41,2.5-.22,1.42,2,1.54,3.15.22,2.23-.94,5.2,3.29,4.64,1.24-.16,1.09,1.1,1.05,1.9-.1,1.51.16,2.38,2,2.4,2.49,0,1.16,2.11,1.41,3.29.47,2.23-1.56,5.64,3.41,5.52,1.76,0,.72,2.64.9,4.06.21,1.75-.57,3.88,2.63,3.54,3.39-.35.34,4,2.66,4.13s3.67.34,3.49,3.27c-.15,2.38-1.67,6.22,3.49,5.62.55-.06.51.87.76,1.33,1.7,3.16,4.88,5.77,3.56,10,0,.13.38.57.56.55,5.56-.6,3.34,3.6,3.54,6,.16,1.86,1.7,2.08,2.33,2.91,1.9,2.53,5.61,3.41,6.34,6.74.51,2.31-1.25,5.76,3.56,5.33,1.23-.11.79,1.61.8,2.51,0,10.66,0,21.31.07,32,0,2.22-.85,2.55-2.78,2.55q-34.77-.07-69.55,0c-2.16,0-3.3-.44-2.92-2.82a11,11,0,0,0,0-1.72q0-148.81-.07-297.63c0-3.55.49-4.9,4.54-4.79,12.52.33,25,.21,37.58,0,2.94,0,4.23.57,3.8,3.72-.32,2.29-.53,4.78,3.2,4.19,1-.15,1.16.75,1.05,1.48-.36,2.36.75,2.86,2.91,2.85,2.46,0,1.45,2.15,1.37,3.27-.37,4.91,2.41,7.42,6.55,8.7,2.05.64,1.05,2,1.28,3.09.49,2.33-1.73,6,3.52,5.86,1.57,0,.63,2.7.78,4.16.21,2.13-.77,5,3.17,4.26.77,3.49,7.16,3.16,5.6,8.41-.43,1.46-1,4,2.3,3.74,1.26-.09,1,1.1,1.07,1.91s-.27,2.28.72,2.18c5.14-.49,3.26,3.25,3.59,5.66,0,.29,0,.81,0,.83,3,.91,3.81,4.67,6.12,5.48s2.42,1.48,2.55,3.33c.18,2.38-1.77,6.2,3.47,5.72,1.06-.09.4,1.67.85,2.07a10.89,10.89,0,0,1,3.74,9.53c4.41-1.38,3.16,6,7.74,5,.9-.2.41,2.78.54,4.29.17,2-.73,4.58,3,4.07,1.53-.21,1.35,1.05,1.41,2.05s-.32,2.4,1.24,2.16c3.59-.54,3.14,1.79,3.07,4s-.57,4.46,3.06,4c1.83-.24,1,1.59,1.27,2.56.58,2.29-1.94,6.09,3,6.26-.49,4.38,7.37,4.87,4.8,10.31-.42.89.38,1.65,1.46,1.49,2.31-.34,3.14.68,2.82,2.88-.09.61.14,1.41.71,1.36,5.61-.56,3,3.67,3.58,6.05.15.69.12,2,.19,2,3.26.07,4,4.38,5.07,4.56,3.79.62,2.32,3,2.48,4.78s-.37,3.93,2.7,3.45c.69-.11,1.71,0,1.58.93-.42,3,1.22,3.14,3.62,3.65,1.68.36.61,3,.76,4.63.17,1.9-.62,4.32,2.81,3.75,1.06-.17,1.57.39,1.55,1.49,0,.82-.15,2.05,1.1,1.87,3.8-.56,3.17,2,3.24,4.24.07,2-1.11,4.82,2.85,4.69.82,0,.52,1.46.58,2.28s0,1.82.79,1.72c4.82-.6,3.42,2.87,3.5,5.26.05,1.57,0,2.7,2.2,2.7s2.17-1.16,2.17-2.71q0-41,0-82.07c0-1.63-.07-2.89-2.23-2.59-1.29.18-2.26-.12-2.14-1.8,0-.48-.38-1.44-.54-1.43-5.69.44-3.25-3.85-3.74-6.4-.15-.81.24-2.29-.62-2.27-4.46.09-2.55-3.18-2.79-5.16s.45-4.26-2.89-3.69c-1.09.18-1.52-.5-1.49-1.55,0-.69.08-1.85-.72-1.76-5.15.55-3.27-3.23-3.59-5.64-.07-.57.13-1.61,0-1.66-3-.95-3.8-4.72-6.11-5.51s-2.38-1.5-2.56-3.33c-.23-2.23,1.75-5.61-3-6-1-.09-.42-2.63-.41-4,0-2,.18-3.86-2.77-3.37-1,.16-1.72-.31-1.57-1.45.3-2.21-.52-3-2.82-2.94-2.72,0-1.24-2.33-1.48-3.62-.4-2.19,1.28-5.64-3.33-5-.66-3.66-6.14-3.51-5.64-9,1-10.71.38-21.57.23-32.37,0-2.73.57-3.65,3.5-3.61,14.39.17,28.79.1,43.19.11a1.19,1.19,0,0,1,.31,1.61,4.12,4.12,0,0,1,3.28-2.76c6.62-.58,13.24-.3,19.84-.23,5.4.05,6.44,1.17,6.49,6.75.11,11.36,0,22.72,0,34.07q0,34.29,0,68.58c0,2.29.22,4.61-.54,6.84a1.58,1.58,0,0,0,0,2.57c.79,2.39.56,4.85.56,7.29-.08,36,.22,71.92-.17,107.88.23,4.21-1.87,8.38-.17,12.61.74,9.9.24,19.81.33,29.71.08,9.05.12,18.1,0,27.15-.08,4.87-1.13,5.88-5.84,6-9.47.16-18.95.25-28.42,0-1-.08-2-.08-3.06-.09-4.7,0-9.56.63-13.09-3.7-.62-.75-1.85-1.25-1.81-2.27.15-3.87-2.26-6.22-4.65-8.71-2-2.07-3.81-4.28-3.83-7.45,0-1.07-.9-1.75-1.78-2.29s-2-1.49-2-2.68c.2-5.08-3.9-7.27-6.74-10.29-.58-.62-1.69-1.05-1.65-1.88.18-4-3-6-5.08-8.53a15,15,0,0,1-3.57-7.56c-.5-3.16-3.92-4.64-5.94-7-.64-.73-1.86-1.14-1.93-2.19-.34-5-4.16-7.47-7.37-10.39-.32-.29-.91-.57-.88-.9.46-5.13-4.69-7.78-5.42-12.48-.43-2.84-2.92-4.79-4.94-6.78-.7-.69-2-1.06-2.05-2.08-.12-5.69-4.14-8.69-7.93-11.89a4.39,4.39,0,0,1-1.24-3.12c0-.44-.06-.88-.08-1.32-1-3.11-4.45-4.11-5.85-6.91-.42-.83-1.62-1.46-1.53-2.47.48-5.25-3.54-7.26-6.86-9.77-.7-.53-1.67-1-1.64-1.85.27-6.38-5.32-8.77-8.55-12.76A4.39,4.39,0,0,1,157.93,203.76Z"/><path class="cls-4" d="M219.47,366.37l-1.56-1.58q-23.4-31.18-46.78-62.37c-3.29-4.41-3.46-9.86-4.56-15-3-13.72-5.81-27.46-8.69-41.2.71-1.3,1.69-1.73,3.06-1a7.77,7.77,0,0,1,1.7,3.88c3.16,15.13,6.73,30.17,9.57,45.36a9.62,9.62,0,0,0,1.38,4.83c14.9,18.76,29,38.13,43.26,57.38,3.37,4.55,6.7,6.74,12.19,4.62a9.9,9.9,0,0,1,3.4-.49c3.78-.27,7.61.5,11.33-.67,17.3-2.67,34.7-4.45,52.08-6.46,8.83-1,17.67-2.08,26.45-3.45a5.18,5.18,0,0,1,1.41-.16c4.69,1,9.12-.82,13.66-1.37,15.86-1.89,31.75-3.57,47.57-5.72,4.67-.63,4.77-.81,2.17-4.77-11.63-17.69-23-35.56-34.54-53.3-2.47-3.79-5.73-7.32-5.76-12.31a6,6,0,0,1,1.39-2.12c6.85-8.71,13.25-17.76,20-26.51,1.93-2.48,2-4.65-.09-6.93a3.47,3.47,0,0,1-.52-.69c-2.59-4.85-7.72-7.72-8.61-14.25-.66-4.88-5.17-9.12-7.87-13.71-8.89-15.13-18.09-30.08-27-45.21-.46-.89-1.08-1.68-1.51-2.59a4,4,0,0,1-.21-1.82,10.08,10.08,0,0,1,1-2.91c4.58-4.8,10.42-8,15.39-12.38A8.85,8.85,0,0,1,340,143c6.27-2.09,12.51-4.27,18.81-6.25a6.47,6.47,0,0,0,4.95-5.72c3.64-21.36,6.9-42.79,10.65-64.14a8,8,0,0,0,.17-3c-1.71-8.13-3.91-16.11-8-23.45a11.57,11.57,0,0,0-3.75-1.32c-24.71-5.56-49.41-11.19-74.13-16.7a21.58,21.58,0,0,1-3.34-.87,3.73,3.73,0,0,1-1.15-.86c-4.36-2.34-9.28-2.58-14-3.7-8.36-2-16.77-3.84-25.13-5.85-2.57-.62-4.19.09-5.8,2.27q-15.86,21.49-32,42.78c-1.37,1.81-1.76,3.18-.92,5.4Q223.7,107.25,240.77,153c-.54,1.37-1.46,1.9-2.89,1.29l-27-72.2c-2.31-6.19-4.48-12.43-7-18.54-1.61-3.92-.9-7,1.64-10.33,10-13,19.77-26.14,29.6-39.25.86-1.14,1.53-2.41,2.29-3.62a.74.74,0,0,1,0-1.16c5.88-3.43,11.52.33,17.27.59,2.67.12,5.13,1.58,7.87,1.35,1.58,1.92,4,1.3,5.95,1.78,6.11,1.48,12.2,3,18.38,4.17,8.4,2.9,17.18,4.23,25.8,6.23,18.12,4.19,36.28,8.17,54.43,12.23a5.59,5.59,0,0,1,4.23,3.33c2.78,8.06,6.62,15.85,7.5,24.42.5,4.82-1.28,9.58-2,14.37a19.85,19.85,0,0,0-.07,2.56,1.11,1.11,0,0,1-.11,1.61c-1.68,2.47-.59,5.22-.81,7.84-.19,1.32-1.19,2.27-1.64,3.47-1.76,5.44-1.54,11.2-2.68,16.76-1.85,9.06-3.16,18.23-4.7,27.36-.09,1.95-1.28,2.45-3,2.25-5.74,1.86-11.54,3.54-17.2,5.61-6.92,2.53-12.61,7.11-18.41,11.52-2.36,1.79-1.38,3.32-.31,5.11,6.44,10.71,12.67,21.56,19.38,32.1,2.9,4.55,4.28,10.25,9.31,13.33,3.25,10.74,10.92,19.06,15.86,28.87.83.19,1.12,1,1.66,1.49.28,1.44.56,2.88.83,4.31.3.81-.11,1.21-.81,1.46q-10.79,14.22-21.59,28.43c-1.37,1.8-1.85,3.18.76,4.25,2,.82,0,2.63,1.1,4.23,13.36,20,26.42,40.28,39.56,60.47,1.34.19,1.08,1.5,1.6,2.28-.61,2.22-1.7,3.36-4.35,3.61-8.75.83-17.47,2.08-26.2,3.16-1.09.14-2.32-.15-3.11,1a4.16,4.16,0,0,1-2,1.09c-11.18,1-22.28,2.8-33.47,3.76-1,.07-1.95.49-2.95.59-21.24,2.27-42.42,5.05-63.64,7.46-10.81,1.23-21.58,2.85-32.44,3.69-1-.22-2,.23-2.94-.07Z"/><path class="cls-2" d="M237.46,9.21c0,.39,0,.77,0,1.16Q187,23.95,136.51,37.55a12.29,12.29,0,0,1-7.51-.24Q78,20.08,26.9,3c-1.31-.44-2.57-1.22-4.52-.88,2.06,8.39,4.08,16.69,6.14,25,4.37,17.53,8.61,35.09,13.19,52.57,2.18,8.3,7.67,15,11.76,22.42,6.74,12.2,13.78,24.24,20.7,36.35.49.85,1.34,1.74.61,2.72-.57.77-1.6.5-2.43.27-15.44-4.43-31-8.66-45.63-15.39a2.19,2.19,0,0,1-1.13-1.39A317.6,317.6,0,0,0,73.5,140c-4.25-7.49-8.13-14.33-12-21.16-5.9-10.37-11.89-20.7-17.68-31.13-1.53-2.76-2.74-3.17-5.46-1.28C28.67,93.17,18.81,99.62,9,106.16c-1.27.85-2.59,1.63-3.89,2.44l-.67-1,35.82-24L21.8,75.94l.42-1,18.26,7.18c-.47-5.67-2.21-10.52-3.43-15.45C32,46.17,26.7,25.75,21.79,5.25,20.92,1.64,19.45.46,16,.85A21.17,21.17,0,0,1,9.3.42c5.67-.34,11.22-1,16.92.89C60.84,13,95.56,24.43,130.23,36a11,11,0,0,0,6.65.14q47.76-12.93,95.55-25.79C234.09,9.9,235.78,9.59,237.46,9.21Z"/><path class="cls-5" d="M363.89,139.53l3-2.25c1.79,3.21,4.39,3.41,7.63,2.39a57.46,57.46,0,0,1,11.25-2.31c-5.28,2-10.59,4.21-16.32,4.14-2.22,0-2.43.51-2.17,2.18.85,5.37,1.76,10.72,2.6,16.09.31,1.95,1.48,1.22,2.56,1,4.41-1,8.83-2.08,13.34-2.78-3.12,2.55-7.38,2-11,4.11l27.37,3.57c-.06.42-.12.83-.17,1.25-6.23-.72-12.45-1.42-18.67-2.17-3.41-.42-6.81-1.39-10.19-1.29-3.64.11-4.41-2-4.87-4.65q-1.46-8.25-2.71-16.52C365.34,141.05,365.21,140,363.89,139.53Z"/><path class="cls-6" d="M157.93,203.76c0,.9,0,1.8,0,2.69-2.43,5-.59,9.34,2,13.58a12.06,12.06,0,0,1,1.15,2.3c3.22,9,8.24,15.87,18.9,16.21a4.39,4.39,0,0,1,3,1.59l0,1c-1.53,1.32-3.23.8-4.9.43-5.11-1.12-10.11-3.06-15.51-2a.88.88,0,0,1-.22-1.21c2.75-1.26,2.68-3,1.29-5.43-8.84-15.67-14.89-32.54-21.1-49.34a6.94,6.94,0,0,1-.34-4.65c3.87,10.18,7.74,20.37,11.66,30.71C155.88,207.82,155.85,205.07,157.93,203.76Z"/><path class="cls-2" d="M374.18,237.56l-1.66-1.49a6.23,6.23,0,0,0,.63-1.56c.69-6.42.69-6.48,7.19-5.56,4.24.6,8.46,1.35,12.68,2.13,4.43.83,4.82.44,4.05-3.9-1.09-6.14-2.06-12.3-2.7-18.53,2,2.78,1.89,6,2.43,9.17q1.06,6.12,2.26,12.23c.47,2.46-.36,3.54-3,3.08-5.35-.93-10.72-1.74-16.06-2.71-5.77-1-5.76-1.11-5.79,4.56C374.24,235.84,374.2,236.7,374.18,237.56Z"/><path class="cls-7" d="M162.33,238.35l.33,1.05c1.27,2.75.86,4.89-2.19,6.07l-2.59.78c-.21-.05-.42-.1-.63-.13-.52-.38-1.33-.13-1.73-.78-2.1-2.34-3.24-5-.74-7.53S159.94,236.33,162.33,238.35Z"/><path class="cls-8" d="M237.88,154.31l2.89-1.29c1.7.7,3.77,1,4.45,3,.6,1.83.69,3.69-.82,5.24a4.64,4.64,0,0,1-5.58.85c-1.94-.84-2.46-2.65-2.29-4.69A6,6,0,0,1,237.88,154.31Z"/><path class="cls-9" d="M374.2,243.33l.81-1.46q13.25,18.75,26.48,37.49c.57.8,1.26,1.51,1.9,2.26l.32.87c-1.73.12-2.43-1.13-3.28-2.34q-11.6-16.61-23.27-33.14C376.25,245.72,375.19,244.55,374.2,243.33Z"/><path class="cls-10" d="M286.93,17.1c-3.66,1.43-6.94-.56-10.35-1.2-4.6-.87-9.13-2.14-13.74-3-2.57-.47-.14-1.19-.24-1.76A49.17,49.17,0,0,1,286.93,17.1Z"/><path class="cls-11" d="M376.71,81.85c0-.53.07-1.07.11-1.61l25.71,14.68c-.19.34-.38.67-.56,1Z"/><path class="cls-12" d="M284.25,20.66l1,.11c.77,1.14.27,2.23-.23,3.24q-4.74,9.63-9.58,19.22a5.27,5.27,0,0,1-2.36,2.4l-2.6,4.79c-.71-2.19,1.07-3.24.78-4.67C276.21,37.71,279.72,28.92,284.25,20.66Z"/><path class="cls-13" d="M374.26,93.16a2.6,2.6,0,0,1,1.64-3.47c1.63,4.52,1.79,9.28,2.25,14-2.2-2.08-1.46-5-2.27-7.49C375.51,95.07,376,93.56,374.26,93.16Z"/><path class="cls-14" d="M155.52,245.34c.67,0,1.35.08,1.73.78-3.29,4.66-3.88,10.62-7.8,15Z"/><path class="cls-6" d="M360.49,350.74H362c.36,11.09.36,11.09-10.18,13.74-3.47.87-6.91,2.24-10.44,2.51-10.48.77-17,7-22.66,15-2.78,4-6.17,7.56-9.26,11.33a3.44,3.44,0,0,1-4.19,1.21q-40.19-13.53-80.39-27c-.13,0-.21-.2-.31-.3l1.73-.86c4.88.59,9.44,2.32,14.06,3.86l60.6,20.2c5.35,1.78,6.26,1.58,9.73-2.57,4.34-5.18,8.57-10.45,13-15.54,1.91-2.18,2.12-4.43,1.55-7.2-.68-3.26-2.86-6.41-1.26-10l1.61-.83c2.27,2.66,2.19,6.13,3,9.25.75,2.93,2.1,3.61,4.92,2.86,7.05-1.9,14.13-3.7,21.26-5.3,3.23-.73,4.63-2.36,4.42-5.66C359.06,353.83,358.88,352,360.49,350.74Z"/><path class="cls-15" d="M395.63,343,394,340.71c2.37-6.65,2.11-13.9,4.19-20.61l1.1.2Q397.47,331.64,395.63,343Z"/><path class="cls-16" d="M299.92,279c2.63-7.1,3.89-14.57,5.77-21.87.85-3.31,1.58-4.73,5.34-2.94,7.36,3.5,15,6.45,22.44,9.75,1.9.85,3.39,1.24,4.84-.67,1.88-2.46,3.18-1.23,4.61.68,1.94,2.59,2.85,6,6,7.62l-1.68.63c-2-1.5-2.77-4-4.37-5.78-.87-1-1.11-3.26-2.88-2.6a4.38,4.38,0,0,0-3,4.32c.06,3.12,0,6.24,0,9.92a4.13,4.13,0,0,1-1-4.16c1.16-6-1.75-8.75-7.06-10.61-6.07-2.13-11.87-5-17.82-7.52-1.26-.52-3-2.06-3.68.7-2.32,9.08-4.61,18.16-7.21,28.41l10.65-6.81.71,1c-2.81,1.89-5.54,3.92-8.47,5.62-2.32,1.36-3.66,3.06-3.51,5.8C297.09,286.64,300.39,282.88,299.92,279Z"/><path class="cls-17" d="M231.49,362q15.22-4.32,30.44-8.66a11.4,11.4,0,0,0,1.52-.68h2.69c-.23,1.52-1.47,1.46-2.57,1.76-7.53,2-15,4.14-23.14,6.38l3,.56C239.52,362.72,235.48,361.79,231.49,362Z"/><path class="cls-18" d="M322.86,159.1l-23.05,3.36c-.87-.36-.62-.68,0-1,6.57-1.14,13.12-2.37,19.71-3.34a13.49,13.49,0,0,0,4.33-1.5C323.54,157.45,323.2,158.27,322.86,159.1Z"/><path class="cls-11" d="M367.21,39c-8.72,2.22-17.42,4.61-26.2,6.59-3.18.72-3.34,1.82-2,4.32,1.86,3.4,3.51,6.92,5.23,10.39,2.91,5.9,5,12.53,12.92,14a11,11,0,0,1-10-5.42c-3-5.9-6.1-11.75-8.82-17.77a15.54,15.54,0,0,0-6.95-7.28q-7.95-4.55-15.54-9.74c3.06,0,5.37,1.83,7.46,3.51,8.54,6.87,17.58,8.65,27.87,4.18,4-1.75,8.7-1.69,12.72-3.72Z"/><path class="cls-19" d="M324.75,162.06C322.07,168.77,322,176,320.62,183c-1.43,7.43-2.44,14.93-3.68,22.39a2.35,2.35,0,0,1-1.84,2.24c1-6,1.87-11.74,2.85-17.46,1.7-9.84,3.46-19.66,5.19-29.49Z"/><path class="cls-20" d="M171.18,295.65c2.83.76,3.52-2,4.94-3.26,1.88-1.73,3.56-2.41,6.15-1.7,3.71,1,7.63,1.28,11.33,2.31s7.06,1.31,9.83-2c-1.59,2.73-3,5.29-7.16,4.14-4-1.1-8.13-1.6-12.19-2.43-5.91-1.2-9.48.91-11.58,6.94Z"/><path class="cls-21" d="M323.08,350.85c-3.28-10-5.33-20.32-7.3-30.65a237.57,237.57,0,0,1,8.12,30.73A3.74,3.74,0,0,0,323.08,350.85Z"/><path class="cls-22" d="M338.7,144.29l-22.57-23.61c1.91-.67,1.74-.62,2.42,1.6.3,1,1.35,1.8,2.14,2.6q9.48,9.65,19,19.25Z"/></svg>