<?xml version="1.0" encoding="utf-8"?>
<!-- Generator: Adobe Illustrator 22.0.0, SVG Export Plug-In . SVG Version: 6.00 Build 0)  -->
<svg version="1.1" id="Layer_1" xmlns="http://www.w3.org/2000/svg" xmlns:xlink="http://www.w3.org/1999/xlink" x="0px" y="0px"
	 viewBox="0 0 100 100" style="enable-background:new 0 0 100 100;" xml:space="preserve">
<g>
	<path d="M52.8,61.9c0-9.7,0-19.3,0-29.1c0.3,0,0.5,0,0.7,0c4.6,0,9.2,0,13.8,0c2,0,3.9,0.3,5.8,1C76,35,78,37.1,79.2,40
		c1.8,4.4,1.9,8.9,0.5,13.4c-1.5,4.5-4.8,7.1-9.4,8c-1.4,0.3-2.9,0.4-4.4,0.4c-4.1,0.1-8.1,0-12.2,0C53.4,61.9,53.2,61.9,52.8,61.9z
		 M61.6,47.4c0,2.2,0,4.3,0,6.5c0,0.5,0.1,0.7,0.7,0.7c1,0,2.1,0,3.1,0c2.6-0.1,4.7-1.1,5.7-3.6c0.7-1.8,0.8-3.7,0.4-5.6
		c-0.6-2.8-2.3-4.5-5.1-4.9c-1.3-0.2-2.6-0.1-3.9-0.2c-0.6,0-0.8,0.1-0.8,0.8C61.7,43.1,61.6,45.2,61.6,47.4z"/>
	<path d="M26.7,32.8c8.1,0,16.2,0,24.4,0c0,2.4,0,4.8,0,7.3c-0.3,0-0.5,0-0.8,0c-4.7,0-9.3,0-14,0c-0.6,0-0.8,0.1-0.7,0.7
		c0,1,0,2,0,3c5.2,0,10.3,0,15.5,0c0,2.3,0,4.6,0,6.9c-0.3,0-0.6,0-0.8,0c-4.6,0-9.3,0-13.9,0c-0.7,0-0.8,0.2-0.8,0.8
		c0.1,0.7,0.1,1.4,0,2.1c-0.1,0.7,0.2,0.9,0.9,0.9c4.6,0,9.2,0,13.8,0c0.3,0,0.6,0,0.9,0c0,2.4,0,4.8,0,7.3c-8.1,0-16.2,0-24.4,0
		C26.7,52.2,26.7,42.5,26.7,32.8z"/>
	<path d="M8.1,61.8c0-0.3,0-0.5,0-0.8c0-6.5,0-13,0-19.5c0-1.3,0-1.3-1.3-1.3c-2,0-3.9,0-5.9,0c-0.3,0-0.5,0-0.8,0
		c0-2.5,0-4.9,0-7.3c8.3,0,16.7,0,25.1,0c0,2.4,0,4.8,0,7.3c-0.2,0-0.5,0-0.8,0c-2.1,0-4.2,0-6.3,0c-1,0-1,0-1,1.1
		c0,6.5,0,13.1,0,19.6c0,0.3,0,0.6,0,1C14,61.8,11.1,61.8,8.1,61.8z"/>
	<path d="M81.9,32.8c2.2,0,4.2,0,6.2,0c0.2,0,0.4,0.3,0.5,0.5c0.6,1,1.2,2.1,1.8,3.1c0.1,0.2,0.2,0.4,0.4,0.7
		c0.4-0.7,0.8-1.3,1.1-1.9c0.5-0.8,0.8-1.9,1.5-2.3c0.7-0.4,1.8-0.1,2.7-0.1c1.2,0,2.3,0,3.6,0c-1,1.4-1.9,2.8-2.8,4.1
		c-0.9,1.4-1.9,2.7-2.8,4.1c-0.3,0.4-0.3,0.7,0,1.1c1.8,2.6,3.6,5.2,5.4,7.9c0.1,0.2,0.2,0.4,0.4,0.7c-2.1,0-4.1,0-6.1,0
		c-0.2,0-0.4-0.2-0.5-0.4c-0.7-1.1-1.3-2.1-1.9-3.2c-0.2-0.3-0.4-0.6-0.6-0.9c-0.8,1.3-1.5,2.5-2.1,3.7c-0.4,0.7-0.8,0.9-1.6,0.9
		c-1.7-0.1-3.5,0-5.3,0c0.1-0.2,0.2-0.4,0.3-0.5c1.8-2.7,3.6-5.4,5.5-8c0.3-0.4,0.3-0.7,0-1.1C85.7,38.3,83.8,35.6,81.9,32.8z"/>
</g>
</svg>
