<?xml version="1.0" encoding="utf-8"?>
<!-- Generator: Adobe Illustrator 22.0.0, SVG Export Plug-In . SVG Version: 6.00 Build 0)  -->
<svg version="1.1" id="Layer_1" xmlns="http://www.w3.org/2000/svg" xmlns:xlink="http://www.w3.org/1999/xlink" x="0px" y="0px"
	 viewBox="0 0 500 500" style="enable-background:new 0 0 500 500;" xml:space="preserve">
<style type="text/css">
	.st0{fill:#4E2A84;stroke:#FFFFFF;stroke-width:3;stroke-miterlimit:10;}
</style>
<path class="st0" d="M494.3,150.5c-6.3-5-13.2-9.2-20.3-13.1c-6.4-3.6-13.3-5.6-20.2-7.9c-10.6-3.6-21.1-7.3-32.4-8.6
	c-1.2-0.1-1.8-0.7-2.4-1.6c-1.4-1.7-2.6-3.5-4.1-5.1c-3.8-4.3-7.5-8.7-12.6-11.1c-1.3-0.6-2.2-1.3-2.8-2c-1.1-0.7-1.9-1.6-2.8-2.5
	c-1.6-1.6-3.1-3.1-4.7-4.7c-0.6-0.5-1.2-1.1-1.7-1.6c-0.8-0.4-1.6-0.8-2.4-1.2c-0.5,0.1-1.4-0.4-2.9-1.3
	c-11.8-6.5-24.5-11-37.3-15.1c-8.6-2.8-17.4-5.4-26.2-7.3c-1.2-0.2-1.7-0.4-2.1-0.9c-1.8-0.6-3.7-1.2-5.4-1.8
	c-2.9-1.1-5.7-2.9-8.8-3c-0.2,0-0.3,0-0.5-0.1c-0.3,0-0.6-0.1-0.8-0.1c-1.5-0.2-2.9-0.5-4.3-0.9c-6.8-1.6-13.4-3.9-20.1-5.9
	c-8-2.4-16.1-3.4-24.2-0.3c-2.2,0.9-4.6,1.3-6.9,1.9c-0.4,0.1-0.7,0.2-1,0.2c-2.5,1.1-5.2,1.6-7.9,2.1c-1.9,0.4-3.9,1-5.7,1.4
	c-2,0.5-4,1.1-6,1.6c-38.2,9.9-76.3,19.7-114.5,29.6c-0.5,0.1-0.9,0.3-1.4,0.4c-1.5,0.3-1.9,1.3-1.7,2.6c0.1,1,0.2,1.9,0.4,3
	c0.5,3.4,0.3,3.9-3.1,4.9c-4.3,1.3-8.6,2.4-13,3.6c-0.2,0-0.4,0.1-0.6,0.1c-3.5,1-5.5,0.7-3.6,5.7c0.5,1.3,0.1,2.2-1.2,2.9
	c-2.4,1.4-4.8,2.9-7.3,4.4c-0.9,0.5-1.3,0.8-1.6,0.7c-1.4,0.8-2.8,1.5-4.3,2c-2.5,1.1-4.6,2.8-7.2,3.7c-0.3,0.2-0.6,0.4-1,0.6
	c-3.2,1.9-6.4,3.9-9.6,5.8c-0.6,0.4-1.2,0.9-2.1,1.1c-4.6,2.4-9,4.8-13,8.1c-0.5,0.6-1.1,1.1-1.9,1.6c-11.9,6.5-23.8,13.3-35.7,19.9
	c-0.7,0.4-1.3,0.7-1.9,1.1c-2.8,1.6-2.9,2.3-1.4,5.2c0.9,1.6,2,3,3.3,4.4c2,2.4,2.7,5,1.7,8c-0.7,2.2-1.3,4.6-1.6,6.9
	c-0.5,2.4-0.2,2.8,2.3,3.2c4.8,0.8,9.8,1.6,14.6,2.3c6.5,1.1,13,2.1,19.6,3.1c1.5,0.2,2.2,0.9,2.9,2.1c8.9,17.1,19.3,33.3,29.4,49.7
	c18.1,29.5,36.6,58.7,54,88.7c2.2,3.9,4.3,7.9,6.4,11.7c1,1.8,1.4,3.7,1.4,5.7c0,29.5,0,59,0,88.5c0,0.4,0,0.7,0,1.1
	c0.1,0.2,0.2,0.4,0.2,0.6c0,1-0.2,1.9-0.3,2.9h0.1c1.5-1,3.1-1.8,4.7-2.6c2.4-1.3,4.7-3.1,7.1-4.4c0.3-0.4,0.7-0.8,1.3-1.2
	c2-1.3,3.9-2.7,5.8-4.1c24-17,48.1-33.9,72.1-50.9c0.6-0.4,1.1-1.1,2.1-0.7c0,3.2,0.3,6.4-0.1,9.7c-0.2,1.9-0.1,3.8,0.2,5.6
	c0.7,4,1.4,7.9,2,11.7c0.8,4.4,1.5,8.7,2.3,13.1c0.4,2.2,1.4,2.5,3.2,1.3c1.8-1.4,3.7-2.7,5.5-4.1c0.7-0.5,1.3-0.9,1.6-1.2
	c1-1.2,2.1-2.1,3.3-3c2.5-1.9,5.2-3.6,7.7-5.6c0.1,0,0.1-0.1,0.2-0.1c0.3-0.4,0.8-0.8,1.5-1.3c9.2-7.4,18.3-14.7,27.6-22.1
	c7-5.5,14-10.9,21-16.2c2.8-2.1,2.9-2.1,3.4,1.4c1.3,9.4,2.4,18.8,3.6,28.3c0,0.3,0,0.6,0.1,0.8c0.4,2,0.9,2.2,2.5,1.1
	c0.6-0.4,1.2-0.9,1.6-1.5c4.2-4.3,8.1-8.6,12.4-12.8c7.2-7.1,14.6-13.7,23.8-18.1c6.1-3,12.6-4.6,19.4-4.2
	c5.7,0.4,10.6,2.6,14.9,6.3c0.3,0.2,0.5,0.5,0.7,0.8c0.1,0.1,0.2,0.2,0.3,0.4c1.9,3.7,5.6,6.3,8.3,9.5c1.4,1.6,2.8,3.3,4.3,4.8
	c0.1,0.1,0.2,0.1,0.3,0.2c1.6,0.9,3.3,1.9,5,2.8c1.9,1.1,2.3,0.9,2.4-1.5c0-0.1,0-0.2,0-0.3c0.1-8.4,0.7-16.8,1.6-25.2
	c0.9-7.6,2.4-15,5.6-22c2-4.5,4-9,5.3-13.7c2.1-7.5,1.8-14.6-2-21.5c-1.3-2.3-2.7-4.5-4.3-6.7c-0.9-1.3-1.7-2.5-2.5-3.9
	c-1.2-2-1.4-4.1-0.3-6.2c0.5-0.9,0.9-1.8,0.9-2.8c0.3-6.4,0.1-12.8-2.3-19c-2.4-6-5.4-11.6-7.9-17.6c-3.8-8.9-3.7-17.7,0.9-26.5
	c1.2-2.2,2.5-4.5,3.9-6.6c2.7-4.4,5.6-8.7,8.3-13.1c2-3.4,3.6-7.1,3.8-11c0.3-4.6,1.9-8.2,4.8-11.5c1.5-1.6,2.3-3.5,2.7-5.5
	c0.5-2.6,1-5.1,1.6-7.8c1.2-4.9,3.1-6,7.9-4.2c7.9,3,14.8,7.7,20.5,13.8c4.8,5.2,9.2,10.8,13.9,16.2c0.6,0.7,0.9,1.6,2.1,1.6
	c0.3-1.4-0.5-2.5-1.1-3.6c-2.3-4.7-5.3-8.9-8.4-13.1c-7.8-10.5-16.9-19.3-29.1-24.7c-0.3-0.2-0.7-0.4-1-0.5
	c-2.4-1.1-3.5-2.8-3.1-5.4c0.1-0.5,0-0.9,0-1.4c0.2-2,0.6-2.4,2.8-2.4c2.9,0,5.6,0.8,8.3,1.6c6.9,2,13.3,5.1,19.7,8.5
	c9,4.7,17.4,10.3,26,15.8c0.9,0.6,1.6,1.5,3.3,1.5c-0.6-2-1.7-3.3-2.9-4.6c-2.3-2.2-4.8-4.2-7.4-6.1c-5.3-4-11.1-7.3-16.5-11.3
	c-5.5-4.2-11.5-6.5-18.2-7.9c-4.2-0.9-8.2-1.7-12-3.8c-2.9-1.6-5.2-3.7-6.5-6.8c-0.9-2.2-0.7-2.6,1.6-2.5c4.3,0.2,8.6,0.3,12.9,1
	c11,1.9,21.4,5.1,31.1,10.5c7.9,4.5,16,8.9,23.9,13.4c0.9,0.5,1.7,1.3,3.4,1.1C498.1,153.5,496.2,152,494.3,150.5z M349.2,91.7
	c4.3,0.2,8.6-0.2,12.9,0.6c2.6,0.5,5.1,1.2,7.7,2.2c3.6,1.5,6.9,3.4,10.7,4.5c0.4,0.1,0.7,0.4,0.7,1c-1.4,0.7-2.8,0.7-4.4,0.8
	c-9.9,1.1-19.6,2.8-28.9,6.5c-2.1,0.9-4.2,1.9-5.8,3.5c-2.2,2-2.6,4.6-0.9,7.1c2,3,4.6,5.5,8.6,5.4c2.9-0.1,4.9-1.6,6.9-3.6
	c1.6-1.7,3.3-3.4,4.8-5.1c3.5-3.9,8-2.6,11.3-1.1c0.6,0.3,0.9,0.7,1,1.3c0.5,3,1.9,5.6,2.3,8.6c0.7,5,0.5,10.1-0.2,15.1
	c-0.5,3.8-1.2,7.6-1.6,11.3c-0.2,1.9-1.1,3.2-2.9,4.2c-8.3,4.3-16.9,7.9-25.7,11.1c-5.5,2-9.9,5.2-13.6,9.8
	c-4.7,6-9.9,11.6-15.8,16.6c-4.3,3.6-8.8,6.8-13.9,9.2c-5.8,2.9-11.9,3.3-18.2,2.5c-1.9-0.2-3.8-0.9-5.3-2.1
	c-1.1-0.8-1.4-1.6-0.4-2.7c1.4-1.6,2.5-3.2,3.9-4.6c8.2-8.4,16.3-17,25.5-24.3c3.4-2.7,6.9-5.1,10.5-7.5c1.6-1.1,3.4-1.7,5.3-1.9
	c3.8-0.4,5.1-3,3.4-6.3c-0.4-0.8-1-1.6-1.6-2.1c-2.9-3-4-3-7-0.3c-15.3,13.5-30.3,27.3-46,40.5c-3.4,2.8-3.4,2.8-6.2-0.6
	c-2.4-2.9-4.7-6-6.2-9.6c-1.2-3-1-3.7,1.6-5.5c5.5-4,11.4-7.2,17.4-10.6c8.2-4.7,16.9-8.9,25.4-13.1c5.4-2.6,10.7-5.6,16.4-7.9
	c2-0.8,4-1.9,5.6-3.4c2.2-2.1,2.7-4.9,1.4-7.5c-1.5-2.6-4.1-3.5-6.8-2.1c-1.4,0.7-2.6,1.6-3.7,2.8c-2.4,2.7-5.5,4.4-8.7,6
	c-12.1,6.4-24.7,12-36.5,19c-4.1,2.4-8.3,4.7-12.5,7c-1.6,0.9-1.8,0.7-1.9-1.1c-0.1-4.7,0.2-9.2,1.3-13.8c1-4.2,3.4-7.2,7.5-8.3
	c11.5-3.2,22.3-8.2,33.4-12.4c5.5-2.1,11.3-3,17.2-3.8c3.6-0.5,7.1-1,10.5-2.2c3.2-1.2,3.7-1.8,3.6-5.1c0-1.2-0.2-2.3-0.5-3.5
	c-0.6-2.1-1.4-2.8-3.6-3c-1.6-0.1-2.9,0.4-4.3,0.8c-7.2,2.2-14.2,4.9-21.2,7.5c-6.4,2.3-12.7,4.7-19.3,6.5c-1.3,0.4-2.5,1-4.4,0.8
	c0.5-1.4,1.4-2,2.1-2.8c7.1-6.9,15.2-12.5,23.7-17.7c9.2-5.7,18.8-10.6,29.2-14C338.1,92.5,343.6,91.5,349.2,91.7z M362.2,205.5
	c0.1,0.9,0.6,1.9-0.5,2.4c-0.8,0.4-1.6-0.5-2.1-1c-6-4.7-10.3-10.8-13.5-17.5c-1.3-2.6-2.1-5.3-2.5-8.2c-1.1-7,2.3-11,9.5-11.1
	c0.5,0,0.9,0,1.6,0c1.6-0.1,3.5,0.2,5.2,0.6c3.1,0.9,4.5,2.7,4.2,5.9c-0.7,7.2-1.4,14.3-2.1,21.5C361.5,200.6,361.8,203,362.2,205.5
	z M360.1,295.7c-1.3,0.2-2.5,0-3.8,0c-2.8,0.2-5.4-0.6-8-0.6c-1.2,0-1.8-0.6-2.3-1.6c-2.9-6.6-3.8-13.4-1.8-20.4
	c0.8-3,2.4-5.7,5.3-7.4c2.1-1.2,2.7-1,3.3,1.4c0.6,2.3,1.2,4.7,1.7,7.1c1.6,6.2,4,12,7.6,17.4C363.5,294.1,362.9,295.4,360.1,295.7z
	 M406.5,308.4c3.1,4.8,4.2,10.2,3.4,15.9c-1,7-3.4,13.5-6.4,19.9s-4.7,12.9-4.6,20c0,1.5-0.3,2.8-0.4,4.6c-1.4-0.6-1.9-1.6-2.6-2.5
	c-1.7-2.1-3.6-4.2-5.6-6c-1.8-1.6-3.9-2.5-6.5-2.5c-6.8,0.1-13.6,0.1-20.4,0s-12.8,1.9-18.5,5.3c-4.2,2.5-7.9,5.6-11.5,8.8
	c-2.1,1.8-4.2,3.8-6.4,5.6c-1.2,1-2.4,1.9-3.8,2.7c-1.8,1.2-2.3,0.9-2.4-1.4c-0.3-5.7,0.2-11.3,2.1-16.9c0.8-2.1,1.3-4.4,1.7-6.6
	c0.5-2.3-0.1-3.1-2.6-3.5c-2.8-0.4-5.5,0.2-8,1.2c-6,2.3-11.5,5.5-16.9,9c-12.1,7.9-23.6,16.8-34.9,25.6
	c-5.6,4.4-11.2,8.7-16.9,13.1c-2.5,1.9-2.9,1.7-3.6-1.4c-0.4-1.7-0.6-3.6-0.7-5.3c-0.6-8.8,0.8-17.4,3-25.8c0.5-1.9,0.8-3.9,1-5.9
	c0.4-2.9-0.1-3.3-2.9-1.9c-2.2,1.1-4.4,2.2-6.5,3.6c-10.8,6.6-21.2,13.7-31.6,20.8c-18.1,12.6-36.2,25.2-54.2,37.8
	c-0.8,0.6-1.6,1.4-2.6,1.5c-0.8-0.4-0.6-1.2-0.6-1.7c-0.1-7-0.4-14-0.4-20.9c0.1-11.1,0-22.1,0-33.2c0-3.1,0-6.1,0.3-9.2
	c0.6-5.8-1-11.2-3.6-16.5c-4-8-8.6-15.8-13.6-23.3c-13.1-20.2-25.2-40.8-37.6-61.4c-6.9-11.3-13.3-23-20.4-34.1
	c-3.5-5.5-3.2-10.7-0.7-16.2c1.6-3.7,4.1-6.9,6.9-9.8c4.2-4.2,8.4-8.3,12.7-12.4c1.2-1.2,2.3-2.3,3.2-3.7c0.7-1.1,0.4-1.5-0.9-1.6
	c-3.4,0-6.8,0.6-10,1.6s-6.6,1.8-9.7,2.9c-5.7,2-11.5,1.6-17.4,1.4c-9.3-0.4-18.4-1.7-27.6-2.6c-3.7-0.3-7.3-0.6-11-1
	c-1.9-0.2-2.1-0.4-2.3-2.3c-0.1-2.3-0.1-4.7-0.5-7.1c-0.3-1.7,0.4-2.9,2-3.7c4.1-2.1,8-4.4,12-6.6c19.1-10.4,38.1-20.7,57.2-31.1
	c5.5-3,11.1-6,16.7-9c2.7-1.5,2.7-1.6,1.8-4.4c-0.1-0.4-0.2-0.7-0.3-1.1c-0.3-1.1,0.1-1.7,1.3-2c1.5-0.3,2.8-0.7,4.3-1.1
	c5.2-1.3,10.6-2.4,15.8-3.7c2.4-0.6,2.4-0.6,2.2-3.1c-0.4-6.8-0.6-5.4,5.1-6.9c18.6-4.7,37.2-9.2,55.7-14.2
	c11.6-3.2,23.2-6.9,34.9-9.9c13.4-3.4,26.8-7,40.4-9.7c3.4-0.7,6.7-0.6,10.1,0.3c10.7,2.9,21.1,6,31.7,9.2
	c5.1,1.6,10.3,3.2,15.5,4.8c0.9,0.3,1.6,0.6,3,1.1c-4.7,0-8.8,0.1-12.9,0c-2.1-0.1-4.2-0.2-6.3-0.3c-5-0.2-10.1-0.1-15.1-0.3
	c-11.6-0.5-23.3-0.1-34.8,1.8c-5.2,0.9-10.1,2.9-14.7,5.1c-7.9,3.8-15.8,7.8-23.7,11.6c-7.2,3.5-14.3,6.9-21.8,9.8
	c-2.3,1-2.8,1.7-2.3,4.2c0.1,0.6,0.4,1.2,0.7,1.7c1.2,2.1,1.3,2.2,3.7,1.6c4.5-1.2,8.9-2.3,13.3-3.5c9.4-2.5,18.8-4.8,28.2-7.5
	c2.2-0.6,3.7-0.2,5,1.5c0.7,0.9,1.6,1.6,2.3,2.3c2.8,2.8,6.2,3.3,9.9,2.2c2-0.6,3.9-1.6,5.6-2.7c3.6-2.5,7.3-4.9,10.8-7.6
	c4.9-3.6,10.5-5.5,16.7-5.5c4.9,0,9.9,0,15,0c-0.2,1.3-1.1,1.6-1.6,1.9c-3.9,2.5-7.9,5-11.8,7.5c-9.7,5.9-18.4,12.9-26.3,20.9
	c-1.8,1.8-3.6,3.9-5.2,5.9c-3.9,4.7-8.4,8.3-14.1,11.1c-13.9,6.7-27.5,13.7-40.4,22.1c-10.2,6.7-20,13.8-28.7,22.3
	c-7.2,7-14.3,14-21,21.5c-2,2.3-4,4.7-5.6,7.4c-0.5,0.8-1.2,1.6-0.9,2.8c1.5-0.1,2.1-1.1,3.1-1.7c4-3.1,7.7-6.6,11.2-10.1
	c16.8-16.3,35.3-30.3,55.3-42.6c8.2-5,17-8.9,26.1-12.2c4-1.5,4.4-1.1,4,2.9c-0.6,6-1.1,12.1-1.6,18.1c-0.1,1.5-0.7,2.3-1.8,3.2
	c-20.8,15.9-40,33.5-58.2,52.2c-5.6,5.7-11,11.7-15,18.6c-0.7,1.2-1.5,2.2-1.4,3.7c1.3,0.2,1.8-0.7,2.4-1.3c2.5-2.4,4.9-4.8,7.4-7.4
	c4.8-5,9.7-10.2,14.5-15.2c5.2-5.5,11.1-10.6,17.1-15.4c7.2-5.7,14-12,21.3-17.6c2.9-2.2,5.9-4.4,9-6.3c1.6-1,3.2-1.8,4.8-2.5
	c2.4-1.1,2.4-1,4.1,1.2c3.3,4.4,6.7,8.6,10,13c1.4,1.8,1.4,1.8,0,3.8c-2.9,4-6.2,7.7-9.4,11.3c-6,7-11.5,14.3-16.8,21.9
	c-10.2,14.7-20.4,29.5-29.7,44.8c-1.1,1.7-2.2,3.5-2.7,5.7c1.4-0.1,1.8-1,2.4-1.7c3-3.8,6.1-7.5,9-11.3c7.2-9.2,14.2-18.5,21.6-27.5
	c7.1-8.5,14.5-16.8,21.9-25.1c3.1-3.6,6.4-7,9.6-10.5c0.4-0.5,0.9-0.9,1.4-1.4c2.5-2.4,5.5-2.6,8.3-0.5c1,0.8,1.6,1.6,1.6,3
	c0.1,2.2-0.1,4.5-0.8,6.4c-3.6,10.1-1.3,19.7,2,29.2c4.2,11.6,10.8,22,19.1,31.2c4.5,4.9,10,8.7,15.9,11.9
	c9.3,5.1,19.3,8.3,29.7,10.4c3.1,0.6,3.3,0.9,2.8,4.1c-0.2,1.4-0.5,2.7-0.2,4.1c0.2,1,0.8,1.5,1.7,1.2c0.6-0.2,1.3-0.4,1.8-0.6
	c4.1-1.6,8.1-2.8,12-4.7c4.2-1.9,8.7-2.2,13.1-2.8c7.3-1,14.5-1.6,21.9-1.3C400.5,302.8,404.1,304.5,406.5,308.4z M402.3,267.7
	c1.3,3.2,1.9,6.6,1.7,11.3c-0.3,2.8-0.6,6.9-1,10.9c-0.2,1.8-0.7,2.2-2.6,2.5c-3.3,0.4-6.3-0.6-9.3-1.9c-0.9-0.4-0.9-1.1-0.7-1.8
	c0.5-1.8,0.9-3.7,1.5-5.5c1.6-4.8,3-9.7,3.5-14.7c0.3-2.7,1.5-4.3,3.1-4.2C400.7,264.2,401.6,266,402.3,267.7z M401.9,204.8
	c-0.1,0.1-0.3,0.1-0.9,0.2c1-5.2-0.1-10-2-14.5c-2.1-4.9-2.2-10.2-1.9-15.4c0.2-2.7,3.5-5.1,6.3-4.8c5.1,0.5,9.1,4.1,9.3,9.1
	C413.1,189.4,409.9,198,401.9,204.8z M422.3,148.8c-0.1,1.8-0.9,2.1-2.4,1.2c-0.4-0.3-0.7-0.6-1.1-0.9c-1.2-1-2.3-1-3.5-0.1
	c-3.8,2.8-4.3,6.5-2.6,10.7c0.6,1.6,2.2,2.2,4.4,2c4.4-0.4,4.7-0.1,4.2,4.3c-0.2,1.7-0.7,3.4-1.4,4.9c-0.7,1.6-1.3,1.7-2.4,0.7
	c-4.5-4.5-10.2-6.7-15.8-9.2c-5.1-2.3-10.2-5-14.2-9.2c-2.3-2.4-3.6-5.1-3.5-8.5c0.1-3.6,0-7.3,0-10.9c0-3.9,0.1-7.8,0-11.6
	c-0.1-3.6,2-6.3,3.4-9.3c0.4-0.9,1.4-0.8,2.2-0.7c2.9,0.2,5.6,0.9,8,2.6c2.9,2,5.8,3.8,9.4,4.3c1,0.1,1.5,0.7,1.5,1.6
	c0,0.5,0,0.9,0,1.4c-0.1,2.9,1.3,4.8,3.9,5.9c1,0.5,2,0.9,3,1.4c0.9,0.4,1.6,0.9,2.2,1.6c0.5,0.7,1.1,1.4,0.7,2.2s-1.3,0.7-1.9,0.7
	c-3,0-4.9,1.7-6.3,4.2c-1.3,2.3-0.8,4.9,1.1,6.8c0.6,0.5,1.2,0.5,1.7,0.4c2-0.3,4-0.6,6-0.9c2.1-0.3,3.1,0.4,3.4,2.4
	C422.3,147.3,422.3,148.1,422.3,148.8z"/>
</svg>
