<?xml version="1.0" encoding="utf-8"?>
<!-- Generator: Adobe Illustrator 17.1.0, SVG Export Plug-In . SVG Version: 6.00 Build 0)  -->
<!DOCTYPE svg PUBLIC "-//W3C//DTD SVG 1.1//EN" "http://www.w3.org/Graphics/SVG/1.1/DTD/svg11.dtd">
<svg version="1.1" id="Layer_1" xmlns="http://www.w3.org/2000/svg" xmlns:xlink="http://www.w3.org/1999/xlink" x="0px" y="0px"
	 viewBox="0 0 512 512" enable-background="new 0 0 512 512" xml:space="preserve">
<g>
	<path fill="#FFFFFF" d="M57.8,413.5c19.5-10.1,38.1-19.6,57.5-29.6c-21.7-10.9-43.7-19.1-66.3-26.8c27.5-7.5,55.1-15.1,82.6-22.6
		c0.1-0.4,0.2-0.8,0.4-1.2c-14.4-8.3-28.8-16.6-43.8-25.2c7.6-2.5,15-4.9,22.4-7.3c-18.3-4-32.5-13.5-44.1-28.7
		c11.8,2.2,22.5,2.2,33.5-1c-3.9-7.2-8.8-14-8.1-22.2c14.8,3.2,29.3,6.4,43.8,9.6c0.3-0.6,0.6-1.2,0.9-1.7
		c-9.1-3.6-11.7-13.1-19.6-18c-6.6-4-10.5-10.5-12-18c-0.5-2.5-1.7-3.7-4.2-4.4c-20.1-5.9-39.3-13.7-56.4-25.6
		c-9.2-6.4-17-14.1-23.4-23.1c-2.6-3.7-3.4-7.5-1.3-11.3c5.1-9.3,9.7-19,16.1-27.4c41.2-53.7,93.4-94.2,159.1-117.7
		c11.6-4.2,23.9-7,36-9.8c12-2.8,15.5-0.9,21.6,9.4c7.1-1.2,14.2-2.8,21.4-3.6c27.8-3.4,54.4,0.4,79.7,12.2c2.4,1.1,3,2.4,2.4,4.9
		c-1.3,5.6-2,11.3-3.5,16.8c-4.4,16.8-14,24.2-32.1,24.9c-12.1,0.5-24.1,0.3-35.7-3.9c-0.1,0.4-0.2,0.9-0.3,1.3
		c5.6,1.5,11.2,3.3,17,4.3c10.2,1.8,20.5,1.6,30.8-0.1c12.3-2,20.1-8.8,23.2-20.2c2.4-8.5,3.7-17.3,6-25.8c1.1-4.2,2.5-8.6,4.7-12.3
		c4.6-8,12.7-10.8,21.9-8.3c9.1,2.4,16.2,7.9,22.4,14.4c22.2,23.1,36.1,50.4,43.2,80.9c2.4,10.2,5,20.5,8,30.5
		c2.8,9.4,8.2,17.5,16,24c2.3,1.9,2.1,3.3,0.8,5.6c-8.3,14.5-20.9,24.8-35.3,33.2c-8.3,4.8-17.1,9-26,13.6c2.6,6.2,4,12.8,1.6,19.7
		c-0.6,1.8-1.4,3.7-2.1,5.5c-3,7.6-6,15.1-9.2,23.1c7.9,0,15.1,0,23.2,0c-9.9,8-19.1,15.4-29.1,23.5c16.5-0.9,31.7-2.2,46.8-2.4
		c15.1-0.2,30.2,0.7,45.3,1.2c0.1,0.5,0.1,1.1,0.2,1.6c-1.7,0.6-3.4,1.3-5,1.9c-19.4,7-38.1,15.2-54.9,27
		c-24.5,17.2-39.4,40.6-46.3,68.5c-3.6,14.5-5.7,29.3-8.2,44c-8,49-41.7,82-93.1,91.2c-17.7,3.2-35.6,4-53.5,3.6
		c-1.8,0-4.2-0.8-5.3-2c-26.2-28.8-58.8-49.5-94-66.6c-22.9-11.2-46.7-20.4-71.1-27.9C61,414.8,59.9,414.4,57.8,413.5z M208,366.7
		c2,3.7,3.8,6.9,5.4,10.2c17.6,35.5,26.9,73,28.9,112.2c0.2,3.7,1.3,5.3,5.2,4.8c12.6-1.6,25.5-2.1,37.8-4.9c44-10,69.9-38,76-80.7
		c2.1-15,3.7-30.2,6.5-45.1c3.6-19.7,10.6-38.2,24.8-53.4c5.7-6.1,12.5-11.4,19.3-17.4c-57.1,17.7-106.1,45.4-138.7,95.2
		c4-22.1,14.6-41,30.1-57.8C270.2,339,238.7,351.5,208,366.7z M332,170.9c-1.7,0.2-3.2,0.4-4.9,0.6c1.9,6.3,6.5,9.8,12.2,12.8
		c-4.4-0.6-8.9-1.1-12.5-3.2c-3.7-2.1-6.6-5.7-9.9-8.7c0.4,2.2,0.7,4.5,1.3,6.8c3.9,14.2,11.8,26.3,22.2,37c2,2.1,4,4.3,5.7,6.6
		c4.9,6.8,7.3,14.4,6.4,22.7c-2.6-7.6-7.8-13.3-13.8-18.5c-2.6-2.3-4.7-4.3-8.6-1.8c-2,1.3-5.4,0.5-7.2,1.9
		c-9.4,7.2-19.3,6.2-29.6,2.4c-2.1-0.8-4.6-1.2-6.8-1c-6.3,0.6-11.8-0.2-16.6-4.5c-0.9-0.8-3.1-1.2-4-0.7c-4.8,2.6-9.9,5-14.1,8.4
		c-5.5,4.6-10.3,10.1-15,14.7c4.3-13.4,23.4-32.9,35.8-34.6c-1.1,5.2,1.1,8.3,6.8,8.5c3.9,0.1,7.8-1.6,11.7-1.4
		c3.9,0.2,7.8,1.8,11.7,2.7c0.9,0.2,1.9-0.1,2.8-0.2c6.9-1,10.8-5.3,10.8-12c0-6.8-3.3-12.5-7.1-17.9c-5.1-7.4-8.9-15.1-9.8-24
		c-0.2-2.3-0.3-4.5-0.4-6.8c-0.4-0.3-0.9-0.6-1.3-0.9c-0.6,1-1,2.2-1.8,3c-3.9,3.8-8.7,6.3-14.3,6.7c-2.4,0.1-3.5,1.1-4.6,2.9
		c-4.6,7.7-13.7,11.2-22.7,9c-8.9-2.2-14.2-8.7-14.6-17.9c0-0.7-0.2-1.5-0.4-2.4c-2.1-0.2-4.1-0.4-6.4-0.6
		c-0.3,9.7,4.5,16.3,13.2,21.6c-11.2-1.5-19.8-8.2-23.1-17.6c-0.9-2.6-1.8-4-5-3.5c-3,0.5-5.2,0.8-5.6,4.6
		c-0.7,6.8-2.9,13.2-7.7,18.5c-0.7,0.7-0.8,2.1-0.8,3.2c-0.2,5.4,0.3,10.9-0.5,16.3c-2.4,16.8-10.6,29.8-28,36.2
		c-0.5,0.2-0.9,0.7-1.6,1.2c5.7,3.9,11.6,2.6,17.6,1.3c0.2,2.1,0.4,3.9,0.6,5.7c1.5,10.2,6,18.2,16.4,23
		c14.2,6.5,26.9,14.9,38.3,25.5c11.6,10.8,25.4,16.7,42.6,13.8c8.5-1.4,17.6-0.8,26.3-0.1c12.6,1.1,22.2-3.5,27.4-13.8
		c8.4-16.7,16.8-33.4,25.5-50c5.4-10.3,8.5-21,7.5-32.6c-1.3-14.5-9-27-13.4-40.9C353.4,188.3,336.1,183.9,332,170.9z M120.8,65.6
		c0.1,0.1,0.2,0.3,0.3,0.4c1-0.5,2.1-1,3.1-1.5c19.6-9.3,38.9-19,58.8-27.6c9.2-4,19.2-6.4,29.2-8.2c9.4-1.8,13.2,1.1,16,9.8
		c4.7,14.5,13.5,26.4,26.2,35.3c26,18.2,55.5,22.5,86.4,16.8c21.2-3.9,34.5-17.3,40.7-36.9c1.9-5.9,2.8-12.1,4.1-18.2
		c1.5-7.2,6.1-9.2,11.8-4.3c9.3,7.8,17.9,16.2,26.8,24.3c0.5,0.4,0.8,1,1.3,1.5c0.4,0.4,0.8,0.6,1.2,1
		c-8.9-13.9-18.5-27.1-31.9-37.2c-1.4-1-2.9-1.9-4.5-2.6c-5.8-2.6-9.7-1.2-12,4.5c-1.1,2.8-1.8,5.7-2.6,8.6
		c-2.2,8.3-4,16.7-6.6,24.9c-4.1,12.9-13.7,20.5-27.1,24c-10.7,2.8-21.5,2.3-32.4,1.6C274.3,79.4,249,60.3,238.7,28
		c-2.6-8.1-7.3-11.4-16.1-10c-7.6,1.3-15.2,2.9-22.4,5.5c-28.1,10.2-53.6,25.2-78.4,41.1C121.4,64.8,121.1,65.2,120.8,65.6z
		 M157.5,247.1c-3.3-9.1-2-12.2,7-16.6c1.8-0.9,3.7-1.6,5.6-2.4c7.6-3.2,14.2-7.5,18.5-14.6c4.5-7.3,5.6-15.1,4.1-22.7
		c-6.9,0.6-13.2,1.2-19.6,1.8c0-0.4-0.1-0.7-0.1-1.1c16.1-6.2,26.5-18.7,25.5-31.3c-0.7,0.7-1.3,1.1-1.8,1.7
		c-6.2,7.1-13.6,12.9-22.3,16.5c-10.8,4.5-21.9,8.1-32.9,12.2c-5.8,2.1-11.8,3.8-17.2,6.7c-9.8,5.3-12,17.3-3.9,27.4
		c4.5-8.2,5.5-9.4,9.5-11c-3.3,8.4-3,14,1,20c1.6-3.3,1.1-7.8,5.6-9.7C136.9,236.9,144.1,244.8,157.5,247.1z M228.2,485.4
		c-0.9-1.8-1.8-3.7-2.8-5.5c-20.1-35.3-50.4-61-85.4-82.3c-0.8-0.5-2.2-0.8-2.9-0.4c-9.3,4.4-18.6,9-28.3,13.7
		C154.7,427.5,195.7,450.1,228.2,485.4z M112,264.8c-0.5,0.5-1,1-1.5,1.5c3.5,2.9,7,5.8,11.7,9.6c-9.1,1.8-17.2,3.3-25,4.8
		c15.4,14.3,46.4,11.9,67.5,0.1c-4.7-4-6.1-9.3-5.9-15.3C142.9,268,127.4,267.6,112,264.8z M380.3,176.8
		c-1.2,13.2,2.3,25.2,9.5,36.4c4.3,6.7,10.2,12.9,6.6,21.9c8.4-6.6,10.7-14.6,7.5-24.4c2.3,2.9,4.5,5.8,6.9,8.9
		c1.5-8.1-3.1-13.6-8.6-18.5C394,193.8,385.3,186.8,380.3,176.8z M212.5,152.8c4.6-0.6,9.5-2,14.1-1.6c13.3,1.3,26.5,3.3,39.8,5
		c6,0.7,12,1.8,18,1.8c5.1-0.1,8.9-3.7,9.8-8c-2.6,0-5.3,0.3-7.8,0c-16.6-2.3-33.2-4.6-49.8-7.2C225.2,140.8,216,144.4,212.5,152.8z
		 M244.8,331.4c-5.8-6.1-11.9-11.5-16.6-17.9c-4.7-6.4-7.9-13.8-11.9-21c-3,16.6,0.8,32,8.1,47.2C231.5,336.8,238.3,334,244.8,331.4
		z M314,151.1c0.4,4.8,3.3,8.1,8.5,8.4c6,0.4,12.1-0.1,18.2-0.4c8.6-0.4,17.3-4.4,25.9,0.4c1.1-8.6-1.2-11.3-9-10.9
		c-0.5,0-1.1,0.1-1.6,0.2C342.1,150.6,328.2,153.2,314,151.1z M293,32.3c0.2,0.7,0.2,1.2,0.4,1.6c0.9,2.9,0,5.4-2.6,6.7
		c-1.5,0.8-5,1-5.4,0.2c-1.2-2-2.4-4.9-1.7-6.9c1.1-3.5,3.2-6.9,5.7-9.7c5.5-6,11.1-5.5,16,1.2c1.5-2.8,2.9-5.4,4.8-9
		c-2.6,1.2-4.1,1.8-5.5,2.5c-5.7-6.8-17-3.9-26.2,10.2c1.6-2.8,3.2-5.6,4.8-8.5c-5.2,3.7-8.5,8.9-8.9,14.1
		c-0.5,6,3.8,10.6,10.1,10.9c5.8,0.3,12.1-3.4,14.5-8.5c0.7-1.6,1.5-3.2,2.4-4.9C298.6,32.3,295.9,32.3,293,32.3z M324.8,35.2
		c-9.5-2.8-11,6.2-17,9.5c1.5-3.5,2.8-6.5,4.1-9.5c-0.4-0.3-0.8-0.5-1.2-0.8c-1.3,1.7-2.6,3.4-4.2,5.5c0.4-2,0.7-3.4,1-4.9
		c-2.8-0.8-3.9-0.1-4.4,2.5c-0.9,5.3-2.3,10.5-3.5,15.9c10.6-1.5,13.4-10.8,20.1-15.9c-0.8,2.2-2,4.2-3.2,6.1
		c-4.3,6.9-4.3,6.9,2.3,12c0.1,0.1,0.2,0,0.7,0.1c6.4-6.7,12.9-13.5,19.4-20.4c-0.3-0.4-0.6-0.7-0.9-1.1c-2.2,1.4-4.5,2.8-6.7,4.2
		c-0.1-0.1-0.2-0.2-0.2-0.4c0.8-1,1.6-2,2.7-3.3c-1.8,0-3.1,0-4.4,0c0.3,0.2,0.5,0.5,0.8,0.7c-2.7,2.9-5.5,5.8-8.2,8.7
		c-0.3-0.2-0.6-0.3-0.9-0.5C322.2,41,323.5,38.2,324.8,35.2z M254.5,164.1c-0.3-0.5-0.6-0.9-0.9-1.4c-1.8-0.3-3.6-0.7-5.4-1
		c-3.3-0.5-3.6,1.5-2.4,3.4c0.8,1.2,3.1,2.4,4.4,2.2C251.7,167.1,253.1,165.3,254.5,164.1z M337.4,169.9c0.7,2.6,2.5,3.6,4.8,2.7
		c1.2-0.5,1.9-2.2,2.8-3.4c-2.7-0.5-4.4-0.3-6.1-0.1C338.4,169.3,338,169.6,337.4,169.9z"/>
	<path fill="#FFFFFF" d="M248.5,377.1c2.7-1,5.9-1.3,7.4-3c1.2-1.4,0.2-4.5,0.2-7.1c3.1-0.6,6.4,1.5,7.2,5.4c0.9,3.9-2.1,8-6.4,9
		C252.8,382.4,249.3,380.3,248.5,377.1z"/>
	<path fill="#FFFFFF" d="M274.4,475.1c3.3,1.3,6.7,1.6,8.2-1.6c0.9-1.9,0.2-4.6,0.2-7.2c2.8-0.5,6.1,1.5,7,5.3c0.9,4-1.5,8-5.6,9.1
		C279.7,481.9,276.2,480,274.4,475.1z"/>
	<path fill="#FFFFFF" d="M273.9,415.5c5.1-0.2,7.9,1.7,8.7,5.6c0.7,3.8-1.8,7.6-5.7,8.7c-4.2,1.2-7.7-0.6-9.3-4.3
		c2.5-0.8,5.6-1,7.5-2.5C277.9,420.8,276.3,417.9,273.9,415.5z"/>
	<path fill="#FFFFFF" d="M291.3,271.4c9.2-4.5,18.7-4.9,28.5-2.8c3.3,0.7,6.7,1.4,9.3-1.9c1.8-2.3,2-4.7-0.7-6
		c-3.7-1.8-7.6-3.5-11.6-4.3c-10.6-2.2-20.8,0.3-30.8,3.5c-6.2,2-12.2,4.3-18.2,6.7c-10.6,4.2-13.7,3.2-19.3-7.1
		c12.5,2.5,23.3-2.8,34.3-6.4c15.7-5.2,31.3-7.3,47.2-0.7c4,1.7,8.6,2.2,13,3c1.7,0.3,3.5,0.1,5.2,0.1c0.1,0.5,0.3,0.9,0.2,0.9
		c-7.2,4.1-8.6,11.9-12.4,17.9c1.4,3.3,2.9,6.6,4.4,10c-0.3,0.2-0.7,0.5-1,0.7C325.3,273.9,308.6,271.9,291.3,271.4z"/>
</g>
</svg>
