<?xml version="1.0" encoding="utf-8"?>
<!-- Generator: Adobe Illustrator 17.1.0, SVG Export Plug-In . SVG Version: 6.00 Build 0)  -->
<!DOCTYPE svg PUBLIC "-//W3C//DTD SVG 1.1//EN" "http://www.w3.org/Graphics/SVG/1.1/DTD/svg11.dtd">
<svg version="1.1" id="Layer_1" xmlns="http://www.w3.org/2000/svg" xmlns:xlink="http://www.w3.org/1999/xlink" x="0px" y="0px"
	 viewBox="0 0 512 512" enable-background="new 0 0 512 512" xml:space="preserve">
<path fill="#4E2A84" d="M417.3,512c-0.7,0-1.3,0-1.9,0c-25.2,0-50.3,0-75.5,0c-1.3,0-2-0.4-2.7-1.6
	c-49.2-83.6-98.5-167.3-147.8-250.9c-18.2-30.9-36.4-61.8-54.6-92.7c-0.3-0.5-0.6-1.1-1.2-1.9c-0.1,0.8-0.1,1.2-0.1,1.6
	c0,49.5,0,98.9,0,148.4c0,0.8,0.4,1.7,0.8,2.4c21.8,36.6,43.6,73.3,65.4,109.9c3.1,5.2,6.2,10.4,9.3,15.6c0.3,0.6,0.6,1.3,0.6,1.9
	c0,22.1,0,44.3,0,66.4c0,0.2,0,0.4,0,0.7c-38.2,0-76.4,0-114.7,0c0-170.6,0-341.1,0-511.9c0.6,0,1.1-0.1,1.7-0.1
	c25.3,0,50.5,0,75.8,0c1.2,0,1.9,0.4,2.5,1.5C229.1,93.7,283.6,186.1,338,278.5c13.1,22.2,26.1,44.3,39.2,66.5
	c0.3,0.6,0.7,1.1,1.3,2.1c0.1-0.9,0.1-1.3,0.1-1.8c0-49.4,0-98.7,0-148.1c0-0.9-0.4-1.9-0.9-2.7c-22.4-37.7-44.8-75.3-67.3-113
	c-2.5-4.1-4.9-8.3-7.4-12.4c-0.3-0.5-0.5-1.2-0.5-1.8c0-22.1,0-44.3,0-66.4c0-0.2,0-0.5,0.1-0.8c38.2,0,76.5,0,114.8,0
	C417.3,170.7,417.3,341.2,417.3,512z"/>
</svg>
