<?xml version="1.0" encoding="utf-8"?>
<!-- Generator: Adobe Illustrator 17.1.0, SVG Export Plug-In . SVG Version: 6.00 Build 0)  -->
<!DOCTYPE svg PUBLIC "-//W3C//DTD SVG 1.1//EN" "http://www.w3.org/Graphics/SVG/1.1/DTD/svg11.dtd">
<svg version="1.1" id="Layer_1" xmlns="http://www.w3.org/2000/svg" xmlns:xlink="http://www.w3.org/1999/xlink" x="0px" y="0px"
	 viewBox="0 0 256 256" enable-background="new 0 0 256 256" xml:space="preserve">
<path display="none" fill="#164ABF" d="M61.7,54.7c0-8.8,0-16.9,0-25c0-8.2,3.7-12.2,12.2-12.2c36.1-0.1,72.1-0.1,108.2,0
	c8.2,0,12.1,4,12.2,11.7c0.1,8.3,0,16.5,0,25.5c13.7,0,26.7,0,39.7,0c11.7,0,13.4,1.6,13.4,12.6c0,40.6,0,81.2,0,121.7
	c0,10.1-2.1,12-12.7,12c-71.2,0-142.5,0-213.7,0c-10.3,0-12.3-1.9-12.3-11.7c0-41.2,0-82.4,0-123.6c0-9.1,2-11.1,11.5-11.1
	C33.6,54.6,47.1,54.7,61.7,54.7z M86,36.3c0,6.3,0,12,0,17.9c28.2,0,55.9,0,84,0c0-6.1,0-11.8,0-17.9C141.9,36.3,114.2,36.3,86,36.3
	z"/>
<rect x="-38.4" y="-43.7" display="none" fill="none" stroke="#000000" stroke-miterlimit="10" width="332.8" height="342"/>
<g display="none">
	<path display="inline" fill="#164ABF" d="M80.5,107.2c5.9-2.5,11.6-5.2,17.6-7.4c11.6-4.2,23.6-7.2,35.8-9c5-0.8,7.5-3.2,7-6.9
		c-0.4-3.1-3.6-5.6-8.8-4.7c-18.1,3.2-35.8,7.5-52.3,15.8c-5.9,3-11.5,6.5-16,11.3c-1.9,2-3.5,4.3-5,6.6c-1.4,2.2-2.1,4.2-0.3,7
		c2.6,4.1,1.5,9.4-2.2,12.7c-1.3,1.2-1.7,2.3-1.6,4c0.9,12.2,0.8,24.3-1,36.4c-1.4,9.4-3.6,18.5-8.8,26.5c-3.3,5-7.5,9-13.8,9.5
		c-3,0.3-6.3-0.1-9.1-1c-7.4-2.2-13.1-7-18.6-12.6c0.8-0.7,1.4-1.2,2-1.7c16.9-13.9,29.2-30.9,34.7-52.4c0.3-1.3,0.5-2.7,0.8-4.1
		c0.6-2.5,0.4-4.6-1.3-6.9c-3.8-5.3-1.4-12.6,4.5-15.6c1-0.5,2-1.5,2.6-2.5c2.3-3.9,4.5-8,6.9-12.2c-0.8-0.3-1.7-0.6-2.6-0.9
		c-10.4-3.2-20.8-6.3-31.2-9.5c-1.1-0.3-2.4-0.6-3-1.3c-0.9-1.2-1.7-2.8-1.7-4.3c0-2.1,1.6-3.3,3.6-3.9c6.8-2.1,13.5-4.1,20.3-6.2
		c30.6-9.4,61.2-18.8,91.8-28c1.8-0.5,4-0.6,5.8-0.1C173.8,57,211,68.5,248.3,79.9c3.6,1.1,5.4,3.8,3.8,6.5c-0.8,1.4-2.6,2.5-4.2,3
		c-25,7.8-50.1,15.4-75.2,23.1c-12,3.7-24.1,7.4-36.1,11c-1.7,0.5-3.7,0.7-5.3,0.2c-16.5-4.9-33-10-49.5-15.1
		c-0.4-0.1-0.8-0.3-1.1-0.4C80.7,107.8,80.6,107.5,80.5,107.2z"/>
	<path display="inline" fill="#164ABF" d="M75.7,118.7c11,3.4,21.3,6.5,31.6,9.7c6.8,2.1,13.7,4.1,20.5,6.3c4,1.3,7.9,1.2,11.9,0
		c16.3-5.1,32.6-10,49-15c0.7-0.2,1.5-0.4,2.7-0.8c1.8,5.8,3.6,11.5,5.3,17.3c0.5,1.7,0.7,3.6,1.1,5.3c1.7,6.7-0.4,12.4-4.6,17.5
		c-8.8,10.6-20.1,17.3-33,21.5c-27.6,8.9-53.3,4.8-76.9-12.1c-3.5-2.5-6.5-5.9-9.3-9.3c-4.4-5.2-6-11.4-4.3-18.2
		C71.7,133.7,73.7,126.4,75.7,118.7z"/>
</g>
<rect x="0" y="-0.7" fill="none" width="256" height="256"/>
<g display="none">
	<g display="inline">
		<g>
			<path fill="#164ABF" d="M130.1,86.4l39.2,39.2l0.1,0l0,0.1h0l0.2,0.4l6.5,6.5l77.8-77.8c3.7-3.7,3.7-9.8,0-13.5L214.6,2
				c-3.7-3.7-9.8-3.7-13.5,0l-77.8,77.8l6.7,6.7L130.1,86.4z M218,32.5c2.4-2.4,6.5-2.4,8.9,0l16.2,16.2l-8.8,8.9L218,41.3
				C215.5,38.9,215.5,34.9,218,32.5z M205,45.5c2.3-2.3,6.5-2.4,8.9,0l16.2,16.2l-8.9,8.9L205,54.3c-1.2-1.2-1.8-2.8-1.8-4.4
				C203.1,48.2,203.8,46.6,205,45.5z M190.6,59.8c2.4-2.4,6.6-2.4,8.9,0L215.7,76l-8.9,8.9l-16.2-16.2
				C188.2,66.2,188.2,62.2,190.6,59.8z M165.4,62.4c2.4-2.4,6.5-2.4,8.9,0l27.5,27.5l-8.9,8.9l-27.5-27.5
				C163,68.8,163,64.8,165.4,62.4z M161.1,89.3c2.4-2.4,6.5-2.4,8.9,0l16.2,16.2l-8.9,8.9l-16.2-16.2c-1.2-1.2-1.8-2.8-1.8-4.4
				C159.2,92.1,159.9,90.5,161.1,89.3z"/>
		</g>
		<g>
			<path fill="#164ABF" d="M229.8,195.6l-60.4-60.4l0,0L39.7,5.5c-4.2-4.2-11.2-4.2-15.4,0L3.2,26.6c-4.2,4.2-4.2,11.2,0,15.4
				l124.9,124.9l0,0l65.2,65.2c0.9,0.9,2.9,2.9,55.7,24.3c2.1,0.8,4.4,0.3,6-1.3c1.5-1.6,1.9-4,1-6
				C232.7,198.4,230.6,196.3,229.8,195.6z M34.7,58.1L10.9,34.3L32,13.2l23.8,23.8L34.7,58.1z M206.3,226.8l18.4-18.4
				c3.5,7,9.4,19.6,15.6,32.7C226.7,235.5,213.7,230.1,206.3,226.8z"/>
		</g>
		<g>
			<path fill="#164ABF" d="M121,174L121,174L121,174l0.1-0.2L82,134.6l-0.1,0.1l-6.7-6.7l-68,68c-3.7,3.7-3.7,9.7,0,13.5l39.2,39.2
				c3.7,3.7,9.7,3.7,13.5,0l68-68L121,174L121,174z M58.2,232.3l-27.5-27.5c-2.4-2.5-2.4-6.4,0-8.8c2.4-2.4,6.6-2.4,8.9,0l27.5,27.5
				L58.2,232.3z M74.2,216.2l-15.1-15.1c-2.4-2.4-2.5-6.4,0-8.9c2.4-2.4,6.5-2.4,8.9,0l12.3,12.3l2.9,2.6L74.2,216.2z M88.5,201.9
				l-15.1-15.1c-1.2-1.2-1.8-2.7-1.8-4.4c0-1.7,0.7-3.3,1.8-4.4c2.4-2.4,6.5-2.4,8.9,0l15.1,15.1L88.5,201.9z M101.5,188.9
				l-15.1-15.1c-2.4-2.5-2.4-6.4,0-8.9c2.4-2.4,6.5-2.4,8.9,0l15.1,15.1L101.5,188.9z"/>
		</g>
	</g>
</g>
<g display="none">
	<path display="inline" fill="#164ABF" d="M247.4,86.7c0,38.2,0,76.4,0,114.6c-0.1,0.4-0.2,0.7-0.2,1.1c-0.1,3.5-1,6.9-2.4,10.1
		c-1.9,4.4-4.8,8-8.3,11.2c-3,2.7-6.5,4.8-10.4,6.2c-3.8,1.3-7.7,1.8-11.6,1.8c-57.1,0-114.3,0-171.4,0c-1.9,0-3.7,0-5.6-0.2
		c-2.9-0.3-5.6-0.8-8.3-1.8c-4.6-1.7-8.5-4.4-11.9-8c-4.7-4.9-7.7-10.8-8.5-17.6c-0.1-0.5-0.2-0.9-0.4-1.3c0-39.2,0-78.4,0-117.6
		c0.4-0.6,0.3-1.3,0.4-1.9c1.7-10.5,7.5-18.1,16.6-23.2c4.6-2.6,9.7-3.6,15-3.7c8.7,0,17.4,0,26.1,0c1.7,0,1.7,0,2.2-1.5
		c1.8-4.7,3.6-9.3,5.3-14.1c1.5-4.3,4.1-7.8,7.7-10.7c3.4-2.7,7.1-4.6,11.4-5.3c0.6-0.1,1.3,0,1.9-0.3c21.9,0,43.9,0,65.8,0
		c0.3,0.1,0.6,0.1,0.9,0.2c1.3,0.1,2.6,0.4,3.9,0.8c3.2,1,6.1,2.6,8.7,4.7c3.3,2.6,5.8,5.8,7.3,9.8c1.9,5,3.7,9.9,5.6,14.9
		c0.6,1.5,0.6,1.5,2.2,1.5c7.8,0,15.5,0,23.3,0c1.9,0,3.7,0,5.6,0.1c2.9,0.2,5.8,0.8,8.5,1.8c5,1.9,9.2,4.9,12.8,8.9
		c4.7,5.3,7.5,11.4,7.8,18.6C247.3,86.1,247.4,86.4,247.4,86.7z M183.6,143.6c0-2.2-0.1-4.7-0.4-7.2c-0.9-7.2-3.1-13.9-6.8-20.2
		c-3.5-6-8-11.1-13.4-15.5c-9.3-7.7-20-11.7-32-12.3c-3.9-0.2-7.8,0-11.7,0.6c-6.3,0.9-12.2,2.9-17.8,6c-6.5,3.6-12.1,8.5-16.8,14.2
		c-7.8,9.5-11.8,20.5-12.2,32.7c-0.1,3.5,0.1,7,0.6,10.5c1.1,7.6,3.7,14.6,7.8,21.1c3.2,5,7.1,9.3,11.6,13.1
		c6.1,5.2,13.1,9,20.9,11.1c7.2,1.9,14.5,2.2,21.9,1.4c8.4-1,16-3.8,23-8.4c4.6-3,8.6-6.7,12.2-10.9c3.5-4,6.3-8.4,8.5-13.3
		C182.2,159.3,183.7,151.8,183.6,143.6z"/>
	<path display="inline" fill="#164ABF" d="M92.1,143.9c-0.2-19.6,16.2-35.8,35.5-36c20.1-0.2,36,16.6,36.3,35.2
		c0.4,19.8-16.1,36.4-35.4,36.7C108.9,180.2,92,163.8,92.1,143.9z"/>
</g>
<path d="M1,127.9C1,57.8,57.8,1.1,127.9,1C198,0.9,255.3,58.2,255,128c-0.3,70.5-57.1,127.2-127.2,127C57.6,254.8,0.9,198,1,127.9z
	 M127.9,172.3c5.8,0,11.6,0,17.5,0c1.7,0,2.8-0.5,3.8-1.8c6.9-8.8,13.9-17.6,21-26.3c1-1.3,1.2-2.4,0.9-3.9
	c-2.9-12.5-5.7-25-8.6-37.4c-0.2-1-1.1-2.1-2-2.5C150,95.1,139.5,90.1,129,85.1c-0.8-0.4-2.2-0.4-3,0c-12.3,5.8-24.6,11.8-36.9,17.8
	c-0.9,0.4-1.8,1.6-2,2.6c-2.4,9.9-4.6,19.9-6.8,29.8c-0.2,1,0.1,2.3,0.7,3.1c8.5,10.7,17,21.4,25.6,32.1c0.8,0.9,2.3,1.7,3.5,1.7
	C116.1,172.4,122,172.3,127.9,172.3z M153.4,14.4c9,39.4,17.8,78,26.7,117.2c0.9-1.1,1.5-1.8,2.1-2.6c14.9-18.7,29.7-37.4,44.7-56
	c1.7-2.1,1.7-3.4,0.4-5.6c-14.3-22.8-34-39.1-59.2-48.4C163.5,17.2,158.7,16,153.4,14.4z M54.8,37.4c35,16.9,69.4,33.4,103.9,50
	c0.1-0.4,0.1-0.5,0.1-0.6c-5.5-24.1-11-48.3-16.5-72.4c-0.3-1.5-1.1-1.8-2.4-1.9c-25.7-2.4-49.6,2.8-71.8,16
	C63.6,31.1,59.5,34.2,54.8,37.4z M150,242.3c-24.6-30.9-48.7-61.1-73.1-91.6c-0.3,0.8-0.5,1.3-0.6,1.7
	c-5.1,22.1-10.1,44.2-15.2,66.3c-0.9,3.9-0.8,3.9,2.6,6.2c21.6,14.2,45.3,20.4,71.1,19.1C139.7,243.7,144.5,242.9,150,242.3z
	 M114.9,78.4c-1-0.5-1.4-0.8-1.8-1C91.4,67,69.8,56.6,48.2,46.1c-1.5-0.8-2.3-0.4-3.4,0.7c-15.2,15.8-25.3,34.3-30.1,55.6
	c-1.9,8.2-2.9,16.6-2.7,25.5C46.3,111.4,80.4,95,114.9,78.4z M234.3,81c-24.3,30.5-48.3,60.7-72.6,91.2c1.1,0.1,1.6,0.1,2.1,0.1
	c23.2,0,46.4,0,69.6,0.1c1.9,0,2.4-0.9,3-2.3c10.3-27.5,10.4-55.1,0.5-82.7C236.1,85.3,235.2,83.3,234.3,81z M116.9,183.3
	c0.4,0.6,0.6,0.9,0.8,1.2c14.2,17.8,28.4,35.6,42.6,53.4c0.9,1.2,1.8,1.2,3,0.7c28.9-9.6,50.9-27.5,66-53.9c0.3-0.5,0.4-1,0.6-1.5
	C192.2,183.3,154.7,183.3,116.9,183.3z M74.9,109.9c-0.6,0.1-0.7,0.2-0.9,0.2C54,119.7,34,129.4,13.9,139c-1.5,0.7-1.4,1.6-1.3,2.8
	c2.8,22.5,11.3,42.6,25.7,60.1c3.8,4.6,8.1,8.7,12.5,13.5C59,179.8,66.9,145,74.9,109.9z"/>
</svg>
