<?xml version="1.0" encoding="utf-8"?>
<!-- Generator: Adobe Illustrator 17.1.0, SVG Export Plug-In . SVG Version: 6.00 Build 0)  -->
<!DOCTYPE svg PUBLIC "-//W3C//DTD SVG 1.1//EN" "http://www.w3.org/Graphics/SVG/1.1/DTD/svg11.dtd">
<svg version="1.1" id="Layer_1" xmlns="http://www.w3.org/2000/svg" xmlns:xlink="http://www.w3.org/1999/xlink" x="0px" y="0px"
	 viewBox="0 0 320.7 256" enable-background="new 0 0 320.7 256" xml:space="preserve">
<path display="none" fill="#164ABF" d="M94.3,54.7c0-8.8,0-16.9,0-25c0-8.2,3.7-12.2,12.2-12.2c36.1-0.1,72.1-0.1,108.2,0
	c8.2,0,12.1,4,12.2,11.7c0.1,8.3,0,16.5,0,25.5c13.7,0,26.7,0,39.7,0c11.7,0,13.4,1.6,13.4,12.6c0,40.6,0,81.2,0,121.7
	c0,10.1-2.1,12-12.7,12c-71.2,0-142.5,0-213.7,0c-10.3,0-12.3-1.9-12.3-11.7c0-41.2,0-82.4,0-123.6c0-9.1,2-11.1,11.5-11.1
	C66.2,54.6,79.7,54.7,94.3,54.7z M118.6,36.3c0,6.3,0,12,0,17.9c28.2,0,55.9,0,84,0c0-6.1,0-11.8,0-17.9
	C174.5,36.3,146.8,36.3,118.6,36.3z"/>
<rect x="-5.8" y="-43.7" display="none" fill="none" stroke="#000000" stroke-miterlimit="10" width="332.8" height="342"/>
<g display="none">
	<path display="inline" fill="#164ABF" d="M113.1,107.2c5.9-2.5,11.6-5.2,17.6-7.4c11.6-4.2,23.6-7.2,35.8-9c5-0.8,7.5-3.2,7-6.9
		c-0.4-3.1-3.6-5.6-8.8-4.7c-18.1,3.2-35.8,7.5-52.3,15.8c-5.9,3-11.5,6.5-16,11.3c-1.9,2-3.5,4.3-5,6.6c-1.4,2.2-2.1,4.2-0.3,7
		c2.6,4.1,1.5,9.4-2.2,12.7c-1.3,1.2-1.7,2.3-1.6,4c0.9,12.2,0.8,24.3-1,36.4c-1.4,9.4-3.6,18.5-8.8,26.5c-3.3,5-7.5,9-13.8,9.5
		c-3,0.3-6.3-0.1-9.1-1c-7.4-2.2-13.1-7-18.6-12.6c0.8-0.7,1.4-1.2,2-1.7c16.9-13.9,29.2-30.9,34.7-52.4c0.3-1.3,0.5-2.7,0.8-4.1
		c0.6-2.5,0.4-4.6-1.3-6.9c-3.8-5.3-1.4-12.6,4.5-15.6c1-0.5,2-1.5,2.6-2.5c2.3-3.9,4.5-8,6.9-12.2c-0.8-0.3-1.7-0.6-2.6-0.9
		c-10.4-3.2-20.8-6.3-31.2-9.5c-1.1-0.3-2.4-0.6-3-1.3c-0.9-1.2-1.7-2.8-1.7-4.3c0-2.1,1.6-3.3,3.6-3.9c6.8-2.1,13.5-4.1,20.3-6.2
		c30.6-9.4,61.2-18.8,91.8-28c1.8-0.5,4-0.6,5.8-0.1c37.3,11.3,74.5,22.8,111.8,34.2c3.6,1.1,5.4,3.8,3.8,6.5
		c-0.8,1.4-2.6,2.5-4.2,3c-25,7.8-50.1,15.4-75.2,23.1c-12,3.7-24.1,7.4-36.1,11c-1.7,0.5-3.7,0.7-5.3,0.2
		c-16.5-4.9-33-10-49.5-15.1c-0.4-0.1-0.8-0.3-1.1-0.4C113.2,107.8,113.2,107.5,113.1,107.2z"/>
	<path display="inline" fill="#164ABF" d="M108.3,118.7c11,3.4,21.3,6.5,31.6,9.7c6.8,2.1,13.7,4.1,20.5,6.3c4,1.3,7.9,1.2,11.9,0
		c16.3-5.1,32.6-10,49-15c0.7-0.2,1.5-0.4,2.7-0.8c1.8,5.8,3.6,11.5,5.3,17.3c0.5,1.7,0.7,3.6,1.1,5.3c1.7,6.7-0.4,12.4-4.6,17.5
		c-8.8,10.6-20.1,17.3-33,21.5c-27.6,8.9-53.3,4.8-76.9-12.1c-3.5-2.5-6.5-5.9-9.3-9.3c-4.4-5.2-6-11.4-4.3-18.2
		C104.2,133.7,106.2,126.4,108.3,118.7z"/>
</g>
<rect x="32.6" y="-0.7" fill="none" width="256" height="256"/>
<g display="none">
	<g display="inline">
		<g>
			<path fill="#164ABF" d="M162.7,86.4l39.2,39.2l0.1,0l0,0.1h0l0.2,0.4l6.5,6.5l77.8-77.8c3.7-3.7,3.7-9.8,0-13.5L247.2,2
				c-3.7-3.7-9.8-3.7-13.5,0l-77.8,77.8l6.7,6.7L162.7,86.4z M250.6,32.5c2.4-2.4,6.5-2.4,8.9,0l16.2,16.2l-8.8,8.9l-16.2-16.2
				C248.1,38.9,248.1,34.9,250.6,32.5z M237.6,45.5c2.3-2.3,6.5-2.4,8.9,0l16.2,16.2l-8.9,8.9l-16.2-16.2c-1.2-1.2-1.8-2.8-1.8-4.4
				C235.7,48.2,236.4,46.6,237.6,45.5z M223.2,59.8c2.4-2.4,6.6-2.4,8.9,0L248.3,76l-8.9,8.9l-16.2-16.2
				C220.8,66.2,220.8,62.2,223.2,59.8z M198,62.4c2.4-2.4,6.5-2.4,8.9,0l27.5,27.5l-8.9,8.9L198,71.3
				C195.6,68.8,195.6,64.8,198,62.4z M193.7,89.3c2.4-2.4,6.5-2.4,8.9,0l16.2,16.2l-8.9,8.9l-16.2-16.2c-1.2-1.2-1.8-2.8-1.8-4.4
				C191.8,92.1,192.5,90.5,193.7,89.3z"/>
		</g>
		<g>
			<path fill="#164ABF" d="M262.4,195.6L202,135.2l0,0L72.3,5.5c-4.2-4.2-11.2-4.2-15.4,0L35.8,26.6c-4.2,4.2-4.2,11.2,0,15.4
				l124.9,124.9l0,0l65.2,65.2c0.9,0.9,2.9,2.9,55.7,24.3c2.1,0.8,4.4,0.3,6-1.3c1.5-1.6,1.9-4,1-6
				C265.3,198.4,263.2,196.3,262.4,195.6z M67.2,58.1L43.5,34.3l21.2-21.2l23.8,23.8L67.2,58.1z M238.9,226.8l18.4-18.4
				c3.5,7,9.4,19.6,15.6,32.7C259.3,235.5,246.3,230.1,238.9,226.8z"/>
		</g>
		<g>
			<path fill="#164ABF" d="M153.6,174L153.6,174L153.6,174l0.1-0.2l-39.2-39.2l-0.1,0.1l-6.7-6.7l-68,68c-3.7,3.7-3.7,9.7,0,13.5
				l39.2,39.2c3.7,3.7,9.7,3.7,13.5,0l68-68L153.6,174L153.6,174z M90.8,232.3l-27.5-27.5c-2.4-2.5-2.4-6.4,0-8.8
				c2.4-2.4,6.6-2.4,8.9,0l27.5,27.5L90.8,232.3z M106.8,216.2l-15.1-15.1c-2.4-2.4-2.5-6.4,0-8.9c2.4-2.4,6.5-2.4,8.9,0l12.3,12.3
				l2.9,2.6L106.8,216.2z M121.1,201.9L106,186.9c-1.2-1.2-1.8-2.7-1.8-4.4c0-1.7,0.7-3.3,1.8-4.4c2.4-2.4,6.5-2.4,8.9,0l15.1,15.1
				L121.1,201.9z M134.1,188.9L119,173.8c-2.4-2.5-2.4-6.4,0-8.9c2.4-2.4,6.5-2.4,8.9,0l15.1,15.1L134.1,188.9z"/>
		</g>
	</g>
</g>
<g display="none">
	<path display="inline" fill="#164ABF" d="M280,86.7c0,38.2,0,76.4,0,114.6c-0.1,0.4-0.2,0.7-0.2,1.1c-0.1,3.5-1,6.9-2.4,10.1
		c-1.9,4.4-4.8,8-8.3,11.2c-3,2.7-6.5,4.8-10.4,6.2c-3.8,1.3-7.7,1.8-11.6,1.8c-57.1,0-114.3,0-171.4,0c-1.9,0-3.7,0-5.6-0.2
		c-2.9-0.3-5.6-0.8-8.3-1.8c-4.6-1.7-8.5-4.4-11.9-8c-4.7-4.9-7.7-10.8-8.5-17.6c-0.1-0.5-0.2-0.9-0.4-1.3c0-39.2,0-78.4,0-117.6
		c0.4-0.6,0.3-1.3,0.4-1.9c1.7-10.5,7.5-18.1,16.6-23.2c4.6-2.6,9.7-3.6,15-3.7c8.7,0,17.4,0,26.1,0c1.7,0,1.7,0,2.2-1.5
		c1.8-4.7,3.6-9.3,5.3-14.1c1.5-4.3,4.1-7.8,7.7-10.7c3.4-2.7,7.1-4.6,11.4-5.3c0.6-0.1,1.3,0,1.9-0.3c21.9,0,43.9,0,65.8,0
		c0.3,0.1,0.6,0.1,0.9,0.2c1.3,0.1,2.6,0.4,3.9,0.8c3.2,1,6.1,2.6,8.7,4.7c3.3,2.6,5.8,5.8,7.3,9.8c1.9,5,3.7,9.9,5.6,14.9
		c0.6,1.5,0.6,1.5,2.2,1.5c7.8,0,15.5,0,23.3,0c1.9,0,3.7,0,5.6,0.1c2.9,0.2,5.8,0.8,8.5,1.8c5,1.9,9.2,4.9,12.8,8.9
		c4.7,5.3,7.5,11.4,7.8,18.6C279.9,86.1,280,86.4,280,86.7z M216.2,143.6c0-2.2-0.1-4.7-0.4-7.2c-0.9-7.2-3.1-13.9-6.8-20.2
		c-3.5-6-8-11.1-13.4-15.5c-9.3-7.7-20-11.7-32-12.3c-3.9-0.2-7.8,0-11.7,0.6c-6.3,0.9-12.2,2.9-17.8,6c-6.5,3.6-12.1,8.5-16.8,14.2
		c-7.8,9.5-11.8,20.5-12.2,32.7c-0.1,3.5,0.1,7,0.6,10.5c1.1,7.6,3.7,14.6,7.8,21.1c3.2,5,7.1,9.3,11.6,13.1
		c6.1,5.2,13.1,9,20.9,11.1c7.2,1.9,14.5,2.2,21.9,1.4c8.4-1,16-3.8,23-8.4c4.6-3,8.6-6.7,12.2-10.9c3.5-4,6.3-8.4,8.5-13.3
		C214.8,159.3,216.3,151.8,216.2,143.6z"/>
	<path display="inline" fill="#164ABF" d="M124.7,143.9c-0.2-19.6,16.2-35.8,35.5-36c20.1-0.2,36,16.6,36.3,35.2
		c0.4,19.8-16.1,36.4-35.4,36.7C141.5,180.2,124.6,163.8,124.7,143.9z"/>
</g>
<path display="none" d="M33.6,127.9C33.6,57.8,90.4,1.1,160.5,1C230.6,0.9,287.9,58.2,287.6,128c-0.3,70.5-57.1,127.2-127.2,127
	C90.2,254.8,33.5,198,33.6,127.9z M160.5,172.3c5.8,0,11.6,0,17.5,0c1.7,0,2.8-0.5,3.8-1.8c6.9-8.8,13.9-17.6,21-26.3
	c1-1.3,1.2-2.4,0.9-3.9c-2.9-12.5-5.7-25-8.6-37.4c-0.2-1-1.1-2.1-2-2.5c-10.4-5.1-20.9-10.2-31.4-15.2c-0.8-0.4-2.2-0.4-3,0
	c-12.3,5.8-24.6,11.8-36.9,17.8c-0.9,0.4-1.8,1.6-2,2.6c-2.4,9.9-4.6,19.9-6.8,29.8c-0.2,1,0.1,2.3,0.7,3.1
	c8.5,10.7,17,21.4,25.6,32.1c0.8,0.9,2.3,1.7,3.5,1.7C148.6,172.4,154.6,172.3,160.5,172.3z M185.9,14.4c9,39.4,17.8,78,26.7,117.2
	c0.9-1.1,1.5-1.8,2.1-2.6c14.9-18.7,29.7-37.4,44.7-56c1.7-2.1,1.7-3.4,0.4-5.6c-14.3-22.8-34-39.1-59.2-48.4
	C196,17.2,191.2,16,185.9,14.4z M87.4,37.4c35,16.9,69.4,33.4,103.9,50c0.1-0.4,0.1-0.5,0.1-0.6c-5.5-24.1-11-48.3-16.5-72.4
	c-0.3-1.5-1.1-1.8-2.4-1.9c-25.7-2.4-49.6,2.8-71.8,16C96.2,31.1,92.1,34.2,87.4,37.4z M182.5,242.3c-24.6-30.9-48.7-61.1-73.1-91.6
	c-0.3,0.8-0.5,1.3-0.6,1.7c-5.1,22.1-10.1,44.2-15.2,66.3c-0.9,3.9-0.8,3.9,2.6,6.2c21.6,14.2,45.3,20.4,71.1,19.1
	C172.3,243.7,177.1,242.9,182.5,242.3z M147.5,78.4c-1-0.5-1.4-0.8-1.8-1C124,67,102.4,56.6,80.7,46.1c-1.5-0.8-2.3-0.4-3.4,0.7
	c-15.2,15.8-25.3,34.3-30.1,55.6c-1.9,8.2-2.9,16.6-2.7,25.5C78.9,111.4,112.9,95,147.5,78.4z M266.9,81
	c-24.3,30.5-48.3,60.7-72.6,91.2c1.1,0.1,1.6,0.1,2.1,0.1c23.2,0,46.4,0,69.6,0.1c1.9,0,2.4-0.9,3-2.3c10.3-27.5,10.4-55.1,0.5-82.7
	C268.7,85.3,267.8,83.3,266.9,81z M149.5,183.3c0.4,0.6,0.6,0.9,0.8,1.2c14.2,17.8,28.4,35.6,42.6,53.4c0.9,1.2,1.8,1.2,3,0.7
	c28.9-9.6,50.9-27.5,66-53.9c0.3-0.5,0.4-1,0.6-1.5C224.8,183.3,187.3,183.3,149.5,183.3z M107.5,109.9c-0.6,0.1-0.7,0.2-0.9,0.2
	c-20,9.6-40.1,19.3-60.1,28.9c-1.5,0.7-1.4,1.6-1.3,2.8c2.8,22.5,11.3,42.6,25.7,60.1c3.8,4.6,8.1,8.7,12.5,13.5
	C91.5,179.8,99.5,145,107.5,109.9z"/>
<path d="M106.3,44.5c0-2.9,0-5.7,0-8.4c-0.2-10.7,4.2-19.2,12.4-25.8c5.5-4.4,12-6.4,19.1-6.4c14.1,0,28.2-0.1,42.3,0
	c3.5,0,7.1,0.2,10.5,1c7.2,1.6,13,5.6,17.5,11.4c4.5,5.9,6.6,12.6,6.5,20c0,2.7,0,5.3,0,8.1c0.7,0,1.2,0,1.8,0c22,0,44.1,0,66.1,0
	c10,0,18.4,6.1,21.4,15.6c0.6,1.9,0.8,3.9,0.8,5.9c0,33.8,0.1,67.7,0,101.5c0,6.7-3,12.1-8,16.4c-0.8,0.7-1,1.3-1,2.2
	c0,14.4,0,28.8,0,43.3c0,2.8-0.3,5.5-1.3,8.1c-2.1,5.7-5.9,9.9-11.3,12.5c-3.4,1.6-6.9,2.2-10.6,2.2c-30.5,0-60.9,0-91.4,0
	c-35.2,0-70.3,0-105.5,0c-9.3,0-18.6,0-28,0c-9.8,0-17.6-5.3-21.2-14.2c-1-2.4-1.4-5.2-1.4-7.8c-0.1-14.7-0.1-29.4,0-44.1
	c0-1-0.2-1.6-1-2.3c-5.6-4.7-8.1-10.8-7.9-18.1c0.1-2.3,0-4.6,0-6.8c0-26,0-52.1,0-78.1c0-4.7-0.1-9.4,0-14.1
	c0.2-9.4,4.5-16.1,13-20.1c2.9-1.4,5.9-2,9.1-2c22,0,44,0,65.9,0C104.8,44.5,105.4,44.5,106.3,44.5z M185.3,179.8c0.7,0,1.3,0,1.8,0
	c11.7,0,23.4,0,35.1,0c19.9,0,39.9,0,59.8-0.1c2.2,0,4.6-0.5,6.6-1.5c5.2-2.6,7.2-7.2,7.1-12.9c-0.1-32.5,0-65,0-97.5
	c0-1.2,0.1-2.4-0.2-3.6c-1.3-6.6-6.5-10.8-13.2-10.8c-50.5,0-101.1,0-151.6,0c-30.8,0-61.6,0-92.4,0.1c-2.1,0-4.5,0.6-6.4,1.5
	c-5,2.5-6.9,7-7,12.5c0,11,0,22.1,0,33.1c0,21.6,0,43.1,0,64.7c0,2,0.3,4.1,0.9,6c1.7,4.9,6.5,8.4,12.6,8.4c31.8,0,63.6,0,95.3,0
	c0.5,0,0.9,0,1.5,0c0-0.6,0-1.1,0-1.5c0-3.9,0-7.9,0-11.8c0.1-7.6,6.1-13.6,13.7-13.7c7.5,0,14.9,0,22.4,0c7.8,0,13.6,5.8,13.7,13.7
	c0,3.9,0,7.8,0,11.7C185.3,178.7,185.3,179.2,185.3,179.8z M135.4,188.8c-33.9,0-67.6,0-101.3,0c0,0.1,0,0.3,0,0.5
	c0,13.4,0,26.8,0,40.2c0,1.6,0.3,3.2,0.8,4.8c1.7,5.2,6.7,8.6,12.1,8.6c6.7,0,13.3,0,20,0c34.9,0,69.8,0,104.7,0
	c33.8,0,67.6,0,101.3,0c2.4,0,4.6-0.4,6.7-1.5c4.8-2.7,7-7,7-12.3c0-13.1,0-26.2,0-39.2c0-0.4,0-0.9-0.1-0.9
	c-33.9,0.1-67.6,0-101.5,0c0,0.6,0,1.2,0,1.7c0,3.8,0,7.5,0,11.3c0,1,0,2.1-0.2,3.1c-1.6,6.8-7.1,11-13.9,11c-7.2,0-14.5,0-21.7,0
	c-7.9,0-13.9-6.1-14-14.1C135.4,197.6,135.4,193.4,135.4,188.8z M205.4,44.5c0-3,0-5.8,0-8.7c0.1-4.4-1-8.5-3.4-12.2
	c-4.2-6.4-10-10.4-17.7-10.5c-15.6-0.2-31.2-0.1-46.8-0.1c-5.1,0-9.7,1.6-13.6,4.8c-5.5,4.4-8.5,10.3-8.6,17.5c-0.1,3,0,6.1,0,9.2
	C145.4,44.5,175.3,44.5,205.4,44.5z M176.1,184.3c0-5.8,0-11.6,0-17.4c0-3.4-1.7-5.1-5.1-5.1c-7.1,0-14.3,0-21.4,0
	c-3.3,0-5.1,1.8-5.1,5.1c0,11.6,0,23.1,0,34.7c0,3.5,1.7,5.2,5.3,5.2c7,0,14,0,21,0c3.7,0,5.3-1.6,5.3-5.3
	C176.1,195.9,176.1,190.1,176.1,184.3z"/>
<path display="none" d="M317.3,111.3c-1.9,3.7-5,5.9-8.7,7.7c-17.6,8.8-35.1,17.8-52.6,26.7c-1.7,0.9-2.5,1.8-2.5,3.9
	c0.1,9.1-0.2,18.2,0.1,27.3c0.3,9.8-3.4,17.7-10.1,24.4c-8.6,8.7-19.2,14.6-30.6,18.5c-39.5,13.6-78.5,12.7-116.7-5.1
	c-8.8-4.1-16.5-9.8-22.5-17.5c-4.2-5.5-6.6-11.6-6.5-18.7c0.1-9.6,0-19.2,0.1-28.8c0-2.1-0.7-3.1-2.4-3.9
	c-6.6-3.2-13.1-6.6-19.6-9.9c-0.7-0.4-1.4-0.6-2.3-1c-0.3,12.3-0.4,24.1,3,35.9c4.2,14.5,7.4,29.2,11.1,43.9c0.8,3-0.1,5.1-2.6,6.8
	c-9.8,6.8-23.3,6.8-33.2,0.1c-2.6-1.8-3.5-3.9-2.7-7c4.5-17.7,8.9-35.4,13.2-53.1c0.6-2.6,1-5.4,1-8.1c0.1-7,0-14.1,0.1-21.1
	c0-1.9-0.5-2.9-2.2-3.8c-6.8-3.3-13.5-6.8-20.2-10.3c-1.6-0.8-3.2-1.9-4.5-3.1c-3.5-3.6-3.5-8.5,0-12c1.3-1.3,3-2.4,4.7-3.3
	c45.6-23.3,91.2-46.5,136.8-69.8c8.5-4.3,17-4.3,25.5,0c45.5,23.2,91,46.4,136.5,69.6c3.4,1.7,6.1,4,7.6,7.6
	C317.3,108.5,317.3,109.9,317.3,111.3z M306.6,109.1c-1.3-0.7-2.2-1.3-3.1-1.7c-45.1-23-90.3-46-135.4-69c-5.1-2.6-10.2-2.6-15.3,0
	c-45.3,23.1-90.6,46.2-136,69.3c-0.7,0.4-1.4,0.9-2.5,1.5c7.9,4,15.3,7.9,22.8,11.5c1.1,0.5,2.6,0.6,3.8,0.4
	c34.6-6.7,69.3-13.4,103.9-20.1c0.8-0.2,1.7-0.6,2.4-1.2c6.2-5.9,15.3-7.2,22.6-3.1c3,1.7,5.3,3.9,5.3,7.6c0,3.6-2.3,5.8-5.2,7.3
	c-6.4,3.3-12.9,3.1-19.4-0.2c-1.1-0.6-2.7-0.9-3.9-0.7c-24.8,4.7-49.7,9.5-74.5,14.3c-6.1,1.2-12.2,2.4-19.1,3.8
	c1.9,1,3,1.6,4.2,2.2c31.6,16.1,63.2,32.2,94.8,48.4c5.7,2.9,11.3,2.9,17,0c24.6-12.6,49.2-25.1,73.8-37.7
	C263.9,130.8,285,120.1,306.6,109.1z M77.2,152.1c0,9.1,0.1,17.6-0.1,26c-0.1,5.4,1.7,10,5.1,14c4.6,5.6,10.4,9.7,16.8,13.1
	c15.6,8.3,32.3,12.2,49.8,13.5c22.2,1.7,43.8-0.9,64.5-9.4c9.7-4,18.8-9,25.6-17.3c3.4-4.1,5.2-8.6,5-14.1c-0.2-7.6,0-15.3-0.1-23
	c0-0.8-0.1-1.7-0.2-2.8c-1.3,0.6-2.3,1.1-3.3,1.6c-22.4,11.4-44.9,22.8-67.3,34.3c-8.4,4.3-16.8,4.3-25.2,0
	c-16.7-8.6-33.4-17-50.1-25.5C91.1,159.2,84.4,155.8,77.2,152.1z M38.4,179.8c-0.3,0-0.5,0-0.8,0c-2.9,11.6-5.8,23.2-8.7,34.7
	c6.3,3.2,12.8,3.1,18-0.2C44.1,202.8,41.2,191.3,38.4,179.8z"/>
<g display="none">
	<path display="inline" d="M65.9,194.5c9.6,9.6,18.8,18.8,29.2,29.1c2.2-2.6,4.1-5.4,6.5-7.7c26.6-26.6,53.3-53.2,79.9-79.8
		c21.1-21.1,42.2-42.3,63.3-63.4c0.8-0.8,1.5-1.8,2.5-2.2c0.8-0.3,2.3-0.2,2.9,0.3c0.6,0.5,0.6,2.1,0.3,2.9c-0.4,1-1.4,1.7-2.2,2.5
		c-13.2,13.2-26.3,26.3-39.5,39.5c-1,1-1.9,2-3.8,4.1c6.4,6,12.8,11.7,18.9,17.6c10,9.7,19.8,19.6,29.7,29.4
		c10.5,10.4,21,20.9,31.4,31.4c3.6,3.6,3.6,4.7,0,8.3c-15.2,15.3-30.5,30.5-45.8,45.8c-3.7,3.7-4.8,3.7-8.6-0.2
		c-25.2-25.2-50.5-50.5-75.7-75.7c-1.1-1.1-2.2-2.1-3.9-3.7c-6.1,6.3-12.1,12.5-18.1,18.6c-11.5,11.6-23.1,23.2-34.7,34.7
		c-1.9,1.8-4.2,3.4-6.5,4.5c-15.5,7-31.1,13.9-46.7,20.7c-1.3,0.6-2.6,1.2-4,1.3c-1.5,0.1-3.5,0.3-4.5-0.6c-0.8-0.6-0.8-2.9-0.3-4.1
		c2-5.7,4.3-11.3,6.6-16.9c2.7-6.5,5.9-12.8,8.4-19.4c4.8-12.4,12.1-22.9,22-32c14.6-13.4,28.5-27.7,43.4-42.3
		c-16.5-16.3-32.4-31.8-48.2-47.5c-10.7-10.6-21.4-21.3-32-32c-3.6-3.6-3.6-4.7,0-8.3C51.5,34.4,66.6,19.3,81.8,4.1
		C86-0.1,86.7,0,91,4.3c24.1,24.1,48.3,48.3,72.4,72.4c2,2,3.9,4.1,6.1,6.6c1.3-1.2,2.4-2.1,3.3-3.1c13.2-13.2,26.3-26.3,39.5-39.5
		c0.8-0.8,1.5-1.9,2.5-2.3c1-0.4,2.7-0.4,3.2,0.2c0.6,0.6,0.3,2.2,0,3.2c-0.2,0.7-1.1,1.3-1.7,1.9c-25.9,25.8-51.7,51.6-77.6,77.4
		C115,145,91.2,168.8,67.4,192.7C67,193.2,66.5,193.7,65.9,194.5z M204,218.4c3.3-3.4,6-6.6,9.2-9.5c0.9-0.9,2.8-0.7,4.3-1
		c-0.3,1.4,0,3.3-0.9,4.2c-2.9,3.2-6.2,6.1-9.5,9.2c1.6,1.7,2.8,3,4.5,4.9c3.4-3.6,6.2-6.9,9.4-9.8c1-0.9,2.8-0.7,4.3-1.1
		c-0.3,1.5-0.1,3.4-0.9,4.3c-3,3.3-6.4,6.2-9.1,8.8c1.6,2.3,2.7,3.9,4.1,5.8c3.5-3.7,6.1-6.8,9.2-9.5c1.1-0.9,3-0.9,4.6-1.3
		c-0.4,1.6-0.4,3.6-1.3,4.6c-2.9,3-6.3,5.6-9.3,8.2c4.9,4.9,8.7,8.8,12.2,12.3c15.6-15.6,31.1-31.2,46.2-46.3
		c-26.1-26.2-52.5-52.6-79.8-80c-3.8,4.2-7.6,8.7-11.8,12.9c-10.7,10.8-21.5,21.5-32.3,32.1c-2.2,2.2-1.2,3.1,1.2,4.4
		c2.9-3,5.6-6.1,8.6-8.8c1-0.9,3-0.8,4.6-1.2c-0.4,1.6-0.4,3.6-1.4,4.6c-2.9,3-6.2,5.5-9.4,8.3c2.2,2.4,3.3,3.6,5,5.5
		c3.2-3.5,6-6.8,9.2-9.8c0.9-0.8,2.8-0.7,4.2-0.9c-0.3,1.5-0.1,3.4-1,4.3c-3.1,3.1-6.5,5.8-9.8,8.6c0.5,0.2,0.9,0.5,1.4,0.7
		c1.1,1.4,2.2,2.8,3.5,4.6c3.4-3.5,6.3-6.8,9.5-9.7c0.9-0.8,2.8-0.5,4.2-0.7c-0.2,1.3,0,3.1-0.8,3.9c-3.1,3.2-6.5,6.1-9.5,8.8
		c1.9,2.1,3.1,3.6,4.9,5.6c3-3.3,5.7-6.5,8.8-9.4c0.9-0.9,2.8-0.7,4.3-1c-0.3,1.4-0.1,3.3-1,4.2c-2.9,3.1-6.3,6-9.4,8.9
		c1.7,1.9,2.7,3.1,4,4.6c6.6-6.7,12.8-13.1,19.1-19.3c1.3-1.3,2.8-3.4,4.9-1.3c2.1,2.2-0.1,3.6-1.4,4.9c-6.3,6.3-12.6,12.5-19.2,19
		c1.6,1.5,2.9,2.7,4.9,4.6c3-3.3,5.8-6.7,9-9.7c0.9-0.9,2.8-0.7,4.2-1c-0.2,1.4,0,3.3-0.8,4.2c-2.9,3.2-6.2,6.1-9.8,9.4
		C200.8,215.4,202.1,216.7,204,218.4z M111.3,126.1c1.5-1.3,2.9-2.2,4.1-3.4c5.2-5.2,10.2-10.5,15.6-15.5c1-1,3-1,4.6-1.4
		c-0.4,1.7-0.4,3.7-1.4,4.9c-2.1,2.6-4.7,4.8-7.2,7.2c-4,3.9-8,7.7-12.2,11.8c1.8,1.6,3.1,2.7,3.9,3.5
		c15.8-15.9,31.3-31.5,46.2-46.4c-26.3-26.3-52.7-52.8-78.7-78.9C70.9,23.1,55.4,38.6,40,53.9c10.9,10.9,22,21.9,33.8,33.7
		c1.3-1.6,2.6-3.5,4.1-5.1c4.8-4.9,9.7-9.9,14.7-14.6c0.9-0.8,2.8-0.6,4.2-0.9c-0.3,1.5-0.5,2.9-1,4.3c-0.2,0.6-1,1-1.5,1.5
		c-6,5.9-12.1,11.7-17.9,17.4c1.6,2.1,2.8,3.4,4.2,5.3c3.1-3.3,5.6-6.1,8.3-8.8c1.4-1.4,2.8-4.1,5.1-1.9c2.5,2.5-0.4,4-1.8,5.5
		c-2.6,2.7-5.5,5.2-8.5,8c1.8,1.9,3.1,3.1,4.8,4.9c3.2-3.4,5.9-6.6,9-9.5c1-0.9,3-0.7,4.5-1c-0.3,1.4-0.2,3.3-1.1,4.2
		c-3,3.1-6.4,5.8-9.7,8.7c2,2.2,3.2,3.4,5.1,5.5c3.3-3.6,6.2-7.1,9.4-10.2c0.8-0.8,2.6-0.6,3.9-0.8c-0.2,1.4,0.2,3.4-0.7,4.2
		c-3.1,3.2-6.6,6.1-10,9.3c2.2,2.1,3.5,3.4,5.3,5.1c3.2-3.4,5.8-6.5,8.9-9.2c1-0.9,3.1-0.7,4.6-1c-0.4,1.5-0.3,3.3-1.2,4.3
		c-2.9,3-6.2,5.7-9.4,8.6C108.9,123.3,109.9,124.4,111.3,126.1z M62.5,198.8c-5,11.2-10,22.3-14.7,33.4c-0.4,0.9,0.2,2.6,0.8,3.6
		c1,1.5,2.6,2.6,3.8,4c1.6,2,3.3,2,5.5,1c9.1-4.2,18.2-8.2,27.3-12.4c1.6-0.7,3.1-1.6,4.6-2.3C80.6,216.8,71.7,208,62.5,198.8z
		 M44.7,239c-1.1,2.9-1.9,5.1-3.1,8.2c3.2-1.3,5.4-2.2,7.6-3.1C47.6,242.3,46.4,240.9,44.7,239z"/>
	<path display="inline" d="M238,65.7c-0.9,1.1-1.7,2.2-2.6,3.2c-18.6,18.7-37.2,37.3-55.8,56.1c-27.1,27.3-54.1,54.6-81.2,81.9
		c-1.5,1.6-3.2,5.3-6,2.5c-2.8-2.8,1-4.4,2.5-6c18.9-19.1,38-38.2,56.9-57.3c26.8-27,53.5-54,80.3-80.9c1-1,3-1.1,4.5-1.5
		C236.9,63.7,237.4,64.8,238,65.7z"/>
	<path display="inline" d="M81.3,197.7c-1-0.8-2.3-1.3-2.3-1.9c-0.1-1.1,0.3-2.6,1-3.3c4.2-4.4,8.5-8.6,12.8-12.9
		c13.4-13.4,26.9-26.8,40.3-40.3c28.3-28.5,56.5-57.1,84.7-85.5c1.6-1.6,3.3-5.3,6-2.8c3.1,3-1.1,4.6-2.6,6.2
		c-21.6,21.9-43.3,43.6-64.9,65.4c-23.8,24-47.5,48-71.3,72C83.8,195.6,82.6,196.6,81.3,197.7z"/>
	<path display="inline" d="M252.2,2.5c1.9,1,4.7,1.8,6.5,3.5c8.1,7.8,16.1,15.8,23.9,23.9c4.3,4.4,4.3,9.8,0.1,14.3
		c-2.7,2.9-5.4,5.7-8.4,8.3c-0.9,0.8-2.7,0.4-4,0.6c0.2-1.4,0-3.1,0.7-4c2.3-2.8,5.1-5.2,7.7-7.9c3-3.1,3.1-5.2,0-8.4
		c-7.6-7.7-15.3-15.4-23-23c-2.7-2.7-5.4-2.6-8.1,0.1c-2.7,2.7-5.3,5.5-8.2,8c-0.8,0.7-2.5,0.5-3.7,0.7c-0.1-1.2-0.7-2.8-0.2-3.4
		c3.7-3.8,7.6-7.5,11.6-11C248.2,3.2,250.1,3.1,252.2,2.5z"/>
	<path display="inline" d="M269.1,56.7c-1.9,0.7-3.1,1.5-4.3,1.5c-0.7,0-1.5-1.1-2.2-1.8c-10.1-10-20.1-20.1-30.2-30.1
		c-0.3-0.3-0.8-0.6-0.8-0.9c-0.3-1.3-0.6-2.7-0.8-4c1.4,0.2,3.4-0.1,4.3,0.7c6.5,6.2,12.8,12.6,19.2,19c4,4,8,7.9,11.9,11.9
		C267,53.9,267.7,54.9,269.1,56.7z"/>
	<path display="inline" d="M263.1,61.4c-0.6,0.8-1.1,2-1.5,2c-1.3-0.1-2.9-0.2-3.7-1c-6.1-5.8-12-11.9-18-17.8
		c-4.5-4.5-9-8.9-13.3-13.5c-0.9-1-0.7-3-0.9-4.6c1.4,0.4,3.3,0.3,4.2,1.2c10.4,10.2,20.7,20.6,31.1,31
		C261.7,59.5,262.3,60.5,263.1,61.4z"/>
	<path display="inline" d="M258.5,67.7c-2.2,0.6-3.5,1.3-4.7,1.2c-0.9-0.1-1.7-1.3-2.5-2.1c-9.9-9.8-19.7-19.7-29.6-29.5
		c-0.6-0.6-1.4-1.1-1.7-1.9c-0.3-0.9-0.5-2.6-0.1-2.9c0.8-0.6,2.3-0.7,3.3-0.4c1,0.3,1.7,1.4,2.5,2.2c9.8,9.7,19.5,19.5,29.2,29.3
		C255.9,64.5,256.7,65.6,258.5,67.7z"/>
	<path display="inline" d="M64.2,44.6c0-7.4,5.7-13.1,13.1-13c7,0,12.9,5.9,12.9,12.8c0,7.1-6.1,13.2-13.2,13.2
		C70,57.6,64.2,51.6,64.2,44.6z M69.1,44.4c0,4.5,3.4,8.1,7.9,8.2c4.2,0.1,8.1-3.7,8.2-8c0.1-4.4-3.5-8-8-8.1
		C72.6,36.5,69.2,39.9,69.1,44.4z"/>
</g>
<path display="none" d="M133,180.9c-5.5,5.4-10.9,10.6-16.2,15.8c-6.9,6.9-13.6,13.8-20.6,20.6c-1,1-2.7,1.3-4.1,1.9
	c-0.5-1.4-1.6-2.8-1.6-4.3c-0.1-24.2-0.1-48.4,0-72.7c0-2.6-0.7-4.5-2.6-6.4C63.4,111.8,39,87.5,14.7,63.2c-1.1-1.1-2.1-3-1.9-4.3
	c0.1-0.9,2.5-1.7,4-2c32.5-5.8,65-11.6,97.5-17.4c31.1-5.5,62.3-10.9,93.4-16.5c32.2-5.7,64.3-11.5,96.5-17.2
	c1.1-0.2,2.8,0.1,3.4,0.8c0.6,0.7,0.6,2.4,0.1,3.4c-18,42.5-36,84.9-54,127.4c-15.3,36-30.6,72-45.8,108c-0.2,0.4-0.4,0.9-0.6,1.3
	c-1.9,4.2-3,4.5-6.3,1.3c-7.7-7.5-15.3-15.1-22.9-22.7c-14.3-14.2-28.6-28.3-42.9-42.5C134.5,182.1,133.7,181.5,133,180.9z
	 M98.7,139.5c35,34.7,69.6,69,104.6,103.7c32.3-76.1,64.4-151.7,96.4-227.3c-0.2-0.2-0.5-0.4-0.7-0.5
	C232.4,56.6,165.8,97.9,98.7,139.5z M290.6,14.4c-0.1-0.3-0.2-0.6-0.3-0.9C200.5,29.4,110.7,45.4,20.8,61.3c-0.2,0.5-0.5,1-0.7,1.5
	c1.2,0.8,2.5,1.4,3.5,2.4c22.8,22.5,45.6,45.1,68.3,67.7c2.4,2.4,3.9,2.5,6.7,0.8c63-39.2,126.2-78.3,189.2-117.4
	C288.8,15.7,289.7,15,290.6,14.4z M127.9,178c-10.7-11-21.4-22-31.9-32.8c0,21.3,0,42.8,0,63.9C106.8,198.5,117.8,187.8,127.9,178z"
	/>
</svg>
