<svg id="Layer_1" data-name="Layer 1" xmlns="http://www.w3.org/2000/svg" viewBox="0 0 128 128"><defs><style>.cls-1{fill:none;stroke:#000;stroke-miterlimit:10;stroke-width:4px;}</style></defs><title>about_128</title><rect class="cls-1" x="33.78" y="95.31" width="60.82" height="14.96" rx="6.53" ry="6.53"/><line class="cls-1" x1="63.51" y1="94.86" x2="63.51" y2="109.76"/><line class="cls-1" x1="72.68" y1="94.86" x2="72.68" y2="109.76"/><line class="cls-1" x1="81.84" y1="94.86" x2="81.84" y2="109.76"/><line class="cls-1" x1="54.34" y1="94.86" x2="54.34" y2="109.76"/><line class="cls-1" x1="45.17" y1="94.86" x2="45.17" y2="109.76"/><rect class="cls-1" x="18.14" y="48.45" width="92.73" height="71.79" rx="9.2" ry="9.2"/><rect class="cls-1" x="111.18" y="62.77" width="12.61" height="42.4" rx="3.24" ry="3.24"/><rect class="cls-1" x="4.6" y="62.77" width="12.61" height="42.4" rx="3.24" ry="3.24"/><circle class="cls-1" cx="45.31" cy="70.45" r="8.29"/><circle class="cls-1" cx="83.08" cy="70.45" r="8.29"/><path d="M45.33,72a1.5,1.5,0,0,0,0-3,1.5,1.5,0,0,0,0,3Z"/><path d="M83.14,72a1.5,1.5,0,0,0,0-3,1.5,1.5,0,0,0,0,3Z"/><rect class="cls-1" x="57.32" y="36.41" width="13.75" height="11.46" rx="2.42" ry="2.42"/><line class="cls-1" x1="64.19" y1="21.52" x2="64.19" y2="35.27"/><circle class="cls-1" cx="64.19" cy="14.07" r="6.3"/><line class="cls-1" x1="16.82" y1="75.38" x2="4.22" y2="75.38"/><line class="cls-1" x1="110.79" y1="75.38" x2="123.4" y2="75.38"/></svg>
