<svg id="a44a4d87-2da0-4b91-b7e3-d88897c32aee" data-name="Layer 1" xmlns="http://www.w3.org/2000/svg" viewBox="0 0 128 128"><title>pin</title><g id="a182f609-372b-4e40-9bd1-f5f9be785a8c" data-name="EvnRj7.tif"><path d="M128,11.44q0,57.41,0,114.82c0,1.46-.27,1.74-1.66,1.74Q63.18,127.93,0,128V11.44A4.89,4.89,0,0,1,4.27,9.57c6.85.06,13.71,0,20.57,0,1.05,0,2,0,2.47-1.29A13,13,0,0,1,37.25,0h3.24c7.55,2.23,11,6.87,10.67,14.21-.31,6.26-6.14,12-12,11.76a3.41,3.41,0,0,1-.79-6.75c.59-.16,1.2-.19,1.79-.33a6,6,0,0,0,4.44-6.82C43.94,8.62,40.9,6.32,37.77,7A4.2,4.2,0,0,0,34.6,9.25c.75.53,1.44.28,2.09.36a3.35,3.35,0,0,1,3.09,3.32A3.14,3.14,0,0,1,37,16.29a20.43,20.43,0,0,1-3.22.23H9.31c-2.64,0-2.85.24-2.87,3.06q0,6.14,0,12.28c0,3.06.11,3.16,3.12,3.16H118.83c2.46,0,2.67-.21,2.68-2.76,0-4.38,0-8.75,0-13.13,0-1.9-.68-2.66-2.51-2.63-5.12.06-10.25.09-15.38,0-1.8,0-2.73.63-3.55,2.34A11.83,11.83,0,0,1,89.4,26,3.19,3.19,0,0,1,86,23.48a3.23,3.23,0,0,1,1.13-3.57A5,5,0,0,1,89.8,19a6.06,6.06,0,0,0-.16-12C87.79,6.72,86.33,6.07,86,4s.81-3.14,2.33-4h2.43c4.31,1,7.76,3.21,9.57,7.56a3,3,0,0,0,3.25,2.06c6.65-.07,13.31,0,20-.06A5.05,5.05,0,0,1,128,11.44ZM64,121.05h54.44c3,0,3.08-.1,3.08-3.21V45.2c0-3.06-.14-3.19-3.12-3.19H9.52c-2.94,0-3.08.14-3.08,3.24v72.63c0,3.06.12,3.17,3.12,3.17Z"/><path d="M74.1,0c5.24,1.36,9,4.41,10.32,10.1,1.76,7.48-3.48,15.12-10.81,15.83-2.45.24-4.18-.89-4.45-2.92s1-3.49,3.56-4c4.48-.86,6.71-5,4.75-8.86a5.63,5.63,0,0,0-4.69-3.23C71,6.76,69.6,6,69.23,4.09S70,.79,71.67,0Z"/><path d="M57.1,0C63.86,1.88,67.18,5.52,68,11.94c.86,6.87-5.28,14.11-11.9,14A3.33,3.33,0,0,1,52.47,23c-.24-2,.78-3.36,2.9-3.87.33-.08.66-.12,1-.18a6,6,0,0,0,5-6.15,6,6,0,0,0-5.13-5.89c-2.77-.48-3.89-1.57-3.85-3.66,0-1.64,1.08-2.49,2.24-3.28Z"/><path d="M29,112c-6.8,0-12.44-5.83-12.48-12.89S22.28,85.92,29,86s12.39,6,12.36,13S35.77,112,29,112Zm.05-7a5.74,5.74,0,0,0,5.67-6.08,5.76,5.76,0,1,0-11.51.16A5.75,5.75,0,0,0,29,105Z"/><path d="M29.07,51.09a12.89,12.89,0,0,1-.32,25.77C22,76.81,16.54,71.07,16.51,64A12.65,12.65,0,0,1,29.07,51.09ZM23.2,63.94a6,6,0,0,0,5.67,6.19,6.16,6.16,0,0,0,.07-12.3A6,6,0,0,0,23.2,63.94Z"/><path d="M98.9,76.86a12.89,12.89,0,0,1,.3-25.76c6.74,0,12.21,5.77,12.25,12.82A12.63,12.63,0,0,1,98.9,76.86ZM93.25,64.07a5.77,5.77,0,1,0,5.61-6.24A6,6,0,0,0,93.25,64.07Z"/><path d="M51.67,99c0-7.18,5.52-13,12.31-13s12.35,5.87,12.31,13.2A12.57,12.57,0,0,1,63.87,112C57.06,112,51.65,106.18,51.67,99Zm12.27,6a5.93,5.93,0,0,0,5.92-5.89A5.89,5.89,0,1,0,58.09,99,6,6,0,0,0,63.94,105Z"/><path d="M64,51.09c7,0,12.29,5.58,12.29,12.86s-5.35,13-12.44,12.92c-6.91,0-12.2-5.67-12.18-13S57,51.09,64,51.09Zm.06,6.73c-3-.07-5.86,2.79-6,6a6.3,6.3,0,0,0,5.69,6.29c3.07.16,6-2.84,6.07-6.12A6.29,6.29,0,0,0,64.06,57.82Z"/><path d="M108.65,92.19A4.21,4.21,0,0,1,107.48,95c-1.1,1.39-3.3,2.33-3.24,4.08s2.21,2.66,3.31,4.06a6.34,6.34,0,0,1,.51.65,3.35,3.35,0,0,1-.44,4.42,2.85,2.85,0,0,1-4.06.23,25,25,0,0,1-3.22-3.2c-.93-1.07-1.67-1.19-2.63,0a27.87,27.87,0,0,1-2.89,3,3.1,3.1,0,0,1-4.55,0,3.49,3.49,0,0,1,0-4.76c.94-1.11,2-2.15,3-3.17a1.39,1.39,0,0,0,0-2.3,42.21,42.21,0,0,1-3-3.17,3.55,3.55,0,0,1,0-4.94c1.31-1.27,3-1.25,4.54.17,1,.93,2,1.94,2.88,3s1.54.89,2.37,0a46.16,46.16,0,0,1,3.38-3.33,2.77,2.77,0,0,1,3.4-.31A3.24,3.24,0,0,1,108.65,92.19Z"/></g></svg>