<svg id="Layer_1" data-name="Layer 1" xmlns="http://www.w3.org/2000/svg" viewBox="0 0 128 128"><title>dev_icons</title><path d="M64.11,126.5h-.22c0-.06-.1,0-.15-.07l-21.05-5.67L28,116.82c-.2-.06-.3-.14-.31-.36-.05-.65-.12-1.29-.17-1.94-.16-1.77-.32-3.54-.49-5.3q-.27-2.94-.55-5.88L26,98c-.16-1.78-.33-3.57-.5-5.36l-.42-4.59c-.16-1.78-.33-3.56-.49-5.34l-.42-4.59c-.17-1.78-.34-3.56-.5-5.33l-.42-4.63c-.17-1.77-.33-3.53-.5-5.3l-.42-4.62c-.16-1.78-.33-3.56-.5-5.34l-.48-5.25c-.16-1.77-.33-3.54-.49-5.3l-.42-4.63c-.18-2-.37-3.91-.55-5.87-.17-1.81-.33-3.61-.5-5.42,0-.35,0-.35.3-.35h88.58c.34,0,.34,0,.3.35l-.27,2.88c-.16,1.73-.31,3.46-.47,5.19s-.34,3.54-.5,5.31l-.48,5.25c-.16,1.78-.33,3.55-.5,5.33L106,55c-.16,1.79-.33,3.58-.5,5.37L105,65c-.16,1.77-.33,3.54-.49,5.3l-.42,4.63c-.17,1.77-.33,3.55-.5,5.33l-.42,4.62c-.15,1.58-.3,3.16-.44,4.74l-.42,4.56c-.16,1.76-.33,3.52-.49,5.28s-.32,3.52-.49,5.27l-.54,5.88q-.27,2.94-.53,5.88a.32.32,0,0,1-.28.32c-.9.23-1.79.48-2.69.72l-31.21,8.4A19.82,19.82,0,0,0,64.11,126.5ZM45.83,63.68l-2.08.85-5.61,2.35c-.22.08-.11.26-.1.39.08,1,.18,2.09.26,3.14l.54,6.82c0,.39,0,.39.43.4l24.36.07h.31l.06,0V95.53l0,0-.31-.06L52.35,92.66c-.63-.16-.63-.16-.69-.82-.22-2.64-.45-5.27-.66-7.9,0-.26-.1-.31-.34-.31H40c-.24,0-.31.05-.29.3.12,1.3.23,2.6.35,3.91.16,1.89.31,3.78.48,5.67.2,2.32.41,4.64.6,7a.33.33,0,0,0,.28.34l7.07,2.09,8.44,2.5,7.1,2.11v10.87c0,.34,0,.36.36.28l2.57-.69,7.74-2.09,5.68-1.52,7.74-2.09,5.13-1.38a.26.26,0,0,0,.21-.23,5.31,5.31,0,0,0,0-.68c.08-.8.15-1.59.22-2.39l.18-2.19c.07-.77.15-1.55.22-2.32s.12-1.5.18-2.25.15-1.68.23-2.53l.12-1.44c.07-.81.15-1.61.22-2.42L95,92.92c.07-.81.15-1.61.22-2.41,0-.53.08-1.05.13-1.57.07-.76.15-1.53.22-2.3l.12-1.59c.07-.78.15-1.57.22-2.35.05-.52.08-1,.13-1.54.06-.77.15-1.55.21-2.33s.12-1.49.18-2.24.15-1.67.23-2.5l.12-1.48c.07-.77.15-1.55.22-2.32L97.15,68c.07-.82.15-1.65.22-2.47,0-.48.08-1,.13-1.45.07-.78.15-1.57.21-2.35s.12-1.48.19-2.22.14-1.67.22-2.5L98.3,55c.07-.79.15-1.57.22-2.36l.18-2.21c.07-.85.15-1.69.22-2.53,0-.48.08-1,.13-1.45l.21-2.33c.07-.74.12-1.49.19-2.24s.14-1.63.22-2.44l.12-1.54c.07-.77.15-1.55.22-2.32,0-.56.08-1.12.15-1.68,0-.39,0-.41-.34-.41H64.36c-.36,0-.36,0-.36.38V44.17c0,.12,0,.25-.07.35H35.87c-.13,0-.19,0-.17.17l.63,5.09c.22,1.78.45,3.56.66,5.34,0,.27.09.37.38.37H63.61a1,1,0,0,0,.34,0l0,0v.58l0,0-.21.08L48.85,62.4Z"/><path d="M90.49,1.5c0,1.86,0,3.73,0,5.59,0,.25-.06.32-.31.31-1.62,0-3.23,0-4.85,0H85l.36.33,4.93,4.84a.67.67,0,0,1,.24.55c0,1.59,0,3.19,0,4.78,0,.21,0,.29-.27.29q-6.63,0-13.25,0c-.23,0-.27-.07-.27-.28,0-1.62,0-3.23,0-4.85,0-.23.07-.27.28-.27H82.1l0-.07L80.8,11.42,76.88,7.57a.49.49,0,0,1-.18-.37c0-1.84,0-3.69,0-5.53a1,1,0,0,1,0-.17Z"/><path d="M70.94,1.5c0,1.52,0,3,0,4.56,0,.35,0,.7,0,1.06s0,.28-.27.28c-1.63,0-3.25,0-4.88,0h-.27l0,.06c.08.07.17.13.25.21l5,4.93a.52.52,0,0,1,.19.45v4.87c0,.2,0,.27-.25.27q-6.65,0-13.27,0c-.19,0-.26,0-.26-.24,0-1.64,0-3.27,0-4.9,0-.24.08-.26.28-.26h5.21l-1.4-1.4C60,10.13,58.67,8.85,57.37,7.59a.6.6,0,0,1-.2-.47c0-1.88,0-3.75,0-5.62Z"/><path d="M51.27,1.5a2.64,2.64,0,0,1,0,.28c0,1.77,0,3.54,0,5.31,0,.24,0,.31-.31.31H43.71c-.25,0-.3.06-.3.3,0,1.6,0,3.21,0,4.81,0,.24.05.3.3.3H51c.22,0,.28.05.28.28,0,1.62,0,3.25,0,4.87,0,.2,0,.25-.25.25q-6.64,0-13.27,0c-.26,0-.27-.1-.27-.29q0-8,0-16.06c0-.11,0-.23,0-.34Z"/><path d="M63.93,44.52c.11-.1.07-.23.07-.35V33.82c0-.38,0-.38.36-.38H99.82c.39,0,.38,0,.34.41-.07.56-.1,1.12-.15,1.68-.07.77-.15,1.55-.22,2.32l-.12,1.54c-.08.81-.15,1.62-.22,2.44s-.12,1.5-.19,2.24l-.21,2.33c0,.48-.09,1-.13,1.45-.07.84-.15,1.68-.22,2.53l-.18,2.21c-.07.79-.15,1.57-.22,2.36l-.18,2.1c-.08.83-.15,1.67-.22,2.5s-.12,1.48-.19,2.22-.14,1.57-.21,2.35c0,.48-.09,1-.13,1.45-.07.82-.15,1.65-.22,2.47L97,70.29c-.07.77-.15,1.55-.22,2.32l-.12,1.48c-.08.83-.15,1.67-.23,2.5s-.11,1.5-.18,2.24-.15,1.56-.21,2.33c-.05.51-.08,1-.13,1.54-.07.78-.15,1.57-.22,2.35l-.12,1.59c-.07.77-.15,1.54-.22,2.3,0,.52-.08,1-.13,1.57-.07.8-.15,1.6-.22,2.41l-.12,1.53c-.07.81-.15,1.61-.22,2.42l-.12,1.44c-.08.85-.16,1.69-.23,2.53s-.11,1.5-.18,2.25-.15,1.55-.22,2.32l-.18,2.19c-.07.8-.14,1.59-.22,2.39a5.31,5.31,0,0,1,0,.68.26.26,0,0,1-.21.23l-5.13,1.38-7.74,2.09-5.68,1.52L66.93,118l-2.57.69c-.33.08-.36.06-.36-.28V107.52l0,0a1.83,1.83,0,0,0,.25-.06l14.14-4.13,3.48-1,.44-.12,4.18-1.21c.17-.05.27-.11.27-.32a5.83,5.83,0,0,1,.06-.71c.15-1.69.29-3.39.44-5.08l.36-4.16c.15-1.67.3-3.33.44-5l.36-4.23.45-5.07.36-4.17c.14-1.64.28-3.29.44-4.93,0-.27,0-.39-.32-.35a4.85,4.85,0,0,1-.66,0H64s0,0,0,0l.29-.1,10.81-4.62,6.91-3,2.58-1.09,2.35-1c1.19-.48,2.37-1,3.54-1.52a.23.23,0,0,0,.25-.25,3.93,3.93,0,0,1,.06-.59c.1-1,.22-2.07.32-3.1l.3-3.1.39-3.66c0-.23,0-.33-.29-.33-3,0-5.94,0-8.91,0H64.23l-.28,0Z"/><path d="M64,77.71h4.64l8.49,0c.25,0,.29.07.28.31-.11,1.47-.19,3-.28,4.43l-.39,6.2c-.06,1-.13,2-.17,3a.34.34,0,0,1-.28.37L64.83,95.3l-.83.23Z"/><path d="M65.36,55.52a14.42,14.42,0,0,1-1.36.56V55.5l1.3,0Z"/><path d="M65.36,55.52l-.06-.05s.1,0,.14,0Z"/></svg>