<svg id="Layer_1" data-name="Layer 1" xmlns="http://www.w3.org/2000/svg" viewBox="0 0 128 128"><defs><style>.cls-1{fill:none;}</style></defs><title>social_icons</title><rect class="cls-1" x="2.5" y="2.5" width="123" height="123" rx="5.02" ry="5.02"/><g id="_0YgUhT.tif" data-name="0YgUhT.tif"><path d="M29.56,75.33v-.77A3.45,3.45,0,0,1,32.39,74a10,10,0,0,1,7,5,13.92,13.92,0,0,0,2.33,2.91c3.22,2.94,7.66,2.73,11.21,1.26a.73.73,0,0,0,.48-.55,11.07,11.07,0,0,1,2.82-6c-.43-.08-.75-.16-1.07-.2a35.93,35.93,0,0,1-6.41-1.4c-5.33-1.71-9.54-4.77-12-9.94a28.16,28.16,0,0,1-2.37-9.9c-.47-5.66.71-10.8,4.44-15.2A1.13,1.13,0,0,0,39,38.83a18,18,0,0,1,.78-12.33h2.6A29.46,29.46,0,0,1,52.46,31a1.85,1.85,0,0,0,1.64.27,45.26,45.26,0,0,1,22.62,0,1.71,1.71,0,0,0,1.5-.24A29.28,29.28,0,0,1,88.33,26.5h2.6a18.11,18.11,0,0,1,.8,12.18A1.36,1.36,0,0,0,92,40.13a17.92,17.92,0,0,1,4,7.92c.21,1,.32,2,.47,2.94v3.67c-.17,1.54-.28,3.09-.56,4.62C94.48,66.7,90.46,72,83.26,74.6a35,35,0,0,1-7.94,1.85c-.23,0-.52,0-.63.21s.18.39.32.55A11.42,11.42,0,0,1,77.5,84.3c.08,3.54,0,7.08,0,10.62a4.68,4.68,0,0,1-.07.84,7,7,0,0,1-5.64,5.74H58.94a2.46,2.46,0,0,0-.29-.09,6.9,6.9,0,0,1-5.43-7c0-1.19,0-2.39-.07-3.59,0-.91-.09-.93-1-.77a20.7,20.7,0,0,1-5.93.3c-4.52-.55-7.94-2.53-9.7-7a12.86,12.86,0,0,0-4.71-6.18A9.42,9.42,0,0,1,29.56,75.33Z"/></g></svg>