<svg id="ad6ace50-0c9f-4a38-bfe1-be6034af46fd" data-name="Layer 1" xmlns="http://www.w3.org/2000/svg" viewBox="0 0 128 128"><title>social_icons</title><rect x="2.5" y="2.5" width="123" height="123" rx="5.02" style="fill:none"/><g id="adf5b74a-03ae-493d-873a-ef20cdbf98f3" data-name="OaRRPD.tif"><path d="M.68,75V59.76a40.33,40.33,0,0,1,9-19.15,2.87,2.87,0,0,0,.67-2.33c-.83-8.57.78-16.84,3.2-25C15,8.4,15.08,8.41,20,9.81c8.76,2.49,16.7,6.71,24.29,11.64a5.8,5.8,0,0,0,4.44,1.26,88.79,88.79,0,0,1,29.14-.25,9.35,9.35,0,0,0,7.05-1.63A85,85,0,0,1,110.18,9.27c2.23-.57,3.29.07,3.95,2.17,2.74,8.66,4.56,17.43,3.71,26.58a3.2,3.2,0,0,0,.74,2.59c4.84,5.52,7.54,12,9,19.15V75c-.14.73-.31,1.46-.43,2.2-3.83,23.31-18.07,36.74-41.66,39.2-11.15,1.16-22.34.26-33.51.53a65,65,0,0,1-14-1.19c-16.51-3.21-28.63-11.8-34.41-28.14A84.89,84.89,0,0,1,.68,75Zm63.46,35.35a152.83,152.83,0,0,0,20-1.18,57.49,57.49,0,0,0,6.35-1.26C106,104.19,111.91,93,109.82,77.84A18.85,18.85,0,0,0,94.34,62c-5.59-1-11.24-.46-16.87-.14s-11.42.65-17.16.49c-7.88-.22-15.74-1.28-23.64-.74a18.6,18.6,0,0,0-14.11,7.14C17.63,75,17.27,82,18.64,89.34c2,10.84,9.39,16.21,19.46,18.66C46.66,110.08,55.4,110.17,64.14,110.34Z"/><path d="M51.53,84.34c-.25,3.52-1,6.88-3.38,9.64-3.48,4.06-8.75,3.94-12.1-.24-4-5-4.11-13.54-.16-18.65,3.52-4.54,9.15-4.53,12.64,0C50.61,77.84,51.29,81,51.53,84.34Z"/><path d="M95.29,84.11c-.12,3.84-.94,6.87-3,9.49-3.4,4.36-8.72,4.48-12.28.3-4.29-5.05-4.25-14.33.1-19.3,3.43-3.92,8.61-3.89,11.94.13A14.87,14.87,0,0,1,95.29,84.11Z"/></g></svg>