<svg id="Layer_1" data-name="Layer 1" xmlns="http://www.w3.org/2000/svg" viewBox="0 0 128 128"><title>dev_icons</title><path d="M64.25,126h-.53c-1.74-.53-3.48-1.09-5.23-1.58q-14.72-4.11-29.43-8.16c-.72-.2-1.07-.46-1.12-1.29-.18-2.66-.48-5.31-.71-8Q26.12,94.6,25,82.17,23.9,69.44,22.75,56.69q-1-11.11-2-22.22c-.24-2.72-.46-5.45-.7-8.25H108q-4,44.93-8,89.7c-.33.11-.62.22-.9.3-8.26,2.29-16.51,4.56-24.76,6.87C70.93,124,67.59,125,64.25,126ZM40,83.05c0,.33,0,.58,0,.83.46,5.1,1,10.19,1.35,15.3A1.64,1.64,0,0,0,42.73,101c6.88,1.85,13.74,3.78,20.62,5.67a2.81,2.81,0,0,0,1.38,0c7-1.9,13.89-3.85,20.85-5.74a1.26,1.26,0,0,0,1.1-1.33c.35-4.18.76-8.36,1.13-12.54q.85-9.41,1.69-18.81c0-.46,0-.92,0-1.48H87.66q-18.45,0-36.9.09c-.82,0-1.41,0-1.49-1.11-.19-3-.5-5.93-.76-8.89,0-.41,0-.83,0-1.32h1.86l38.34.08a2.58,2.58,0,0,0,1,0c.36-.16.83-.48.89-.8.2-1,.24-2.08.34-3.12.2-2.34.4-4.68.6-7H36.49c0,.4,0,.66,0,.92C37.46,55.75,38.4,66,39.25,76.15c.11,1.32.48,1.66,1.78,1.66,11.6,0,23.2,0,34.8.1.5,0,1,0,1.46.07a2.38,2.38,0,0,1,.08.44c-.36,4.36-.71,8.71-1.12,13.07,0,.29-.49.68-.83.78-1.37.43-2.81.67-4.16,1.15-4.54,1.59-9.06,2.48-13.69.33A16,16,0,0,0,55,93.06c-3.44-.94-3.42-.94-3.69-4.47-.14-1.85-.35-3.7-.53-5.54Z"/><path d="M83.43,2a1.51,1.51,0,0,1,.17.49c0,5.37,0,10.75,0,16.23H78V11.17l-.27-.08-3.57,5.46-3.61-5.49-.25.06v7.61H64.78V2h5.78L74.2,8l3.45-6Z"/><path d="M44.28,2V18.73H38.84v-5.4H33.78v5.38H28.14c0-.38-.07-.76-.07-1.14q0-7.15,0-14.3A8,8,0,0,1,28.26,2h5.25l.32,5.47h4.94V2Z"/><path d="M62.15,2l.27,5.59h-5V18.75H51.73V7.65H46.91V2Z"/><path d="M91.84,2c.06.86.17,1.72.18,2.58,0,2.84,0,5.68,0,8.65h7.66v5.51H86.32V2Z"/></svg>