<svg id="Layer_1" data-name="Layer 1" xmlns="http://www.w3.org/2000/svg" viewBox="0 0 128 128"><defs><style>.cls-1{fill:none;}</style></defs><title>social_icons</title><rect class="cls-1" x="2.5" y="2.5" width="123" height="123" rx="5.02" ry="5.02"/><g id="lVgUOC.tif"><path d="M28,79.83V49.17c.14-1.2.26-2.41.43-3.61,1.27-8.94,7.23-15.23,16.06-16.92,1.54-.3,3.12-.43,4.68-.64H79.83c1.2.14,2.41.26,3.61.43C91.82,29.62,97.9,35,100,42.94a43.83,43.83,0,0,1,1,6.23V79.83c-.14,1.2-.26,2.41-.43,3.61a19.34,19.34,0,0,1-15.34,16.8c-1.78.41-3.6.51-5.4.76H49.17c-1.2-.14-2.41-.26-3.61-.43C37.18,99.38,31.09,94,29,86.06A43.83,43.83,0,0,1,28,79.83ZM94.22,64.47c-.11-5.55.09-11.11-.33-16.66-.5-6.54-4.24-11.05-10.46-12.33a24.39,24.39,0,0,0-4.58-.55c-10.34-.11-20.68-.41-31,.2-6.57.39-11.07,4.19-12.37,10.41a24.39,24.39,0,0,0-.55,4.58c-.1,10.38-.43,20.76.21,31.12.42,6.81,4.51,11.29,11.21,12.43a62.44,62.44,0,0,0,10.67.5c8,0,16.06.29,24.07-.3A13.58,13.58,0,0,0,90.18,90a13.85,13.85,0,0,0,3.69-8.9C94.39,75.58,94.11,70,94.22,64.47Z"/><path d="M65.13,83.41A18.92,18.92,0,1,1,83.28,62.6C84.2,73.9,76.52,82.59,65.13,83.41Zm-.64-30.85a11.94,11.94,0,1,0,12,12A11.8,11.8,0,0,0,64.49,52.56Z"/><path d="M83.93,49.53a4.53,4.53,0,0,1,0-9.05A4.55,4.55,0,0,1,88.52,45,4.49,4.49,0,0,1,83.93,49.53Z"/></g></svg>