<svg id="Layer_1" data-name="Layer 1" xmlns="http://www.w3.org/2000/svg" viewBox="0 0 128 128"><title>social_icons</title><g id="lVgUOC.tif"><path d="M7,87.94V40.06c.22-1.88.4-3.76.67-5.63C9.66,20.46,19,10.63,32.75,8c2.41-.47,4.87-.67,7.31-1H87.94c1.88.22,3.77.4,5.64.67,13.08,1.86,22.58,10.19,25.92,22.67a67.94,67.94,0,0,1,1.5,9.72V87.94c-.22,1.88-.4,3.76-.67,5.63-1.93,13.55-10.79,23.23-24,26.25-2.79.64-5.63.79-8.44,1.18H40.06c-1.88-.22-3.77-.4-5.64-.67-13.08-1.86-22.59-10.2-25.92-22.67A67.94,67.94,0,0,1,7,87.94ZM110.41,64c-.17-8.67.15-17.34-.51-26-.78-10.22-6.62-17.26-16.34-19.27a37.62,37.62,0,0,0-7.16-.84c-16.13-.18-32.28-.66-48.41.31-10.25.61-17.28,6.54-19.31,16.26a36.65,36.65,0,0,0-.85,7.15c-.17,16.2-.68,32.41.32,48.6.65,10.63,7,17.62,17.51,19.4,5.52.94,11.1.8,16.66.78,12.53,0,25.08.46,37.59-.47,5.36-.4,10.27-2,14.19-6s5.29-8.7,5.77-13.91C110.67,81.3,110.23,72.62,110.41,64Z"/><path d="M65,93.54a29.55,29.55,0,0,1-4.06-58.92C77.79,32.91,92.07,45.43,93.33,61,94.76,78.67,82.77,92.25,65,93.54ZM64,45.36A18.64,18.64,0,1,0,82.64,64,18.39,18.39,0,0,0,64,45.36Z"/><path d="M94.34,40.62a7.07,7.07,0,0,1,.08-14.13,7.1,7.1,0,0,1,7.09,7.12A7,7,0,0,1,94.34,40.62Z"/></g></svg>