<svg id="Layer_1" data-name="Layer 1" xmlns="http://www.w3.org/2000/svg" viewBox="0 0 128 128"><title>dev_icons</title><g id="nO8afa.tif"><path d="M64.09,26.52h41.69c2.28,0,2.36.12,2.16,2.32q-1.06,11.7-2.11,23.4c-.77,8.51-1.56,17-2.32,25.52-.67,7.44-1.3,14.89-2,22.34-.45,5.05-.92,10.1-1.34,15.15-.08,1-.66,1.32-1.51,1.56-9.92,2.73-19.87,5.36-29.73,8.29a16.85,16.85,0,0,1-10.11,0c-9.73-2.91-19.55-5.52-29.34-8.19a2.12,2.12,0,0,1-1.78-2.12q-.8-9.59-1.66-19.15c-.59-6.6-1.2-13.2-1.79-19.8C23.73,69.4,23.18,63,22.61,56.55c-.49-5.5-1-11-1.51-16.48-.37-4.08-.72-8.16-1.1-12.23-.1-1,.39-1.33,1.32-1.32,2.68,0,5.35,0,8,0ZM63.91,45v0H38.78c-.45,0-.89,0-1.34,0s-.79.3-.75.86c.19,2.53.3,5.06.56,7.58.2,1.93.28,1.95,2.2,1.93,12.83-.16,25.65.25,38.48.23h.4c1-.06,1.39.4,1.28,1.37s-.21,2.22-.32,3.32l-1.8,18.74c-.38,3.9-.74,7.8-1.13,11.69-.09,1-.22,1.79-1.44,2.09-3.37.83-6.71,1.78-10.07,2.69a4.22,4.22,0,0,1-2.23.07q-4.9-1.34-9.82-2.59a1.84,1.84,0,0,1-1.6-1.82c-.19-1.81-.46-3.62-.5-5.44,0-1.24-.57-1.82-1.91-1.77-2.36.09-4.73.06-7.09,0-1.07,0-1.52.27-1.42,1.45.42,4.83.76,9.66,1.12,14.5.06.87.65,1,1.34,1.21Q53.16,104,63.58,107a2.15,2.15,0,0,0,1.18,0q10.17-2.82,20.35-5.62a1.72,1.72,0,0,0,1.4-1.69c.69-7.85,1.42-15.69,2.12-23.54.89-9.79,1.76-19.58,2.67-29.38.1-1.15-.13-1.72-1.46-1.71C81.19,45,72.55,45,63.91,45Z"/><path d="M74.84,8.8c1.41,1.12,2.76,2.33,4.24,3.34a3.65,3.65,0,0,1,1.74,3.56c-.12,3.48,0,3.49-3.47,3.49-3.65,0-7.3,0-10.94,0-1.23,0-1.71-.41-1.61-1.62a14.37,14.37,0,0,0,0-2.54c-.12-1.33.48-1.72,1.72-1.65a16.48,16.48,0,0,0,4.25-.29,27.47,27.47,0,0,0-3.17-2.46c-2.27-1.3-3.06-3.08-2.84-5.7.26-3.13-.23-2.79,2.83-2.8,3.92,0,7.83,0,11.75,0,1.1,0,1.52.37,1.46,1.47a28.69,28.69,0,0,0,0,3.47c.07,1.13-.43,1.48-1.5,1.44-1.45-.06-2.9,0-4.35,0Z"/><path d="M62.59,10.68c0,2.31,0,4.62,0,6.94,0,1.11-.3,1.6-1.51,1.59-4.31-.06-8.63-.05-12.94,0-1.13,0-1.52-.43-1.47-1.49s.05-2.23,0-3.34.35-1.54,1.47-1.5c1.91.05,3.83-.06,5.73,0,1.33.07,1.69-.45,1.65-1.7-.07-2.53,0-5.07,0-7.6,0-1.1.39-1.52,1.49-1.47,1.42.07,2.85.06,4.27,0,1,0,1.34.36,1.33,1.33C62.56,5.87,62.59,8.28,62.59,10.68Z"/></g></svg>