<svg id="e67f7021-8147-4d5f-b845-a0242b681a48" data-name="Layer 1" xmlns="http://www.w3.org/2000/svg" viewBox="0 0 128 128"><title>social_icons</title><g id="bd343a5f-6a74-4c5c-9c08-f731960774d7" data-name="1Ds5iL.tif"><path d="M47.12,116c0-.54-.08-1.08-.08-1.63,0-12.32,0-24.64.14-37,.1-8,.07-16.06.09-24.09,0-2.06-.07-4.12-.17-6.18-.05-1,.36-1.39,1.39-1.38q10.41,0,20.82,0c1,0,1.39.37,1.37,1.4-.05,2.59,0,5.19,0,8C71.6,54,72.34,53,73.14,52.05A22.29,22.29,0,0,1,89,44.21a28.13,28.13,0,0,1,14.16,2.22c7.4,3.32,11.56,9.35,13.72,17a58.11,58.11,0,0,1,1.44,8.18q0,21.71,0,43.41c0,.86-.16,1-1,1-7.4,0-14.8,0-22.21,0a4.54,4.54,0,0,1-.24-2.1V79.32A30.56,30.56,0,0,0,94,71.08a11.26,11.26,0,0,0-18-6,13,13,0,0,0-5.3,10.78v38.2c0,.63,0,1.26-.08,1.88Z"/><path d="M11,116c0-.54,0-1.09,0-1.63V47.87c0-2.13,0-2.13,2.15-2.13,6.6,0,13.2,0,19.8,0,1.27,0,1.66.37,1.66,1.65q0,33.73,0,67.47c0,.38,0,.76-.06,1.13Z"/><path d="M24.66,12a14,14,0,0,1,7.88,3.62C38,21.06,37.47,31.73,28.7,35.3c-5.27,2.15-10.48,1.75-15.07-2a12.32,12.32,0,0,1-3.86-6.65V21.59c.91-3,2.32-5.56,5-7.29A17.12,17.12,0,0,1,21.13,12Z"/></g></svg>