<svg id="Layer_1" data-name="Layer 1" xmlns="http://www.w3.org/2000/svg" viewBox="0 0 128 128"><defs><style>.cls-1{fill:none;}</style></defs><title>social_icons</title><rect class="cls-1" x="2.5" y="2.5" width="123" height="123" rx="5.02" ry="5.02"/><g id="_1Ds5iL.tif" data-name="1Ds5iL.tif"><path d="M53.46,96.39c0-.34-.05-.68-.05-1,0-7.68,0-15.36.08-23,.06-5,0-10,.06-15,0-1.29,0-2.57-.11-3.85,0-.65.23-.87.87-.87q6.48,0,13,0c.66,0,.87.24.86.88,0,1.61,0,3.23,0,5,.58-.74,1-1.36,1.54-2a13.89,13.89,0,0,1,9.86-4.88,17.56,17.56,0,0,1,8.83,1.38c4.61,2.07,7.2,5.83,8.55,10.57a36.37,36.37,0,0,1,.89,5.09q0,13.53,0,27.05c0,.54-.11.65-.65.64-4.61,0-9.22,0-13.84,0a3,3,0,0,1-.15-1.32V73.55a19.36,19.36,0,0,0-.53-5.14,7,7,0,0,0-11.22-3.72,8.08,8.08,0,0,0-3.3,6.72v23.8c0,.39,0,.79,0,1.18Z"/><path d="M31,96.39c0-.34,0-.68,0-1V54c0-1.33,0-1.33,1.33-1.33,4.12,0,8.23,0,12.34,0,.79,0,1,.23,1,1q0,21,0,42c0,.24,0,.47,0,.71Z"/><path d="M39.46,31.6a8.73,8.73,0,0,1,4.91,2.25c3.4,3.4,3.07,10-2.39,12.27a8.79,8.79,0,0,1-9.4-1.26,7.72,7.72,0,0,1-2.4-4.14V37.57A7.79,7.79,0,0,1,33.31,33a10.62,10.62,0,0,1,3.95-1.43Z"/></g></svg>