<svg id="Layer_1" data-name="Layer 1" xmlns="http://www.w3.org/2000/svg" viewBox="0 0 128 128"><defs><style>.cls-1{fill:#fff;stroke:#fff;stroke-miterlimit:10;stroke-width:2px;}</style></defs><title>logo_black_square_128</title><rect x="2.5" y="2.5" width="123" height="123" rx="5.02" ry="5.02"/><rect class="cls-1" x="31.63" y="33.09" width="2.93" height="61.82"/><polygon class="cls-1" points="34.56 35.82 31.63 35.82 31.63 31.63 64 31.63 64 34.56 34.56 34.56 34.56 35.82"/><rect class="cls-1" x="93.44" y="33.09" width="2.93" height="61.82"/><polygon class="cls-1" points="65.47 94.91 62.53 94.91 62.53 34.56 61.33 34.56 61.33 31.63 65.47 31.63 65.47 94.91"/><rect class="cls-1" x="33.09" y="62.53" width="61.82" height="2.93"/><polygon class="cls-1" points="96.38 34.89 93.44 34.89 93.44 34.56 92.19 34.56 92.19 31.63 96.38 31.63 96.38 34.89"/><polygon class="cls-1" points="96.38 96.38 92.25 96.38 92.25 93.44 93.44 93.44 93.44 93.42 96.38 93.42 96.38 96.38"/><rect class="cls-1" x="64.06" y="93.44" width="2.72" height="2.93"/><rect class="cls-1" x="61.34" y="93.44" width="2.72" height="2.93"/><polygon class="cls-1" points="35.75 96.38 31.63 96.38 31.63 93.11 34.56 93.11 34.56 93.44 35.75 93.44 35.75 96.38"/></svg>