<svg id="bbee323c-3e4a-4360-b731-f132df68be7c" data-name="Layer 1" xmlns="http://www.w3.org/2000/svg" viewBox="0 0 128 128"><title>nav_icons</title><path d="M115.92,112.08H12.48c-3.31-1.06-4.4-2.56-4.4-6.08V42.7a5.78,5.78,0,0,0-.16-1.9V38.16c.28-2,.43-4,.88-6,1.1-4.87,2.88-9.41,6.46-13a11.88,11.88,0,0,1,9-3.76c2.56.06,5.12,0,7.68,0,3.35.05,6.7-.06,10.05-.29.81-.05,1.33.15,1.49,1.11.7,4.37,3.3,6.55,7.73,6.55q29.74,0,59.5,0a6.47,6.47,0,0,1,4.89,2.13,12.31,12.31,0,0,1,2.29,3.5,28.78,28.78,0,0,1,2.41,11.89c0,22,0,44,0,66C120.39,109.51,118.6,111.54,115.92,112.08ZM64.27,40.62H14.48c-2,0-2.14.18-2.15,2.1v62.87c0,1.91.21,2.11,2.15,2.11h99.45c2.08,0,2.15-.07,2.15-2.17V42.91c0-2.28,0-2.29-2.27-2.29Zm-.33-4.44v0H113.6c.32,0,.64,0,1,0,.88,0,1.13-.39,1-1.21a20.76,20.76,0,0,0-2.06-5.86,3.8,3.8,0,0,0-3.67-2.14c-19.68,0-39.35,0-59,0a10.89,10.89,0,0,1-10.31-6.15,1.83,1.83,0,0,0-1.88-1.11c-4.76,0-9.52.1-14.27,0a7.93,7.93,0,0,0-6.42,2.91C14.93,25.93,13.59,30,12.8,34.21c-.36,2-.32,2,1.72,2Z"/><path d="M63.73,101.19h45.59c1.75,0,2.47,1.08,1.84,2.74a.75.75,0,0,1-.74.49c-.48,0-1,0-1.44,0H17.91c-1.76,0-2.5-1.13-1.84-2.78a.71.71,0,0,1,.74-.47c.44,0,.88,0,1.32,0Z"/></svg>