<svg id="b173a03f-d15b-4cd8-b7ce-a259169be1ff" data-name="Layer 1" xmlns="http://www.w3.org/2000/svg" viewBox="0 0 128 128"><title>nav_icons</title><path d="M88.08,112.27H40.31a8.54,8.54,0,0,1-8.53-8.53v-1.91a8.54,8.54,0,0,1,8.53-8.52H88.08a8.53,8.53,0,0,1,8.52,8.52v1.91A8.54,8.54,0,0,1,88.08,112.27Zm-47.77-15a4.53,4.53,0,0,0-4.53,4.52v1.91a4.53,4.53,0,0,0,4.53,4.53H88.08a4.53,4.53,0,0,0,4.52-4.53v-1.91a4.53,4.53,0,0,0-4.52-4.52Z"/><rect x="61.51" y="94.86" width="4" height="14.9"/><rect x="70.67" y="94.86" width="4" height="14.9"/><rect x="79.84" y="94.86" width="4" height="14.9"/><rect x="52.34" y="94.86" width="4" height="14.9"/><rect x="43.17" y="94.86" width="4" height="14.9"/><path d="M101.67,122.24H27.34A11.22,11.22,0,0,1,16.14,111V57.65a11.21,11.21,0,0,1,11.2-11.2h74.33a11.21,11.21,0,0,1,11.2,11.2V111A11.21,11.21,0,0,1,101.67,122.24ZM27.34,50.45a7.21,7.21,0,0,0-7.2,7.2V111a7.21,7.21,0,0,0,7.2,7.2h74.33a7.21,7.21,0,0,0,7.2-7.2V57.65a7.21,7.21,0,0,0-7.2-7.2Z"/><path d="M120.54,107.17h-6.12a5.25,5.25,0,0,1-5.24-5.24V66a5.25,5.25,0,0,1,5.24-5.24h6.12A5.25,5.25,0,0,1,125.78,66v35.92A5.25,5.25,0,0,1,120.54,107.17Zm-6.12-42.4A1.26,1.26,0,0,0,113.18,66v35.92a1.26,1.26,0,0,0,1.24,1.24h6.12a1.25,1.25,0,0,0,1.24-1.24V66a1.25,1.25,0,0,0-1.24-1.24Z"/><path d="M14,107.17H7.84a5.25,5.25,0,0,1-5.24-5.24V66a5.25,5.25,0,0,1,5.24-5.24H14A5.25,5.25,0,0,1,19.21,66v35.92A5.25,5.25,0,0,1,14,107.17ZM7.84,64.77A1.26,1.26,0,0,0,6.6,66v35.92a1.26,1.26,0,0,0,1.24,1.24H14a1.26,1.26,0,0,0,1.24-1.24V66A1.26,1.26,0,0,0,14,64.77Z"/><path d="M45.31,80.74A10.29,10.29,0,1,1,55.6,70.45,10.31,10.31,0,0,1,45.31,80.74Zm0-16.58a6.29,6.29,0,1,0,6.29,6.29A6.29,6.29,0,0,0,45.31,64.16Z"/><path d="M83.08,80.74A10.29,10.29,0,1,1,93.37,70.45,10.3,10.3,0,0,1,83.08,80.74Zm0-16.58a6.29,6.29,0,1,0,6.29,6.29A6.29,6.29,0,0,0,83.08,64.16Z"/><path d="M45.33,72a1.5,1.5,0,0,0,0-3,1.5,1.5,0,0,0,0,3Z"/><path d="M83.14,72a1.5,1.5,0,0,0,0-3,1.5,1.5,0,0,0,0,3Z"/><path d="M68.65,49.87H59.74a4.42,4.42,0,0,1-4.42-4.42V38.83a4.43,4.43,0,0,1,4.42-4.42h8.91a4.43,4.43,0,0,1,4.42,4.42v6.62A4.42,4.42,0,0,1,68.65,49.87ZM59.74,38.41a.43.43,0,0,0-.42.42v6.62a.42.42,0,0,0,.42.42h8.91a.42.42,0,0,0,.42-.42V38.83a.43.43,0,0,0-.42-.42Z"/><rect x="62.19" y="21.52" width="4" height="13.75"/><path d="M64.19,22.37a8.31,8.31,0,1,1,8.31-8.3A8.31,8.31,0,0,1,64.19,22.37Zm0-12.61a4.31,4.31,0,1,0,4.31,4.31A4.31,4.31,0,0,0,64.19,9.76Z"/><rect x="4.22" y="73.38" width="12.61" height="4"/><rect x="110.79" y="73.38" width="12.61" height="4"/></svg>