<svg id="f04d42f7-7475-4c80-9997-9162f44f6d5d" data-name="Layer 1" xmlns="http://www.w3.org/2000/svg" viewBox="0 0 128 128"><title>nav_icons</title><polygon points="102 119.5 21 119.5 21 31.14 25 31.14 25 115.5 98 115.5 98 14.5 42.33 14.5 42.33 10.5 102 10.5 102 119.5"/><rect x="18.15" y="20.5" width="29.7" height="4" transform="translate(-6.24 29.92) rotate(-45)"/><rect x="42.5" y="13" width="4" height="21"/><rect x="22.5" y="30" width="21" height="4"/><rect x="33.91" y="99.01" width="55.09" height="3"/><rect x="33.91" y="90.01" width="55.09" height="3"/><rect x="33.91" y="81.01" width="55.09" height="3"/><rect x="33.91" y="72.01" width="55.09" height="3"/><rect x="33.91" y="63.01" width="35.09" height="3"/><rect x="33.91" y="54.01" width="35.09" height="3"/><rect x="33.91" y="45.01" width="35.09" height="3"/></svg>