<svg id="Layer_1" data-name="Layer 1" xmlns="http://www.w3.org/2000/svg" viewBox="0 0 128 128"><title>pin</title><g id="_6A1bny.tif" data-name="6A1bny.tif"><path d="M62.32,128a7.43,7.43,0,0,1-2.13-2.23c-8.72-13-16.92-26.28-24.42-40-5-9.08-9.63-18.32-12.92-28.17a45.79,45.79,0,0,1-2.73-13.81A41.54,41.54,0,0,1,29.71,16.3,42.4,42.4,0,0,1,59.78.18,43.49,43.49,0,0,1,106,34.05c.42,1.85.66,3.74,1,5.61v7.27c-1.23,7.67-3.93,14.86-7.11,21.9A301.17,301.17,0,0,1,85.37,96.51c-5.88,10.1-12.19,19.93-18.61,29.69a7,7,0,0,1-1.84,1.8ZM26.81,42.85a52.82,52.82,0,0,0,.65,5.85,94,94,0,0,0,7.8,21.14,407.39,407.39,0,0,0,27.53,47.49c.79,1.2.88,1.19,1.72-.09,6.11-9.36,12-18.82,17.52-28.56C88,78.15,93.7,67.53,97.68,56.07c1.57-4.54,2.83-9.14,2.56-14.06A36.05,36.05,0,0,0,87.45,15.69,35.38,35.38,0,0,0,59.5,7.08a35.54,35.54,0,0,0-24.17,13A36.49,36.49,0,0,0,26.81,42.85Z"/><path d="M39.39,43A24.21,24.21,0,1,1,64,67.48C50.27,67.72,39.51,56.92,39.39,43Zm6.87.12A17.36,17.36,0,1,0,63.62,25.91,17.21,17.21,0,0,0,46.26,43.16Z"/></g></svg>