<svg id="Layer_1" data-name="Layer 1" xmlns="http://www.w3.org/2000/svg" viewBox="0 0 128 128"><defs><style>.cls-1,.cls-2{fill:none;stroke:#000;stroke-miterlimit:10;}.cls-1{stroke-width:4px;}.cls-2{stroke-width:3px;}</style></defs><title>portfolio_128</title><path class="cls-1" d="M9.83,40.43c0-.79,0-1.56.07-2.32.67-11.69,6.37-20.81,13.32-20.81"/><polyline class="cls-1" points="22 17.3 23.22 17.3 41.27 17.3 42.7 17.3"/><path class="cls-1" d="M41,15a9.66,9.66,0,0,0,.27,2.3A9.11,9.11,0,0,0,50,24.61"/><polyline class="cls-1" points="49.39 24.61 50 24.61 110.87 24.61 111.48 24.61"/><path class="cls-1" d="M118,41c0-1,0-2-.12-3-.61-7.64-3.52-13.39-7-13.39"/><polyline class="cls-1" points="9.51 38.11 9.9 38.11 117.88 38 118 38"/><path d="M115,40.17a1,1,0,0,1,1,1v65.54a1,1,0,0,1-1,1H13a1,1,0,0,1-1-1V41.14a1,1,0,0,1,1-1H115m0-4H13a5,5,0,0,0-5,5v65.54a5,5,0,0,0,5,5H115a5,5,0,0,0,5-5V41.14a5,5,0,0,0-5-5Z"/><line class="cls-2" x1="15.91" y1="102.52" x2="110.87" y2="102.52"/></svg>