<svg id="b7562f64-c131-4c50-a127-5558e525aa8e" data-name="Layer 1" xmlns="http://www.w3.org/2000/svg" viewBox="0 0 128 128"><title>scissors</title><g id="b400af75-dc5b-40ec-9913-4a74a357dd03" data-name="hGgQZS.tif"><path d="M5.7,37.94c2,4.86,4.82,6.25,9.8,4.75.7-.21,1.4-.43,2.08-.66,7.53-2.57,13.48-.56,18.14,6,1.3,1.84,2.36,3.9,4.34,5.18,5,3.26,10.32,5.68,16.37,6.3,4.34.44,8.69,1,13,1.71a11.66,11.66,0,0,0,4.52.1c14.42-3,28.92-5.55,43.54-7.44a13.86,13.86,0,0,1,6.71.33l.93,1.71c-3.44,1.86-7.31,2.46-11,3.59-7.8,2.38-15.65,4.58-23.48,6.85a2.91,2.91,0,0,0-1.79.92c.6.86,1.63.87,2.48,1.13,10.43,3.18,20.87,6.32,31.29,9.51,1,.3,2.42.23,2.31,1.92l-3,1.64a480.18,480.18,0,0,1-48.07-8.38,6.55,6.55,0,0,0-3.11-.21c-4.33,1.16-8.8,1.24-13.22,1.78-9.19,1.13-17.3,3.87-22.79,12.3-3.18,4.88-11,8.63-17.32,4.75a12.7,12.7,0,0,1-2.93-3.33,23.17,23.17,0,0,1-1.08-2.1c-.18-1.25-.33-2.5-.42-3.76.32-2.89.3-5.43.36-8,.08-3.22.12-3.26,3-1.61a5.33,5.33,0,0,0,4.43.51,11.8,11.8,0,0,1,8.5.77c3.92,1.74,7.85,2.22,12,.5C44,73.65,47,73,49.75,72c2.43-.92,5.38-2.26,5.51-4.86.12-2.27-2.8-3.61-4.93-4.46a108.94,108.94,0,0,0-12.4-4.2c-2.9-.79-5.77.4-8.5,1.4-8.42,3.1-14.72-.48-16.32-9.39a3.12,3.12,0,0,0-1.94-2.57c-.59-.25-1.18-.53-1.76-.81C4.11,44.44,2.34,41.18,3,35.32l1.28-.7C5.16,35.56,5.25,36.83,5.7,37.94ZM67.48,68.7a2.6,2.6,0,0,0,3.75,1.07c1.65-.88,1.93-2.32,1.08-3.92s-2.13-1.85-3.81-1C67.11,65.77,66.52,67.07,67.48,68.7ZM30.94,79.36c-2.1-3.83-6.83-5.06-10.94-2.85S14.26,83,16.3,86.89s6.89,5.22,11.14,3A7.74,7.74,0,0,0,30.94,79.36ZM16.59,54A8.39,8.39,0,0,0,28.2,57.53a7.08,7.08,0,0,0,2.89-10,8.76,8.76,0,0,0-11.58-3.47A7,7,0,0,0,16.59,54Z"/></g></svg>