<svg id="Layer_1" data-name="Layer 1" xmlns="http://www.w3.org/2000/svg" viewBox="0 0 128 128"><title>company_icons</title><g id="CrZzXI.tif"><path d="M117.12,73.76c-1-.16-2-.35-3-.49a.73.73,0,0,1-.72-.9c0-.83,0-1.67,0-2.5,0-.51.1-.68.66-.51a17,17,0,0,0,5.67.81,6,6,0,0,0,1.69-.27,1.56,1.56,0,0,0,1.22-1.26,1.58,1.58,0,0,0-.88-1.69,35.38,35.38,0,0,0-3.26-1.48,27.21,27.21,0,0,1-3.13-1.61c-3.32-2-3-7.17,0-8.93a9.94,9.94,0,0,1,4.47-1.38,22.44,22.44,0,0,1,6.16.57.59.59,0,0,1,.56.69c0,.87,0,1.74,0,2.62,0,.39-.09.56-.52.39a14,14,0,0,0-4-.87,7.16,7.16,0,0,0-2.53.26,1.45,1.45,0,0,0-1.18,1.35,1.41,1.41,0,0,0,1,1.38c1.79.94,3.7,1.64,5.46,2.64A6.14,6.14,0,0,1,128,66.47v2.18c-.59,2.62-2.41,4-4.85,4.71-.59.17-1.2.27-1.8.4Z"/><path d="M4.14,73.76c-1-.16-2-.35-3-.49a.73.73,0,0,1-.72-.9c0-.81,0-1.62,0-2.43s0-.75.71-.56a17.37,17.37,0,0,0,5.73.78,4.33,4.33,0,0,0,2-.47A1.47,1.47,0,0,0,9,67.11a20.68,20.68,0,0,0-3.46-1.64A32.86,32.86,0,0,1,2.44,63.9c-3.31-1.91-3.21-7.16,0-9.06a9.78,9.78,0,0,1,4.11-1.28,22.66,22.66,0,0,1,6.41.56.53.53,0,0,1,.52.59c0,.92,0,1.84,0,2.75,0,.46-.18.5-.55.35a13.65,13.65,0,0,0-4.24-.88,6,6,0,0,0-2.45.34,1.39,1.39,0,0,0-1,1.32,1.31,1.31,0,0,0,.86,1.3c1.54.74,3.08,1.46,4.62,2.19a19.62,19.62,0,0,1,2.2,1.31c2.87,1.87,2.73,6.41.28,8.39A8.78,8.78,0,0,1,8.8,73.65c-.19,0-.38.08-.56.11Z"/><path d="M58.23,66.17c.43-1,.81-1.94,1.17-2.85,1.19-2.92,2.38-5.84,3.54-8.78A1,1,0,0,1,64,53.8c1.74,0,3.49,0,5.24,0,.58,0,.79.21.79.79q0,9,0,18c0,.63-.24.8-.83.79-1.17,0-2.35,0-3.52,0-.93,0-.93,0-.93-.91V60.09l-.1,0c-.29.7-.59,1.39-.87,2.09-1.44,3.53-2.9,7.06-4.31,10.6a1.17,1.17,0,0,1-1.37.91,9.62,9.62,0,0,0-1.78,0c-.54,0-.75-.24-.93-.68q-2.4-6-4.83-12a1.14,1.14,0,0,0-.38-.65V72c0,1.61.09,1.37-1.43,1.38-.61,0-1.23,0-1.85,0s-.71-.18-.71-.7c0-1.48,0-2.95,0-4.42V54.73c0-.91,0-.92.94-.92,1.79,0,3.58,0,5.37,0a1,1,0,0,1,1.13.78c1.4,3.62,2.83,7.23,4.25,10.84C58,65.61,58.08,65.8,58.23,66.17Z"/><path d="M105.62,66.53a1.08,1.08,0,0,0,.08-.68c0-3.73,0-7.47,0-11.2,0-.63.18-.88.84-.85s1.57,0,2.36,0c.52,0,.72.17.71.7,0,1.81,0,3.63,0,5.44v12.6c0,.85,0,.85-.86.86-1.54,0-3.07,0-4.61,0a1,1,0,0,1-1.09-.66c-1.92-3.73-3.86-7.46-5.79-11.18-.14-.28-.3-.54-.48-.86a1.18,1.18,0,0,0-.12.77c0,3.67,0,7.33,0,11,0,.91,0,.91-.93.92-.75,0-1.5,0-2.24,0s-.82-.19-.81-.8c0-2.88,0-5.76,0-8.64V54.71c0-.85,0-.9.91-.9,1.54,0,3.07,0,4.61,0a1.19,1.19,0,0,1,1.24.76c1.93,3.82,3.89,7.63,5.85,11.44C105.37,66.18,105.41,66.41,105.62,66.53Z"/><path d="M35.59,73.41c-2.14,0-4.27,0-6.4,0-.56,0-.75-.19-.74-.74q0-9.06,0-18.1c0-.6.23-.78.79-.78q6.27,0,12.54,0c.57,0,.8.21.77.8s0,1.45,0,2.17c0,.57-.23.74-.76.74h-7c-.92,0-.92,0-.92.93v2.37c0,.93,0,.93.91.93,1.94,0,3.88,0,5.82,0,.64,0,.9.19.84.85s0,1.06,0,1.59c0,.91,0,.91-.94.91-1.94,0-3.88,0-5.82,0-.61,0-.84.17-.81.79,0,1,0,2,0,3,0,.63.22.79.81.78,2.43,0,4.86,0,7.29,0,.84,0,.86,0,.86.87s0,1.49,0,2.24c0,.5-.19.67-.68.66Z"/><path d="M74.89,63.62v-9c0-.78.06-.85.83-.85H88.13c.78,0,.84.07.85.83s0,1.32,0,2c0,.83,0,.88-.86.88H81.21c-.93,0-.93,0-.93.92s0,1.71,0,2.56c0,.6.22.77.78.76,2,0,3.93,0,5.89,0,.85,0,.89,0,.9.91,0,.57,0,1.15,0,1.72s-.18.71-.71.71c-2,0-4,0-5.95,0-.9,0-.9,0-.9.94s0,2,0,2.94c0,.53.19.7.71.69,2.48,0,5,0,7.42,0,.66,0,.87.22.83.85s0,1.54,0,2.3c0,.41-.14.63-.59.63H75.46c-.59,0-.57-.37-.57-.77Z"/><path d="M18.07,63.59c0-3,0-6,0-9,0-.66.22-.86.85-.84,1.32,0,2.64,0,4,0,.55,0,.75.2.75.75q0,9.06,0,18.1c0,.54-.15.77-.73.76-1.36,0-2.73,0-4.09,0-.57,0-.74-.2-.73-.75C18.08,69.64,18.07,66.62,18.07,63.59Z"/></g></svg>