<svg id="Layer_1" data-name="Layer 1" xmlns="http://www.w3.org/2000/svg" viewBox="0 0 128 128"><title>skills_128</title><path d="M64.06,104.79c-2.64,0-5.29.2-7.89-.05a8.14,8.14,0,0,1-7-6.5,22.67,22.67,0,0,0-7.46-12.75,33.69,33.69,0,0,1,5.48-54.64c9.31-5.33,19.14-5.9,29.17-2.13a30.63,30.63,0,0,1,8.71,5.1A32.79,32.79,0,0,1,97.65,58.21a32.66,32.66,0,0,1-11.09,27,24.57,24.57,0,0,0-7.81,13.22,8.42,8.42,0,0,1-8.12,6.52c-2.19,0-4.38,0-6.57,0ZM64,99.93h0c2.13,0,4.27,0,6.4,0A3.52,3.52,0,0,0,74,97.08a27.36,27.36,0,0,1,3.46-8.67,29,29,0,0,1,5.53-6.64A28.29,28.29,0,0,0,91,69.93a28.8,28.8,0,0,0-8.49-31.86,25.43,25.43,0,0,0-8.56-5c-8.57-2.94-16.91-2.44-24.64,2.32-10.3,6.33-15,15.8-13.9,27.83C36.1,70.79,39.64,77,45.32,82A27,27,0,0,1,54,96.79a3.6,3.6,0,0,0,3.86,3.14Z"/><path d="M64.09,107.13h9.4a2.49,2.49,0,0,1,2.72,2.49,2.46,2.46,0,0,1-2.73,2.48h-19a2.5,2.5,0,1,1,0-5h9.56Z"/><path d="M64,119.29c-3.21,0-6.43,0-9.64,0a2.44,2.44,0,0,1-2.54-2.4,2.48,2.48,0,0,1,2.71-2.59H64.92c2.91,0,5.82,0,8.73,0a2.47,2.47,0,0,1,2.51,2,2.43,2.43,0,0,1-1.62,2.82,3.71,3.71,0,0,1-1.15.15Z"/><path d="M35.52,29.26c.08,1.2-.65,1.78-1.62,2.24a2.21,2.21,0,0,1-2.64-.61q-4.43-4.35-8.77-8.77a2.43,2.43,0,0,1,.1-3.5,2.45,2.45,0,0,1,3.52.08c1.88,1.85,3.72,3.72,5.58,5.59,1,1,2,2,3.05,3.05A2.15,2.15,0,0,1,35.52,29.26Z"/><path d="M61.5,10.13c0-2,0-3.93,0-5.9a2.5,2.5,0,1,1,5,0q0,6,0,12.05a2.5,2.5,0,1,1-5,0C61.49,14.23,61.5,12.18,61.5,10.13Z"/><path d="M14.06,57.63h6a2.46,2.46,0,0,1,2.73,2.46,2.49,2.49,0,0,1-2.7,2.52q-6,0-12,0a2.51,2.51,0,0,1-2.73-2.23,2.46,2.46,0,0,1,2.45-2.74C9.91,57.62,12,57.63,14.06,57.63Z"/><path d="M113.94,57.63c2,0,4,0,6.07,0a2.43,2.43,0,0,1,2.62,2.49A2.47,2.47,0,0,1,120,62.62q-6.08,0-12.14,0a2.46,2.46,0,0,1-2.59-2,2.49,2.49,0,0,1,1.49-2.78,3.27,3.27,0,0,1,1.13-.19C109.9,57.62,111.92,57.63,113.94,57.63Z"/><path d="M92.28,29.1a6.32,6.32,0,0,1,.88-1.62C96,24.53,99,21.62,101.9,18.71a2.49,2.49,0,1,1,3.57,3.47c-2.92,2.95-5.87,5.87-8.82,8.8a2.32,2.32,0,0,1-2.76.51A2.75,2.75,0,0,1,92.28,29.1Z"/><path d="M64,126.49c-1.28,0-2.55,0-3.83,0A2.45,2.45,0,0,1,57.62,124a2.41,2.41,0,0,1,2.53-2.5q3.84,0,7.66,0a2.44,2.44,0,0,1,2.6,2.53,2.49,2.49,0,0,1-2.64,2.41h-.5Q65.65,126.51,64,126.49Z"/><path d="M89.16,59.18V60a2.5,2.5,0,0,1-2.44,2.61,2.55,2.55,0,0,1-2.55-2.53,30.19,30.19,0,0,0-.33-3.56A19.76,19.76,0,0,0,73.59,42.36c-1.49-.83-2-2.07-1.44-3.42a2.45,2.45,0,0,1,3.36-1.21A25,25,0,0,1,87.3,50.53,25.32,25.32,0,0,1,89.16,59.18Z"/><path d="M63.94,35a2.46,2.46,0,1,1,.12,4.92A2.46,2.46,0,1,1,63.94,35Z"/></svg>
