<svg id="b0ecdcc2-59d2-43b8-8827-d4facca2042f" data-name="Layer 1" xmlns="http://www.w3.org/2000/svg" viewBox="0 0 128 128"><title>skill_box</title><path d="M120.9,121.41H90.41a4.55,4.55,0,0,1-4.54-4.54V20a4.55,4.55,0,0,1,4.54-4.54H120.9A4.55,4.55,0,0,1,125.44,20v96.88A4.55,4.55,0,0,1,120.9,121.41Zm-30.49-102a.55.55,0,0,0-.54.54v96.88a.55.55,0,0,0,.54.54H120.9a.55.55,0,0,0,.54-.54V20a.55.55,0,0,0-.54-.54Z"/><path d="M115.84,49.93H95.76v-24h20.08Zm-18.08-2h16.08v-20H97.76Z"/><path d="M67.25,121.41H52.18a4.55,4.55,0,0,1-4.54-4.54V41.33a4.55,4.55,0,0,1,4.54-4.54H67.25a4.54,4.54,0,0,1,4.54,4.54v75.54A4.54,4.54,0,0,1,67.25,121.41ZM52.18,40.79a.55.55,0,0,0-.54.54v75.54a.55.55,0,0,0,.54.54H67.25a.54.54,0,0,0,.54-.54V41.33a.54.54,0,0,0-.54-.54Z"/><rect x="54.57" y="87.4" width="2" height="26.08"/><path d="M13.38,121.55a4.45,4.45,0,0,1-1.68-.33L5.41,118.7a4.56,4.56,0,0,1-2.52-5.91L39,22.9a4.56,4.56,0,0,1,5.91-2.52l6.29,2.53a4.54,4.54,0,0,1,2.52,5.9h0L17.6,118.7a4.56,4.56,0,0,1-4.22,2.85Zm29.84-97.5a.56.56,0,0,0-.51.34L6.6,114.28a.54.54,0,0,0,.3.7l6.29,2.53a.55.55,0,0,0,.7-.3L50,27.32a.54.54,0,0,0-.3-.7l-6.28-2.53A.71.71,0,0,0,43.22,24.05Z"/><path d="M85,121.41H72.33a4.55,4.55,0,0,1-4.54-4.54V11a4.55,4.55,0,0,1,4.54-4.54H85A4.55,4.55,0,0,1,89.58,11V116.87A4.55,4.55,0,0,1,85,121.41Zm-12.71-111a.55.55,0,0,0-.54.54V116.87a.55.55,0,0,0,.54.54H85a.55.55,0,0,0,.54-.54V11a.55.55,0,0,0-.54-.54Z"/></svg>