<?xml version="1.0" encoding="utf-8"?>
<!-- Generator: Adobe Illustrator 22.0.0, SVG Export Plug-In . SVG Version: 6.00 Build 0)  -->
<svg version="1.1" id="Layer_1" xmlns="http://www.w3.org/2000/svg" xmlns:xlink="http://www.w3.org/1999/xlink" x="0px" y="0px"
	 viewBox="0 0 512 512" style="enable-background:new 0 0 512 512;" xml:space="preserve">
<g>
	<path d="M345.5,149.3c-1.7,5-3.5,10-5.2,15c-11,33.9-24.4,66.9-39.1,99.3c-8.5,18.7-16.6,37.6-24.8,56.5c-1.1,2.6-2.6,4.4-5.2,5.8
		c-17.6,9.7-35.5,18.9-53.9,26.9c-1,0.4-2,0.7-2.9,1.2c-1.7,0.9-2.3,0.6-2.3-1.4c-0.3-9.4-0.8-18.9-1.2-28.3c-1-23.6-2-47.2-3-70.8
		c-0.6-14.8-1.2-29.6-1.8-44.3c-1.1-25.1-2.2-50.1-3.2-75.2c-0.5-12.3-1-24.7-1.6-37c-0.1-1.9,0.4-2.3,2.1-2.3
		c13.4,0.1,26.9,0.1,40.3,0c1.9,0,2.4,0.6,2.4,2.5c0.2,12.9,0.4,25.9,0.7,38.8c0.5,29.6,0.8,59.2,1.5,88.7c0.4,17,0.2,34.1,0.2,51.1
		c0,8.7-0.4,17.3-0.6,26c0,0.9-0.3,1.9,0.6,3c1.8-5.1,3.6-10,5.3-14.9c14.3-41.1,31.6-80.9,48.4-120.9c10-24,20.1-47.9,30.1-71.9
		c0.7-1.7,1.5-2.5,3.5-2.5c14.5,0.1,29,0.1,43.5,0c2,0,2.6,0.6,2.6,2.6c0.2,23.3,0.5,46.5,0.8,69.8c0.3,21.4,0.5,42.8,1,64.2
		c0.4,20.3-0.1,40.7-0.5,61c-0.1,3.8-0.6,7.6,0.1,11.6c1.1-3.2,2.3-6.5,3.3-9.7c16.5-51.3,37.8-100.6,58.3-150.2
		c6.4-15.5,12.8-31,19.1-46.6c0.8-2,1.9-2.7,4-2.7c13.4,0.1,26.9,0,40.3,0c0.8,0,1.7,0,2.6,0c0.2,1.3-0.4,2.1-0.7,2.9
		C485.8,151.7,461.4,205.8,437,260c-14,31-28,62-41.9,93c-0.8,1.8-1.6,2.5-3.6,2.4c-10-0.1-20-0.2-30-0.1c-1.9,0-2.6-0.7-3.2-2.4
		c-2.7-8.4-1.4-16.5,1-24.6c1.9-6.2,4.9-12.1,6.3-18.5c1.9-8.4-2.2-13.8-10.6-14c-2-0.1-4,0-6,0.3c-1.7,0.3-2.1-0.3-2.2-1.9
		c-0.3-9.5-0.7-19.1-1-28.6c-0.6-20.1-1.6-40.3-1.5-60.4c0.1-18.1,0.9-36.2,1.7-54.3c0-0.5,0-0.9,0-1.4
		C345.9,149.4,345.7,149.4,345.5,149.3z"/>
	<path d="M64.8,359c-16.8-0.4-37.3-3.5-56.4-13.2c-8.2-4.2-8.2-4.2-4.7-12.7c3.8-9.1,7.5-18.3,11.2-27.5c0.7-1.7,1.2-1.9,2.8-0.9
		c16.4,9.9,34.2,15,53.3,15.4c10.7,0.2,20.8-1.6,30.3-6.8c21-11.4,26.4-40.5,6.1-58.2c-7.2-6.3-15.3-11.3-23.6-15.9
		c-10.6-5.9-20.6-12.5-29.5-20.9c-19.8-18.5-25.7-41-18.9-67.1c6.4-24.6,22.5-40.8,44.8-51c18.5-8.5,38.1-10.6,58.1-9.1
		c13.3,1,26.2,3.6,38.5,9.2c6.9,3.1,6.9,3.1,4.2,10.3c-3.6,9.4-7.3,18.8-10.9,28.2c-0.7,2-1.5,2.3-3.3,1.3
		c-15.7-8.1-32.3-11.6-49.8-10.2c-8.5,0.7-16.5,3.1-23.6,8c-17.7,12.2-19.1,34.6-3.3,49.1c8.9,8.1,19.2,14.1,29.5,19.9
		c11.3,6.3,22,13.7,30.7,23.6c13.2,14.9,18.1,32.7,16.1,52.4c-3.5,35.5-23.6,57.5-55.5,69.4C98.5,356.8,84.1,359,64.8,359z"/>
	<path d="M0.7,418.9c3.1-0.4,6.2-0.9,9.4-1.2c17.1-1.7,34-4.7,50.8-8.1c20.7-4.1,41.2-8.7,61.6-14c38.1-9.9,75.4-22.2,111.2-38.8
		c19.9-9.2,39-20,58.3-30.4c15.2-8.2,30.8-15.5,47.9-18.5c4.2-0.7,8.5-1.3,12.7-1.8c3.3-0.4,3.7,0.1,2.6,3.2
		c-1.8,5.3-4,10.5-5.6,15.9c-7.3,24.3-0.6,42.8,20.4,56.9c12.8,8.6,27,13.8,41.7,17.8c19.1,5.1,38.2,9.9,57.6,13.6
		c13.3,2.6,26.7,4.7,40.2,5.5c0.7,0,1.8-0.2,1.8,0.9s-1,0.9-1.7,1c-8.7,0.6-17.3,0.3-26,0c-16.4-0.7-32.7-2-49-3.9
		c-19.4-2.3-38.1-7.4-56.4-14.3c-8.8-3.3-17.6-6.6-25.2-12.2c-7.1-5.2-13.8-10.7-17.9-18.9c-2.3-4.5-3.4-9.5-4.7-14.4
		c-2.4-9.4-7.7-12.7-17.1-10.4c-14.3,3.4-27.7,9.2-40.8,15.9c-21.1,10.8-43.3,18.6-65.9,25.5c-28.2,8.5-56.9,14.8-85.8,19.7
		c-18.9,3.2-37.9,5.7-56.9,7.7C44,417.7,24,419.3,4,419.8c-1.1,0-2.1,0-3.2,0C0.7,419.5,0.7,419.2,0.7,418.9z"/>
</g>
</svg>
