<svg id="Layer_1" data-name="Layer 1" xmlns="http://www.w3.org/2000/svg" viewBox="0 0 128 128"><title>social_icons</title><g id="_8X77Xg.tif" data-name="8X77Xg.tif"><path d="M54.08,19H74.36a5,5,0,0,0,.54.06c3.72,0,7.43.15,11.14.23,2,0,4,.12,6,.21,4.14.21,8.28.4,12.4.76a72.41,72.41,0,0,1,8.81,1.12c6.77,1.44,11.11,5.5,12.94,12.19a39.65,39.65,0,0,1,1,5.19,57.89,57.89,0,0,1,.76,7.89V77.67a68.32,68.32,0,0,1-1.83,17,15.78,15.78,0,0,1-12,11.81,50,50,0,0,1-7.5,1.07c-4,.39-8,.62-12,.8-3.72.17-7.45.29-11.18.39q-5.19.15-10.38.2c-8.1.07-16.21.08-24.32-.15-3.39-.09-6.78-.17-10.17-.3-4.29-.17-8.58-.37-12.86-.7a94.3,94.3,0,0,1-10.2-1.22,16.11,16.11,0,0,1-9.18-5.08A17.12,17.12,0,0,1,2.2,93.08,100.88,100.88,0,0,1,.7,81.46C.39,77.54.17,73.63.1,69.7A4.1,4.1,0,0,0,0,69.21V58.72a32.86,32.86,0,0,0,.14-3.44c.18-4.37.45-8.73.92-13.08a53.2,53.2,0,0,1,1.53-9,16,16,0,0,1,12-11.72,57.16,57.16,0,0,1,9.83-1.29q4.77-.37,9.56-.58c4.37-.2,8.74-.36,13.11-.44L53.59,19A3.86,3.86,0,0,0,54.08,19ZM51.6,64V82.17c0,.18,0,.37,0,.55s.13.32.36.2l.34-.2L79.09,67.31l5.28-3c.53-.31.53-.31,0-.62l-.09,0L64,51.94,52.17,45.12c-.5-.29-.56-.26-.57.3V64Z"/></g></svg>