<?xml version="1.0" encoding="utf-8"?>
<!-- Generator: Adobe Illustrator 22.0.0, SVG Export Plug-In . SVG Version: 6.00 Build 0)  -->
<svg version="1.1" id="Layer_1" xmlns="http://www.w3.org/2000/svg" xmlns:xlink="http://www.w3.org/1999/xlink" x="0px" y="0px"
	 viewBox="0 0 100 100" style="enable-background:new 0 0 100 100;" xml:space="preserve">
<style type="text/css">
	.st0{fill:#FA2200;}
</style>
<g id="w3Id8a.tif">
	<g>
		<path class="st0" d="M100,63.8c0,5.1,0,10.1,0,15.2c0,1-0.3,1.5-1.4,1.4c-1-0.1-2.1-0.1-3.1,0s-1.4-0.3-1.4-1.3
			c0.1-2.8,0-5.6,0-8.4c0-7.2,0-14.4,0-21.7c0-2.1-1-3.1-3.1-3.1c-0.8,0-1.7,0-2.5,0c-0.8-0.1-1.1,0.3-1,1.1c0.1,1.8,0,3.5-0.5,5.2
			c-1.6,5.1-6,8.6-11.5,8.9c-3,0.1-6,0.3-8.9-0.3c-1.1-0.2-2.1-0.6-3-1.1c-1.7-0.9-3.5-1.3-5.4-1.3c-5.5,0-10.9,0-16.4,0
			c-1.7,0-3.4,0.4-4.9,1.2c-2.2,1.1-4.4,1.6-6.9,1.6c-2.1,0-4.2,0.1-6.4-0.1c-6.1-0.7-10.9-6-10.9-12.1c0-0.1,0-0.1,0-0.2
			c0-2.8,0-2.8-2.7-2.8c-0.3,0-0.6,0-0.9,0c-2,0-3,1-3,3c0,4.8,0,9.6,0,14.3c0,5.2,0,10.5,0,15.7c0,1.4,0,1.4-1.5,1.4
			c-1,0-1.9,0-2.9,0c-1.5,0-1.5,0-1.5-1.5c0-4.5,0-9.1,0-13.6c0-5.3,0-10.6,0-16c0-5.6,3.6-9.2,9.2-9.2c1,0,2.3,0.4,3-0.2
			c0.8-0.7,0.3-2,0.3-3c0.2-6.3,5.7-11.8,12.1-11.9c1.9,0,3.9,0,5.8,0c2.1-0.1,4.1,0.5,6,1.4c1.6,0.8,3.3,1.3,5.2,1.3
			c5.4,0,10.8,0,16.2,0c2.1,0,4-0.4,5.8-1.4c1.7-0.9,3.6-1.4,5.6-1.3c2.7,0.1,5.4-0.3,8.1,0.2c5.6,1.1,9.9,6.2,10,11.9
			c0,3,0,3,3,2.9s5.5,0.8,7.5,3.1c1.4,1.6,2,3.6,2,5.7C100,53.9,100,58.8,100,63.8z M64,43c0,2.2,0,4.5,0,6.7c0,0.4-0.1,0.9,0.3,1
			c1.8,0.6,3.3,1.8,5.2,1.9c1.8,0.1,3.5,0.1,5.3,0c2.3-0.1,4.1-1.7,4.1-3.8C79,45,79,41.1,79,37.2c0-1.9-1.7-3.6-3.5-3.6
			c-3.5-0.1-7-0.6-10.2,1.4c-0.1,0.1-0.2,0.1-0.3,0.1c-0.7,0.1-1,0.6-1,1.3C64,38.6,64,40.8,64,43z M31,43.1L31,43.1
			c0,2.8,0,5.5,0,8.3c0,1.2,0.2,1.3,1.3,0.9c1.1-0.5,2.2-1,3.4-1.4c0.4-0.2,0.6-0.5,0.6-0.9c0-4.6,0-9.2,0-13.8
			c0-0.4-0.1-0.7-0.6-0.9c-1.2-0.5-2.3-1-3.5-1.4c-1-0.4-1.2-0.3-1.2,0.8C31,37.5,31,40.3,31,43.1z M47.3,43.1L47.3,43.1
			c0-1.9,0-3.8,0-5.7c0-0.7-0.2-1.1-1-1.1c-1.1,0-2.2,0-3.3,0c-0.7,0-1,0.3-1,1c0,3.9,0,7.8,0,11.6c0,0.7,0.3,0.9,1,0.9
			c1.1,0,2.2,0,3.2,0c0.8,0,1.1-0.2,1.1-1C47.2,46.9,47.3,45,47.3,43.1z M53,43.1c0,1.9,0,3.8,0,5.7c0,0.8,0.3,1.1,1.1,1
			c1.1,0,2.2,0,3.3,0c0.7,0,0.9-0.3,0.9-0.9c0-3.9,0-7.8,0-11.7c0-0.6-0.3-0.9-0.9-0.9c-1.1,0-2.2,0-3.3,0c-0.8,0-1.1,0.3-1,1.1
			C53,39.3,53,41.2,53,43.1z M25.1,43.2c0-2.8,0-5.7,0-8.5c0-1.1-0.3-1.2-1.2-0.8c-1.5,0.6-2.5,1.8-2.6,3.4c-0.1,3.9,0,7.8,0,11.6
			c0,1.6,1.2,3.1,2.7,3.5c0.8,0.2,1.1,0.1,1.1-0.8C25.1,48.8,25.1,46,25.1,43.2z"/>
	</g>
</g>
</svg>
