<?xml version="1.0" encoding="utf-8"?>
<!-- Generator: Adobe Illustrator 17.1.0, SVG Export Plug-In . SVG Version: 6.00 Build 0)  -->
<!DOCTYPE svg PUBLIC "-//W3C//DTD SVG 1.1//EN" "http://www.w3.org/Graphics/SVG/1.1/DTD/svg11.dtd">
<svg version="1.1" id="Layer_1" xmlns="http://www.w3.org/2000/svg" xmlns:xlink="http://www.w3.org/1999/xlink" x="0px" y="0px"
	 viewBox="0 0 512 512" enable-background="new 0 0 512 512" xml:space="preserve">
<path fill="#1CD359" d="M269.7,509.2c-35,0-70.1-0.3-105.1,0.1c-12,0.1-16.8-3.8-16.7-16.5c0.6-45,0-90,0.4-135
	c0.1-8.3-2.3-14-8.3-19.7C118.3,317.1,97,295.5,75.7,274C50,248,49.9,215.7,75.3,189.7c12.3-12.5,24.1-25.5,37.3-37
	c10.1-8.8,13.8-19.3,15.8-31.8c4.1-26.6,9.1-53.1,13.9-79.6c3.4-18.5,14.6-30.9,32.1-36.3c17.4-5.4,34.1-2.1,47.1,11.5
	c5.4,5.6,8.1,5.7,14.2,0.7c24.7-20,58.1-14.3,74.8,12.7c4.5,7.4,7.3,7.8,14.9,4.4c23.6-10.5,48.3-1.7,60.2,21.5
	c3.8,7.4,6.7,7.3,13.6,5.2c30.3-9.3,59.7,12.8,56.1,44.2c-4,35.1-8.7,70.3-19.9,104.1c-1.3,3.9-0.9,7.2-0.3,10.9
	c8.7,49-4.1,91.8-38.4,127.8c-4.9,5.2-5.3,10.6-5.3,16.8c0.1,42.1-0.4,84.3,0.3,126.4c0.2,13.8-4.9,18.3-18.3,18
	C338.9,508.7,304.3,509.2,269.7,509.2z M269.2,490.1c30.3,0,60.7-0.4,91,0.2c9.8,0.2,12.8-2.3,12.7-12.4c-0.6-39.3,0.1-78.7-0.5-118
	c-0.1-10.3,2.9-17.6,10.2-24.9c26.6-26.6,38.1-59.2,35.7-96.6c-0.3-4.5,1.6-11.4-8-8.6c-19.9,5.8-36.3-0.1-48.8-16.6
	c-2.2-2.9-3.4-4-7.7-2c-30.7,13.6-41.6,11.7-64.4-10.7c-2.7-2.6-4.1-4.8-7.6-1.5c-4.3,4,0.2,5.7,2,7.7c4.2,4.5,8.8,8.6,13,13.1
	c20.4,21.4,19.4,37.9-4.4,55.4c-6.2,4.6-6.6,8.3-4.9,15c7,28.2,3.6,55.4-9.7,81.3c-3,5.8-6.2,13.1-14.7,9.2c-9.3-4.2-6-11-2.4-17.8
	c11.4-21.4,13.7-44.1,8.5-67.5c-0.9-4-0.5-9.3-7.7-9.8c-39.4-2.6-66.7-29.1-96.5-50.3c-3.6-2.6-5.8-6.3-3.7-11.1
	c1.6-3.8,4.5-6.3,8.6-6.4c4.6-0.2,7.7,3.2,11.1,5.7c19.4,14.3,38.3,29.5,60.8,38.8c12.6,5.2,25.6,6.6,38-1.4
	c14.4-9.3,15.3-15.4,3.1-27.7c-28-28.3-56.1-56.4-84.5-84.3c-17.1-16.8-38-16.6-55.3,0.3c-18,17.5-35.6,35.4-53.3,53.3
	c-18.8,19.1-18.9,39.4-0.2,58.3c22.7,22.9,45.5,45.7,68.7,68c6.7,6.5,9.3,13.2,9.2,22.5c-0.4,42.6,0.1,85.3-0.4,127.9
	c-0.1,8.6,2,11.4,11,11.2C208.5,489.8,238.9,490.1,269.2,490.1z M299.1,59.9c-0.3-20.2-12.3-33.5-28.7-35.3
	c-15-1.6-30.1,9-33.5,24.5c-3,13.8-5.1,27.8-7.5,41.8c-2.9,17.2-11.5,36.2-6.9,51c4.6,14.9,22.5,25.6,34.5,38.2c0.3,0.3,0.7,0.6,1,1
	c5.7,8,10.5,5.2,15.5-0.9c7.1-8.6,7.5-19.1,9.3-29.3C288.4,119.4,294.1,87.9,299.1,59.9z M344.6,49.5c-14.7-0.3-25.5,8.6-28.4,24.2
	c-5.7,30.6-11.1,61.2-16.5,91.9c-2.9,16.7,6.6,31.3,21.9,34.4c15.3,3.1,30.1-6.5,33.3-23.2c6.1-31.9,11.8-64,16.8-96.1
	C374.4,64.2,361.1,49.9,344.6,49.5z M373.1,183.7c-0.6,15.8,7,26,19.1,28.4c13.1,2.5,26-4.2,28.5-17c6-30.1,11.2-60.3,15.8-90.6
	c1.9-12.8-7-23.6-18.9-26.1c-12.7-2.6-25.5,4.1-28.3,17.4C383,125.8,378.1,156,373.1,183.7z M147.3,121.6c18.8-5.6,35.3-6,51,2.9
	c4.3,2.4,5.8,0.9,6.5-3.4c3.9-23.2,8.6-46.4,11.5-69.8c1.8-14.5-8.9-26.6-23.2-29.3c-13-2.5-27.6,5.4-30.7,19.1
	C156.6,67.3,152.5,93.7,147.3,121.6z"/>
</svg>
