<?xml version="1.0" encoding="utf-8"?>
<!-- Generator: Adobe Illustrator 17.1.0, SVG Export Plug-In . SVG Version: 6.00 Build 0)  -->
<!DOCTYPE svg PUBLIC "-//W3C//DTD SVG 1.1//EN" "http://www.w3.org/Graphics/SVG/1.1/DTD/svg11.dtd">
<svg version="1.1" id="Layer_1" xmlns="http://www.w3.org/2000/svg" xmlns:xlink="http://www.w3.org/1999/xlink" x="0px" y="0px"
	 viewBox="0 0 512 512" enable-background="new 0 0 512 512" xml:space="preserve">
<g>
	<path fill="#007DC5" d="M256.7,125.3c48.8,0,97.6,0.1,146.4-0.1c4.4,0,5.6,1,5.2,5.5c-3.1,33-5.9,66-8.8,99
		c-2.5,28.4-4.9,56.7-7.4,85.1c-2.9,32.7-5.8,65.3-8.6,98c-0.5,6.1-1.2,12.3-1.4,18.4c-0.1,3.1-1.2,4.7-4.3,5.6
		c-39,11.1-78,22.3-117,33.5c-2.4,0.7-4.5,0.4-6.8-0.2C214.4,459.1,174.7,448,135,437c-3.2-0.9-4.5-2.2-4.8-5.7
		c-3.8-48.1-7.8-96.3-11.8-144.4c-3.2-38.7-6.2-77.3-9.4-116c-1.1-13.4-2.1-26.9-3.5-40.3c-0.5-4.2,0.3-5.4,4.7-5.4
		C159.1,125.4,207.9,125.3,256.7,125.3z"/>
	<path fill="#008ED4" d="M258.2,191.1c0-10.5,0.1-21-0.1-31.5c-0.1-3.4,0.9-4.6,4.5-4.6c38.3,0.1,76.6,0.1,115,0
		c3.9,0,5,1.3,4.7,4.9c-1,10-1.9,20.1-2.8,30.1c-0.8,8.7-1.4,17.5-2.2,26.2c-1.2,14-2.8,28-3.8,42c-0.6,8.6-1.4,17.2-2.2,25.7
		c-1.2,14.2-2.5,28.3-3.8,42.5c-0.8,9.2-1.5,18.5-2.3,27.7c-1.2,13.7-2.5,27.3-3.8,41c-0.4,4.3-0.2,8.6-0.9,12.9
		c-0.5,3.2-1.9,4.2-4.4,4.9c-13.7,4-27.4,8-41.1,12c-16.7,4.8-33.5,9.6-50.2,14.4c-6.6,1.9-6.5,2-6.5-4.6c0-9.8,0-19.7,0-29.5
		c0.5-1.2,1.4-1.8,2.5-2.3c20.1-6.7,40.4-12.5,60.5-19c11.9-3.9,11.4-1,12.7-15.8c1.8-20.9,3.6-41.8,5.5-62.6
		c1.1-11.6,2-23.2,3-34.8c0.2-2.8-0.8-4.1-3.6-4.1c-1.5,0-3-0.1-4.5-0.1c-21.2,0-42.3,0-63.5,0c-2.4,0-6,0.8-6.5-2
		c-0.5-2.7,3.2-3.3,5.5-4.2c24-9.8,48-19.8,72.1-29.5c7.8-3.1,7.8-3.2,7.8-11.7c0-6.7,0-13.3,0-20c0-2,0.3-4-1.2-5.7
		c-1.9-1.5-4.2-0.9-6.3-0.9c-25.6,0-51.2,0-76.9,0C262.9,192.4,260.3,193,258.2,191.1z"/>
	<path fill="#EBECEC" d="M171.3,303c-1.4-10.4-2.6-20.8-4.4-31.1c-0.6-3.5,0.5-4.6,3.4-5.8c26.1-11.2,52.2-22.6,78.3-33.9
		c1.7-0.7,3.3-1.5,5.6-2.5c-2-1.1-3.8-0.7-5.4-0.7c-26.5,0-53-0.1-79.4,0.1c-3.5,0-4.8-0.7-5.2-4.5c-1-10.1-2.6-20.1-4-30.2
		c-0.1-0.8-0.6-1.6,0.3-2.3c1.4-0.9,2.9-0.5,4.4-0.5c29.3,0,58.6,0,87.9,0c5.6,0,6,0.3,6,5.9c0.1,33.5,0,66.9,0,100.4
		c0,1.8,0.1,3.7-1.1,5.3c-1.1,0.7-2.3,0.4-3.4,0.4c-26.5,0-53,0-79.5,0C173.5,303.5,172.3,303.8,171.3,303z"/>
	<path fill="#EBECEC" d="M255.1,404.1c-22.6-6.2-45.2-12.3-67.8-18.5c-9.5-2.6-9.3-2.7-10.1-12.4c-1.1-14.8-2.4-29.5-3.9-44.2
		c-0.4-4.1,0.4-5.5,4.8-5.3c9.3,0.4,18.6,0.3,28,0c3.4-0.1,4.7,1,5,4.4c0.5,6.8,1.5,13.5,2.1,20.3c0.3,2.8,1.1,4.3,4.3,4.9
		c12.9,2.4,25.7,5.1,38.6,7.8c1,0.3,1.7,0.9,2.1,1.9c0.9,12.6,0.3,25.1,0.3,37.7C258.5,402.7,258.3,405.1,255.1,404.1z"/>
	<path fill="#008CC3" d="M257.2,362c-0.4-0.3-0.7-0.6-1.1-0.9c1.6-1.2,1.1-3,1.1-4.6c0-15.8-0.1-31.6,0.1-47.4c0-3.9-1-5.1-5-5.1
		c-25.1,0.2-50.3,0.1-75.4,0c-1.9,0-4,0.8-5.6-1c11.8,0.1,23.5,0.3,35.3,0.3c16.9,0,33.8-0.1,50.7-0.2c0.5-0.4,1-0.7,1.5-1
		c13.6-1.1,27.2-0.5,40.9-0.3c4.1,0,5.3,2,5,6.9c-0.6,7.3-1.4,14.6-2.1,21.8c-0.6,6-1.2,11.9-1.8,17.9c-0.5,5.6-1.9,7.4-7.4,8.4
		c-11.4,2.1-22.8,4.9-34.4,6.1C258.3,362.7,257.7,362.4,257.2,362z"/>
	<path fill="#D0E2EC" d="M258.2,303.1c-0.3,0-0.7,0-1,0c0-35.2-0.1-70.3,0.1-105.5c0-4.4-1.1-5.6-5.5-5.6c-30.5,0.2-61,0.1-91.5,0.1
		c1.6-1.4,3.5-0.7,5.3-0.7c29.1,0,58.1,0,87.2,0c1.8,0,3.6-0.2,5.5-0.2c29.2,0.1,58.4,0.1,87.6,0.2c1.7,0,3.6-0.8,5.2,0.8
		c-2.4,2.1-5.3,1.5-8.1,1.5c-25,0.1-49.9,0-74.9,0c-8.1,0-8.1,0-8.1,7.9c0,31,0,61.9,0,92.9C259.8,297.4,260.4,300.5,258.2,303.1z"
		/>
	<path fill="#C3DDEB" d="M257.2,362c0.3,0,0.7,0,1,0c2.1,2.2,1.5,4.9,1.5,7.5c0.3,11.5-0.6,23.1,0.6,34.6c-0.7,0.4-1.5,0.7-2.2,1.1
		c-1.1-0.3-2.3-0.2-3.1-1.1c3-0.6,2.1-3,2.1-4.8C257.3,386.9,257.2,374.5,257.2,362z"/>
	<path fill="#FEFEFE" d="M260.4,404.2c-3-0.5-2.1-2.9-2.1-4.8c-0.1-12.4,0-24.9,0-37.3c12.1-2.3,24.1-4.8,36.2-7
		c2.9-0.5,4.4-1.5,4.6-4.6c1.3-14.2,2.7-28.5,4.2-42.7c0.4-3.4-0.5-4.6-4.1-4.6c-13.6,0.1-27.3-0.1-40.9-0.2
		c0-35,0.1-69.9-0.1-104.9c0-4.7,1-6.2,6-6.2c29,0.2,57.9,0.1,86.9,0.1c0.1,11.3,0.1,22.6,0.4,34c0.1,3.1-2.3,3.3-4.1,4
		c-25.8,10.6-51.7,21.2-77.5,31.8c-1.5,0.6-3,1.3-4.4,2.8c1.5,0,3.1,0,4.6,0c23.3,0,46.7,0.1,70-0.1c3.5,0,4.6,0.8,4.2,4.4
		c-3.3,36.2-6.5,72.3-9.7,108.5c-0.2,2.2-0.1,3.9-3,4.8C307.7,389.5,284.1,396.9,260.4,404.2z"/>
</g>
<text transform="matrix(1.15 0 0 1 175.1464 108.259)" font-family="'Phosphate-Solid'" font-size="81" letter-spacing="5.2">CSS</text>
</svg>
