<?xml version="1.0" encoding="utf-8"?>
<!-- Generator: Adobe Illustrator 17.1.0, SVG Export Plug-In . SVG Version: 6.00 Build 0)  -->
<!DOCTYPE svg PUBLIC "-//W3C//DTD SVG 1.1//EN" "http://www.w3.org/Graphics/SVG/1.1/DTD/svg11.dtd">
<svg version="1.1" id="Layer_1" xmlns="http://www.w3.org/2000/svg" xmlns:xlink="http://www.w3.org/1999/xlink" x="0px" y="0px"
	 viewBox="0 0 512 512" enable-background="new 0 0 512 512" xml:space="preserve">
<g>
	<g>
		<path fill="#F05931" d="M408.5,126.8c-1.8,20.6-3.5,41.1-5.3,61.7c-2.1,24.2-4.4,48.4-6.6,72.6c-2.9,32.3-5.8,64.7-8.7,97
			c-2.2,24.4-4.4,48.7-6.3,73.1c-0.3,4.4-1.6,6.5-6.2,7.7c-37.9,10.3-75.6,20.8-113.4,31.4c-4,1.1-7.6,1.2-11.7,0.1
			c-38.1-10.7-76.2-21.3-114.4-31.8c-3.1-0.8-4.6-2-4.9-5.5c-2-24.4-4.3-48.7-6.5-73.1c-2.9-32.2-5.8-64.3-8.7-96.5
			c-2.5-27.9-4.9-55.7-7.4-83.6c-1.3-14.4-2.6-28.8-3.9-43.3c-0.1-0.8,0-1.7-1.1-2c0-1,0-2,0-3c-0.1-4.6,2.1-5.6,6.7-5.6
			c97.6,0.2,195.3,0.1,292.9,0.2C404.9,126.2,406.8,125.7,408.5,126.8z"/>
		<path fill="#F37933" d="M256.6,189.5c0-11.2,0.1-22.3-0.1-33.5c0-3.2,0.8-4.4,4.2-4.4c38.6,0.1,77.3,0.1,115.9,0
			c3.1,0,4.2,1.1,4,4.1c-0.8,8.7-1.5,17.5-2.3,26.2c-0.9,9.4-1.9,18.7-2.7,28.1c-1.3,14-2.6,28-3.9,42c-0.8,8.9-1.4,17.8-2.2,26.7
			c-1.2,13.3-2.6,26.7-3.8,40c-0.8,8.6-1.4,17.2-2.2,25.7c-1.3,13.8-2.6,27.7-3.8,41.5c-0.8,9.1-1.6,18.1-2.1,27.2
			c-0.1,2.9-0.8,4.5-3.8,5.3c-30.9,8.4-61.7,16.8-92.5,25.5c-4.2,1.2-4.9-0.1-4.9-3.8c0.1-9.5,0.1-19,0-28.5c0-2,0.3-4-1-5.8
			c0.8-1.4,2.2-1.8,3.5-2.3c22.5-6.5,45.2-12.6,67.8-18.9c4.3-1.2,6.4-3.3,6.8-7.8c1-13.2,2.3-26.5,3.5-39.7
			c1.6-17.2,3.1-34.4,4.5-51.6c0.4-5.5,2.6-11,0.2-16.6c-1.9-1.5-4.2-1-6.3-1c-24,0-47.9,0-71.9,0c-2.5,0-5,0.5-7.3-1.1
			c-1.7-2.1-1.4-4.7-1.4-7.2c-0.1-7.8,0-15.6,0-23.4c0-5.8-0.4-6.1-6.3-6.1c-13-0.1-25.9,0-38.9,0c-2.5,0-5,0.4-7.2-1.4
			c0.6-3.4,3.5-2.6,5.5-2.7c15.6-0.1,31.2-0.3,46.8,0c0.6,0,1.3,0,1.9,0c26.6-0.2,53.3,0,79.9-0.1c1.8,0,3.7-0.1,5.5,0
			c3,0,4.5-1.2,4.9-4.3c1.2-8.9,1.6-17.9,2.4-26.8c0.2-2.3-1-3.3-3.2-3.5c-1.8-0.2-3.7-0.1-5.5-0.1c-25,0-50,0-74.9,0
			c-2.7,0-5.3,0.3-7.9-0.6C257.4,190.4,256.9,190,256.6,189.5z"/>
		<path fill="#EBECEC" d="M255.5,227.6c-15.9,0.1-31.8,0.1-47.8,0.2c-1.7,0-3.6-0.9-5.1,0.8c2.1,4.1,1.8,8.7,2.3,13.1
			c0.7,6.2,0.9,12.5,1.7,18.8c0.2,1.6,0.3,3.3,1.5,4.6c1.7,1.5,3.8,1.1,5.7,1.1c12,0,24-0.1,36,0c6,0,7,1,7.1,7
			c0.1,8.7,0.1,17.3,0,26c0,2,0.3,4.1-1.4,5.6c-27.1,0.1-54.3,0.1-81.4,0.2c-2.5,0-3.4-0.7-3.6-3.4c-2.6-30.2-5.3-60.3-8-90.5
			c-0.5-5.8-1.1-11.6-1.8-17.4c-0.3-2.7-0.1-4.2,3.4-4.2c30.5,0.2,61,0.2,91.4,0.2c1.3,1.3,1.4,3,1.4,4.6c0.1,9.5,0.1,19,0,28.5
			C256.9,224.7,256.8,226.3,255.5,227.6z"/>
		<path fill="#EBECEC" d="M253.3,404.8c-17.9-4.9-35.9-9.8-53.8-14.7c-6.2-1.7-12.4-3.6-18.7-5.2c-2-0.5-3.1-1.3-3.3-3.6
			c-1.5-17.9-3.2-35.8-4.9-53.6c-0.3-2.9,0.6-3.8,3.5-3.7c10.1,0.1,20.3,0.2,30.4,0c3.6-0.1,4.6,1.4,4.8,4.6
			c0.5,7.5,1.5,14.9,1.9,22.4c0.2,3.2,1.6,4.1,4.3,4.8c12.4,3.2,24.7,6.7,37,10.1c1.7,0.8,2.3,2.3,2.3,4.1
			c0.1,10.5,0.2,21.1-0.1,31.6C256.7,403.5,256.3,405.8,253.3,404.8z"/>
		<path fill="#F37933" d="M256.5,365.6c0-20,0-39.9,0-59.9c1.4-1.5,3.3-1.3,5.1-1.3c11.9,0,23.8,0,35.7,0c3.2,0,6.1,0.3,6.5,4.4
			c-0.3,10.1-1.5,20.2-2.4,30.3c-0.4,4.1-0.2,8.3-1.2,12.4c-0.6,2.2-1.3,4.3-3.6,5c-12.8,3.6-25.4,7.9-38.6,10.1
			C257.4,366.4,256.9,366,256.5,365.6z"/>
		<path fill="#F6E0D8" d="M302.7,309.7c0-2.4,0.1-4.4-3.6-4.3c-14.2,0.3-28.4,0.2-42.6,0.3c-0.3-0.3-0.7-0.5-1-0.8
			c0-10.6-0.2-21.2,0.1-31.8c0.2-4.6-1.5-5.5-5.7-5.4c-13.1,0.2-26.2,0.1-39.3,0.1c-1.7,0-3.7,0.8-5-1.1c1.8-1.6,4-1.4,6.1-1.5
			c12.9,0,25.8,0,38.7,0c2.1,0,4.3-0.1,6.1,1.5c27.6,0.1,55.3,0.1,82.9,0.2c1.7,0,3.7-1,5,0.9c-2.4,2.1-5.3,1.5-8.1,1.5
			c-23.5,0-46.9,0-70.4,0c-7.6,0-7.8,0.2-7.8,7.8c0,6.8,0.1,13.6,0,20.5c-0.1,4.1,1.7,5.6,5.7,5.5c10.8-0.1,21.6-0.1,32.4,0
			c2,0,4-0.1,5.9,0.7C304.9,305,305.1,306.9,302.7,309.7z"/>
		<path fill="#F6DFD7" d="M256.5,365.6c0.3,0.1,0.7,0.2,1,0.3c1.2,5.2,0.3,10.5,0.5,15.8c0.3,7.8-0.5,15.6,0.7,23.3
			c-0.9,1-2.1,0.8-3.2,1c-0.8-0.4-1.5-0.7-2.3-1.1c1.2-0.2,2.2-0.8,2.2-2.2c-0.1-11.8-0.2-23.6-0.3-35.4c0-0.5-0.4-0.9-0.6-1.3
			C255.2,365.8,255.9,365.7,256.5,365.6z"/>
		<path fill="#F6E0D8" d="M255.5,227.6c0-12.6,0-25.2,0-37.8c0.4-0.1,0.7-0.3,1.1-0.4c0,0-0.1,0.4-0.1,0.4c1.5,1.4,1.6,3.2,1.6,5
			c0.1,9.2,0.1,18.4,0,27.6c0,1.8-0.2,3.6-1.5,5.1C256.2,227.6,255.9,227.6,255.5,227.6z"/>
		<path fill="#FEFEFE" d="M258.8,404.9c-1.5-0.3-2.2-1.1-2.2-2.7c0-11.4,0-22.7,0.1-34.1c0-0.8,0.6-1.5,0.9-2.3
			c12.3-3.4,24.7-6.8,37-10c2.8-0.7,4.1-1.7,4.4-4.8c1.1-13.8,2.5-27.5,3.8-41.2c1.9-3.6,0.9-5.1-3.2-5.1
			c-12.8,0.1-25.6-0.1-38.5,0.1c-3.5,0-4.6-1-4.5-4.5c0.2-9.2,0.3-18.3,0-27.5c-0.1-4,1.1-5.1,5.1-5.1c27.6,0.2,55.3,0.1,82.9,0.1
			c-1,12.9-1.9,25.8-3.1,38.7c-2.2,24.7-4.5,49.3-6.7,74c-0.2,2-0.1,3.7-2.8,4.4C307.4,391.5,283.1,398.2,258.8,404.9z"/>
		<path fill="#FEFEFE" d="M256.6,227.6c0-12.6,0-25.2-0.1-37.7c30.6-0.1,61.3-0.1,91.9-0.2c2.9,0,3.3,1.2,3.1,3.6
			c-1,10.6-2.1,21.2-2.9,31.8c-0.3,3.6-2.7,2.7-4.6,2.7c-18.8,0-37.6,0-56.5,0C277.2,227.8,266.9,227.7,256.6,227.6z"/>
		<path fill="#F05931" d="M256.5,266.6c-17,0-33.9,0-50.9,0c-1-10.8-2-21.6-2.9-32.5c-0.2-1.8,0-3.6,0-5.4c16.3,0,32.6,0.1,48.9-0.1
			c3.9,0,5.2,1.1,5.1,5C256.3,244.6,256.5,255.6,256.5,266.6z"/>
	</g>
	<text transform="matrix(1.15 0 0 1 143.8549 108.259)" font-family="'Phosphate-Solid'" font-size="81" letter-spacing="5.2">HTML</text>
</g>
</svg>
