<?xml version="1.0" encoding="utf-8"?>
<!-- Generator: Adobe Illustrator 17.1.0, SVG Export Plug-In . SVG Version: 6.00 Build 0)  -->
<!DOCTYPE svg PUBLIC "-//W3C//DTD SVG 1.1//EN" "http://www.w3.org/Graphics/SVG/1.1/DTD/svg11.dtd">
<svg version="1.1" id="Layer_1" xmlns="http://www.w3.org/2000/svg" xmlns:xlink="http://www.w3.org/1999/xlink" x="0px" y="0px"
	 viewBox="0 0 512 512" enable-background="new 0 0 512 512" xml:space="preserve">
<g>
	<path fill="#F48133" d="M258.4,125c48.8,0,97.6,0.1,146.5-0.1c4.6,0,5.8,0.9,5.3,5.8c-3.6,37.3-6.8,74.6-10.1,111.9
		c-2.8,31.7-5.5,63.4-8.3,95c-2.8,31.7-5.8,63.3-8.5,95c-0.3,3.1-1.6,4.2-4.3,4.9c-39.3,10.8-78.5,21.7-117.8,32.6
		c-2.2,0.6-4.2,0.5-6.3-0.1c-39.1-10.9-78.2-21.7-117.3-32.5c-3-0.8-4.3-2.2-4.5-5.4c-3.3-39.1-6.7-78.3-10.2-117.4
		c-3.8-42.9-7.8-85.9-11.7-128.8c-1.7-18.7-3.2-37.5-5.1-56.2c-0.4-4.4,1.3-4.8,4.9-4.8C160.1,125,209.3,125,258.4,125z"/>
	<path fill="#F89C34" d="M257.9,297.3c0-46.8,0.1-93.6-0.1-140.5c0-4.7,1.1-6.2,6-6.2c37.8,0.2,75.6,0.1,113.5,0.1
		c6,0,5.9,0.3,5.1,6.3c-1.1,8.5-1.7,17.1-2.5,25.7c-1.3,14.2-2.6,28.3-3.9,42.5c-0.8,8.7-1.3,17.5-2.1,26.2
		c-1.2,13.5-2.8,27-3.7,40.5c-0.6,8.4-1.5,16.8-2.2,25.2c-1.3,14.3-2.6,28.7-3.9,43c-0.8,8.9-1.4,17.8-2.1,26.7
		c-0.7,8.6-2.1,17.1-2.1,25.7c0,2.6-1.5,4.3-4.1,5c-25.6,7-51.2,14.1-76.7,21.1c-5.1,1.4-10.3,2.8-15.3,4.2
		c-5.2,1.5-5.8,1.2-5.8-4.2C257.9,391.6,257.9,344.4,257.9,297.3z"/>
	<path fill="#EBECEC" d="M249.4,402.5c-19.3-5.4-38.7-10.7-58.1-16.1c-11.8-3.3-11.6-3.3-12.5-15.6c-1.1-14.1-2.4-28.2-3.9-42.3
		c-0.5-4.5,0.9-5.5,5.2-4.4c5,1.2,10.1,2,15.2,2.7c2.8,0.4,4.1,1.6,4.3,4.4c0.3,4.8,0.8,9.6,1.1,14.4c0.1,2.3,0.8,3.6,3.2,4.2
		c5.3,1.3,10.6,2.8,15.8,4.5c2.8,0.9,3.5,0,3.5-2.7c-0.9-27.8-1.8-55.6-2.7-83.4c-0.4-10.5-0.9-21-1.2-31.4
		c-0.5-14.5-0.7-29-1.4-43.4c-0.2-3.9,1-4.8,4.7-4.7c7.7,0.3,15.3,0.3,23,0c3.8-0.2,4.7,1.1,4.7,4.8c-0.1,36.8-0.1,73.6-0.1,110.5
		c0,31,0,62,0,93C250,398.7,250.5,400.5,249.4,402.5z"/>
	<path fill="#FEFEFE" d="M265.1,246.3c0-17.7,0.1-35.3-0.1-53c0-3.8,1.1-4.7,4.8-4.7c26.5,0.2,53,0.1,79.5,0c3.7,0,4.8,0.6,4.2,4.7
		c-1.2,8.9-1.9,17.9-2.4,26.8c-0.2,3.5-1,4.9-4.8,4.9c-14,0.1-28,0.6-42,0.8c-3.8,0-5.2,1-5.3,5.1c-0.1,10-0.6,20-1.2,29.9
		c-0.2,3.8,0.6,5.2,4.8,5.1c13.3-0.3,26.6,0,40-0.2c3.5,0,4.4,0.8,4.1,4.5c-2.4,24.8-4.5,49.7-6.8,74.6c-1,11.8-2.1,23.5-3.1,35.3
		c-0.2,2.1-0.9,3.2-3.1,3.8c-22,6-43.9,12.1-65.8,18.3c-2.5,0.7-2.8-0.3-2.8-2.4c0-11.2,0.1-22.3,0-33.5c0-3,1.6-3.5,3.8-4.1
		c12.1-3,24.2-6.2,36.3-9.1c3.3-0.8,4.6-2,4.8-5.5c1-14.3,2.3-28.5,3.6-42.8c0.3-3.1-0.2-3.9-3.6-3.7c-13.3,1.1-26.6,1.6-39.9,2.7
		c-4.4,0.4-5.2-1.1-5.2-5.2C265.2,281.3,265.1,263.8,265.1,246.3z"/>
</g>
<text transform="matrix(1.15 0 0 1 210.4967 108.259)" font-family="'Phosphate-Solid'" font-size="81" letter-spacing="5.2">JS</text>
</svg>
