<?xml version="1.0" encoding="utf-8"?>
<!-- Generator: Adobe Illustrator 17.1.0, SVG Export Plug-In . SVG Version: 6.00 Build 0)  -->
<!DOCTYPE svg PUBLIC "-//W3C//DTD SVG 1.1//EN" "http://www.w3.org/Graphics/SVG/1.1/DTD/svg11.dtd">
<svg version="1.1" id="Layer_1" xmlns="http://www.w3.org/2000/svg" xmlns:xlink="http://www.w3.org/1999/xlink" x="0px" y="0px"
	 viewBox="0 0 512 512" enable-background="new 0 0 512 512" xml:space="preserve">
<g>
	<path fill="#F48133" d="M258.4,125c48.8,0,97.6,0.1,146.5-0.1c4.6,0,5.8,0.9,5.3,5.8c-3.6,37.3-6.8,74.6-10.1,111.9
		c-2.8,31.7-5.5,63.4-8.3,95c-2.8,31.7-5.8,63.3-8.5,95c-0.3,3.1-1.6,4.2-4.3,4.9c-39.3,10.8-78.5,21.7-117.8,32.6
		c-2.2,0.6-4.2,0.5-6.3-0.1c-39.1-10.9-78.2-21.7-117.3-32.5c-3-0.8-4.3-2.2-4.5-5.4c-3.3-39.1-6.7-78.3-10.2-117.4
		c-3.8-42.9-7.8-85.9-11.7-128.8c-1.7-18.7-3.2-37.5-5.1-56.2c-0.4-4.4,1.3-4.8,4.9-4.8C160.1,125,209.3,125,258.4,125z"/>
	<path fill="#F89C34" d="M257.9,297.3c0-46.8,0.1-93.6-0.1-140.5c0-4.7,1.1-6.2,6-6.2c37.8,0.2,75.6,0.1,113.5,0.1
		c6,0,5.9,0.3,5.1,6.3c-1.1,8.5-1.7,17.1-2.5,25.7c-1.3,14.2-2.6,28.3-3.9,42.5c-0.8,8.7-1.3,17.5-2.1,26.2
		c-1.2,13.5-2.8,27-3.7,40.5c-0.6,8.4-1.5,16.8-2.2,25.2c-1.3,14.3-2.6,28.7-3.9,43c-0.8,8.9-1.4,17.8-2.1,26.7
		c-0.7,8.6-2.1,17.1-2.1,25.7c0,2.6-1.5,4.3-4.1,5c-25.6,7-51.2,14.1-76.7,21.1c-5.1,1.4-10.3,2.8-15.3,4.2
		c-5.2,1.5-5.8,1.2-5.8-4.2C257.9,391.6,257.9,344.4,257.9,297.3z"/>
	<path fill="#EBECEC" d="M249.4,402.5c-19.3-5.4-38.7-10.7-58.1-16.1c-11.8-3.3-11.6-3.3-12.5-15.6c-1.1-14.1-2.4-28.2-3.9-42.3
		c-0.5-4.5,0.9-5.5,5.2-4.4c5,1.2,10.1,2,15.2,2.7c2.8,0.4,4.1,1.6,4.3,4.4c0.3,4.8,0.8,9.6,1.1,14.4c0.1,2.3,0.8,3.6,3.2,4.2
		c5.3,1.3,10.6,2.8,15.8,4.5c2.8,0.9,3.5,0,3.5-2.7c-0.9-27.8-1.8-55.6-2.7-83.4c-0.4-10.5-0.9-21-1.2-31.4
		c-0.5-14.5-0.7-29-1.4-43.4c-0.2-3.9,1-4.8,4.7-4.7c7.7,0.3,15.3,0.3,23,0c3.8-0.2,4.7,1.1,4.7,4.8c-0.1,36.8-0.1,73.6-0.1,110.5
		c0,31,0,62,0,93C250,398.7,250.5,400.5,249.4,402.5z"/>
	<path fill="#FEFEFE" d="M265.1,246.3c0-17.7,0.1-35.3-0.1-53c0-3.8,1.1-4.7,4.8-4.7c26.5,0.2,53,0.1,79.5,0c3.7,0,4.8,0.6,4.2,4.7
		c-1.2,8.9-1.9,17.9-2.4,26.8c-0.2,3.5-1,4.9-4.8,4.9c-14,0.1-28,0.6-42,0.8c-3.8,0-5.2,1-5.3,5.1c-0.1,10-0.6,20-1.2,29.9
		c-0.2,3.8,0.6,5.2,4.8,5.1c13.3-0.3,26.6,0,40-0.2c3.5,0,4.4,0.8,4.1,4.5c-2.4,24.8-4.5,49.7-6.8,74.6c-1,11.8-2.1,23.5-3.1,35.3
		c-0.2,2.1-0.9,3.2-3.1,3.8c-22,6-43.9,12.1-65.8,18.3c-2.5,0.7-2.8-0.3-2.8-2.4c0-11.2,0.1-22.3,0-33.5c0-3,1.6-3.5,3.8-4.1
		c12.1-3,24.2-6.2,36.3-9.1c3.3-0.8,4.6-2,4.8-5.5c1-14.3,2.3-28.5,3.6-42.8c0.3-3.1-0.2-3.9-3.6-3.7c-13.3,1.1-26.6,1.6-39.9,2.7
		c-4.4,0.4-5.2-1.1-5.2-5.2C265.2,281.3,265.1,263.8,265.1,246.3z"/>
</g>
<g>
	<path fill="#84CA15" d="M410.6,125.8c-1.8,20.6-3.5,41.1-5.3,61.7c-2.1,24.2-4.4,48.4-6.6,72.6c-2.9,32.3-5.8,64.7-8.7,97
		c-2.2,24.4-4.4,48.7-6.3,73.1c-0.3,4.4-1.6,6.5-6.2,7.7c-37.9,10.3-75.6,20.8-113.4,31.4c-4,1.1-7.6,1.2-11.7,0.1
		c-38.1-10.7-76.2-21.3-114.4-31.8c-3.1-0.8-4.6-2-4.9-5.5c-2-24.4-4.3-48.7-6.5-73.1c-2.9-32.2-5.8-64.3-8.7-96.5
		c-2.5-27.9-4.9-55.7-7.4-83.6c-1.3-14.4-2.6-28.8-3.9-43.3c-0.1-0.8,0-1.7-1.1-2c0-1,0-2,0-3c-0.1-4.6,2.1-5.6,6.7-5.6
		c97.6,0.2,195.3,0.1,292.9,0.2C407,125.3,408.9,124.8,410.6,125.8z"/>
	<path fill="#76D816" d="M258.7,188.6c0-11.2,0.1-22.3-0.1-33.5c0-3.2,0.8-4.4,4.2-4.4c38.6,0.1,77.3,0.1,115.9,0
		c3.1,0,4.2,1.1,4,4.1c-0.8,8.7-1.5,17.5-2.3,26.2c-0.9,9.4-1.9,18.7-2.7,28.1c-1.3,14-2.6,28-3.9,42c-0.8,8.9-1.4,17.8-2.2,26.7
		c-1.2,13.3-2.6,26.7-3.8,40c-0.8,8.6-1.4,17.2-2.2,25.7c-1.3,13.8-2.6,27.7-3.8,41.5c-0.8,9.1-1.6,18.1-2.1,27.2
		c-0.1,2.9-0.8,4.5-3.8,5.3c-30.9,8.4-61.7,16.8-92.5,25.5c-4.2,1.2-4.9-0.1-4.9-3.8c0.1-9.5,0.1-19,0-28.5c0-2,0.3-4-1-5.8
		c0.8-1.4,2.2-1.8,3.5-2.3c22.5-6.5,45.2-12.6,67.8-18.9c4.3-1.2,6.4-3.3,6.8-7.8c1-13.2,2.3-26.5,3.5-39.7
		c1.6-17.2,3.1-34.4,4.5-51.6c0.4-5.5,2.6-11,0.2-16.6c-1.9-1.5-4.2-1-6.3-1c-24,0-47.9,0-71.9,0c-2.5,0-5,0.5-7.3-1.1
		c-1.7-2.1-1.4-4.7-1.4-7.2c-0.1-7.8,0-15.6,0-23.4c0-5.8-0.4-6.1-6.3-6.1c-13-0.1-25.9,0-38.9,0c-2.5,0-5,0.4-7.2-1.4
		c0.6-3.4,3.5-2.6,5.5-2.7c15.6-0.1,31.2-0.3,46.8,0c0.6,0,1.3,0,1.9,0c26.6-0.2,53.3,0,79.9-0.1c1.8,0,3.7-0.1,5.5,0
		c3,0,4.5-1.2,4.9-4.3c1.2-8.9,1.6-17.9,2.4-26.8c0.2-2.3-1-3.3-3.2-3.5c-1.8-0.2-3.7-0.1-5.5-0.1c-25,0-50,0-74.9,0
		c-2.7,0-5.3,0.3-7.9-0.6C259.5,189.5,259,189.1,258.7,188.6z"/>
	<path fill="#EBECEC" d="M257.6,226.7c-15.9,0.1-31.8,0.1-47.8,0.2c-1.7,0-3.6-0.9-5.1,0.8c2.1,4.1,1.8,8.7,2.3,13.1
		c0.7,6.2,0.9,12.5,1.7,18.8c0.2,1.6,0.3,3.3,1.5,4.6c1.7,1.5,3.8,1.1,5.7,1.1c12,0,24-0.1,36,0c6,0,7,1,7.1,7
		c0.1,8.7,0.1,17.3,0,26c0,2,0.3,4.1-1.4,5.6c-27.1,0.1-54.3,0.1-81.4,0.2c-2.5,0-3.4-0.7-3.6-3.4c-2.6-30.2-5.3-60.3-8-90.5
		c-0.5-5.8-1.1-11.6-1.8-17.4c-0.3-2.7-0.1-4.2,3.4-4.2c30.5,0.2,61,0.2,91.4,0.2c1.3,1.3,1.4,3,1.4,4.6c0.1,9.5,0.1,19,0,28.5
		C259,223.7,258.9,225.4,257.6,226.7z"/>
	<path fill="#EBECEC" d="M255.4,403.9c-17.9-4.9-35.9-9.8-53.8-14.7c-6.2-1.7-12.4-3.6-18.7-5.2c-2-0.5-3.1-1.3-3.3-3.6
		c-1.5-17.9-3.2-35.8-4.9-53.6c-0.3-2.9,0.6-3.8,3.5-3.7c10.1,0.1,20.3,0.2,30.4,0c3.6-0.1,4.6,1.4,4.8,4.6
		c0.5,7.5,1.5,14.9,1.9,22.4c0.2,3.2,1.6,4.1,4.3,4.8c12.4,3.2,24.7,6.7,37,10.1c1.7,0.8,2.3,2.3,2.3,4.1
		c0.1,10.5,0.2,21.1-0.1,31.6C258.9,402.6,258.5,404.9,255.4,403.9z"/>
	<path fill="#76D816" d="M258.6,364.6c0-20,0-39.9,0-59.9c1.4-1.5,3.3-1.3,5.1-1.3c11.9,0,23.8,0,35.7,0c3.2,0,6.1,0.3,6.5,4.4
		c-0.3,10.1-1.5,20.2-2.4,30.3c-0.4,4.1-0.2,8.3-1.2,12.4c-0.6,2.2-1.3,4.3-3.6,5c-12.8,3.6-25.4,7.9-38.6,10.1
		C259.5,365.4,259,365.1,258.6,364.6z"/>
	<path fill="#F6E0D8" d="M304.8,308.8c0-2.4,0.1-4.4-3.6-4.3c-14.2,0.3-28.4,0.2-42.6,0.3c-0.3-0.3-0.7-0.5-1-0.8
		c0-10.6-0.2-21.2,0.1-31.8c0.2-4.6-1.5-5.5-5.7-5.4c-13.1,0.2-26.2,0.1-39.3,0.1c-1.7,0-3.7,0.8-5-1.1c1.8-1.6,4-1.4,6.1-1.5
		c12.9,0,25.8,0,38.7,0c2.1,0,4.3-0.1,6.1,1.5c27.6,0.1,55.3,0.1,82.9,0.2c1.7,0,3.7-1,5,0.9c-2.4,2.1-5.3,1.5-8.1,1.5
		c-23.5,0-46.9,0-70.4,0c-7.6,0-7.8,0.2-7.8,7.8c0,6.8,0.1,13.6,0,20.5c-0.1,4.1,1.7,5.6,5.7,5.5c10.8-0.1,21.6-0.1,32.4,0
		c2,0,4-0.1,5.9,0.7C307.1,304,307.2,305.9,304.8,308.8z"/>
	<path fill="#F6DFD7" d="M258.6,364.6c0.3,0.1,0.7,0.2,1,0.3c1.2,5.2,0.3,10.5,0.5,15.8c0.3,7.8-0.5,15.6,0.7,23.3
		c-0.9,1-2.1,0.8-3.2,1c-0.8-0.4-1.5-0.7-2.3-1.1c1.2-0.2,2.2-0.8,2.2-2.2c-0.1-11.8-0.2-23.6-0.3-35.4c0-0.5-0.4-0.9-0.6-1.3
		C257.3,364.8,258,364.7,258.6,364.6z"/>
	<path fill="#F6E0D8" d="M257.6,226.7c0-12.6,0-25.2,0-37.8c0.4-0.1,0.7-0.3,1.1-0.4c0,0-0.1,0.4-0.1,0.4c1.5,1.4,1.6,3.2,1.6,5
		c0.1,9.2,0.1,18.4,0,27.6c0,1.8-0.2,3.6-1.5,5.1C258.3,226.7,258,226.7,257.6,226.7z"/>
	<path fill="#FEFEFE" d="M260.9,403.9c-1.5-0.3-2.2-1.1-2.2-2.7c0-11.4,0-22.7,0.1-34.1c0-0.8,0.6-1.5,0.9-2.3
		c12.3-3.4,24.7-6.8,37-10c2.8-0.7,4.1-1.7,4.4-4.8c1.1-13.8,2.5-27.5,3.8-41.2c1.9-3.6,0.9-5.1-3.2-5.1
		c-12.8,0.1-25.6-0.1-38.5,0.1c-3.5,0-4.6-1-4.5-4.5c0.2-9.2,0.3-18.3,0-27.5c-0.1-4,1.1-5.1,5.1-5.1c27.6,0.2,55.3,0.1,82.9,0.1
		c-1,12.9-1.9,25.8-3.1,38.7c-2.2,24.7-4.5,49.3-6.7,74c-0.2,2-0.1,3.7-2.8,4.4C309.5,390.5,285.2,397.3,260.9,403.9z"/>
	<path fill="#FEFEFE" d="M258.7,226.7c0-12.6,0-25.2-0.1-37.7c30.6-0.1,61.3-0.1,91.9-0.2c2.9,0,3.3,1.2,3.1,3.6
		c-1,10.6-2.1,21.2-2.9,31.8c-0.3,3.6-2.7,2.7-4.6,2.7c-18.8,0-37.6,0-56.5,0C279.3,226.9,269,226.8,258.7,226.7z"/>
	<path fill="#84CA15" d="M258.6,265.6c-17,0-33.9,0-50.9,0c-1-10.8-2-21.6-2.9-32.5c-0.2-1.8,0-3.6,0-5.4c16.3,0,32.6,0.1,48.9-0.1
		c3.9,0,5.2,1.1,5.1,5C258.5,243.7,258.6,254.7,258.6,265.6z"/>
</g>
<text transform="matrix(1.15 0 0 1 163.9694 108.259)" font-family="'Phosphate-Solid'" font-size="81" letter-spacing="5.2">PHP</text>
</svg>
