<?xml version="1.0" encoding="utf-8"?>
<!-- Generator: Adobe Illustrator 17.1.0, SVG Export Plug-In . SVG Version: 6.00 Build 0)  -->
<!DOCTYPE svg PUBLIC "-//W3C//DTD SVG 1.1//EN" "http://www.w3.org/Graphics/SVG/1.1/DTD/svg11.dtd">
<svg version="1.1" id="Layer_1" xmlns="http://www.w3.org/2000/svg" xmlns:xlink="http://www.w3.org/1999/xlink" x="0px" y="0px"
	 viewBox="0 0 311.4 274.9" enable-background="new 0 0 311.4 274.9" xml:space="preserve">
<g>
	<path fill="#FFFFFF" d="M236.7,116.2c-4.8,0-9.4-0.8-13.8-2.6c-2.2-0.9-3.6-0.6-5.3,1.1c-21.1,22.3-42.2,44.6-63.4,66.9
		c-17.2,18.1-34.5,36.2-51.7,54.4c-11.2,11.8-22.4,23.5-33.5,35.4c-2.8,3-5.9,4-9.6,2.8c-9.9-3.3-16.4-10.2-19.8-20
		c-1.2-3.4-0.3-6.1,2.3-8.6c18.2-17.2,36.3-34.4,54.4-51.7c15.7-14.9,31.5-29.8,47.3-44.8c18-17,35.8-34.2,53.8-51.1
		c2.5-2.4,3-4.2,1.5-7.5c-5.6-12.7-3.8-25,2.5-37c2.4-4.5,5.3-8.7,8.9-12.3c12.5-12.2,24.2-25.4,38.2-36c3-2.2,6.2-4,9.8-5
		c2.3-0.6,4.5-0.6,6.8,0c7.3,2,7.8,3.6,2.7,9c-12.5,13-25,26-37.4,39c-2,2-4,4.1-2.3,7.3c2,3.7,5.5,4.2,9.2,1.1
		c7.5-6.3,14.9-12.7,22.3-19c7.5-6.4,15.1-12.8,22.5-19.3c2.2-1.9,3.7-2.3,6,0.1c6.5,7.1,6.7,4.5,0.4,12
		c-11.7,13.9-23.5,27.6-35.3,41.5c-3,3.5-3.1,6.3-0.4,8.7c2.5,2.3,5.1,2,8.3-1.1c13.8-13.2,27.5-26.4,41.2-39.5
		c3.4-3.2,3.3-3.2,5.8,0.5c4.6,6.6,3.6,13.1-0.3,19.6c-3.4,5.5-7.5,10.5-12,15.2c-9.9,10.5-19.5,21.4-30.9,30.5
		C257,112.6,247.4,116.1,236.7,116.2z"/>
	<path fill="#FFFFFF" d="M107.3,76c0.2,5.5-0.9,11.1-3.6,16.2c-1.2,2.3-0.8,3.9,1.1,5.6c11.5,10.8,22.8,21.7,34.3,32.4
		c4,3.8,4.1,3.7,0.3,7.4c-4.8,4.6-9.7,9-14.3,13.7c-2.2,2.2-3.5,2-5.5-0.2c-10.9-11.7-22-23.2-33-34.8c-1.5-1.6-2.9-2.9-5.5-1.8
		c-15,6.4-29,3.5-42.4-4.8c-11-6.8-18.7-16.7-25.3-27.5C7.1,72.1,2.3,61.2,0.6,49.2c-0.8-5.8-0.9-11.6,0.6-17.4
		C4.5,19.1,15,11.1,28.6,10.7c10.8-0.4,20.9,2.4,30.6,6.8C75.5,24.9,90,34.6,99.8,50.1C104.6,57.7,107.4,66.8,107.3,76z"/>
	<path fill="#FFFFFF" d="M263.4,251.5c-0.9,8-5.8,13.5-11.7,18.4c-1.9,1.6-4,2.6-6.3,3.6c-5.5,2.4-8.1,1.9-12.2-2.4
		c-23.8-25.1-47.6-50.2-71.5-75.3c-2-2.1-2.1-3.5,0-5.6c5.5-5.6,11-11.2,16.2-17.1c2.3-2.6,3.9-2.3,6.2-0.1
		c11.1,10.6,22.2,21.2,33.3,31.7c14.2,13.4,28.3,26.9,42.5,40.3C261.9,246.8,263.6,248.6,263.4,251.5z"/>
</g>
</svg>
