<?xml version="1.0" encoding="utf-8"?>
<!-- Generator: Adobe Illustrator 17.1.0, SVG Export Plug-In . SVG Version: 6.00 Build 0)  -->
<!DOCTYPE svg PUBLIC "-//W3C//DTD SVG 1.1//EN" "http://www.w3.org/Graphics/SVG/1.1/DTD/svg11.dtd">
<svg version="1.1" id="Layer_1" xmlns="http://www.w3.org/2000/svg" xmlns:xlink="http://www.w3.org/1999/xlink" x="0px" y="0px"
	 viewBox="0 0 908.4 512" enable-background="new 0 0 908.4 512" xml:space="preserve">
<g>
	<path fill="#FFFFFF" d="M526.3,242.1c-3.7-1.3-7.4-2.7-11.1-4c-13.3-4.7-26.9-7.8-40.9-9.3c-7.6-0.8-15.1-0.6-22.7-0.7
		c-0.7,0-1.4,0-2,0.1c-1.3,0.2-1.7,0.9-1.4,2.1c0.3,0.9,0.5,1.7,0.8,2.6c9,27.4,18,54.7,27.1,82.1c1.5,4.4,1.3,4.6-3.2,4.6
		c-21.2,0-42.5,0-63.7,0c-0.2,0-0.5,0-0.7,0c-3.6-0.1-3.8-0.3-4.8-3.9c-0.9-3.2-1.7-6.3-2.5-9.5c-5.4-20.2-10.9-40.4-16.3-60.5
		c-1.2-4.5-1.3-4.7-5.7-2.7c-16.7,7.4-32.3,16.6-46.1,28.8c-10.6,9.4-19.6,20-25.9,32.8c-1.9,3.8-3.3,7.7-4.6,11.7
		c-1,3.2-1.2,3.3-4.5,3.4c-10.7,0-21.5,0-32.2,0c-10.6,0-21.2,0-31.9,0c-0.9,0-1.8,0-2.7,0c-2.1-0.2-2.4-0.6-1.8-2.6
		c0.6-2.3,1.4-4.5,2.1-6.8c8.1-24.9,16.3-49.8,24.4-74.8c11.7-36,23.4-72,35.1-108c5.4-16.5,10.7-33.1,16.1-49.6
		c1.2-3.8,1.3-3.8,5.2-3.8c26.8,0,53.6,0,80.3,0c4.1,0,4.2,0,5.5,4c12.1,36.8,24.2,73.6,36.4,110.4c0.2,0.5,0.4,1.1,0.5,1.6
		c0.5,2.7,2.3,3.7,5,4.2c27.3,4.6,51.4,16,72.5,33.8c4.1,3.4,7.9,7.1,11.9,10.6C525.3,239.5,526.2,240.3,526.3,242.1z M330.6,211.6
		c2.9-0.6,4.9-2,7-2.9c10.1-4.4,20.4-8,31-10.7c2.9-0.7,3-0.8,2.2-3.7c-1.3-5-2.7-10-4.1-15c-4.2-15.5-8.3-30.9-12.5-46.4
		c-0.3-1.1-0.4-2.4-1.6-3.8C345.3,156.8,338,184,330.6,211.6z"/>
	<path fill="#FFFFFF" d="M565.2,71.5c10.8-0.1,20.7,0.8,30.4,2.7c1.6,0.3,3.1,0.8,4.6,1.1c2.1,0.4,3.2,1.7,3.7,3.8
		c2.6,9.8,5.3,19.6,8,29.4c2,7.2,3.9,14.4,5.8,21.6c0.2,0.8,0.4,1.5,0.6,2.3c0.1,1-0.4,1.5-1.4,1.2c-0.9-0.3-1.7-0.7-2.5-1
		c-10.5-4.6-21.2-8.5-32.3-11.2c-6.7-1.6-13.5-2.7-20.5-2.3c-4.3,0.2-8.5,1-12.4,3.1c-10.5,5.5-13,18.7-5.2,27.6
		c2.8,3.2,6.1,6,9.8,8.3c6.6,4.1,13.7,7.4,21,10.3c11.5,4.6,22.7,9.5,33.2,16.1c6.4,4,12.5,8.4,17.9,13.9
		c7.1,7.2,11.9,15.6,14.5,25.3c3.9,14.4,3.9,28.8-0.2,43.2c-5.3,18.4-16.7,32.1-33,41.7c-13.1,7.7-27.3,11.6-42.3,13.5
		c-5,0.6-9.9,0.8-14.9,1c-6.9,0.2-13.8-0.3-20.6-0.7c-7.4-0.4-14.9-1.1-22.3-1.7c-2.8-0.2-5.6-0.5-8.4-0.7c-1.7-0.1-2.6-1.1-3.1-2.6
		c-1.3-3.9-2.7-7.7-4-11.5c-6.2-17.8-12.4-35.6-18.6-53.4c-0.1-0.2-0.2-0.4-0.2-0.6c-0.2-0.7-0.8-1.6-0.2-2.2
		c0.8-0.9,1.7-0.1,2.4,0.3c8.3,4.1,16.9,7.6,25.7,10.5c12.8,4.2,25.9,7.1,39.4,8.2c5.9,0.5,11.7,0.6,17.6-0.2
		c5-0.7,9.7-2.1,13.6-5.5c6.8-6,7.2-15.7,0.9-22.3c-3.7-3.8-8.2-6.5-12.8-8.7c-7.8-3.8-15.7-7.5-23.6-11.1
		c-10.1-4.6-20-9.4-29.4-15.4c-10.1-6.5-18.7-14.6-24.6-25.2c-3.7-6.7-6-13.8-7.2-21.4c-1.5-9.9-1.7-19.8,0.1-29.7
		c3.5-19.4,14.3-33.6,31-43.5c12.2-7.2,25.5-10.9,39.4-12.5C552.1,71.9,559,71.3,565.2,71.5z"/>
	<path fill="#FFFFFF" d="M104.5,197c0-38.9,0-77.8,0-116.6c0-5.4,0-5.4,5.4-5.4c57.6,0,115.3,0,172.9,0c5,0,5,0,3.5,4.9
		c-4.5,14.5-8.9,28.9-13.4,43.4c-0.3,1-0.7,1.9-0.9,2.9c-0.5,1.8-1.6,2.6-3.5,2.5c-1-0.1-2,0-3.1,0c-30.2,0-60.4,0-90.5,0
		c-5,0-5,0-5,5.1c0,12,0,24,0,35.9c0,0.8,0,1.6,0,2.4c0,1.7,0.7,2.6,2.4,2.5c1,0,2,0,3.1,0c24.8,0,49.5,0,74.3,0
		c5.2,0,5.3,0.1,3.7,5.1c-4.5,14.6-9.1,29.1-13.6,43.7c-0.3,0.9-0.6,1.7-0.8,2.6c-0.4,1.5-1.4,2.3-3,2.3c-1.1,0-2.3,0-3.4,0
		c-19.2,0-38.4,0-57.6,0c-5,0-5,0-5.1,5.1c0,27,0,54,0,81c0,5.4,0,5.5-5.4,5.5c-18.3,0-36.6,0-54.9,0c-5.1,0-5.1,0-5.1-5.1
		C104.5,275.4,104.5,236.2,104.5,197z"/>
	<path fill="#FFFFFF" d="M713.7,74.9c29.5,0,59,0,88.5,0c5.6,0,5.6,0,5.6,5.7c0,15.9,0,31.9,0,47.8c0,0.8,0,1.6,0,2.4
		c-0.2,2.5-0.6,2.9-3.1,3.1c-1,0.1-2,0-3.1,0c-18.6,0-37.3,0-55.9,0c-4.9,0-4.9,0-4.9,4.9c0,58.2,0,116.4,0,174.6
		c0,6.4,0,6.4-6.3,6.4c-18.4,0-36.8,0-55.3,0c-5.1,0-5.1,0-5.1-5.1c0-57.6,0-115.3,0-172.9c0-8.9,1.1-7.8-8-7.9
		c-8.4,0-16.7,0-25.1,0c-0.8,0-1.6,0-2.4,0c-3.1-0.1-3.5-0.3-4.3-3.2c-1.4-5.1-2.8-10.3-4.1-15.4c-3.1-11.8-6.1-23.6-9.2-35.4
		c-0.2-0.7-0.4-1.3-0.5-2c-0.5-2.4-0.2-2.7,2.3-2.9c1-0.1,2,0,3.1,0C655.2,74.9,684.5,74.9,713.7,74.9z"/>
	<path fill="#FFFFFF" d="M519.7,392.4c0-10.2,0-20.3,0-30.5c0-0.9,0-1.8,0-2.7c0.1-2.9,0.6-3.5,3.4-3.4c12,0.1,23.9-0.5,35.9,0.5
		c11.2,1,20,8.6,22,19.3c1.1,5.8,0.4,11.5-2.2,16.9c-1.3,2.7-3.2,4.9-5.6,6.7c-1.9,1.4-4,2.5-6.3,3.4c-3.3,1.3-3.4,1.3-1,4.1
		c4.7,5.5,9.6,10.8,14.4,16.2c1.3,1.4,2.6,2.9,3.7,4.4c1.1,1.4,0.8,2.3-0.8,2.3c-4.5,0.1-9,0.1-13.5,0c-1.5,0-2.4-1.1-3.3-2.1
		c-4.3-4.9-8.7-9.8-13-14.8c-1.6-1.9-3.3-3.8-4.8-5.7c-1-1.2-2.3-1.8-3.8-1.7c-2.6,0-5.2,0-7.8,0c-2.5,0.1-2.9,0.4-3,3
		c-0.1,5,0,9.9,0,14.9c0,1.1,0,2.3,0,3.4c-0.1,2.5-0.5,3-3,3c-2.8,0.1-5.6,0-8.5,0c-1.8,0-2.7-0.9-2.8-2.6c0-1-0.1-2-0.1-3
		C519.7,413.4,519.7,402.9,519.7,392.4z M546.1,392.2C546.1,392.2,546.1,392.2,546.1,392.2c3.2,0,6.3,0.1,9.5-0.1
		c4.2-0.3,8-1.6,10.1-5.7c4-8-0.8-16.5-9.9-17c-6.3-0.3-12.6-0.1-19-0.1c-2.4,0-2.7,0.4-2.7,2.8c-0.1,5.8-0.1,11.5,0,17.3
		c0,2.3,0.4,2.6,2.9,2.7C540,392.3,543.1,392.2,546.1,392.2z"/>
	<path fill="#FFFFFF" d="M358.1,392.6c0-10.6,0-21.2,0-31.9c0-1,0-2,0.1-3c0.1-1,0.7-1.7,1.7-1.8c1-0.1,2-0.1,3-0.1
		c9.3,0,18.5,0,27.8,0.1c4.6,0,9.2,0.6,13.6,2.2c10.8,3.9,16.2,15.1,15.2,24.7c-0.6,5.9-2.3,11.2-6.9,15.4c-2.5,2.2-5.3,3.8-8.5,4.9
		c-2.5,0.8-2.6,1-0.9,2.8c4,4.6,8.1,9.1,12.2,13.6c2.2,2.4,4.4,4.9,6.5,7.3c0.5,0.6,1.2,1.2,0.8,2.1c-0.3,0.9-1.3,0.9-2,0.9
		c-4.1,0-8.1,0-12.2,0c-1.9,0-3.1-1.1-4.3-2.4c-5-5.8-10.1-11.6-15.1-17.4c-0.7-0.8-1.4-1.5-2-2.3c-1.4-1.8-3.1-2.4-5.3-2.3
		c-2.1,0.1-4.3,0-6.4,0c-2.6,0.1-3,0.5-3,3c-0.1,5.2,0,10.4,0,15.6c0,1,0,2,0,3c-0.2,2.1-0.6,2.6-2.6,2.7c-3,0.1-6.1,0-9.1,0
		c-1.6,0-2.5-0.8-2.5-2.5c0-1,0-2,0-3C358.1,413.6,358.1,403.1,358.1,392.6z M384.4,392.2C384.4,392.2,384.4,392.2,384.4,392.2
		c3.2,0,6.3,0.1,9.5,0c5.5-0.2,9.8-3.5,10.9-8.1c1.9-8-2.8-14.4-11-14.7c-6.1-0.2-12.2-0.1-18.3,0c-2.6,0-3,0.4-3,3
		c-0.1,5.6-0.1,11.3,0,16.9c0,2.5,0.4,2.8,3.1,2.9C378.5,392.3,381.5,392.2,384.4,392.2z"/>
	<path fill="#FFFFFF" d="M139,382.4c-0.7,1.3-0.4,2.6-0.4,3.8c0,12.8,0,25.5,0,38.3c0,1,0,2-0.1,3c-0.1,1.4-0.8,2.1-2.2,2.1
		c-3.3,0-6.5,0-9.8,0c-1.5,0-2.2-0.9-2.3-2.4c0-0.9,0-1.8,0-2.7c0-21.1,0-42.2,0-63.4c0-5.3,0.1-5.1,5.2-5.5c4.4-0.3,7.3,1.2,10,4.8
		c9.3,12.2,18.9,24.2,28.5,36.2c0.8,1,1.6,1.9,2.5,3c1-1.2,0.6-2.5,0.6-3.6c0-11.5,0-23,0-34.6c0-0.9,0-1.8,0-2.7c0.1-2.5,0.5-3,3-3
		c2.8-0.1,5.7-0.1,8.5,0c2.3,0.1,2.7,0.5,2.8,2.8c0,0.7,0,1.4,0,2c0,21.4,0,42.7,0,64.1c0,4.9-0.1,4.8-4.9,5c-3,0.1-5-1-6.8-3.4
		c-10.9-14.2-22-28.4-33-42.6C140.3,383.3,140,382.6,139,382.4z"/>
	<path fill="#FFFFFF" d="M44.9,392.7c0-10.3,0-20.6,0-30.8c0-0.9,0-1.8,0-2.7c0.1-2.7,0.6-3.2,3.2-3.3c0.8-0.1,1.6,0,2.4,0
		c14.8,0,29.6,0,44.4,0c0.3,0,0.7,0,1,0c4.3,0.1,4.6,0.3,4.6,4.7c0,1.6,0,3.2,0,4.7c0,4.7-0.1,4.8-4.7,4.8c-10.3,0-20.6,0-30.8,0
		c-1,0-2,0-3,0c-2.2,0.1-2.6,0.5-2.6,2.6c-0.1,3.5-0.1,7,0,10.5c0.1,2.6,0.4,2.9,3,3c4.6,0.1,9.3,0,13.9,0c6.3,0,12.7,0,19,0
		c3.5,0,3.8,0.4,3.9,3.9c0,2,0.1,4.1,0,6.1c-0.1,3-0.5,3.5-3.7,3.5c-2.9,0.1-5.9,0-8.8,0c-7.8,0-15.6,0-23.4,0c-3.7,0-3.9,0.3-4,3.8
		c0,2.9-0.1,5.9,0,8.8c0.1,2.6,0.4,2.9,3,3c3.8,0.1,7.7,0,11.5,0c7.7,0,15.4,0,23.1,0c3.2,0,3.5,0.4,3.6,3.5c0.1,2.7,0.1,5.4,0,8.1
		c-0.1,2.1-0.6,2.5-2.7,2.7c-0.8,0.1-1.6,0-2.4,0c-15.1,0-30.3,0-45.4,0c-0.7,0-1.4,0-2,0c-2.5-0.1-2.9-0.5-3-3.1
		c-0.1-1.8,0-3.6,0-5.4C44.9,411.7,44.9,402.2,44.9,392.7z"/>
	<path fill="#FFFFFF" d="M282.2,392.9c0-10.5,0-21,0-31.5c0-1,0-2,0-3c0-1.5,0.8-2.3,2.3-2.4c1-0.1,2-0.1,3-0.1
		c14.9,0,29.8,0,44.7,0c5,0,5,0,5.1,5.1c0,1.9,0,3.8,0,5.8c-0.1,2.9-0.5,3.3-3.4,3.3c-3.2,0.1-6.3,0-9.5,0c-7.9,0-15.8,0-23.7,0
		c-3.9,0-4.1,0.2-4.1,3.9c0,2.9,0,5.9,0,8.8c0.1,3.1,0.3,3.4,3.6,3.4c4.2,0,8.4,0,12.5,0c6.4,0,12.9,0,19.3,0c3.6,0,3.8,0.3,3.9,3.9
		c0,2.4,0,4.7,0,7.1c0,1.7-0.8,2.5-2.5,2.5c-1,0-2,0-3,0c-9.9,0-19.9,0-29.8,0c-3.8,0-4,0.2-4,4.1c0,2.8-0.1,5.7,0,8.5
		c0.1,2.6,0.4,3,3,3c4.2,0.1,8.4,0,12.5,0c7.1,0,14.2,0,21.4,0c3.6,0,3.8,0.3,3.9,3.9c0,2.6,0,5.2,0,7.8c0,1.6-0.8,2.5-2.5,2.6
		c-0.8,0-1.6,0-2.4,0c-15.1,0-30.3,0-45.4,0c-0.2,0-0.5,0-0.7,0c-4-0.1-4.2-0.2-4.2-4.3C282.2,414.6,282.2,403.7,282.2,392.9z"/>
	<path fill="#FFFFFF" d="M719,392.7c0-10.4,0-20.8,0-31.2c0-1,0-2,0-3c0-1.6,0.8-2.5,2.5-2.6c0.9-0.1,1.8-0.1,2.7-0.1
		c15,0,30.1,0,45.1,0c0.3,0,0.7,0,1,0c3.5,0.1,3.8,0.4,3.8,4c0,2.4,0.1,4.7,0,7.1c-0.1,2.6-0.5,2.9-3,3.1c-1.2,0.1-2.5,0-3.7,0
		c-10.1,0-20.1,0-30.2,0c-3.7,0-3.9,0.2-3.9,3.8c0,2.8,0,5.6,0,8.5c0,3.7,0.2,3.9,3.8,3.9c9,0,18.1,0,27.1,0c1.9,0,3.8-0.1,5.8,0
		c2.1,0.1,2.6,0.5,2.6,2.7c0.1,2.7,0.1,5.4,0,8.1c-0.1,2.1-0.5,2.5-2.6,2.7c-0.9,0.1-1.8,0-2.7,0c-9.6,0-19.2,0-28.8,0
		c-1,0-2,0-3,0.1c-1.4,0.1-2.1,0.8-2.1,2.2c0,3.7,0,7.5,0,11.2c0,1.4,0.8,2.1,2.1,2.1c0.9,0,1.8,0.1,2.7,0.1c10.2,0,20.3,0,30.5,0
		c1,0,2,0,3,0.1c1.5,0.1,2.3,0.8,2.3,2.3c0,3.2,0,6.3,0,9.5c0,1.5-0.8,2.3-2.3,2.4c-0.8,0-1.6,0.1-2.4,0.1c-15.3,0-30.5,0-45.8,0
		c-0.6,0-1.1,0-1.7,0c-2.5-0.2-2.9-0.5-3-3.1c-0.1-4.1,0-8.1,0-12.2C719,407.1,719,399.9,719,392.7z"/>
	<path fill="#FFFFFF" d="M667.6,431.7c-5.4-0.5-10.8-0.7-16-2.7c-6.6-2.5-11.6-6.8-14.8-13.2c-1.2-2.5-1.1-2.8,1.1-4
		c2.5-1.3,5-2.6,7.5-3.9c1.3-0.7,2.3-0.5,3.1,0.9c5.2,8.5,13.4,10.1,22.3,9.6c2.6-0.1,5.2-0.6,7.5-1.8c2.2-1.1,4-2.5,5.1-4.8
		c2-4.3,0.5-8.7-3.9-11.3c-2.9-1.7-6.1-2.3-9.4-2.7c-4.8-0.7-9.6-1.2-14.3-2.6c-2.9-0.8-5.8-2-8.4-3.5c-11.3-6.6-11.6-24.8-1-32.1
		c5-3.4,10.5-5.3,16.4-5.9c5.9-0.6,11.7-0.3,17.5,1.4c6.2,1.8,11.2,5.4,14.7,10.8c1.4,2.1,1.2,2.4-1,3.6c-2.2,1.2-4.4,2.3-6.6,3.5
		c-1.5,0.8-2.5,0.8-3.9-0.5c-6.7-6.4-14.7-7.9-23.5-5.4c-4.2,1.2-6.8,4.3-6.9,7.8c-0.1,2.8,0.9,4.8,3.4,6.1c3.3,1.9,7,2.4,10.7,3
		c4,0.6,8.1,1,12,2c2.5,0.6,5,1.4,7.4,2.5c10.7,5.1,15.1,17.2,10.3,28.1c-3.1,7-8.8,10.7-15.7,12.9
		C676.9,431,672.3,431.2,667.6,431.7z"/>
	<path fill="#FFFFFF" d="M825.1,353.6c5.4-0.2,10.6,0.8,15.6,2.7c4.9,1.9,8.7,5.1,11.5,9.6c1.3,2.1,1.2,2.6-0.9,3.7
		c-2.3,1.3-4.6,2.3-6.9,3.6c-1.4,0.7-2.5,0.6-3.6-0.6c-6.1-6.3-13.6-7.6-21.8-5.9c-1.9,0.4-3.7,1.1-5.3,2.2
		c-5.1,3.7-4.5,10.2,1.2,12.8c3.1,1.4,6.5,2,9.8,2.4c5.9,0.7,11.8,1.7,17.5,3.8c9,3.4,13.6,10,13.7,19.4c0.1,9.3-3.8,16.2-12.6,20.3
		c-7.1,3.4-14.6,4.3-22.5,3.6c-5.7-0.5-11.2-1.5-16.3-4.2c-4.8-2.5-8.1-6.4-10.6-11.1c-1.3-2.5-1.1-2.9,1.4-4.2
		c2.4-1.3,4.8-2.5,7.2-3.8c1.3-0.7,2.3-0.6,3.1,0.8c2.6,4.8,6.8,7.4,11.9,8.8c6.1,1.7,12.1,1.4,17.9-1c5.4-2.3,7.5-7.4,5.2-12.1
		c-1.2-2.5-3.4-3.8-5.9-4.8c-3.9-1.6-8.1-1.9-12.2-2.5c-5.7-0.8-11.4-1.8-16.5-4.7c-6.2-3.5-9.7-8.6-9.8-15.9
		c-0.2-10.2,4.4-16.9,14-20.5c2.5-0.9,5.2-1.7,7.8-2.1C820.4,353.5,822.7,353.6,825.1,353.6z"/>
	<path fill="#FFFFFF" d="M438.9,392.7c0-10.5,0-21,0-31.5c0-1,0-2,0.1-3c0-1.3,0.8-2.1,2.1-2.2c0.9-0.1,1.8-0.1,2.7-0.1
		c9.7,0,19.4-0.1,29.1,0c4.3,0,8.5,0.8,12.5,2.5c14.2,5.9,18.3,22.5,13.2,34.2c-4.4,10.2-12.5,15.1-23.3,15.6
		c-5.9,0.3-11.7,0.1-17.6,0.1c-4.4,0-4.4,0-4.5,4.6c0,4.4,0,8.8,0,13.2c0,3.4-0.3,3.7-3.6,3.8c-2.4,0-4.7,0-7.1,0
		c-3.3-0.1-3.6-0.4-3.6-3.8c0-4.7,0-9.5,0-14.2C438.9,405.3,438.9,399,438.9,392.7z M453.3,382.2
		C453.3,382.2,453.3,382.2,453.3,382.2c0,3.4,0,6.8,0,10.2c0,1.6,0.6,2.6,2.4,2.6c6.4,0,12.9,0.2,19.3-0.1c5.6-0.3,9.6-3.8,11-9
		c1.4-5-0.4-10.4-4.5-13.6c-2.5-2-5.5-2.6-8.6-2.6c-5.5-0.1-11.1-0.1-16.6,0c-2.7,0-3,0.4-3,3.3C453.2,375.9,453.3,379,453.3,382.2z
		"/>
	<path fill="#FFFFFF" d="M234.1,355.8c8.2,0,16.5,0,24.7,0c1,0,2,0,3,0.1c1.3,0.1,2.2,0.7,2.2,2.1c0,3,0,6.1,0,9.1
		c0,1.4-0.8,2-2.1,2.1c-0.8,0.1-1.6,0.1-2.4,0.1c-4.4,0-8.8,0-13.2,0c-5.3,0-5.3,0-5.3,5.1c0,10.7,0,21.5,0,32.2c0,6.3,0,12.6,0,19
		c0,3.8-0.3,4.1-4,4.1c-2.5,0-5,0.1-7.5,0c-2.3-0.1-2.7-0.5-2.9-2.8c-0.1-1,0-2,0-3c0-16.3,0-32.5,0-48.8c0-0.9,0-1.8,0-2.7
		c-0.1-2.5-0.5-2.9-3-3c-5-0.1-9.9,0-14.9,0c-0.9,0-1.8,0-2.7,0c-1.5,0-2.4-0.7-2.4-2.3c0-2.9,0-5.9,0-8.8c0-1.5,1-2.2,2.4-2.3
		c1-0.1,2-0.1,3-0.1C217.4,355.8,225.7,355.8,234.1,355.8z"/>
	<path fill="#FFFFFF" d="M614.8,393c0,10.8,0,21.7,0,32.5c0,3.8-0.3,4.1-4,4.1c-2.3,0-4.5,0.1-6.8,0c-2.6-0.1-2.9-0.5-3.1-3
		c0-0.7,0-1.4,0-2c0-21.2,0-42.5,0-63.7c0-5.1,0-5.1,5-5.1c1.7,0,3.4,0,5.1,0c3.4,0.1,3.7,0.4,3.8,3.7c0,2.8,0,5.6,0,8.5
		C614.8,376.3,614.8,384.6,614.8,393z"/>
</g>
</svg>
