<?xml version="1.0" encoding="utf-8"?>
<!-- Generator: Adobe Illustrator 17.1.0, SVG Export Plug-In . SVG Version: 6.00 Build 0)  -->
<!DOCTYPE svg PUBLIC "-//W3C//DTD SVG 1.1//EN" "http://www.w3.org/Graphics/SVG/1.1/DTD/svg11.dtd">
<svg version="1.1" id="Layer_1" xmlns="http://www.w3.org/2000/svg" xmlns:xlink="http://www.w3.org/1999/xlink" x="0px" y="0px"
	 viewBox="0 0 681.3 512" enable-background="new 0 0 681.3 512" xml:space="preserve">
<g>
	<path fill="#FFFFFF" d="M41,240.2c2.2-12,4.1-23.9,8.4-35.4c15.7-42.3,45.8-69.6,87.5-84.9c31.5-11.5,63.9-12.1,96.7-7.6
		c12.3,1.7,24.2,4.8,36,8.6c4.1,1.3,5.9,3.4,5.8,7.9c-0.3,10.3-0.1,20.7-0.1,31c0,4-1,5.5-5.3,3.8c-24.2-9.5-49.6-13.5-75.4-13.1
		c-29.6,0.4-56.7,8.4-78.2,30.2c-15,15.3-23.4,34-26.6,55c-4.6,30.1-0.9,58.7,16.7,84.3c17.9,26,43.3,39.9,74.5,43.3
		c22.5,2.4,44.6,0.3,65.9-8c3.8-1.5,5.3-3.6,5.3-7.8c-0.2-17.5-0.2-35,0-52.6c0-4.4-1.5-5.8-5.8-5.7c-18.5,0.2-37,0.1-55.6,0.1
		c-6.7,0-6.8-0.1-6.8-6.6c0-9.8,0.1-19.7-0.1-29.5c-0.1-3.9,1.4-5.2,5.3-5.2c33.4,0.1,66.7,0.1,100.1,0c4.2,0,5.4,1.6,5.4,5.6
		c-0.1,39.5-0.1,79.1,0,118.6c0,3.5-1.4,5.4-4.3,7.1c-20.4,11.9-42.4,19.5-65.7,22.9c-32.3,4.8-64,3.1-94.3-9.8
		c-50.9-21.8-80.7-60.1-88.6-115.2c-0.1-1-0.5-1.9-0.7-2.9C41,262.9,41,251.6,41,240.2z"/>
	<path fill="#FFFFFF" d="M41,33c2.3,0,4.7-0.1,7-0.1c194.8,0,389.6,0,584.5,0c9.3,0,9.3,0,9.3,9.1c0,7.3,0,14.7,0,22
		c0,7.1,0,7.1-7.3,7.1c-0.3,0-0.7,0-1,0c-195.5,0-391,0-586.5,0c-2,0-4-0.1-6-0.1C41,58.4,41,45.7,41,33z"/>
	<path fill="#FFFFFF" d="M41,443.5c2.3,0,4.7-0.1,7-0.1c194.8,0,389.6,0,584.5,0c9.3,0,9.3,0,9.3,9.1c0,7.3,0,14.7,0,22
		c0,7.1,0,7.1-7.3,7.1c-0.3,0-0.7,0-1,0c-195.5,0-391,0-586.5,0c-2,0-4-0.1-6-0.1C41,468.9,41,456.2,41,443.5z"/>
	<path fill="#FFFFFF" d="M408.4,301.1c3.7-8.1,6.9-15.2,10.1-22.3c17.1-38,34.2-76.1,51.2-114.1c1.4-3.1,3.2-4.6,6.8-4.6
		c3.7,0,5.1,2.1,6.5,5c19.6,43.1,39.2,86.2,58.9,129.3c0.7,1.6,1,3.5,3.3,5c3.1-10.4,6.2-20.5,9.3-30.7
		c14.7-48.7,29.4-97.4,43.9-146.1c1.1-3.6,2.9-4.7,6.5-4.7c10.5,0.1,21,0,31.5,0.1c5.7,0,6.1,0.6,4.3,6.2
		c-18.6,60.2-37.2,120.5-55.9,180.7c-8.8,28.5-17.6,57-26.5,85.6c-0.9,2.9-1,6.5-5.6,6.3c-4.6-0.2-8.7,0.6-11.4-5.3
		c-14-31.6-28.5-62.9-42.8-94.3c-7.1-15.6-14.2-31.3-21.4-46.9c-0.7-1.4-0.8-3.8-2.7-3.8c-1.8,0.1-2,2.4-2.6,3.9
		c-20.7,47-41.4,94-62.2,141c-2.1,4.8-8.8,7.2-13.6,5c-2.1-1-2.3-3.2-2.9-5c-9.2-29.5-18.3-58.9-27.5-88.4
		c-16.4-52.7-32.7-105.4-49.1-158.2c-2.2-7.2-4.3-14.4-6.7-21.5c-1.2-3.7-0.3-5.3,3.7-5.3c11.8,0.1,23.7,0.2,35.5,0
		c4.4-0.1,5.1,2.9,6,5.9c7.8,26.2,15.6,52.4,23.4,78.6c9.5,31.8,18.9,63.6,28.4,95.4C407.2,298.6,407.5,299.2,408.4,301.1z"/>
</g>
</svg>
