<?xml version="1.0" encoding="utf-8"?>
<!-- Generator: Adobe Illustrator 17.1.0, SVG Export Plug-In . SVG Version: 6.00 Build 0)  -->
<!DOCTYPE svg PUBLIC "-//W3C//DTD SVG 1.1//EN" "http://www.w3.org/Graphics/SVG/1.1/DTD/svg11.dtd">
<svg version="1.1" id="Layer_1" xmlns="http://www.w3.org/2000/svg" xmlns:xlink="http://www.w3.org/1999/xlink" x="0px" y="0px"
	 viewBox="0 0 1167.2 512" enable-background="new 0 0 1167.2 512" xml:space="preserve">
<g>
	<path fill="#FFFFFF" d="M723.7,167.6c-16.4,46.9-39.1,90.5-58.2,135.6c-3.3,7.9-7.7,11.5-16.3,10.4c-5.6-0.7-11.3-0.1-17-0.1
		c-10.9,0-11-0.2-11.5-11.4c-0.6-11.8-0.7-23.7-1.4-35.5c-1.8-32.8-2.7-65.7-3.9-98.5c-0.6-14.8-0.8-29.6-2-44.4
		c-0.5-6.5,1.9-8.2,7.6-8.1c6.7,0.1,13.5,0.2,20.2,0c6.1-0.2,9,2.1,8.8,8.5c-0.2,7,0.3,14,0.2,21c-0.4,39.6,2.6,79.2,1.2,118.7
		c2,0.7,2.1-0.7,2.3-1.4c17.1-47.4,38.8-93,58-139.6c2.2-5.3,5.4-7.4,11.1-7.2c7,0.3,14,0.5,21,0c8-0.6,10.2,2.9,10.1,10.4
		c-0.6,44.5,2.6,88.9,1.2,133.4c0,1.1,0.1,2.1,0.2,3.7c2.6-1.6,2.6-4.2,3.3-6.3c15.9-45.9,36.4-89.9,54.7-134.8
		c1.8-4.3,4.5-6.4,9.2-6.3c7.5,0.1,15.1,0.1,22.6,0c6.8-0.1,7.8,2.4,5.1,8.4c-13.8,30.1-27.3,60.4-40.9,90.6
		c-11,24.3-22.1,48.6-32.9,73c-2.3,5.3-5.7,8.9-11,11c-10.2,4.1-20.5,8.4-30.6,12.8c-6.2,2.8-8.8,1.3-9-5.7
		c-0.4-14.8-0.9-29.6-1.2-44.4c-0.5-28.2-3.8-56.5-0.9-84.8C723.9,173.5,723.7,170.5,723.7,167.6z"/>
	<path fill="#FFFFFF" d="M1117.4,367.5c-2,1.9-4,1.8-5.8,1.8c-58.5,0.5-116.9-0.7-174.7-11.2c-20.1-3.6-40.1-8.7-57.9-19.5
		c-11.1-6.7-18.6-15.9-22-28.7c-3.1-11.5-7.3-13.6-19.1-10.6c-9.1,2.4-18.2,5.4-26.5,9.9c-63.1,34.1-131.7,50.1-201.9,60.3
		c-52.5,7.7-105.3,12.8-158.2,16.5c-52.1,3.7-104.3,6.4-156.5,8.2c-43.3,1.5-86.7,2.1-130,3.4c-47.7,1.4-95.4,0.7-143.1,1.1
		c-1.9,0-3.7,0-5.6-1.8c11,0,22,0.2,33,0c51.7-1.1,103.4-1.8,155.1-3.5c43-1.4,86.1-3.4,129.1-6.5c98.9-7,197.6-16,294.7-36.8
		c63-13.5,123.9-32.8,180.4-64.5c17.8-10,35.8-20,56.5-23.5c5-0.8,11.3-3.9,14.6-0.4c3.4,3.5-1.3,8.9-2.7,13.4
		c-8.5,25.7-2.1,43.1,21.1,56.9c25.2,14.8,53.4,20,81.6,24.4c43.2,6.8,86.7,9,130.4,10C1112.3,366.3,1114.8,365.7,1117.4,367.5z"/>
	<path fill="#FFFFFF" d="M110.3,113.5c12.9-0.7,24.9,1.7,36.6,6.3c5.4,2.1,6.9,5.1,4.3,10.5c-2.5,5.1-4.4,10.4-6.2,15.8
		c-1.7,5.1-4.2,6.8-9.5,4.2c-11.7-5.8-24.4-6.4-37.2-5.2c-15.6,1.5-25.7,12.9-24.1,26.8c1,8.6,7,13.9,13.5,18.2
		c8.9,6,18.6,10.9,27.5,17c33.4,22.9,34.3,68.9,2.2,93.5c-12.6,9.7-27.2,14.1-42.7,15.6c-18.8,1.8-37-1.2-54.6-8.3
		c-7-2.8-10.1-6.5-5.8-14c2.4-4.2,4.1-8.8,5.7-13.4c2-5.9,4.5-7.5,10.6-4.2c13.1,7,27.3,10.1,42.2,8.7c12.4-1.2,23.3-5.5,28.3-18.1
		c3.6-9.3,2.1-18-4.7-25.5c-5-5.5-11.2-9.2-17.5-12.9c-6-3.6-12.1-7.1-17.9-11c-41.5-27.8-27.1-80.3,11.1-96.8
		C84.4,115.2,97.1,112.6,110.3,113.5z"/>
	<path fill="#FFFFFF" d="M372.4,202.8c-6.3,34-12.1,65.7-18.1,97.4c-0.8,4.4,0.2,10.6-4.4,12.3c-6.5,2.4-14,1.9-20.7,0.3
		c-4.8-1.2-1.9-6.1-1.4-9.1c4.2-23.6,8.8-47.1,13.3-70.6c3.6-19,7.5-38,10.7-57.1c1.3-8,4.2-11.4,13-11c24.8,1.2,18.5-4.6,27.8,19.9
		c10.7,28.2,22.6,56,29.9,85.5c4.3-31.2,10.7-62,16.7-92.8c0.8-4.1,0-10,4.3-11.4c6.6-2.2,14-1.9,20.7-0.2c4.5,1.1,1.9,6.2,1.3,9.2
		c-3.5,19.9-7.5,39.7-11.2,59.5c-4.3,22.7-8.9,45.4-12.7,68.3c-1.4,8-4.4,11.3-13,10.9c-20.6-0.9-15.8,2.8-23-16.2
		C393.8,266.8,380.7,236.6,372.4,202.8z"/>
	<path fill="#FFFFFF" d="M511.4,313.5c-12.1,0-24.2-0.1-36.4,0c-5.4,0.1-7.2-1.9-6.2-7.3c8.6-44.6,17-89.3,25.4-134
		c1-5.1,3.3-7.2,8.7-7.1c22.9,0.2,45.8,0.2,68.7,0c5.7,0,8.1,1.9,6.2,7.7c-0.1,0.3-0.1,0.5-0.2,0.8c-2.4,15.1-2.4,15.1-17.3,15.1
		c-11.6,0-23.2,0.1-34.7,0c-4.9-0.1-7.4,1.8-8.1,6.8c-1.1,7.4-2.7,14.8-4.3,22.2c-1.2,5.2,0.4,7.5,6,7.4c12.1-0.2,24.2,0.2,36.4-0.1
		c6.7-0.2,9.9,1.5,7.5,8.7c-0.3,0.8-0.2,1.6-0.4,2.4c-2.2,12.5-2.2,12.5-14.7,12.5c-11,0-22.1,0.2-33.1-0.1c-5.3-0.1-7.8,2-8.7,7.2
		c-1.4,8.8-2.8,17.6-5,26.1c-1.8,7.1,1.2,8.2,7.3,8c14-0.3,28,0.1,42-0.1c6.2-0.1,8.2,2.2,7,8.3c-3.9,18.4-1.8,15.1-17.9,15.4
		C530.2,313.6,520.8,313.5,511.4,313.5z"/>
	<path fill="#FFFFFF" d="M1087.6,313.5c-10.8,0-21.6,0-32.3,0c-11.2,0-11.2,0-9.2-10.6c6.1-32.3,12.3-64.5,18.5-96.7
		c2.1-11.1,4.4-22.2,6.2-33.3c0.9-5.4,3.1-7.8,9-7.7c22.6,0.3,45.3,0.3,67.9,0c6.3-0.1,8.3,2.4,6.8,8.3c-0.5,2.1-1,4.2-1.2,6.3
		c-0.7,6.4-3.7,9.3-10.6,9c-13.2-0.5-26.4,0.1-39.6-0.2c-5.8-0.2-8.4,2.1-9.2,7.6c-1.2,7.4-2.3,14.9-4.1,22.2
		c-1.3,5.3,0.5,6.8,5.5,6.7c12.7-0.2,25.3,0.2,38-0.2c6.4-0.2,8.4,2.1,6.7,8.1c-0.5,1.8-1,3.7-1.1,5.5c-0.5,7.6-4.1,10.6-12,10.2
		c-11.8-0.6-23.7,0.1-35.6-0.3c-5.5-0.2-7.8,2.2-8.6,7.2c-1.4,8.5-3,17-4.8,25.4c-1.3,6.1,0.2,9,7.1,8.9c14-0.3,28,0.2,42-0.2
		c6.8-0.2,8.2,2.3,7.1,8.7c-2.7,15.1-2.4,15.1-17.4,15.1C1107,313.5,1097.3,313.5,1087.6,313.5z"/>
	<path fill="#FFFFFF" d="M214.2,163.7c10.3-0.4,19.4,0.7,28.2,3.5c20.3,6.6,30.9,24.4,27,45.4c-4.7,25.9-24.1,43.1-51.6,45.6
		c-7.2,0.7-14.4,2.2-21.7,0.5c-4.6-1.1-5.2,2.5-5.9,5.8c-2.5,13.2-5.3,26.4-7.5,39.7c-1.1,6.6-3.6,9.6-11,9.4
		c-21.2-0.6-18.2,1.3-14.6-17.7c7.6-40.2,15.4-80.3,22.7-120.6c1.2-6.7,4.5-9.3,10.5-9.8C198.6,164.8,206.9,163,214.2,163.7z
		 M211.6,236.4c7.1-0.1,17.5-3.6,25-13.3c10-12.9,6-31.3-7.9-35.4c-5.6-1.6-11.4-2.4-17.5-1.2c-4.6,0.9-7,2.4-7.8,7.3
		c-1.6,10.6-4,21.1-5.9,31.7C195.7,235.8,196.2,236.4,211.6,236.4z"/>
	<path fill="#FFFFFF" d="M970.9,280.3c15.7-36.7,34-70.2,50-104.9c3.5-7.6,7.7-10.8,16.5-10.5c19.4,0.7,19.6,0.3,10.6,17.7
		c-21.5,41.6-43.3,83.1-64.9,124.7c-2.3,4.3-5,6.6-10.1,6.2c-4.6-0.3-9.2-0.5-13.7,0c-7.9,1-10.9-2.4-11.8-10
		c-5.2-43.8-10.8-87.5-16.2-131.3c-0.6-4.6,0.7-7.3,5.9-7.2c24.9,0.7,21.1-4.6,23.8,20.4C964.3,216.5,967.5,247.5,970.9,280.3z"/>
	<path fill="#FFFFFF" d="M878.1,193.4c-2.5,5.4-4.8,10.4-7.1,15.4c-3.9,8.6-9.3,16.8-11.5,25.8c-5.6,22.9-23.7,29.9-42.8,36.4
		c-2.1-2.5,0.3-4.5,1.2-6.4c15.4-31.1,31.1-62.1,46.3-93.3c2.8-5.7,6.4-8.2,12.6-7.5c2.1,0.2,4.3,0,6.5,0c17.8,0,18.1,0,20.4,17.4
		c5.4,41.3,10.2,82.7,15.6,124.1c0.8,6.5-1.4,7.9-7.2,8c-19.3,0.5-19.6,0.6-22.1-18.6c-1.3-10.3-3.9-20.7-1-31.2
		c1.5-5.7-3.2-10-3.6-15.5c-1.2-16.1-3-32.1-4.6-48.2C880.5,197.8,880.9,195.5,878.1,193.4z"/>
	<path fill="#FFFFFF" d="M311.6,165.1c0.8,0,1.6,0,2.4,0c11.4,0,11.5,0.1,9.4,11.2c-8,42.6-16.3,85.1-24.1,127.7
		c-1.3,7.2-4.3,9.8-11.7,9.6c-21.6-0.5-17.9,1.4-14.5-17.7c7.1-39.7,14.9-79.3,22.4-119C297.7,165.1,297.7,165.1,311.6,165.1z"/>
</g>
</svg>
