<?xml version="1.0" encoding="utf-8"?>
<!-- Generator: Adobe Illustrator 17.1.0, SVG Export Plug-In . SVG Version: 6.00 Build 0)  -->
<!DOCTYPE svg PUBLIC "-//W3C//DTD SVG 1.1//EN" "http://www.w3.org/Graphics/SVG/1.1/DTD/svg11.dtd">
<svg version="1.1"
	 id="Layer_1" xmlns:rdf="http://www.w3.org/1999/02/22-rdf-syntax-ns#" xmlns:inkscape="http://www.inkscape.org/namespaces/inkscape" xmlns:svg="http://www.w3.org/2000/svg" xmlns:cc="http://creativecommons.org/ns#" xmlns:sodipodi="http://sodipodi.sourceforge.net/DTD/sodipodi-0.dtd" xmlns:dc="http://purl.org/dc/elements/1.1/" sodipodi:docname="logo-tedx--black.svg" inkscape:version="0.91 r13725"
	 xmlns="http://www.w3.org/2000/svg" xmlns:xlink="http://www.w3.org/1999/xlink" x="0px" y="0px" viewBox="0 0 1756 512"
	 enable-background="new 0 0 1756 512" xml:space="preserve">
<sodipodi:namedview  inkscape:cy="90.621498" inkscape:cx="945.60485" inkscape:zoom="0.18929683" showgrid="false" guidetolerance="10" gridtolerance="10" objecttolerance="10" bordercolor="#666666" pagecolor="#ffffff" id="namedview8520" borderopacity="1" inkscape:current-layer="Layer_1" inkscape:window-maximized="0" inkscape:window-y="0" inkscape:window-x="0" inkscape:window-width="1486" inkscape:pageshadow="2" inkscape:window-height="800" inkscape:pageopacity="0">
	</sodipodi:namedview>
<path id="path8488" fill="#FFFFFF" d="M1434.3,0l105.5,154l-109.5,161h115.4l46.8-79.6l48,79.6h115.4l-109.5-161L1751.8,0h-115.4
	l-44,76.1L1549.7,0H1434.3z M0,1v131h143.2v380h157.3V132h143.2V1H0z M468.2,1v511H899V381H625.6v-63.7h273.3V195.6H625.6V132h273.3
	V1H468.2z M925.4,1v511H1153c178.2,0,261.2-99.5,261.2-256.3C1414.2,127,1354.1,1,1183.8,1H925.4L925.4,1z M1082.8,132h50.1
	c113.8,0,123.9,89.5,123.9,121.6c0,48-14.3,127.5-112.4,127.5h-61.6V132z"/>
</svg>
