<?xml version="1.0" encoding="utf-8"?>
<!-- Generator: Adobe Illustrator 22.0.0, SVG Export Plug-In . SVG Version: 6.00 Build 0)  -->
<svg version="1.1" id="Layer_1" xmlns="http://www.w3.org/2000/svg" xmlns:xlink="http://www.w3.org/1999/xlink" x="0px" y="0px"
	 viewBox="0 0 1878.1 27.4" style="enable-background:new 0 0 1878.1 27.4;" xml:space="preserve">
<style type="text/css">
	.st0{opacity:0.41;}
	.st1{opacity:0.41;fill:none;stroke:#000000;stroke-width:0.75;stroke-miterlimit:10;stroke-dasharray:5;}
</style>
<g id="m8pHIl.tif" class="st0">
	<g>
		<path d="M28.9,8C29,8.1,29,8.2,29,8.3c0.1,0.1,0.1,0.1-0.1,0.2c-0.6,0.3-1.2,0.7-1.9,1c-3.8,2.1-7.6,4.2-11.4,6.3
			c-0.5,0.3-1,0.5-1.5,0.8c-0.1,0.1-0.1,0.1-0.1,0.1c0.7,1.1,0.9,2.3,0.4,3.5c-0.5,1.3-1.5,2-2.9,2.3c-0.9,0.1-1.8-0.1-2.6-0.5
			c-0.9-0.6-1.4-1.4-1.6-2.5c-0.1-0.9,0-1.8,0.5-2.6c0.6-0.9,1.4-1.4,2.5-1.6c0.6-0.1,1.1-0.1,1.6,0c0.1,0,0.1,0,0.2,0
			c0.9-0.5,1.8-1,2.8-1.6c0.1-0.1,0.1-0.1,0-0.1c-0.9-0.5-1.8-1-2.8-1.6c-0.1-0.1-0.1-0.1-0.2,0c-1,0.3-2,0.1-2.9-0.5
			c-0.9-0.6-1.4-1.5-1.6-2.5c-0.1-0.9,0-1.8,0.5-2.6C8.7,5.6,9.6,5,10.7,4.8c0.9-0.1,1.8,0,2.6,0.5c0.9,0.6,1.5,1.4,1.6,2.5
			c0.1,0.9,0,1.8-0.5,2.6c0,0.1-0.1,0.1-0.1,0.1c-0.1,0.1-0.1,0.1,0,0.1c0.5,0.3,0.8,0.5,1.3,0.7c0.6,0.3,1.1,0.6,1.7,0.9
			c0.1,0.1,0.1,0.1,0.2,0c2.8-1.6,5.6-3.1,8.4-4.7c0.2-0.1,0.4-0.3,0.6-0.3c0.7-0.3,1.4-0.1,2.1,0.3c0,0,0,0,0.1,0
			C28.7,7.8,28.8,7.9,28.9,8z M12.4,9.5c0.5-0.6,0.6-1.6-0.2-2.3c-0.6-0.5-1.6-0.5-2.2,0.3c-0.5,0.6-0.5,1.6,0.3,2.2
			C10.9,10.2,11.9,10.1,12.4,9.5z M12.3,17.7c-0.6-0.5-1.6-0.6-2.3,0.2c-0.5,0.6-0.5,1.6,0.3,2.2c0.6,0.5,1.6,0.5,2.2-0.3
			C13,19.3,12.9,18.2,12.3,17.7z"/>
		<path d="M28.6,19.6c-0.2,0.1-0.5,0.3-0.7,0.4c-0.6,0.2-1.2,0.1-1.8-0.1c-2.5-1.4-5-2.8-7.5-4.2c-0.1,0-0.1,0-0.1-0.1
			s0.1-0.1,0.1-0.1c0.6-0.4,1.3-0.7,1.9-1.1c0.1-0.1,0.1-0.1,0.3,0c2.7,1.5,5.4,3,8.1,4.5c0.1,0.1,0.1,0.1,0.1,0.2
			c-0.1,0.1-0.1,0.2-0.2,0.3C28.8,19.4,28.7,19.5,28.6,19.6z"/>
	</g>
</g>
<line class="st1" x1="29.1" y1="13.7" x2="1864.6" y2="13.7"/>
</svg>
