<?xml version="1.0" encoding="utf-8"?>
<!-- Generator: Adobe Illustrator 22.0.0, SVG Export Plug-In . SVG Version: 6.00 Build 0)  -->
<svg version="1.1" id="Layer_1" xmlns="http://www.w3.org/2000/svg" xmlns:xlink="http://www.w3.org/1999/xlink" x="0px" y="0px"
	 viewBox="0 0 682.8 512" style="enable-background:new 0 0 682.8 512;" xml:space="preserve">
<g>
	<path d="M0.1,236.7c2.8-6.2,2.5-13.1,4.1-19.6c13.8-58.6,50-97.2,106-116.8c50.3-17.7,100.9-14.3,151.1,1.9
		c2.9,0.9,4.3,2.1,4.2,5.5c-0.2,12.9-0.2,25.8,0,38.7c0.1,3.9-0.9,4.4-4.5,3c-28.6-11-58.4-15.9-89-15
		c-40.1,1.3-74.6,14.4-98.3,48.7c-16.1,23.3-21.5,49.8-20.6,77.7c1,31.6,11.3,59.8,33.9,82.5c25.5,25.5,57.1,35.3,92.5,34.6
		c19.5-0.3,38.4-3.1,56.5-10.8c3.3-1.4,4.4-3.1,4.4-6.7c-0.2-21.2-0.2-42.5,0-63.7c0-4.4-1.2-5.3-5.4-5.3c-22.4,0.2-44.7,0-67.1,0.2
		c-4.3,0-5.4-1.1-5.3-5.3c0.3-12.1,0.2-24.3,0-36.4c0-3.1,0.7-4.2,4-4.2c39.1,0.1,78.1,0.1,117.2,0c3.2,0,4.1,0.9,4.1,4.1
		c-0.1,45.9-0.1,91.8,0,137.6c0,3.2-1.3,4.7-3.8,6.2c-28.3,16.9-59.1,25.8-91.9,28.4c-32.2,2.6-63.7-0.8-93.4-14.1
		c-55.9-25-88.5-68-97.6-128.7c-0.2-1.3,0.6-3.1-1.3-3.9C0.1,262.5,0.1,249.6,0.1,236.7z"/>
	<path d="M682.7,1.2c0,12.3-0.2,24.6,0.1,37c0.1,4.8-0.9,6.7-6.1,6.4c-8.1-0.5-16.3-0.1-24.4-0.1c-217.4,0-434.8,0-652.2,0
		C0.1,31,0.2,17.5,0,4c0-2.4,0.5-3.4,2.9-2.9c0.7,0.1,1.5,0,2.3,0C231,1.2,456.9,1.2,682.7,1.2z"/>
	<path d="M0.1,467.7c225.1,0,450.1,0,675.2,0c8.5,0,7.4-1,7.5,7.7c0.1,10.4-0.1,20.9,0.1,31.3c0,3.1-0.8,4.7-4.1,4.3
		c-1.5-0.2-3,0-4.5,0c-224.7,0-449.3,0-674,0C0.1,496.5,0.1,482.1,0.1,467.7z"/>
	<path d="M492.5,240.4c-23.4,53-46.2,105-69.1,156.9c-1.9,4.3-4,8.6-5.6,13c-1.2,3.2-3,4.1-6.3,4c-8.8-0.1-8.8,0-11.4-8.3
		c-31.3-100.6-62.5-201.2-93.9-301.7c-1.4-4.5-1.2-6.1,4.3-5.9c13.1,0.4,26.2,0.3,39.2,0c4-0.1,5.5,1.2,6.6,4.9
		c19.6,66.4,39.4,132.7,59.1,199c0.4,1.4,0.9,2.9,1.4,4.3c2.1-0.9,2.2-3,2.9-4.7c22.5-49.8,44.9-99.7,67.3-149.5
		c1.5-3.3,2.4-6.1,7.4-6.1c5.1,0,6.3,2.7,7.9,6.3c22.3,49.1,44.6,98.1,66.9,147.2c0.8,1.9,1.8,3.7,3.4,6.8c2.8-9,5.2-16.7,7.6-24.5
		c17.9-59.4,35.8-118.8,53.5-178.2c1.3-4.2,2.9-5.6,7.3-5.5c12.1,0.3,24.3,0.3,36.4,0c4.9-0.1,5.4,1.2,4,5.6
		c-23.4,75-46.6,150.2-69.8,225.3c-8.2,26.6-16.3,53.1-24.6,79.7c-0.7,2.2-0.4,6-4.5,5.1c-4.3-0.9-9.4,2.8-12.5-4.1
		c-24.7-54.8-49.8-109.5-74.8-164.2C494.5,244.4,493.7,242.9,492.5,240.4z"/>
</g>
</svg>
