<?xml version="1.0" encoding="utf-8"?>
<!-- Generator: Adobe Illustrator 22.0.0, SVG Export Plug-In . SVG Version: 6.00 Build 0)  -->
<svg version="1.1" id="Layer_1" xmlns="http://www.w3.org/2000/svg" xmlns:xlink="http://www.w3.org/1999/xlink" x="0px" y="0px"
	 viewBox="0 0 185.9 731.2" style="enable-background:new 0 0 185.9 731.2;" xml:space="preserve">
<g id="KifytK.tif">
	<g>
		<path d="M162.1,731.2c7.9,0,15.8,0,23.8,0c0-20,0-40,0-60c-1.1-0.1-2.2-0.1-3.3-0.1c-5.5,0-11.1,0.1-16.6-0.3
			c-3.9-0.3-7.7-0.8-11.5-1.5c-4.8-1-9.5-2.4-13.9-4.8c-3.9-2.1-7.2-4.7-9.8-8.4c-1.9-2.7-3.2-5.7-4.3-8.8
			c-2.6-7.7-3.8-15.6-4.6-23.6c-0.4-3.5-0.6-7-0.8-10.5c-0.2-4-0.4-8.1-0.5-12.1c-0.2-12.1,0-24.2-0.2-36.3
			c-0.1-7.2,0-14.4-0.2-21.6c-0.1-4.6-0.1-9.3-0.2-13.9c-0.1-5.7-0.2-11.4-0.4-17.1c-0.1-5.6-0.3-11.1-0.6-16.7
			c-0.2-4.6-0.4-9.2-0.7-13.8c-0.3-5.2-0.9-10.4-1.7-15.6c-1.3-9-3.1-18-5.5-26.8c-2.7-10-6.3-19.7-11.1-29
			c-6.3-11.9-14.7-22.1-25-30.7c-6.4-5.3-13.4-9.8-20.8-13.6c-0.3-0.1-0.7-0.2-0.8-0.6c0.2-0.3,0.5-0.4,0.8-0.6
			c1.6-1,3.2-1.9,4.8-2.9c10.5-6.5,19.9-14.2,28.1-23.5c8-9.1,14.4-19.2,19-30.4c3.4-8.3,5.7-16.9,7.5-25.7
			c2.2-10.8,3.6-21.8,4.6-32.8c0.6-5.9,1-11.9,1.3-17.9c0.2-4.2,0.4-8.3,0.5-12.5c0.2-6,0.3-12,0.4-18c0.1-15.9-0.1-31.9,0.2-47.8
			c0.1-5.5,0-11,0.2-16.5c0.1-5.7,0.2-11.4,0.4-17.2c0.2-6,0.5-11.9,1.2-17.9c0.6-5,1.4-9.9,2.8-14.7c1.3-4.5,3-8.8,5.6-12.7
			c2.7-4.1,6.3-7.2,10.9-9.3c1.6-0.7,3.2-1.3,4.9-1.9c5.8-1.8,11.7-2.6,17.7-3.1c5.9-0.5,11.8-0.4,17.7-0.4c0.9,0,1.8,0,2.7,0
			c0.4,0,0.8,0,1.2-0.1c0-19.9,0-39.8,0-59.8c-9.2,0-18.3,0-27.5,0c-0.4,0.1-0.7,0.1-1.1,0.1c-2.9,0-5.7,0.2-8.6,0.4
			c-4,0.3-8,0.8-12,1.4c-8.6,1.3-16.6,4.2-24.1,8.6c-10.2,6-18.5,14.1-25.1,23.9c-7,10.3-11.5,21.7-14.5,33.8
			c-2.4,9.8-3.5,19.7-4.4,29.7c-0.3,3.7-0.6,7.5-0.8,11.2c-0.3,4.9-0.6,9.9-0.8,14.8c-0.2,4.8-0.4,9.5-0.5,14.3
			c-0.2,4.6-0.3,9.3-0.4,13.9c-0.1,3.4-0.1,6.7-0.2,10.1c-0.2,5.8-0.1,11.5-0.2,17.3c-0.1,10-0.1,20-0.3,30c0,0.3,0,0.6,0,0.9
			c-0.2,5.6-0.3,11.3-0.5,16.9c-0.1,1.8-0.1,3.6-0.2,5.5c-0.2,4-0.4,8-0.7,11.9c-0.2,3.6-0.5,7.2-0.8,10.8c-0.4,4.7-1,9.5-1.6,14.2
			c-0.9,6.5-2.3,12.9-4.3,19.2c-3.2,9.7-7.8,18.6-14.6,26.2C33,326,20.8,331.8,6.6,333.6c-2.2,0.3-4.4,0.4-6.6,0.6
			c0,20.7,0,41.5,0,62.2c0.9,0.1,1.7,0.2,2.6,0.2c3.7,0.2,7.3,0.7,10.8,1.5c7.9,1.8,15.2,5.1,21.6,10.1c7.3,5.7,12.8,12.8,17.1,21
			c3.1,6,5.4,12.3,7.1,18.9c1.9,7.5,2.9,15.2,3.7,23c0.5,4.7,0.9,9.5,1.2,14.2c0.3,5,0.6,10.1,0.8,15.1c0.2,3.4,0.3,6.7,0.4,10.1
			c0.1,5.8,0.3,11.6,0.4,17.4c0.1,7.2,0,14.4,0.2,21.5c0.1,7,0.1,14,0.2,21c0.1,7.7,0.2,15.3,0.4,23c0.1,3.6,0.2,7.3,0.3,10.9
			c0.1,4.2,0.3,8.4,0.5,12.6c0.1,3.4,0.3,6.7,0.6,10.1c0.4,4.2,0.8,8.3,1.4,12.4c1,7.3,2.2,14.5,3.9,21.7
			c2.9,12.1,7.5,23.6,14.1,34.2c3.9,6.3,8.5,11.9,14.1,16.8c5.4,4.7,11.4,8.4,17.8,11.2c4.8,2.1,9.7,4,14.8,5
			c3.7,0.8,7.5,1.3,11.3,1.6c3.2,0.3,6.5,0.5,9.7,0.7c2.1,0.1,4.2,0.1,6.3,0.2C161.5,731.1,161.8,731.1,162.1,731.2z"/>
	</g>
</g>
</svg>
