<?xml version="1.0" encoding="utf-8"?>
<!-- Generator: Adobe Illustrator 22.0.0, SVG Export Plug-In . SVG Version: 6.00 Build 0)  -->
<svg version="1.1" id="Layer_1" xmlns="http://www.w3.org/2000/svg" xmlns:xlink="http://www.w3.org/1999/xlink" x="0px" y="0px"
	 viewBox="0 0 300 300" style="enable-background:new 0 0 300 300;" xml:space="preserve">
<path d="M300,147.5c-0.1-11.5-1.6-22.9-4.4-34C288.3,84.8,273.9,60.2,252,40c-26.8-24.5-58.3-37.8-94.5-39.8c-0.4-0.1-1,0-1.3,0
	s-1,0-1.3,0c-0.8,0-1.6,0.1-2.4-0.1c-1.6,0-3.2,0-4.9,0c-0.8,0.2-1.6,0-2.4,0.1c-0.4,0-1,0-1.3,0s-1,0-1.3,0
	c-5.7,0.3-11.3,1-16.9,1.8c-14.4,2.3-28,6.7-41.2,13.1C63.8,25.1,46.2,39.2,31.9,57.4C10.2,85.3-0.3,117,0,152.3
	c0.1,12.1,1.8,23.9,4.8,35.5c6.7,25.4,19.2,47.6,37.4,66.4c12.2,12.7,26.3,22.8,42.1,30.6c15.6,7.5,31.9,12.3,49.1,14.3
	c10.8,1.2,21.6,1.2,32.3,0c10.6-1.1,21-3.2,31.1-6.7c24.4-8,45.3-21.5,62.9-40.3c10.6-11.3,19.2-24,25.9-38.1
	C295.5,193.2,300.3,170.9,300,147.5z M22.4,117.9c5.6-22.2,16.1-41.5,31.8-58c18.7-19.8,41.2-32.5,67.7-38.3
	c8.3-1.9,16.8-2.9,25.4-3c11.5-0.2,22.9,1.1,34,3.6c1.1,0.2,1.3,0.7,1.3,1.8c0,16.5,0,32.8,0,49.4c0,1-0.1,1.3-1.2,1.2
	c-1.3-0.1-2.6,0-4.2,0c-0.8,0-1-0.2-1-1c0-9.2,0-18.7,0-27.9c0-4.2,0-8.3,0-12.3c0-1-0.2-1.1-1.1-1c-7,0-13.9,0-21,0
	c-1,0-1.2,0.2-1.2,1.2c0,13.3,0,26.6,0,39.8c0,1.1-0.2,1.3-1.3,1.3c-1.3-0.1-2.6,0-4.1,0c-0.8,0-1-0.2-1-1c0-6.7,0-13.3,0-19.9
	c0-6.8,0-13.5,0-20.4c0-1-0.2-1.1-1.1-1.1c-7,0-13.9,0-21,0c-1,0-1.2,0.2-1.2,1.2c0,13.3,0,26.6,0,39.8c0,1.1-0.2,1.3-1.3,1.3
	c-1.3-0.1-2.6,0-4.2,0c-0.7,0-0.8-0.1-0.8-0.8c0-1.6,0-3.2,0-4.8c0-11.9,0-23.6,0-35.6c0-1.1-0.2-1.2-1.2-1.2c-6.8,0-13.8,0-20.6,0
	c-1,0-1.2,0.1-1.2,1.2c0,12,0,24,0.1,35.9c0,1.1-0.1,1.4-1.3,1.4c-13.3,0-26.7,0-40,0c-1,0-1.2,0.2-1.2,1.2c0,14.7,0,29.5,0,44.2
	c0,1,0.2,1.1,1.1,1.1c10.2,0,20.5,0,30.7-0.1c0.1,0,0.4,0,0.7,0c-3.5,13.2-0.7,25.2,5.5,37c-0.4,0-0.7,0-1,0c-14.5,0-28.9,0-43.4,0
	c-1,0-1.2-0.1-1.2-1.2c0-4.1,0-7.9,0-11.9c0-2.3-0.1-4.4,0-6.7c0-1-0.1-1.1-1.1-1.1c-7.7,0-15.3,0-22.8,0c-0.4,0-0.8,0-1.3,0
	C20.2,128.1,21.2,123,22.4,117.9z M74.5,256.9c0,0.1,0,0.2,0,0.5c-13.9-9.8-25.4-21.8-34.6-35.9c0.2-0.4,0.5-0.2,1-0.2
	c11,0,21.8,0,32.8,0c0.7,0,1.1,0,1.1,1C74.5,233.8,74.5,245.3,74.5,256.9z M280.2,168.5c-3.5,24-12.8,45.4-28,64.2
	c-5.6,7-11.9,13.3-18.8,18.8c-0.4-0.1-0.2-0.4-0.2-0.7c0-24,0-48,0-71.9c0-0.7,0.1-1,0.7-1.3c2.9-2.2,3.8-5.6,2.9-9
	s-3.8-5.5-7.4-5.8c-3.4-0.1-6.6,2-7.8,5.3c-1.3,3.4-0.2,7.1,2.5,9.4c0.5,0.4,0.8,1,0.8,1.6c0,26,0,52,0,77.9c0,0.8-0.2,1.2-1,1.6
	c-15.9,10.8-33.4,17.9-52.4,21c-12,2-24,2.3-35.9,1c-1-0.1-0.8-0.7-0.8-1.2c0-10.2,0-20.5,0-30.7c0-3.4,0-6.7,0-10.2
	c0-0.7,0.1-1,0.8-1c11,0,22,0,33,0c0.7,0,0.8,0.2,0.8,1c0,5.4,0,10.8,0,16.2c0,0.7-0.1,1-1,1c-3,0-5.9,0-8.9,0c-0.7,0-1-0.2-1.3-0.7
	c-2.3-3-5.9-4.1-9.2-2.9c-3.4,1.2-5.5,4.6-5.4,8.2c0.1,3.6,2.6,6.6,6.1,7.5c3.1,0.8,6.5-0.4,8.5-3.1c0.4-0.5,0.8-0.7,1.4-0.7
	c5.8,0,11.4,0,17,0c1,0,1.1-0.2,1.1-1.1c0-10.9,0-21.7,0-32.6c0-1-0.2-1.1-1.1-1.1c-16.5,0-33,0-49.5,0c-1,0-1.1,0.2-1.1,1.1
	c0,15.8,0,31.6,0,47.3c0,1.3,0,1.3-1.3,1.2c-14.7-2.9-28.5-8-41.6-15.7c-0.4-0.2-0.7-0.5-0.7-1.2c0-13.4,0-26.7,0-40.1
	c0-0.5,0.1-0.8,0.8-0.8c2.5,0,5,0,7.7,0c0.5,0,1,0.2,1.2,0.7c2.2,2.9,5.8,4.1,9,2.9c3.4-1.1,5.6-4.3,5.5-7.8c0-3.6-2.3-6.7-5.6-7.8
	c-3.4-1.1-6.8,0.1-9,3c-0.4,0.4-0.7,0.7-1.3,0.7c-18.7,0-37.1,0-55.8,0c-0.5,0-1-0.1-1.2-0.7c-1.8-3.5-3.6-7.1-5.3-10.8
	c-0.4-0.8-0.2-1,0.7-1c14.9,0,29.6,0,44.6,0c0.5,0,1,0.1,1.3,0.5c2.3,2.9,5.8,3.7,9.1,2.5c3.2-1.2,5.5-4.6,5.4-8
	c-0.1-3.6-2.5-6.7-5.9-7.5c-3.5-1-7,0.4-8.9,3.4c-0.4,0.5-0.7,0.7-1.2,0.7c-15.8,0-31.6,0-47.5,0c-0.7,0-1-0.2-1.2-1
	c-1-3.1-1.9-6.3-2.6-9.5c-0.1-0.7-0.1-1.1,0.8-1.1c8.5,0,17,0,25.5,0c0.7,0,1,0.2,1.3,0.7c2.6,3.7,7.9,4.4,11.4,1.6
	c3.6-2.9,4.2-8.2,1.2-11.9c-2.9-3.5-8-3.7-11.5-0.8c-0.1,0.1-0.2,0.1-0.4,0.2c-1,1.8-2.4,1.8-4.2,1.8c-8.5,0-16.8,0-25.2,0
	c-0.8,0-1.1-0.1-1.3-1.1c-1.6-9.7-2.2-19.2-1.4-29c0-0.7,0.1-1,1-1c5.4,0,10.6,0,15.9,0c0.8,0,1,0.2,1,1c0,6.1,0,12.3,0,18.5
	c0,0.5,0,1,0.8,1.1c1.1,0.1,2.2,0.1,3.2,0.1c18,0,35.9,0,53.9,0c0.5,0,1.1,0,1.4,0.5c7.2,10.4,16.4,19.2,26.3,27.2
	c8.5,6.8,17.5,12.8,26.7,18.7c1,0.5,1.8,0.5,2.6,0c5.6-3.6,11.3-7.1,16.8-11c0.4-0.2,0.8-0.4,1.2-0.4c8.5,0,16.8,0,25.2,0
	c0.7,0,1,0.1,1,1c0,16.9,0,33.9,0,50.8c0,0.7-0.2,1.1-0.8,1.4c-3,2.3-4.1,6.1-2.6,9.5s4.4,5.4,8.3,5c3.4-0.1,6.3-2.6,7.1-6.1
	c0.7-3.2-0.1-6-2.6-8.2c-0.7-0.5-1-1.2-1-2c0-19.4,0-39.1,0-58.5c0-1-0.2-1.2-1.2-1.2c-7.4-0.1-14.7,0-22.2,0c-0.2,0-0.5,0-1,0
	c6.7-5.5,12.7-11.3,18.2-17.6c7.1-8.2,12.8-17.1,16.4-27.7c1.9-5.8,2.9-11.5,2.5-17.6c0-0.8,0.1-1.1,1-1.1c11.1,0,22.4,0,33.5,0
	c1,0,1,0.2,1,1.1c0,13.3,0,26.7,0,40c0,1,0.1,1.2,1.2,1.2c8.6,0,17.3,0,25.9,0C280.1,167.4,280.2,167.5,280.2,168.5z M281.2,158.3
	c0,0.7-0.2,0.8-1,0.8c-6.3,0-12.6,0-18.8,0c-0.8,0-1-0.2-1-1c0-16.9,0-33.8,0-50.7c0-0.7,0.2-1.1,0.8-1.4c3.6-2.9,4.2-7.8,1.4-11.4
	c-2.5-3.5-7.5-4.2-11-1.8c-4.4,3.1-4.7,9.8-0.2,13.3c0.5,0.4,0.8,0.8,0.7,1.4c0,2.9,0,5.8,0,8.6c0,0.7-0.1,1-0.8,1
	c-11.9,0-23.6,0-35.6,0c-0.7,0-1-0.2-1.1-1c-4.6-13.2-13.8-21.5-27.2-24.4c-11.3-2.4-21.8-0.2-30.7,7.5c-2.5,2.3-4.4,4.9-6,8
	c-0.1,0.2-0.2,0.7-0.5,1c-0.4-0.1-0.5-0.5-0.7-0.8c-4.2-8.5-11.1-13.2-20-15.5c-15.6-4.1-31.8,2.4-40.4,16.1c-0.4,0.7-0.8,1-1.6,1
	c-8.6,0-17,0-25.6,0c-1,0-1.1-0.2-1.1-1.1c0.1-9.1,0.1-18.3,0.1-27.5c0-1,0.2-1.1,1.1-1.1c13.4,0,26.7,0,40.1,0c1,0,1.2-0.2,1.2-1.2
	c0-12.1,0-24.1,0-36.2c0-1,0.2-1.2,1.2-1.2c1.3,0,2.9,0,4.3,0c0.8,0,1,0.2,1,1c0,6.7,0,13.3,0,20s0,13.5,0,20.3
	c0,0.8,0.1,1.1,1.1,1.1c7,0,13.9,0,21,0c1,0,1.1-0.2,1.1-1.1c0-13.3,0-26.7-0.1-40c0-1,0.1-1.3,1.2-1.2c1.3,0.1,2.6,0,4.1,0
	c1,0,1.1,0.2,1.1,1.1c0,11.9,0,23.6,0,35.6c0,1.6,0,3.2,0,4.9c0,0.5,0.1,0.8,0.8,0.8c7.1,0,14.4,0,21.5,0c1,0,0.7-0.4,0.7-1
	c0-7.9,0-15.7,0-23.6c0-5.6,0-11.1,0-16.8c0-0.8,0.1-1,1-1c1.4,0,3.1,0,4.6,0c0.5,0,0.8,0.1,0.8,0.8c0,11.1,0,22.4,0,33.5
	c0,2.4,0,4.8,0,7.1c0,0.5,0.1,0.8,0.8,0.8c7.1,0,14.4,0,21.5,0c0.8,0,0.7-0.4,0.8-1c0-2.9,0-5.8,0-8.6c0-15.7,0-31.3,0-47
	c0-1.3,0-1.3,1.2-1c18.2,6.3,34.5,16.1,48.5,29.4c1.4,1.3,2.9,2.9,4.3,4.4c-0.5,0-1,0-1.3,0c-7.5,0-15.1,0-22.7,0
	c-2.6,0-5.4,0.1-8,0.1c-0.7,0-1,0.2-1,1c0,3.5,0,6.8,0,10.2c0,0.7-0.1,1.1-0.8,1.6c-3.7,3-4.3,8.5-1.1,12.1
	c3.1,3.4,8.5,3.5,11.6,0.2c3.4-3.4,3.2-8.9-0.4-12.1c-1-0.8-1.1-1.3-1.1-2.4c0-2.4,0-2.4,2.4-2.4c9.5,0,19.1,0,28.5,0
	c0.7,0,1.2,0.1,1.6,0.8c12.8,16.2,21.3,34.5,25.6,54.8C281.2,134.7,282,146.3,281.2,158.3z"/>
</svg>
