<?xml version="1.0" encoding="utf-8"?>
<!-- Generator: Adobe Illustrator 22.0.0, SVG Export Plug-In . SVG Version: 6.00 Build 0)  -->
<svg version="1.1" id="Layer_1" xmlns="http://www.w3.org/2000/svg" xmlns:xlink="http://www.w3.org/1999/xlink" x="0px" y="0px"
	 viewBox="0 0 100 100" style="enable-background:new 0 0 100 100;" xml:space="preserve">
<style type="text/css">
	.st0{fill:#FFFFFF;}
</style>
<path class="st0" d="M0,89.6c0.9-3.2,1.7-6.3,2.6-9.5c0.1-0.4,0.2-0.7,0.3-1.1c0.5-1.1,1.6-1.7,2.8-1.4c1.1,0.3,1.8,1.4,1.6,2.5
	c-0.2,1.2-0.6,2.5-0.9,3.7c-0.1,0.4-0.2,0.8-0.3,1.2c0.4,0.2,0.6,0,0.8-0.2c7.5-4.4,15-8.8,22.6-13.2c0.6-0.4,0.9-0.8,0.9-1.6
	c0-6.6,0-13.3,0-19.9c0-1.7,0.3-2.3,1.9-2.8c4.8-1.7,9.6-3.4,14.4-5.1c0.9-0.3,1.1-0.7,1.1-1.6c0-8.6,0-17.2,0-25.7
	c0-0.3,0-0.6-0.1-1.2c-1.3,1.3-2.4,2.5-3.5,3.6s-2.4,1.1-3.4,0.1c-0.8-0.9-1-2.2-0.1-3.1c2.6-2.6,5.2-5.3,7.8-7.8
	c0.9-0.9,2.2-0.8,3.2,0.1c2.5,2.5,5,5,7.5,7.5c1,1,1,2.4,0.1,3.3S57,18.3,56,17.3c-1.1-1.1-2.2-2.3-3.3-3.5c-0.4,0.4-0.3,0.7-0.3,1
	c0,8.6,0,17.2,0,25.7c0,0.9,0.3,1.3,1.1,1.6c4.9,1.7,9.8,3.5,14.8,5.3c1.1,0.4,1.6,1.1,1.6,2.5c0,6.7,0,13.3,0,20
	c0,0.8,0.2,1.3,0.9,1.7c7.3,4.3,14.6,8.6,21.9,12.9c0.3,0.2,0.6,0.5,1.2,0.5c-0.1-1.1-0.5-2.1-0.8-3.2c-0.1-0.6-0.3-1.1-0.4-1.7
	c-0.2-1.3,0.5-2.3,1.7-2.6c1.2-0.3,2.4,0.3,2.7,1.6c0.5,1.6,0.9,3.2,1.3,4.7c0.5,1.8,1,3.6,1.4,5.4c0.4,1.6-0.2,2.7-1.9,3.2
	c-3.2,0.9-6.5,1.7-9.7,2.6c-1.6,0.4-2.9-0.2-3.2-1.5c-0.3-1.4,0.4-2.5,2-2.9c1.4-0.4,2.9-0.8,4.3-1.2c0-0.4-0.3-0.5-0.5-0.6
	c-7.5-4.5-15.1-8.9-22.6-13.4c-0.7-0.4-1.3-0.5-2.1-0.2C61.1,77,56,78.8,51,80.6c-0.8,0.3-1.5,0.2-2.2-0.1c-5-1.8-10.1-3.6-15.1-5.4
	c-0.6-0.2-1.1-0.3-1.6,0.1C24.4,80,16.6,84.5,8.9,89.1c-0.1,0.1-0.3,0.2-0.4,0.3c0.2,0.4,0.5,0.3,0.8,0.4c1.3,0.4,2.7,0.7,4.1,1.1
	c1.2,0.4,1.9,1.6,1.6,2.7c-0.3,1.3-1.4,2-2.7,1.7c-3.5-0.9-7.1-1.9-10.6-2.8c-0.7-0.2-1.2-0.8-1.6-1.4C0,90.6,0,90.1,0,89.6z
	 M65.2,62c0-2.6,0-5.3,0-7.9c0-0.8-0.2-1-1-0.7c-3.6,1.3-7.3,2.6-10.9,3.9c-0.7,0.2-0.9,0.6-0.9,1.3c0,5.3,0,10.5,0,15.8
	c0,0.8,0.2,1,1,0.7c3.6-1.3,7.3-2.6,10.9-3.9c0.7-0.3,1-0.7,1-1.4C65.2,67.2,65.2,64.6,65.2,62z M47.7,66.5c0-2.6,0-5.3,0-7.9
	c0-0.7-0.3-1.1-0.9-1.3c-3.6-1.2-7.1-2.5-10.7-3.8c-1.1-0.4-1.2-0.3-1.2,0.8c0,5.2,0,10.4,0,15.7c0,0.7,0.2,1,0.9,1.3
	c3.7,1.3,7.3,2.6,11,3.9c0.8,0.3,1,0,1-0.7C47.7,71.8,47.7,69.1,47.7,66.5z M60.4,49.8c0-0.1,0-0.2,0-0.2c-3.2-1.2-6.5-2.3-9.7-3.5
	c-0.5-0.2-0.9,0-1.4,0.1c-2.8,1-5.7,2-8.5,3c-0.3,0.1-0.8,0.2-1.1,0.5c2.6,0.9,5.1,1.7,7.5,2.7c2,0.9,3.8,0.8,5.9,0
	C55.4,51.5,57.9,50.7,60.4,49.8z"/>
</svg>
