<?xml version="1.0" encoding="utf-8"?>
<!-- Generator: Adobe Illustrator 22.0.0, SVG Export Plug-In . SVG Version: 6.00 Build 0)  -->
<svg version="1.1" id="Layer_1" xmlns="http://www.w3.org/2000/svg" xmlns:xlink="http://www.w3.org/1999/xlink" x="0px" y="0px"
	 viewBox="0 0 300 300" style="enable-background:new 0 0 300 300;" xml:space="preserve">
<style type="text/css">
	.st0{fill:url(#SVGID_1_);}
	.st1{fill:#313131;}
	.st2{fill:#474747;}
	.st3{fill:#2B2B2B;}
	.st4{fill:#941503;}
	.st5{fill:#8F1504;}
	.st6{fill:#951504;}
	.st7{fill:#B31401;}
	.st8{fill:#B41501;}
	.st9{fill:#8C1403;}
	.st10{fill:#484848;}
	.st11{fill:#383838;}
	.st12{fill:#393939;}
	.st13{fill:#AF3A2D;}
	.st14{fill:#7A1C13;}
	.st15{fill:#454444;}
	.st16{fill:#454545;}
	.st17{fill:#B0392D;}
	.st18{fill:#2B2A2A;}
	.st19{fill:#871203;}
	.st20{fill:#303130;}
	.st21{fill:#811103;}
	.st22{fill:#262626;}
	.st23{fill:#AD1904;}
	.st24{fill:#AD1905;}
	.st25{fill:#731004;}
	.st26{fill:#7C1203;}
	.st27{fill:#5A0F09;}
	.st28{fill:#A73225;}
	.st29{fill:#660F07;}
	.st30{fill:#483935;}
	.st31{fill:#453B38;}
	.st32{fill:#47130F;}
	.st33{fill:#636363;}
	.st34{fill:#5C5C5C;}
	.st35{fill:#8E1A0C;}
	.st36{fill:#6A1A12;}
	.st37{fill:#8E1B0C;}
	.st38{fill:#C31304;}
	.st39{fill:#525252;}
	.st40{fill:#4F4F4F;}
	.st41{fill:#413B3A;}
	.st42{fill:#A09F9D;}
	.st43{fill:#1B1A18;}
	.st44{fill:#510F09;}
	.st45{fill:#3D3C3B;}
	.st46{fill:#27120F;}
	.st47{fill:#291310;}
	.st48{fill:#50100B;}
	.st49{fill:#575554;}
	.st50{fill:#908F8D;}
	.st51{fill:#575453;}
	.st52{fill:#767676;}
	.st53{fill:#797777;}
	.st54{fill:#675653;}
	.st55{fill:#260302;}
	.st56{fill:#641A14;}
	.st57{fill:#36140F;}
	.st58{fill:#561915;}
	.st59{fill:#7C797A;}
	.st60{fill:#C53D30;}
	.st61{fill:#E0DAD9;}
	.st62{fill:#951D0F;}
	.st63{fill:#424441;}
	.st64{fill:#BF3828;}
	.st65{fill:#5B120C;}
	.st66{fill:#4E4D4C;}
	.st67{fill:#A6A4A3;}
	.st68{fill:#35211F;}
	.st69{fill:#342322;}
	.st70{fill:#464A47;}
	.st71{fill:#9D9D9D;}
	.st72{fill:#727272;}
	.st73{fill:#BAB3B3;}
	.st74{fill:#C0BAB9;}
	.st75{fill:#585856;}
	.st76{fill:#331311;}
	.st77{fill:#4B4B4B;}
	.st78{fill:#737373;}
	.st79{fill:#6F6F6F;}
	.st80{fill:#464646;}
	.st81{fill:#414141;}
	.st82{fill:#2D0C0B;}
	.st83{fill:#746C6B;}
	.st84{fill:#424142;}
	.st85{fill:#431510;}
	.st86{fill:#776B6C;}
	.st87{fill:#1E1E1E;}
	.st88{fill:#1F1F1F;}
	.st89{fill:#707070;}
	.st90{fill:#282828;}
	.st91{fill:#2F2F2F;}
	.st92{fill:#5D5D5D;}
	.st93{fill:#757575;}
	.st94{fill:#AF3B2E;}
	.st95{fill:#B2362A;}
	.st96{fill:#B03C30;}
	.st97{fill:#A2291A;}
	.st98{fill:#A92C1E;}
	.st99{fill:#575351;}
	.st100{fill:#636364;}
	.st101{fill:#636263;}
	.st102{fill:#CAC4C7;}
	.st103{fill:#D7CBCD;}
	.st104{fill:#5A5A5A;}
	.st105{fill:#5D504E;}
	.st106{fill:#44110A;}
	.st107{fill:#C5BEC2;}
	.st108{fill:#D0C9CB;}
	.st109{fill:#D0C9CA;}
	.st110{fill:#440F0D;}
	.st111{fill:#1D1C1B;}
	.st112{fill:#3B3D46;}
	.st113{fill:#949096;}
	.st114{fill:#5F1F1C;}
	.st115{fill:#3C3C3B;}
	.st116{fill:#20201F;}
	.st117{fill:#2D2E32;}
	.st118{fill:#1A1A1B;}
	.st119{fill:#D2CED2;}
	.st120{fill:#3A3D46;}
	.st121{fill:#121517;}
	.st122{fill:#4D4D4D;}
	.st123{fill:#8B8B8B;}
	.st124{fill:#747474;}
	.st125{fill:#CE594D;}
	.st126{fill:#CC594C;}
	.st127{fill:#FEFEFE;}
	.st128{fill:#5A393A;}
	.st129{fill:#494C55;}
	.st130{fill:#979FA5;}
	.st131{fill:#C7C6C3;}
	.st132{fill:#494C54;}
	.st133{fill:#BEC0C1;}
	.st134{fill:#8C8D90;}
	.st135{fill:#FBFAFB;}
	.st136{fill:#EBE7EB;}
	.st137{fill:#626261;}
	.st138{fill:#777677;}
	.st139{fill:#E4E1E5;}
	.st140{fill:#5D5C5D;}
	.st141{fill:#5C5B5B;}
	.st142{fill:#E5E1E5;}
	.st143{fill:#B3A19A;}
	.st144{fill:#B59396;}
	.st145{fill:#B79397;}
	.st146{fill:#A6A2A5;}
	.st147{fill:#A4A0A3;}
	.st148{fill:#A8A2A7;}
	.st149{fill:#515151;}
	.st150{fill:#797679;}
	.st151{fill:#827F82;}
	.st152{fill:#BDBEBD;}
	.st153{fill:#BBBBBD;}
	.st154{fill:#524A4E;}
	.st155{fill:#524B52;}
</style>
<linearGradient id="SVGID_1_" gradientUnits="userSpaceOnUse" x1="0" y1="150" x2="300" y2="150">
	<stop  offset="0" style="stop-color:#00FFBB"/>
	<stop  offset="1" style="stop-color:#15BAFF"/>
</linearGradient>
<rect class="st0" width="300" height="300"/>
<g>
	<path class="st1" d="M140.2,285.2c-9.3-0.1-18.7,1.1-27.9-1.1c-2.1-0.5-4.4-1.1-6.4-2c-5.9-2.5-9.3-6.3-9.1-14
		c0.5-12.3-0.8-24.9,0.5-37.3c0.4-3.9,1.8-7.4,2.8-11.1c-1.6-1.1-3.5,1.8-4.8-0.5c-0.3-0.3-0.3-0.5-0.3-0.8c0-0.3,0.1-0.5,0.1-0.5
		c1.1-1.3,2.8-1.4,4-2.4c1.4-1.9,1.5-4,1.5-6.3c0-1.9-0.1-3.8-3-3.4c-2.8,0.4-2.9-1.4-2.1-3.5c1.5-4.3,6-4.7,8.8-7.2
		c2.4-2.1,4.8-3.9,5.4-7.3c3.5-8,1.6-14.8-4.1-20.7c-1.1-1.1-1-1.3-0.4-3.1c6.9,0.8,13.8-0.5,20.7,0.8c5.8,1.1,8.8,4,9.8,10.1
		c1.4,8.3,1.8,16.6,2.6,24.9c1.1,1.1,1.4,2.6,1.4,4.1c0.1,14.5,1.1,29-5.5,42.6c-0.8,1.5-0.9,3.1-1.4,4.8c-0.6,2.5-2.5,2.8-4.7,2.8
		c-2.8-0.1-5.5-0.1-8.3,0c-3.5,0.3-5.4,2.1-5.5,5.8c-0.1,4.8-0.3,9.6,0.1,14.2c0.4,5.7,3,8.2,8.4,8.3c4.8,0.1,9.4,0.1,14.2-0.4
		c2.1-0.3,4.7-1,6.3,1.4C143,285.6,140.7,283.9,140.2,285.2z"/>
	<path class="st1" d="M283.2,218.2c-0.5,3.9-3.3,1-4.9,2.1c5,16.8,2.1,34.7,2.9,52.2c0.1,2.1-0.8,3.4-2.1,4.8
		c-5.2,5.3-11.8,6.7-18.6,7.7c-0.6-0.4-1.4-0.8-1.3-1.8c6.3-7.7,4.1-16.7,3.8-25.4c-0.1-3.1-2.9-3.5-5.4-3.9c-3-0.3-6.2,0.8-8.9-1.3
		c-0.1-4.5,3.3-5.4,6.4-6.2c3.4-0.8,4-2.4,2.4-5.3c-1.1-2.3-2.1-4.7-4.1-6.2c-9.3-6.5-11.2-16.8-12.6-27.3c-0.4-2.9-0.8-5.7-1.9-8.3
		c0.1-4.4-1.5-9.1,1.3-13.3c2.1-3.8,1.5-8,2.4-12.1c1-5.2,3.5-8.3,8.9-9.2c5.7-1,11.3-0.9,17-0.8c1.9,0.1,3.9-0.3,5.8-0.5
		c0.5,3.5-2.9,4-4.4,6c-6,5-6.4,12.4-1.1,19.9c2.5,3.4,5.7,5.9,9.1,8c1.9,1.1,3.9,1.6,6,0.5c1.9,0.9,2,2.5,1.4,4.1
		c-1,2.5-3,3.4-6,2.1c1.5,3.4,3.4,6.4-1.4,7.4c0.1,0.5,0.3,0.9,0.4,1.5c0.1,2.9,2.5,2.8,4.1,3.5
		C282.7,217.5,282.9,217.9,283.2,218.2z"/>
	<path class="st2" d="M160.6,469.8c-0.3,0.1-0.6,0.1-0.9,0.1c0.1-31.7,0.1-63.5,0.3-95.2c0-8-0.1-16.2,0.1-24.3
		c0.1-3.4-0.5-5.5-4.4-5.4c-1.8,0-3.5-0.8-5.3-0.8c-6.5-0.4-6.5-0.3-6.5-7.3c0-3.8,0.1-7.4,0.3-11.2c5.3-0.1,5.3-0.1,5.4-5.7
		c0.1-7,0.1-7-1.5-10.4c-2.4,2.5-1.1,5.5-1.5,8c-0.4,2.1,0.9,5.2-2.5,6c-2.9,0.3-4.1-0.8-3.8-3.9c0.3-2.4-0.1-4.8-0.1-7
		c-0.4-0.5-0.3-0.9,0.3-1.1c2.8,2.4,0.6,5.5,1.3,8.3c0.3,1-0.3,2.8,1.4,2.5c1.3-0.1,1-1.5,1-2.4c0.1-3.1,0-6.4,0-9.6
		c0-7.3,0.5-7.8,7.9-7.4c9.3,0.9,18.6,2.4,28,1c2.8-0.4,5.4,0.3,7.9,1.6c0.5,0.5,0.6,1.4,0.1,1.8c-4.8,3.4-4.8,8.8-5,14
		c-0.3,6.3,1.1,12.3,1.4,18.5c0.1,2.9,2.9,4.4,3,7.2c-1.3,1-2.6,1.1-4.1,1c-4.4-1.3-8.7-0.9-13.2-0.5c-7.4,0.3-7.4,0.3-7.4,8.2
		c0,35.1,0,70.2-0.1,105.2C162.2,464.1,163,467.3,160.6,469.8z"/>
	<path class="st3" d="M188,306.5c-10.9-1-22.1,1-33.1-0.9c-1.5-0.3-2.9-0.3-3.1-2.3c-0.1-4.9-0.1-9.7-0.3-14.6
		c0-1.3,0.9-3.4-1.6-3.1c-2,0.1-4.9-1.1-5,2.8c-1.1,0.6-1.4-0.3-1.8-1c-0.5-1.5-1.8-1.8-3.1-1.9c0.6-1.4,1.9-1.1,3-1.1
		c2.3-2.1,5.3-2.1,7.8-1.5c9.7,2.1,19.6,0.5,29.3,1.1c5-0.3,10.1-0.1,15.2-0.1c12.3,0.5,24.6-0.1,37-1.1c7.8-0.8,15.6,0.5,23.4,0.4
		c1.4,0,2.5,0.3,3.5,1.4c0.3,0.3,0.8,0.8,1,1c-6.8,1.1-13.8-0.8-20.5,1c-0.5,1-1.5,1.4-2.5,1.9c-0.8,0.3-1.5,0.9-2.4,0.3
		c-0.5-4.8-4.1-2.4-6.4-2.6c-2.8-0.3-1.9,2.3-1.8,3.5c0.4,4.8-1.8,9.9,1.1,14.5c0.1,2.5-1.8,3-3.5,3.3c-10.2,1.4-20.4,1.4-30.7,0.9
		c-0.9-0.1-1.5-0.5-2.1-1.1c-0.3-0.5-0.5-0.9-0.6-1.5c0.1-3.8,0.5-7.7,0.3-11.6c-0.1-1.5-0.1-3.1-2.1-3.4c-2.3-0.1-2.5,1.6-2.6,3.4
		c-0.1,3.1,0.9,6.3,1,9.6C187.6,304.1,188.6,305.2,188,306.5z"/>
	<path class="st2" d="M191.9,305.4c7.7,1.1,15.2,1.5,22.9,0.6c2.9-0.3,5.8-0.5,8.7-0.5c1.8-0.1,3.6,0.1,4.7-1.9c4.4-0.5,6.3,1,6.2,6
		c-0.3,9.9-0.1,19.9-0.1,29.8c0.1,3.4-0.9,4.8-4.4,4.9c-13.6,0.3-13.7,0.5-13.6,14.2c0.1,37.1,0.1,74.3,0.3,111.4c-0.3,0-0.6,0-1,0
		c-2.4-2.5-1.6-5.8-1.6-8.7c-0.1-34.7,0-69.3,0-104c0-9.6,0-9.6-9.2-9.4c-2.6,0-5.2,0.3-7.8,0.6c-1.3,0-2.4,0.1-3.6-0.1
		c-0.9-0.1-1.6-0.5-2.3-1.1c7.8-7.4,6.3-17.1,6.2-26.5c0-2.4-0.8-4.7-0.8-7c0-2.4-0.9-4-3.3-5C190.6,307.7,190.9,307.5,191.9,305.4z
		"/>
	<path class="st4" d="M426.6,177.6c1.5,1.6,2.1,3.8,0.5,5.3c-2.8,2.5-1.6,4.5,0,6.8c0.4,3.5-1.9,3.1-4.1,3.1c-3-3-6-0.6-9.2,0
		c-2.1-0.3-3.6-1.3-3.9-3.8c2-2.3,0.8-4.4-0.3-6.4c-5.5-10.7-13.3-19.6-21.2-28.3c-3.6-4-6.4-8.9-11.7-12.3
		c1.6,6.4,5.4,10.3,9.2,14.2c0.3,0.4,0.6,0.8,0.9,1.1c7.9,8.4,14.7,17.7,21.5,27c1,1.4,3,2.4,1.8,4.7c-1.9,0.9-3.1-0.5-4.4-1.5
		c-4.4-3.3-8.3-7.2-10.9-12.1c-1.9-3.5-4.7-6.4-7.5-9.2c-1.5-1.5-3.1-2.4-5.3-2c-5.8,0.9-9.7-2.1-12.9-6.4
		c-3.4-4.4-6.4-9.3-10.3-13.3c-3-3-2.1-7.2-2.1-10.9c3.5-1.8,7.5-1.5,11.2-3c2.4-1,4.8-2,6.4-4.1c1.5-1.1,2.6-3.1,5-2.8
		c0.5,0.6,0.6,1.4,0.5,2.1c-0.9,2.1,0.4,3.4,1.8,4.8c7.4,7.8,15,15.5,21.5,24c5.2,6.7,11.4,12.4,15.7,19.9
		C420.2,177.4,422.8,179.3,426.6,177.6z"/>
	<path class="st5" d="M16.6,90.8c2.4-3.4,5.4-6,8.8-8.3c2.4,1.1,5.2,1.5,7.4,2.6c3,4.4,6.7,8.2,9.9,12.3c4.7,6,8.9,12.2,13.2,18.5
		c3.6,5.4,8,10.2,10.3,16.5c0.8,1.9,2.3,4-0.1,5.8c-2,0.5-4-3.3-5.4-0.9c-1.4,2.4,1.5,3.9,2.8,5.8c2,3.3,5,5,8.4,6.3
		c1.9,1.4,4.1,2.1,5.8,3.9c-0.8,4.4-3.3,7-7,8.7c-1.6-0.1-2.8-0.9-3.8-2.1c-5.2-6.3-11.4-11.6-15.8-18.5c-3.1-5-8.3-8.7-10.9-14.2
		c-0.8-1.5-2.6-1.1-4-1.5c-4.7-1.4-6.2-3.9-5-8.7c0.9-3.4,0.8-6.7-0.8-9.8c-2.1-6.2-5.9-10.6-11.6-13.2
		C17.6,93.3,15.9,92.8,16.6,90.8z"/>
	<path class="st6" d="M-3.9,122.4c0-0.3,0.1-0.6,0.3-0.9c3.8-0.9,5,2.5,7,4.5c3.5,3.8,8,4.5,12.8,5.3c1.5,0.3,3.3,0.1,4.7,1.1
		c2.6,3,1,5.9-0.4,8.7c-4.7,6.4-9.7,12.4-15.3,18c-0.9,0.9-1.9,1.1-3,1.5c-5,1.5-10.1,3.3-15,5.3c-2.4-3.4,1.9-4.1,2.4-6.5
		c0.3-0.4,0.5-0.8,0.8-1.1c4.1-4.8,8.2-9.6,11.6-14.8c0.8-1.1,1.9-2.9,0.5-4c-1.5-1.3-2.5,0.5-3.6,1.5c-1.5,1.4-2.8,2.8-3.8,4.7
		c-5,6.2-11.6,11.2-15.3,18.5c-4.4,6.3-9.6,12.2-12.6,19.5c-1.5,3.6,1.1,1.6,2.1,1.9c0.5,0.1,0.9,0.5,1,1c-3,6.5-6.8,7.2-10.7,1.6
		c-1.1-1.6-2.4-2.5-4.4-2.8c-1.8-0.3-3.5-0.6-4.3-2.6c-0.4-1.8,0.5-2.9,1.5-4c15-16.5,28.8-33.8,44.1-49.8c1.5-1.6,1.5-2.8,0-4.1
		C-4,123.8-4.2,123.2-3.9,122.4z"/>
	<path class="st7" d="M285.7,153.9c5.9-22.4,22.8-36.8,36.1-53.8c4.7-5.8,9.8-10.8,15.8-14.8c1.1-0.3,2.1-0.9,3.3-1
		c1.8-0.3,3.1,0.4,4.3,1.9c1.3,1.8,0.3,3.1-0.8,4.5c-5.2,6.8-10.9,12.9-15.5,20.1c-5.4,8.7-12.4,16.2-15.6,26.3
		c-1.8,3.1-3.4,6.4-5.7,9.1c-1.6,1.9-1.9,4.4-2.5,6.8c-1.9,1.9-4.3,1.6-6.5,1.3c-3.1-1.4-5.8,0.5-8.7,1
		C288.4,155.5,286.3,157.3,285.7,153.9z"/>
	<path class="st8" d="M65.8,137.9c1.9-1.9,0.3-3.4-0.5-5c-4.7-10.1-12.3-18.1-18.2-27.3c-4-6.3-8.9-11.6-13.7-17.2
		c-0.9-1-0.9-2.1-0.9-3.4c0.5-2.4,2.1-2.8,4.1-2.8c8.9,5.2,15.6,13.1,22.4,20.9c9.9,11.3,19.1,23.4,27.8,36c3.3,4.8,2.9,10.1,4.9,15
		c-1.6,1.8-3.6,1.4-5.3,0.4c-2.8-1.6-5.8-1.9-8.8-1.4c-2.5,0.4-4-1.5-5.8-2.9C69.6,146.2,65.9,143.1,65.8,137.9z"/>
	<path class="st9" d="M312.2,136.9c1.8-5.9,5.2-10.8,8.4-16c3.6-6,8.3-11.2,11.7-17.3c2.6-4.9,7.5-7.8,10.1-12.7
		c0.8-1.4,3.1-1.9,2.1-4s-3.1-2-5.2-1.8c-0.5,0.1-1.1-0.1-1.8-0.1c0.5-1.5,1.9-1.5,3-1.9c3.9,0.1,7.8,1,11.7,0.6
		c3.4,1.6,5.8,4.4,8,7.4c0.1,1.5-0.9,2.5-2.1,3c-5.9,2.5-9.1,7.7-11.8,13.2c-1.4,3.5-0.8,7.2-0.1,10.7c0.3,3.3-1.3,5.2-4.3,5.7
		c-3.1,0.4-5.2,2.3-7.3,4.7c-5.3,6.4-10.6,12.9-15.2,19.7c-1.4,1.9-2.6,4-4.4,5.4c-4.8,3.8-7,8.7-7.3,14.7c-0.4,0.8-0.9,1.3-1.8,1.1
		c-0.8-0.5-1.1-1.4-1.1-2.1c0.5-5.4-2.5-8.7-6-11.9c-0.4-0.3-0.6-0.8-0.9-1.1c0-0.3-0.1-0.5-0.1-0.8c0.1-0.3,0.3-0.4,0.4-0.6
		c2.3,0.1,4.7,0.5,6.7-0.9c4.4-3.9,9.7-6.7,11.9-12.6c0.5-1.4,2.4-2.4,1.3-3.9c-1.4-1.8-2.5-0.1-3.8,0.6
		C314.1,136.9,313.3,137.5,312.2,136.9z"/>
	<path class="st2" d="M2.2,126.7c-1.8-1.9-3.1-4.4-5.8-5.2c-0.3-4-2.4-7.7-1.8-11.7C-4,99.9,3.1,93,12.9,92.3
		c1.5-0.1,2.8-0.4,3.9-1.5c0.8,2.1,2.9,1.9,4.4,2.8c5.4,2.9,8.8,7.3,10.6,13.2c1.4,4.8,0.8,9.6-1.3,14
		C22.3,132,13.1,133.9,2.2,126.7z"/>
	<path class="st10" d="M345.6,106.7c2.9-7.3,8.3-11.9,15-15.2c1,1.4,2.5,1.1,4,1.4c13.3,1.5,22.1,15.8,15.6,28.5
		c0.1,1.1-0.1,2.1-1.4,2.5c-1.4,1-2.5,2-3.9,3.1c-7.7,6.8-17.5,5.7-25.3-1.9c-1.9-1.5-2.9-3.5-3.4-5.9c-0.1-0.5-0.3-1-0.5-1.5
		C344.9,113.9,344.6,110.4,345.6,106.7z"/>
	<path class="st11" d="M389.5,241.5c1.9-8.9,4.7-17.5,10.6-24.4c0.9-1.1,0.5-2.1,0.4-3.3c-0.4-4.3,0.3-8.3,2.8-11.9
		c3.4-0.1,2.8,2.4,2.6,4.5c-0.1,2.4-0.8,4.8,2,6c2.3,1.1,3.9,3,5.5,4.8c3.4,3.5,7.3,6.2,12.1,7c1.4,0.3,2.6,0.5,2.9,2.1
		c0.3,1.8-0.6,3.1-2,3.5c-4.7,1.1-6.2,5-7.4,9.1c-2.4,7-6.3,12.3-13.7,14.2c-1.1,0.1-2-0.1-3.1-0.4c-2.4-0.8-4.7-1.5-7-2.1
		C388.5,249,388.5,249,389.5,241.5z"/>
	<path class="st12" d="M-26.4,201c1.6,4.4,3.8,8.7,2.4,13.6c-0.5,1.5,0.9,2.4,1.8,3.4c6,8.9,10.2,18.4,9.7,29.5
		c-0.4,0.9-0.9,1.9-1.9,2c-4.7,0.4-8.7,3.1-13.3,3.5c-6.9-4.9-9.9-12.6-12.8-20.4c-0.8-2.4-1.3-4.1-4-5c-2.4-0.6-2.5-3-0.6-4.1
		c5.2-3.3,9.3-7.8,14-11.6c3.1-0.8,2.5-3.3,2.9-5.5C-28.2,204.7-29.6,201.8-26.4,201z"/>
	<path class="st13" d="M285.7,153.9c2.9,2.3,4.9-1.1,7.5-1.1c1.9,0,3.8-1.1,5.5,0.4l-0.3,0.1c-4.4,2.1-5.4,6.5-6.7,10.7
		c-0.9,3.8-2.6,7.4-2.8,11.4c-0.6,4.3-2.3,8.3-3,12.6c-0.1,0.5-0.3,1-0.4,1.5c-3.1,11.3-5.7,11.8-14.5,4.1
		c-8.7-7.7-8.3-19.1-2.1-24.3c1.6-1.8,3.4-3.6,5-5.4C278.1,160.9,282.4,158,285.7,153.9z"/>
	<path class="st14" d="M152.8,95.4c-1.5-1.8-1.1-3.8-1.1-5.8c0-13.3,0-26.7,0-40c0-7.5,1.4-8.9,8.4-8.9c2.4,0,4.9-0.1,7.3-0.3
		c0.9-0.9,2.1-1.4,3.4-1.4c11.3-0.3,22.6-0.3,33.9,0c1.5,0.1,3-0.3,4.4,0.1c1.3,0.1,2.3,0.5,3.1,1.4c3.1,0.1,6.2,0.1,9.3,0.3
		c4,0.3,6.3,2.4,6.3,6.8c0,14.8,0,29.7,0,44.5c0,1.8-0.3,3.4-1.6,4.5c-21.5,0.5-43.1,0.1-64.6,0.3c-1.9,0-4.4,0.5-5-2.5
		c1.9-1.9,4.3-1.4,6.4-1.4c18.1,0,36.1,0,54.2,0c5.3,0,5.4-0.1,5.4-5.8c0.1-11.4,0.1-23,0.1-34.4c0-1.9,0.1-3.8-0.9-5.4
		c-1-1.6-2.6-1.9-4.3-1.9c-18.7-0.1-37.5-0.1-56.2-0.1c-3.5,0-5.2,1.8-5.2,5.2c0,13.3-0.6,26.7,0.3,40c0.3,1.1,0.3,2.4-0.4,3.5
		C155.6,95.4,154.3,95.7,152.8,95.4z"/>
	<path class="st15" d="M432,192.6c6.7,1.9,10.9,7.4,11.6,14.3c0.6,6.9-2.8,12.8-9.1,16.1c-8.9,4.1-15.7,0.4-21.6-6.3
		c-2.4-2.6-4-5.8-2.1-9.6c3.6-1.1,3.4,3.4,6.2,4.5c-0.6-6.4,0.4-12.7,4.5-17.3C424,191.3,428.1,191.5,432,192.6z"/>
	<path class="st16" d="M-54.6,234.5c0.1-7-3.4-11.6-8.7-15.8c-4.8-3.8-5-10.6-2.8-16.3c2.1-5.8,6-10.1,12.4-10.6
		c9.8-1.8,10.9,3.9,12.9,13.8c0.4,1.8-0.1,3.6,0.3,5.7c4.7-1,3.1-5.8,5.2-8.3c0.5-0.3,0.9-0.1,1.4,0.1c2.4,7.2-1.4,16.2-9.7,19.1
		C-50.1,224.4-54.1,227.3-54.6,234.5z"/>
	<path class="st17" d="M104.9,164.2c0,2.1,2,2.5,3,3.9c5,6.3,6.3,12.9,2.8,20.4c-3.4,5.2-7.5,9.3-14,10.2c-2.4-1.1-3-3.5-4-5.7
		c-1.6-5.2-2.4-10.7-4-16c-0.3-2.4-0.9-4.5-1.6-6.7c-0.3-1.5-0.5-3,0-4.7c3.8-2.5,7.7-4.4,12.2-4.5
		C101.4,162.3,103.1,163.2,104.9,164.2z"/>
	<path class="st18" d="M-54.6,234.5c0-1.4,0.1-2.8,0.1-4c-0.1-4.3-1.1-8.2,6-7.7c6.4,0.5,16.1-8.4,14.5-19.9
		c2.4-1.5,3.6-0.1,4.1,2.1c0.6,2.8,0.8,5.7-1.1,8c-3.8,4.4-8,8.2-12.9,11.2c-0.9,0.5-1.9,0.9-1.4,2.1c0.4,0.9,1.3,0.9,2.1,0.6
		c1.4-0.5,3-0.5,3.1,1.1c1,9.7,6.4,17,11.9,24.1c-4.5,3.1-8.5,7.3-14.7,6.5C-48.2,251.3-52.4,243.4-54.6,234.5z"/>
	<path class="st19" d="M-13.5,165.3c5-3.4,10.9-4.3,16.3-6.4c3-1.1,6-4.1,7.7-7.2c2.5-4.3,6.4-7,9.2-10.7c0.5,0.1,0.9,0.4,1.1,1
		c-0.1,0.4-0.1,0.8-0.1,1.1c-2.8,8.2-8,14.6-14.2,20.1c-5.2,4.7-9.8,9.8-14,15.2c-6.7,8.4-16.1,11.7-25.4,14.8
		c-2.3,0.8-4.5-0.1-6.5-1.3c-1.8-1-3.4-1.9-5.4-2.4c-2.3-0.9-3.3-2.8-3.9-5c-1.4-0.5-2.3-1.4-2.1-3c0.3-0.4,0.6-0.5,1.1-0.6
		c0.5,0,0.8,0.3,1.1,0.5c0.5,0.9,1.1,1.9,2.1,1.9c4.3-0.4,7,1.1,8.2,5.8c0.4,1.8,2.3,1.5,3.8,0.8c1.9-1,3.5-2.4,4.7-4.4
		c-0.5-1.1,0-1.9,0.6-2.8c4-5.2,7.9-10.4,12.1-15.6C-16.6,166.2-15.6,164.7-13.5,165.3z"/>
	<path class="st20" d="M205.6,40.5c-11.8,0-23.6,0-35.5,0c-1.9-2.4,0.3-6-2.5-8c-0.3-1.4-0.6-2.9,0.8-4c2.4-3.3,5.7-4.5,9.2-4.5
		c-1.5-0.6-4.4,0.8-5.2-2.5c9.4-6.3,19.2-7.4,29.4-2.3c0.5,0.3,1.3,0.3,1.9,0.4c2.5,2.8,0.1,3.4-1.5,4.7c3.5,0.1,7,0.8,9.2,4.4
		c0.4,1,1.8,1.6,1,3c-1.9,1.6-2.8,0-4-1.1c-1.8-1.6-3.8-2.6-6-0.9c-3,4.5-2.6,5.8,2.5,9.3C205.3,39.1,205.8,39.6,205.6,40.5z"/>
	<path class="st21" d="M356.3,134c0.4,0.5,1.1,1.1,1.1,1.6c-1,8.7,6.9,12.1,10.3,18.1c3.1,5.8,7.4,10.1,15.7,9.1
		c5-0.6,8.7,5.8,11.6,10.6c3.8,6.4,8.4,11.8,15.2,15.2l0,0c0.9,1.5,2,2.9,4,3c-0.6,3.1-3,2.6-4.9,2.4c-11.3-1.9-20.6-8-28.2-16.8
		c-3.1-3.8-6-8-9.9-11.2c-5.7-4.7-8.4-11.3-13.1-16.7c-1.5-1.6-1.8-3.8-2-5.9s-1.1-4.1-3.4-4.8C351.7,134.3,352.1,133.8,356.3,134z"
		/>
	<path class="st22" d="M411.1,207c0.1,11.3,10.9,19.4,21.2,15.5c0.9-0.3,1.5-0.1,2.1,0.5c-1.4,0.8-2.8,1.3-2.8,3.5
		c0.3,12.9-6,23.1-12.9,33.1c-5.2-1.1-9.8-3.4-13.6-7.3c7.9-3.4,11.7-10.1,13.8-18.1c0.9-3.1,3-4.7,6-5c1.4-0.1,2.5-0.9,2.4-2.5
		c-0.3-1.8-1.6-0.9-2.6-1.1c-4-0.9-7.5-2.8-10.6-5.7c-2.4-2.4-4.7-4.7-7-6.9c-2.8-6.4-0.5-12.1,5.8-14.3
		C414.7,201.9,412.8,204.4,411.1,207z"/>
	<path class="st23" d="M426.6,177.6c-2,3.4-5,3.5-7.7-0.4c-5.7-8.9-12.8-16.2-19.4-24.3c-6.3-7.8-13.1-15.2-20.2-22.1
		c-1.5-1.5-3.9-2.8-0.6-4.9c3.1-0.5,4.4,2.4,6.4,3.8c2.4,1.6,4.1,4.1,7.5,3.1C406.4,145.8,416.7,161.4,426.6,177.6z"/>
	<path class="st24" d="M-48.7,181.7c-0.3,0-0.6,0-0.9-0.1c-2.5-2.9,1.3-4.7,1.1-7c9.6-15.5,19.7-30.3,32.8-42.9
		c5.8-0.1,9.1-4.8,13.1-8c3,1.9,2.6,3,0.1,5.8c-6.4,7-12.9,13.6-19.4,20.7c-4.4,5-8.4,10.2-12.8,15.1c-2.4,2.8-4.9,5.3-6.4,8.8
		C-42.6,177.8-47.4,177.8-48.7,181.7z"/>
	<path class="st25" d="M29.5,120.6c2.3-4.4,2.3-9.2,2.1-14c2.1,3.4,1.8,6.8,0.9,10.6c-1.1,4.5,1,7.5,5.4,7c2.1-0.3,2.8,0.8,3.8,2.1
		c6,8.9,12.3,17.5,19.9,25c3.1,3.1,5.3,7.3,9.1,9.7c1.6,1.9,1.4,4,0.9,6.2c-1.4,2.4-2.9,0.9-4,0c-6.7-4.8-13.6-9.2-18.4-16.2
		c-2.5-3.5-5.8-6.2-8.8-9.2c-2.1-2.9-2.4-6.8-4.8-9.6c-0.3-0.4-0.8-0.8-1.1-0.9C26.9,129.1,26.6,128.3,29.5,120.6z"/>
	<path class="st26" d="M307.4,168.3c-2.1-9.1,5.2-12.8,9.4-18.5c5.9-7.8,11.6-15.6,17.9-23.1c2.1-2.5,4-4.1,7.3-4.1
		c2.8,0.1,3.8-1.4,3.6-4c0.3-0.5,0.8-0.5,1-0.1l0,0c1.8,3.6-0.1,6.4-2.1,9.2c-1.3,1.8-2.5,3.5-3.9,5.2c-0.1,2.8-1.1,5-2.8,7.3
		c-6.7,7.9-14.2,14.8-21.2,22.4C314.2,165.3,311.3,167.8,307.4,168.3z"/>
	<path class="st27" d="M413.2,199c-5.3,3.1-6.5,8.2-5.9,14c-3.8-0.6-3-3.8-2.6-6c0.4-2.1,1-3.8-1.4-5c-0.6-1-1.3-2-1.9-3
		c-0.5-5.8,4.8-3,6.8-4.7c-8.4,2.5-15.5-1.1-22.4-5.7c-10.8-11.8-20.9-24.3-27.5-39.2c2.4-1.1,2.5,1,3.3,2.3
		c7.5,11.8,17.5,21.5,27.2,31.2c5.7,5.5,12.8,9.4,21,10.3c1.8,0.1,3.1,0.1,4.4-1.3c1.1-0.1,2.1-0.8,3-1.5c2.5-2.6,3.8-1.1,4.8,1.5
		C419.6,194.9,416.9,197.6,413.2,199z"/>
	<path class="st28" d="M70.6,168.3c0.1-2.4,0.1-4.8,0.1-7c3-2.1,4.8-5.2,6.8-8.2c2.3-2.4,4.8-2.4,7.3-0.8c2.1,1.4,4.3,2.1,6.8,1.8
		c2.3,2.9,5.2,4.8,7.9,7c-1.8,0.3-4-0.5-3.8,3c0.1,2-1.4,1.8-2.8,1.1c-1.6-0.8-3.3-1.8-4.8,0.1c-2.5,0.1-2.5-2.1-3.1-3.8
		c-0.6-1.8-1-3.5-2.1-5.2c-1.1-1.8-2.4-1.8-3.1,0.4c-0.1,7.7,1.4,14.8,4.7,21.7c1.8,3.8,2.5,7.9,3.6,11.9c0.5,1.8,0.8,4.1-2.1,4.4
		c-3.4-1.9-6.3-4.7-7.4-8.3c-1.8-5.9-5-10.8-8-16C70.1,170,70.1,169.2,70.6,168.3z"/>
	<path class="st29" d="M-44.7,188.7c1.1,0.1,2.6-0.3,3.3,0.4c4.4,4.4,8.9,2.5,14,1c10.6-3.4,18.1-10.2,24.4-19.4
		c2.6-3.9,6.9-6.4,10.3-9.9c5.2-5.3,9.3-11.6,13.5-17.9c0.8,4.8-2.8,8-4.5,11.8c-1.6,3.4-3.4,6.8-6,9.6c-5,4.4-8.4,10.1-12.6,15.2
		c-5.8,6.9-12.2,12.4-21.4,13.6c-3.1,0.4-6.4,0.3-8,4.4c-0.8,1.9-3.1,1.4-4.8,0.4c-1.5-0.9-2.6-2.5-4.4-3c-1.8-0.9-3.6-1.5-4.9-3.1
		C-46.6,190.3-46.2,189.3-44.7,188.7z"/>
	<path class="st30" d="M86,195.1c2.1-1.9,1-3.9,0.5-6c-2.3-8.2-6.3-15.7-7.4-24.3c-0.4-3.1-0.5-6.4-0.4-9.6c2.4,0.1,2,2.4,2.4,3.8
		c0.8,2.9,1.1,5.9,1.8,8.9c1.1,5.4,1.1,5.4,5.5,2.5c1.3,1.9,2.1,3.8,1.8,6.2c0.5,5.7,1.1,11.3,4.1,16.2c1,1.8,1.3,3.8,2.9,5.2
		c-0.1,1.8-0.6,3.4-1,5c-0.1,0.9-1.1,3,0.8,2.1c5.2-2.3,4.8,2.1,4.9,4.7c0.1,2.4,0.1,5.3-1.9,7.3c-2.9-3.6-3.4,0.1-4.8,1.5
		c0.1,0.3,0.1,0.5,0,0.8c-1.6-5.7-3.4-11.2-4.8-16.8C89.6,199.4,88.4,196.9,86,195.1z"/>
	<path class="st31" d="M287.9,175.5c-0.5-4.4,1.8-8,2.9-11.9c2.1,2.5,1.5,5.7,2.3,9.6c1.9-3.9,1.8-7.3,2.4-10.6
		c0.5-2.9,0-6.3,3.1-7.9c0.3-0.1,0.5-0.1,0.8-0.1c1.8,1.9,1.3,4.3,1.1,6.7c-0.5,9.8-4.7,18.5-7.5,27.5c-0.8,2.4-1.4,4.8-2.1,7.3
		c-4.1,5.2-4.9,11.7-6.4,17.9c-0.4,1.5-0.1,3.3-1.4,4.7c-0.4,0-0.8,0-1.1-0.1c-0.4-3-2.6-3.4-4.8-3.9c-0.3-1.1-0.8-2.3-0.9-3.4
		c-0.1-0.9,0.5-1.3,1.3-1.8c1.9-1.4-0.1,4.8,2.1,1.1c1.1-1.8-0.9-3-2.1-4c-0.4-0.3-0.8-0.6-1.3-1c1.6-3.5,10.4,2.1,7.5-6.4
		c-2.1-3.6,1.6-6.7,1-10.1h-0.1C286.4,184.4,288.4,180.3,287.9,175.5z"/>
	<path class="st32" d="M-40.9,193.8c2.3-0.1,3.1,2.1,4.8,3.1c1.8,1,4,2.1,3.8-1.6c-0.1-2.4,1.1-2.5,2.6-2.5
		c14.7-0.3,23.9-9.6,32.1-20.6c2.6-3.5,6.2-7.2,7.8-7.7c-7.2,9.6-13.8,19.7-22.5,28c-2,1.9-4,3.5-6.7,3.8c-3.1,0.4-5.4,2-7.2,4.7
		c-1.9,2.9-0.8,6.2-0.9,9.2c-0.1,3.1-1.4,3.8-4,2.8c0-2.3-0.1-4.7,0-6.8c0.1-2.3-0.8-3.4-3-3.1c-0.3,0-0.6-0.1-0.9-0.1
		C-37.2,200-40.4,197.9-40.9,193.8z"/>
	<path class="st28" d="M290.8,195.7c-1.9-2.8-0.1-5.2,0.8-7.5c3-9.6,7-18.7,7.8-28.9c0.1-1.6,0-3.4,0-5c5.7,3.4,8.3,8.3,7,15.2
		c0.5,1.4-0.8,2.3-0.9,3.5c-2.4,4.5-4.8,9.1-6.7,14C297.4,190.7,294.9,194.1,290.8,195.7z"/>
	<path class="st33" d="M-12.5,249.5c0.8,4.8,2.4,9.3,4.8,13.3c1.5,2.5,3,5,3,8.2c-2.6,1.4-5.3,2.9-8.4,2.5c-1.8-0.8-2.3-2.4-3-3.9
		c-0.5-1.1-1.5-1.8-2.5-2.4c-4.8-2.6-5.7-7.7-6.9-12.4c-0.4-1.4,0.1-2.8,1.6-3.1C-20.2,250.4-16.7,248.3-12.5,249.5z"/>
	<path class="st34" d="M381.5,270.7c1.8-6.7,6.3-12.2,7.9-18.9c-0.8-3.3,1.6-3,3.1-2.5c3.1,0.9,6.4,1.4,9.3,2.9
		c1.4,5-2.3,13.6-6.5,15.6c-1.6,0.4-2.5,1.5-3,3.1c-0.6,1.4-1.4,2.6-3.1,2.8C386.4,273.4,383.7,272.4,381.5,270.7z"/>
	<path class="st35" d="M389.4,272.8c1.3-0.5,1.6-1.9,2.1-3c3.9-3.8,8-2.5,12.1-0.5c2.6,1.4,5.9,2.8,4.7,7c-2.8,2.9-3.3,7.9-8,8.7
		c-3.8,0.3-7-0.8-9.6-3.8c-1.4-1.5-2.9-2.6-4.8-3c-1.8-0.3-2.8-1.5-3-3.3c0.1-0.6,0.3-1.3,0.4-1.9
		C385.4,272,387.4,273.7,389.4,272.8z"/>
	<path class="st36" d="M156.7,94.7c1.3,1.1,2.8,0.8,4.1,0.8c21-0.1,41.9-0.1,62.9-0.3c1.4,0,2.1,0.4,2.6,1.5c-1.4,2.4-3.5,1.9-5.7,2
		c-5.7,0.3-11.3-0.6-17.1,0.5c-9.1,1.4-18.2,1.3-27.4,0.1c-5.7-1.4-11.4-0.3-17.2-0.6c-2.5-0.1-5.3,0.1-6.3-3.1
		c0.8-1.3,2-1.1,3.1-1.3C156.3,94,156.6,94.2,156.7,94.7z"/>
	<path class="st37" d="M-15.2,268.8c0.6,1.3,1.3,2.5,1.9,3.8c0.3,0.8,0.9,0.9,1.5,1c1.8,0.1,4-0.3,4.4,2c0.5,2.4-2.5,1.6-3.3,2.8
		c-2.6,3.5-6.7,4.8-9.9,7.3c-5.2,0.1-7.7-3.5-9.7-7.8c-2.5-3.4-1.6-5.7,1.8-7.5c1.9-1,3.5-2.4,5.7-2.6c0.8-0.1,1.5-0.1,2.1,0
		C-18.8,268.1-17.1,268.6-15.2,268.8z"/>
	<path class="st38" d="M200.6,108.5c2.4,1.8,6.2,0.8,7.4,4.4c-0.4,1.9,1.1,4.5-0.6,5.7c-2.1,1.4-3.5-1.6-5.3-2.5
		c-1.4-0.6-2.4-1.8-3.9-1.9c-7.5-1.5-14.8-2.5-21,4.1c-0.8,1.1-1.6,2-3,2.4c-0.9,0.1-1.5-0.1-2.3-0.5c-0.3-0.5-0.5-0.9-0.6-1.5
		c-0.1-0.9,0.4-1.5,0.8-2.4c0.5-3.9,2.1-6.4,6.3-6.8c1-0.1,1.8-0.9,2.1-1.8c0.9-2.6,2.8-3.4,5.3-3.4c3,0,6.2,0,9.2,0
		C198.2,104,200.1,105.3,200.6,108.5z"/>
	<path class="st39" d="M-11.8,301.3c-2.5-1.5-4.7-0.3-7,0.4c-4.5,1.3-4.4-3.1-5.7-5.7c-1.4-2.6,0.3-3.1,2-4.4
		c4.7-3,9.8-1.8,14.7-2.4c3.8-0.5,4,3.9,4.8,6.5c0.8,2.6-2.1,2.4-3.5,3.1C-8,300-9.9,300.6-11.8,301.3z"/>
	<path class="st40" d="M399.3,291.4c1.1,1.1,3.6,1.1,2.1,4c-1.3,2.4-1.3,6.8-4.4,6c-4.3-1-8.9,0.3-12.9-2.3
		c-1.4-0.9-4.1-0.8-4.1-2.8c0.1-2.5,0.9-5.3,3.3-6.9c0.8-0.5,1.4-0.8,2.1-1.1C390.1,288.9,395.4,286.5,399.3,291.4z"/>
	<path class="st41" d="M408.2,276.3c-2.4-6.3-9.3-8.9-16.7-6.5c0.1-2,1.1-3,3-3.1c2.8,0.6,4.1,0.1,5.2-3.3c3.8-12.8,1.5-12.2,13.7-6
		c1.4,0.8,3.1,1,3.6,3c-0.8,1.4-2.1,0.4-3.1,1.3c-1.5,3.3-3.1,6.4-3.1,10.1C410.8,273.7,409.9,275.3,408.2,276.3z"/>
	<path class="st42" d="M172.3,118.7c0.1,0.3,0.1,0.5,0,0.9c-1.1,1.6-3,1.8-4.7,2.4c-8.7,0.9-16.6,3.4-21,12.4
		c-1.8,3.5-2.5,7.3-2.5,11.2c0.1,28.9,0.1,57.7,0,86.5c0,2.5,0.5,5.2-1.1,7.3c-0.6,0.3-1.1,0.3-1.6-0.4c-0.9-1.8-0.5-3.6-0.5-5.4
		c0-6.8-0.1-13.5,0-20.2c0.3-21.7-0.8-43.4-0.5-65.1c0.6-4.8,0.3-9.6,1.5-14.2c0.9-3.8,2.6-6.8,5.9-9.1c5.8-3.3,11.6-6.4,18.2-6.9
		C168.4,117.9,170.5,117,172.3,118.7z"/>
	<path class="st43" d="M239.9,186.6c0,4.8,0,9.6,0,14.3c1.8,7.9,0.9,16.1,1.4,24c-0.9,4.3-1.6,8.5-0.4,12.9c0.6,0.8,1.3,1.5,1.9,2.4
		c2.1,3,0.1,5.2-1.6,7.3c-0.9,1.1-0.8,2.4-1.3,3.6c-0.3,0.6-1.1,1.4-1.1,1.4c-1.3-3.8-3,1.5-4.3-0.3c-1.1-1.9-0.9-4-0.6-6
		c0.4-2.5,4.5-3.3,2.9-6.8c-0.1-0.5-0.1-1.1-0.1-1.8c-0.1-19.9-0.4-39.7,0.1-59.6c0.3-8.7,0.8-17.5,0.8-26.1c0-3.1,0.1-6.4-0.5-9.6
		c-0.4-1.9-1.1-4.5,1.9-5.3C241.3,153.5,239.5,170,239.9,186.6z"/>
	<path class="st44" d="M305.5,172.9c0.3-1.1,0.6-2.4,0.9-3.5c0.3-0.3,0.6-0.8,0.9-1c6.4-4,11.6-9.6,16.5-15c4-4.4,8.4-8,12.3-12.6
		c0.5-0.5,0.6-1.8,1.6-0.5c-3.5,13.3-13.5,21.1-23.6,28.3C311.7,170.5,307.5,169.3,305.5,172.9z"/>
	<path class="st45" d="M-22.5,268.8c-2.8,0.5-4.8,2.8-7.2,4c-2.8,1.4-0.5,3.4-0.6,5.2c-2.6-2-3.8-4.7-4-8c-0.1-2.8-1.9-5.3-2.9-8
		c-1.9-1.4-1.9-2.9-0.1-4.4c0.6-0.5,1.4-0.9,2.1-1.3c8-4.4,11.1-2.8,12.2,6.7c0.3,1.9-0.6,3.1-2.4,3.8
		C-24,266.8-21.3,265.4-22.5,268.8z"/>
	<path class="st46" d="M356.3,134c-3,0-3,2.5-3.6,4.5c-4.7,0.3-7.7-3-11.2-5.3c-0.5-2.1,0.5-3.9,2.3-4.3c3.1-0.8,4.1-3.3,5.8-5.4
		c5,3,9.3,7,15.8,6.5c3.6-0.3,6.3-2.4,9.6-3.3C370.2,133,363.2,133.4,356.3,134z"/>
	<path class="st47" d="M29.5,120.6c0,1.4,0.4,2.8,0,4c-1.4,4,0.5,5.2,3.9,5.2c1.5,0.1,3.1,0.4,2.1,2.8c-3.1,3.4-6.8,5.8-11.7,5.4
		c0-3,0-3,3.8-4c-2.5-0.4-5.2,2.3-6.8-1c-6.7-0.3-13.5-0.5-18.5-6.3C12.9,132.4,21.8,129.6,29.5,120.6z"/>
	<path class="st48" d="M70.6,168.3c0,0.8,0,1.5,0,2.4c-8.9-1.8-14.8-8-21.2-14c-4.4-4-7-9.1-9.1-14.6c0.1-0.8,0.1-2,1.4-0.8
		c1.9,2.1,4.8,3.9,6.3,6.3C53.7,156.8,62.5,162,70.6,168.3z"/>
	<path class="st49" d="M-40.9,193.8c2,3,5.4,5,6,9.1c0.3,4,0.1,7.7-3.8,10.1c-1,0.6-1.8,1.5-3,0.9s-0.5-1.8-0.3-2.6
		c1.4-5.2-1.3-9.8-2.3-14.6c-0.4-2-2.4-3.6-4.8-3.6c-1.6,0-3.1-0.1-4.7-1.1c1.3-0.8,2.1-1.9,3.8-2c2.1-1.1,3.1,0.5,4.1,1.9
		C-44.2,192.3-42.6,193.1-40.9,193.8z"/>
	<path class="st50" d="M238.9,137c-1.8,4.1,0,8.3-0.1,12.3c-0.5,29.9-0.6,60-0.9,90c-2.6-0.3-2.1-2.5-2.3-4.3c-0.3-2-0.1-4-0.1-6
		c0-26.3-0.1-52.4,0.1-78.6c0-5.2-0.1-10.1-1.9-15c-0.1-1.3-0.4-2.5-0.3-3.8c0.3-2,1-2.6,2.5-0.8C236,133.4,239.3,134.3,238.9,137z"
		/>
	<path class="st51" d="M413.2,199c2.4-3,5.2-5.7,8.7-7.3c1.9-0.3,4.4,0.9,5.3-2.1c1.1,1.9,3.3,1.9,4.9,3c-2.4,0.5-4.8-0.4-7.2,0.8
		c-4.1,2.1-7.7,10.6-6.7,16.5c0.3,1.5,1.8,3.6-0.1,4.4c-1.9,0.8-2.8-1.8-4-3c-1.4-1.3-0.9-3.8-2.9-4.4
		C410.5,203.9,412.5,201.6,413.2,199z"/>
	<path class="st52" d="M143.9,323.8c2.4-3.6,0.8-7.8,1.1-11.7c0.3-2.1-0.1-4.7,3-4.7c3,0.1,2.9,2.5,2.9,4.8c0,3.5,0.1,7-0.1,10.6
		c-0.1,1.5,0.8,3.5-1.3,4.5c-2.1,1-4,0.1-5.5-1.6C144,325.1,143.9,324.5,143.9,323.8z"/>
	<path class="st53" d="M-22.5,268.8c-0.8-3.1-2.5-0.9-3.6-0.5c-1.1,0.4-2.3,1.1-2.8-0.5s0.8-1.9,1.9-1.9c3.4-0.1,3.8-1.9,2.4-4.7
		c-1.1-2.4-2.3-6.8-3-6.8c-3,0.4-5.7,2.1-8.5,3.4c-2.1,0.9-1.9,2.4-1,4c-2.4,0-4.8-0.4-5.9-3c3.5,0,5.9-3,9.1-4.1
		c1.9-0.8,3.5-2.1,5.7-2.4c5-2.4,10.3-3.5,15.6-4.8c0.1,0.8,0.1,1.4,0.1,2c-1.1,0.1-2.4-0.1-3.4,0.4c-2.9,1.4-8.3,0.1-8.4,4
		c-0.1,4.8,1.8,10.2,6.8,12.8c0.1,2.5-1.9,1.4-2.9,1.9C-21.1,268.8-21.7,268.8-22.5,268.8z"/>
	<path class="st54" d="M198.5,112.8c3.5,0.4,5.5,3.5,8.3,5.2c1.5-1.5,0.3-3.5,1.1-5.2c0.4,2.4,0.8,3.8,4,4.3
		c7.8,1.1,16,2.1,21.1,9.7c-0.8,2.6-1.3,3-3.4,0.9c-2.6-2.5-5.5-4.5-9.1-5.7c-2.6-0.9-5.3-1.4-8-0.6c-0.9-0.1-1.9,0-2.8-0.5
		c0.5,0.6,2,0.3,1.8,1.8c-1.8,1.5-0.5,3.8-1.4,5.5c-1.9,0.8-3.1,0.4-3.4-1.9c-0.1-0.6,0.5-1.3-0.3-1.8c0.6,0.6,0.1,1.1-0.3,1.5
		c-1.5-0.1-1.8-1.4-2.1-2.5c0-3-1.8-4.9-4-6.4c-1.4-0.9-3.1-1.1-3.8-2.9C196.7,112.8,198,113.4,198.5,112.8z"/>
	<path class="st55" d="M176.3,99.3c4.4-1.9,8.9-0.8,13.5-0.9c4.7-0.1,9.4-0.9,14,0.8c-1,0.8-2.1,1.6-3.1,2.4
		c-6.4,4.5-12.9,3.5-19.7,0.9C179.3,101.4,177.8,100.3,176.3,99.3z"/>
	<path class="st56" d="M-20.7,285.7c-1.6-1.3-1.3-2.1,0.5-2.5c3-0.8,5.7-1.8,7-5c0.9-2,3-2,5.7-1.1c-2-3-5.7-1-6-4.4
		c3-0.1,5.5-2.1,8.7-1.5c-0.4,0.9-1.1,1.8-1.1,2.8c0.1,3.8,1.6,7.9-3.9,9.7C-13.3,284.6-16.6,287.1-20.7,285.7z"/>
	<path class="st57" d="M385.6,188.6c0.9-1,1.6-0.5,2.5,0.1c6.2,3.8,12.8,5.8,21.1,5c-2.9,3-7.2,1.3-8,5.2
		C395.7,196.1,389.1,195,385.6,188.6z"/>
	<path class="st58" d="M383,275.1c1.5,2.9,5.4,1,6.7,3.1c2.5,4.1,7,4.8,10.7,6.8c-0.1,0.3-0.1,0.5-0.1,0.8
		c-4.4,0.8-8.8,2.3-12.6-1.9C383.6,282.5,381.7,279.6,383,275.1z"/>
	<path class="st59" d="M414,261.7c0.6-0.5,1.3-0.9,2.3-1.6c-1.9-1.1-3.8-2.4-5.7-3.1c-2.3-0.9-5.4-4-6.7-2
		c-1.9,3.3-4.7,7.3-1.9,11.8c-2.5,0.5-5,2.4-7.4,0.1c4.4-0.8,4.3-5,5.4-8c0.8-1.9,1.4-4,2.1-6c0.1-0.5,0.5-0.8,0.9-0.9
		c0.8,0.1,1.4,0.3,2.1,0.5c4.8,2,9.3,4.3,13.6,7.3C417.9,262,415.9,261.7,414,261.7z"/>
	<path class="st60" d="M392.8,132.7c-0.8,1.6-1.1,3.8-3.8,1.4c-3.1-3-6.8-5.5-10.3-8.3c0-0.8,0-1.4,0.1-2c0.5-0.9,0.9-1.6,1.4-2.5
		c2.4,3.4,6.4,4.4,9.1,7.4C390.4,130,391.5,131.4,392.8,132.7z"/>
	<path class="st61" d="M387.6,284c4,2.1,8.4,1,12.6,1.9c0.5,2-0.8,3.6-0.9,5.7c-4.1-3.4-9.7,0.3-14-3
		C386.9,287.4,387.4,285.7,387.6,284z"/>
	<path class="st62" d="M180.8,102.6c6.7,0.9,13.2,1.4,19.7-0.9c0,2.3,0,4.7,0,6.8c-1.4-2.4-3.4-3.4-6-3c-4.7,0.6-9.7-1.5-13.8,2
		C180.2,105.8,180.3,104.2,180.8,102.6z"/>
	<path class="st63" d="M201.7,28.3c3.4-3,6.2-0.9,8,1.6c0.9,1.1,1.5,1.4,2.5,1.5c0.1,0.3,0.3,0.6,0.1,1c-2.5,2-0.6,5.8-2.6,7.9
		c-1.4,0-2.8,0.1-4.1,0.1c-0.3-0.3-0.8-0.6-1-0.9C205.8,35.2,205,31.4,201.7,28.3z"/>
	<path class="st64" d="M-2.6,123.8c-2.8,5.9-7.9,9.1-13.1,8c3.3-4,6.9-7.4,11.7-9.3C-3.5,122.9-3.1,123.3-2.6,123.8z"/>
	<path class="st65" d="M349.5,123.6c0.1,3.5,0,6.8-4.9,6.4c-2-0.1-2.4,1.9-3.1,3.4c-0.3,0-0.6-0.1-0.9-0.3c-0.5-3.1,2.1-4.8,3.5-6.9
		c1.4-2.4,2.6-4.7,2.5-7.4C347.7,120.3,348.5,121.9,349.5,123.6z"/>
	<path class="st66" d="M172.3,118.7c-8.3,0.3-16.5,1.1-23.1,7.2c-1.1,1.1-1.1-0.3-1.1-0.9c5.3-6.3,12.8-6.8,19.9-8
		c1.4-0.3,2.9-0.5,4.3-0.8C172.3,116.9,172.3,117.9,172.3,118.7z"/>
	<path class="st67" d="M212.6,120.6c7-2.1,12.3,1.1,17.6,5.4c0.5,0.4,1.1,4.7,3,0.8c1.4,1.1,2.8,2.1,2.8,4.1
		c-4.1-0.1,0.5,2.9-1.1,3.5c-1.9-0.1-2.6-1.8-3.6-3c-3.5-4.7-7.9-7.9-13.8-8.9C215.8,122.3,213.8,122.4,212.6,120.6z"/>
	<path class="st68" d="M36.5,82.5c-1.4,0.9-2.8,1.9-4.1,2.8c-2.8,0.3-5.7,0.8-7-2.8C29.2,78.3,32.9,79.9,36.5,82.5z"/>
	<path class="st63" d="M211.2,28.4c-3.1-2.4-7.2-2.9-10.9-4.1c1.4-1.8,4.8-1.5,3.3-4.8C208.2,20.5,210.6,23.6,211.2,28.4z"/>
	<path class="st69" d="M352.6,84c-4.1,3.4-7.9,1.1-11.7-0.6C346.8,79.4,347.9,79.4,352.6,84z"/>
	<path class="st70" d="M172.4,21.2c0.9,1.5,2.8,0.1,4,1.3c0.8,0.8,2.4,0.8,4.4,1.4c-4.9,0.6-8.7,2.5-12.3,4.4
		C168.8,25.4,169.9,22.9,172.4,21.2z"/>
	<path class="st29" d="M20.7,132.9c2.1,1.8,4.5-0.3,7.2,0.1c-1.4,2-4.5,2-4.1,4.9c-1,1.4-1.9,2.8-3,4c-0.4-0.3-0.8-0.8-1.1-1
		C20.9,138.4,21.4,135.8,20.7,132.9z"/>
	<path class="st71" d="M403.2,251.8c-0.3,0.3-0.6,0.6-0.9,0.9c-3.1-0.9-6.3-1.9-9.3-2.8c-1.8-0.5-3.3-0.5-3.5,1.9
		c-1.5-3.5-1.3-6.9,0.3-10.3c-1.3,5.2,0.9,7.4,5.8,7.9C398.1,249.5,400.6,250.9,403.2,251.8z"/>
	<path class="st72" d="M140.2,311.6c-0.1,0.4-0.1,0.8-0.3,1.1c-1.8,5.2-0.4,10.6-0.8,15.8c-0.1,2.5,0,4.9-1.1,7.4c0-7.7,0-15.5,0-23
		C138,311.8,139.1,311.5,140.2,311.6z"/>
	<path class="st73" d="M167.6,32.3c2.3-0.6,3,0.8,3,2.6c0,1.8-0.3,3.6-0.5,5.4c-0.9,0.1-1.8,0.1-2.6,0.1
		C167.5,37.8,167.5,34.9,167.6,32.3z"/>
	<path class="st74" d="M209.9,40.3c0.6-2.8-3.1-7,2.6-7.9c0,2.8,0,5.4,0,8.2C211.6,40.5,210.6,40.5,209.9,40.3z"/>
	<path class="st6" d="M-45.8,191.6c-1.4-0.6-2.8-1.3-4.1-1.9c0.4-1.8,0.8-3.4,1.3-5c1.4,1.4,2.6,2.8,3.9,4
		C-45.1,189.7-45.5,190.7-45.8,191.6z"/>
	<path class="st75" d="M142.2,134c0.5,0.1,1.8-0.5,1.4,0.1c-2.1,3.8-0.9,8.3-2.4,12.2c-1.5-1.9,0.1-4.3-1-6.2
		c-0.1-0.4-0.3-0.8-0.3-1.1C140.6,137.3,141.3,135.6,142.2,134z"/>
	<path class="st76" d="M389.4,272.8c-1.9,2-4,1.1-6,0.3c-0.5-0.9-2.8-0.4-1.9-2.5C384.2,270.9,386.9,271.7,389.4,272.8z"/>
	<path class="st6" d="M-48.5,174.5c1.1,2.6-2.4,4.4-1.1,7c-0.4,0-0.9,0.1-1.3,0.1C-52.6,178.4-50.1,176.6-48.5,174.5z"/>
	<path class="st77" d="M140.6,324.7c1.5,4.1,0.8,7.3,0,10.3C140.6,332,140.6,329,140.6,324.7z"/>
	<path class="st78" d="M235,288.1c0.5-0.4,1.1-0.8,1.6-1.1c1,0.3,1.3,1.1,1.3,2.1c0.1,0.8,2.5,1.5,0,1.9
		C236.3,291.4,235.1,290.1,235,288.1z"/>
	<path class="st79" d="M143.2,287.1c0.5,0.3,1.1,0.8,1.8,1c-0.3,2.5-1.5,3.4-4,2.8C141.3,289.4,143.5,288.9,143.2,287.1z"/>
	<path class="st80" d="M131.4,251.6c2.6,2,5.7,0.4,8.4,1.1c1.5-1.4,3.4-1.8,5.3-1.4c1.1,0,2.3,0.3,3.1-0.9c0.8-4.4,3.5-6.2,7.7-6.2
		c1.8,0,3.5-0.1,5.4,0c3.8,0.4,7.5-0.8,11.2,0.9c1.6,1.6,2,3.9,1.9,6c-0.5,7.3-0.1,14.5-0.3,21.6c-0.1,5.7-1.4,6.7-6.7,6.8
		c-2.3,0.1-4.5-0.1-6.8,0.3c-0.5,0.1-1.3,0-1.9,0.8c6.2-0.9,12.1-0.1,18,0.1c2.4,0.1,5.4,0.3,3.8,4.4c-12.4,0.8-24.8-0.8-37.2-1
		c-2.4-1.9-5-0.3-7.4-0.3c-5.4,0-10.7,0.5-16.1,0.1c-4.7-0.4-6.4-4.4-6.8-8.5c-0.4-5.5-0.1-11.2-0.1-16.7c0.1-3.8,2.1-5.9,5.8-6
		c3.5-0.1,7.2-0.1,10.7,0.3C130.5,252.9,131.2,252.7,131.4,251.6z"/>
	<path class="st81" d="M120.5,209.1c-0.1,6.4,0.8,12.8-0.9,19.1c-0.1,0.6-0.3,1.4-0.5,1.9c-0.9,2.3-1.1,5.8-4.4,4.9
		c-2.8-0.9-2.4-4.1-1.9-6.7c1.5-7.5,1.1-15.2,0.5-22.8c-0.5-6,3.4-10.1,4-15.2c0.1-0.6,0.8-1.4,1.5-0.9c1.1,0.6,1.5,1.8,1.5,3
		C120.5,197.9,120.5,203.5,120.5,209.1z"/>
	<path class="st82" d="M96,202.9c-0.3-1.8-1.9-3.9,1-5c5.8-1.4,9.6-5.8,13.7-9.6c-1.1,6.4-6.7,8.3-10.9,11.2
		C98.2,200.5,97.2,201.6,96,202.9z"/>
	<path class="st83" d="M95.1,218.5c0.5-1.9-1.3-4.8,1.8-5.3c2.5-0.5,3.4,1.4,2.9,3.8C98.2,217.5,96.6,218,95.1,218.5z"/>
	<path class="st80" d="M234.8,252.6c2.4-1,0.5-3.6,1.8-5.2c2.1,0.8,0.8,3,1.8,4.3c1.4-1.5-0.3-3.9,1.4-5.2c0.3,0.1,0.5,0.3,0.8,0.6
		c2.4,4.7,2.4,4.7,5.2,0.3c3.3,0.3,1.9,3.5,3,5.2c3.3,0,6.5-0.1,9.7,0.1c4.8,0.3,6.4,2,6,6.9c-0.3,4.3,0.3,8.7,0.3,12.9
		c0,5.3-2,8.4-5.4,11.6c-12.3,0.3-24.6-1.1-36.8,0.4c-8.9,1.1-17.9,0.5-26.8,0.6c-0.4-4,2.4-4.1,5-4.4c6-0.5,12.2-0.9,18.4-0.5
		c-1.8-2-3.9-1.5-6-1.5c-8.8,0.5-11.1-1.6-10.9-10.8c0.1-4.5,0.3-9.1,0.6-13.6c1-2.8,3.3-4.8,3.9-7.9c0.4-1.8,2.3-2.1,3.9-2.3
		c2.4-0.1,4.8-0.1,7.2-0.1c0.8,0,1.6-0.1,2.4,0c9.3,1.3,7.3-1,9.9,7.3C231.9,251.6,233.5,251.2,234.8,252.6z"/>
	<path class="st22" d="M248.7,252.6c-3.3-0.4-0.8-4-2.6-5.2c-3.1-1.3-1.9-5-3.5-7c-1.5-2.5-2.5-5.4-2.5-8.4c-0.8-2.3,0.8-4.5,0-6.8
		c0-8,0-16.2,0.1-24.4c3.6,3.5,1.4,8.7,2.8,12.8c2.5,7.4,3.5,15.8,11.2,20.4c3.9,2.4,4.7,6.8,6.3,10.6c0.9,1.9-0.4,3-2.5,3.1
		C253.9,247.7,250.7,249,248.7,252.6z"/>
	<path class="st84" d="M259.6,190.2c2,4.7,5,8.9,4.7,14c-0.6,8.9,0.1,17.7,0.1,26.5c0,1.6,0.4,3.8-1.8,4.1c-1.9,0.3-2.8-1.6-3.4-3.1
		c-0.5-1.3-0.9-2.5-1-3.9c-1.5-11.4-0.6-22.9-0.4-34.3C257.9,192.6,258,191.2,259.6,190.2z"/>
	<path class="st85" d="M284.8,188.6c1.4,3.5-1.4,6.7-1,10.1c-1,1.9-1.8,3-4.5,1.5c-5.7-2.8-9.9-6.7-13.5-11.7
		c-4.3-6.3-2.5-16.1,3.1-19.1c-6.4,11.3-4,20.4,6.9,26.7c4.7,2.6,5.3,2.3,7.3-2.8C283.8,191.7,283.4,189.8,284.8,188.6z"/>
	<path class="st86" d="M277.1,214.2c1.5-0.3,3-2.1,4.8-0.5c1.6,1.4,0.6,3,0,4.4C280.3,217,275.9,219.4,277.1,214.2z"/>
	<path class="st87" d="M195.9,347.2c5.5-2,11.3-0.8,16.8-1.1c1.9-0.1,2.5,1.1,2.5,2.9c0,1.4,0,2.8,0,4c0.1,39,0.1,77.9,0.1,116.8
		c1.5,6.4,1.6,12.9,0,19.4c-1-1.1-2.1-0.9-3.5-0.5c-6.4,1.5-10.6-1.5-11.6-8.3c-0.3-1.4-0.1-3-1.5-4c-1.6,0.3-1.5,5-4.5,1.9
		c-2.3-5.4-1.4-10.9-1.1-16.5c0.6-13.2,0.9-26.3,1-39.4c0.1-22.6,0-45.3,0.1-67.8C194.5,351.9,193.9,349.2,195.9,347.2z"/>
	<path class="st88" d="M195.9,480c-0.1,3.8-0.3,7.4-4.8,8.8c-2.1,0.6-1.6,3.4-2.9,4.9c-4.9-6.2-11.4-11.3-8.5-21.2
		c-4,1.5-5.5,3.5-5.4,7.4c0.1,6.5-5.2,9.9-10.7,6.8c-3.6-2-2.8,0.8-2.9,2.5c-1.6-6.4-1.4-12.9,0-19.4c0.1-32.1,0.1-64.2,0.3-96.3
		c0-7.3,0.3-14.6-0.1-21.7c-0.3-4.4,0.9-6.4,5.3-5.7c1.4,0.3,3,0.1,4.4,0.1c1.5,0.9,3.1,0.4,4.8,0.5c5.5,0.1,6.4,0.9,6.4,6.8
		c0.1,12.7,0,25.3,0.1,38c0.1,10.4,0.3,21,0,31.4c-0.4,17.1,1.5,34.1,1.1,51.2c-0.1,3.9,0.3,7.8,3.1,10.9c1,0.6,1.5,2.4,3.1,1.4
		C192,484.9,192.6,480.9,195.9,480z"/>
	<path class="st89" d="M191.9,305.4c-0.1,0.3-0.5,0.5-0.5,0.8c0.1,1.9,1.6,1.1,2.5,1.3c2.4,0.1,3.5,0.9,3.8,3.5
		c1.4,10.9,1,21.7-0.9,32.6c-0.8,4.4-4.7,1.4-6,3.5c-0.5,10.4-0.1,20.9-0.3,31.3c0,2.5,0.3,5-1.4,7.3c-0.9,0.6-1.8,0.6-2.6-0.1
		c-0.6-0.9-1-1.8-1-2.8c-0.4-10.7-0.4-21.5,0-32.3c0-1.1,0.5-2.3,1.4-3.1c-3.1-1.1-3.9-3.5-4.1-6.7c-0.6-8.7-2.5-17.1-0.8-25.9
		c0.8-4.1,1.9-7,6-8.2c-0.6-0.8-1.3-1.4-1.9-2.1c2-1.5,4-1.8,5.9,0.1C192,304.9,192,305.1,191.9,305.4z"/>
	<path class="st90" d="M187,487.1c-6-2.1-5.7-7.7-5.8-12.6c-1.4-39.6-1-79.2-1-118.8c0-7.9,0-7.9-7.7-8.7c-0.8-0.1-1.5-0.6-2.1-0.9
		c4.1,0.3,8.5-1,12.7,1c1.8,1.9,1.8,4.4,1.6,6.7c-0.5,20.9,0.9,41.7,1,62.6c0,8.2,0.6,16.5,0.8,24.6c0,1.8,0.6,3.3,1.4,4.8
		c0.5,1.5,0.5,3.1,0.1,4.8c-1.1,1.9,0,3.8,0.1,5.8c0.6,9.6,0.6,19.1,0.1,28.7C188.2,485.8,187.7,486.5,187,487.1z"/>
	<path class="st91" d="M187.1,446.5c-1.5-1.4-2.1-3-1.9-5c0.8-10.9-1.1-21.9-1-32.8c0.3-20.5-1.6-41.1-0.9-61.6c1.3,0,2.5,0,3.8,0.1
		c0.1,12.8,0.1,25.6,0.3,38.3c1.5,1.9,1.4,4.1,1.4,6.3c0,16.2,0,32.4,0,48.5C188.4,442.4,188.7,444.8,187.1,446.5z"/>
	<path class="st92" d="M203.7,254.6c1.5,4.4-0.1,8.9-0.1,13.3c0.1,9.2,1,10.1,9.8,9.3c5.7-0.6,6.4-0.3,9.3,4.4c-2,1.1-4.1,0.9-6,0.5
		c-5.4-1.1-10.6,0.4-15.8,0.1c-2.4-0.1-4.1,0.6-5,3c-5.2,0-10.3,0-15.6,0c0.1-3-1.9-3-4-3c-6.2,0-12.3,0.1-18.5,0
		c-1.5,0-3.1,0.4-4.7-0.8c4.8-4.1,10.1-3.4,15.5-3.3c2.6,0.1,3.8-0.9,3.8-3.8c-0.1-9.6,0-19.1,0-28.7c3.8,1.5,4.7,4.9,5.5,8.4
		c-1.9,6.3-0.4,12.6-0.1,18.7c0.1,3.1,2.6,2.6,4.7,2.8c3-0.1,6,0.1,9.1-0.1c1.5-0.1,3.1-0.1,3.4-2c0.8-5.2,2.6-10.4-0.4-15.6
		C196.8,254.2,200.2,254.1,203.7,254.6z"/>
	<path class="st90" d="M195.9,480c-1.9,2.8-3,6.4-6.8,7c-2.4-3.9-0.1-8-0.6-12.2c-0.9-8-1.4-16.2-0.9-24.4c0.4-3.4-0.3-6.8,0.4-10.2
		c2.6-0.1,2.3,2.1,3,4.1c-1.4-8.7,0.5-16.8,0.5-25c0-16.5-0.1-32.8,0.1-49.2c0.1-7.7,0.5-15.5,1.5-23.1c0.9,0,1.9,0,2.9,0
		c0,30.9,0.1,61.9-0.1,92.9c-0.1,11.1-0.6,22.1-0.9,33.1c-0.1,2-0.1,4,1,5.9C195.9,479.4,195.9,479.6,195.9,480z"/>
	<path class="st3" d="M193,347.2c1.8,3.9,1.3,8,0.8,11.9c-1.8,14.5-0.8,28.9-0.8,43.4c0.1,13.3-1,26.5-1.1,39.9
		c0,1.9-0.8,3.9-1.1,6.5c-1.4-3.1-0.9-6.3-2.8-8.5c-1-8.9-0.6-17.9-0.3-26.8c0.3-7.5,0.3-15.2,0.4-22.8c0-1.9-0.3-3.8,0.9-5.4
		c0.1-11.3,0.1-22.8,0.1-34.2c0-1.6-0.9-3.9,1.8-4.4C191.6,347,192.3,347.1,193,347.2z"/>
	<path class="st93" d="M227.2,316.9c0-2.1,0-4.4,0-6.5c0-1.5,0.3-2.8,2.1-2.8c1.5,0,2.5,0.9,2.6,2.4c0.1,5.2,0.1,10.4,0,15.6
		c0,1.5-0.9,2.1-2.3,1.9c-1.5-0.1-2.4-1.1-2.4-2.6C227.2,322.2,227.2,319.6,227.2,316.9L227.2,316.9z"/>
	<path class="st94" d="M385.6,157.3c-4.7-3.1-7.4-7.9-10.1-12.8c-0.8-1.4-1.5-3,0.1-4c1.4-0.9,2.5,0.4,3.3,1.4
		c11.2,13.3,24.3,25.3,32.2,41.4c0.9,1.8,4.4,4.9-1.1,5.7l0,0c-7.9-9.1-13.5-20.1-22.6-28.2C386.5,159.8,385.6,158.8,385.6,157.3
		c4.1-0.1,5.2,4,7.9,5.7c-2.9-4-6-7.9-9.6-11.2C384.6,153.5,387.3,154.6,385.6,157.3z"/>
	<path class="st95" d="M65.8,137.9c1.9,4.1,5.5,7.4,5.8,12.3c-6-0.6-8.4-6-11.9-9.9c-1.5-1.6-0.9-4.9,0.3-5.4
		C62.3,134,64.3,135.9,65.8,137.9z"/>
	<path class="st96" d="M-31.1,185.7c-1.3,0.9-2.5,1.9-4.9,3.8c2.6-11.2,8.8-18.6,14.7-26c1.1-1.4,1.8-3.4,4-3.1
		c0.8-0.1-0.4,3.1,1.8,1c1.8-1.8,3-4.7,6.3-3.9c0.3,0.8,0.3,1.4-0.3,1.9l0,0C-17.7,167.2-24.2,176.6-31.1,185.7z"/>
	<path class="st97" d="M-9.6,159.3c0-0.8,0-1.4,0-2c0-4,3.4-5.8,5-8.9c0.6-0.8,1.8-1.3,1.5-2.4c-0.3-0.9-1.4-0.3-2.1-0.6
		c-0.1-0.1-0.3-0.3-0.5-0.5c0.8-3.5,3.8-5.3,6.2-7.5c1-0.9,2.4-0.8,3.5,0.1c1.1,1,0.6,2.1,0.3,3.1C1.4,148.5-4.4,153.6-9.6,159.3z"
		/>
	<path class="st97" d="M-31.1,185.7c6-9.8,12.3-19.4,21.5-26.4c-0.1,2.9-3,3.8-3.9,6c-6.7,5.8-10.9,13.7-16.6,20.4
		C-30.5,185.7-30.9,185.7-31.1,185.7z"/>
	<path class="st97" d="M-17.4,160.3c-1.4,1-2.6,2-3.9,3c3.8-7.4,9.7-12.8,15.6-18.2l0.1,0.1c0.5,0.6,0.6,1.3,0.5,2
		C-9.3,151.6-12.3,157-17.4,160.3z"/>
	<path class="st98" d="M312.2,136.9c1.3-1.1,2.5-2.1,3.8-3.1c1.1-1,2.4-0.9,3.5,0.1c1,0.9,2.1,2.1,1.3,3.4
		c-4.4,5.8-7.3,13.1-15.3,14.8c-2.8-2.3-0.3-4.7,0.8-5.8C308.6,143.4,309.8,139.8,312.2,136.9z"/>
	<path class="st99" d="M298.5,154.4c-2.4,5.3-1.8,11.2-3,16.6c-0.4,1.6,0,4.1-2.5,4c-2.4-0.3-2.1-1.9-1.8-4.1
		c0.4-2.4-0.3-4.9-0.5-7.4c1.4-2.1,0.8-4.9,2.1-7.2c1.4-2.3,2.9-3.5,5.5-3C298.5,153.6,298.5,154,298.5,154.4z"/>
	<path class="st65" d="M346.5,118.7c-0.3,0-0.8,0-1,0.1c-1.3-4-1.8-8,0.1-11.9C345.4,110.7,345.6,114.6,346.5,118.7z"/>
	<path class="st100" d="M1.3,110.5c-0.8-5.8,3-8,6-10.6c1.8-1.5,4.8,2.5,4.7,5.8c-0.3,3.3-5.2,8.4-8.3,8.3
		C0.4,114.1,1.5,111.4,1.3,110.5z"/>
	<path class="st101" d="M375.9,110.7c-0.1,1.5,0.5,3.8-2.4,3.8c-3.4-0.1-7.4-5-7.3-9.2c0.1-1.9-1.3-4.8,2.4-4.8
		C372,100.6,375.8,105.8,375.9,110.7z"/>
	<path class="st85" d="M287.9,175.5c1.6,3.1,0,10.1-3.1,13.2C285,184.2,287.1,179.9,287.9,175.5z"/>
	<path class="st102" d="M155.6,91.5c-1.3-2-0.6-4.3-0.6-6.4c-0.1-11.9,0.1-24-0.1-36c-0.1-4,1-5.9,5.2-5.8
		c20.1,0.3,40.4,0.3,60.5,0.5c1.5,0,3-0.3,3.4,1.9c-0.6,8.4-0.1,16.7-0.3,25.1c-0.1,1.6,0.8,4.1-2.5,3.4c-2.6-3.8-1.4-8.2-1.5-12.3
		c-0.3-7.2-0.4-7.4-7-7.5c-16.2-0.3-32.6,0-48.8,1c-1.1,0.1-2.3,0.1-3.3,0.8c-2.1,1.8-1.4,4.3-1.5,6.5c-0.1,2.1,0.3,4.7-2.4,6.8
		c-0.9-4.9-0.3-9.2-0.5-12.8c-0.6,9.2,1.8,18.9,1,28.7C157.1,87.6,157.6,90,155.6,91.5z"/>
	<path class="st103" d="M221.3,74c2.6-0.5,1.9-2.8,1.9-4.4c0.1-6.4,0-12.8,0.1-19.1c0-1.6-0.5-3.4,0.8-4.8c0.1,15,0.3,29.9,0.4,45
		c0,3.1-1.6,4-4.4,4c-21.1,0-42.2,0-63.4,0c-0.1-0.3-0.4-0.4-0.8-0.4c-0.1-0.9-0.3-1.8-0.4-2.6c0-13.2,0-26.5,0-39.7
		c0.4,0,0.8,0,1.1,0c0,5.3,0,10.7,0,16c2-4.7-0.4-9.6,2-14c1.8,1.9,1.5,4.4,1.5,6.7c0.1,7.8-0.1,15.6,0.1,23.3
		c0.1,5.3,0.5,5.8,5.7,5.8c16,0.1,31.9,0,47.9,0.1c4,0,5.9-1.4,5.9-5.8C219.8,80.4,219.3,77.1,221.3,74z"/>
	<path class="st104" d="M-53.5,207.7c-0.6,2.8-1.3,6-4.7,6.2c-4,0.1-3.6-3.8-3.5-6.4c0.1-2.6,0-6.9,3.1-6.9S-54,204.3-53.5,207.7z"
		/>
	<path class="st105" d="M88.3,170.3c-0.4,0.9-0.8,1.9-1.1,2.8c-0.5,1.6-2,1.8-3.1,1.8c-1.5,0-1.4-1.5-1.6-2.6
		c-1.3-5.7-2.5-11.3-3.8-17c2.4-3.4,4-2.8,5.9,0.6c1.5,3,1.3,6.9,3.8,9.6C88.3,167.1,88.3,168.7,88.3,170.3z"/>
	<path class="st106" d="M94.2,192.7c-3.4-3.5-5.8-12.7-4.1-16.2C91.4,181.9,92.7,187.3,94.2,192.7z"/>
	<path class="st12" d="M-37.2,243.4c-3.1-2.6-4-6.4-5.4-10.1c0.4-0.1,0.8-0.4,1.1-0.5C-40.1,236.2-38.7,239.9-37.2,243.4z"/>
	<path class="st107" d="M194.9,32.7c-0.3,3.1-1.9,5-5,5c-3.4,0-5-2.3-5-5.5c0.1-3,1.6-5,4.9-5C193.5,27.1,194.5,29.5,194.9,32.7z"/>
	<path class="st108" d="M173,35.2c0-3.4,0.5-6.3,4-6.7c3.1-0.4,3.8,2.5,3.8,4.7c-0.1,3-1.8,5.7-4.9,5.9
		C173.5,39.2,172.9,37.1,173,35.2z"/>
	<path class="st109" d="M201.7,28.3c5.8,2.1,6.9,6.4,2.9,11.2C198.4,37.3,197.3,32.9,201.7,28.3z"/>
	<path class="st110" d="M-20.3,268.8c0.9-0.6,1.9-1.4,2.9-1.9c1.3,0.1,2,0.6,2.1,1.9C-16.9,270.5-18.6,269.8-20.3,268.8z"/>
	<path class="st111" d="M145.2,252.6c-1.8,0-3.6,0-5.4,0c0.1-2.9,1.4-6-2.1-8c-1.1-0.8-1.3-2.9-0.1-3.5c3.4-1.9,2.4-5.2,2.4-8
		c0-28.9,0-58,0-87c0-2,0.1-4,0.3-6c1.5,1.9,0.3,4.1,1,6.2c0.3,31.1,0.6,62.1,0.9,93.2c-0.5,3.4,3.3,4.4,4,7
		C146.4,248.5,146.6,250.8,145.2,252.6z"/>
	<path class="st112" d="M168.3,120.6c1.3-0.9,2.8-0.8,4.1-0.9c0.8,0.1,1.5,0.3,2.3,0.4c1.6,0.4,2.6,1.4,2.4,3.1
		c-0.1,0.5-0.1,1.1-0.3,1.6c-0.3,10.1,0.3,20.1-0.3,30.3c-0.8,5.4-1.6,10.9-1.6,16.5c-0.1,18.2-0.1,36.3,0,54.6c0,2,0,4,0.5,6
		c0.5,2.4,0.9,4.9-1.1,6.5c-2.3,1.8-5.2,1.6-7.4,0.1c-2.1-1.5-3.9-2.1-6-0.1c-0.6,0.5-1.5,0.6-2.4,0.6c-2.3-0.1-10.2-7.7-10.9-10.3
		c0.8-1.9,2.4-2,4-2.3c2.3-0.3,4.5-0.8,6.8-1.1c8.7-1.8,9.1-1.8,8.4-11.2c-1.4-24.9-0.9-49.9-3-74.7c-0.3-2.9-1-5.7-1.6-8.4
		c0.3-5,5.2-3.5,7.4-5.8c0.3-1.9-2.3-1.5-2.5-3c0.6-2.1,2.5-0.6,3.6-1.4c0.6-0.1,0-1.1,0.1-0.4c0.1,0.3,0,0.5-0.3,0.5
		C169.9,121.2,169,121.4,168.3,120.6z"/>
	<path class="st113" d="M176.3,122.7c0.3-1.5-2-1.1-1.6-2.8c0.5-0.8,1.1-1.6,1.8-2.4c6.3-4.8,12.9-6.8,20.4-3.8c3.9,2,8.7,3,8.9,9.1
		c-0.9,0.3-1.6,0.1-2.3-0.5c-8.4-6.3-16.8-5.9-25.3,0.1C177.6,122.8,176.9,123.1,176.3,122.7z"/>
	<path class="st114" d="M196.7,113.8c-7.2-0.9-14.1-0.1-20.4,3.8c5-6.8,12.1-6.3,19.1-5.7c1.1,0.1,2.1,0.5,3.3,0.8
		C198,113,197.3,113.4,196.7,113.8z"/>
	<path class="st115" d="M145.1,245.6c-2.1-1.5-6.7-1.9-3-6.3c0.3,0.1,0.6,0.1,0.9,0.1c0.8-0.6,1.6-0.9,2.6-0.8
		c26.5,0.5,52.8,1.1,79.3-0.8c2.1-0.1,4.1-0.1,6.3,0.1c2.4,0.4,4.4,1.5,6.8,2.1c3,4.4-1.9,3.8-3.1,5.4c-0.3,0.3-0.8,0.5-1,0.8
		c-0.9,0.4-1.9,0.5-2.8,1.1c-1.3,1.4-0.4,3.6-1.9,5c-0.1,0.1-0.3,0.1-0.4,0.3c0.5-8.8-5.8-6.8-10.6-7.3c-6-1.6-12.3-0.3-18.2-1.8
		c1.5,0.5,3.3,0,4.8,0.5c1.4,0.4,1.4,1.1,0.3,2.1c-3.9,1.6-8,0.8-12.1,0.9c-5.4,0.3-10.7-0.5-16.1,0.8c-5-4.1-10.4-4.4-16.2-2.4
		c-0.1,0-0.3,0-0.5,0c-5.4-0.4-10.7-0.5-11.6,7c-1.3-1.5-0.8-3.4-1.4-5c-0.4-0.5-0.9-0.8-1.4-1.1C145.6,246.3,145.4,246,145.1,245.6
		z"/>
	<path class="st116" d="M144.9,239.2c-0.6,0.1-1.3,0.1-1.8,0.3c-0.1-30.3,0.3-60.8-0.3-91.1c-0.3-15.8,9.1-27.5,25.4-27.9
		c1.1,0.1,2.1,0.3,3.4,0.4c-1.1,1.5-3.1,0.1-4.1,1.8c-1.1,1.9-3.1,2.1-5,2.6c-10.1,2.8-16.1,10.6-16.1,21.2c0,9.9-0.1,19.9,0.1,29.9
		c-0.1,3.8,0.5,7.7,0,11.4c-0.1,14.6,0,29.2-0.1,43.8c0,2,0.1,4-0.4,6C145.7,238.2,145.4,238.9,144.9,239.2z"/>
	<path class="st117" d="M238,240.2c-1.9,0.9-3.5,0.5-5-0.8c0.1-0.1,0.1-0.3,0.3-0.5c0.3-0.3,0.5-0.5,0.8-0.9
		c0.3-0.3,0.4-0.8,0.5-1.1c0.9-2.5-1.5-6,2.1-7.7c0.9,3.3-1,6.9,1.1,10.1C238,239.7,238,239.9,238,240.2z"/>
	<path class="st118" d="M236.8,229.3c-2.3,3,1,7.3-2,10.1c-1.9-3.3-0.8-6.9-1.1-10.4c0-28.3,0-56.4,0-84.9
		c-1.6-10.9-6.8-16.7-17.2-19.4c-1.8-0.4-3.5-0.5-4.8-2.1c-0.8-0.5-1.5-0.9-2.5-1.6c1.4-0.3,2.5-0.4,3.6-0.5
		c9.7,0.8,17.5,4.8,22.1,14c1.6,4.3,2.1,8.7,2.1,13.3C236.8,175,236.8,202.1,236.8,229.3z"/>
	<path class="st119" d="M176.3,122.7c7.4-8.4,20.1-8.4,29.3,0.1c0.3,1.1,0.6,2.1,0.9,3.1c1.1,1.6,1,3.5,0.9,5.4
		c-0.5,33.6-0.4,67.1-0.4,100.7c0,2.5,0.5,5-1,7.4c-7.7,1.4-15.5,0.3-23.3,0.5c-1.5-2.1,0.6-2.1,1.6-2.8c1.4-0.3,2.9-0.3,4.3-0.3
		c7-0.1,7-0.1,6.7-7.5c-0.1-3.5-2-7.3,1.6-10.2c4.1-0.5,5.9-2.5,4.7-6.9c-0.3-0.3-0.3-0.1-0.3,0.4c-0.5,2,1.1,5.5-2,5.7
		c-3.5,0.3-1.3-3.6-2.1-5.4c-0.3-0.5-0.3-1.3-0.5-1.9c-0.6-10.4,0.1-20.9-1.4-31.2c-0.4-3-1.3-4.9-4.8-4.9c-3.5,0-4.4,1.9-4.7,4.9
		c-0.8,11.7-1.9,23.4-1.4,35.2c-0.1,2.5-1.5,3.5-3.8,3.5c0.9,0.1,1.5,0.3,2.1,0.9c0.3,0.6,0.1-0.3,0.4,0.3
		c1.4,2.9-1.1,17.9-3.4,20.1c-1.8-0.3-4.1,0.8-4.7-2.4c-0.9-26.1-1-52.4,0.1-78.6C175.9,147,175,134.9,176.3,122.7L176.3,122.7z"/>
	<path class="st120" d="M205.3,239.2c1.1-2,0.8-4.3,0.8-6.4c0-31.4-0.1-62.9-0.1-94.3c0-4.1,0.4-8.4,0.5-12.6c0.1-0.5,0.1-1,0.3-1.5
		c0.5-1.4,0.8-0.5,0.8,0.3c-0.1,2.4,0.8,3.5,3.1,3c3.5-1.8,6-0.4,7.9,2.9c-2.4,5.8-1.9,11.9-2.4,17.9c-1.4,23.4-1.4,46.8-1.3,70.2
		c0,3.9,1.5,5.8,5.2,6.4c3.1,0.5,6.4,1.1,9.6,1.8c2.4,0.4,4.5,1.3,3.6,4.7c-6.2,7-14.2,8.2-22.8,8c-3.1-0.1-3.9-1.6-3.6-4.5
		c1.1-14.8,0.3-29.8,0.5-44.6c0.1-9.6,0.3-19.1-0.5-28.7c0.9,11.7,0.5,23.5,0.5,35.2c-0.1,12.9,0.5,26-0.5,39
		C207,237.2,208.4,239.7,205.3,239.2z"/>
	<path class="st121" d="M160.8,245.4c4.7-3.5,13.2-2.4,15.5,2.1c2.8,1.4,4.7,4.1,7.7,5.2c9.1,3.4,16.5,1,21.9-7.3
		c-1.8-2.4-4.7-0.3-7.5-2.1c7.3,1.1,14-1.4,20.1,2c-1.8,0-3.5,0-5.3,0c-2.8-0.1-5.3-0.3-5.7,4c-0.1,1.8-2.4,3.4-3.5,5
		c-3,1-5.9,2.1-8.9,3.1c-4,3.1-7.9,0.8-11.9,0.3c-2.3-0.9-4.7-1.6-5.4-4.4c-1.6-2.6-3.4-5.2-5-7.9
		C168.5,245.5,164.6,245.5,160.8,245.4z"/>
	<path class="st122" d="M188,450.6c-0.3,0-0.6,0.1-0.9,0c0-1.4,0-2.8,0-4c0-20.4,0.1-40.6,0.1-61c0.6,0,1.1,0,1.8,0
		c0.8,18.2-1.8,36.6-0.9,54.8C188,443.8,188,447.2,188,450.6z"/>
	<path class="st123" d="M182.3,256.6c4.1,0.4,8.3,0.8,12.4,1.1c0.9,0.3,2.4-0.1,2.5,1c1.4,5.8-0.4,11.6-1,17.3
		c-0.1,1.1-1.9,0.9-3,0.9c-3.8,0-7.4,0-11.2,0c-3.4-5.8-2.9-12.1-2.1-18.4C180.2,257.5,180.8,256.3,182.3,256.6z"/>
	<path class="st124" d="M182.3,256.6c-2.4,4.4-1.1,9.1-0.8,13.6c0.1,2.3,0.5,4.7,0.6,6.8c-4.7,0.9-6.5-0.9-6-5.8
		c0.5-3.8-0.6-7.4-0.8-11.3c-0.1-2.6,0.8-4.4,1.8-6.4C178.9,254.4,180.7,255.4,182.3,256.6z"/>
	<path class="st125" d="M385.6,157.3c-0.1-3.1-4.4-4.7-3.4-8.8c5.7,5,10.3,10.4,14.7,17.5C391.3,164.6,389.5,159.4,385.6,157.3
		L385.6,157.3z"/>
	<path class="st126" d="M-17.4,160.3c3.6-4.7,7-9.7,11.7-13.2c1.9-0.6,2.8-0.1,1.9,2c-1.9,2.8-3.9,5.4-5.8,8.2
		c-2.9,2.6-5.8,5.4-8.9,8.3C-19.4,162.9-17.1,162-17.4,160.3z"/>
	<path class="st96" d="M-3.7,149.1c0-1.4-0.8-1.9-1.9-2c0-0.6,0.1-1.4,0.1-1.9c1.8,0.5,3.1-3,4.4-1.1C-0.2,145.9-1.8,148-3.7,149.1z
		"/>
	<path class="st127" d="M221.3,74c0,4.7-0.1,9.3-0.1,14c0.1,2.8-1.4,3.4-3.6,3.4c-18.4-0.1-36.8-0.1-55.2,0c-3,0-3.9-1.3-3.9-4.1
		c0.1-11.2,0.1-22.3,0.1-33.4c18.2-0.5,36.7-1.4,54.9-1c7.7,0.1,7.5,0,7.5,8.2C221.3,65.2,221.3,69.6,221.3,74z"/>
	<path class="st128" d="M190.4,51.8c-1.6-0.3-4.4,0.9-4.4-2.8c0-3.1,2.5-2.6,4.3-2.6c1.8,0.1,4.1-0.9,4.3,2.5
		C194.8,52.2,192.6,51.8,190.4,51.8z"/>
	<path class="st129" d="M145.1,186.9c0-3.5,0-7.2,0.1-10.7c0.8-10.3,0.8-20.7,0.8-31.2c0.1-7.7,9.8-16.5,16.6-15.2
		c2.6,2.1,2.5,5.4,2.8,8.3c0.5,4.7,0.8,9.4,1,14.1c0.8,12.1,1.1,24.3,1,36.3c-0.1,10.6,1.3,20.9,1.1,31.3c-0.1,4-1.3,5.9-5.4,6.7
		c-5,0.8-10.2,0.9-15,3c0.3,1.9,1.1,3.8,1.1,5.7c0,1.8,0.5,4.1-2.5,4.1c-1.4-2-0.8-4.3-0.8-6.4C145.7,217.6,146.5,202.3,145.1,186.9
		z"/>
	<path class="st117" d="M146.6,239.2c2.8-2.9,0.6-6.5,1.4-9.7c1.1,1.4,1.4,3.8,4.1,3.3c2.1-0.4,3.3,1.5,4,3.1c1.4,3,2.5,3.8,4.5,0.5
		c1.8-3,4-2.8,5.5,0.3c1.6,3.1,4.4,1.9,6.4,1.5c2.4-0.5,1.6-3.1,1.1-4.8c-0.9-2.9-0.8-5.7-0.8-8.5c0-17.9-0.1-35.8,0.1-53.8
		c0.1-5.3,0.5-10.7,1.9-15.8c1,1.8,0.5,3.6,0.5,5.4c0.1,24.1,0,48.3,0.1,72.4c0,1.8-0.4,3.8,0.4,5.4c1.5,1.4,3.3,0.8,4.9,0.5
		c0.4-0.3,0.8-0.1,1.1,0c7.7,0.9,15.5,0,23,0.3c2.4-1.4,1.4-3.5,1.4-5.4c0.1-23.5,0.1-47,0.1-70.5c0-1.6,0-3.4,0.1-5
		c2.1,10.1,1.8,20.4,1.8,30.7c0,12.6,0,25,0,37.5c0,2,0.1,4-0.5,6c-0.5,1.9-1.4,4.4,0.8,5.4c1.9,0.9,4.7,1.4,6.4-0.6
		c1.6-1.8,2.6-2.1,4.1-0.1c1.4,1.8,3.8,1.9,4.5,0c1.8-4.4,5.4-4.9,8.9-5.9c1.9,2.6,1.5,5.3,0.1,8l0,0c-27.5,1.5-55.1,0.9-82.7,0.9
		c-1.9,0-4,0.8-5.4-1.1c0-0.3,0.1-0.6,0.3-0.9C145.9,238.1,146.3,238.5,146.6,239.2z"/>
	<path class="st113" d="M176.2,238.5c-1.5-2.3-0.9-4.9-0.9-7.3c-0.1-25.3-0.1-50.5-0.1-75.9c0-8.4-0.1-16.8,0.1-25.3
		c0-2.4-0.8-5,0.9-7.3C176.2,161.3,176.2,199.9,176.2,238.5z"/>
	<path class="st130" d="M205.6,245.6c0.3,2.1-0.6,3.8-2,5.4c-5.7,6.7-24,6.4-27.5-3.4c0.3-3,2.5-2,4.1-2
		C188.7,245.5,197.2,245.6,205.6,245.6z"/>
	<path class="st131" d="M226.5,242.4c-24.3,0-48.7,0-72.9,0c0-0.3,0-0.5,0-0.6c24.3,0,48.7,0,72.9,0
		C226.5,242,226.5,242.1,226.5,242.4z"/>
	<path class="st132" d="M233,239.5c-0.1-2.6-0.1-5.4-0.1-8c0.4-2.1-0.4-3.3-2.5-3.1c-4.4,0.3-8.5-1.6-12.9-2.1
		c-2.8-0.3-3.9-1.8-3.9-4.7c0.1-17.3-0.5-34.8,0.3-52.2c0.5-11.3,0.9-22.8,1.6-34.2c0.1-2.6,1.5-3.9,3-5.4
		c7.3,1.3,11.1,7.3,15.6,12.2c0.9,1.8,0.5,3.6,0.5,5.4c0,27,0,54.1,0,81.2c-0.1,3.5,0.3,7-0.3,10.6
		C233.9,239.2,233.5,239.4,233,239.5z"/>
	<path class="st133" d="M234.3,239.2c-0.8-3.3-0.6-6.5-0.1-9.8c0.3,0,0.4,0,0.6,0c0,3.4-0.1,6.7-0.1,9.9L234.3,239.2z"/>
	<path class="st134" d="M234.8,229.4h-0.3h-0.3c-0.1-29.2-0.1-58.2-0.1-87.4c0.3-0.1,0.5-0.3,0.8-0.1c0.1,19.7,0.1,39.5,0.1,59.2
		C235,210.4,234.9,219.9,234.8,229.4z"/>
	<path class="st135" d="M197.7,219.4c-3.4,4.8-0.4,10.1-0.6,15.1c-0.1,3.6-1.1,4.1-4,4c-2.5-0.1-5.2-0.1-7.8-0.1
		c-1.1-5-1.4-9.9,0.4-14.8c1.1-1.4,2.6-0.4,4-1c-1.1,0-2-0.3-3-0.5c-1-0.4-1.8-1-2.1-2.1c-0.5-1.5,0.5-2.8,0.6-4.1
		c0.9-9.9-0.6-19.9,1.4-29.8c0.6-3.1,0.4-7.9,4.5-7.7c4.4,0.1,4.4,4.8,4.4,8.3c0,8.9,0.3,17.9,0.9,26.8
		C196.2,215.6,197.2,217.4,197.7,219.4z"/>
	<path class="st136" d="M195,215.3c-0.8-7.2-1.4-14.2-1.1-21.5c0.1-2.9,0-5.7,0-8.5c0-2.5-0.1-6-2.8-6c-2.9-0.1-2.5,3.6-3,6
		c-1.5,8.4-0.9,17.1-1,25.6c0,2.1,0.1,4.4-1,6.4c-1,0.4-1.5-0.3-1.9-1c-2.3-6.7-1.4-13.7-0.8-20.4c0.8-6.3,0.3-12.7,1.4-19.1
		c0.5-3.3,1.5-3.1,3.8-3.3c7.4-0.1,7.3-0.1,8.4,7.7c1.4,10.3,0.9,20.6,0.9,30.9C198.5,214.7,197.5,215.8,195,215.3z"/>
	<path class="st137" d="M186.1,147.1c-0.5-0.1-0.9-0.1-1.5-0.1c-5.9,0-8-3.4-6.3-9.6c0.5-1.8,1.8-1.8,3-1.8c6.2,0,12.3,0.1,18.5,0
		c5.5-0.1,3.3,4.1,3.6,6.8c0.5,3-0.3,5-3.8,4.4c-1.3-0.1-2.5,0.1-3.9,0.1C192.6,149.3,189.4,149.3,186.1,147.1z"/>
	<path class="st138" d="M195.8,157.4c0.1,0.3,0.1,0.5,0.3,0.8c0.6,3,2.1,5.7,2.6,8.5c0.4,1.9,0.8,4-0.9,5.7c-4.7,0-9.2,0-13.8,0
		c-2.4-4.1-0.5-11.1,4.1-13.7c-2.4,0.5-4.4,1.6-6.2-0.5c1-0.3,2-0.6,3.1-0.9C188.6,155,192.3,154.7,195.8,157.4z"/>
	<path class="st139" d="M195.8,157.4c-3.5,0-7-0.1-10.7-0.1c-0.4-3.4,0.5-6.8,1-10.1c3.3-0.4,6.5-0.5,9.8,0
		C195.3,150.5,196.7,153.9,195.8,157.4z"/>
	<path class="st140" d="M182.1,158.1c2.3,0,4.5,0,7,0c-3.9,4.1-5.3,8.9-4.9,14.2c-4.5,1.1-6.8-0.3-6-5.4c0.3-1.6,0.1-3.4,0-5
		C177.7,158.5,179.2,157.6,182.1,158.1z"/>
	<path class="st141" d="M197.8,172.3c0.4-4.3-1-8.2-2.5-11.9c-0.6-1.4-0.9-2,0.8-2.4c7.9,0,7.9,0,7.9,8.3
		C204,172.9,204,172.9,197.8,172.3z"/>
	<path class="st142" d="M187,223.3c-1.8,2.9-0.5,6.2-0.9,9.2c-0.1,1.9,0.1,4-0.9,5.8c-1,0.3-2,0.5-3,0.8c-0.4,0-0.8,0-1.1,0
		c0.3-4.4,0.9-8.9,0.5-13.3c-0.1-2.1,4.1-3.6,0.5-5.8c1-0.8,1.9-0.5,2.8,0.3c0.8,0.4,1.5,0.8,2.3,1.1
		C187.6,222,187.6,222.8,187,223.3z"/>
	<path class="st143" d="M195,215.3c1.8-0.3,2.5-1.5,2.8-3.1c1.9,1.5,0.5,4,1.4,5.8c0.1-2.6,2-5,0.1-8c3.5,0.8,4.7,2.6,4.3,5.5
		c-0.5,3.5-3.3,3.6-5.9,3.8C196.4,218.4,195.2,217.2,195,215.3z"/>
	<path class="st144" d="M197,125.1c1,1.3,3.5-1,3.6,1.8c0.1,2.1-1.9,2.3-3.1,2.3c-1.5,0.1-3.4-0.1-3.6-2.4
		C193.6,123.8,196.3,126.3,197,125.1z"/>
	<path class="st145" d="M187.5,125.1c1.5-0.5,2.5,0.1,2.4,1.9c-0.1,2.3-1.9,1.5-3.3,1.9c-1.9,0.4-2-0.9-2.1-2.1
		C184.3,123.6,186.7,126.2,187.5,125.1z"/>
	<path class="st146" d="M185,220.1c-0.9-0.1-1.9-0.1-2.8-0.3c-1.3-1.8-3,0.5-4.7-0.8c1.9-1.9,5.2-0.5,6.7-3c0.6,0.3,1.3,0.8,1.9,1
		C185.7,218.2,185.3,219.1,185,220.1z"/>
	<path class="st147" d="M181.2,70.1c3,3.5,2.6,5.7-1.1,7.5c-2.8,1.4-5.8,1.1-8.4,0.4c-4-1.1-4.7-4.1-1.9-7.9
		c1.5,0.3,3.1-0.6,4.3,1.3c0.4,0.8,0.4,1.9,1.3,1.9c1.1,0.1,1.1-1.4,1.8-2C177.8,69.5,179.7,70.4,181.2,70.1z"/>
	<path class="st148" d="M212.5,71.9c1.6,2,0.3,3.4-1,4.7c-2.5,2.4-9.2,2.6-11.7,0.3c-2.4-2.1-3.1-4.7-0.1-7c1.4,0.1,2.8,0.1,3.6,1.5
		c0.8,0.8,0.4,2.4,1.9,2.1c0.8-0.1,0.5-1.4,0.9-2C208.5,68.3,210.5,70.9,212.5,71.9z"/>
	<path class="st149" d="M213.9,66.6c-5.4-2.3-10.7-3.9-16.5-0.4C198.9,60.6,208.9,61,213.9,66.6z"/>
	<path class="st122" d="M183.2,66.2c-5.5-2.4-11.1-3.1-16.6-0.1C170.6,60.7,178.8,60.8,183.2,66.2z"/>
	<path class="st150" d="M202.9,72.2c-1.1-0.8-2.1-1.5-3.1-2.3c5.8-2.8,9.2-2.1,12.8,2.1c-1.9,0.5-4-2.8-5.9,0
		C205.3,73.2,204.1,73.2,202.9,72.2z"/>
	<path class="st151" d="M181.2,70.1c-0.9,1.5-3.1,0.3-4,2c-1.4,0.5-2.5,0.8-3.9-0.1c-0.9-1.5-2.8-0.5-3.8-1.8
		C173.4,67.2,177.3,67.4,181.2,70.1z"/>
	<path class="st152" d="M187,223.3c0.1-0.6,0.1-1.4,0.3-1.9c0.1,0,0.3-0.1,0.5-0.1c1.5,0.3,3.3-0.9,4.5,0.8c0.4,0.5,0.4,1.5-0.3,1.8
		C190.3,224.3,188.5,224.8,187,223.3z"/>
	<path class="st153" d="M191.9,218c0,1.1-0.3,1.9-1.3,1.8c-0.9-0.1-1.4-0.8-1.4-1.8c0.1-0.9,0.6-1.5,1.5-1.6
		C191.9,216.5,191.8,217.5,191.9,218z"/>
	<path class="st154" d="M173.3,71.9c1.4-0.8,2.5-0.8,3.9,0.1c0.3,1.9,0.1,3.8-2.1,3.5C173.2,75.5,172.3,73.9,173.3,71.9z"/>
	<path class="st155" d="M202.9,72.2c1.3-0.1,2.5-0.1,3.8-0.1c1.1,2,0.8,3.8-1.5,3.9C202.7,76,202.3,74.2,202.9,72.2z"/>
</g>
</svg>
