<?xml version="1.0" encoding="utf-8"?>
<!-- Generator: Adobe Illustrator 22.0.0, SVG Export Plug-In . SVG Version: 6.00 Build 0)  -->
<svg version="1.1" id="Layer_1" xmlns="http://www.w3.org/2000/svg" xmlns:xlink="http://www.w3.org/1999/xlink" x="0px" y="0px"
	 viewBox="0 0 500 500" style="enable-background:new 0 0 500 500;" xml:space="preserve">
<style type="text/css">
	.st0{fill:#FFFFFF;}
	.st1{fill:none;stroke:#FFFFFF;stroke-width:3;stroke-miterlimit:10;}
</style>
<g>
	<path class="st0" d="M271.4,25.5c3.2,1.4,6.8,1.2,10.2,1.6c49.1,6.3,91.8,26.5,127.6,60.6c27.7,26.4,47.5,58,58.8,94.6
		c15.9,51.4,13.9,102.1-6,152c-12.5,31.3-31.3,58.3-56.2,81c-35.3,32.2-76.6,51.7-124,57.4c-53.6,6.5-103.7-4.6-149.1-34.2
		C79,403.4,45.4,353.8,33.9,290.6C22,224.9,36.6,164.7,77.7,111.9c35.7-46.1,83.1-73.7,140.7-83.5c5.4-0.9,10.9-1.4,16.3-2.1
		c0.5-0.1,1.3,0.1,1.3-0.8C247.8,25.5,259.6,25.5,271.4,25.5z M254.4,471.2c121.7,0.1,220.6-98.9,220.8-221
		c0.2-122.5-98.8-221.6-221.6-221.5C130.9,29,32.4,129.5,33.4,251.8C34.3,372.1,132.1,471.1,254.4,471.2z"/>
	<path class="st0" d="M97.7,249.8c0.2-87.7,71.9-158,159.1-156.6c84.1,1.3,153.9,69.8,154,156.7c0.1,86.7-70.3,157.1-156.5,156.8
		C167.5,406.5,97.8,336.6,97.7,249.8z M254.1,403.4c84.2,0.2,153.2-68.5,153.4-152.9c0.3-84.7-67.8-152.6-150.5-154
		c-85-1.4-155.7,67.1-156,153.2C100.7,334.2,169.4,403.2,254.1,403.4z"/>
	<path class="st0" d="M68,279.5c2.5-4.6,5.1-6.1,9.6-5.6c4.2,0.5,6.6,3.2,7.6,7.2c1.2,4.7,2,9.3,3.1,14.1c0.4,1.5-0.4,1.9-1.6,2.2
		c-8.8,1.8-17.6,3.7-26.5,5.5c-1.1,0.2-1.8,0.2-2.1-1.2c-0.9-4.9-2.1-9.8-2.9-14.7c-0.5-3.2,0.2-6.3,3.4-8.1
		C61.8,276.9,65,276.9,68,279.5z M72.4,284.9c0.4,2.1,0.9,4.6,1.4,7.2c0.2,1,0.8,1.2,1.7,1c1.7-0.4,3.4-0.7,5.1-1.1
		c1.1-0.2,1.3-0.8,1-1.7c-0.5-2.4-1-4.9-1.7-7.4c-0.6-2.2-2.3-3-4.6-2.6C73.2,280.8,72.3,282.2,72.4,284.9z M63.6,295.6
		c1.3-0.3,2.6-0.7,4-0.9c1.1-0.2,1.3-0.7,1.1-1.6c-0.5-2.4-1-4.9-1.7-7.4c-0.5-1.6-1.8-2.6-3.6-2.2c-1.9,0.4-2.9,1.7-2.5,3.7
		c0.4,2.5,1,4.9,1.4,7.5C62.5,295.4,62.8,295.8,63.6,295.6z"/>
	<path class="st0" d="M86.4,199.7c2.3,3.7,2.7,7.5,1.3,11.4c-2.5,7.2-9,10.3-17.7,8.7c-11.5-2.2-16.9-12.5-11.8-22.6
		c2.1-4,5.3-6.5,9.9-6.8c1.6-0.1,2.2,0.4,1.6,2.1c-0.7,2.1-0.7,4.1-3.8,5c-4.7,1.3-5.7,8.4-2.1,12.1c3.7,3.6,8.3,4.8,13.3,3.8
		c3.2-0.7,5.1-3.1,5.7-6.4c0.5-3.1-0.4-5.6-2.9-7.5c-1.2-0.9-1.9-0.9-2.2,0.7c-0.2,0.9-0.5,1.7-0.6,2.6c-0.2,2.3-1.3,2.5-3.3,2
		c-1.8-0.4-2.5-1-1.9-3c0.9-2.7,1.4-5.5,2-8.3c0.4-1.7,1.2-1.9,2.7-1.4c3.9,1.1,7.8,1.9,11.7,2.9c0.9,0.3,2.5,0,2,1.8
		c-0.4,1.3-0.1,3.4-2.6,2.9C87.4,199.4,87.1,199.6,86.4,199.7z"/>
	<path class="st0" d="M255.8,57.7c-0.3,5.8-0.7,11.7-0.7,17.6c0,3.2-2,2.3-3.7,2.5c-2.2,0.2-2.6-0.9-2.5-2.8
		c0.4-8.7,0.8-17.4,1.1-26.1c0.1-1.7,0.6-2,2.2-2.1c3.2-0.1,5.3,0.9,6.7,4.1c2.1,4.8,4.8,9.4,7.2,14.1c0.4,0.8,0.6,1.8,2,2.5
		c0.3-5.8,0.4-11.3,0.7-16.9c0.1-1-0.5-2.6,0.6-2.9c1.5-0.4,3.3-0.1,4.9,0.2c0.5,0.1,0.4,1,0.4,1.6c-0.4,9.1-0.7,18.2-1.1,27.3
		c0,1.3-0.4,1.6-1.7,1.7c-3.2,0.3-5.3-0.5-6.8-3.9c-2.6-5.8-5.8-11.4-8.8-17.2C256.3,57.6,256.1,57.7,255.8,57.7z"/>
	<path class="st0" d="M382.6,134.5c-6.7-5.7-6.6-4.5-1.5-10.2c3.1-3.6,3.1-4.6-0.4-8s-3.6-3.4-6.9,0.1c-1,1.1-2.1,2.1-3.1,3.2
		c-1.3,1.5-2.2,1.9-4,0.2c-2.6-2.7-2.8-2.6-0.1-5.3c5.7-5.8,11.3-11.7,16.8-17.7c1.5-1.7,2.5-1.5,4,0c3.1,3.1,6.4,6.1,9.4,9.2
		c2.7,2.7,3.6,5.9,2,9.4c-1.5,3.5-4.2,5.7-8.3,5.4c-0.8,0-1.6-0.3-1.4,1.1c0.4,3.1-1.5,4.9-3.3,6.9
		C384.4,130.4,382.6,131.7,382.6,134.5z M393.2,111.5c-0.1-0.4-0.1-0.6-0.2-0.9c-1.4-2.9-4.1-4.7-6.4-6.8c-0.4-0.4-0.9,0-1.3,0.4
		c-1.3,1.4-2.7,2.8-4,4.2c-0.5,0.5-0.4,1.1,0.1,1.5c1.9,1.7,3.7,3.5,5.7,5.1c1.1,0.9,2.3,0.9,3.6,0.2
		C392.1,114.3,392.9,113.1,393.2,111.5z"/>
	<path class="st0" d="M67.1,261.7c-4.1,0-8-0.7-11.3-3.3c-5.2-4.2-5.8-10-4.4-16c1.3-5.5,5.2-8.5,10.7-9.6c3.8-0.8,7.5-0.7,11.3,0.4
		c5.8,1.7,9.2,5.9,9.9,12.1c0.7,6.6-1.9,11.9-7.4,14.7C73.3,261.3,70.2,261.7,67.1,261.7z M67.3,255.2c1.2-0.1,2.3-0.1,3.5-0.4
		c4.4-0.9,6.9-3.8,6.9-7.8c0-4.2-2.2-6.8-6.8-7.9c-3-0.7-5.8-0.6-8.7,0.2c-3.7,1.1-5.8,3.9-5.8,7.5c0,3.7,2.1,6.5,5.7,7.6
		C63.8,255,65.5,255.2,67.3,255.2z"/>
	<path class="st0" d="M424.6,142.2c0.1,2.7-0.8,5-2.8,6.9c-0.9,0.9-1.5,1-2.2-0.2c-1.2-1.9-3-3.2-1.2-6.1c1.6-2.4-1.7-7.7-4.7-8.4
		c-2.5-0.5-4.4,1.2-3.7,3.6c0.9,3.1,2.2,6.3,3.3,9.4c1.7,5.1,0.9,8.2-2.7,10.6c-3.6,2.5-8.1,2.2-11.7-0.8c-3.7-3.1-6.2-7-6.6-12
		c-0.1-1.6,0.1-3.1,0.8-4.6c0.7-1.5,1.8-3.6,3.2-3.4c1.6,0.2,2.2,2.5,3.2,4c0.4,0.7-0.2,1.3-0.5,1.8c-2.1,3.5,1,10.1,5,10.7
		c2.2,0.4,4-1.3,3.6-3.4c-0.2-1.4-0.8-2.8-1.3-4.2c-0.8-2.2-1.7-4.4-2.4-6.6c-1.2-3.5-0.5-6.6,2.5-9c3-2.4,6.9-3,10.1-1.1
		C421.4,132.4,424.1,136.7,424.6,142.2z"/>
	<path class="st0" d="M355.1,110.2c-0.5-0.4-1-0.6-1.3-0.8c-5.5-3.4-11-6.9-16.5-10.2c-1.5-0.9-1.4-1.6-0.6-3
		c4.7-7.5,9.4-14.9,14-22.5c0.8-1.3,1.3-1.9,2.9-0.9c5.2,3.3,10.4,6.6,15.7,9.8c2.3,1.3,1,2.3,0.3,3.7c-0.8,1.3-1.3,2.5-3.3,1.2
		c-3.2-2.2-6.6-4.1-9.9-6.3c-1.5-1-2.3-0.9-3.1,0.7c-2.2,4.1-3.1,3,1.4,5.7c2.5,1.6,4.9,3.1,7.5,4.6c2,1.1,0.8,2.2,0.1,3.3
		s-1.1,2.7-3.1,1.3c-3-2-6.2-3.8-9.2-5.7c-1.3-0.8-2-1-3,0.5c-3.1,4.8-3.1,4.8,1.7,7.8c2.7,1.6,5.3,3.3,8,5c0.6,0.4,1.9,0.7,1.1,1.9
		C357,107.8,356.5,109.3,355.1,110.2z"/>
	<path class="st0" d="M158.7,109.2c1.1,0.3,1.6-0.4,2.3-0.6c2.3-0.4,4.3,1.3,4.1,3.7c-0.2,2.4-4,5.7-6.4,5.7c-0.5,0-0.9-0.1-1.1-0.7
		c-0.1-0.5,0-1,0.5-1.3c0.8-0.4,1.6-0.7,2.3-1.2c0.8-0.5,1.5-1.3,0.8-2.4c-0.6-1-1.6-0.7-2.3-0.1c-1.6,1.3-2.5,1.5-2.5-1
		c0-1.3-0.7-1.1-1.6-0.7c-6,2.2-11,0.4-15.2-4c-4.5-4.8-7.5-10.4-5.6-17.3c2.3-8.3,13.7-12.4,20.3-7.5c1.6,1.2,2.4,2.1,0.1,3.6
		c-2,1.2-3.4,2.2-5.9,0.7c-3.5-2-8.3,1.4-8.6,5.7c-0.4,4.5,4.1,11.7,8.4,13.2c2.5,0.9,4.8,0.5,6.8-1.3c1.9-1.6,2.6-3.6,2.1-6
		c-0.4-1.7,2.7-5.1,4.4-5.1c1,0,0.9,0.9,1.1,1.4c1.4,4.9,0.9,9.5-3,13.3C159.5,107.6,158.5,107.9,158.7,109.2z"/>
	<path class="st0" d="M456.9,266.6c0,6.8-2.9,11.5-7.6,12.8c-1.2,0.3-2.5,1.1-3.4-0.4c-0.6-1.1,0.7-5.3,1.6-5.7c3.4-1.5,5-5.4,3.8-9
		c-0.5-1.4-1.4-2.3-3-2.4c-1.4-0.1-2.4,0.7-2.9,2.1c-1.1,2.9-2.1,5.7-3.1,8.5c-1.9,5.2-4.6,7.4-8.8,7.1c-4.6-0.4-8-3.5-8.8-8.4
		c-0.6-3.9-0.2-7.6,1.4-11.2c1-2.2,2.4-3.9,4.5-4.8c1.5-0.7,3.5-1.6,4.7-0.6c1.3,1.2,0.2,3.3,0.2,5c0,0.9-0.9,0.8-1.5,1.1
		c-3.8,1.4-5.7,7.8-3.3,11.1c1.6,2.2,4.3,2.1,5.6-0.7c1.4-3.3,2.3-6.8,3.8-10.1c2.7-6.2,10.8-6.9,14.9-1.5
		C456.5,261.6,457.1,264.2,456.9,266.6z"/>
	<path class="st0" d="M430.4,228.4c0.4,4.3,0.8,8.6,1.3,12.9c0.4,3.1-2,1.9-3.2,2.3c-1.5,0.5-2.2,0.1-2.4-1.7
		c-0.5-6.5-1.3-12.8-2.1-19.3c-0.2-1.5,0.2-2.1,1.7-2.2c8.9-0.9,17.7-1.8,26.6-2.9c1.7-0.2,2.2,0.4,2.3,2c0.6,6.1,1.3,12.3,2,18.4
		c0.4,2.5-1.5,2-2.8,2.2c-1.4,0.3-2.7,0.4-2.9-1.7c-0.4-4-1-8-1.3-11.9c-0.2-2.9-2-2.1-3.4-1.9c-1.4,0.2-3.5-0.4-3,2.6
		c0.6,3.4,0.6,7,1.3,10.5c0.4,2.5-1.3,2.2-2.5,2.4c-1.5,0.3-2.9,0.4-3-1.9c-0.3-3.6-0.8-7.2-1.1-10.8c-0.1-1.6-0.8-2-2.2-1.7
		c-1.3,0.2-2.5,0.4-3.8,0.4C430.4,226.2,430.1,227.1,430.4,228.4z"/>
	<path class="st0" d="M221.7,81.5c-5.4,0-9-2.2-10.2-7.5c-1.5-6.6-2.5-13.5-3.8-20.2c-0.4-2.4,1.4-1.7,2.6-2.2c2.7-1,4-0.3,4.4,2.8
		c0.6,5.3,1.7,10.6,2.7,15.9c0.8,4.4,3,5.9,6.6,5.3c3.9-0.7,5.4-2.7,4.8-6.6c-0.9-5.8-1.9-11.6-3.1-17.3c-0.4-2.2,0.4-3.1,2.3-3.1
		c1.6,0,3.8-1.8,4.2,1.8c0.6,5.3,1.6,10.7,2.7,15.9C237.2,77,231,81.3,221.7,81.5z"/>
	<path class="st0" d="M102.3,166.4c-5.5-3.1-6.3,1.6-8,5c-0.3,0.5-0.4,1.1-0.8,1.6c-1.2,1.6-1,2.8,0.5,4.2c3.1,2.9,3.1,4.4,0.5,7.8
		c-0.7,1.1-1.3,0.6-1.8,0c-6.8-7.2-13.7-14.3-20.6-21.5c-0.7-0.7-0.7-1.5-0.3-2.4c0.6-1.2,1.3-2.4,1.8-3.7c0.5-1.2,1.3-1.4,2.6-1.3
		c9.5,1.2,19,2.4,28.6,3.5c1.5,0.2,2.1,0.7,1.2,2C105,163.3,105.2,166,102.3,166.4z M80.6,163.3c0.2-0.2,0.2-0.4-0.1-0.4
		c-0.1,0-0.2,0.1-0.3,0.1C80.4,163.1,80.5,163.2,80.6,163.3c1.8,2.9,4.7,4.7,6.8,7.2c0.4,0.5,1,0.7,1.4,0c0.9-1.6,1.7-3.3,2.5-5
		c0.4-0.8-0.2-1-0.9-1.1C87.2,164,83.9,162.9,80.6,163.3z"/>
	<path class="st0" d="M233.3,452.4c-3.7-0.2-7.3-1-9.4-4.8c-1.9-3.2-2.1-6.8,0.3-9.7c2.2-2.5,2.9-4.2,1.3-7.6
		c-1.7-4,1.3-8.3,5.7-9.2c2.9-0.7,5.7-0.4,8.4,0.7c5.5,2.3,6.6,8.9,2.2,13c-0.8,0.7-1.1,1.1-0.3,2c3,3.2,3.1,6.9,1.3,10.6
		C241,451.3,237.6,452.4,233.3,452.4z M232.9,447.3c2.6,0.3,4.5-1.5,4.8-4.4c0.3-2.7-1.3-4.6-3.9-4.9c-2.7-0.4-4.6,1.3-4.8,4.2
		C228.7,445.1,230.2,447.1,232.9,447.3z M234.4,425.8c-2.5,0-3.4,1.6-3.6,3.8c-0.2,2.2,1.7,3.9,4,3.7c2.3-0.1,3.5-1.5,3.5-3.9
		C238.5,427.1,237,425.8,234.4,425.8z"/>
	<path class="st0" d="M101,126c-2.9,3.7-5.6,6.9-8,10.3c-1.4,2-2.2,0.8-3.4-0.1c-1.1-0.9-2.6-1.4-1.1-3.3c3.7-4.6,7.2-9.2,10.9-13.8
		c0.7-1,1.3-3,2.5-2.4c1.7,0.6,3.6,1.7,4.1,3.9s1.1,4.4,1.6,6.6c1.3,5.4,2.7,10.8,4.2,17c3-3.8,5.7-7,8.2-10.4
		c1.3-1.7,2-1.6,3.7-0.4c2.1,1.4,2.1,2.4,0.5,4.3c-3.5,4.2-6.7,8.6-10.2,12.9c-0.9,1.1-1.4,3.5-3.1,2.9c-2-0.8-3.8-2.2-4.4-4.8
		c-1.3-5.8-2.8-11.6-4.1-17.4C102,129.5,101.5,128,101,126z"/>
	<path class="st0" d="M269.4,433.9c1.5-1,3-2.1,4.8-2.2c5.6-0.6,10,2.5,10.8,7.9c1,6.6-2.2,11.7-8,12.7c-5.5,0.9-9.4-1.1-11.6-6.2
		c-2.4-5.7-3-11.6-1.5-17.6c1.4-6.1,7.3-9.2,13.2-7.5c1.6,0.4,3.1,1.3,4.1,2.7c0.9,1.2,2.1,2.3,1.3,3.9c-0.4,0.9-5.1,0.7-5.9-0.1
		c-2.8-2.8-5.9-2-7.1,1.8C269.2,430.7,268.8,432.2,269.4,433.9z M279,442.4c0-3.3-2-5.7-4.6-5.8c-2.4,0-4.3,2.1-4.3,4.9
		c0,3.4,2.1,5.9,4.8,5.9C277.4,447.4,279,445.4,279,442.4z"/>
	<path class="st0" d="M313.4,444.2c-3.8,0-6.3-1.8-7.9-5c-0.4-0.8-1.3-2.1,0.1-2.4c1.6-0.4,3.1-2.4,5-0.6c0.6,0.6,0.9,1.5,1.6,2.1
		c1.6,1.2,3.3,1,4.9,0c1.8-1.2,2.3-2.9,1.7-4.8c-0.5-1.8-1.4-3.2-3.6-3.3c-0.9,0-1.8,0-2.6,0.3c-1.6,0.6-2.1-0.1-2.5-1.4
		c-0.4-1.3-1-2.2,0.9-3c2.1-0.8,3.9-2.2,2.9-4.9c-0.6-1.9-1.8-3.1-3.9-2.9c-2.2,0.3-3.6,1.3-3.7,3.8c0,2.1-2.6,4.1-4.4,3.9
		c-0.8-0.1-0.8-0.8-1-1.3c-1.5-4.6,1.7-9.6,7.3-11.3c5.5-1.6,10,0.6,11.6,5.6c0.8,2.3-1.3,4.8-0.4,6.3c1,1.5,3.6,2.1,4.8,4
		c3.7,6.6-1,14.2-9.2,15.1C314.4,444.2,313.9,444.2,313.4,444.2z"/>
	<path class="st0" d="M317.8,80.3c3.7-4.9,7.5-9.7,10.9-14.8c1.9-2.9,3.8-3.6,6.6-1.8c0.5,0.4,1.3,0.5,2.2,0.9
		c-4.7,5.7-9.2,11.4-13.7,17c-1.7,2.2-3.6,4.1-5.2,6.4c-1.2,1.6-2.3,1.8-4,1c-1.5-0.8-3.5-0.7-3.3-3.5c0.4-9.2,0.6-18.4,0.8-27.6
		c0-2,0.4-2.6,2.5-1.8c4,1.6,4.1,1.4,3.9,5.9c-0.4,6-0.9,12.1-1.3,18.1C317.2,80.1,317.5,80.2,317.8,80.3z"/>
	<path class="st0" d="M443.2,178.3c1.1-0.2,1.2,0.5,1.3,1.3c2.2,7,4.3,14,6.6,21c0.7,2.2-1.3,1.9-2.2,2.2c-0.9,0.3-2.4,1.7-3.1-0.4
		c-0.5-1.7-1.2-3.3-1.5-5c-0.4-2.2-1.4-2.2-3.3-1.6c-6.4,2.1-12.9,3.9-19.3,6.1c-3.1,1.1-2.8-1.3-3.4-2.8c-0.6-1.5-1.1-2.9,1.4-3.6
		c6.5-1.8,12.8-4,19.4-5.8c2-0.5,2.5-1.4,1.7-3.3c-0.4-1-0.7-2.1-1-3.1C438.8,179.5,439.7,178.2,443.2,178.3z"/>
	<path class="st0" d="M190.8,415.8c0.7,0.2,1.4,0.4,2.2,0.5c2,0.4,4,0.1,5-1.5c1.8-2.9,3.6-0.8,5.3-0.4c1.1,0.3,0.4,1.3,0.3,2.1
		c-2.8,8.5-5.7,17.1-8.4,25.6c-0.9,2.7-2.4,1.1-3.7,0.7c-1.3-0.4-3.2-0.4-2.3-3c1.8-5,3.3-10.2,5.2-15.3c0.8-2.1,0.6-3.3-1.8-3.7
		c-1-0.2-1.8-0.7-2.8-0.9c-1.3-0.3-1.3-1.1-0.8-2C189.3,417,189.2,415.7,190.8,415.8z"/>
	<path class="st0" d="M183.6,92.6c-1,1.7-3.1,1.8-4.5,2.7c-1.2,0.7-1.5-0.4-1.9-1.2c-3.9-8.2-7.7-16.4-11.7-24.6
		c-0.5-1.1-0.4-1.8,0.7-2.2c1.1-0.4,2.2-1,3.1-1.5c0.8-0.4,1.4-0.3,1.9,0.6c4,8.5,8,17,11.9,25.5C183.4,92,183.5,92.2,183.6,92.6z"
		/>
	<path class="st0" d="M422.5,289c7.7,2,14.9,3.8,22.2,5.6c1.1,0.3,2.1,0.5,3.1,0.8c3.7,1,3.6,1,2.8,4.7c-0.4,1.7-0.8,2.6-2.9,2.1
		c-8.4-2.2-16.9-4.2-25.3-6.4c-1.3-0.3-2.7-0.5-1.8-2.4C421.2,291.8,420.6,289.6,422.5,289z"/>
	<path class="st0" d="M410.9,178.1c-1.6-1-1.7-3.1-2.6-4.5c-0.7-1.3,0.4-1.5,1.1-1.9c8.2-4,16.3-7.9,24.5-11.9
		c1.1-0.5,1.8-0.5,2.2,0.7c0.4,1.1,0.9,2.2,1.5,3.1c0.5,0.9,0.3,1.4-0.6,1.9c-8.4,4-16.9,8.1-25.4,12.2
		C411.5,177.8,411.3,177.9,410.9,178.1z"/>
	<path class="st0" d="M297.7,52.6c-2,9.8-3.8,18.8-5.6,27.8c-0.3,1.3-0.9,1.9-2,1.3c-1.4-0.8-4.8,0.5-4.3-2.4
		c1.5-9.1,3.6-18.1,5.4-27.1c0.3-1.3,0.9-1.7,2-1.3C294.7,51.6,297.2,50.6,297.7,52.6z"/>
	<path class="st0" d="M138,123.4c-1.4,1.3-2.7,2.8-4.1,3.9c-1.2,0.8-1.6-0.7-2.2-1.3c-6-6.2-11.8-12.6-18-18.7
		c-2.4-2.3,0.1-3.2,0.9-4.3c0.7-0.9,1.9-2.4,3.7-0.4c5.9,6.6,12.1,12.8,18.2,19.1C137,122.1,137.4,122.7,138,123.4z"/>
	<path class="st0" d="M75.7,330.4c0-3.7,2.9-6.6,6.4-6.6c3.6,0,6.6,3,6.6,6.5c0,3.6-3,6.6-6.5,6.6C78.6,336.8,75.7,334,75.7,330.4z"
		/>
	<path class="st0" d="M432.9,330.4c-0.1,3.6-3,6.5-6.6,6.4c-3.6-0.1-6.5-3.1-6.4-6.6c0-3.5,3.1-6.5,6.7-6.4
		C430.2,323.7,433,326.6,432.9,330.4z"/>
	<path class="st0" d="M54.8,197.9c0,4.8-2.5,8.2-6.1,8.3c-0.6,0-1.5,0.4-1.7-0.6c-0.1-0.8-0.1-1.7,0.9-2.2c4.2-2.6,4.5-4,2-8.3
		c-0.5-1-0.2-1.8,0.3-2.4c0.5-0.8,1.3-0.1,1.8,0.2C54,194,54.9,195.9,54.8,197.9z"/>
	<path class="st0" d="M456.1,297.8c1,1,3.8-0.3,3.1,2.4c-0.4,1.3,0.4,4-2.2,3.5c-1.1-0.2-3.8,0.6-3.2-2.1
		C454,300.4,453.5,298,456.1,297.8z"/>
	<path class="st0" d="M445.5,160.6c-1.1,1.3-2.7,2.2-4,2.1c-1.7-0.3-2.3-2.5-2.3-4c-0.1-1.8,2.3-2.3,3.5-2.2
		C444.7,156.6,444.3,159.1,445.5,160.6z"/>
	<path class="st0" d="M213.8,48.5c-2.6-0.3-2-2.4-2-3.6c0-2.8,2.7-1.7,4-1.9c2.4-0.2,1.7,2.4,1.7,3.5
		C217.5,49,214.9,47.5,213.8,48.5z"/>
	<path class="st0" d="M225.9,45c-0.5,2.4-2.6,1.6-4,1.9c-2.8,0.4-1.8-2.1-2-3.2c-0.4-2.8,2.2-1.8,3.5-2.1
		C226.5,40.9,224.8,43.9,225.9,45z"/>
	<path class="st0" d="M292.8,45.9c0.9-1.1-0.4-3.9,2.4-3.1c1.3,0.4,4-0.7,3.5,2.1c-0.2,1.1,0.7,3.8-2,3.2
		C295.4,47.9,293,48.6,292.8,45.9z"/>
	<path class="st0" d="M168.7,61.8c-0.9,1.7-2.7,2.2-4,2.4c-1.9,0.2-2.4-2.2-2.4-3.3c0-2.1,2.5-2.4,3.9-2.6
		C167.9,58.1,167.7,60.5,168.7,61.8z"/>
	<path class="st0" d="M113.8,98.7c0,0.7-3.1,4-3.6,3.7c-1.3-0.8-3.1-1.9-3-3.3c0.1-1.5,1.9-3.1,3.3-3.2
		C112,95.6,112.9,97.6,113.8,98.7z"/>
	<path class="st0" d="M80.6,163.3c-0.1-0.1-0.3-0.2-0.4-0.3c0.1,0,0.2-0.1,0.3-0.1C80.8,163,80.8,163.1,80.6,163.3L80.6,163.3z"/>
	<path class="st1" d="M119.4,250.1c-0.3-1.3,0.9-1.7,1.5-2.3c43.7-43.8,87.5-87.6,131.1-131.4c1.9-1.9,2.7-1.8,4.5,0
		c41.6,41.8,83.2,83.4,124.8,125.1c2.6,2.6,5.3,5.3,7.9,7.9l-0.1,0.2l0.2,0.1c-0.1,0.2-0.2,0.3-0.3,0.4c-1.2-0.1-2.3-0.2-3.5-0.2
		c-13.4,0-26.7-0.1-40.1,0c-2.2,0-3.1-0.4-3.1-2.9c-0.2-5.7-1-11.3-2.6-16.8c-13-44.7-62.5-66.2-103.6-44.5
		c-23.9,12.7-36.6,33.2-38.5,60.3c-0.3,3.8-0.1,3.8,3.7,3.8c35.4,0,70.9,0,106.2-0.1c2.6,0,3.3,0.6,3.2,3.3
		c-0.4,8.2-2.1,16.1-5.1,23.7c-12.2,30.7-44.5,50.9-79.9,44.5c-34.2-6.2-58.1-34.1-59.7-68.7c-0.1-2.2-0.8-2.8-2.9-2.8
		c-13.9,0.1-27.8,0-41.8,0C120.8,249.8,120.1,250,119.4,250.1z"/>
	<path class="st1" d="M119.4,250.1c0.7-0.1,1.3-0.3,2.1-0.3c13.9,0,27.8,0,41.8,0c2.1,0,2.8,0.4,2.9,2.8
		c1.6,34.6,25.5,62.5,59.7,68.7c35.5,6.5,67.8-13.7,79.9-44.5c3.1-7.6,4.8-15.5,5.1-23.7c0.1-2.6-0.6-3.3-3.2-3.3
		c-35.4,0.1-70.9,0.1-106.2,0.1c-3.9,0-4,0-3.7-3.8c1.9-27,14.6-47.6,38.5-60.3c41.1-21.8,90.6-0.4,103.6,44.5
		c1.6,5.5,2.4,11.1,2.6,16.8c0.1,2.5,0.9,2.9,3.1,2.9c13.4-0.1,26.7-0.1,40.1,0c1.2,0,2.3,0.2,3.5,0.2c-0.9,2.2-2.9,3.4-4.4,5
		c-38.3,38.3-76.8,76.8-115.1,115.1c-4.4,4.4-9,8.8-13.3,13.3c-1.6,1.7-2.5,1.4-4-0.1c-26.1-26.2-52.4-52.4-78.6-78.7
		c-17.7-17.7-35.3-35.4-53-53.1C120.2,251.4,119.5,251,119.4,250.1z"/>
	<path class="st0" d="M389.4,249.6l-0.2-0.1l0.1-0.2c0.1,0.1,0.2,0.1,0.3,0.2C389.5,249.6,389.4,249.6,389.4,249.6z"/>
</g>
</svg>
