<?xml version="1.0" encoding="utf-8"?>
<!-- Generator: Adobe Illustrator 22.0.0, SVG Export Plug-In . SVG Version: 6.00 Build 0)  -->
<svg version="1.1" id="Layer_1" xmlns="http://www.w3.org/2000/svg" xmlns:xlink="http://www.w3.org/1999/xlink" x="0px" y="0px"
	 viewBox="0 0 500 500" style="enable-background:new 0 0 500 500;" xml:space="preserve">
<style type="text/css">
	.st0{fill:#004065;stroke:#FFFFFF;stroke-width:3;stroke-miterlimit:10;}
</style>
<title>colonial</title>
<g>
	<path class="st0" d="M383,246.2h20.8c-9,7.4-17.8,13.7-25.8,22.4c26.8-4,54.1-4.2,81-0.5c-3.6,1.4-7.3,2.9-10.9,4.3
		c-18.3,7.5-35.8,16.4-50.6,29.9c-17.4,15.9-26.9,36.1-32.5,58.5c-3.5,14-4.3,28.5-7.2,42.6c-8.7,42.5-37,70.3-79.5,78.6
		c-16.1,3.1-32.3,3.9-48.6,3.6c-1.9,0-3.5-0.3-4.9-2c-25.1-29-56.7-48.9-90.8-65.4c-18.9-9-38.4-16.7-58.4-23l50.7-27.4
		c-19.1-10-38.3-17.6-58.2-24.7l73.5-21c-12.8-8.7-26.1-16.7-39.8-23.9l21.6-7.3c-17-3.2-29.6-11.7-39.9-25.8
		c8.3,1.2,15.7,1.8,23,0.3c0.6-0.1,1.2-0.2,1.8-0.3c3.6-0.4,4.8-1.6,2.4-5.1c-2.9-4.1-4.6-8.9-5.1-13.8c-0.3-2.8,0.5-3.5,3.3-2.5
		c11.5,4.1,23.5,6.6,35.6,7.5c-7.5-4.1-10.1-12.9-17.3-17.5c-5.5-3.5-8.8-9.3-10-15.8c-0.6-3-2-4-4.6-4.8
		c-19.9-6.4-39-14.5-55.1-28.4c-5.8-5-10.8-10.8-14.9-17.1c-1.7-2.4-2.1-5.5-1.1-8.3c2-6.4,5-12.4,8.8-17.9
		c42.9-61.9,99-106.1,173.2-125.1c2.9-0.7,5.8-1.2,8.7-1.6c5.9-0.9,10.5,1.3,13,6.7c1.3,2.7,2.6,3,5.3,2.3c28.4-6.9,56-5,82.8,7.1
		c4.2,1.9,5.4,4.2,4.3,8.5c-1.2,4.6-1.7,9.5-3,14.1c-3.9,14.1-12.1,20.8-26.7,21.5c-9.1,0.5-18.3,0.7-27.3-1.8
		c-1.2-0.1-2.4-0.1-3.6,0c9.5,4.1,18.7,4.8,28,4.6c2.6,0,5.3-0.1,7.9-0.4c14.2-1.3,22-7.9,25.5-21.9c2.1-8.4,3.5-17,5.6-25.4
		c4.2-17.1,17.9-18.7,29.7-11.6c10.7,6.4,18,16,25,25.9c14.8,20.9,22.9,44.5,27.8,69.5c2.1,10.7,4.6,21.2,10.9,30.5
		c2.1,3.3,4.6,6.2,7.6,8.8c2.5,2,1.9,3.7,0.7,5.9c-7,12.6-17.6,21.5-29.4,29.2c-6.9,4.5-14.2,8.3-21.8,11.6
		c-2.1,0.9-2.8,1.7-1.9,4.1c3,7.3,2.2,15.7-2.1,22.4C386.7,232.2,387.5,239.7,383,246.2z M302.7,52.5l0.9,1
		c-0.9,1.6-1.7,3.3-2.6,4.9c-1.9,3.7,2.2,4.1,3.4,6.1c0.9,1.5,2,0.9,3-0.2c5.4-6,10.8-11.9,16.8-18.4c-3.1,0.2-5.3,0.5-7.5,0
		c-0.8-0.2-2-0.5-2.2,0.9c-0.5,3.3-3.6,4.4-5.4,6.5c-0.2-0.2-0.4-0.4-0.7-0.6c0.4-1.2,0.8-2.3,1.3-3.4c1.9-3.2,0.4-3.6-2.6-3.6
		c-4.4,0-5.2,4.3-8,6l-1.2-0.9c-0.1-1.7,1.7-2.9,1.2-5c-1.5,0.5-3.2,0.5-4.8,0c-0.8-0.2-2.1-0.6-2.4,1.2c-1,5.5-2.1,10.9-3.2,16.3
		C295.7,62.6,298.8,57,302.7,52.5z M399.7,66.6c0.3,0.4,0.4,1.4,1,1s0.2-1.1-0.5-1.3c-3.9-7.2-9.1-13.5-14.4-19.7
		c-4.8-5.7-9.5-11.5-16-15.3c-6-3.5-10-2-12.3,4.5c-0.8,2.5-1.5,5-2.1,7.6c-1.7,7.2-3.1,14.5-5.3,21.7c-3.9,12.2-12,19.7-24.3,22.7
		c-16.3,4-32.4,2.5-48.2-2.6c-22.5-7.2-36.1-23.1-42.7-45.5c-2.2-7.4-6.2-10-13.8-9.3c-3.9,0.3-7.7,1.1-11.4,2.1
		c-14.2,4.3-27.4,10.8-40.3,17.9c-11.8,6.5-23.3,13.4-34.8,21.2c2.2,0.7,3.5-0.4,4.7-1.2c5.8-3.8,11.9-7.1,18.2-10.1
		c12.1-5.4,24-11.5,36.7-15.6c5.6-1.8,11.2-3.8,17.1-4.4c8.4-0.9,11.8,1.3,14.2,9.2c3.9,13.1,12,24.5,23,32.5
		c22.3,16.4,47.5,20.6,74.3,16c19.9-3.4,32.4-16,38.2-35.2c1.4-4.8,2.4-9.6,3-14.5c1.3-8.5,4.9-9.9,11.9-4.8
		C384.9,50.1,392.4,58.3,399.7,66.6L399.7,66.6z M292.2,318.2c-2.1-0.4-3.7,0.5-5.3,1c-23.1,7.3-45.6,16.3-67.4,26.9
		c-3.8,1.8-9.2,3-10.7,6c-1.7,3.5,2.9,7.6,4.6,11.4c14.7,32.2,22.6,66,24.4,101.2c0.2,3.1,0.5,5.1,4.3,4.8c11.8-0.7,23.5-1.6,35-4.7
		c39.6-10.7,62-37.1,66.3-78c1.2-11.6,2.4-23.1,4.5-34.6c4.4-23.9,12.6-45.8,32-61.9c1.3-1.3,2.6-2.7,3.8-4.2
		c-7.8,0.4-14,3.6-20.4,6.2c-40.3,16.8-74.6,41-98,78.9C269.1,350.9,278.3,333.4,292.2,318.2z M237,180.4c-8-2.4-13.4-7.5-16-15.3
		c-0.7-2-1.4-3.4-3.9-2.8s-5,0-5.4,3.7c-0.4,4.5-1.1,9.2-3.9,12.8c-3.7,4.7-3.5,9.7-3.7,15.1c-0.5,18.7-6.8,34-25.8,41.3
		c-0.3,0.1-0.4,0.7-0.6,1.2c3.5,2.3,7.8,2.9,11.7,1.7c3.4-1,3.8,0.2,4,3.1c0.8,8.9,3.7,17,12.2,21.2c13.8,6.8,26.5,15.6,37.6,26.1
		c9.6,9.2,21.3,14.3,35.3,11.4c7.9-1.5,16.1-1.6,24.1-0.2c11,1.8,19.8-3.1,24.1-13.1c6.6-15.2,13.8-30.2,21.8-44.8
		c4.8-8.7,7.6-18,7.4-28c-0.3-14.6-7.6-27.1-12.3-41.1c-2.7,4.6-5.4,7.9-10.3,9c-5.9,1.3-13.4-1.6-15.6-8.6
		c-0.8-2.5-2.6-2.1-4.1-1.5c-2.4,0.8-0.5,2.4-0.1,3.3c1.8,3.7,5,6.1,8.5,8.2c-8.3,0.4-13.8-3.9-18.2-11c0,10.9,10.2,32.2,18.4,39.3
		c8.7,7.6,13.1,17.3,11.7,26.5c-2.3-5.2-5.6-9.8-9.8-13.5c-1.8-1.6-3.9-5.1-5.6-4.3c-3.3,1.4-7.2,0.8-10.1,3
		c-8.3,6.5-17,5.9-25.8,1.9c-1.9-0.9-4.1-1.2-6.2-0.8c-5.2,0.9-10.4,0.2-14.1-4c-1.7-1.9-3.1-1.3-4.9-0.5c-8.4,3.9-15.2,9.8-20.9,17
		c-0.8,0.9-1.1,2.7-3.2,2.2c7.1-13.4,16.2-24.4,30.7-30.4c-0.5,5.7,1.6,8.1,7.1,8.5c2,0.1,4.1,0.2,5.9-0.9s3.3-0.8,5.2,0
		c7.5,3.2,14.5,2.6,18.2-1.8c4.8-5.7,2.7-11.7,0.1-17.5c-1.1-2.2-2.3-4.4-3.6-6.5c-1.4-2.4-3-4.7-4.3-7.2c-3.6-6.7-4.8-14.1-4.8-22
		c-7.5,6.6-9.3,7.9-14.1,8.5c-2.6,0.1-4.9,1.6-6.1,3.9c-4,6.6-11.9,9.3-19.5,7.3c-7.5-2-12.3-7.6-12.4-15.4c0-4.1-2.5-3.8-4.9-3.5
		c-3.2,0.3-1.5,2.9-1.3,4.4C230.9,171.7,233.3,176.6,237,180.4z M194,189.3c-7.1,2.2-10.5,2.5-16.9,1.5c15.3-7.6,21.6-15.6,22.6-29
		c-2.9,2.9-5.5,5.8-8.4,8.3c-10.1,8.7-22.3,13.1-34.7,17.4c-7,2.4-14.4,3.8-21,7.5c-10.2,5.8-12.3,16.8-4.9,26.2
		c1.7-3.9,3.4-7.8,7.8-9.9c-2.1,9.6-1.8,13.2,1.4,17.8c1.3-2.9,0.8-6.8,4.9-8.3c0.6,11.8,8.4,20.4,18.3,20.3
		c-2.8-6.9-1.8-10.2,4.7-13.8c3.5-2,7.3-3.4,10.9-5.3C190.9,215.4,196.5,203.6,194,189.3L194,189.3z M120.3,392.9
		c40.4,15.4,76.5,36,104.6,69.1c0-0.9,0.2-1.6,0-2.1c-2-3.9-4-7.9-6.3-11.6c-17.7-28.3-42.2-49.7-70.1-67.5c-1-0.7-1.9-1.3-3.4-0.5
		C137,384.4,128.9,388.5,120.3,392.9z M109.1,272.3c3.9,3.4,8.5,5.9,13.4,7.4c15.8,4.8,30.6,1,45.1-5.3c1.9-0.8,1.9-1.5,0.6-3
		c-2.6-2.7-3.9-6.4-3.7-10.2c0.1-2-0.7-2.3-2.4-2c-13,1.8-26.3,1.5-39.2-0.9c1.9,4.2,5.5,6.4,8.8,9.5
		C124.5,270.8,116.8,272.4,109.1,272.3z M373.8,230.3c6.8-5.4,9.1-12.2,6.1-20.6c4,0.4,4.1,4.5,6.7,6.4c0.6-4.3-0.7-8.7-3.5-12
		c-7.6-9.1-18.2-15.5-23.7-28c-0.5,7.5,0.4,15,2.7,22.1c2.2,6.7,6.1,12.5,9.8,18.4C374.5,220.9,376.2,225.2,373.8,230.3z
		 M283.8,152.7c-5.7-0.4-11.4-0.5-17-1.3c-12.5-1.9-25-4.3-37.5-6.2c-7.7-1.1-14.8,3.1-16.9,9.7c11.3-3.3,22.5-1.5,33.6,0.5
		c8.2,1.5,16.4,3.2,24.6,4.4C276.8,160.8,281.5,158.1,283.8,152.7L283.8,152.7z M215.6,283.8c-3.2,14.7,0,28.5,5.8,41.9
		c0.5,1.1,1.2,1.6,2.5,1c5.6-2.5,11.2-4.8,17.4-7.4C229.3,310.4,220.2,298,215.6,283.8L215.6,283.8z M301,153.5
		c1.1,5.1,4.2,7.2,8.5,7.8c5,0.7,9.9-0.1,14.8-0.5c7.8-0.6,15.6-4.1,23.4,0.3c0.8-8.4-1.6-10.7-9.6-9.6
		C325.9,153.1,313.8,155.1,301,153.5z M293.5,37.6c1.2-2.6,3.4-4.5,3.1-7.4c-1.8-0.5-2.9,2.1-4.5,0.4c-4.5-4.4-8.8-2.4-13,0.4
		c-2.9,1.9-5.8,4-8.6,6.1c-4.1,3.1-5.6,10.4-3.1,14.7s7.8,5.5,13.1,3.5s7.7-6.5,9.2-11.5h-7.2c0.2,0.8,0.4,1.4,0.5,1.9
		c0.6,2.3-0.4,4.8-2.5,5.9c-1.4,1.1-3.4,1.1-4.8,0c-2-1.6-1.9-3.8-1.5-6c0.9-4.1,3.2-7.8,6.5-10.5C285.4,31.2,289.7,31.9,293.5,37.6
		z M248.4,165.1c-1-1.4-2.9-1.5-4.5-1.8c-1.2-0.2-3-0.9-3.1,1.4c-0.2,1.8,1.1,3.5,2.9,3.7c0.1,0,0.2,0,0.3,0
		C246.2,168.8,247.4,167.5,248.4,165.1z M328.4,169.7c-2.2,0-4.7-0.8-6.1,1.2c-0.7,1,1,2.2,2.1,2.4
		C326.8,173.7,328,172.4,328.4,169.7L328.4,169.7z"/>
	<path class="st0" d="M130,244.2l0.4,0.5l-0.5-0.3L130,244.2z"/>
	<path class="st0" d="M228.7,351.8c5.4,0.5,7.9,2.5,8.2,6.5c0.2,3.7-1.8,6.2-5.4,7.1c-3.8,1-6.6-0.6-8.5-4.8
		c3.2,0.8,5.9,1.1,7.7-1.7C232.2,356.6,231.5,354.5,228.7,351.8z"/>
	<path class="st0" d="M246.3,451.9c3.5,1.6,6,1.4,7.7-1.2s0.7-4.6-1.5-7c4.5,0.1,7,1.8,7.8,5.7c0.8,4-1.4,6.4-4.9,7.6
		C251.4,458.2,248.5,456.7,246.3,451.9z"/>
	<path class="st0" d="M239.9,405.1c3.5,1.4,5.9,1.3,7.7-1.2s0.8-4.5-1.4-7c4.6,0,7,1.8,7.6,5.5c0.8,3.4-1.3,6.7-4.6,7.6
		C245.3,411.3,242.2,410,239.9,405.1z"/>
	<path class="st0" d="M322.6,274.7c-12.4-10.4-27.1-12.1-43.3-12.7c6.8-3.3,14.4-4.4,21.9-3.3c1.8,0.3,3.7,0.6,5.5,1
		c3.6,0.8,6.4-0.4,7.4-3.9c1.1-3.6-2.1-4.9-4.6-5.9c-7.5-3.1-15.4-3.3-23.3-1.7c-9.5,1.9-18.4,5.4-27.3,9.2
		c-8.9,3.8-10.9,3.1-16.2-5.7c14.5,0.9,26.7-6.6,40-9.6c9.6-2.2,19.1-2.3,28.3,1.4c6,2.6,12.5,4,19.1,3.9c-0.2,0.7-0.2,1.4-0.4,1.5
		c-6.5,2.8-6.4,10.1-10.2,14.7c-1.2,1.4,0,2.3,0.6,3.3C321.5,269.1,322.8,271.4,322.6,274.7z"/>
	<path class="st0" d="M298.3,52.8c-0.4,0.6-0.9,1.7-1.6,1.2c-1.1-0.8,0.4-1.3,0.7-2L298.3,52.8z"/>
	<path class="st0" d="M302.7,52.5c0.3-0.5,0.7-1.2,1.2-0.8c0.7,0.6,0.3,1.3-0.4,1.8L302.7,52.5z"/>
	<path class="st0" d="M309,53.4c-0.2,0.3-0.7,0.8-0.7,0.7c-0.7-0.4-0.2-0.9,0-1.3C308.5,53,308.8,53.2,309,53.4z"/>
	<path class="st0" d="M297.4,52l0.5-1.1l1.1,0.9l-0.7,1L297.4,52z"/>
</g>
</svg>
