<?xml version="1.0" encoding="utf-8"?>
<!-- Generator: Adobe Illustrator 22.0.0, SVG Export Plug-In . SVG Version: 6.00 Build 0)  -->
<svg version="1.1" id="Layer_1" xmlns="http://www.w3.org/2000/svg" xmlns:xlink="http://www.w3.org/1999/xlink" x="0px" y="0px"
	 viewBox="0 0 100 100" style="enable-background:new 0 0 100 100;" xml:space="preserve">
<style type="text/css">
	.st0{fill:#FFFFFF;}
</style>
<g id="D9DHCz.tif">
	<g>
		<path class="st0" d="M80.4,100c-0.9-0.6-1.3-1.5-1.8-2.4c-4.6-8.1-9.1-16.3-12.7-24.9c-1.3-3.2-2.6-6.4-3.2-9.8
			c-0.9-5.5,0.6-10.4,4.1-14.5c5.2-6.1,11.9-8.2,19.6-6c7.5,2.1,11.9,7.4,13.4,15c0,0.2,0.1,0.4,0.1,0.6c0,1.5,0,2.9,0,4.4
			c-0.7,3.4-1.9,6.8-3.2,10c-3.8,9.1-8.5,17.8-13.5,26.4c-0.3,0.5-0.7,0.9-1.3,1.2C81.5,100,80.9,100,80.4,100z M81.2,70.7
			c5.7,0,10.4-4.6,10.4-10.2c0-5.7-4.6-10.4-10.3-10.4C75,50.1,71,55.2,71,60.4C71,66.1,75.5,70.7,81.2,70.7z"/>
		<path class="st0" d="M16.7,0c3.4,0.7,6.5,2.1,8.8,4.8c3.4,3.9,4.7,8.4,3.1,13.4c-1.3,4.1-3.3,7.9-5.4,11.7c-2,3.6-4.2,7-6.5,10.4
			c-1.3,2-3,2-4.3,0C8.9,35.1,5.6,29.7,2.9,24c-1.2-2.5-2.3-5.1-2.9-7.8c0-1.3,0-2.5,0-3.8c0.1-0.3,0.2-0.6,0.3-1
			c0.9-3.8,3-6.8,6.2-9c1.8-1.2,3.8-1.9,5.9-2.4C13.8,0,15.3,0,16.7,0z M14.5,20.7c3.4,0,6.1-2.6,6.1-6.1c0-3.4-2.7-6.2-6.1-6.2
			c-3.3,0-6.1,2.8-6.1,6.1C8.4,17.9,11.2,20.7,14.5,20.7z"/>
		<path class="st0" d="M68.9,100c-1.5-0.2-3.1-0.3-4.7-0.7c-1.1-0.3-1.7-1.1-1.7-2.1c0-0.9,0.6-1.8,1.4-2.1c0.6-0.2,1.1-0.1,1.7,0
			c2.2,0.4,4.4,0.5,6.6,0.6c1.2,0,2.2,0.2,2.7,1.4c0.5,1.3-0.2,2.1-1.1,2.9C72.2,100,70.5,100,68.9,100z"/>
		<path class="st0" d="M49.1,63.3c0,1.6-0.7,2.6-1.9,2.7s-2.2-0.7-2.4-2.1c-0.3-2.7-0.6-5.4-1.2-8.1c-0.2-1.1,0.6-2.1,1.7-2.4
			c1.1-0.3,2.2,0.4,2.5,1.5c0.5,1.6,0.7,3.2,0.9,4.8C48.9,61,49,62.3,49.1,63.3z"/>
		<path class="st0" d="M50.8,80.1c0,1.4-0.7,2.3-1.8,2.5c-1.2,0.2-2.2-0.4-2.5-1.6c-0.6-2.9-1-5.8-1.1-8.7c-0.1-1.2,0.8-2.1,1.9-2.2
			c1-0.1,2.1,0.6,2.3,1.7C50.1,74.6,50.2,77.5,50.8,80.1z"/>
		<path class="st0" d="M51.4,86.1c0.8,0,1.5,0.4,1.9,1.1c1.3,2.1,2.9,3.8,4.9,5.2c1,0.7,1.2,2,0.6,3c-0.7,1-1.9,1.3-3,0.6
			c-2.8-1.7-4.9-4-6.4-6.8C48.7,87.8,49.8,86.1,51.4,86.1z"/>
		<path class="st0" d="M42.8,50.1c-0.8,0-1.4-0.4-1.8-1c-1.3-2-3.1-3.5-5.2-4.7c-1.2-0.7-1.5-2-0.9-3s1.8-1.4,3-0.7
			c2.8,1.5,5.1,3.6,6.7,6.3C45.5,48.3,44.4,50.1,42.8,50.1z"/>
		<path class="st0" d="M24.3,37.4c1.6,0,3.1,0.2,4.7,0.4c1.3,0.2,2.2,1.3,2.1,2.4c-0.2,1.3-1.3,2.1-2.6,1.9
			c-1.5-0.2-2.9-0.3-4.4-0.3c-0.5,0-1-0.1-1.5-0.2c-1-0.2-1.8-1.2-1.7-2.2c0-1.1,0.9-2,2-2.1C23.3,37.4,23.8,37.4,24.3,37.4z"/>
	</g>
</g>
</svg>
