<?xml version="1.0" encoding="utf-8"?>
<!-- Generator: Adobe Illustrator 22.0.0, SVG Export Plug-In . SVG Version: 6.00 Build 0)  -->
<svg version="1.1" id="Layer_1" xmlns="http://www.w3.org/2000/svg" xmlns:xlink="http://www.w3.org/1999/xlink" x="0px" y="0px"
	 viewBox="0 0 100 100" style="enable-background:new 0 0 100 100;" xml:space="preserve">
<style type="text/css">
	.st0{fill:#FFFFFF;}
</style>
<g id="_x33_GyD02.tif">
	<g>
		<path class="st0" d="M99.6,74.2c-0.5,2.3-1.6,4.3-3.4,5.8c-1.7,1.3-3.6,2-5.8,2c-22.6,0-45.2,0-67.8,0c-4.3,0-8.5,0-12.8,0
			c-5.2,0-9.3-4.1-9.3-9.3c0-15.3,0-30.6,0-45.8c0-4.9,3.1-8.6,7.9-9.5c0.7-0.1,1.4-0.1,2.1-0.1c26.2,0,52.4,0.1,78.6-0.1
			c5.6,0,9.5,3.3,10.4,7.9C99.6,41.4,99.6,57.8,99.6,74.2z M61.3,52.5c0.6-1,0.9-1.8,1.4-2.5c0.4-0.7,1-1,1.9-0.8
			c1.1,0.2,2.2,0.1,3.3,0c0.7-0.1,1-0.4,1.2-1c0.6-1.8,1.2-3.6,2.1-5.3c0.3-0.6,0.8-1.2,1.6-1.1c0.8,0.1,1.2,0.6,1.5,1.3
			c0.5,1.2,1,2.4,1.4,3.6c1,2.6,1,2.6,3.8,2.4c0.4,0,0.6-0.2,0.6-0.6c0.1-1.4,0-2.8,0-4.2c0-3.7,0-7.5,0-11.2c0-1.5-0.1-3,0-4.4
			c0.3-4.7-3.2-7.6-7-7.5c-5.6,0.1-11.2,0-16.7,0c-14.9,0-29.7,0-44.6,0c-3.9,0-6.8,2.7-6.8,6.5c0,6.8,0,13.7,0,20.5
			c0,0.7,0.3,0.9,1,0.9c1.7,0,3.4,0,5,0c1.2,0,1.7,0.3,2,1.5c0.8,2.4,1.5,4.9,2.3,7.3c0.5,1.6,1,3.1,1.5,4.7
			c0.2-0.1,0.2-0.3,0.2-0.4c0.2-4.8,0.4-9.6,0.6-14.4c0.2-4,0.3-7.9,0.4-11.9c0.1-2.3,0.2-4.5,0.3-6.8c0-0.8,0.5-1.3,1.1-1.7
			c0.6-0.3,1,0.3,1.5,0.7c0.3,0.3,0.3,0.7,0.4,1.1c1.3,5.7,2.6,11.4,3.9,17c0.5,2,0.9,4,1.4,6.1c0.4-0.1,0.4-0.3,0.6-0.5
			c2.3-3.4,1.4-2.8,5.3-2.8c0.7,0,1-0.3,1.3-0.9c0.5-1.3,1.1-2.7,1.7-4c0.3-0.7,0.8-1.2,1.5-1.2s1.3,0.4,1.6,1c0.6,1,1.3,1.9,1.8,3
			c0.7,1.4,1.7,1.9,3.1,2c1.4,0,2.2,0.7,2.7,2c1.5,4,3.2,8,4.7,11.9c0.3,0.7,0.5,1.3,0.8,2c0.2-0.4,0.2-0.7,0.2-1
			c0-9.9,0-19.8,0-29.7c0-2.1,0-4.3,0-6.4c0-0.9,0.5-1.4,1.2-1.8c0.6-0.3,1,0.3,1.4,0.6c0.3,0.2,0.3,0.6,0.4,0.9
			c1.3,5.2,2.5,10.5,3.8,15.7C59.8,46.2,60.5,49.2,61.3,52.5z M21,39.8c-0.1,0-0.1,0-0.2,0c-0.1,2.8-0.2,5.7-0.3,8.5
			c-0.3,7.2-0.6,14.5-0.9,21.7c-0.1,1.2-0.6,2.3-1.3,2.4c-0.7,0.1-1.5-0.8-1.8-2c-1.9-5.9-3.7-11.8-5.6-17.7c-0.2-0.7-0.6-1.1-1.4-1
			c-1.2,0.1-2.4,0.1-3.6,0c-0.7,0-0.9,0.2-0.9,0.9c0,6.3,0,12.6,0,19c0,1.3,0.3,2.5,1,3.6c1.3,2,3.1,3,5.5,3c13.4,0,26.9,0,40.3,0
			c7.3,0,14.6,0,21.9,0c3.2,0,6-2.5,6.2-5.5c0.3-2.8,0.1-5.6,0.1-8.4c0-1.7,0-3.5,0-5.2c0-2.1,0-4.1,0-6.2c0-0.8-0.3-1.2-1.2-1.1
			c-0.9,0.1-1.9,0-2.8,0c-1.3,0-1.8-0.4-2.2-1.6c-0.4-1.1-0.9-2.3-1.4-3.7c-0.5,1.5-0.9,2.7-1.4,3.9c-0.3,0.9-0.9,1.3-1.8,1.4
			C68,51.9,66.8,52,65.5,52c-0.7,0-1.1,0.3-1.4,0.9c-0.7,1.4-1.4,2.7-2.1,4c-0.3,0.6-0.9,1-1.6,0.9c-0.7-0.1-1.2-0.6-1.4-1.3
			c-1-4.1-2-8.1-2.9-12.2c-0.4-1.5-0.7-3-1.1-4.5c-0.1,0-0.1,0-0.2,0c0,0.3,0,0.6,0,0.9c0,10.2,0,20.4,0,30.7c0,0.4,0,0.7,0,1.1
			c-0.2,0.7-0.7,1.6-1.2,1.4c-0.7-0.3-1.6-0.5-2-1.4c-2.5-6.5-5.2-12.9-7.7-19.3c-0.4-1.1-1-1.7-2.2-1.7c-1.5,0-2.6-0.6-3.2-2
			c-0.3-0.7-0.8-1.4-1.4-2.1c-0.5,1.1-0.9,2-1.3,3c-0.4,1.1-1.2,1.6-2.4,1.5c-0.7,0-1.4,0-2.1,0c-0.6,0-1,0.2-1.3,0.7
			c-0.8,1.3-1.7,2.6-2.6,3.8c-0.4,0.6-1,1.1-1.8,0.9c-0.7-0.1-1.1-0.8-1.3-1.5c-0.4-1.7-0.8-3.4-1.2-5.1C22.7,47,21.9,43.4,21,39.8z
			 M89.7,47.5c2.2,0,4-1.6,4-3.8s-1.7-4-3.9-4.1c-2.3,0-4.1,1.8-4.1,4C85.8,45.8,87.5,47.5,89.7,47.5z M89.7,61c2.2,0,4-1.7,4-4
			c0-2.1-1.8-4-4-4s-3.9,1.8-4,3.9C85.8,59.2,87.5,61,89.7,61z M89.8,74.4c2.2,0,3.9-1.8,3.9-3.9c0-2.2-1.8-4-4-4s-4,1.8-4,4
			C85.8,72.7,87.6,74.4,89.8,74.4z M89.7,34.1c2.3,0,4-1.8,4-4.1c0-2.2-1.7-3.8-4-3.8c-2.2,0-4,1.7-4,3.9
			C85.8,32.3,87.5,34.1,89.7,34.1z"/>
	</g>
</g>
</svg>
