<?xml version="1.0" encoding="utf-8"?>
<!-- Generator: Adobe Illustrator 22.0.0, SVG Export Plug-In . SVG Version: 6.00 Build 0)  -->
<svg version="1.1" id="Layer_1" xmlns="http://www.w3.org/2000/svg" xmlns:xlink="http://www.w3.org/1999/xlink" x="0px" y="0px"
	 viewBox="0 0 369 283.4" style="enable-background:new 0 0 369 283.4;" xml:space="preserve">
<style type="text/css">
	.st0{fill:#0C0C0E;}
	.st1{fill:#171718;}
	.st2{fill:#F28601;}
	.st3{fill:#EF8102;}
	.st4{fill:#2B2B2D;}
	.st5{fill:#F49728;}
	.st6{fill:#C26839;}
	.st7{fill:#F5A00A;}
	.st8{fill:#321A16;}
	.st9{fill:#1B1312;}
	.st10{fill:#F59B0D;}
	.st11{fill:#F08101;}
	.st12{fill:#F59C1B;}
	.st13{fill:#2D120B;}
	.st14{fill:#BBC0CE;}
	.st15{fill:#D4681F;}
	.st16{fill:#222122;}
	.st17{fill:#1F1F24;}
	.st18{fill:#DBDEEA;}
	.st19{fill:#F3942A;}
	.st20{fill:#28282B;}
	.st21{fill:#363438;}
	.st22{fill:#F08911;}
	.st23{fill:#262629;}
	.st24{fill:#272425;}
	.st25{fill:#686569;}
	.st26{fill:#2C2F3D;}
	.st27{fill:#F0890C;}
	.st28{fill:#2F2E31;}
	.st29{fill:#A2350E;}
	.st30{fill:#DBDCE6;}
	.st31{fill:#4E4C53;}
	.st32{fill:#56545D;}
	.st33{fill:#EF8A0B;}
	.st34{fill:#E0751C;}
	.st35{fill:#F5A762;}
	.st36{fill:#4F566E;}
	.st37{fill:#413A3C;}
	.st38{fill:#262528;}
	.st39{fill:#F3D8C8;}
	.st40{fill:#9FA2B7;}
	.st41{fill:#1F1112;}
	.st42{fill:#D8D9E0;}
	.st43{fill:#68676E;}
	.st44{fill:#EA9B2B;}
	.st45{fill:#68646C;}
	.st46{fill:#EEEEF2;}
	.st47{fill:#CBCCDA;}
	.st48{fill:#DAD9DE;}
	.st49{fill:#D4D2D4;}
	.st50{fill:#B8B5BB;}
	.st51{fill:#7B7D8E;}
	.st52{fill:#595D6F;}
	.st53{fill:#0C0B0D;}
	.st54{fill:#232222;}
	.st55{fill:#4B170A;}
	.st56{fill:#767881;}
	.st57{fill:#7F7F89;}
	.st58{fill:#7D7F87;}
	.st59{fill:#83838E;}
	.st60{fill:#737680;}
	.st61{fill:#42424B;}
	.st62{fill:#70737D;}
	.st63{fill:#F3A569;}
	.st64{fill:#DB5F00;}
	.st65{fill:#2D2D2F;}
	.st66{fill:#3B3B3D;}
	.st67{fill:#C34A01;}
	.st68{fill:#535353;}
	.st69{fill:#F4982B;}
	.st70{fill:#FAC898;}
	.st71{fill:#EF9630;}
	.st72{fill:#BA530B;}
	.st73{fill:#F7AB60;}
	.st74{fill:#F8AE5F;}
	.st75{fill:#F4992A;}
	.st76{fill:#F5A765;}
	.st77{fill:#F8B882;}
	.st78{fill:#F5AA6E;}
	.st79{fill:#671E04;}
	.st80{fill:#DA6E1B;}
	.st81{fill:#F9F0E9;}
	.st82{fill:#EBE5E6;}
	.st83{fill:#C54905;}
	.st84{fill:#8D2A15;}
	.st85{fill:#4F180D;}
	.st86{fill:#BCB1B8;}
	.st87{fill:#9F6442;}
	.st88{fill:#503224;}
	.st89{fill:#A07664;}
	.st90{fill:#EEA680;}
	.st91{fill:#202021;}
	.st92{fill:#424248;}
	.st93{fill:#3A3941;}
	.st94{fill:#4E4D51;}
	.st95{fill:#5A5A61;}
	.st96{fill:#902906;}
	.st97{fill:#D95C01;}
	.st98{fill:#AE3904;}
	.st99{fill:#463E3D;}
	.st100{fill:#F3B77F;}
	.st101{fill:#FAD2B9;}
	.st102{fill:#957645;}
	.st103{fill:#B1511E;}
	.st104{fill:#C15A1E;}
	.st105{fill:#ED912A;}
	.st106{fill:#271F1B;}
	.st107{fill:#AA4411;}
	.st108{fill:#E18B48;}
	.st109{fill:#B55C2D;}
	.st110{fill:#BFB1B3;}
	.st111{fill:#4F474A;}
	.st112{fill:#C2C1C9;}
	.st113{fill:#B4B5C0;}
	.st114{fill:#9595A0;}
	.st115{fill:#9897A4;}
	.st116{fill:#EAE7ED;}
	.st117{fill:#F39B34;}
	.st118{fill:#FAF7F5;}
	.st119{fill:#E87D0E;}
	.st120{fill:#4D1A0F;}
	.st121{fill:#8F7771;}
	.st122{fill:#F49820;}
	.st123{fill:#DE6808;}
	.st124{fill:#D48C40;}
	.st125{fill:#D18844;}
	.st126{fill:#8C2F12;}
	.st127{fill:#DAA075;}
	.st128{fill:#F4B679;}
	.st129{fill:#BF4602;}
	.st130{fill:#BF6125;}
	.st131{fill:#977136;}
	.st132{fill:#110E0E;}
	.st133{fill:#5F616F;}
	.st134{fill:#C9CBDC;}
	.st135{fill:#BABCCF;}
	.st136{fill:#333237;}
	.st137{fill:#444349;}
	.st138{fill:#EA7202;}
	.st139{fill:#FBECE8;}
	.st140{fill:#F7BF9A;}
	.st141{fill:#F4B182;}
	.st142{fill:#E27B22;}
	.st143{fill:#231513;}
	.st144{fill:#7A2206;}
	.st145{fill:#993109;}
	.st146{fill:#4A4950;}
	.st147{fill:#BF4C04;}
	.st148{fill:#F08902;}
	.st149{fill:#5D5F68;}
	.st150{fill:#9F3F0B;}
	.st151{fill:#E88815;}
	.st152{fill:#221613;}
	.st153{fill:#DAD9E4;}
	.st154{fill:#0F0F11;}
	.st155{fill:#4D4C58;}
	.st156{fill:#C2C1CD;}
	.st157{fill:#C05508;}
	.st158{fill:#B6B5C6;}
	.st159{fill:#84838F;}
	.st160{fill:#8E2204;}
	.st161{fill:#DB6709;}
	.st162{fill:#F49649;}
	.st163{fill:#F18722;}
	.st164{fill:#E87610;}
	.st165{fill:#BC4B05;}
	.st166{fill:#B74502;}
	.st167{fill:#BA3B03;}
	.st168{fill:#F4B780;}
	.st169{fill:#3A3535;}
	.st170{fill:#8F6F64;}
	.st171{fill:#F9EEE0;}
	.st172{fill:#AF4912;}
	.st173{fill:#BC4F0F;}
	.st174{fill:#C17F58;}
	.st175{fill:#BD6634;}
	.st176{fill:#402F2C;}
	.st177{fill:#282321;}
	.st178{fill:#F39753;}
	.st179{fill:#FBF0EB;}
	.st180{fill:#B53007;}
	.st181{fill:#ED8E15;}
	.st182{fill:#551B0C;}
	.st183{fill:#B9561C;}
	.st184{fill:#39373B;}
	.st185{fill:#26201D;}
	.st186{fill:#2B2527;}
	.st187{fill:#8A8692;}
	.st188{fill:#452F24;}
	.st189{fill:#64636C;}
	.st190{fill:#918F9D;}
	.st191{fill:#F4F4F7;}
	.st192{fill:#F9CBB8;}
	.st193{fill:#9A2F05;}
	.st194{fill:#767481;}
	.st195{fill:#C14B03;}
	.st196{fill:#6B1E0C;}
	.st197{fill:#EE832F;}
	.st198{fill:#CD815B;}
</style>
<g>
	
		<image style="overflow:visible;opacity:0.3;" width="300" height="347" xlink:href="1542340861B5687C.png"  transform="matrix(1 0 0 1 45.5207 -3.6721)">
	</image>
	<g>
		<g>
			<path class="st0" d="M122,145.2c0.9-2.3,4-1.6,5.1-3.7c0.5-1.7-1.1-2.6-1.5-4c-1.4-5.4-1.2-6.3,3.5-9.4c0.7-0.5,1.5-0.8,2-1.5
				c5.5-7.5,13.4-12.7,18.8-20.2c1.6-2.3,2.9-4.7,1.3-7.4c-1.3-2.4-3.1-4.4-6.3-3.9c-1.8,0.3-2.4-1.1-3.6-2
				c-5.5-4.3-6.1-9.8-5.2-16.2c0.6-4.8-1.7-8.9-4.8-12.7c-5.3-6.2-11.2-11.8-17.9-16.4c-1.6-0.1-2.7,0.8-3.7,1.9
				c-1.2,1.9-2.6,3.6-4.3,5.1c-1.7,1.7-2.7,3.9-4.9,5.2c-0.9,0.8-1.4,1.8-1.8,2.8c-2.4,5.3-6.8,9-10.2,13.5c-0.1,3.6,0,7.4-4,9.3
				c-3,1.2-5.5,3-6.2,6.4c-0.2,1.4,0.4,2.5,1.3,3.6c0.2,0.2,1.5,0.6,0.1,1.1c-3.2,1-1.3,2.7-0.3,4c1,1.3,1.8,2.8,3.5,3.3
				c0.5,0.1,0.9,0.1,1.4,0.1c4.9-2.2,5-2.2,7.4,2.9c1.6,3.2,5.2,5.3,5.4,9.3c2.2,2.5,1.3,6.3,3.8,8.7c0.4,0.1,0.9,0.1,1.3,0
				c1-0.2,2.1-0.6,3.1-0.7c2.5,0.4,3.5,2.2,3.8,4.5c0.2,0.9,0.5,1.8,1.4,2.2c4.7,1.9,4.9,2.5,1.8,7.6c-0.2,0.5-0.2,0.9-0.2,1.4
				c0.5,4.3,4.3,4.3,7.1,5.6C120.2,145.8,121.2,146.2,122,145.2z"/>
			<path class="st1" d="M113.1,48.3c5.4,5.5,11.7,10.1,16.8,16c4.6,5.2,6,10.7,4.8,16.9c-0.4,2.3-0.6,6-0.1,6.5
				c3.1,2.8,5.6,6,8.4,9.1c0.9,1,2.8-1.9,4.9-0.3c3.6,2.8,4.5,6.1,0.9,9.2c-4.5,3.9-6.2,10.8-13,12.4c-1.1,0.3-1.3,1.8-1.9,2.8
				c-1,1.8-2.1,4.4-3.8,5c-6.5,2.5-7.3,6.5-5.8,12.9c0.6,2.6,2.4,1.4,2.8,2.6c3.6-3.6,9.1-3.3,12.9-6.3c0.9-0.5,1.8-1.2,1.5-2.3
				c-1.3-3.8,0.7-6.8,2.5-9.7c4.3-6.8,8.5-13.8,15.1-18.7c-0.4-5.2-4.6-8.7-6.1-13.4c-1.6-2.9-3.1-5.8-5.4-8.2
				c-5.9-7.3-9.8-15.8-13.3-24.5c-0.5-0.8-1.3-1.2-2.2-1.5c-1-0.2-2.2,0.1-2.9-1.1c-0.9-1.3-1.6-2.7-2.9-3.7c2-3.9,5.2-6.3,9.4-7.5
				c0.4,0.6,0.8,1,1.5,1.1c1.3,0.1,1.8-1.1,2.6-1.6c-0.8,1.5-3.1,1.9-3.2,4.1c0.2,0.7,0.7,1.2,1.3,1.5c0.7,0.1,1.2-0.2,1.8-0.4
				c-0.3,0.5-0.9,0.7-1.3,1.1c-0.6,0.6-0.9,1.3-0.8,2.1c0.3,0.7,0.8,1.1,1.6,1.3c1.7,0.4,3.1-3,4.8-0.7c2.1,3,3.8,6.3,3,10.2
				c-0.4,1.8-1.2,3.5-2.4,4.8c-3.3,3.8-3.1,7.3,0.2,10.9c0.7,0.7,1.2,1.6,1.7,2.5c1.4,1.7,2.5,3.6,4.7,4.4c2.5,0,4.6-1.2,6.2-2.8
				c2.5-2.6,5.5-4.1,8.7-5.5c-1.4-4.5-5.2-3-8.2-3.2c-1.9-0.1-4,1.6-5.5-0.7c-1.4-2.2,0.1-4.1,1.2-6c2-3.3,2.4-7.2,3.7-10.8
				c1.7-3.4,0.9-6.1-2.2-8.2c-3.7-4.3-7.6-8.4-12.2-11.7c-0.5-0.5-1-0.9-1.5-1.3c-1.7-1.2-3.3-2.6-5.3-3.1c-0.7-0.1-1.4,0-2.1,0.3
				c-3.1,2.8-6.9,5-8.2,9.4c0.3,0.7,0.7,1.2,1.5,1.5c2.7-0.8,4.7-2.6,6.6-4.6c-3.1,3.4-7.4,5.4-10.8,8.6c-0.1,0.1-0.4,0.1-0.5,0
				c-0.1-0.1-0.1-0.3-0.1-0.5c-0.2-0.8-0.6-1.5-1.2-2c-1.2-0.5-2.5-0.3-3.8-0.6c-2.1-0.2-3.6,0.7-4.7,2.5
				C112.7,47.5,112.7,47.9,113.1,48.3z"/>
			<path class="st2" d="M303.9,232.5c-5.7-4.2-11.7-7.5-18.6-9.3c-0.8-0.3-1.7-0.6-2.3,0.1c-5.7,6.5-14.2,6.5-21.6,8.6
				c-4.9,1.4-6.9-1.7-4.5-6.3c1.7-3.3,2.8-6.7,4.5-10c1-1.9,1.8-4,0.8-6.2c-1.6-0.7-2.3,0.5-3.1,1.5c-2.9,7.1-7.5,13.3-11.5,19.7
				c-4.2,6.7-5.2,13.2,0,19.8c1.4,0.9,2.8,0.4,4.3,0c2.8-0.2,4.8-4.2,8.2-1.8c0.6,0.3,1.3,0.3,1.9,0.1c1.7-0.9,2.5-3,4.5-3.5
				c1.1-0.4,2.1-1,3.2-1.3c1.8-0.5,1.9,0.5,1.5,1.9c0.2,3.3-0.8,6.8,1.8,9.7c0.4,0.4-2.1,0.8-0.8,2.2c2.8,1.2,5.4,2.8,8.6,2.9
				c1.3,0,2.6-0.1,3.8-0.4c2.2-0.7,4.4-1.3,6.5-2.3c0.7-0.4,1.2-1,1.5-1.8c0.3-1.4,0.2-2.6-1.2-3.3c-2.6,0.5-5.4,0-7.5,2.1
				c0,0,0-0.1-0.2-0.5c3.6-1.4,7.5-1.7,10.9-3.3c1.8-0.7,3.5-1.7,5.2-2.6c4.8-2.6,7.3-6.3,6.4-12
				C306.1,234.8,305.4,233.4,303.9,232.5z"/>
			<path class="st3" d="M142.2,37.5c4.1,3.8,8.5,7.3,12.1,11.7c2.2,1.9,4.7,3.3,7.5,4.3c7.4,1.7,13.2,6.8,20.1,9.5
				c6.1-3.2,10.6-8.4,15.8-12.8c0.7-2.4-0.6-3.9-2.6-4.8c-1.5-0.6-3-1.3-4.6-1.8c-1.1-0.3-2.2-0.5-3.2-0.8c-1-0.3-2.1-0.7-3.1-1.2
				c-0.4-0.2-0.8-0.4-1.2-0.6c-3.3-1.8-7.1-2.3-10.7-3.3c-2-0.4-3.9-1-5.8-1.7c-0.3-0.1-0.7,0-0.9-0.1c-0.8-0.4,0-0.6,0.2-0.8
				c0.8-0.5,1.7-0.7,2.5-1.2c1-0.6,1.8-1.4,2.4-2.5c0.8-1.4,1.1-3.1,2.8-3.8c2.8,5.1,7,5.6,14,1.7c2.5-2.2,4.3-5.2,7.9-5.9
				c0.4-0.2,0.8-0.4,1.2-0.7c-2.1-2.5-5.1-1.9-7.8-2.2c-6.4-0.8-12.9-1.1-19.4-1.8c-3.2-0.4-6.3-0.2-9.2,1.2
				c-1.1-0.1-1.7,0.6-2.3,1.4c-2.8,3.2,0.5,4.3,2.5,6.6c-4.9-1.6-8.4,0-11.2,3.5C147.3,33.8,143.5,34.3,142.2,37.5z"/>
			<path class="st4" d="M323.9,283.1c-1.2-11.4-2.4-22.7-3.7-34.1c-1.8,2.3-3.5,4.7-6.5,5.8c-3.4,1.2-5.5,0-5.7-3.7
				c-0.1-1.9,0.6-4-0.7-5.8c-0.4-0.3-0.9-0.4-1.4-0.3c-2.8,3-6.4,5.3-8.2,9.2c-1.7,5.4-1.2,10.9-1.2,16.3c0,4.8-0.2,9.6-0.4,14.4
				c0.6,2.4,2.8,2,4.4,2.3c2.5,0.5,4.6,1.7,7,2.4c1.7-1.2,2.3,1.1,3.6,1.2c3.5-0.8,6.5-2.8,9.8-4.1
				C322.9,286.1,323.6,284.8,323.9,283.1z"/>
			<path class="st5" d="M262,209.3c-0.6,5-3.4,9.1-5.2,13.7c-1.3,3.3-4.4,6.4-0.8,9.8c3,2.8,6.7,0.7,9.7-0.1
				c2.6-0.7,5.2-1.9,7.9-2.6c4.5-1.2,9.4-1.9,11.7-6.8c-2.3-1.4-1.5-3.4-1-5.3c2-7.5,4-15,6-22.5c-3.9-0.2-3.5,3.4-4.9,5
				c-0.3-1.7-1.1-3.5-3.7-3.5c-3.3,3.4,0.3,5.7,1.2,8.4c0.3,0.5,1.6,0.1,1.2,0.6c-1.8,1.8-2.9,4.3-5.3,5.4c-2.3-1.4-0.1-3.5-0.7-5.2
				c-0.6-1.5-0.5-3.9-2.9-2.6c-4.7,2.6-3.9-0.7-4-3.3c0-1.2,0.4-2.3,0.7-3.4c0.6-4,1.8-7.8,3.1-11.5c0.3-1.6,0.3-3.2-0.4-4.6
				c-0.3-0.5-0.8-0.7-1.3-0.7c-1.3,0.6-1.8,1.8-2.3,3c-1.1,3.8-2.9,7.3-4.1,11.1c-1.3,3.4-2.6,6.8-4.2,10.1
				C262,205.8,260.7,207.4,262,209.3z"/>
			<path class="st6" d="M181.5,107.9c0.4,0.3,1,0.6,1.1,1c2.6,14.3,7.7,28.2,6.9,43.1c-0.2,4.7,3.1,8.6,3.5,13.2
				c2.1-2.2,1.4-5,1.4-7.6c0-2.8,0.5-5.3,3.1-6.9c2.7-5.2,3.4-10.9,3.9-16.5c0.2-2.1-0.1-4.3,0.6-6.3c-1.6-11.3-4.7-22.3-10.3-32.3
				c-3.8,0-1.7-4.2-3.8-5.5c-2.2,0.5-1.9,2.5-2.1,4c-0.2,2.1-0.7,3.9-2,5.5c-0.3,0.7-0.5,1.4-0.5,2.1
				C184.1,104.2,181.4,105.6,181.5,107.9z"/>
			<path class="st7" d="M263.1,99.3c2.8-10,5.3-20.1,4.8-30.6c-0.4-9.1-4.3-15.8-12.8-19.6c-7.8-3.5-15.7-7-22.1-13
				c-2,3.8,1,5.5,3.3,7.1c2.9,2,5.9,3.7,8,6.4c2.7,1.8,2.5,4.4,1.7,7.1c0,2.6-1.9,4.8-1.7,7.5c0.3,1.6,1.4,2.6,2.5,3.7
				c4.9,4.7,4.9,4.7,0.8,10.4c-0.4,4.1,1.9,3.6,4.3,2.3c1.5-0.8,2.1-2.5,3.1-3.9c1.5-2.7,1.9-5.8,3-8.7c0.3-0.6,0.4-1.3,0.7-1.8
				c1-1.5,1.6-3.7,3.7-3.5c2.6,0.2,2.2,2.8,2.8,4.6c1.3,7.7,0,14.9-3.9,21.6c-0.9,2.3-2.3,4.4-2.3,7.1
				C259.2,98.4,261,99.1,263.1,99.3z"/>
			<path class="st8" d="M159,104.3c-2.3-0.2-3.6,1.1-4.8,2.8c-3.2,4.6-6.6,9-9.9,13.5c-3.3,4.3-5,9.1-4.1,14.6
				c10-3.4,18.9-8.9,27.1-15.6c0.9-1.3,1.1-2.7,0.3-4.1c-0.4-0.8-1-1.5-1.5-2.2c-0.5-0.9-1.2-1.6-1.7-2.5c-0.2-0.6-0.4-1.1-0.5-1.7
				c-0.1-0.4-0.3-0.7-0.6-1.1c-0.7-0.8-1.2-1.6-1.7-2.5c-0.2-0.3-0.5-0.6-0.9-0.8C160.2,104.4,159.6,104.3,159,104.3z"/>
			<path class="st9" d="M186.9,211.2c-1.3,0.7-2.6,1.4-3.8,2.1c-7.6,6.6-5.1,15.3,6.7,21c1.1,0,2.1-0.3,2.7-1.4
				c0.2-0.8,0-1.5-0.5-2.1c-1.5-1.5-3.1-2.8-4.3-4.7c1.6-0.1,3.2,0.6,4.8,0.1c1.3-0.5,2.7-0.9,3-2.6c-2.4-2.9-0.6-4.9,1.3-7
				c2.5-4.5,5.1-8.9,9.3-12.1c2.4-3.7,3.6-7.9,4.3-12.2c0.1-1.4,0-2.7-0.6-3.9c-1.4-1.9-3.1-3-5.5-2.4c-2.7,2.2-2,5.7-3.2,8.5
				C197.9,201.5,194.9,208.4,186.9,211.2z"/>
			<path class="st10" d="M256.2,133c-2.3-6.6-4.6-13.2-6.9-19.8c-1.6-1.1,0-2.9-1.1-4.1c-0.7-0.4-1.4-0.5-2.1-0.1
				c-0.6,7.6-4.8,13.4-9.4,19.1c-0.9,1-1.2,2.4-1.1,3.7c1.4,3.6,1,7.6,2.4,11.2c0.7,1.7,1.2,3.2,3.4,2.1c1.1-0.4,2.3-0.7,3.1-1.4
				c1.1-1,2.7-1.6,3.6-1.2c0.3-0.3,0.8-0.8,0.7-1.2c-0.4-4.4,2.3-4.8,5.6-4.7C256.1,135.9,257,134.9,256.2,133z"/>
			<path class="st11" d="M291.2,161.4c-2.9-5.1-8.3-6.8-13-9.3c-2.9-1.5-6.1-2.8-9.3-3.5c-4.8-1.2-8.9-2.8-9.7-8.4
				c-2.4-0.6-1.7,2.3-3.2,2.8c-0.8,0.1-1.5-0.1-2.3,0c-1.2,0.4-2.3,1-3.2,1.8c-1,0.9-1.8,1.9-2,3.2c0,1.1-0.3,2.3,0.2,3.4
				c0.9,1.6,2.4,2.4,4,2.6c9.7,0.8,17.4,6.3,25.7,10.6c1.8,0.5,2.6-1,3.6-2c1.2-1.3,2.5-2.1,4.3-1.3
				C288,161.5,289.6,162.2,291.2,161.4z"/>
			<path class="st12" d="M248.1,109.4c0.2,1.4-0.6,3,1.2,3.9c-0.2-1.7-0.4-3.3,2.3-3.1c3.9,0.4,6.4-1.9,8.5-4.9
				c0.9-3.9-2.5-4.1-4.6-5.4c-2.3-0.4-2-2.3-2-3.9c-0.1-4.4-0.2-8.9,1.1-13.2c0.3-1.2,0.7-2.4,0.7-3.7c0-1.1-0.2-2.1-1.2-2.9
				c-1.6,0.8-1.4,2.9-3.4,3.8c-2.6,1.2-2.2-0.4-2.5-1.7c-1.7-0.9-3.5-0.1-5.3-0.4c-7.5,0.4-8.4,2.3-4.4,8.7c2.5,3.9,4.5,8,6.6,12.1
				c1.5,2.8,2.6,5.9,4.8,8.3C250.6,109,248.2,108.3,248.1,109.4z"/>
			<path class="st13" d="M245.2,49.1c-1.9-3.3-5.1-5.1-8.3-6.9c-2.5-1.3-4.3-3-4-6.2c-1-1.6-2.2-3-4-3.6c-8.8-2.9-17.4-6.8-26.9-7.3
				c0.3,3.4,3.8,2.2,5.4,3.7c1.8,0.8,4.1,0.3,5.6,1.9c1.6,1.2,1.1,3.2,1.7,4.8c0.3,0.4,0.7,0.9,1.1,0.9c5.2,0,6.5,3.3,6.7,7.6
				c3.3,2.2,6.5,4.5,8.8,7.8c0.9,1.3,2,2.2,3.5,2.6c2.9-0.6,0.7-2.5,1-3.9c1.2-0.4,2,0.9,3.1,0.9c3.2-2,3.4,3,6,2.6
				C246.6,52.6,246.2,50.8,245.2,49.1z"/>
			<path class="st14" d="M97.8,116c-0.2-2.6-0.5-4.9-3.1-6.6c-1.2-0.8-1.9-2.7-2.5-4.2c-2.3-6-3.4-6.2-7.8-1.7
				c-2.3,2.3,0.1,3.9,1.1,5.4c1.7,2.6,1.4,4.5-0.8,6.5c-2.5,2.2-4.7,4.7-7.2,6.8c-4.6,3.8-4.3,6.6,0.7,10.1c5.5-2.6,8.5-8.3,13.9-11
				C94,119.5,96.8,118.7,97.8,116z"/>
			<path class="st15" d="M197.1,150.3c-3-0.2-4.1,1.3-4,4.1c0.1,3.6,0,7.2,0,10.8c-1.5,8.5,3.6,13.9,9.1,19c0.6,1,1.2,1.8,2.5,1.4
				c4.9-3.4,5.9-5.5,2.9-10.1c-4.5-6.9-7.4-14.3-8.2-22.5C199.1,151.8,199,150.2,197.1,150.3z"/>
			<path class="st16" d="M307.1,245.4c0,1,0.1,2,0,3c-0.5,3.8-0.7,7.7,4.1,8.6c3.3,0.6,8.5-4.3,9.1-7.9c-0.1-9.7-5.7-15.4-16.3-16.5
				c0.4,1.3,0.8,2.5,1.2,3.8c1,1.3,0,3,0.8,4.3c2.6,1.6,5.5,1.7,8.4,1.3c0.7-0.1,0.1,1.2,0.1,0.5c0-0.1-0.1-0.2-0.2-0.2
				C311.4,242.2,309.1,243.4,307.1,245.4z"/>
			<path class="st17" d="M176.2,275.5c-2.1,1.4-4.3,2.8-6.4,4.3c-4.8,3.5-5.6,8.1-3.6,13.5c0.6,1.1,0.6,2.6,2,3.3
				c3.1,1.4,6.1,1.7,9-0.5c1-1.1,1.8-2.4,3.5-2.3c3.7,0,3.3-2.2,2.5-4.6c-1-2.1-2.8-3.8-3.1-6.3
				C178.3,280.6,179.5,276.9,176.2,275.5z"/>
			<path class="st18" d="M113.1,139.4c0.1-0.2,0.2-0.5,0.1-0.7c0.2-0.5,0.3-0.9,0.2-1.4c-3.2-3.7-4.5-8.9-8.9-11.7
				c-0.8-0.5-1.2-1.6-2.4-1.2l-0.2-0.1c-5.8,4.3-10.6,9.8-16.1,14.5c-2.9,2.5-2.2,4.4,2.2,8.5c4.2-0.9,5.7-5.8,9.8-6.9
				c0.7-0.1,1.2-0.5,1.6-1c2.4-3.3,4.6-4.3,7.3-0.1C108.4,141.7,110.9,142.3,113.1,139.4z"/>
			<path class="st19" d="M150,32.3c2.4-1.8,3.8-6.3,8.2-2.7c0.4,0.4,3.2,0.4,3.6-1.6c0.4-1.8-0.1-3-2.4-3.3
				c-4.5-0.6,0.6-2.4-0.3-3.5c-0.3-0.4-0.7-1-1.1-0.9c-7.3,1.6-14.6-1.6-21.9,0.1c-2.8,0.7-4.4,2.8-5.9,5c2.6,0.3,5.3,0.6,6.8,3.2
				c2.8,4.7,6.7,4.7,11.1,2.7C148.7,31.5,149.4,31.7,150,32.3z"/>
			<path class="st20" d="M78.1,132.4c-3.9-5.6-3.9-5.6,1.5-10.4c0.9-0.8,1.7-1.5,2.6-2.3c2.1-2.1,5.1-3.8,6.2-6.3
				c1.3-3-2.6-4.8-3.8-7.4c-0.4-0.8-0.5-1.5-0.2-2.4c-0.5-0.1-0.9-0.1-1.4-0.2c-1.7,1.1-2.4-2.1-4.1-1c-1.8,4.9-3.5,9.8,1.6,14.1
				c1,0.9-0.8,1.9-1.5,2.7c-3.5,3.3-6.9,6.6-10.5,9.7c-1.6,1.4-2.7,2.3-0.8,4.3c1.5,1.6,2.2,4.4,5.3,2.1
				C74.5,134,76.4,133.3,78.1,132.4z"/>
			<path class="st21" d="M165.9,115.2c1.6,1.1,0.9,3,1.3,4.5c5.3-3.3,9.6-7.7,14.2-11.7c1.4-1.6,4.3-2.5,2.6-5.6
				c-1.5-0.2-3,0.3-4.6-0.4c-0.6-1.7,3.2-3,1-4.8c-1.7-1.4-2.9,0.4-4,1.3c0.4-1.5,4.1-2.2,2.1-4.1c-1.7-1.7-3.4,1-4.8,2.2
				c-2.1,1.8-3.9,4.1-6.2,5.7c-1.8,1.7-4.4,2.8-4.6,5.8c0.1,0.5,0.2,1.1,0.3,1.6c1.8,0.2,2.6-1.5,4-2.3c-1.6,1.2-2.7,2.7-4.1,3.8
				c0.6,0.7,1.2,1.3,1.8,2c2.3,0.8,2.7-1.7,4-2.2C168.2,112.3,166,113,165.9,115.2z"/>
			<path class="st22" d="M176.7,228.5c-1.8,1.1-3,2.8-3.7,4.7c-1.1,8.2,1.4,12.1,10.3,15.4c2.1,0,4-0.8,6.1-0.7
				c2.9-0.7,4.8-2.3,5.1-5.5c-0.5-2.6-2.8-2.9-4.6-3.9c-1.1-0.4-2-1.1-2.9-1.6c-3.2-0.4-5-2.9-6.9-5
				C178.9,230.8,178.5,229,176.7,228.5z"/>
			<path class="st23" d="M88,147.3c-3.3-6.3-3.2-6.3,2.4-11.4c4.1-3.7,8.4-7,11.5-11.7c-0.6-0.3-1.6-0.8-1.6-0.9
				c1.4-3.2-1-5.2-2.5-7.4c-1.8,1.9-5.2,2.1-5.8,5.4c0.9,1,1.8,2,2.7,2.9c2.3,2.1,1.7,3.7-0.5,5.6c-5.2,4.4-10.1,9-15.3,13.5
				c-1.6,1.4-3,2.3-1.1,4.7c1.7,2.1,3,3.3,5.6,1.5C84.9,148.4,86.5,148,88,147.3z"/>
			<path class="st24" d="M113.2,47.3c1.4-1,2.7-2.4,4.7-2c6.7-2,10.7-7.7,15.8-11.9c0.7,0,1.4,0,2.1,0c-1.5-2.9-3.1-3.7-6.5-2.8
				c-3.2,0.9-6,2.8-8.6,4.8c-5.5,4.4-11,8.8-16.4,13.3c-1.4,1.1-2.6,2.5-3.9,3.8c2.2,1.5,3.8,0.1,5.6-0.9
				C108.4,50.1,110.5,48.2,113.2,47.3z"/>
			<path class="st25" d="M176.2,275.5c1.4,2.5,1,5.6,2.8,7.9c3.8,2.8,3.9-1.2,4-2.8c0.5-5.9,2.3-11.6,2.4-17.5
				c0-2.5,0.4-4.9,1.7-7.1c0.2-3.4-2.9-3-4.7-4.1c-1.9-0.6-2.6,0.7-3.3,2.1c-0.3,5.3-0.7,10.6-0.8,15.8
				C178.4,272,177.8,273.9,176.2,275.5z"/>
			<path class="st26" d="M100,63.4c0.4-0.9,0.7-1.7,1.1-2.6c1.5-2,2.6-4.4,5.1-5.4c1.6-1.4,3.5-2.6,3.9-4.9
				c-1.1-1.3-2.2-0.3-3.3,0.1c-5,3.1-10.8,5.1-14.7,9.8c-2.6,4.1-5.3,8.2-7.9,12.3c-0.6,3.6,1.8,1.7,2.7,1.3c2.2-1,4-2.9,6.4-3.6
				C96.3,68.8,96.8,64.8,100,63.4z"/>
			<path class="st27" d="M120.8,35.3c3,0.7,4.7-2,7.1-3c3-1.3,5.6-1.8,8,1c1.7,1,3.3,2,5,3.1c3.6-0.9,6.6-2.5,8.1-6.1
				c-0.4-0.3-1-0.9-1.1-0.8c-5.1,4-8.2,1-11.2-3c-1.7-2.2-4-2.8-6.6-1.2C126.8,28.5,122.7,30.9,120.8,35.3z"/>
			<path class="st28" d="M113.1,139.4c-2.3,1.4-4,1.4-5.8-1c-3.9-5.3-6.8-4.5-9.5,2.1c1.8,2.7,3.6,5.2,7.2,2.1
				c1.9-1.7,2.7,0.3,3.8,1.5c1.7,1.9,2,5,5.2,5.4c2.5-0.9,2.8-4.6,5.9-4.8C118.2,142.2,113.2,143.9,113.1,139.4z"/>
			<path class="st29" d="M291.2,161.4c-1.6-0.8-3.4-1.3-5.2-1.2c-2.2,0.1-3.9,0.7-4.2,3.2c2.9,2.5,2.8,6.6,5.1,9.4
				c3.7,1.6,5.7,4,4.3,8.3c-0.3,1.1-0.1,2.3,0.6,3.2c0.5,0.3,0.9,0.2,1.2-0.2C294.3,176.4,295.3,168.7,291.2,161.4z"/>
			<path class="st30" d="M79,92.2c1.2-3,3.5-4.7,6.4-5.7c2.2-2.8,2.9-5.8,1-9.1c-2.4-0.9-3.3,1.2-4.7,2.3c-1.3,1.1-1.8,3.1-3.7,3.6
				c-3.4,3.6-3.5,8.3-4.3,12.7c-0.2,0.9,0.4,1.9,1.5,2.3C77,96.6,78.5,94.7,79,92.2z"/>
			<path class="st31" d="M204.1,185.3c-0.7-0.4-1.3-0.7-2-1.1c-1.6,10.9-6,20.3-15.2,26.9c6.4,0.4,8.6-4.8,11.5-8.7
				c3.5-4.8,4.3-10.6,5.7-16.2c0.3-0.2,0.4-0.4,0.3-0.6C204.3,185.4,204.2,185.3,204.1,185.3z"/>
			<path class="st32" d="M190.2,233.6c-4.2-1.7-7-5.1-9.4-8.5c-3-4.3,1-7.9,2.2-11.8c-4.9,2.4-7.6,8.5-6.1,14.3
				c0.8,0.4,0.3-2,1.1-0.7c2.2,3.8,5,6.9,8.6,9.4c0.9,0.6,1.8,0.3,2.6-0.3C189.9,235.4,190.4,234.6,190.2,233.6z"/>
			<path class="st33" d="M136.1,20.3c7.7,0.8,15.3,2.5,23,0.7c0.4-0.4,0.7-0.9,1.1-1.3c0.4-1,0-1.8-0.9-1.7
				C151.5,18.4,143.5,16.7,136.1,20.3z"/>
			<path class="st34" d="M293.1,184.2c-0.3,0.1-0.6,0.2-0.9,0.3c-1.7,1.2-1.8,3.2-2.4,5c-0.8,5-3.3,2.9-5.6,1.4
				c-2.2,0.4-3,2.1-3.4,4c0,1,0.5,1.8,1.3,2.4c1.9,0.7,2.1,2.8,3.6,4.4c1.8-2,2.4-4.9,4.8-6.3C291.8,191.8,293.1,188.1,293.1,184.2z
				"/>
			<path class="st35" d="M179.2,253.9c1-0.4,1.5-1.9,2.9-1.5c0.5-0.8-0.1-2.1,1.1-2.7c0.5-0.4,0.9-0.8,1-1.4
				c-1.3-1.8-3.6-1.5-5.2-2.7c-4.2-3-6.7-6.9-5.9-12.3c-2.1,5.4-0.8,10.2,3,14.4C177.7,249.5,179.1,251.3,179.2,253.9z"/>
			<path class="st36" d="M77.9,83.3c2.6,1.2,2.7-1.8,4.2-2.6c1.5-0.8,2.2-2.7,4-3.3c1.5,0.5,2-0.6,2.6-1.6c1.3-2.3,4.5-3.2,4.5-6.4
				c-2.5,0-4,1.6-5.9,2.9c-0.7,0.5-1.9,3-3.2,0.3C80.8,75.4,80,79.8,77.9,83.3z"/>
			<path class="st37" d="M187.3,236.5c-3-4.2-7.4-7.3-9.9-12.7c-0.2,1.7-0.4,2.8-0.5,3.8c-0.1,0.3-0.2,0.6-0.2,1
				c1.4,3.3,3.8,5.9,6.3,8.6c1.5,1.6,2.7,1.4,4.1,0.2c0.2-0.2,0.3-0.4,0.3-0.6C187.4,236.6,187.3,236.5,187.3,236.5z"/>
			<path class="st38" d="M79,92.2c-1.4,2-4.4,2.9-3.8,6.1c1.3,1.4,2.5,2.7,3.8,4.1c1.3,0.6,2.1,3.3,4.1,1c-1.5-1.7-2.9-3.5-4.4-5.3
				c1.6-1.8,2.5,0.7,3.9,0.5C83.1,95.5,78.7,95.1,79,92.2z"/>
			<path class="st39" d="M255,100.7c1.7,1.5,4.7,1.6,5.1,4.6c1.8-1.6,2.6-3.7,3.1-6c-0.3-1.9-3.3-0.7-3.3-2.9
				C257,96.5,255.6,98.2,255,100.7z"/>
			<path class="st40" d="M92.1,60.3c5-3.1,9.9-6.1,14.9-9.2c0.2-0.9,0-1.4-1-1c-1.8,0.7-3.3,2.3-5.5,2.2
				C97.2,54.6,93.4,56.1,92.1,60.3z"/>
			<path class="st41" d="M208.1,28.1c-1.5-1.9-4.4-0.9-6-2.9c-1.3-2.1-4.1-0.7-5.5-2.5c0,0,0.1-0.3,0.1-0.3c-2.3,2.2-0.1,3.3,1,4.8
				C201.1,28.6,204.3,31.1,208.1,28.1z"/>
			<path class="st42" d="M119.9,144.5c-4.6-1.6-5.3,1.5-5.9,4.8c3.2-0.3,6.1-1.3,8-4.1C121.3,145.1,120.4,145.6,119.9,144.5z"/>
			<path class="st43" d="M167.9,295.4c-0.6-0.7-1.2-1.4-1.8-2.1c0,1.6,0,3.3,0.1,4.9c2.4,2,3.4,5.3,6.7,6.3
				C173.8,300.1,170.3,298,167.9,295.4z"/>
			<path class="st44" d="M256,144.3c1.3,1.3,1.9,0.6,2.1-0.8c0.2-1.2-0.1-2.6,1.2-3.3c-1-2.4-2-4.8-3.1-7.1c0,1.6-1.3,2.2-2.3,3.1
				c0.1,0.2,0.1,0.4,0.2,0.6C255.9,139,255.9,141.7,256,144.3z"/>
			<path class="st45" d="M102.1,124.3c1.7,2.1,2.5,4.9,5.8,5.4c1,0.2,1.3,1.4,1.1,2.4c-0.4,3.1,1.3,4.5,4.1,5.1c0.3-2.6-0.5-4.9-2-7
				c-0.3-0.7-0.7-1.3-1-2c-2-1.4-3.5-3.3-5.1-5.1C103.9,123.5,102.7,123.1,102.1,124.3z"/>
			<path class="st46" d="M88,75.3c-0.6,0.7-1.3,1.4-1.9,2.1c1,3.1-0.9,6-0.7,9.1c4.6-2,4.6-5.8,3.9-9.9C89.5,75.5,89,75.1,88,75.3z"
				/>
			<path class="st47" d="M88,75.3c0.4,0.4,0.8,0.9,1.2,1.3c4.6-3.6,7.9-8.2,10.8-13.2c-4.2-0.2-4.1,4.5-6.8,6
				C92.1,71.9,88.8,72.5,88,75.3z"/>
			<path class="st48" d="M111.1,130.3c-1.1,2.8,0.9,4.8,2,7c0,0.5,0.1,0.9,0.1,1.4c2.9-2.4,4.8-4.6,1.2-8.2
				C112.9,129,112.2,130.2,111.1,130.3z"/>
			<path class="st49" d="M104.9,123.2c0.3,3.1,1.2,5.7,5.1,5.1C110.4,125,107.7,122.3,104.9,123.2z"/>
			<path class="st50" d="M93.3,81.8c1.4,1.5,2.4-0.5,3.4,0.1c1,0.6,1.8,2.5,3.1,0.6c0.5-0.8-0.2-1.6-0.6-2.2
				c-0.9-1.4-2.1-1.5-3.5-0.8C94.7,80,93.5,80.3,93.3,81.8z"/>
			<path class="st51" d="M105.9,50.2c0.3,0.3,0.7,0.7,1,1c1.1-0.2,2.1-0.5,3.2-0.7c1-0.7,2-1.4,3-2.1c0.1-0.3,0.1-0.7,0.2-1
				C109.9,46,108.4,49.3,105.9,50.2z"/>
			<path class="st52" d="M106.2,55.4c-3.3,0.3-4.6,2.5-5.1,5.4C104,60.1,104.4,57.2,106.2,55.4z"/>
			<path class="st53" d="M168,103.3c3.3-3,6.5-5.9,9.8-8.9c0.2,0.2,0.4,0.3,0.6,0.5c-1.8,2.1-3.6,4.2-6,7c3.7-0.9,4.5-4.6,8-4.6
				c-0.5,2.5-2.9,3.2-4,5.5c2.7-0.3,5.2,2.7,7.6-0.6c0-0.7,0-1.4,0-2c0.4-0.7,0.9-1.5,0.7-2.3c-2.5-8.1-4.6-16.3-10-23.1
				c-4.3-1.2-6-5-8.3-8.1c-2.8-3.8-4.6-8.4-9.4-10.3c-1.1,0.5-1.9,1.3-2,2.6c-0.2,3.7-1.6,7-3.8,10c-1.7,2.2-1.1,4.3,0.3,6.4
				c1.4,2.1,2.9,1,4.7,0.5c3.4-0.8,6.9-1.4,9.8,1.4c-0.1,0.7,0.1,1.3,0.3,1.9c0.4,0.9,1,1.8,0.9,2.9c-1.5,4-3.2,7.6-7.8,9.2
				c-1.6,0.5-3.5,2-4,4.1c1.1,2.6,1.3,5.9,4.8,6.6c1.4-0.1,2.4-0.8,3.5-1.5c1-0.6,1.4-0.1,1.7,0.8C166,102.4,167,102.9,168,103.3z"
				/>
			<path class="st54" d="M134.1,58.3c-0.4,1-1.1,1.9-0.3,3.2c4.7,7.1,6.8,15.7,13.2,21.8c0.7-0.6,0.7-1.3,0.1-2
				c-5-5.9-3.4-11.2,0.8-16.8c1.9-2.5-0.9-12.8-3.3-14.6c-0.9-0.6-1.5-0.1-2.1,0.5c-1.1,0.9-2.3,1.9-3.4,2.8
				C135.6,53.2,134.9,55.9,134.1,58.3z"/>
			<path class="st54" d="M167.1,78.3c-0.3-0.3-0.6-0.7-1-1c-3.2-0.4-5.7,0.6-7.7,3.2c-1.8,2.4-4.6,3.5-7.2,4.9
				c-1.6,3.1,1.3,4.4,2.5,6.4c1.4,0.8-0.4,3.7,2.3,3.7c3.2-1.8,5.3-5.6,9.6-5.2c0.7,0.1,1.4-0.8,1.2-1.3c-2-3.4,2.3-4.8,2.3-7.5
				c-1.1-0.7-2.8,0.8-3.5-0.5C164.9,79.7,166.6,79.2,167.1,78.3z"/>
			<path class="st55" d="M157.1,56.3c4.6,4.8,8,10.5,11.8,15.9c1.3,1.9,2.7,3.4,5.2,3.1c1.4-2.3-0.7-3.6-1.5-5.3
				c-3-6.2-7.9-11.3-10.6-17.7c-2.6-1.1-5.2-2.1-7.8-3.2c0.4,0.6,0.8,1.4,1.3,1.9c1.1,1.1,4.6,1.9,0.1,3.3
				C155,54.5,156.9,55.4,157.1,56.3z"/>
			<path class="st0" d="M126,52.2c0.9,1.5,1.3,3.4,3.2,4.2c4.4-0.5,7.5-2.7,8.9-7c-0.4-0.4-0.7-0.7-1.1-1.1c-2-0.6-2.8,1.2-4.1,1.8
				c1.1-1.8,4.2-2,4.2-4.9c-0.4-0.3-0.8-0.6-1.2-1C131.6,45.7,127.9,47.8,126,52.2z"/>
			<path class="st56" d="M133.8,33.4c-5.3,4-10.6,8-15.8,11.9c0.9,1.6,2,0.5,3.1,0.4c2.3-0.2,4-1.2,4.7-3.5
				C128.4,39.2,132.1,37.2,133.8,33.4z"/>
			<path class="st57" d="M122,47.3c-0.3,1-2.2,1.1-1.1,3.7c5.6-4.9,11.8-8.6,15.8-14.8c-3.7,1.8-6,5.4-9.6,7.2
				C124.9,44.1,122.8,44.9,122,47.3z"/>
			<path class="st58" d="M138.1,49.4c-2.6,2.8-5.6,5.1-8.9,7c-0.2,0.7-1.2,1.5-0.1,2c1.2,0.6,1.9-0.9,3-1.1c2.6-0.9,4.4-2.8,6-5
				c1.1-2.3,4.5-2.5,5-5.8C140.5,46.3,140,49.1,138.1,49.4z"/>
			<path class="st59" d="M126,52.2c2.9-3.2,6.3-5.7,9.9-8c0.7-0.9,1.3-1.7,2-2.6c-0.2-0.3-0.5-0.6-0.7-0.9c-4.5,3.5-9,7.1-13.5,10.6
				c-0.6,0.5-0.5,1.4,0.2,1.5C124.5,53,125.2,52.5,126,52.2z"/>
			<path class="st60" d="M137,45.2c-2.6,2.3-5.3,4.7-8.9,8c4.6-0.6,6.2-3.8,8.9-4.9c2.1-2.2,4.1-4.4,6.2-6.6
				c-0.2-0.2-0.4-0.5-0.6-0.7C140.8,42.4,138.9,43.8,137,45.2z"/>
			<path class="st61" d="M156,95.4c-2-1,1.1-3.1-0.8-4.1c-1,0.3-2.1-0.6-3.1,0.1c1.5,4.7,4.5,8.7,6.9,13c0.4,0.3,0.8,0.6,1.2,0.9
				c0.9-1.2,1.8-2.4,0.7-4C157.3,100.9,157.7,97.3,156,95.4z"/>
			<path class="st62" d="M152.1,91.3c1.1,0.5,2.1,1.8,3.1-0.1c-2.2-1.4-3.8-3.2-4-5.9c-1.4-1.3-2.8-2.6-4.1-3.9c0,0.7-0.1,1.3-0.1,2
				C148.7,86,150.4,88.7,152.1,91.3z"/>
			<path class="st63" d="M149.1,30.3c-2.7,2-5.4,4.1-8.1,6.1c0.4,0.3,0.8,0.7,1.2,1c2.9-1.3,5.4-3.2,7.9-5.2
				C150,31.4,149.9,30.7,149.1,30.3z"/>
			<path class="st0" d="M138.1,52.3c-2.2,1.4-4.4,2.9-6,5c0.4,0.8,1.2,1,2,1c2.3-1.1,2.5-4.2,5-5C138.7,53,138.4,52.7,138.1,52.3z"
				/>
			<path class="st0" d="M122,47.3c1.9-1.1,3.7-2.2,5.1-4c-0.4-0.4-0.8-0.8-1.2-1.1c-1.6,1.2-3.2,2.3-4.7,3.5
				C121.4,46.2,121.7,46.8,122,47.3z"/>
			<path class="st64" d="M248.2,250.5c-6.8-11,0.4-19,5.7-27.4c2.4-3.8,5.1-7.3,6.2-11.8c-5-7.1-5.8-7.2-13.4-3c-2.4,3-6.1,4.9-7,9
				c6.1,6.8,6.1,8.3,0.3,16c-0.7,0.9-1.4,1.9-1.3,3.1c1,4.5-1.5,8.8-1,13.3c0.2,1.6-0.6,3.3,0.4,4.9c3.4,1,6-1.5,9-2.3
				C247.7,251.9,248.2,251.4,248.2,250.5z"/>
			<path class="st65" d="M285,259.3c-1.3,0.1-2.5,0.1-3.8,0.2c-0.4,0.4-0.6,0.9-0.4,1.4c0.5,1.4-0.1,2.6-0.5,3.8
				c-3.8,11.6-1.4,23,1.3,34.4c1.6,1.2,3.3,0.4,4.9,0c0.5-0.3,1-0.6,1.3-1.1c0.3-6.1,0.7-12.1,0.7-18.2c0-5.8-0.2-11.6,0.2-17.4
				C288.9,259.7,288.1,258,285,259.3z"/>
			<path class="st66" d="M285,259.3c1.2,0.2,2.9-0.4,2.6,1.9c-1.2,8.2,0.3,16.6-0.7,24.7c-0.5,4.3,0.5,8.3,0.2,12.4
				c4.8,0.1,7.8-3.2,8.7-9.5c0.1-8.9-2.9-17.5-2.3-26.5c0.1-1.8,0.8-4.5-2.4-5C288.9,257.5,286.7,257.8,285,259.3z"/>
			<path class="st67" d="M247.1,209.3c5.2-4.8,9.1-1.5,13,2c0.7-0.7,1.3-1.4,2-2.1c1.5-5.2,4.9-9.6,5.9-15
				c-4.6-5.2-7.4-5.2-13.6,0.2c-2.9,3.8-4.6,8.3-7.4,12.2C246.4,207.4,246.2,208.4,247.1,209.3z"/>
			<path class="st68" d="M291,257.3c0.9,0.7,1.2,1.6,1,2.6c-1.5,9.1,2.8,17.9,1.6,27c-0.1,1,0.5,1.9,1.4,2.5c2.2,0,2.9-1,2.1-3
				c1.9-11-0.1-22.2,1.9-33.1c-2.9-0.4-4.9,1.3-7,3C291.7,256.5,291.4,256.9,291,257.3z"/>
			<path class="st69" d="M272,257.3c0.1-1.2,2.8-0.6,1.9-2c-2.1-3.1-0.8-6.7-1.8-9.9c-1.8-0.9-3.9-0.4-5.8-0.9
				c-2.9-0.4-3.1,2.2-4.3,3.8c3.1,2.5,1.8,7.5,5.3,9.8C269,258.6,270.6,258.7,272,257.3z"/>
			<path class="st70" d="M260.2,248.1c0.4-1.4,1.4-3.4-1.6-2.1c-2.3,1-4.4,2.2-6.6,3.3c-0.5,2,0.6,3.8,0.7,5.8
				c0.2,3.2,2,4.6,5.1,4.6c1.4,0,2.8,0,4.1-0.9C262.7,255,264.8,251,260.2,248.1z"/>
			<path class="st71" d="M292,256.1c2.7-0.2,4.7-1.9,7-3c2.8-2.2,5.4-4.5,7-7.8c1.3-1.6,1.5-3.3,0.2-5c-0.5-1.3,0.1-3-1.1-4.1
				c1.5,8.8-5.5,10.8-11.1,13.9c-0.3,1.7-3.3,0.8-2.9,3.1C292.2,254,292,255.1,292,256.1z"/>
			<path class="st72" d="M262,258.2c-1.3,0.1-2.5,0.2-3.8,0.3c-0.4,0.6-0.3,1,0.2,1.4c4.8,1.5,9.5,3.3,14.7,2.9
				c2.8-0.3,6,0.9,7.8-2.5c0.1-0.3,0.2-0.6,0.2-0.9c-3.3,0.3-5.8-3.1-9.2-2.2c-1.6,0.1-3.2,0.1-4.9,0.2
				C265.3,257,263.6,256.9,262,258.2z"/>
			<path class="st73" d="M257.8,259.2c0.1-0.2,0.2-0.5,0.4-0.7c-3.1,0.2-4.7-1.1-4.2-4.4c0.3-2-0.6-3.5-2-4.8
				c-1.3,0.4-2.6,0.8-3.9,1.2c-0.3,0.3-0.7,0.6-1,0.9c1.5,3,0.1,7.7,4.8,8.9C254.1,260.6,256.2,261.1,257.8,259.2z"/>
			<path class="st74" d="M262,258.2c1.8,0.1,3.6,0.6,5.2-0.7c-1.2-1.7-0.9-3.8-1.4-5.7c-0.5-1.9-1-3.9-3.7-3.6
				c-0.6,0-1.2-0.1-1.8-0.1C263.6,251,259.6,255.1,262,258.2z"/>
			<path class="st75" d="M273.9,239.2c3.6-0.7,1.5-3.8,2-6.1c-3.2,2.9-8.1,2.5-11,6c0.7,2,2.1,1.6,3.6,1.2
				C270.4,239.9,272,238.9,273.9,239.2z"/>
			<path class="st76" d="M273.9,239.2c-1.3-1.7-2.6-0.4-3.9,0c-1.7,0.4-3.3,1.4-5,0c-1.1,0.8-2.8,0.9-3.6,2.9
				C266.1,242.6,270,241.1,273.9,239.2z"/>
			<path class="st77" d="M266.3,244.5c1.6,2.2,3.7,2,5.8,0.9c0.8-0.5,1.9-1.1,1.6-2.2c-0.3-1.2-1.6-0.8-2.5-0.8
				C269.3,242.5,267.8,243.5,266.3,244.5z"/>
			<path class="st78" d="M291.1,253.3c0.5-1.5,3.3-0.9,2.9-3.1c-3.7,1.3-7.4,2.5-11.2,3.8C285.7,253.9,288.5,255,291.1,253.3z"/>
			<path class="st79" d="M162.1,52.3c-1.1,2.8,0.6,4.7,2.1,6.6c4,5.1,6.8,10.8,9.9,16.4c4.7,7.8,7.8,16.2,10,25
				c4.9-1.9,1.9-6.8,3.8-9.9c2.3-1.3,3-3.1,2.1-5.6c-1.7-2.8-2.3-5.8-1.3-9c0.4-1.4,0.6-2.9-0.4-4.3c-4.2-0.3-2.6-4.3-4-6.3
				c-0.4-1.2-1-2.2-2.3-2.6C175.8,58.3,169.5,54.1,162.1,52.3z"/>
			<path class="st80" d="M187.5,28.5c-3.3,0.5-6.1,4-10.1,1.4c-1-0.7-2.4,0-1.7-2c0.5-1.2,0.4-2.5-1-2.9c-1.1-0.3-1.7,0.9-2.4,1.5
				c-1.4,1.3-2.6,2.6-2.4,4.7c0.5,0.6,1.6,0.3,2,1.1c1.9,6.5,7.2,5.5,12.1,5.4c1.9-0.7,3-2.2,3.9-4
				C188.4,31.9,189.5,30.1,187.5,28.5z"/>
			<path class="st81" d="M182.1,62.5c0.5,1,0.9,1.9,1.4,2.9c0.5,0.5,1.2,0.7,1.8,0.2c5-4.1,10.9-7.1,15.2-12c0.5-1.6,0-2.9-1-4.1
				c-1.1-0.8-1.7-0.2-2.3,0.7C191.5,53.4,186.8,57.9,182.1,62.5z"/>
			<path class="st82" d="M187.5,28.5c0.8,2-0.3,3.7-0.9,5.4c0.4,0.2,0.8,0.2,1.2,0c1.4-0.9,2.6-2.1,4.4-2c0.9-0.2,1.7-0.6,2.5-1.1
				c1.6-1.3,4-2,3.5-4.8c-0.9-1.1-1.8-2.2-1.5-3.7C191.9,21.9,189.8,25.3,187.5,28.5z"/>
			<path class="st83" d="M184.1,37.3c-0.8-0.1-0.9-1.1-2.3-0.8c-5.8,1.1-7.4-0.2-8.8-6.1c-4.1,2.3-0.3,5.5-0.9,8.1
				c3.7,1.2,7.5,2.4,11.2,3.6C184.4,40.6,184.8,39,184.1,37.3z"/>
			<path class="st84" d="M194.1,30.1c-0.7,0.4-1.4,0.9-2,1.3c-4,3-4.9,7.2-4.9,11.8c0.7,1.1,1.8,0.9,2.9,0.7
				c2.5-0.9,1.7-3.4,2.6-5.1c0.4-0.8,0.9-1.5,1.5-2.2c1.1-1.4,1.9-2.8,1.7-4.6C195.7,31,195.5,30.1,194.1,30.1z"/>
			<path class="st85" d="M172,38.4c1.7-0.3,2.2-1.1,1.1-2.7c-1.2-1.7-1.4-3.6-0.2-5.5c-1.7-2.3-1.7,1.3-2.9,0.9
				c-0.7,0.7-1.3,1.5-2,2.2c-0.9,0.9-2.7,1.1-2.1,3C167.5,38.2,169.8,38.2,172,38.4z"/>
			<path class="st86" d="M193.1,36.4c-1.1,0.2-1,1.1-1.2,1.8c-0.3,2.8,1,5.2,2,7.7c2.1,0.6,3.5,1.8,3.4,4.2c0.5-0.3,1.1-0.6,1.6-0.9
				c1.6-1.1,1.4-2.7,1.2-4.3C198.5,41.5,196.3,38.6,193.1,36.4z"/>
			<path class="st87" d="M187.2,43.3c1.9-3.8,2.5-8.2,4.9-11.8c-2.4-2-3,0.2-4,1.7c-1.3,3.1-3.3,5.9-4.1,9.3
				C184.8,43.6,186.1,43.2,187.2,43.3z"/>
			<path class="st88" d="M184,42.4c3.2-2.3,4.1-5.6,4.1-9.3c-0.5,0.3-1,0.5-1.4,0.8c-0.9,1.1-1.7,2.2-2.6,3.3
				c-0.6,1.5-1.5,3-0.9,4.8C183.5,42.1,183.8,42.2,184,42.4z"/>
			<path class="st89" d="M193.9,45.9c0.9-3-0.7-5.3-2-7.7c-1.6,1.6-0.4,4.1-1.7,5.8C191.2,45,192.4,45.8,193.9,45.9z"/>
			<path class="st90" d="M166,36.3c0.7-1,1.4-2,2.1-3c-2.6-0.2-4.1,1.4-5.6,3.1C163.9,38.2,164.9,36.5,166,36.3z"/>
			<path class="st91" d="M281,260.3c-2.5,1.4-5.2,0.7-7.9,1.1c-22.5,1.5-45.1,3.1-67.4-2c-3.4-0.5-6.6-2.3-10.2-2
				c-3.2,1-3,3.8-2.9,6.2c0.3,7.7-1,15.3-1.1,22.9c0,2.7-1.2,5.2-1.9,7.7c0.3,3.2,3,4.1,5.3,5.1c2.7,1.2,5.5,2.2,8.2,3.1
				c0.5,0.2,1.2,0.2,1.3,0.5c0.8,2.8-2.4,4.3-2.4,7.1c0,1.3-2.2,0.6-3.4,0.2c-5.8-1-10.9-4.4-16.9-4.5c-1.5,0.9-1.7,2-0.6,3.4
				c24,11.7,49.7,13.4,75.8,11.7c12.8-0.8,25.4-3.1,37.1-8.6c0.6-1.3,0-2.3-1-3.2c-2.4-0.5-4.4,0.9-6.6,1.2c3.4-2.2,6.5-5,10.8-4.7
				c5.8,0.4,9.4-2.5,11.9-7.3c0.3-0.7,0.6-1.4,0.9-2.1c0.7-2.6-0.6-4.7-1.8-6.8c-3.2-2.7-6.7-4.3-11-3.2c-0.2,1.3-0.8,2.4-2.1,3
				c-2,3.6-3.3,7.9-8.1,9c-0.3,0-0.5,0-0.8-0.1c-2.7,1.5-5.1,3.6-8.4,4.3c1.4-1.3,3.8-1.1,4.2-3.4c-0.9-8.5-1.9-17-2.6-25.5
				c-0.3-3.3,1.1-6.4,2.6-9.4C282.8,262.8,284.2,260.9,281,260.3z"/>
			<path class="st92" d="M293,309.5c0.3,0.9,0.7,1.8,1,2.7c5.4-0.9,8.9-5,13.1-7.8c0.7-1,1.3-2,2-3c0-1,0-2,0-3
				c-4,3.7-7.8,7-14.1,6.2c-3.8-0.5-6.4,4.5-10.8,4.2c-0.1,0-0.8,2.3-0.4,3c0.6,1.1,1.7,0.5,2.3-0.5c3.4-1.5,6.7-3.4,10.4-4.6
				C295.1,307.5,293.3,307.6,293,309.5z"/>
			<path class="st93" d="M181.1,309.2c0-1.1-0.1-2.3,1.1-2.9c0-2.1-1.8-2.4-3.1-3.2c-1.1-0.7-1.2-1.3-0.4-2.2c0.5-1.4,0.5-2.8,0-4.1
				c-0.4-0.7-0.9-1.2-1.7-1.3c-3,1.5-6.1,1.3-9.1,0.1c1.7,3,3.3,6.1,5,9.1C175.4,306.5,177.7,308.7,181.1,309.2z"/>
			<path class="st94" d="M306.2,240.4c-0.1,1.7-0.1,3.3-0.2,5c0.4,0,0.7,0,1.1,0c3.3,0.3,5.3-2.4,9.4-3.8
				C312.1,241.4,309.3,239.9,306.2,240.4z"/>
			<path class="st95" d="M308.2,289.5c-0.8,2.6,0.8,4.6,1.8,6.8c1.8-1.7,0.9-3.8,1.2-5.8C310.3,289.9,309.7,288.1,308.2,289.5z"/>
			<path class="st96" d="M247.1,209.3c2.7-4.7,5.3-9.3,8-14c1.8-2.6,3.7-5.1,4.7-8.2c1.1-3.7,3.2-5.2,7.1-3.6
				c1.7,0.7,3.5,1.3,5.1-0.3c0.4-1,0.8-1.9,1.2-2.9c0.5-0.7,0.5-1.4,0.1-2.1c-4-1.3-8.1-2.4-12.3-2.4c-2.7,1.1-3,3.8-3.8,6
				c-4.5,11.2-9.7,22.1-17.8,31.3c-1.4,3.2-4.3,2.3-6.8,2.4c-2.6,0.9-5.2,1.6-7.4,3.4c-2.6,4.4-2.3,4.9,3.2,5.6
				c0.8,0,1.5-0.2,2.3-0.4c1.6-0.6,3.1-1.4,4.5-2.2c1.7-1.5,4.2-2.2,4.9-4.7C242.4,214.7,244.7,212,247.1,209.3z"/>
			<path class="st97" d="M273.1,178.3c0,0.7,0,1.4,0.1,2.1c0,0,0.4,0,0.4,0l0.4,0c0.8-0.1,1.3-0.5,1.8-1.1c1.7-3.3,2.8-6.8,3.8-10.4
				c-0.2-1.5,0.7-3.1-0.5-4.5c-7.1-5.5-14.5-10-23.7-11.2c-2.4-0.3-5-0.4-6.4-3.1c-1.1-0.4-1.9,0.2-2.7,0.9c-0.7,0.8-1,1.7-0.8,2.8
				c1.4,3.4,4.4,4.8,7.6,4.5c8.6-0.9,14.1,5.4,21.2,8.2c1.6,0.6,1.3,2.1,0.9,3.4C274.8,172.9,272.6,175.2,273.1,178.3z"/>
			<path class="st98" d="M271.9,183.3c-1.3-0.2-2.7-0.1-3.9-0.5c-7-2.4-7.2-2.3-9.8,4.3c-1.1,2.8-2.2,5.5-3.2,8.3
				c3.9-4.8,8.3-4.4,12.9-1.1C269.6,190.7,271.2,187.2,271.9,183.3z"/>
			<path class="st99" d="M274.2,185.5c-2.8,3.5-2.6,7.7-3.2,11.8c-0.3,0.5-0.3,0.9,0.1,1.4c0.4,0.3,0.9,0.5,1.4,0.5
				c2.8-0.3,5.6-0.7,7.1-3.5c0.5-2.8,1.7-5.3,2.7-8c0.7-2,1.4-4.1,0.1-6.2C278.7,180.8,276.5,183.3,274.2,185.5z"/>
			<path class="st100" d="M271.2,198.1c0.1-0.3,0-0.6-0.2-0.9c-0.8,0.7-0.9,1.7-0.9,2.7c0.1,2.2-0.7,4.9,1.6,6.4
				c2.4,1.5,2.7-2.4,5.2-2.1c0.4,2.2,0,4.5-0.4,6.9c-0.4,2.2,0.3,4,2.8,1.4c0.4-2-0.2-4,0.4-5.9c1.2-1.4,4.3,3.4,4.5-1.3
				c-0.4-2.7-3.9-4.7-2.1-8c-0.1-0.7-0.3-1.4-0.4-2.1c-0.5-0.2-0.9-0.1-1.3,0.2c-1.3,2.6-4.1,3.4-6.4,4.7c-0.3,0.7,0.4,1.6-0.6,2.5
				C272.1,201.4,272.4,199.3,271.2,198.1z"/>
			<path class="st101" d="M284.1,205.3c-0.7,1.6-1.5,2.3-2.5,0.1c-0.4-0.8-0.7-2.1-2-1.7c-1.3,0.4-1.6,1.6-1.5,2.8
				c0.1,2-0.9,4.3,1.1,6c3.6-1.8,5.2-5.1,7-8.6C284.8,203.9,284.5,204.7,284.1,205.3z"/>
			<path class="st102" d="M274.2,185.5c2.9-0.8,5.4-2.6,7.9-4.1c2.6-0.1,3-1.7,2.4-3.8c-3.5-2.6-5.8,0.4-8,2.1
				c-1.6,1.3-0.9-0.7-1.5-0.6c-0.4,0.4-0.7,0.9-1.1,1.3C274,182.1,274.1,183.8,274.2,185.5z"/>
			<path class="st103" d="M209.1,188.3c0.1,1.2,0.2,2.4,0.3,3.6c1.5,0.5,2.6-0.1,3.5-1.4c0.5-1.7,0.8-3.4,1.3-5.1
				c0.8-5,0.2-9.9-0.6-14.8c0.5-6.9-1.4-13.5-3-20.1c-1.4-5.6,0.6-9.7,5.1-12.2c6.9-3.8,7.6-10.1,7.2-16.6
				c-0.3-5.6-1.5-11.1-2.7-16.6c-1.2-3.4-4.7-5-6.4-8.1c-3.3-2.7-5.1-6.7-8.6-9.2c-2.2-0.6-3.8-2.4-6.2-2.7c-3.3,2.9-6,6.2-7.9,10.2
				c3.8,9,6.4,18.4,9.3,27.6c0.5,1.5,0.6,2.9,0.7,4.4c0.1,4.3,1.2,8.5,2.1,12.7C206.9,155.9,211.3,171.7,209.1,188.3z"/>
			<path class="st104" d="M209.1,188.3c2.8-0.5,1.9-2.7,2-4.4c0.3-7.8-0.4-15.5-1.9-23.2c-2.2-11.3-4.3-22.6-8.1-33.5
				c-1.6,6-1.1,12.3-2.9,18.3c-0.5,1.5-0.2,3.2-1.1,4.7c1.9,2.5,1.1,5.7,1.7,8.5c1.2,5.2,2.8,10.1,5.9,14.5
				c4.3,6.3,4.2,6.3-0.6,11.9c0,0.3,0,0.6,0,0.9C205.8,186.9,207.4,187.6,209.1,188.3z"/>
			<path class="st105" d="M191.1,95.3c2.9-3,6-5.9,8-9.8c-0.5-2-2-2.1-3.5-1.5c-1.8,0.7-3.6,0.2-5.4,0.4c-0.5,0.1-0.9,0.4-1.2,0.7
				c1.2,2.1-0.9,3.4-1.1,5.2c0.1,1.3,0.3,2.6,0.2,3.9C187.8,98.2,189.7,95.9,191.1,95.3z"/>
			<path class="st106" d="M255,100.7c1.6-1.4,3.2-2.9,4.8-4.3c0.7-2.4,1.5-4.7,2.2-7.1c3-6.9,3.6-13.8,0.1-20.8
				c-1.4-1.8-2.6-4.3-5.1-1.2c-1,3-2,6-3.1,9c0,1,0.1,2,0.1,3c0.4,2.5,2.1,4.2,3.7,6.3c-2.5,0-2.1-3.5-4.6-3.1
				c-1.4,5.1-1.2,10.4-0.9,15.6C252.4,99.5,252,102.2,255,100.7z"/>
			<path class="st107" d="M261.1,68.3c3,6.9,1.8,13.9,0.9,21c5.3-7,5.7-14.8,4.1-23C263,63.4,262.3,66.3,261.1,68.3z"/>
			<path class="st108" d="M243.1,79.3c1.7,0.2,3.4-0.1,4.9-1c5.6-4.7,5.6-6.2-0.2-10.9c-1.1-0.9-2-2.1-3-3.2
				c-0.5-0.2-0.9-0.1-1.3,0.2c-0.8,0.6-1.1,1.5-1.2,2.5C243.8,70.9,245.5,75,243.1,79.3z"/>
			<path class="st109" d="M261.1,68.3c1.7-0.5,2.4-3.6,5-2c0.1-2.7-0.8-5.5-3.5-5.5c-3.5,0.1-4.4,3.6-5.5,6.5
				C258.9,65.5,259.9,67.3,261.1,68.3z"/>
			<path class="st110" d="M245.2,49.1c-0.8,1.6,0.3,3.7-1.1,5.2c-2.2,1.8-4.2,3.7-4.4,6.8c0.4,1.3,1.4,1.9,2.7,1.9
				c0.5-0.1,0.9-0.2,1.3-0.5c2-1.5,2.4-3.8,3.2-5.9C248.2,53.7,248.8,50.9,245.2,49.1z"/>
			<path class="st111" d="M246.9,56.6c-1.3,1.8-2.7,3.7-4,5.5c0,0.9,0.3,1.7,1.2,2.1c0.2,0,0.4-0.1,0.7-0.1
				C245.5,61.7,247.1,59.4,246.9,56.6z"/>
			<path class="st112" d="M160.9,101.3c-0.8,1.2-1,2.6-0.7,4c0.3,0.1,0.6,0.1,0.9,0.1c2.9,0.2,4.1-1.8,5-4c0.2-1.2,0.5-2.4,0.8-4
				C164.1,97.9,162.7,99.9,160.9,101.3z"/>
			<path class="st113" d="M166.1,101.3c-1.7,1.3-3.4,2.7-5,4c0,1.4-0.3,2.9,1.9,2.7c1.6-1.7,2.8-3.7,5-4.7
				C167.9,102.1,167.2,101.6,166.1,101.3z"/>
			<path class="st114" d="M163.2,111.1c3.5-0.5,4.7-3.5,7.5-6.4c-4.1,0.7-5.3,3.6-7.4,5C163.2,110.1,163.2,110.6,163.2,111.1z"/>
			<path class="st115" d="M165.9,115.2c2-2.3,4.1-4.6,6.1-6.8c-3.2,0.4-4.6,3.4-7,4.8C164.8,114,164.8,114.8,165.9,115.2z"/>
			<path class="st116" d="M150.8,124.7c0.4,1,0.6,2.3,1.9,2.4c0.9,0.1,1.5-0.8,1.2-1.7c-0.3-1.1-0.9-2.1-2.2-2.1
				C150.9,123.3,150.8,124,150.8,124.7z"/>
			<path class="st117" d="M190.2,233.6c-0.4,0.4-0.8,0.9-1.3,1.3c-0.1,3.2,2.7,3,4,2.4c6.2-3.1,12.1-6.8,15.9-13
				c-2.4-4,0.9-4.8,3.4-6.1c-5-2.6-2.9-6-1-9.3c0.6-1.1,1.4-2.2,1.4-3.6c-0.1-0.5-0.3-0.9-0.6-1.3c-2.6-1.6-5-0.5-7.4,0.5
				c-4.5,2.7-6.8,7.1-8.8,11.8c-0.2,0.4-0.3,0.9-0.2,1.3c3.9,6.2,0.2,10.5-3.6,14.8C191.4,232.8,190.8,233.2,190.2,233.6z"/>
			<path class="st118" d="M204.7,204.4c2.5,1,4.9-0.8,7.4-0.1c3.1,2,6.4,1.7,9.6,0.4c1.5-1.9-0.2-3-1.2-4.1
				c-2.1-2.3-3.9-4.7-5.6-7.3c-0.7-1-1.5-1.9-2.8-2.2c-1.2-1-2-0.4-2.7,0.7C208.2,196.2,207,200.5,204.7,204.4z"/>
			<path class="st119" d="M192,232.4c6.8-3.1,8.6-9.3,4.2-15c-2.7,1.6-1.7,4-1.4,6.2c-0.9,0.6-1.7,1.2-2.6,1.8
				c-3.1,1.4-2.4,3.6-1.2,5.9C191.4,231.7,191.7,232,192,232.4z"/>
			<path class="st120" d="M191.1,231.3c0-2-0.2-4.1,1.2-5.9c-2.1,0.1-4.2-0.5-6.7-1.4C186.8,227.5,188.4,229.8,191.1,231.3z"/>
			<path class="st121" d="M194.8,223.6c1.6-1.8,0-4.4,1.4-6.2c-0.1-0.4-0.2-0.8-0.3-1.2C192.1,219.4,191.7,222.3,194.8,223.6z"/>
			<path class="st122" d="M241,144.3c-3,0.4-2-2.3-2.5-3.5c-1.1-2.7,0-6.1-2.5-8.5c-2-0.6-3.1,0.5-4,2c0.6-2.1,0.7-4.3,3.7-4.9
				c1.3-0.3,2.1-2.4,2.3-3.6c0.7-4,4-6.2,5.9-9.3c1.8-3,1.8-5.2,0.5-8c-4.5-1.7-9.2-2-14-1.9c-1,0.4-1.7,1.2-2.1,2.3
				c0.1,4-2.8,5.9-5.8,7.7c-1.2,2.5,0.3,4.9,0.7,7.2c1.8,10.1,3.4,20.2,6.8,29.9c2.1,3.4,4.9,1.5,7.5,1c2.2-1.8,0.5-3.2-0.6-4.5
				c-1.2-1.4-3-2.4-4.2-4.1c3.8,0.1,6.4,3.8,10.3,2.5C243.7,146.5,242.5,145.3,241,144.3z"/>
			<path class="st123" d="M230.2,107.4c5,0.6,9.9,1.3,14.9,1.9c0.3,0.4,0.6,0.4,0.9,0c0.7,0,1.4,0,2.1,0c1.1,0,2.3,0.2,3.2-0.1
				c2.1-0.8,0.6-1.3-0.2-1.9c-3.9-4.6-8.4-6.6-14.4-4.2c-1.2,0.5-2.6-0.6-3.9-0.6c-2.5-0.1-4.3,0.6-4.2,3.6
				C228.9,106.8,229.4,107.3,230.2,107.4z"/>
			<path class="st124" d="M246,109.4c-0.3,0-0.6,0-0.9,0c-1.3,1.9,1.1,6-3.5,6.1c1.7,4.2-5.2,4.6-4.1,8.9c0.1,0.4-0.4,4.8-4.6,4.3
				c-1.5-0.2-2.1,5.1-2,9c1.9-2.3,2.6-4.7,5.1-5.3c1.4-4.5,5.1-7.5,7.5-11.5C245.6,117.2,247,113.6,246,109.4z"/>
			<path class="st44" d="M251.2,145.4c1-0.7,2-1.3,3-2c0.6-2.4,0.6-4.8-0.1-7.1c0,0-0.1-0.2-0.1-0.2c-6-1.6-6-1.6-5.9,6.1
				c-1.6,1.1-3.2,2.1-2.6,4.5C248.1,149.2,249.1,145.2,251.2,145.4z"/>
			<path class="st125" d="M246,147.2c-0.6-2.2,2.1-3,2-4.9c-1.5-0.5-1.8-2-2.7-3.3c0,3.2-2,4.4-4.4,5.3c-0.1,1.7,1.1,2.6,2,3.7
				c-1,1.3-1.4,2.9-0.1,4c1.4,1.3,2.7-0.5,4.1-0.6c0.7-0.4,1.4-0.8,2.1-1.2c0.1-0.7,1.1-1.5-0.3-1.9
				C248,147.6,246.7,148.1,246,147.2z"/>
			<path class="st126" d="M254,136.3c-1.5,2.4-1.2,4.8,0.1,7.1c0.6,0.3,1.2,0.6,1.8,0.9C257.9,141,257.9,138.2,254,136.3z"/>
			<path class="st127" d="M279.1,164.4c0.3,1.4-1.4,2.5-0.3,4c1.6-0.2,2.3-1.5,3.3-2.5c0.6-0.8,0.8-1.7,0.4-2.7c1.2-1,2.4-2,3.6-3
				C281.5,158,281.2,162.7,279.1,164.4z"/>
			<path class="st128" d="M246,147.2c0.1,2.5,1.4,2,2.8,1.1c0.8-1,1.6-2,2.4-2.9C248.7,144,247.9,147,246,147.2z"/>
			<path class="st129" d="M229.2,106.2c0-2.2,1.6-3.6,3.1-2.7c3.2,1.9,5.8,0.6,8.7-0.1c2.6-0.7,5.1,0,7.1,2.3c0.7,0.8,1.2,2.5,3,1.6
				c-1.6-2.7-3.2-5.4-4.9-8.1c-4.8-7.7-8.4-16.3-16.4-21.7c-4.8,0-5.9,0.8-5.4,5.1c0.5,3.7-0.2,7.6,1.7,11.1c0.8,1.6-0.1,2.8-1.1,4
				c-1.2,1.4-2.1,2.9-3.1,4.5c-0.2,0.4-0.4,0.9-0.5,1.4C222.8,108.3,226,107.2,229.2,106.2z"/>
			<path class="st130" d="M230,78.4c6.4,6.2,10.7,14,16.2,20.9c-1.3-4.8-4.2-8.8-6.5-13.1c-1-1.8-3.4-3.3-2.3-5.6
				c1.2-2.4,3.8-0.8,5.8-1.3c5.8-4.4,1.2-8.7-0.1-13.1c-5.6,2.2-9.9,6-14.4,9.8C228.4,77.2,229.3,77.8,230,78.4z"/>
			<path class="st131" d="M253.2,82.5c0.8,1.2,1.4,2.6,2.4,3.5c0.9,0.9,1.4,3.2,3.3,1.6c1.7-1.4,0.2-2.6-0.7-3.7
				c-1.4-1.6-2.8-3.1-4.2-4.7C253.8,80.4,253.5,81.5,253.2,82.5z"/>
			<path class="st132" d="M240,61.3c1.4-2.3,2.7-4.7,4.1-7c-0.6-5.4-1.2-5.8-5.4-3.1c-1.8,1.5-2.1,3.9-3.3,5.7
				c-1.7,2.4-3.6,4.5-6,6.3c-2.6,3.3-6.8,4.2-10.1,6.4c-1.8,1-3.8,0.9-5.7,1.5c-0.1,0-0.2-0.1-0.3-0.3c0-0.1,0.1-0.2,0.4-0.2
				c0.8-0.1,1.6-0.2,2.4-0.3c5.1-1.9,10.2-3.8,14.1-8c2.2-1.5,3.7-3.5,5.1-5.7c0.3-0.7,0.3-1.4-0.3-2c-2.5-3.5-5.4-6.5-8.6-9.3
				c-1.1-0.9-1.9-1.9-3.4-0.9c-1.1,0.3-1.7,1.1-2.1,2.1c-1.3,9.8-7.2,14.7-16.8,15.5c-1.4,1.7-0.4,2.9,1.1,3.5
				c5.2,1.9,2.8,3.9-0.1,6.4c-1.3-2.2-1.2-5.7-4.8-5.3c-0.8,0-1.7,0-2.3-0.7c-1.6-1.9-3.5-4.2-6.2-2.5c-2.8,1.7-5,4.3-3.9,8.1
				c0.4,1.9-0.3,3.5-0.8,5.3c-0.9,3.2-0.1,6,1.8,8.6c0.3,0,0.7,0,1,0c2.9-1.8,5.8-2.3,9.2-1c2.7,0.9,5.6,1.7,8.6,1
				c1.9-1,3.9-1.5,5.9-2.1c0.4-0.2,0.8-0.5,1.2-0.7c2-2,4.8-2.2,7.3-3.2c3.6-2.5,8.6-3.5,9.5-9.1c0.3-1.6,2.8-1.7,3.8-3.1
				C236.8,64.9,238.8,63.4,240,61.3z"/>
			<path class="st133" d="M222.1,46.4c0.4-0.7,0.7-1.3,1.1-2c0.7-7,0.4-7.3-8-9c-0.7,0.1-1.2,0.4-1.7,0.9c-0.6,0.7-0.9,1.6-1,2.5
				c-0.3,2.8-1.7,5.4-1.7,8.3c0,2-0.1,3.9,0.1,5.9c0.2,2,0.6,4.1,2.8,4.7c2.1,0.6,3.2-1.2,4.4-2.5C220.6,52.7,220.4,49.1,222.1,46.4
				z"/>
			<path class="st86" d="M194.1,30.1c1,0.4,0.9,1.4,1.1,2.2c3.2-0.6,6.4-0.5,9.7-0.1c2.4-0.8,4.6-2.2,7.2-1.2c0.7,0,1.4-0.1,1.9-0.7
				c-1.3-2.7-3.8-2-6-2.3c-3.5,0.2-6.8-0.1-9.9-1.9C197.5,28.1,195.5,28.8,194.1,30.1z"/>
			<path class="st134" d="M214.1,30.3c-0.5,0-1,0-1.5,0c-1.6-0.5-3.3-1.2-4,1.1c-0.6,1.8,0.6,3.1,1.9,4.1c1.1,0.9,2.4,0.9,3.7,0.9
				c0.3-0.4,0.6-0.7,1-1.1C216.3,33.3,216.7,31.5,214.1,30.3z"/>
			<path class="st135" d="M236,57.3c1.2-1.9,3.7-3.2,2.8-6.1c-0.4-1.2-1.1-1.9-2.3-2.4c-1.2-0.4-2.4-0.3-3.1,0.8
				c-0.8,1.3,0.7,1.4,1.4,2c1,0.8,1.4,1.8,0.4,2.9c-0.1,0.6-0.2,1.1-0.2,1.7C234.6,57.2,235.1,57.4,236,57.3z"/>
			<path class="st136" d="M177.1,295.3c0.3,0.3,0.7,0.7,1,1c1.2,1.6,3.8,0.6,5,2.8c0.8,1.5,2.2,0.4,3.2-0.6c0.9-0.8,0.1-3,2.2-2.6
				c0.7,0,1.2-0.1,1.6-0.7c2.3-2.6,3-5.6,3.1-9.1c0.2-8.3,1.3-16.5,0.9-24.8c-0.1-1.4,0.1-2.7,1.9-2.9c-0.4-3.3-3.4-1.9-5.1-2.9
				c-0.8-0.1-1.7,0-2.5,0.4c-1.6,1.1-1.8,2.8-1.7,4.4c0.3,6.8-1.3,13.5-1.2,20.3c0,3.3-0.2,6.7-3.5,8.8c0.6,2.1,1.1,3.9-2.4,3.1
				C177.6,291.9,176.9,293.4,177.1,295.3z"/>
			<path class="st137" d="M182.1,289.3c2.4,1.4,3.6,0.6,4-2.1c1.3-8.4,1.5-16.9,2-25.4c0.1-1.9-0.7-4,1.1-5.6c-0.2-1.5-1-1.7-2.2-1
				c-3,0.8-3,3.3-2.8,5.5c0.5,6.8-2.6,13.2-2.2,20c0.1,1.3-0.2,3.7-2.9,2.6C178.5,286.1,181,287.3,182.1,289.3z"/>
			<path class="st138" d="M240.1,217.3c-1.7,1.3-3.4,2.5-5.1,3.8c-2.5,4.3-5.5,8.3-8.1,12.5c-5.4,8.5-13.5,10.7-23,8.8
				c-2.4-0.6-5-0.2-7.4-0.7c-0.8-0.1-1.5,0-2.2,0.6c-1.3,2.1-2.6,4.2-5.1,5c2.8,4,6.5,5.5,11.3,4.3c1.9-2.8,4.6-3.8,8-4
				c8.3-0.4,16.3-2.4,24-5.4c2.8-1.1,6-2.2,6.7-5.8c1.8-3.2,5.1-5.2,6.2-9.2C246.7,221.7,244.5,219.2,240.1,217.3z"/>
			<path class="st139" d="M194.2,242.3c0.6,0,1.2,0.1,1.9,0.1c0.2,0,0.5,0,0.7,0c5.2,0.7,9.1-0.3,11.6-5.8c2-4.2,6.8-6.8,8-11.8
				c-0.1-0.5-0.4-0.9-0.9-1.2c-1.9-0.7-3.8-0.6-5.1,0.9c-2.9,3.5-7.2,5.2-10.3,8.5c-2.7,2.8-5.7,4.4-9.7,3.9c-2-0.2-3.6,0.1-1.4,2.4
				C190.7,240.4,192.9,240.5,194.2,242.3z"/>
			<path class="st140" d="M189.1,239.3c-0.9-2.1,0.4-2.3,1.9-2c4.8,0.9,8.2-1.1,11.3-4.5c2.7-2.9,6.5-4.5,9.1-7.7
				c1.2-1.5,3.2-0.4,4.7-0.8c0.1-1.1-0.6-1.5-1.4-1.9c-2.3-0.5-4.6-0.9-6.6,0.9c-0.1,1.1-0.1,2.2-1.2,3c-3.9,2.8-7.7,5.6-11.5,8.6
				c-2.3,1.8-4.3,2.1-6.4-0.1c-0.6,0.5-1.1,1-1.7,1.6c0,0.3-0.1,0.6-0.2,0.9C187.2,238.6,187.6,239.5,189.1,239.3z"/>
			<path class="st141" d="M200,251.3c-4-0.3-7.5-2.2-10.9-4.1c-1.8-0.2-3.8-1.7-5,1c-0.3,0.3-0.7,0.6-1,0.9
				c5.8,5.8,16.5,8.1,22.1,4.8C204.4,251.3,202.4,250.9,200,251.3z"/>
			<path class="st142" d="M204.9,253.4c-5.3,2.2-10.2,0.5-15-1.5c-2.3-0.9-4.5-1.8-6.8-2.7c-0.9,0-2-1.3-2.6-0.1
				c-0.7,1.4,1.2,2.1,1.5,3.3c1.6,1,3.3,1.9,4.9,2.9c0.7,0.3,1.5,0.7,2.2,1c0.6,0,1.2,0.1,1.8,0.1c5.2,0.4,10.5,1,15.7,0.9
				c1.6-0.6,3.4-0.6,4.6-2C209.9,252.2,207.7,251.8,204.9,253.4z"/>
			<path class="st143" d="M282.4,163.2c-0.4,0.8-0.9,1.6-1.3,2.4c-0.5,4.3,0.1,8.3,2.9,11.7c0.3,1.8-0.5,3.1-2,4.1
				c0.4,3.9-1.7,7.2-2.9,10.7c-0.4,1.1-1.6,2.3-0.1,3.4c0.7,0.5,1.3,0.4,1.9-0.1c0,0,0.5-0.1,0.5-0.1c0.8-1.3,1.6-2.7,2.4-4
				c1.4-1.1,1.9-2.6,2.5-4.2c0.9-4.9,3.6-9.7,0.7-14.7C285.8,169.1,286.7,164.8,282.4,163.2z"/>
			<path class="st144" d="M287.1,172.3c0.2,5.1-0.8,10.1-1.9,15.1c1.3,2.2,1.7,6,5.7,2.9c0.4-1.9,0.9-3.9,1.3-5.8
				c0-1.1,0-2.3,0.2-3.4C293.6,174.2,293.6,174.2,287.1,172.3z"/>
			<path class="st145" d="M290.9,190.3c-3.2,1.6-3.6-2.3-5.7-2.9c-0.7,1.2-1.3,2.4-1.2,3.8C287.9,196.2,288.1,196.1,290.9,190.3z"/>
			<path class="st146" d="M167.1,78.3c-1.5,0-3.2-0.1-3.6,1.7c-0.2,0.8,0.3,2,1,2.6c2,1.8,3.1-0.7,4.6-1.3
				C168.4,80.3,167.7,79.3,167.1,78.3z"/>
			<path class="st147" d="M204.9,253.4c2.3-0.1,4.3,0.5,6.1,1.9c0.8,0.8,1.7,0.9,2.7,0.5c1.7-1.8,0.6-4.9,3.3-6.3
				c4.4-2.4,9.2-3.5,14-4.8c2-0.6,1.9,1.2,1.9,2.5c-0.1,3-0.1,5.9,2,8.4c1.4,0.6,2.5,0.2,3.1-1.2c1.8-5.1,0.1-10.8,2.7-15.8
				c0.5-0.9-0.7-1.7-1.6-2.1c-9.2,7.5-20.3,8.9-31.5,9.9c-3.5,0.3-7.3-0.1-7.5,5C201.7,252,203.3,252.7,204.9,253.4z"/>
			<path class="st148" d="M238.1,254.3c-1,0.3-2.1,0.6-3.1,0.8c-0.5-0.4-1.1-0.9-1.8-0.8c-6.3,1-12.8-0.4-19.1,0.9c-1,0-2,0-3,0
				c-1.4,0.2-2.9-0.4-4,1c2.5,3.4,6.7,1.7,9.8,3.3c10.4,2.3,20.9,1.1,31.3,1.1c1.2,0,2.3-0.4,3-1.5c-1.6-0.7-2.1-2.4-1.7-3.5
				c1-2.6-0.9-3.2-2.3-4.3C244.1,252.4,241.1,253.3,238.1,254.3z"/>
			<path class="st149" d="M282,299.2c-2.5,1.5-5.6,1.7-8.4,4.7c5.9,0.3,9.8-1.5,12.5-5.6C284.8,298.6,283.4,298.9,282,299.2z"/>
			<path class="st150" d="M251.2,259.2c-11.7,0.3-23.4,0.8-35.1-0.8c-4-0.9-7.6,0.2-11.1,2.1c6,2.7,12.6,2.9,18.8,3.4
				c16.2,1.4,32.4,1,48.5-1.9c0.3-0.1,0.5-0.4,0.8-0.5c-5.3,1-10-2.8-15.3-2.2C255.6,259.2,253.4,259.2,251.2,259.2z"/>
			<path class="st151" d="M188,71.3c0.1-1.9,1.3-3.3,2.3-4.9c2.4-3.9,5.7-4,7.1,0.2c1,3.1,2,0.5,2.9,0.7c0.7-0.8,2.2-0.4,2.6-1.6
				c0.6-3.5,0.9-7-0.4-10.5c-0.5-1-0.8-2.2-2.3-1.9c-5.5,4-11.1,8-16.6,12c0.7,2.9,1.3,5.7,2,8.6C187.6,74,186.9,71.8,188,71.3z"/>
			<path class="st152" d="M200.1,53.4c0.4,0.7,0.8,1.3,1.2,2c1.1,2.1,2.4,3.9,5.1,4.2c3.9,0.4,5.3-0.9,5.2-4.9
				c0-2.8-0.5-5.6,0.4-8.3c0-2.7,2-5.1,1.3-7.9c-2.2-0.6-4.5-0.5-6.8-0.2c-2.7,0.3-3.9,3.6-6.9,3.6c-0.6,0-1.2,1.5-0.4,2.5
				c0.3,1.7,0.1,3.3-0.4,4.9C199.2,50.7,199.7,52,200.1,53.4z"/>
			<path class="st153" d="M199.2,44.4c2.3-1.7,4.6-3.5,6.9-5.2c-1-1.2-2.2-2.2-0.9-4.1c0.7-1,1-2.4,0-3.6c-3.4-0.5-6.9-2.3-9.9,0.9
				c-0.7,1.4-1.4,2.7-2.1,4.1C194.2,39.8,197,41.8,199.2,44.4z"/>
			<path class="st154" d="M227.8,309.3c-0.4,1.4-0.8,2.8-1.3,4.1c-0.7,1.9,0,2.6,2,2.9c11.9,1.7,23.8,1.3,35.7-0.1
				c0.5-0.1,1.4-0.2,1.4-0.4c0.2-3.3-0.4-6.6,0.5-10c0.4-1.7-2.5-1.7-4.1-1.6c-8.7,1-17.5,0.9-26.3,1c-7,0-13.8-1-20.7-1.6
				c-1.4-0.1-2.8-0.4-3.4,1c-0.6,1.4-1.9,3-0.7,4.6c1.9,2.6,3.1,5.8,7.3,6c4.1,0.2,6.7-0.9,7.9-4.9c0.2-0.6,0.7-1.1,1-1.6
				C227.3,309.1,227.5,309.2,227.8,309.3z"/>
			<path class="st155" d="M188.1,295.5c-0.3-1-1-2.2-1.9-1.9c-1.3,0.5,0.6,1.5,0.2,1.8c-1.1,1-0.2,3.4-2.1,3.4
				c-2.2,0-0.1-2.3-0.7-2.4c-1.8-0.3-3.7-0.1-5.6-0.2c0,1.6,0,3.2,0,4.8c1.9,2.3,4.4,0.6,6.6,1.1c1.4,0.8,3.9-0.2,4.2,2.4
				c-0.8,2.8,0.7,2.9,2.9,2.8c3.2-0.2,6.4-0.2,7.3,4c3.3,1.7,5.5,1.4,4.9-3.1c-0.2-1.2,0.2-1.4,1.2-2.1c3.5-2.4,2.4-4-1.2-4.8
				c-0.6,0.6,0.5,2.5-2,1.7C196.7,301.6,192.8,297.9,188.1,295.5z"/>
			<path class="st156" d="M199,311.4c1.1-4.3-2.1-6.4-8-5.3c-1.6,0.3-1.6,0.3-0.9-1.8c0.1-2.7-1.9-1.3-3-1.4
				c-1.2-0.1-2.7,0.6-2.3-1.7c-2.3-0.1-4.6-0.1-6.8-0.2c-0.9,0.2-1.6-1.6-2.5-0.3c-0.7,1.1,0.6,1.1,1,1.7c1.5,1.9,4,2.1,5.7,3.7
				C187.7,308.3,193.2,310.5,199,311.4z"/>
			<path class="st157" d="M205,260.4c4,0.8,7.2-2.3,11.1-2.1c-2.7-1.9-6.2-0.5-9-2c-5.4-0.9-10.8-0.9-16.1,0.1c1.2,1.8,3.8,0.2,5,2
				C199,259.1,202,259.7,205,260.4z"/>
			<path class="st158" d="M188.1,295.5c3.3,4.3,7.9,6.8,12.9,8.6c2.4,0.8,3.9,0.4,2.9-2.7c-4.8-1.8-9.6-3.4-13.8-6.2
				C189.4,295.3,188.8,295.4,188.1,295.5z"/>
			<path class="st159" d="M293,309.5c1.8-1,3.6-2.1,5.4-3.1c-5.1-0.5-8.9,1.5-12.3,4.9C288.5,311.2,290.8,310.3,293,309.5z"/>
			<path class="st160" d="M273.1,178.3c1.3-2.6,2.8-5,2.9-8c0.4-1.1-0.1-2.3-1-2.5c-6.2-1.8-11-7.3-18.1-6.8
				c-4.6,0.3-8.8-1-12.5-3.8c-2.4-0.3-2.8,1.8-3.9,3.2c-0.4,3.4-1.1,6.7-2.3,10c-0.6,1.8-1.6,3.7-0.1,5.6c6,3,12.5,2.3,18.9,3.1
				c3.9,0,1.9-4.3,4.2-5.1c0.1,0.5-1.3,1.5-0.1,2.4C265.1,177.1,268.8,179.5,273.1,178.3z"/>
			<path class="st161" d="M261.1,176.4c0.5-1.7,1-3.3,1.7-5.4c-2.9,1.9-2.9,5.3-4.6,7.5c-2.6,1.8-2.4,5-4,7.1
				c-2.8-6.6-10.7-5.5-15.4-9.5c-0.5,0-0.9,0.2-1.2,0.6c-2,5-4,10-5,15.4c0.2,1.1,0.8,1.8,2,1.7c0.8-0.1,1.5-0.9,2.3-0.9
				c2.8,0.1,5.9,0.1,7.8,2.3c1.9,2.2-0.6,4.2-1.6,6.2c-0.9,1.9-1.9,3.9-3.5,5.3c-1.4,2.3-5.1,2.9-4.7,6.5c1.5,1.8,3.8-1.1,5.3,1
				c9.8-10.3,14.8-23.4,20.1-36.2C260.3,177.4,260.7,176.9,261.1,176.4z"/>
			<path class="st162" d="M196.1,242.4c2.5,1.8,5.3,0.5,8,1.1c6.9,1.7,12.3-0.4,16.1-6.4c2.5-3.9,6.3-6.2,9.9-8.9
				c2.7-2,2.7-2.8,0.9-4.9c-0.6,0.1-1.3,0.2-1.9,0.2c-3.5,1.8-7.1-1.5-10.6,0.2c-4.1,3.9-7,8.8-9.8,13.6c-2.3,4-5,5.3-9.2,4.8
				c-1.1-0.2-2.3-0.1-3.5,0.1L196.1,242.4z"/>
			<path class="st163" d="M231,223.1c1.7,1.3,0.6,2.5-0.5,3.2c-5.8,3.2-10.3,7.7-13.9,13.1c-3.2,4.7-8,3.9-12.5,4
				c6.7,2.5,18.3,0.4,24-9.1c2.2-3.7,4.1-7.5,7.1-10.7c0.9-0.9,0.8-1.8-0.2-2.5C233.6,221.8,232.3,222.5,231,223.1z"/>
			<path class="st164" d="M208.1,223.3c2.3,0,4.7,0,7-0.1c1.6-1.7,3.5-2.8,5.9-2.6c1.8,0.1,3.5-0.3,5-1.4c2.3-1,4.6-2,7-3
				c1.3-0.7,2.1-1.7,1-3.2c-1.4-0.4-2.7,0-3.8,0.8c-4.3,2.9-9.2,3.4-14.2,3.1c-1.4,0.1-2.7,0.1-3.8,1.1c-1.7,0.2-4.1-0.3-5.1,0.6
				C205.9,219.9,205.5,222.2,208.1,223.3z"/>
			<path class="st165" d="M226,219.3c-2.4,0-4.8,0.2-7.2,0c-3.1-0.2-4.1,1.1-3.7,4c0.3,0.3,0.7,0.7,1,1c0,0,0,0,0,0
				c0.6,0.6,1.2,0.5,1.9,0.1c3.7-0.4,7.6,1.1,11.1-1C226.5,223.2,222.1,224.3,226,219.3z"/>
			<path class="st166" d="M234.2,213.4c-0.4,1-0.8,1.9-1.2,2.9c2.8,0.9,5.6,1.8,7-2.1c-1.6-0.8,0.3-2.1-0.4-3.1
				c-1.7,0.2-2.5,2.7-4.6,2.2C234.6,213,234.4,213,234.2,213.4z"/>
			<path class="st167" d="M244,157.2c2.3,5,7,4.8,11.3,5c3.9,0.2,7.6-0.1,10.8,3.3c2.5,2.6,7.6,0.9,9.8,4.7c2.1-2.7,1.4-4.4-1.8-5.5
				c-3-1-5.6-2.1-8.1-4.8c-2.5-2.8-7.6-2.6-11.7-2.7c-3.6,0-6.6-0.8-8.3-4.3c-1.9,0-2.2,1.4-2.6,2.9
				C243.5,156.5,243.7,156.9,244,157.2z"/>
			<path class="st168" d="M243.9,156.3c0.6-1.2,0.7-2.6,2.1-3.2c0.3-0.6,0.6-1.1,1-1.7c-1.2-1.3-5.3,0.8-4-3.4
				c-4.4,0.1-7.6-4-12.3-3.4c0.8,2.7,2.7,4.2,4.6,5.8c1.1,0.9,3.7,1.7,1.9,4.2C238.8,157.5,240.9,158.6,243.9,156.3z"/>
			<path class="st169" d="M284.1,177.3c-1.1-3.9-1.2-8-2.9-11.7c-1.4,0.4-1.6,1.9-2.4,2.8c-1.2,3.6-2.5,7.1-3.7,10.7
				c0,1.1,0,2.2,0,3.6C277.7,179.7,280.4,177.6,284.1,177.3z"/>
			<path class="st170" d="M281.1,195.3c-0.6,0-1.3,0.1-1.9,0.1c-2,1.8-4.6,2.2-7.1,2.9c-0.1,1.6,0.5,2.4,2.2,2.1
				C278.2,201,279.8,198.4,281.1,195.3z"/>
			<path class="st171" d="M274.2,200.5c-0.9-0.5-1.9-1-2.2-2.1c-0.3-0.1-0.5-0.2-0.8-0.2c-0.4,2.4,0.3,4.5,1.6,7.1
				C273.6,203.5,277.5,203.5,274.2,200.5z"/>
			<path class="st172" d="M229.2,106.2c-2.1-1.6-6.2,1.7-7.2-2.9c-1.3-0.7-2.2,0.1-3,1c0.5,3.7,0.7,7.6,1.7,11.2
				c1.6,6,0.7,11.7-0.7,17.4c-0.4,1.7-1.8,2.2-3.1,3c-8.4,5.4-9.6,8.1-7.4,16.4c1.5,5.9,3.3,11.8,2.6,18c1.7,1.7,4,2.4,6.3,2.8
				c6,1,11.5,3.2,16.6,6.5c1.3,0,1.8-0.9,2-1.9c0.1-1.5,0.8-3,0.5-4.6c-3.2-5.9-2.9-13-6.4-18.8c-2.5-11.4-5-22.7-7.5-34.1
				c-0.3-1.3-0.4-2.6-0.5-3.9c2.3-2,2.5-5.9,5.9-6.9c0.4-0.6,0.8-1.3,1.2-1.9C229.9,107,229.6,106.6,229.2,106.2z"/>
			<path class="st173" d="M235.1,179.5c-1.7-3.5-5.2-4.6-8.3-5.6c-4.8-1.6-9.8-2.4-14.7-3.5c1.1,5.3,1,10.6,1,16
				c-1.2,2.6,0.8,2.8,2.4,2.8c2,0,3.9,0.6,5.8,1c3.9-0.1,7.9,1.5,11.5-1C234.2,186.1,236.4,183.2,235.1,179.5z"/>
			<path class="st174" d="M214,82.3c-2.2,0.2-4.7-0.6-6.1,2c-1.4,1.1-2.4,2.4-2.9,4.2c2.6,3.1,4.6,6.6,8,8.9c5.1,0.8,9.6-4,7.7-8.5
				C219.4,85.9,217.7,83,214,82.3z"/>
			<path class="st175" d="M214,82.3c1.1,1.2,2,2.6,3.2,3.7c1.9,1.8,3.8,3.8,2.5,6.4c-1.3,2.7-3.2,5.1-6.8,5c1.1,3.1,3.6,5,6,6.9
				c1-0.3,2-0.6,3-1c0,0,0,0,0,0c3.3-6.4,1.6-13,1-19.6c-0.1-1.5-1.1-2.8-2.5-3.6c-2.3-0.2-4.5,0.1-6.4,1.4
				C214.1,81.8,214.1,82,214,82.3z"/>
			<path class="st176" d="M205,88.4c2.6-0.2,2.3-2.5,2.9-4.2c-3.4-0.5-7-0.4-10-1.7c-3.9-1.8-6.1-0.7-8,2.6c1.9,0.3,3.8,1.2,5.7-0.3
				c1.4-1.2,2.4-0.2,3.4,0.8C200.6,87.4,202.6,88.3,205,88.4z"/>
			<path class="st172" d="M221.1,189.3c-1.6-1.2-3.3-2-5.3-1.3c-1.6,0.5-2.5,0.1-2.7-1.6c-1.7,1.3-0.8,3.2-1,4.9
				c0.7,0.7,1.3,1.4,2,2.1C215.2,189.9,219,191.2,221.1,189.3z"/>
			<path class="st177" d="M234.9,66.3c-2.2,2.1-6.5,2.2-5.7,7.2c0.1,0.6-5,2.6-7.2,4.7c0.5,0.6,1.2,0.8,2,0.8
				c1.5-1.1,3.9-0.8,5.1-2.6c4.9-3,9.6-6.4,14-10.2c0.4-0.7,0.8-1.3,1.1-2c-0.4-0.7-0.8-1.4-1.2-2.1c0,0,0,0,0,0
				C240.6,64.3,237.7,65.3,234.9,66.3z"/>
			<path class="st111" d="M234.9,66.3c4.1,1.3,6.3-0.9,8.1-4.1c-1.2,0.4-2.1-0.1-2.9-0.9C237.3,61.9,236,64.1,234.9,66.3z"/>
			<path class="st178" d="M234.2,213.4c0.3,0,0.5-0.1,0.8-0.2c0.8-2.8,4.1-3.3,5.2-5.9c0.4-1.4-0.8-1.9-1.6-1.7
				c-3.8,0.6-6.3-1.8-9.1-3.7c-0.4-0.2-0.9-0.2-1.3-0.2c-1.9,1-4.2,0.9-6.2,1.7c-3.2,1.6-6.6,0.2-9.9,0.9c0,0.3,0,0.7,0,1
				c1.1,1.2,2.7,1,4.1,1.2c3.9,0.6,4.3,1.5,2.9,5.2c-0.9,2.3-3.5,3.6-3.1,6.4C222.9,219.7,228.5,216.4,234.2,213.4z"/>
			<path class="st179" d="M216,218.3c1.5-2.3,3.6-4,4.7-6.8c1.7-4.7,1-6.1-4.2-6.2c-1.5,0-2.9,0.1-4.4,0.1c-3.1,3.2-4,7.4-5.2,11.5
				c1.9,0.4,3.6,0.8,5.4,1.2C213.5,218.2,214.8,218.2,216,218.3z"/>
			<path class="st180" d="M221.9,203.4c2.2,1.1,4.4,1.8,5.9-1.1c3-4.2,5-8.7,4.3-14c-3.5,2.4-7.5-0.6-11.1,1c-1.3,0-2.6,0.1-3.9,0
				c-3.1-0.3-4.1,1.1-3.1,4C215.8,197.4,218.3,200.8,221.9,203.4z"/>
			<path class="st181" d="M231.1,154.3c1.4,6.4,1.6,13.3,5.8,18.9c2.2-1.8,3.3-3.9,1.7-6.5c-2.8-4.5-2.7-4.9,2.6-6.1
				c2.3,0.1,1.5-2.6,2.9-3.3c0-0.3,0-0.6-0.1-0.9c-2.7,1.1-4.7-0.7-6.7-1.9C235.2,153,233.1,155.9,231.1,154.3z"/>
			<path class="st182" d="M229,109.4c-6.1-1.2-4.2,4.4-5.9,6.9C228.6,117,229.4,113.7,229,109.4z"/>
			<path class="st183" d="M229,76.4c-1.7,0.6-3.3,1.3-5,1.9c-1.2,1-3.2,0.4-4,2.1c3.5,4.5,2,10.1,2.5,15.1c0.3,2.3-0.4,5.1-0.5,7.8
				c2.8-1.3,2.9-5.3,6.1-6.3c1-0.3,0.7-1.5,0.2-2.1c-3.8-3.8-1.6-8.9-2.8-13.3c-1-3.6,2.3-3.1,4.6-3.2
				C229.7,77.7,229.4,77.1,229,76.4z"/>
			<path class="st184" d="M212,46.3c-1.7,2.2-0.6,4.7-1,7.1c-0.3,1.6,1,4-1.4,4.7c-2,0.6-4.2,0.8-6.1-0.8c-0.7-0.6-1.5-1.3-2.2-1.9
				c0.5,3.6,1.6,7.2,0.8,10.8c3.2,0,0.5-3,2-3.9c11.4,0,16-4.1,18-16c-2.6,2.2-2,6.3-4.9,8.4c-1.1,0.8-1.9,2.8-3.6,1.9
				c-1.3-0.7-1.6-2.4-1.6-3.9C212,50.6,212,48.4,212,46.3z"/>
			<path class="st185" d="M222.9,56.6c-0.1,2.4,0.6,4.1,3,4.5c2.7,0.5,3.3-1.8,3.9-3.6c0.5-1.4,0.7-2.9,0.8-4.4
				c0.3-3.3-2.4-3.6-4.5-4.2c-2.7-0.7-1.7,1.6-2.1,2.8C223.6,53.3,223.2,55,222.9,56.6z"/>
			<path class="st186" d="M204.1,62.3c-1.7,0.8-0.3,3.1-2,3.9c-0.6,0.4-1.3,0.8-1.9,1.2c4.6-0.2,2,4.7,4.4,6c1,0.4,1.5-0.6,2.2-1.3
				c5-4.8,5-4.8-1.4-7.8C204.5,63.8,204.2,63.2,204.1,62.3z"/>
			<path class="st187" d="M230.1,61.5c-4.2,3.5-8.9,6-14,7.9c0.7,2.7,2.4,1.5,3.9,0.9c3.5-2.2,8-2.7,10.2-6.8
				C230.6,62.8,230.7,62.1,230.1,61.5z"/>
			<path class="st188" d="M220.1,80.5c1.4-0.5,3-0.8,4-2.1c-0.7,0-1.4,0-2,0c-2.8,0.6-5.9,0.6-7.8,3.3
				C216.1,81.2,218.1,80.8,220.1,80.5z"/>
			<path class="st189" d="M219.9,70.3c-1.3-0.2-2.9,0.6-3.9-0.9c-1.3,0-2.7-0.2-3.7,0.9c-0.4,0.4-0.4,1.3-0.3,1.8
				c0.4,1.2,1,0.2,1.5,0C215.7,71.5,218.1,71.9,219.9,70.3z"/>
			<path class="st190" d="M230.1,61.5c0,0.7,0,1.3,0,2c2.5-1.5,4.6-3.5,5.8-6.2c-0.3-0.4-0.7-0.7-1-1.1
				C233.3,57.9,231.7,59.7,230.1,61.5z"/>
			<path class="st191" d="M205.1,31.5c-0.4,1.2-0.6,2.6-1.2,3.7c-1.5,2.6,0,3.4,2.1,4c2.4,0,5,1.1,7.3-0.7c0.3-0.7,0.5-1.3,0.8-2
				c-0.6-1.2-2-0.9-2.9-1.6c-1.1-0.8-2.2-1.7-1.9-3.2c0.4-1.8,2.1-1.1,3.2-1.4C209.7,28.1,207.4,29.5,205.1,31.5z"/>
			<path class="st192" d="M217.9,224.4c-0.6,0-1.2-0.1-1.9-0.1c-2.8,6.2-8.7,10.1-11.7,16.3c-1.2,2.4-5.6-0.3-8.3,1.4
				c8.5,2.7,13.2-1.6,16.7-8.7C214.1,230.2,216.2,227.3,217.9,224.4z"/>
			<path class="st193" d="M214.1,255.3c7,1.9,13.9,1.2,20.9-0.1c-0.2-3.4-1.7-6.6-0.4-10.2c0.6-1.8-0.8-2.7-2.7-2.1
				c-5.4,1.8-11,3.4-16.2,5.6C213,249.7,213,252.6,214.1,255.3z"/>
			<path class="st91" d="M239.4,308.5c-4.2,3.8-1.8,5.5,1.4,7.9C240.3,313.5,239.9,311.3,239.4,308.5z"/>
			<path class="st194" d="M184.9,301.3c-1,0.6-2.6,0.7-2.3,2.5c1.7-1.2,3,2.4,4.7,0.5c1.1-1.3,2-1.6,2.9,0c1.1-1.5,0.7-2.2-1.1-2.4
				C187.6,301.8,186.2,301.5,184.9,301.3z"/>
			<path class="st195" d="M238.1,176.2c2.9,2.6,5.9,4.6,9.9,5.4c3.3,0.7,5.8,2.7,4.7,8.1c3.2-4.2,4.4-7.7,5.4-11.2
				c-4.3-2-9.1-1-13.6-2.1c-2.1-0.5-4.2-0.7-6.3-1c-0.3,0.1-0.4,0.3-0.3,0.5C238,176.1,238,176.2,238.1,176.2z"/>
			<path class="st196" d="M238.1,176.2c0-0.3,0-0.5,0.1-0.8c0.9-2.9,1.7-5.9,2.7-8.8c0.7-2,1-4,0.2-6.1c-1.9-0.9-3.9-2.5-5.3,0.5
				c-1.1,2.3-1.8,4.6,1.2,6.3c3.6,2,0.1,3.9-0.1,5.9c-0.3,1.4-0.6,2.7-0.9,4.1c1.2,0.8,1.5-0.4,2.1-1L238.1,176.2z"/>
			<path class="st197" d="M229.1,202.3c2.2,4.8,7,4.3,11,5.1c3.5-2.8,4.8-6.9,6.6-10.7c0.9-1.9-0.7-3.3-2.4-3.6
				c-3.4-0.5-6.8-3.6-10.2-0.1c-0.1,0.1-0.7-0.5-1.1-0.7C230.6,195.2,228.8,198.3,229.1,202.3z"/>
			<path class="st198" d="M229.1,202.3c1.3-3.3,2.6-6.7,3.9-10c2.1-5.2,4.1-10.4,5.1-16c-0.7,0.3-1.4,0.6-2.1,1
				c0,0.9-0.1,1.7-0.9,2.3c-0.4,3.1-1.5,6.1-3,8.8c-0.5,5-3.7,9.1-4.3,14C228.3,202.3,228.7,202.3,229.1,202.3z"/>
		</g>
	</g>
</g>
</svg>
