<?xml version="1.0" encoding="utf-8"?>
<!-- Generator: Adobe Illustrator 22.0.0, SVG Export Plug-In . SVG Version: 6.00 Build 0)  -->
<svg version="1.1" id="Layer_1" xmlns="http://www.w3.org/2000/svg" xmlns:xlink="http://www.w3.org/1999/xlink" x="0px" y="0px"
	 viewBox="0 0 100 100" style="enable-background:new 0 0 100 100;" xml:space="preserve">
<style type="text/css">
	.st0{fill:#FFFFFF;}
</style>
<g id="dJLO4B.tif">
	<g>
		<path class="st0" d="M55.8,32.6c0.4-1.9,0.8-3.6,1.3-5.3c0.9-2.8,2-5.5,4-7.6c2.2-2.2,4.8-3,7.8-2.2c2.7,0.7,4.9,2.1,7.1,3.7
			c4,3,7.3,6.7,10.4,10.7c4.1,5.3,7.4,11,9.9,17.2c2,4.9,3.4,9.9,3.6,15.2c0.1,6,0.2,12,0.1,18c0,2.9-0.3,5.9-1.4,8.6
			c-1.4,3.6-3.8,5.7-8,6c-3.3,0.2-6.4-0.6-9.5-1.6c-3.9-1.3-7.5-3.2-10.9-5.5c-5.7-3.9-10.4-8.7-13.6-14.8
			c-2.3-4.4-2.9-9.1-2.6-13.9c0-0.2,0-0.4,0-0.7c0-5.5,0-11,0.4-16.5c0-0.7-0.2-1.3-0.7-1.7c-1.1-0.8-2-1.8-2.9-2.8
			c-0.4-0.5-0.7-0.4-1.1,0.1c-1.1,1.3-2.4,2.3-3.7,3.3c-0.6,0.4-0.8,0.8-0.7,1.5c0.5,6.4,0.3,12.8,0.5,19.3
			c0.1,5.4-1.4,10.2-4.3,14.7c-3.3,5.1-7.7,9.1-12.7,12.4c-3.1,2-6.4,3.7-9.9,5c-2.7,1-5.5,1.7-8.4,1.7c-2.5,0-4.9-0.4-6.8-2.2
			c-1.6-1.5-2.4-3.3-3-5.4c-0.6-2.4-0.9-4.8-0.9-7.2c-0.1-5.2,0.1-10.4,0-15.6c-0.1-7,1.8-13.6,4.7-19.9c3.1-6.8,7.2-13.1,12.1-18.8
			c3-3.4,6.2-6.4,10.1-8.7c1.7-1,3.4-1.7,5.4-1.9c4-0.4,6.5,1.6,8.4,4.8c1.8,3.1,2.7,6.4,3.4,9.9c0.1,0.3,0,0.7,0.4,0.7
			c0.3,0,0.4-0.3,0.6-0.5c0.8-1,1.1-2.1,1.1-3.4c-0.1-7.2,0-14.3,0-21.5c0-1.8,0.8-3.2,2.4-3.9c2.6-1.1,5.4,0.7,5.5,3.6
			c0,0.4,0,0.7,0,1.1c0,6.7,0.1,13.5-0.1,20.2C53.8,30.3,54.7,31.3,55.8,32.6z"/>
	</g>
</g>
</svg>
