<?xml version="1.0" encoding="utf-8"?>
<!-- Generator: Adobe Illustrator 22.0.0, SVG Export Plug-In . SVG Version: 6.00 Build 0)  -->
<svg version="1.1" id="Layer_1" xmlns="http://www.w3.org/2000/svg" xmlns:xlink="http://www.w3.org/1999/xlink" x="0px" y="0px"
	 viewBox="0 0 100 100" style="enable-background:new 0 0 100 100;" xml:space="preserve">
<style type="text/css">
	.st0{fill:none;stroke:#000000;stroke-width:4;stroke-linecap:round;stroke-miterlimit:10;}
	.st1{fill:none;stroke:#000000;stroke-width:4;stroke-linecap:round;stroke-linejoin:bevel;stroke-miterlimit:10;}
	.st2{fill:none;stroke:#000000;stroke-width:4;stroke-miterlimit:10;}
</style>
<g>
	<g id="Layer_1_1_">
		<g>
			<line class="st0" x1="50" y1="25.8" x2="50" y2="85.5"/>
			<line class="st0" x1="20.9" y1="55.7" x2="79.2" y2="55.7"/>
			<line class="st1" x1="20.9" y1="25.8" x2="20.9" y2="85.5"/>
			<line class="st1" x1="20.9" y1="25.8" x2="50" y2="25.8"/>
			<line class="st0" x1="79.2" y1="25.8" x2="79.2" y2="85.5"/>
		</g>
		<line class="st0" x1="79.2" y1="25.8" x2="76.5" y2="25.8"/>
		<line class="st0" x1="79.2" y1="85.5" x2="76.5" y2="85.5"/>
		<line class="st0" x1="23.6" y1="85.5" x2="20.9" y2="85.5"/>
	</g>
	<line class="st2" x1="92.9" y1="20.4" x2="73.1" y2="20.4"/>
	<line class="st0" x1="73" y1="2.5" x2="73.1" y2="20.4"/>
	<line class="st2" x1="73" y1="2.5" x2="92.9" y2="20.4"/>
	<line class="st0" x1="7" y1="2.5" x2="73" y2="2.5"/>
	<line class="st0" x1="92.9" y1="97" x2="92.9" y2="20.4"/>
	<g>
		<line class="st0" x1="7" y1="2.5" x2="7" y2="97.5"/>
	</g>
	<line class="st0" x1="7" y1="97.5" x2="93" y2="97.5"/>
</g>
</svg>
