<?xml version="1.0" encoding="utf-8"?>
<!-- Generator: Adobe Illustrator 22.0.0, SVG Export Plug-In . SVG Version: 6.00 Build 0)  -->
<svg version="1.1" id="Layer_1" xmlns="http://www.w3.org/2000/svg" xmlns:xlink="http://www.w3.org/1999/xlink" x="0px" y="0px"
	 viewBox="0 0 300 300" style="enable-background:new 0 0 300 300;" xml:space="preserve">
<style type="text/css">
	.st0{fill:url(#SVGID_1_);}
	.st1{fill:#F42200;}
</style>
<linearGradient id="SVGID_1_" gradientUnits="userSpaceOnUse" x1="327.4519" y1="-732.4519" x2="-27.4519" y2="-527.5481" gradientTransform="matrix(1 0 0 -1 0 -480)">
	<stop  offset="0" style="stop-color:#00E922"/>
	<stop  offset="1" style="stop-color:#D8FF55"/>
</linearGradient>
<rect class="st0" width="300" height="300"/>
<path class="st1" d="M150.7,44.6c4.7,9.5,10.6,18.3,15.7,27.5c0.4,0.7,0.7,1.2,1.1,1.9c4.7,8.2,4.7,8.2,13.5,4.2
	c9.3-4.2,18.6-8.2,28-12.3c2.5-1.1,3.5-0.9,3.2,2.2c-1.3,11.9-2.3,23.9-3.6,35.8c-0.4,3.2,0.6,4.6,3.7,5.2c11.7,2.4,23.2,5,34.9,7.5
	c3.6,0.8,3.8,1.4,1.4,4c-8.1,9-16.1,18.1-24.2,27.1c-1.8,2-1.8,3.2-0.1,5.2c8.2,9,16.2,18.1,24.2,27.2c2.6,3,2.5,3.3-1.4,4.2
	c-11.5,2.5-22.9,5.1-34.5,7.4c-3.3,0.7-4.3,2-3.9,5.4c1.4,11.7,2.4,23.4,3.6,35.1c0.4,4,0.1,4.2-3.8,2.5
	c-10.4-4.6-20.9-9.2-31.3-13.8c-4.7-2.1-4.7-2.1-7.4,2.5c-5.9,10-11.8,20.1-17.6,30.2c-1.6,2.8-2.4,2.8-3.9,0
	c-6-10.4-12.2-20.7-18.1-31.2c-1.6-2.8-3-3.3-6-2c-10.6,4.9-21.3,9.5-32,14.1c-4.3,1.9-4.5,1.8-4.1-2.7c1.1-11.6,2.2-23.2,3.5-34.7
	c0.4-3.4-0.6-4.7-3.9-5.4c-11.5-2.3-23-5-34.5-7.5c-3.9-0.9-4-1.2-1.4-4.2c7.4-8.4,15-16.8,22.6-25.3c3.9-4.4,3.9-4.4,0.1-8.7
	c-7.6-8.5-15.1-17-22.7-25.6c-2.4-2.7-2.2-3.3,1.4-4c11.4-2.5,22.7-5,34.2-7.4c4.7-1,4.8-1.2,4.3-6c-1.2-11.6-2.3-23.2-3.4-34.7
	c-0.4-3.7,0-3.9,3.4-2.5c10.8,4.7,21.6,9.3,32.3,14.3c3.3,1.6,4.8,0.9,6.6-2.2c6.2-11.3,13.3-22.1,19.2-33.5
	C149.8,44.6,150.3,44.6,150.7,44.6z M146.9,130.3c0-4.2-0.1-8.2,0-12.4c0.1-2-0.7-3.1-2.6-3.8c-7.8-2.7-15.5-5.5-23.3-8.3
	c-2.7-1-3.8-0.4-3.7,2.6c0.3,8.4,0.5,16.7,0.7,25c0.1,1.7,0.8,2.7,2.4,3.2c7.9,2.7,15.8,5.3,23.7,8.1c2.2,0.8,2.8-0.1,2.8-2.2
	C146.9,138.5,146.9,134.4,146.9,130.3z M153.1,130.1c0,4.2,0.1,8.2,0,12.4c-0.1,2.3,0.7,3.1,3,2.3c7.8-2.7,15.6-5.4,23.4-7.9
	c1.7-0.6,2.5-1.6,2.5-3.5c0.2-8.2,0.4-16.5,0.7-24.7c0.1-3.2-1.1-3.7-3.9-2.7c-7.6,2.8-15.3,5.5-22.9,8.2c-2,0.7-2.8,1.9-2.8,4
	C153.2,122.1,153.1,126.1,153.1,130.1z M174.2,175.4c0.2,0,0.5,0,0.7-0.1c8.6-2.5,17.2-5.1,25.8-7.6c2.4-0.7,1.5-1.8,0.6-3.1
	c-5.2-6.8-10.6-13.5-15.7-20.4c-1.2-1.5-2.3-1.8-4.1-1.2c-7.9,2.7-15.8,5.4-23.7,7.9c-2,0.7-2.1,1.5-0.9,3.1
	c4.9,6.5,9.7,13,14.5,19.5C172.1,174.6,172.9,175.5,174.2,175.4z M125.2,175.4c1.7,0.4,2.7-0.7,3.6-1.9c4.7-6.4,9.5-12.9,14.3-19.2
	c1.2-1.7,1.3-2.6-0.9-3.3c-7.9-2.5-15.9-5.2-23.7-7.9c-1.4-0.5-2.5-0.5-3.5,0.8c-5.5,7.1-10.9,14.2-16.4,21.3
	c-0.9,1.2-1.1,2.1,0.7,2.6C107.8,170.2,116.5,172.8,125.2,175.4z M149.3,156.5c-0.1,0.1-0.4,0.7-0.8,1.2c-5,6.8-9.9,13.5-14.9,20.2
	c-1.1,1.5-0.8,2.6,0.1,4c5,7.2,9.9,14.3,14.9,21.6c1.1,1.5,1.9,1.6,2.9,0c4.9-7.2,9.8-14.4,14.9-21.6c1-1.5,1-2.8-0.1-4.3
	c-4.9-6.5-9.6-13.1-14.5-19.6C151.2,157.4,150.9,156.5,149.3,156.5z M174.2,205.9c0.4,3-1.2,6.3,2.8,8c8.5,3.5,16.9,7.4,25.3,11.1
	c1.6,0.7,2.5,0.7,2.3-1.5c-0.9-9.4-1.8-18.8-2.8-28.2c-0.1-1.9-1-3.1-3-3.6c-7-2.1-13.9-4.2-20.8-6.6c-2.5-0.9-3.3,0.1-3.3,2.5
	C175,193.8,174.7,200,174.2,205.9z M125.7,205.4c-0.5-5-0.7-11.3-0.6-17.6c0.1-3.1-1.2-3.4-3.8-2.5c-6.4,2.1-12.9,4.2-19.4,6
	c-2.6,0.7-3.8,2.3-4,4.8c-0.8,9-1.6,17.8-2.5,26.7c-0.3,2.8,0.6,2.8,2.8,1.8c7.4-3.3,14.9-6.6,22.3-9.8
	C125.8,212.6,125.8,212.6,125.7,205.4z M92.4,114.6c-9.8,2.2-19.7,4.3-29.5,6.6c-2,0.4-0.9,1.5-0.2,2.3c6.3,7.1,12.6,14.1,18.9,21.2
	c1.4,1.6,2.8,1.5,4.5,0.9c6.9-2.6,13.8-5.2,20.8-7.7c2-0.7,2.6-1.4,1.2-3.3c-4.3-6-8.6-12.1-12.8-18.1
	C94.6,115.4,93.8,114.5,92.4,114.6z M208.7,114.8c-2.4-0.4-3.3,0.4-4.2,1.6c-4.2,6-8.4,11.9-12.6,17.8c-1.4,2-1.1,2.8,1.2,3.6
	c6.8,2.4,13.5,4.8,20.1,7.5c2.5,1,4.2,0.5,6-1.5c5-5.8,10-11.5,15.1-17.2c4.7-5.2,4.7-5.2-2.3-6.7
	C224,118.2,215.9,116.4,208.7,114.8z M150.4,57.7c-1.2,0.1-1.5,1-1.9,1.7c-4.7,7.9-9.2,15.9-14,23.9c-1.1,1.9-0.9,3.3,0.4,4.9
	c4.5,5.6,8.9,11.2,13.3,16.9c1.5,1.9,2.4,1.9,3.8,0c4.3-5.7,8.7-11.4,13.3-16.9c1.3-1.7,1.5-3.1,0.4-4.9c-4.7-7.9-9.3-15.9-14-23.9
	C151.2,58.8,150.7,58.2,150.4,57.7z M231.3,181c0-0.3,0.1-0.7,0.1-0.9c-3.9-1.4-8-2.4-11.7-4.2c-7.6-3.6-14.9-3.6-22.6-0.4
	c-4,1.7-8.4,2.5-12.6,3.9c5.3,2.5,10.6,4.2,15.8,5.9c1.7,0.6,3.4,1.5,5.3,1.1C214.1,184.7,222.7,182.9,231.3,181z M115.5,180.4
	c0-0.3,0-0.7,0-0.9c-4.7-1.4-9.5-2.5-14.1-4.3c-6.6-2.6-13-2.8-19.6,0.3c-3.5,1.7-7.3,2.5-10.9,3.9c-0.8,0.3-1.9,0.3-2.3,1.7
	c7.4,1.6,14.8,3.2,22.1,4.7c1.5,0.3,3.2,0.9,4.7,0.5C102.3,184.5,108.9,182.3,115.5,180.4z M132.7,192c-0.2,0.1-0.4,0.3-0.6,0.4
	c0,5.7-0.1,11.4,0.1,17c0.1,2.3,0.2,4.8,1.6,7c3.8,6.2,7.4,12.5,11.1,18.8c0.4,0.7,0.5,2,2,1.8c0-7.6,0-15.1,0-22.6
	c0-0.8-0.1-1.8-0.5-2.4C141.8,205.3,137.3,198.6,132.7,192z M167.2,192.1c-1.6,2.3-3.1,5-5,7.1c-7.8,8.6-10.8,18.6-9.2,30
	c0.4,2.6-0.4,5.3,0.4,8.2C162.9,223.5,171.9,209.9,167.2,192.1z M189.5,126.6c3.8-5.5,7.6-10.8,11.3-16.2c0.4-0.6,0.7-1.3,0.7-2
	c0.9-8.7,1.8-17.5,2.8-26.3c-5.1,5.8-9.6,11.9-14.1,18.1c-0.4,0.6-0.7,1.3-0.7,2C189.5,110.2,189.5,118.2,189.5,126.6z M96.5,81.9
	C96.2,82,96,82,95.8,82.1c0.5,5.2,1.4,10.3,1.4,15.5c-0.1,9,3.4,16.4,9.2,23c1.6,1.8,2.9,3.9,4.2,5.8c0-8.1,0-15.9,0-23.8
	c0-1.2-0.4-2.1-1.2-3C105.1,93.7,100.8,87.8,96.5,81.9z M233.1,173.8c0.1-0.1,0.3-0.4,0.4-0.5c-4.3-4.9-9-9.5-12.9-14.6
	c-6.3-8.4-16.2-8.5-24.7-12.3c4.5,6.7,9.4,13,14.3,19.2c0.4,0.5,1.2,0.9,1.8,1.1C219.2,169,226.2,171.4,233.1,173.8z M66.4,173.2
	c0.1,0.2,0.2,0.4,0.3,0.6c7.3-2.5,14.5-5,21.7-7.6c0.7-0.3,1.5-0.9,2-1.6c4.4-5.6,8.7-11.3,13-17c0.4-0.4,0.9-0.9,0-1.7
	c-5.9,2.2-11.9,4.4-17.9,6.7c-0.8,0.3-1.5,0.8-2.1,1.4C77.8,160.4,72.1,166.8,66.4,173.2z M139.8,105.7c-0.7-1.3-0.9-1.7-1.2-2.1
	c-6.3-9.4-13.5-17.7-25-20.8c-3.6-1-7-3-10.5-4.5c-0.2,0.2-0.4,0.5-0.6,0.7c4.4,6.1,8.7,12.3,13.5,18.1c0.2,0.3,0.6,0.4,0.9,0.5
	C124.3,100.1,131.6,102.8,139.8,105.7z M197.6,79.1c-0.3-0.3-0.5-0.5-0.8-0.8c-5.8,2.5-11.4,5.5-17.3,7.4
	c-9.7,3.3-12.8,12.4-18.7,19.2c7.6-2.3,15-4.8,22.4-7.5c0.4-0.1,0.9-0.4,1.2-0.8C188.8,90.8,193.2,84.9,197.6,79.1z"/>
</svg>
