<?xml version="1.0" encoding="utf-8"?>
<!-- Generator: Adobe Illustrator 22.0.0, SVG Export Plug-In . SVG Version: 6.00 Build 0)  -->
<svg version="1.1" id="Layer_1" xmlns="http://www.w3.org/2000/svg" xmlns:xlink="http://www.w3.org/1999/xlink" x="0px" y="0px"
	 viewBox="0 0 300 300" style="enable-background:new 0 0 300 300;" xml:space="preserve">
<style type="text/css">
	.st0{fill:url(#SVGID_1_);}
	.st1{fill:#F42200;}
</style>
<linearGradient id="SVGID_1_" gradientUnits="userSpaceOnUse" x1="327.4519" y1="1032.4519" x2="-27.4519" y2="827.5481" gradientTransform="matrix(1 0 0 1 0 -780)">
	<stop  offset="0" style="stop-color:#00E922"/>
	<stop  offset="1" style="stop-color:#D8FF55"/>
</linearGradient>
<rect class="st0" width="300" height="300"/>
<path class="st1" d="M151,5.1c6.5,13,14.5,25.1,21.6,37.7c0.5,0.9,1,1.7,1.5,2.6c6.5,11.2,6.4,11.2,18.5,5.8
	c12.8-5.7,25.6-11.2,38.4-16.9c3.4-1.5,4.8-1.3,4.4,3c-1.8,16.4-3.2,32.8-5,49.2c-0.5,4.4,0.8,6.3,5.1,7.2
	c16,3.3,31.9,6.8,47.9,10.3c4.9,1.1,5.2,1.9,1.9,5.5c-11.1,12.4-22.1,24.9-33.3,37.2c-2.5,2.7-2.5,4.4-0.1,7.1
	c11.2,12.4,22.2,24.9,33.2,37.4c3.6,4.1,3.5,4.6-1.9,5.7c-15.8,3.5-31.5,7-47.4,10.2c-4.6,0.9-5.9,2.8-5.4,7.4
	c1.9,16,3.3,32.1,4.9,48.2c0.5,5.5,0.1,5.7-5.2,3.4c-14.3-6.3-28.7-12.6-43-18.9c-6.5-2.9-6.5-2.9-10.2,3.4
	c-8.1,13.8-16.2,27.6-24.2,41.5c-2.2,3.8-3.3,3.8-5.4,0c-8.2-14.3-16.7-28.4-24.8-42.8c-2.2-3.8-4.1-4.6-8.2-2.8
	c-14.5,6.7-29.2,13-43.9,19.4c-5.9,2.6-6.2,2.5-5.6-3.7c1.5-15.9,3-31.8,4.8-47.7c0.5-4.7-0.8-6.5-5.4-7.4
	c-15.8-3.2-31.6-6.8-47.4-10.3c-5.3-1.2-5.5-1.7-1.9-5.8c10.2-11.6,20.6-23.1,31-34.7c5.4-6,5.4-6,0.1-11.9
	c-10.5-11.7-20.8-23.4-31.2-35.1c-3.3-3.7-3-4.5,1.9-5.5c15.6-3.4,31.2-6.8,46.9-10.2c6.5-1.4,6.6-1.7,5.9-8.3
	c-1.7-15.9-3.2-31.8-4.7-47.7c-0.5-5.1,0-5.4,4.7-3.4c14.8,6.4,29.7,12.8,44.3,19.6c4.6,2.2,6.6,1.3,9-3c8.5-15.5,18.2-30.3,26.3-46
	C149.7,5.1,150.4,5.1,151,5.1z M145.7,122.8c0-5.7-0.1-11.3,0-17c0.1-2.7-1-4.3-3.6-5.2c-10.7-3.7-21.3-7.5-32-11.4
	c-3.7-1.4-5.2-0.5-5.1,3.6c0.4,11.5,0.7,22.9,1,34.4c0.1,2.3,1.1,3.7,3.3,4.4c10.9,3.7,21.7,7.3,32.6,11.1c3,1.1,3.8-0.1,3.8-3
	C145.7,134.1,145.7,128.5,145.7,122.8z M154.3,122.6c0,5.7,0.1,11.3,0,17c-0.1,3.2,0.9,4.3,4.1,3.1c10.7-3.7,21.4-7.4,32.1-10.9
	c2.4-0.8,3.4-2.2,3.5-4.8c0.3-11.3,0.5-22.6,1-33.9c0.2-4.4-1.5-5.1-5.3-3.7c-10.4,3.9-21,7.6-31.5,11.2c-2.8,1-3.9,2.6-3.8,5.5
	C154.4,111.6,154.3,117.1,154.3,122.6z M183.3,184.7c0.3,0,0.7,0,1-0.1c11.8-3.5,23.6-7,35.4-10.4c3.3-1,2.1-2.5,0.8-4.3
	c-7.2-9.3-14.5-18.6-21.6-28c-1.6-2.1-3.1-2.5-5.6-1.7c-10.8,3.7-21.7,7.4-32.6,10.9c-2.8,0.9-2.9,2.1-1.3,4.3
	c6.7,8.9,13.3,17.9,19.9,26.8C180.3,183.6,181.4,184.9,183.3,184.7z M115.9,184.7c2.4,0.5,3.7-1,5-2.6c6.5-8.8,13-17.7,19.6-26.4
	c1.7-2.3,1.8-3.6-1.3-4.6c-10.9-3.5-21.8-7.2-32.6-10.9c-1.9-0.7-3.5-0.7-4.8,1.1c-7.5,9.8-15,19.5-22.5,29.2
	c-1.3,1.7-1.5,2.9,1,3.6C92,177.6,104,181.2,115.9,184.7z M149,158.8c-0.2,0.2-0.6,0.9-1.1,1.6c-6.8,9.3-13.6,18.5-20.4,27.8
	c-1.5,2-1.1,3.6,0.1,5.5c6.8,9.9,13.6,19.7,20.4,29.7c1.5,2.1,2.6,2.2,4,0c6.7-9.9,13.5-19.8,20.4-29.6c1.4-2.1,1.4-3.8-0.1-5.9
	c-6.7-8.9-13.2-18-19.9-26.9C151.7,160,151.2,158.8,149,158.8z M183.2,226.6c0.6,4.1-1.6,8.6,3.9,11c11.7,4.8,23.2,10.1,34.7,15.2
	c2.2,1,3.5,1,3.2-2c-1.3-12.9-2.5-25.8-3.8-38.7c-0.2-2.6-1.4-4.2-4.1-5c-9.6-2.9-19.1-5.8-28.6-9c-3.5-1.2-4.5,0.1-4.5,3.4
	C184.3,210,183.9,218.5,183.2,226.6z M116.7,226c-0.7-6.9-1-15.5-0.8-24.2c0.1-4.2-1.6-4.7-5.2-3.5c-8.8,2.9-17.7,5.8-26.7,8.3
	c-3.6,1-5.2,3.1-5.5,6.6c-1.1,12.3-2.2,24.5-3.5,36.7c-0.4,3.8,0.8,3.9,3.8,2.5c10.2-4.6,20.4-9.1,30.6-13.5
	C116.8,235.8,116.8,235.9,116.7,226z M70.9,101.2c-13.5,3-27,5.9-40.5,9c-2.7,0.6-1.3,2.1-0.3,3.2c8.6,9.7,17.3,19.3,25.9,29.1
	c1.9,2.2,3.8,2.1,6.2,1.2c9.5-3.6,19-7.2,28.6-10.6c2.7-0.9,3.6-1.9,1.7-4.5c-5.9-8.2-11.8-16.6-17.6-24.9
	C74,102.3,72.9,101.1,70.9,101.2z M230.6,101.6c-3.3-0.6-4.5,0.6-5.7,2.2c-5.8,8.2-11.5,16.4-17.3,24.5c-1.9,2.7-1.5,3.8,1.6,4.9
	c9.3,3.3,18.5,6.6,27.6,10.3c3.5,1.4,5.8,0.7,8.2-2.1c6.8-8,13.8-15.8,20.8-23.6c6.4-7.2,6.4-7.1-3.2-9.2
	C251.6,106.2,240.5,103.8,230.6,101.6z M150.5,23.1c-1.7,0.1-2,1.4-2.6,2.3c-6.4,10.9-12.7,21.9-19.2,32.8c-1.5,2.6-1.3,4.5,0.5,6.7
	c6.2,7.7,12.2,15.4,18.2,23.2c2,2.6,3.3,2.6,5.2,0c5.9-7.8,12-15.6,18.2-23.2c1.8-2.3,2.1-4.2,0.5-6.7
	c-6.5-10.9-12.8-21.8-19.2-32.8C151.6,24.6,151,23.8,150.5,23.1z M261.6,192.5c0-0.4,0.1-0.9,0.1-1.3c-5.4-1.9-11-3.3-16.1-5.8
	c-10.4-5-20.5-4.9-31.1-0.5c-5.5,2.3-11.5,3.5-17.3,5.3c7.3,3.5,14.5,5.8,21.7,8.1c2.4,0.8,4.7,2,7.3,1.5
	C238,197.5,249.8,195,261.6,192.5z M102.7,191.6c0-0.4,0-0.9,0-1.3c-6.4-1.9-13-3.4-19.3-5.9c-9.1-3.6-17.8-3.9-26.9,0.4
	c-4.8,2.3-10,3.5-15,5.3c-1.1,0.4-2.6,0.4-3.1,2.4c10.2,2.2,20.3,4.4,30.4,6.5c2.1,0.4,4.4,1.3,6.4,0.7
	C84.5,197.2,93.6,194.3,102.7,191.6z M126.3,207.5c-0.3,0.2-0.5,0.4-0.8,0.6c0,7.8-0.2,15.6,0.1,23.4c0.1,3.2,0.3,6.6,2.2,9.6
	c5.2,8.5,10.1,17.2,15.2,25.8c0.6,1,0.7,2.7,2.7,2.5c0-10.4,0-20.7,0-31c0-1.1-0.1-2.5-0.7-3.3C138.8,225.8,132.6,216.6,126.3,207.5
	z M173.7,207.7c-2.2,3.2-4.2,6.8-6.8,9.7c-10.7,11.8-14.8,25.5-12.6,41.2c0.5,3.6-0.5,7.3,0.6,11.2
	C167.7,250.8,180.1,232.2,173.7,207.7z M204.3,117.7c5.2-7.5,10.4-14.8,15.5-22.2c0.5-0.8,0.9-1.8,1-2.8c1.3-12,2.5-24,3.8-36.1
	c-7,8-13.2,16.4-19.3,24.8c-0.6,0.8-0.9,1.8-0.9,2.8C204.3,95.2,204.3,106.2,204.3,117.7z M76.5,56.4c-0.3,0.1-0.6,0.1-0.9,0.2
	c0.7,7.1,1.9,14.2,1.9,21.3c-0.1,12.4,4.7,22.5,12.6,31.6c2.2,2.5,4,5.4,5.8,7.9c0-11.1,0-21.9,0-32.7c0-1.6-0.6-2.9-1.6-4.1
	C88.3,72.5,82.4,64.5,76.5,56.4z M264.2,182.5c0.2-0.2,0.4-0.5,0.6-0.7c-5.9-6.7-12.4-13-17.7-20.1c-8.6-11.5-22.3-11.7-33.9-16.9
	c6.2,9.2,12.9,17.8,19.7,26.3c0.6,0.7,1.6,1.2,2.5,1.5C245.1,175.9,254.6,179.2,264.2,182.5z M35.2,181.8c0.1,0.3,0.3,0.5,0.4,0.8
	c10-3.5,19.9-6.9,29.8-10.4c1-0.4,2-1.3,2.7-2.2c6-7.7,12-15.5,17.9-23.3c0.5-0.6,1.2-1.3,0-2.3c-8.1,3-16.4,6-24.6,9.2
	c-1.1,0.4-2.1,1.1-2.9,1.9C50.8,164.2,43,173,35.2,181.8z M136,89c-1-1.8-1.3-2.4-1.7-2.9c-8.7-12.9-18.5-24.3-34.4-28.6
	c-5-1.4-9.6-4.1-14.4-6.2c-0.3,0.3-0.6,0.7-0.8,1c6,8.4,12,16.9,18.6,24.8c0.3,0.4,0.8,0.5,1.3,0.7C114.7,81.4,124.7,85,136,89z
	 M215.4,52.5c-0.4-0.4-0.7-0.7-1.1-1.1c-7.9,3.5-15.6,7.5-23.7,10.2c-13.3,4.5-17.6,17-25.7,26.4c10.5-3.1,20.6-6.6,30.8-10.3
	c0.6-0.2,1.3-0.6,1.6-1.1C203.3,68.6,209.4,60.5,215.4,52.5z"/>
</svg>
