<svg id="Layer_1" data-name="Layer 1" xmlns="http://www.w3.org/2000/svg" viewBox="0 0 127.54 122.18"><defs><style>.cls-1,.cls-2,.cls-3{fill:none;stroke:#000;}.cls-1,.cls-2{stroke-miterlimit:10;}.cls-2,.cls-3{stroke-linecap:round;stroke-width:2px;}.cls-3{stroke-linejoin:bevel;}</style></defs><title>Artboard 1</title><path class="cls-1" d="M19.2,10.57c.88,0,1.77,0,2.65,0,1.86-.14,3.26-.22,3.09,2.52-.14,2.08,2.24,3.55,4.47,3.37a3.93,3.93,0,0,0,3.8-4.13c-.15-1.76.59-1.81,1.86-1.76,1.12,0,2.25,0,3.37,0,2.07-.09,4-.47,3.81,2.86-.12,1.85,2.17,3.15,4.24,3a3.78,3.78,0,0,0,3.86-3.79c-.11-1.95.66-2.26,2.29-2.12a29.14,29.14,0,0,0,3.62,0c1.81-.09,3.3-.3,3.12,2.51-.14,2.14,2.2,3.56,4.44,3.39a3.91,3.91,0,0,0,3.79-3.9c-.11-1.83.53-2.18,2.11-2a19.91,19.91,0,0,0,2.89,0c2.07-.07,4.15-.63,4,2.85-.07,2,2.36,3.26,4.49,3a3.9,3.9,0,0,0,3.69-4c-.17-1.86.61-2,2-1.89,1.12,0,2.25,0,3.37,0,2-.06,3.93-.56,3.67,2.76-.16,1.94,2.25,3.31,4.39,3.13A3.77,3.77,0,0,0,102,12.54c-.13-1.91.66-2,2.17-2,2.65.09,5.3.08,8,0,1.14,0,1.55.32,1.52,1.47-.07,2.88,0,5.75,0,8.62,0,1-.24,1.33-1.32,1.45-2.83.29-4.35,1.85-4.36,4.15s1.48,3.94,4.28,4.26c1.21.14,1.47.58,1.4,1.63a28.8,28.8,0,0,0,0,3.35c.13,2.12.33,3.89-2.87,4.06-1.93.1-2.92,2.14-2.76,4.2s1.32,3.6,3.41,3.72,2.41,1,2.23,2.66a13.77,13.77,0,0,0,0,2.87c.2,2,.09,3.37-2.59,3.6-2.16.18-3.19,2.07-3,4.22s1.37,3.77,3.58,3.81c2,0,2.24,1,2,2.52-.39,2.68.64,4.35,2.87,6.11,8.83,7,12.29,16.31,9.81,27.22s-9.61,18-20.6,20.46-20.23-1.18-27.45-9.8c-.62-.74-.65-1.92-2.59-.87s-4.7.26-7.11.21c-1,0-.72-.85-.83-1.44-.45-2.45-1.94-3.89-4.09-4s-4,1.33-4.36,3.92c-.21,1.42-.82,1.65-2,1.57a23.69,23.69,0,0,0-3.37,0c-2,.16-3.41.1-3.68-2.58-.19-2-2.1-3-4.16-2.86s-3.68,1.23-3.82,3.31-1.21,2.26-2.82,2.13a14.92,14.92,0,0,0-2.41,0c-2.08.14-3.74.17-4.06-2.74-.23-2-2.21-2.88-4.26-2.69a3.73,3.73,0,0,0-3.72,3.45c-.14,1.78-.88,2.06-2.4,2-2.49-.1-5-.08-7.47,0-1.31,0-1.88-.31-1.83-1.73.1-2.78.06-5.58,0-8.37,0-1,.29-1.31,1.33-1.44,2.91-.36,4.5-2,4.42-4.37s-1.6-3.76-4.46-4.08c-1.11-.12-1.32-.54-1.28-1.48,0-1.2,0-2.39,0-3.59-.08-2-.46-3.8,2.72-3.9,2-.07,3-2,3-4a4,4,0,0,0-3.7-4c-2-.05-2.16-1-2-2.5a21.14,21.14,0,0,0,0-2.87c-.1-2-.34-3.63,2.72-3.67,1.93,0,3.07-2,3-4s-1.25-3.79-3.45-4S13,55.39,13.21,53.62a12.72,12.72,0,0,0,0-2.39c-.11-2-.28-3.77,2.78-3.93,2-.1,3.05-2,2.93-4.08s-1.34-3.83-3.53-3.88-2.32-1-2.18-2.65c0-.63,0-1.27,0-1.91,0-2.16-.68-4.49,3-4.7,1.94-.1,2.91-2.21,2.68-4.23a3.81,3.81,0,0,0-3.76-3.71c-1.89,0-2-.87-2-2.33.09-2.47.12-4.95,0-7.42-.08-1.52.46-2,1.91-1.84S17.83,10.57,19.2,10.57ZM29.72,60.36q0,15.69,0,31.36c0,1.21-.23,2.34,1.72,2.33C44.61,94,57.78,94,71,94c1.07,0,1.47-.27,1.63-1.43,1.87-13.76,9.44-22,22.89-24.84,1.27-.27,1.66-.68,1.65-2,0-12.29-.06-24.58,0-36.86,0-1.62-.51-2-2-2Q63.52,27,32,26.94c-1.85,0-2.29.55-2.27,2.31C29.76,39.62,29.72,50,29.72,60.36ZM63.38,24.09c11.41,0,22.82,0,34.23,0,1.83,0,2.48.38,2.43,2.34-.13,6-.05,12-.05,18,0,7,0,14,0,21.07,0,.74-.55,2,.91,2a27.07,27.07,0,0,1,8.67,1.82c.36.14.82.34,1-.2a2,2,0,0,0,0-1.17c-.21-.59-.88-.62-1.37-.86A6.9,6.9,0,0,1,105,60.55a6.73,6.73,0,0,1,4.17-6.46c.94-.43,1.54-.82,1.55-2a2.16,2.16,0,0,0-1.6-2.24A6.69,6.69,0,0,1,105,43.33a6.69,6.69,0,0,1,4-6.31c1-.49,1.66-.89,1.68-2.21S110,33.14,109,32.65c-5-2.61-5.53-9.59-.63-12.27a3.83,3.83,0,0,0,2.27-4.51c-.12-.85.72-2.51-1-2.32s-3.93-1.38-5,1.12c-1.32,3-3.54,4.72-6.87,4.69a6.69,6.69,0,0,1-6.59-4.68,1.67,1.67,0,0,0-1.93-1.25,1.71,1.71,0,0,0-1.9,1.31A7.14,7.14,0,0,1,74,14.81a1.77,1.77,0,0,0-1.87-1.39,1.89,1.89,0,0,0-2.06,1.46,7.13,7.13,0,0,1-13.24,0,1.92,1.92,0,0,0-2-1.47c-1.29-.09-1.56.64-2,1.56a6.76,6.76,0,0,1-6.57,4.39A6.79,6.79,0,0,1,39.65,15c-.38-.86-.54-1.67-1.91-1.64S36,14,35.58,15a6.69,6.69,0,0,1-6.36,4.32c-2.91.08-5.37-1.13-6.41-3.79-.82-2.08-2-2.34-3.84-2.11-.92.12-2-.45-2.74.38-.91,1.08.23,5.35,1.49,6a6.9,6.9,0,0,1,4.12,6.51,6.73,6.73,0,0,1-4.24,6.41c-1,.44-1.51.82-1.53,2s.54,1.73,1.61,2.21a6.68,6.68,0,0,1,4.16,6.46,6.68,6.68,0,0,1-4.21,6.43,2.12,2.12,0,0,0-1.57,2.23c0,1.26.67,1.55,1.57,2a6.79,6.79,0,0,1,4.21,6.44A6.68,6.68,0,0,1,17.68,67a2.2,2.2,0,0,0-1.62,2.21c-.06,1.43.86,1.64,1.77,2.1a6.79,6.79,0,0,1,4,6.33A6.7,6.7,0,0,1,17.92,84c-1,.52-1.9.81-1.87,2.32s.86,1.64,1.8,2.11a6.78,6.78,0,0,1,4,6.1c.12,2.77-1,5.23-3.54,6.3-2.15.91-2.38,2.22-2.17,4,.1.92-.46,2,.43,2.71,1.15.88,5.39-.2,6.07-1.47a6.94,6.94,0,0,1,6.44-3.91,6.7,6.7,0,0,1,6.35,4,2.19,2.19,0,0,0,2.3,1.54c1.2,0,1.63-.55,2.08-1.51a6.74,6.74,0,0,1,6.34-4,6.76,6.76,0,0,1,6.54,4.09,2,2,0,0,0,2.13,1.44A2.08,2.08,0,0,0,57,106.31a6.69,6.69,0,0,1,6.5-4.14,6.5,6.5,0,0,1,6.33,4,2.28,2.28,0,0,0,3.28,1.35,2.42,2.42,0,0,0,1.25-3.19A19.24,19.24,0,0,1,73,99.28c-.09-1.94-.91-2.47-2.85-2.46-13.57.09-27.15,0-40.73.09-1.88,0-2.63-.32-2.62-2.44q.11-34,0-68c0-2.1.71-2.46,2.61-2.45C40.73,24.13,52.06,24.09,63.38,24.09ZM124.09,92c0-3-1.77-8.07-5.26-12.49a22.6,22.6,0,0,0-6.26-5.55c-1.86-1.1-3,.14-4,1.49-1.07,1.59.76,1.61,1.43,2a20.1,20.1,0,0,1,8.68,10.82,17.93,17.93,0,0,1-.46,13.54c-1.92,4.22-4.15,8.21-8.89,10.21a24.69,24.69,0,0,1-13.08,2.12c-3.92-.49-6.75-3.68-10.77-3.73-.77,0-.48-1-.61-1.64a4.34,4.34,0,0,0-3.62-3.67,2.49,2.49,0,0,0-2.65.66c-.52.73.39,1.43.8,2.06a24.36,24.36,0,0,0,27.19,10C116.94,114.78,124.1,105.25,124.09,92ZM100,87.19c0,2.32-.13,4.64,0,6.94.16,2.09-.37,2.92-2.69,2.8-4.08-.21-8.18,0-12.27-.1-2.06-.07-2.3.71-1.76,2.39a17.72,17.72,0,0,0,4.21,7.15c1.88,1.94,2.72,1.83,4.07-.52,2.69-4.68,9.44-5.06,12.12-.46,1.12,1.93,2.31,2.6,4.29,2.25.93-.17,2.72.82,2.58-1s1.46-4-1.19-5.25a6.88,6.88,0,0,1-4.36-6.6,6.73,6.73,0,0,1,4.42-6.53,1.79,1.79,0,0,0,1.25-2c0-.94-.13-1.61-1.22-2a5.71,5.71,0,0,1-3.89-4c-.47-2.22-2-2.37-3.66-2.64-1.38-.23-2.06,0-2,1.67C100.1,81.93,100,84.56,100,87.19Zm-2.88-.67c0-2.55-.12-4.62,0-6.68.13-1.84-.54-2.21-2.18-1.67-6.26,2.1-10.3,6.25-11.85,12.66C82.35,94,82.43,94,85.79,94c1.12,0,2.24,0,3.36,0,2.55-.05,6,.85,7.42-.43C98.25,92.1,96.87,88.63,97.11,86.52Zm0-14c-.44-.49,1.09-2.26-1.25-2-10.16,1.12-20,11.58-20.34,21.83,0,.64-.34,1.39.81,1.63,2.34.49,3.28-.06,3.72-2.35,1.67-8.77,6.78-14.39,15.56-16.51C97.11,74.79,97.22,74,97.06,72.57Zm16.76,31c4.06-3.86,4-14.69-.25-18.35,0,.73,0,1.35,0,2,.14,1.87.31,3.43-2.53,3.56-2,.09-3.1,1.93-3.11,4s1,3.82,3.07,4c2.59.24,2.84,1.54,2.59,3.55C113.54,102.71,113.33,103.24,113.82,103.6Zm-9.49,7.06c-2.36.48-2.1-1.09-2.37-2.31A4.07,4.07,0,0,0,97.82,105a4.24,4.24,0,0,0-4.13,3.35c-.29,1.38,0,2.23,1.58,2.58A15.47,15.47,0,0,0,104.33,110.66Zm3.55-38.91a18.94,18.94,0,0,0-6.52-1.38c-.81,0-1.53,0-1.34,1.08s-.76,2.59.68,3.15a11,11,0,0,0,4.24.56c1.06,0,1-1.48,1.75-2.09A15.5,15.5,0,0,0,107.88,71.75ZM75.58,98c.73,1.59-.1,4,2,4.71.67.21,3,.24,3.32-1.26.48-2.1-1.39-4.63-3-4.52C77.11,97,75.74,96.19,75.58,98Z"/><g id="Layer_1-2" data-name="Layer 1"><line class="cls-2" x1="63.15" y1="39.09" x2="63.15" y2="81.89"/><line class="cls-2" x1="41.55" y1="60.49" x2="84.75" y2="60.49"/><line class="cls-3" x1="41.55" y1="39.09" x2="41.55" y2="81.89"/><line class="cls-3" x1="41.55" y1="39.09" x2="63.15" y2="39.09"/><line class="cls-2" x1="84.75" y1="39.09" x2="84.75" y2="81.89"/><line class="cls-2" x1="84.75" y1="39.09" x2="82.71" y2="39.09"/><line class="cls-2" x1="84.75" y1="81.89" x2="82.71" y2="81.89"/><line class="cls-2" x1="43.59" y1="81.89" x2="41.55" y2="81.89"/></g></svg>