<?xml version="1.0" encoding="utf-8"?>
<!-- Generator: Adobe Illustrator 22.0.0, SVG Export Plug-In . SVG Version: 6.00 Build 0)  -->
<svg version="1.1" id="Layer_1" xmlns="http://www.w3.org/2000/svg" xmlns:xlink="http://www.w3.org/1999/xlink" x="0px" y="0px"
	 viewBox="0 0 100 100" style="enable-background:new 0 0 100 100;" xml:space="preserve">
<style type="text/css">
	.st0{fill:#FFFFFF;}
</style>
<g id="RzFFpT.tif">
	<g>
		<path class="st0" d="M1.5,27.6C1.4,20.8,2.2,15,5.1,9.7c2.5-4.6,6.3-7.8,11.4-9s9.6,0.6,13.4,4c5.4,4.8,8.2,11,9.2,18.1
			c0.7,5,0.4,10,0,15c-0.4,5.3-0.5,10.5,0.7,15.7c0,0.1,0,0.1,0.1,0.2c0.3,1.7,0.3,1.7-1.3,2.1c-7.7,1.9-15.3,3.8-23,5.8
			C15,61.9,14.4,62,14,61.2c-3.1-6.1-6.4-12.1-9.3-18.3C2.4,37.7,1.2,32.4,1.5,27.6z"/>
		<path class="st0" d="M93.7,64.7c0,1.4,0,2.7,0,4.1c0,0.6-0.2,0.9-0.8,1.1c-7.9,2.2-15.8,4.4-23.7,6.7c-0.6,0.2-1.1,0.1-1.3-0.6
			c-1.9-6.5-6-11.7-9.6-17.2c-2.3-3.5-4.4-7.1-5.9-11.1c-2.3-6.5-2.6-13.1-0.1-19.7c1.6-4.2,4.5-7.4,8.7-9c3.3-1.2,6.7-1.1,10.1-0.2
			c4.8,1.3,8.5,4.4,11.7,8.1c3.4,4,5.9,8.4,8,13.2c1.5,3.5,1.8,7.3,2.1,11C93.4,55.6,93.5,60.1,93.7,64.7L93.7,64.7z"/>
		<path class="st0" d="M97,86.8c0.6,7.3-6.3,11.8-11.7,12.7c-1.8,0.3-3.7,0.4-5.5,0.1c-4.7-0.8-7.6-3.6-9.4-7.9
			c-1.2-2.9-1.3-6-1.3-9c0-3.3-0.4-2.5,2.5-3.4c7.2-2.1,14.4-4.1,21.6-6.1c0.9-0.3,1.2-0.1,1.5,0.8C95.7,78.2,97,82.2,97,86.8z"/>
		<path class="st0" d="M45.5,69.4c-0.1,3.7-1.5,6.9-4.6,9.2c-3.9,2.9-8.2,4.1-13.1,3.2c-4.2-0.8-7.1-3.2-8.9-7
			c-1.4-2.9-2.1-6-2.9-9.1c-0.2-0.9,0.4-0.9,0.9-1c4.9-1.2,9.8-2.5,14.6-3.7c2.9-0.7,5.8-1.4,8.8-2.2c0.8-0.2,1.2,0,1.7,0.7
			C44.7,63.1,45.3,65.4,45.5,69.4z"/>
	</g>
</g>
</svg>
