<?xml version="1.0" encoding="utf-8"?>
<!-- Generator: Adobe Illustrator 22.0.0, SVG Export Plug-In . SVG Version: 6.00 Build 0)  -->
<svg version="1.1" id="Layer_1" xmlns="http://www.w3.org/2000/svg" xmlns:xlink="http://www.w3.org/1999/xlink" x="0px" y="0px"
	 viewBox="0 0 300 300" style="enable-background:new 0 0 300 300;" xml:space="preserve">
<style type="text/css">
	.st0{fill:url(#SVGID_1_);}
	.st1{fill:#FEFEFE;}
</style>
<linearGradient id="SVGID_1_" gradientUnits="userSpaceOnUse" x1="47.5481" y1="-227.4519" x2="252.4519" y2="127.4519" gradientTransform="matrix(1 0 0 1 0 200)">
	<stop  offset="0" style="stop-color:#E9001A"/>
	<stop  offset="1" style="stop-color:#FF1591"/>
</linearGradient>
<rect class="st0" width="300" height="300"/>
<path class="st1" d="M252.6,148.3c-0.1-7.9-1.1-15.7-3-23.3c-5-19.6-14.9-36.5-29.8-50.3c-18.3-16.7-39.9-25.8-64.7-27.3
	c-0.3-0.1-0.7,0-0.9,0c-0.2,0-0.7,0-0.9,0c-0.5,0-1.1,0.1-1.7-0.1c-1.1,0-2.2,0-3.4,0c-0.5,0.2-1.1,0-1.7,0.1c-0.3,0-0.7,0-0.9,0
	c-0.2,0-0.7,0-0.9,0c-3.9,0.2-7.7,0.7-11.6,1.2c-9.8,1.6-19.1,4.6-28.2,8.9C91,64.6,79,74.2,69.2,86.6c-14.9,19.1-22.1,40.8-21.9,65
	c0.1,8.3,1.2,16.4,3.3,24.3c4.6,17.3,13.1,32.6,25.6,45.4c8.3,8.7,18,15.6,28.8,21c10.7,5.1,21.9,8.4,33.6,9.8
	c7.4,0.8,14.8,0.8,22.1,0c7.3-0.8,14.3-2.2,21.3-4.6c16.7-5.5,31-14.7,43-27.6c7.3-7.7,13.1-16.4,17.7-26.1
	C249.5,179.5,252.8,164.3,252.6,148.3z M62.7,128c3.8-15.2,11-28.4,21.8-39.7c12.8-13.5,28.2-22.2,46.3-26.2c5.7-1.3,11.5-2,17.3-2
	c7.9-0.2,15.7,0.8,23.3,2.5c0.8,0.2,0.9,0.5,0.9,1.2c0,11.3,0,22.5,0,33.8c0,0.7-0.1,0.9-0.8,0.8c-0.9-0.1-1.8,0-2.9,0
	c-0.5,0-0.7-0.2-0.7-0.7c0-6.3,0-12.8,0-19.1c0-2.9,0-5.7,0-8.4c0-0.7-0.2-0.8-0.8-0.7c-4.8,0-9.5,0-14.3,0c-0.7,0-0.8,0.2-0.8,0.8
	c0,9.1,0,18.2,0,27.3c0,0.8-0.2,0.9-0.9,0.9c-0.9-0.1-1.8,0-2.8,0c-0.5,0-0.7-0.2-0.7-0.7c0-4.6,0-9.1,0-13.6c0-4.7,0-9.2,0-14
	c0-0.7-0.2-0.8-0.8-0.8c-4.8,0-9.5,0-14.3,0c-0.7,0-0.8,0.2-0.8,0.8c0,9.1,0,18.2,0,27.3c0,0.8-0.2,0.9-0.9,0.9
	c-0.9-0.1-1.8,0-2.9,0c-0.5,0-0.5-0.1-0.5-0.5c0-1.1,0-2.2,0-3.3c0-8.1,0-16.1,0-24.3c0-0.8-0.2-0.8-0.8-0.8c-4.7,0-9.5,0-14.1,0
	c-0.7,0-0.8,0.1-0.8,0.8c0,8.2,0,16.4,0.1,24.6c0,0.8-0.1,1-0.9,1c-9.1,0-18.2,0-27.3,0c-0.7,0-0.8,0.2-0.8,0.8
	c0,10.1,0,20.2,0,30.3c0,0.7,0.2,0.8,0.8,0.8c7,0,14,0,21-0.1c0.1,0,0.3,0,0.5,0c-2.4,9-0.5,17.3,3.8,25.3c-0.3,0-0.5,0-0.7,0
	c-9.9,0-19.8,0-29.7,0c-0.7,0-0.8-0.1-0.8-0.8c0-2.8,0-5.4,0-8.1c0-1.6-0.1-3,0-4.6c0-0.7-0.1-0.8-0.8-0.8c-5.3,0-10.4,0-15.6,0
	c-0.3,0-0.5,0-0.9,0C61.2,135,61.9,131.6,62.7,128z M98.4,223.2c0,0.1,0,0.2,0,0.4c-9.5-6.7-17.3-14.9-23.7-24.6
	c0.2-0.3,0.4-0.2,0.7-0.2c7.5,0,14.9,0,22.5,0c0.5,0,0.8,0,0.8,0.7C98.4,207.3,98.4,215.2,98.4,223.2z M239.1,162.6
	c-2.4,16.4-8.8,31.1-19.1,43.9c-3.8,4.8-8.1,9.1-12.8,12.8c-0.3-0.1-0.2-0.3-0.2-0.5c0-16.4,0-32.8,0-49.2c0-0.5,0.1-0.7,0.5-0.9
	c2-1.5,2.6-3.8,2-6.2c-0.7-2.3-2.6-3.8-5-4c-2.3-0.1-4.5,1.4-5.3,3.6c-0.9,2.3-0.2,4.9,1.7,6.5c0.4,0.3,0.5,0.7,0.5,1.1
	c0,17.8,0,35.6,0,53.3c0,0.5-0.2,0.8-0.7,1.1c-10.9,7.4-22.8,12.2-35.8,14.3c-8.2,1.4-16.4,1.6-24.6,0.7c-0.7-0.1-0.5-0.5-0.5-0.8
	c0-7,0-14,0-21c0-2.3,0-4.6,0-7c0-0.5,0.1-0.7,0.5-0.7c7.5,0,15,0,22.6,0c0.5,0,0.5,0.2,0.5,0.7c0,3.7,0,7.4,0,11.1
	c0,0.5-0.1,0.7-0.7,0.7c-2,0-4.1,0-6.1,0c-0.5,0-0.7-0.2-0.9-0.5c-1.6-2-4.1-2.8-6.3-2c-2.3,0.8-3.8,3.2-3.7,5.6
	c0.1,2.5,1.8,4.5,4.2,5.1c2.1,0.5,4.4-0.3,5.8-2.1c0.3-0.4,0.5-0.5,1-0.5c4,0,7.8,0,11.6,0c0.7,0,0.8-0.2,0.8-0.8
	c0-7.4,0-14.9,0-22.3c0-0.7-0.2-0.8-0.8-0.8c-11.3,0-22.6,0-33.9,0c-0.7,0-0.8,0.2-0.8,0.8c0,10.8,0,21.6,0,32.4
	c0,0.9,0,0.9-0.9,0.8c-10.1-2-19.5-5.5-28.5-10.7c-0.3-0.2-0.5-0.4-0.5-0.8c0-9.2,0-18.2,0-27.4c0-0.4,0.1-0.5,0.5-0.5
	c1.7,0,3.5,0,5.3,0c0.4,0,0.7,0.2,0.8,0.5c1.5,2,4,2.8,6.2,2c2.3-0.8,3.8-2.9,3.8-5.3c0-2.5-1.6-4.6-3.8-5.3c-2.3-0.8-4.7,0.1-6.2,2
	c-0.3,0.3-0.5,0.5-0.9,0.5c-12.8,0-25.4,0-38.1,0c-0.4,0-0.7-0.1-0.8-0.5c-1.2-2.4-2.5-4.9-3.6-7.4c-0.3-0.5-0.2-0.7,0.5-0.7
	c10.2,0,20.3,0,30.5,0c0.4,0,0.7,0.1,0.9,0.4c1.6,2,4,2.6,6.2,1.7c2.2-0.8,3.8-3.2,3.7-5.5c-0.1-2.5-1.7-4.6-4.1-5.1
	c-2.4-0.7-4.8,0.3-6.1,2.3c-0.3,0.4-0.5,0.5-0.8,0.5c-10.8,0-21.6,0-32.5,0c-0.5,0-0.7-0.2-0.8-0.7c-0.7-2.1-1.3-4.3-1.8-6.5
	c-0.1-0.5-0.1-0.8,0.5-0.8c5.8,0,11.6,0,17.4,0c0.5,0,0.7,0.2,0.9,0.5c1.8,2.6,5.4,3,7.8,1.1c2.5-2,2.9-5.6,0.8-8.1
	c-2-2.4-5.5-2.6-7.9-0.5c-0.1,0.1-0.2,0.1-0.3,0.2c-0.7,1.2-1.7,1.2-2.9,1.2c-5.8,0-11.5,0-17.3,0c-0.5,0-0.8-0.1-0.9-0.8
	c-1.1-6.6-1.5-13.1-1-19.8c0-0.5,0.1-0.7,0.7-0.7c3.7,0,7.3,0,10.9,0c0.5,0,0.7,0.2,0.7,0.7c0,4.2,0,8.4,0,12.7c0,0.4,0,0.7,0.5,0.8
	c0.8,0.1,1.5,0.1,2.2,0.1c12.3,0,24.6,0,36.9,0c0.4,0,0.8,0,1,0.4c5,7.1,11.2,13.1,18,18.6c5.8,4.7,11.9,8.8,18.2,12.8
	c0.7,0.4,1.2,0.4,1.8,0c3.8-2.5,7.7-4.9,11.5-7.5c0.3-0.2,0.5-0.3,0.8-0.3c5.8,0,11.5,0,17.3,0c0.5,0,0.7,0.1,0.7,0.7
	c0,11.6,0,23.2,0,34.8c0,0.5-0.2,0.8-0.5,1c-2,1.6-2.8,4.2-1.8,6.5c1,2.3,3,3.7,5.7,3.5c2.3-0.1,4.3-1.8,4.9-4.2
	c0.5-2.2-0.1-4.1-1.8-5.6c-0.5-0.4-0.7-0.8-0.7-1.4c0-13.3,0-26.7,0-40c0-0.7-0.2-0.8-0.8-0.8c-5-0.1-10.1,0-15.2,0
	c-0.2,0-0.4,0-0.7,0c4.6-3.8,8.7-7.7,12.5-12c4.9-5.6,8.8-11.7,11.2-18.9c1.3-4,2-7.9,1.7-12c0-0.5,0.1-0.8,0.7-0.8
	c7.6,0,15.3,0,22.9,0c0.7,0,0.7,0.2,0.7,0.8c0,9.1,0,18.2,0,27.3c0,0.7,0.1,0.8,0.8,0.8c5.9,0,11.9,0,17.7,0
	C239,161.9,239.1,162,239.1,162.6z M239.8,155.7c0,0.5-0.2,0.5-0.7,0.5c-4.3,0-8.6,0-12.8,0c-0.5,0-0.7-0.2-0.7-0.7
	c0-11.6,0-23.1,0-34.7c0-0.5,0.2-0.8,0.5-1c2.5-2,2.9-5.3,1-7.8c-1.7-2.4-5.1-2.9-7.5-1.2c-3,2.1-3.2,6.7-0.2,9.1
	c0.4,0.3,0.5,0.5,0.5,1c0,2,0,4,0,5.9c0,0.5-0.1,0.7-0.5,0.7c-8.1,0-16.1,0-24.3,0c-0.5,0-0.7-0.2-0.8-0.7
	c-3.2-9-9.5-14.7-18.6-16.7c-7.7-1.7-14.9-0.2-21,5.1c-1.7,1.6-3,3.4-4.1,5.5c-0.1,0.2-0.2,0.5-0.4,0.7c-0.3-0.1-0.4-0.4-0.5-0.5
	c-2.9-5.8-7.6-9-13.7-10.6c-10.7-2.8-21.8,1.7-27.6,11c-0.3,0.5-0.5,0.7-1.1,0.7c-5.9,0-11.6,0-17.5,0c-0.7,0-0.8-0.2-0.8-0.8
	c0.1-6.2,0.1-12.5,0.1-18.8c0-0.7,0.2-0.8,0.8-0.8c9.2,0,18.2,0,27.4,0c0.7,0,0.8-0.2,0.8-0.8c0-8.3,0-16.5,0-24.8
	c0-0.7,0.2-0.8,0.8-0.8c0.9,0,2,0,2.9,0c0.5,0,0.7,0.2,0.7,0.7c0,4.6,0,9.1,0,13.7s0,9.2,0,13.9c0,0.5,0.1,0.8,0.8,0.8
	c4.8,0,9.5,0,14.3,0c0.7,0,0.8-0.2,0.8-0.8c0-9.1,0-18.2-0.1-27.3c0-0.7,0.1-0.9,0.8-0.8c0.9,0.1,1.8,0,2.8,0c0.7,0,0.8,0.2,0.8,0.8
	c0,8.1,0,16.1,0,24.3c0,1.1,0,2.2,0,3.4c0,0.4,0.1,0.5,0.5,0.5c4.9,0,9.8,0,14.7,0c0.7,0,0.5-0.3,0.5-0.7c0-5.4,0-10.7,0-16.1
	c0-3.8,0-7.6,0-11.5c0-0.5,0.1-0.7,0.7-0.7c1,0,2.1,0,3.2,0c0.4,0,0.5,0.1,0.5,0.5c0,7.6,0,15.3,0,22.9c0,1.7,0,3.3,0,4.9
	c0,0.4,0.1,0.5,0.5,0.5c4.9,0,9.8,0,14.7,0c0.5,0,0.5-0.3,0.5-0.7c0-2,0-4,0-5.9c0-10.7,0-21.4,0-32.1c0-0.9,0-0.9,0.8-0.7
	c12.5,4.3,23.6,11,33.2,20.1c1,0.9,2,2,2.9,3c-0.4,0-0.7,0-0.9,0c-5.1,0-10.4,0-15.5,0c-1.8,0-3.7,0.1-5.5,0.1
	c-0.5,0-0.7,0.2-0.7,0.7c0,2.4,0,4.7,0,7c0,0.5-0.1,0.8-0.5,1.1c-2.6,2-2.9,5.8-0.8,8.3c2.1,2.3,5.8,2.4,8,0.2
	c2.3-2.3,2.2-6.1-0.3-8.3c-0.7-0.5-0.8-0.9-0.8-1.7c0-1.7,0-1.7,1.7-1.7c6.5,0,13.1,0,19.5,0c0.5,0,0.8,0.1,1.1,0.5
	c8.8,11.1,14.6,23.6,17.5,37.5C239.8,139.5,240.3,147.5,239.8,155.7z"/>
</svg>
