<?xml version="1.0" encoding="utf-8"?>
<!-- Generator: Adobe Illustrator 22.0.0, SVG Export Plug-In . SVG Version: 6.00 Build 0)  -->
<svg version="1.1" id="Layer_1" xmlns="http://www.w3.org/2000/svg" xmlns:xlink="http://www.w3.org/1999/xlink" x="0px" y="0px"
	 viewBox="0 0 300 300" style="enable-background:new 0 0 300 300;" xml:space="preserve">
<style type="text/css">
	.st0{fill:url(#SVGID_1_);}
	.st1{fill:#FEFEFE;}
</style>
<linearGradient id="SVGID_1_" gradientUnits="userSpaceOnUse" x1="47.5481" y1="327.4519" x2="252.4519" y2="-27.4519" gradientTransform="matrix(1 0 0 -1 0 300)">
	<stop  offset="0" style="stop-color:#E9001A"/>
	<stop  offset="1" style="stop-color:#FF1591"/>
</linearGradient>
<rect class="st0" width="300" height="300"/>
<path class="st1" d="M286.6,147.7c-0.1-10.5-1.5-20.9-4-31c-6.6-26.1-19.8-48.6-39.7-67c-24.4-22.3-53.1-34.4-86.1-36.3
	c-0.4-0.1-0.9,0-1.2,0s-0.9,0-1.2,0c-0.7,0-1.5,0.1-2.2-0.1c-1.5,0-2.9,0-4.5,0c-0.7,0.2-1.5,0-2.2,0.1c-0.4,0-0.9,0-1.2,0
	s-0.9,0-1.2,0c-5.2,0.3-10.3,0.9-15.4,1.6c-13.1,2.1-25.5,6.1-37.5,11.9C71.4,36.2,55.4,49,42.4,65.6C22.6,91,13,119.9,13.3,152.1
	c0.1,11,1.6,21.8,4.4,32.3c6.1,23.1,17.5,43.4,34.1,60.5c11.1,11.6,24,20.8,38.4,27.9c14.2,6.8,29.1,11.2,44.7,13
	c9.8,1.1,19.7,1.1,29.4,0c9.7-1,19.1-2.9,28.3-6.1c22.2-7.3,41.3-19.6,57.3-36.7c9.7-10.3,17.5-21.9,23.6-34.7
	C282.5,189.3,286.9,169,286.6,147.7z M33.7,120.7c5.1-20.2,14.7-37.8,29-52.8c17-18,37.5-29.6,61.7-34.9c7.6-1.7,15.3-2.6,23.1-2.7
	c10.5-0.2,20.9,1,31,3.3c1,0.2,1.2,0.6,1.2,1.6c0,15,0,29.9,0,45c0,0.9-0.1,1.2-1.1,1.1c-1.2-0.1-2.4,0-3.8,0
	c-0.7,0-0.9-0.2-0.9-0.9c0-8.4,0-17,0-25.4c0-3.8,0-7.6,0-11.2c0-0.9-0.2-1-1-0.9c-6.4,0-12.7,0-19.1,0c-0.9,0-1.1,0.2-1.1,1.1
	c0,12.1,0,24.2,0,36.3c0,1-0.2,1.2-1.2,1.2c-1.2-0.1-2.4,0-3.7,0c-0.7,0-0.9-0.2-0.9-0.9c0-6.1,0-12.1,0-18.1c0-6.2,0-12.3,0-18.6
	c0-0.9-0.2-1-1-1c-6.4,0-12.7,0-19.1,0c-0.9,0-1.1,0.2-1.1,1.1c0,12.1,0,24.2,0,36.3c0,1-0.2,1.2-1.2,1.2c-1.2-0.1-2.4,0-3.8,0
	c-0.6,0-0.7-0.1-0.7-0.7c0-1.5,0-2.9,0-4.4c0-10.8,0-21.5,0-32.4c0-1-0.2-1.1-1.1-1.1c-6.2,0-12.6,0-18.8,0C99.2,42.9,99,43,99,44
	c0,10.9,0,21.9,0.1,32.7c0,1-0.1,1.3-1.2,1.3c-12.1,0-24.3,0-36.4,0c-0.9,0-1.1,0.2-1.1,1.1c0,13.4,0,26.9,0,40.3c0,0.9,0.2,1,1,1
	c9.3,0,18.7,0,28-0.1c0.1,0,0.4,0,0.6,0c-3.2,12-0.6,23,5,33.7c-0.4,0-0.6,0-0.9,0c-13.2,0-26.3,0-39.5,0c-0.9,0-1.1-0.1-1.1-1.1
	c0-3.7,0-7.2,0-10.8c0-2.1-0.1-4,0-6.1c0-0.9-0.1-1-1-1c-7,0-13.9,0-20.8,0c-0.4,0-0.7,0-1.2,0C31.7,130,32.6,125.4,33.7,120.7z
	 M81.2,247.4c0,0.1,0,0.2,0,0.5C68.5,239,58.1,228,49.7,215.2c0.2-0.4,0.5-0.2,0.9-0.2c10,0,19.9,0,29.9,0c0.6,0,1,0,1,0.9
	C81.2,226.3,81.2,236.8,81.2,247.4z M268.6,166.8c-3.2,21.9-11.7,41.4-25.5,58.5c-5.1,6.4-10.8,12.1-17.1,17.1
	c-0.4-0.1-0.2-0.4-0.2-0.6c0-21.9,0-43.7,0-65.5c0-0.6,0.1-0.9,0.6-1.2c2.6-2,3.5-5.1,2.6-8.2c-0.9-3.1-3.5-5-6.7-5.3
	c-3.1-0.1-6,1.8-7.1,4.8c-1.2,3.1-0.2,6.5,2.3,8.6c0.5,0.4,0.7,0.9,0.7,1.5c0,23.7,0,47.4,0,71c0,0.7-0.2,1.1-0.9,1.5
	c-14.5,9.8-30.4,16.3-47.7,19.1c-10.9,1.8-21.9,2.1-32.7,0.9c-0.9-0.1-0.7-0.6-0.7-1.1c0-9.3,0-18.7,0-28c0-3.1,0-6.1,0-9.3
	c0-0.6,0.1-0.9,0.7-0.9c10,0,20,0,30.1,0c0.6,0,0.7,0.2,0.7,0.9c0,4.9,0,9.8,0,14.8c0,0.6-0.1,0.9-0.9,0.9c-2.7,0-5.4,0-8.1,0
	c-0.6,0-0.9-0.2-1.2-0.6c-2.1-2.7-5.4-3.7-8.4-2.6c-3.1,1.1-5,4.2-4.9,7.5s2.4,6,5.6,6.8c2.8,0.7,5.9-0.4,7.7-2.8
	c0.4-0.5,0.7-0.6,1.3-0.6c5.3,0,10.4,0,15.5,0c0.9,0,1-0.2,1-1c0-9.9,0-19.8,0-29.7c0-0.9-0.2-1-1-1c-15,0-30.1,0-45.1,0
	c-0.9,0-1,0.2-1,1c0,14.4,0,28.8,0,43.1c0,1.2,0,1.2-1.2,1.1c-13.4-2.6-26-7.3-37.9-14.3c-0.4-0.2-0.6-0.5-0.6-1.1
	c0-12.2,0-24.3,0-36.5c0-0.5,0.1-0.7,0.7-0.7c2.3,0,4.6,0,7,0c0.5,0,0.9,0.2,1.1,0.6c2,2.6,5.3,3.7,8.2,2.6c3.1-1,5.1-3.9,5-7.1
	c0-3.3-2.1-6.1-5.1-7.1c-3.1-1-6.2,0.1-8.2,2.7c-0.4,0.4-0.6,0.6-1.2,0.6c-17,0-33.8,0-50.8,0c-0.5,0-0.9-0.1-1.1-0.6
	c-1.6-3.2-3.3-6.5-4.8-9.8c-0.4-0.7-0.2-0.9,0.6-0.9c13.6,0,27,0,40.6,0c0.5,0,0.9,0.1,1.2,0.5c2.1,2.6,5.3,3.4,8.3,2.3
	c2.9-1.1,5-4.2,4.9-7.3c-0.1-3.3-2.3-6.1-5.4-6.8c-3.2-0.9-6.4,0.4-8.1,3.1c-0.4,0.5-0.6,0.6-1.1,0.6c-14.4,0-28.8,0-43.3,0
	c-0.6,0-0.9-0.2-1.1-0.9c-0.9-2.8-1.7-5.7-2.4-8.7c-0.1-0.6-0.1-1,0.7-1c7.7,0,15.5,0,23.2,0c0.6,0,0.9,0.2,1.2,0.6
	c2.4,3.4,7.2,4,10.4,1.5c3.3-2.6,3.8-7.5,1.1-10.8c-2.6-3.2-7.3-3.4-10.5-0.7c-0.1,0.1-0.2,0.1-0.4,0.2c-0.9,1.6-2.2,1.6-3.8,1.6
	c-7.7,0-15.3,0-23,0c-0.7,0-1-0.1-1.2-1c-1.5-8.8-2-17.5-1.3-26.4c0-0.6,0.1-0.9,0.9-0.9c4.9,0,9.7,0,14.5,0c0.7,0,0.9,0.2,0.9,0.9
	c0,5.6,0,11.2,0,16.9c0,0.5,0,0.9,0.7,1c1,0.1,2,0.1,2.9,0.1c16.4,0,32.7,0,49.1,0c0.5,0,1,0,1.3,0.5c6.6,9.5,14.9,17.5,24,24.8
	c7.7,6.2,15.9,11.7,24.3,17c0.9,0.5,1.6,0.5,2.4,0c5.1-3.3,10.3-6.5,15.3-10c0.4-0.2,0.7-0.4,1.1-0.4c7.7,0,15.3,0,23,0
	c0.6,0,0.9,0.1,0.9,0.9c0,15.4,0,30.9,0,46.3c0,0.6-0.2,1-0.7,1.3c-2.7,2.1-3.7,5.6-2.4,8.7c1.3,3.1,4,4.9,7.6,4.6
	c3.1-0.1,5.7-2.4,6.5-5.6c0.6-2.9-0.1-5.5-2.4-7.5c-0.6-0.5-0.9-1.1-0.9-1.8c0-17.7,0-35.6,0-53.3c0-0.9-0.2-1.1-1.1-1.1
	c-6.7-0.1-13.4,0-20.2,0c-0.2,0-0.5,0-0.9,0c6.1-5,11.6-10.3,16.6-16c6.5-7.5,11.7-15.6,14.9-25.2c1.7-5.3,2.6-10.5,2.3-16
	c0-0.7,0.1-1,0.9-1c10.1,0,20.4,0,30.5,0c0.9,0,0.9,0.2,0.9,1c0,12.1,0,24.3,0,36.4c0,0.9,0.1,1.1,1.1,1.1c7.8,0,15.8,0,23.6,0
	C268.5,165.8,268.6,165.9,268.6,166.8z M269.5,157.5c0,0.6-0.2,0.7-0.9,0.7c-5.7,0-11.5,0-17.1,0c-0.7,0-0.9-0.2-0.9-0.9
	c0-15.4,0-30.8,0-46.2c0-0.6,0.2-1,0.7-1.3c3.3-2.6,3.8-7.1,1.3-10.4c-2.3-3.2-6.8-3.8-10-1.6c-4,2.8-4.3,8.9-0.2,12.1
	c0.5,0.4,0.7,0.7,0.6,1.3c0,2.6,0,5.3,0,7.8c0,0.6-0.1,0.9-0.7,0.9c-10.8,0-21.5,0-32.4,0c-0.6,0-0.9-0.2-1-0.9
	c-4.2-12-12.6-19.6-24.8-22.2c-10.3-2.2-19.9-0.2-28,6.8c-2.3,2.1-4,4.5-5.5,7.3c-0.1,0.2-0.2,0.6-0.5,0.9c-0.4-0.1-0.5-0.5-0.6-0.7
	c-3.8-7.7-10.1-12-18.2-14.1c-14.2-3.7-29,2.2-36.8,14.7c-0.4,0.6-0.7,0.9-1.5,0.9c-7.8,0-15.5,0-23.3,0c-0.9,0-1-0.2-1-1
	c0.1-8.3,0.1-16.7,0.1-25.1c0-0.9,0.2-1,1-1c12.2,0,24.3,0,36.5,0c0.9,0,1.1-0.2,1.1-1.1c0-11,0-22,0-33c0-0.9,0.2-1.1,1.1-1.1
	c1.2,0,2.6,0,3.9,0c0.7,0,0.9,0.2,0.9,0.9c0,6.1,0,12.1,0,18.2s0,12.3,0,18.5c0,0.7,0.1,1,1,1c6.4,0,12.7,0,19.1,0c0.9,0,1-0.2,1-1
	c0-12.1,0-24.3-0.1-36.4c0-0.9,0.1-1.2,1.1-1.1c1.2,0.1,2.4,0,3.7,0c0.9,0,1,0.2,1,1c0,10.8,0,21.5,0,32.4c0,1.5,0,2.9,0,4.5
	c0,0.5,0.1,0.7,0.7,0.7c6.5,0,13.1,0,19.6,0c0.9,0,0.6-0.4,0.6-0.9c0-7.2,0-14.3,0-21.5c0-5.1,0-10.1,0-15.3c0-0.7,0.1-0.9,0.9-0.9
	c1.3,0,2.8,0,4.2,0c0.5,0,0.7,0.1,0.7,0.7c0,10.1,0,20.4,0,30.5c0,2.2,0,4.4,0,6.5c0,0.5,0.1,0.7,0.7,0.7c6.5,0,13.1,0,19.6,0
	c0.7,0,0.6-0.4,0.7-0.9c0-2.6,0-5.3,0-7.8c0-14.3,0-28.5,0-42.8c0-1.2,0-1.2,1.1-0.9c16.6,5.7,31.4,14.7,44.2,26.8
	c1.3,1.2,2.6,2.6,3.9,4c-0.5,0-0.9,0-1.2,0c-6.8,0-13.8,0-20.7,0c-2.4,0-4.9,0.1-7.3,0.1c-0.6,0-0.9,0.2-0.9,0.9c0,3.2,0,6.2,0,9.3
	c0,0.6-0.1,1-0.7,1.5c-3.4,2.7-3.9,7.7-1,11c2.8,3.1,7.7,3.2,10.6,0.2c3.1-3.1,2.9-8.1-0.4-11c-0.9-0.7-1-1.2-1-2.2
	c0-2.2,0-2.2,2.2-2.2c8.7,0,17.4,0,26,0c0.6,0,1.1,0.1,1.5,0.7c11.7,14.8,19.4,31.4,23.3,49.9C269.5,136,270.2,146.6,269.5,157.5z"
	/>
</svg>
