<?xml version="1.0" encoding="utf-8"?>
<!-- Generator: Adobe Illustrator 22.0.0, SVG Export Plug-In . SVG Version: 6.00 Build 0)  -->
<svg version="1.1" id="Layer_1" xmlns="http://www.w3.org/2000/svg" xmlns:xlink="http://www.w3.org/1999/xlink" x="0px" y="0px"
	 viewBox="0 0 731.2 185.9" style="enable-background:new 0 0 731.2 185.9;" xml:space="preserve">
<g id="KifytK.tif">
	<g>
		<path d="M731.2,162.1c0,7.9,0,15.8,0,23.8c-20,0-40,0-60,0c-0.1-1.1-0.1-2.2-0.1-3.3c0-5.5,0.1-11.1-0.3-16.6
			c-0.3-3.9-0.8-7.7-1.5-11.5c-1-4.8-2.4-9.5-4.8-13.9c-2.1-3.9-4.7-7.2-8.4-9.8c-2.7-1.9-5.7-3.2-8.8-4.3
			c-7.7-2.6-15.6-3.8-23.6-4.6c-3.5-0.4-7-0.6-10.5-0.8c-4-0.2-8.1-0.4-12.1-0.5c-12.1-0.2-24.2,0-36.3-0.2
			c-7.2-0.1-14.4,0-21.6-0.2c-4.6-0.1-9.3-0.1-13.9-0.2c-5.7-0.1-11.4-0.2-17.1-0.4c-5.6-0.1-11.1-0.3-16.7-0.6
			c-4.6-0.2-9.2-0.4-13.8-0.7c-5.2-0.3-10.4-0.9-15.6-1.7c-9-1.3-18-3.1-26.8-5.5c-10-2.7-19.7-6.3-29-11.1
			c-11.9-6.3-22.1-14.7-30.7-25c-5.3-6.4-9.8-13.4-13.6-20.8c-0.1-0.3-0.2-0.7-0.6-0.8c-0.3,0.2-0.4,0.5-0.6,0.8
			c-1,1.6-1.9,3.2-2.9,4.8c-6.5,10.5-14.2,19.9-23.5,28.1c-9.1,8-19.2,14.4-30.4,19c-8.3,3.4-16.9,5.7-25.7,7.5
			c-10.8,2.2-21.8,3.6-32.8,4.6c-5.9,0.6-11.9,1-17.9,1.3c-4.2,0.2-8.3,0.4-12.5,0.5c-6,0.2-12,0.3-18,0.4
			c-15.9,0.1-31.9-0.1-47.8,0.2c-5.5,0.1-11,0-16.5,0.2c-5.7,0.1-11.4,0.2-17.2,0.4c-6,0.2-11.9,0.5-17.9,1.2
			c-5,0.6-9.9,1.4-14.7,2.8c-4.5,1.3-8.8,3-12.7,5.6c-4.1,2.7-7.2,6.3-9.3,10.9c-0.7,1.6-1.3,3.2-1.9,4.9
			c-1.8,5.8-2.6,11.7-3.1,17.7c-0.5,5.9-0.4,11.8-0.4,17.7c0,0.9,0,1.8,0,2.7c0,0.4,0,0.8-0.1,1.2c-19.6,0-39.5,0-59.5,0
			c0-9.2,0-18.3,0-27.5c0.1-0.4,0.1-0.7,0.1-1.1c0-2.9,0.2-5.7,0.4-8.6c0.3-4,0.8-8,1.4-12c1.3-8.6,4.2-16.6,8.6-24.1
			c6-10.2,14.1-18.5,23.9-25.1C44.7,80.5,56.1,76,68.2,73c9.8-2.4,19.7-3.5,29.7-4.4c3.7-0.3,7.5-0.6,11.2-0.8
			c4.9-0.3,9.9-0.6,14.8-0.8c4.8-0.2,9.5-0.4,14.3-0.5c4.6-0.2,9.3-0.3,13.9-0.4c3.4-0.1,6.7-0.1,10.1-0.2
			c5.8-0.2,11.5-0.1,17.3-0.2c10-0.1,20-0.1,30-0.3c0.3,0,0.6,0,0.9,0c5.6-0.2,11.3-0.3,16.9-0.5c1.8-0.1,3.6-0.1,5.5-0.2
			c4-0.2,8-0.4,11.9-0.7c3.6-0.2,7.2-0.5,10.8-0.8c4.7-0.4,9.5-1,14.2-1.6c6.5-0.9,12.9-2.3,19.2-4.3c9.7-3.2,18.6-7.8,26.2-14.6
			c10.9-9.6,16.7-21.8,18.5-36.1c0.3-2.2,0.4-4.4,0.6-6.6c20.7,0,41.5,0,62.2,0c0.1,0.9,0.2,1.7,0.2,2.6c0.2,3.7,0.7,7.3,1.5,10.8
			c1.8,7.9,5.1,15.2,10.1,21.6c5.7,7.3,12.8,12.8,21,17.1c6,3.1,12.3,5.4,18.9,7.1c7.5,1.9,15.2,2.9,23,3.7
			c4.7,0.5,9.5,0.9,14.2,1.2c5,0.3,10.1,0.6,15.1,0.8c3.4,0.2,6.7,0.3,10.1,0.4c5.8,0.1,11.6,0.3,17.4,0.4c7.2,0.1,14.4,0,21.5,0.2
			c7,0.1,14,0.1,21,0.2c7.7,0.1,15.3,0.2,23,0.4c3.6,0.1,7.3,0.2,10.9,0.3c4.2,0.1,8.4,0.3,12.6,0.5c3.4,0.1,6.7,0.3,10.1,0.6
			c4.2,0.4,8.3,0.8,12.4,1.4c7.3,1,14.5,2.2,21.7,3.9c12.1,2.9,23.6,7.5,34.2,14.1c6.3,3.9,11.9,8.5,16.8,14.1
			c4.7,5.4,8.4,11.4,11.2,17.8c2.1,4.8,4,9.7,5,14.8c0.8,3.7,1.3,7.5,1.6,11.3c0.3,3.2,0.5,6.5,0.7,9.7c0.1,2.1,0.1,4.2,0.2,6.3
			C731.1,161.6,731.1,161.9,731.2,162.1z"/>
	</g>
</g>
</svg>
